<svg width="30" height="30" viewBox="0 0 30 30" fill="none" xmlns="http://www.w3.org/2000/svg">
<g clip-path="url(#clip0_12742_153920)">
<path fill-rule="evenodd" clip-rule="evenodd" d="M30 15C30 23.2843 23.2843 30 15 30C6.71573 30 0 23.2843 0 15C0 6.71573 6.71573 0 15 0C23.2843 0 30 6.71573 30 15ZM14 27.9621V16H2.03789C2.52341 22.3824 7.61759 27.4766 14 27.9621ZM2.03789 14H14V2.03789C7.61759 2.52341 2.52341 7.61759 2.03789 14ZM27.9621 16C27.4766 22.3824 22.3824 27.4766 16 27.9621V16H27.9621ZM27.9621 14H16V2.03789C22.3824 2.52341 27.4766 7.61759 27.9621 14Z" fill="white"/>
</g>
<defs>
<clipPath id="clip0_12742_153920">
<rect width="30" height="30" fill="white"/>
</clipPath>
</defs>
</svg>
