<svg width="30" height="30" viewBox="0 0 30 30" fill="none" xmlns="http://www.w3.org/2000/svg">
<path fill-rule="evenodd" clip-rule="evenodd" d="M4.67535 1.96799C5.8108 0.631266 7.41656 0 9.22727 0C11.038 0 12.6437 0.631266 13.7792 1.96799C14.8963 3.28306 15.4545 5.1586 15.4545 7.46154C15.4545 8.72557 15.0305 10.3001 14.4071 11.9113C13.7744 13.5463 12.8999 15.311 11.9199 16.9858C10.9401 18.6603 9.84258 20.266 8.75588 21.5778C8.45449 21.9417 8.148 22.2902 7.83947 22.6154H19.7273V6.38462H21.7273V22.6154H27V24.6154H21.7273V30H19.7273V24.6154H5.04545L4.58757 22.7264C5.2723 22.3737 6.19033 21.5397 7.21571 20.302C8.21992 19.0897 9.25687 17.5768 10.1937 15.9757C11.1304 14.3749 11.9547 12.7069 12.5418 11.1896C13.1381 9.64861 13.4545 8.35135 13.4545 7.46154C13.4545 5.45679 12.9674 4.10156 12.2549 3.26278C11.5608 2.44566 10.5529 2 9.22727 2C7.90163 2 6.89374 2.44566 6.19965 3.26278C5.48717 4.10156 5 5.45679 5 7.46154H3C3 5.1586 3.55829 3.28306 4.67535 1.96799Z" fill="white"/>
</svg>
