<svg width="30" height="30" viewBox="0 0 30 30" fill="none" xmlns="http://www.w3.org/2000/svg">
<path fill-rule="evenodd" clip-rule="evenodd" d="M22.861 16.479C24.0671 18.0508 25.7581 19.1807 27.6718 19.6935L27.1542 21.6254C24.8152 20.9986 22.7484 19.6176 21.2743 17.6966C20.004 16.0411 19.2351 14.0642 19.0467 11.9997H16V18.0826C18.8377 18.5587 21 21.0267 21 23.9997C21 27.3134 18.3137 29.9997 15 29.9997C11.6863 29.9997 9 27.3134 9 23.9997C9 21.0267 11.1623 18.5587 14 18.0826V11.9997H10.9534C10.7652 14.0647 9.9962 16.042 8.72564 17.6978C7.25154 19.6189 5.18473 20.9999 2.84576 21.6266L2.32812 19.6948C4.24183 19.182 5.93285 18.0521 7.13894 16.4803C8.34502 14.9085 8.99875 12.9827 8.99875 11.0014C8.99875 9.02024 8.34502 7.09439 7.13893 5.52259C5.93285 3.95079 4.24183 2.82089 2.32812 2.30811L2.84576 0.376263C5.18473 1.00299 7.25154 2.38398 8.72564 4.30507C9.99547 5.95995 10.7644 7.93594 10.9531 9.99968H14V2.99968H16V9.99968H19.0468C19.2353 7.93548 20.0042 5.95903 21.2743 4.30381C22.7484 2.38272 24.8152 1.00172 27.1542 0.375L27.6718 2.30685C25.7581 2.81963 24.0671 3.94953 22.861 5.52133C21.655 7.09313 21.0012 9.01898 21.0012 11.0002C21.0012 12.9814 21.655 14.9072 22.861 16.479ZM15 27.9997C17.2091 27.9997 19 26.2088 19 23.9997C19 21.7905 17.2091 19.9997 15 19.9997C12.7909 19.9997 11 21.7905 11 23.9997C11 26.2088 12.7909 27.9997 15 27.9997Z" fill="white"/>
</svg>
