<svg width="30" height="30" viewBox="0 0 30 30" fill="none" xmlns="http://www.w3.org/2000/svg">
<path fill-rule="evenodd" clip-rule="evenodd" d="M28.0001 2H19.0001V4H24.5859L18.3288 10.2571C16.6049 8.84638 14.4013 8 12 8C6.47715 8 2 12.4772 2 18C2 23.5228 6.47715 28 12 28C17.5228 28 22 23.5228 22 18C22 15.5987 21.1536 13.3952 19.743 11.6713L26.0001 5.41421V11H28.0001V2ZM20 18C20 22.4183 16.4183 26 12 26C7.58172 26 4 22.4183 4 18C4 13.5817 7.58172 10 12 10C16.4183 10 20 13.5817 20 18Z" fill="white"/>
</svg>
