<svg width="30" height="30" viewBox="0 0 30 30" fill="none" xmlns="http://www.w3.org/2000/svg">
<path fill-rule="evenodd" clip-rule="evenodd" d="M10.8726 6.00009C8.5494 4.79918 6.81626 2.616 6.22266 0H8.28952C9.15007 2.89149 11.8286 5 14.9996 5C18.1707 5 20.8492 2.89149 21.7098 0H23.7766C23.1831 2.61586 21.4501 4.79896 19.127 5.99991C22.0215 7.4961 24 10.517 24 14C24 18.6326 20.5 22.4476 16 22.9451V25H20V27H16V30H14V27H10V25H14V22.9451C9.50005 22.4476 6 18.6326 6 14C6 10.5171 7.97836 7.49635 10.8726 6.00009ZM15 21C18.866 21 22 17.866 22 14C22 10.134 18.866 7 15 7C11.134 7 8 10.134 8 14C8 17.866 11.134 21 15 21Z" fill="white"/>
</svg>
