<svg width="30" height="30" viewBox="0 0 30 30" fill="none" xmlns="http://www.w3.org/2000/svg">
<g clip-path="url(#clip0_12742_153919)">
<path fill-rule="evenodd" clip-rule="evenodd" d="M15.0008 28C22.1805 28 28.0008 22.1797 28.0008 15C28.0008 7.8203 22.1805 2 15.0008 2C13.7867 2 12.6128 2.16597 11.4998 2.47635C16.9799 4.00429 21.0006 9.0326 21.0006 15C21.0006 20.9674 16.9799 25.9957 11.4998 27.5237C12.6128 27.834 13.7867 28 15.0008 28ZM30.0008 15C30.0008 23.2843 23.2851 30 15.0008 30C12.1354 30 9.45764 29.1965 7.18053 27.8026C6.34727 27.2926 7.02364 26 8.00062 26C14.0758 26 19.0006 21.0751 19.0006 15C19.0006 8.92487 14.0758 4 8.00062 4C7.02364 4 6.34727 2.70744 7.18053 2.19737C9.45764 0.803457 12.1354 0 15.0008 0C23.2851 0 30.0008 6.71573 30.0008 15Z" fill="white"/>
</g>
<defs>
<clipPath id="clip0_12742_153919">
<rect width="30" height="30" fill="white"/>
</clipPath>
</defs>
</svg>
