<svg width="30" height="30" viewBox="0 0 30 30" fill="none" xmlns="http://www.w3.org/2000/svg">
<path d="M9.70718 4.29304L6.00008 0.585938L2.29297 4.29304L3.70718 5.70726L5 4.41444V12C5 17.1853 8.94668 21.4489 14 21.9506V25H9V27H14V30H16V27H21V25H16V21.9506C21.0533 21.4489 25 17.1853 25 12V4.41429L26.293 5.70726L27.7072 4.29304L24.0001 0.585938L20.293 4.29304L21.7072 5.70726L23 4.41444V12C23 16.0796 19.9463 19.446 16 19.9381L16 7.41429L17.293 8.70726L18.7072 7.29304L15.0001 3.58594L11.293 7.29304L12.7072 8.70726L14 7.41444L14 19.9381C10.0537 19.446 7 16.0796 7 12V4.41429L8.29297 5.70726L9.70718 4.29304Z" fill="white"/>
</svg>
