<svg width="30" height="30" viewBox="0 0 30 30" fill="none" xmlns="http://www.w3.org/2000/svg">
<path fill-rule="evenodd" clip-rule="evenodd" d="M15 14C18.866 14 22 10.866 22 7C22 3.13401 18.866 0 15 0C11.134 0 8 3.13401 8 7C8 10.866 11.134 14 15 14ZM15 12C17.7614 12 20 9.76142 20 7C20 4.23858 17.7614 2 15 2C12.2386 2 10 4.23858 10 7C10 9.76142 12.2386 12 15 12Z" fill="white"/>
<path d="M14 17.9589C7.84047 17.4508 3 12.2907 3 6H5C5 11.5228 9.47715 16 15 16C20.5228 16 25 11.5228 25 6H27C27 12.2907 22.1595 17.4508 16 17.9589V23H21V25H16V30H14V25H9V23H14V17.9589Z" fill="white"/>
</svg>
