<svg width="30" height="30" viewBox="0 0 30 30" fill="none" xmlns="http://www.w3.org/2000/svg">
<path d="M20.5 30C21.4825 30 22.4038 29.6643 23.0651 28.9085C23.7111 28.1702 24 27.1557 24 26H22C22 26.8443 21.7889 27.3298 21.5599 27.5915C21.3462 27.8357 21.0175 28 20.5 28C19.9825 28 19.6538 27.8357 19.4401 27.5915C19.2111 27.3298 19 26.8443 19 26C19 25.7592 19.1425 25.295 19.5231 24.5181C19.7601 24.0341 20.0419 23.518 20.3528 22.9487C20.5215 22.6396 20.6989 22.3147 20.8823 21.9708C21.8741 20.1113 23 17.7811 23 15.5C23 13.3452 22.4611 11.5628 21.292 10.3158C20.1131 9.05839 18.4391 8.5 16.5 8.5C14.6167 8.5 13.0914 9.24436 12 10.2734V5.5H16V3.5H12V0H10V3.5H6V5.5H10L10 24.5006H12L12 14.5006C12 13.796 12.3728 12.7815 13.1671 11.9342C13.9381 11.1116 15.0578 10.5 16.5 10.5C18.0609 10.5 19.1369 10.9413 19.833 11.6838C20.5389 12.4366 21 13.6542 21 15.5C21 17.2195 20.1258 19.1393 19.1177 21.0296C18.9575 21.33 18.7918 21.6336 18.6278 21.9341C18.3018 22.5315 17.9826 23.1165 17.7269 23.6383C17.3575 24.3926 17 25.2408 17 26C17 27.1557 17.2889 28.1702 17.9349 28.9085C18.5962 29.6643 19.5175 30 20.5 30Z" fill="white"/>
</svg>
