<svg width="22" height="22" viewBox="0 0 22 22" fill="none" xmlns="http://www.w3.org/2000/svg">
<g id="edit_outlined">
<g id="Union">
<path fill-rule="evenodd" clip-rule="evenodd" d="M15.5574 2.38701C15.364 2.19361 15.1017 2.08496 14.8282 2.08496C14.5547 2.08496 14.2924 2.19361 14.099 2.38701L3.04779 13.4382C2.8931 13.5929 2.79162 13.7928 2.758 14.0089L2.07452 18.4037C2.0241 18.7278 2.13093 19.0567 2.36224 19.2893C2.59355 19.5219 2.92175 19.6306 3.24619 19.582L7.6632 18.9208C7.88153 18.8881 8.08362 18.7863 8.23973 18.6301L19.2909 7.57894C19.6937 7.17621 19.6937 6.52326 19.2909 6.12053L15.5574 2.38701ZM4.74426 14.6586L14.8282 4.57462L17.1033 6.84973L7.02167 16.9314L4.32808 17.3346L4.74426 14.6586Z" fill="white" fill-opacity="0.3"/>
<path d="M18.9064 19.593C19.4759 19.593 19.9376 19.1313 19.9376 18.5618C19.9376 17.9922 19.4759 17.5305 18.9064 17.5305L13.4025 17.5305C12.8329 17.5305 12.3712 17.9922 12.3712 18.5618C12.3712 19.1313 12.8329 19.593 13.4025 19.593L18.9064 19.593Z" fill="white" fill-opacity="0.3"/>
</g>
</g>
</svg>
