<svg width="49" height="49" viewBox="0 0 49 49" fill="none" xmlns="http://www.w3.org/2000/svg">
<g id="tag">
<path id="Subtract" fill-rule="evenodd" clip-rule="evenodd" d="M21.3477 2.6908C21.8695 1.28072 23.8639 1.28072 24.3856 2.6908L27.2813 10.5162C28.8023 14.6267 31.918 17.9309 35.8974 19.6978C34.9621 20.25 34.1634 21.1271 33.7435 22.2617L33.3598 23.2988L32.4061 22.8537C28.9297 21.2313 26.1353 18.4369 24.5128 14.9605L22.8667 11.4332L21.2205 14.9605C19.598 18.4369 16.8037 21.2313 13.3273 22.8537L9.8 24.4999L13.3273 26.1461C16.8037 27.7685 19.598 30.5629 21.2205 34.0393L22.8667 37.5666L23.4208 36.3791C23.8611 37.1351 24.5636 37.766 25.5285 38.123L27.1876 38.737L24.3856 46.309C23.8639 47.7191 21.8695 47.7191 21.3477 46.309L18.452 38.4836C16.8116 34.0503 13.3162 30.555 8.88301 28.9146L1.05756 26.0189C-0.352521 25.4971 -0.352518 23.5027 1.05756 22.9809L8.88301 20.0853C13.3162 18.4448 16.8116 14.9495 18.452 10.5162L21.3477 2.6908Z" fill="white"/>
<path id="Star 18" d="M43.1764 19.1479C43.1624 18.8797 43.4897 18.7389 43.6749 18.9334L44.7026 20.0131C45.2848 20.6247 46.1051 20.9515 46.9484 20.9076L48.4369 20.8303C48.7052 20.8163 48.846 21.1436 48.6514 21.3288L47.5718 22.3564C46.9602 22.9386 46.6334 23.759 46.6772 24.6023L46.7546 26.0908C46.7685 26.359 46.4413 26.4998 46.2561 26.3053L45.2284 25.2257C44.6462 24.614 43.8259 24.2873 42.9826 24.3311L41.4941 24.4085C41.2258 24.4224 41.085 24.0952 41.2796 23.91L42.3592 22.8823C42.9708 22.3001 43.2976 21.4798 43.2538 20.6365L43.1764 19.1479Z" fill="#9747FF"/>
<path id="Star 16" d="M36.8071 23.3954C37.068 22.6904 38.0652 22.6904 38.3261 23.3954L39.774 27.3081C40.5942 29.5248 42.3418 31.2724 44.5585 32.0926L48.4712 33.5405C49.1762 33.8014 49.1762 34.7986 48.4712 35.0595L44.5585 36.5073C42.3418 37.3275 40.5942 39.0752 39.774 41.2918L38.3261 45.2045C38.0652 45.9096 37.068 45.9096 36.8071 45.2045L35.3593 41.2918C34.5391 39.0752 32.7914 37.3275 30.5748 36.5073L26.6621 35.0595C25.957 34.7986 25.957 33.8014 26.6621 33.5405L30.5748 32.0926C32.7914 31.2724 34.5391 29.5248 35.3593 27.3081L36.8071 23.3954Z" fill="#9747FF"/>
</g>
</svg>
