<svg width="33" height="33" viewBox="0 0 33 33" fill="none" xmlns="http://www.w3.org/2000/svg">
<g id="tag" clip-path="url(#clip0_15783_34379)">
<path id="Subtract" fill-rule="evenodd" clip-rule="evenodd" d="M4.11554 5.27903C4.51893 4.21043 5.93428 4.22593 7.65913 4.24482C10.1739 4.27237 13.3464 4.30712 15 1C16.6536 4.30712 19.8261 4.27237 22.3409 4.24482C24.0656 4.22593 25.4808 4.21043 25.8843 5.27875L20.4144 9.83703C20.3325 9.34325 20.1927 8.92966 19.9972 8.56656C19.6674 7.95411 19.2027 7.53237 18.7193 7.1326C18.6316 7.06 18.5419 6.98713 18.4505 6.91288L18.4495 6.91211L18.4491 6.91175L18.4479 6.91082L18.4476 6.91055C17.5497 6.1812 16.4873 5.31815 15.4463 3.2732L15.0007 2.39795L14.5551 3.2732C13.514 5.31815 12.4516 6.1812 11.5538 6.91054C11.4614 6.9856 11.3707 7.05924 11.282 7.1326C10.7987 7.53237 10.334 7.95411 10.0042 8.56656C9.8085 8.92998 9.66863 9.34398 9.58672 9.83834L4.11554 5.27903ZM21.1257 10.546L26.5318 6.04093C28.1932 6.31744 28.2914 7.95924 28.4059 9.87284C28.5114 11.6363 28.6307 13.6307 30 15C28.7604 16.2396 28.5452 17.9915 28.4373 19.6206L27.8756 19.6374C27.9886 19.48 28.0757 19.3 28.1288 19.1017L28.4135 18.0392C28.6202 17.2676 28.2444 16.4772 27.5556 16.135C27.7694 15.9284 27.9853 15.7162 28.2056 15.4997L28.351 15.3568L28.7142 15L28.351 14.6433L28.2056 14.5004L28.2056 14.5004L28.2055 14.5003C27.0781 13.3922 26.0662 12.3976 24.854 11.6851C23.8126 11.0729 22.6378 10.6752 21.1257 10.546ZM26.1027 16.1261C25.848 16.2491 25.6256 16.4369 25.4616 16.6743C25.0997 16.9655 24.7341 17.2256 24.3473 17.4529C24.2981 17.4818 24.2486 17.5102 24.1986 17.5381V17.05C24.1986 16.1387 23.4599 15.4 22.5486 15.4C21.6373 15.4 20.8986 16.1387 20.8986 17.05V18.15C20.8986 18.2583 20.909 18.3642 20.929 18.4667C20.6974 18.4841 20.4562 18.4948 20.2041 18.4985C20.1951 18.4151 20.1795 18.3312 20.1571 18.2476L19.8724 17.1851C19.6366 16.3049 18.7318 15.7825 17.8516 16.0183C17.6512 16.072 17.4694 16.1604 17.3109 16.2752L15.7808 15.0001L19.9808 11.5H20.0007C21.9233 11.5 23.2337 11.8926 24.3473 12.5472C25.3675 13.1468 26.2407 13.9744 27.287 15C26.8716 15.4072 26.4835 15.7832 26.1027 16.1261ZM16.7162 17.0813L14.9998 15.6509L10.5103 19.3922C10.5472 20.1138 10.688 20.5941 10.8847 20.9594C11.1174 21.3916 11.4527 21.7109 11.9193 22.0969C12.0056 22.1682 12.0949 22.2407 12.187 22.3155L12.187 22.3155C12.2969 22.4047 12.4106 22.4971 12.5278 22.5944C12.9273 22.2828 13.3986 21.9375 13.9324 21.5849C13.7285 21.4488 13.552 21.2649 13.4212 21.0383L12.8712 20.0856C12.4155 19.2965 12.6859 18.2873 13.4751 17.8317C14.2643 17.3761 15.2734 17.6465 15.729 18.4356L16.279 19.3883C16.3874 19.5759 16.4547 19.776 16.4837 19.9782L16.8878 19.9661C17.035 19.9017 17.1843 19.8387 17.3356 19.7775C17.1672 19.5903 17.0392 19.3616 16.9696 19.1017L16.6849 18.0392C16.597 17.7113 16.6144 17.3801 16.7162 17.0813ZM11.7389 23.2403C11.6765 23.1892 11.6147 23.1391 11.5538 23.0895C11.4614 23.0145 11.3707 22.9408 11.282 22.8675C10.7987 22.4677 10.334 22.046 10.0042 21.4335C9.80851 21.0701 9.66864 20.6561 9.58673 20.1618L4.11559 24.7211C4.51904 25.7896 5.93435 25.7741 7.65913 25.7552C8.8876 25.7417 10.2731 25.7265 11.5617 26.1001C11.1872 25.728 11 25.239 11 24.7499C11 24.2212 11.2187 23.6926 11.6563 23.3118C11.683 23.2885 11.7106 23.2647 11.7389 23.2403ZM24.1021 18.7071C24.3617 18.5885 24.6115 18.4576 24.854 18.315C24.8816 18.2988 24.9091 18.2825 24.9364 18.266C24.8795 18.4883 24.8708 18.7119 24.9038 18.9255C24.6288 18.8735 24.3501 18.8296 24.0679 18.7947C24.0801 18.7659 24.0915 18.7367 24.1021 18.7071ZM19.1167 9.04066C19.3133 9.40572 19.454 9.88571 19.491 10.6065L14.9998 14.3492L10.5103 10.608C10.5472 9.88634 10.688 9.40596 10.8847 9.04066C11.1174 8.60847 11.4527 8.28914 11.9193 7.90319C12.0056 7.83187 12.0949 7.75933 12.187 7.68454C12.9892 7.03324 14.0015 6.21141 15.0007 4.53598C15.9999 6.21141 17.0121 7.03324 17.8143 7.68454C17.9064 7.75933 17.9958 7.83187 18.082 7.90319C18.5487 8.28914 18.884 8.60847 19.1167 9.04066ZM10.0187 11.5L14.2188 15.0001L10.0188 18.5H10.0007C8.078 18.5 6.7677 18.1075 5.65404 17.4529C4.63384 16.8532 3.76063 16.0257 2.71432 15C3.76063 13.9744 4.63384 13.1468 5.65404 12.5472C6.76769 11.8926 8.078 11.5 10.0007 11.5H10.0187ZM5.1473 18.315C6.18843 18.927 7.36277 19.3246 8.87406 19.454L3.46801 23.959C1.80677 23.6824 1.70856 22.0407 1.5941 20.1272C1.48862 18.3637 1.36932 16.3693 0 15C1.36932 13.6307 1.48862 11.6363 1.5941 9.87284C1.70856 7.95938 1.80676 6.31768 3.46785 6.04099L8.87398 10.5461C7.36273 10.6755 6.18842 11.0731 5.1473 11.6851C3.93514 12.3976 2.92324 13.3922 1.79577 14.5004L1.65032 14.6433L1.28711 15L1.65032 15.3568L1.79579 15.4997C2.92325 16.6079 3.93515 17.6025 5.1473 18.315Z" fill="white"/>
<path id="Subtract_2" fill-rule="evenodd" clip-rule="evenodd" d="M18.0883 28.836C19.4489 29.3499 20.9594 29.7 22.5501 29.7C24.1408 29.7 25.6513 29.3499 27.0119 28.836C27.9982 27.7595 28.6001 26.325 28.6001 24.75C28.6001 23.1749 27.9982 21.7405 27.0119 20.664C25.6513 20.1501 24.1408 19.8 22.5501 19.8C20.9594 19.8 19.4489 20.1501 18.0883 20.664C17.102 21.7405 16.5001 23.1749 16.5001 24.75C16.5001 26.325 17.102 27.7595 18.0883 28.836ZM28.9404 21.5393C29.4264 22.5047 29.7001 23.5954 29.7001 24.75C29.7001 25.9046 29.4264 26.9953 28.9404 27.9607C30.6504 27.0548 31.9795 26.0041 32.7216 25.3583C33.0929 25.0351 33.0929 24.4649 32.7216 24.1417C31.9795 23.4958 30.6504 22.4452 28.9404 21.5393ZM16.1598 27.9607C15.6738 26.9953 15.4001 25.9046 15.4001 24.75C15.4001 23.5954 15.6738 22.5047 16.1598 21.5393C14.4498 22.4452 13.1207 23.4958 12.3786 24.1417C12.0073 24.4649 12.0073 25.0351 12.3786 25.3583C13.1207 26.0041 14.4498 27.0548 16.1598 27.9607ZM22.5501 19.8C19.8163 19.8 17.6001 22.0162 17.6001 24.75C17.6001 27.4838 19.8163 29.7 22.5501 29.7C25.2839 29.7 27.5001 27.4838 27.5001 24.75C27.5001 22.0162 25.2839 19.8 22.5501 19.8ZM24.2001 24.75C24.2001 25.6613 23.4614 26.4 22.5501 26.4C21.6388 26.4 20.9001 25.6613 20.9001 24.75C20.9001 23.8387 21.6388 23.1 22.5501 23.1C23.4614 23.1 24.2001 23.8387 24.2001 24.75ZM25.3001 24.75C25.3001 26.2688 24.0689 27.5 22.5501 27.5C21.0313 27.5 19.8001 26.2688 19.8001 24.75C19.8001 23.2312 21.0313 22 22.5501 22C24.0689 22 25.3001 23.2312 25.3001 24.75ZM22.5501 28.6C24.6764 28.6 26.4001 26.8763 26.4001 24.75C26.4001 22.6237 24.6764 20.9 22.5501 20.9C20.4238 20.9 18.7001 22.6237 18.7001 24.75C18.7001 26.8763 20.4238 28.6 22.5501 28.6Z" fill="#9747FF"/>
<g id="Vector">
<path d="M22.0001 17.0502C22.0001 16.7465 22.2463 16.5002 22.5501 16.5002C22.8538 16.5002 23.1001 16.7465 23.1001 17.0502L23.1001 18.1502C23.1001 18.454 22.8538 18.7002 22.5501 18.7002C22.2463 18.7002 22.0001 18.454 22.0001 18.1502L22.0001 17.0502Z" fill="#9747FF"/>
<path d="M13.8238 19.5358C13.6719 19.2728 13.762 18.9364 14.0251 18.7845C14.2882 18.6326 14.6245 18.7228 14.7764 18.9858L15.3264 19.9385C15.4783 20.2015 15.3882 20.5379 15.1251 20.6898C14.862 20.8416 14.5257 20.7515 14.3738 20.4885L13.8238 19.5358Z" fill="#9747FF"/>
<path d="M17.7483 17.7548C17.6697 17.4614 17.8438 17.1598 18.1372 17.0812C18.4306 17.0026 18.7322 17.1767 18.8108 17.4701L19.0955 18.5326C19.1742 18.826 19 19.1276 18.7066 19.2062C18.4132 19.2849 18.1116 19.1107 18.033 18.8173L17.7483 17.7548Z" fill="#9747FF"/>
<path d="M30.3238 18.9858C30.4757 18.7228 30.812 18.6326 31.0751 18.7845C31.3382 18.9364 31.4283 19.2728 31.2764 19.5358L30.7264 20.4885C30.5745 20.7515 30.2382 20.8416 29.9751 20.6898C29.712 20.5379 29.6219 20.2015 29.7738 19.9385L30.3238 18.9858Z" fill="#9747FF"/>
<path d="M26.2893 17.4701C26.368 17.1767 26.6696 17.0026 26.963 17.0812C27.2564 17.1598 27.4305 17.4614 27.3519 17.7548L27.0672 18.8173C26.9885 19.1107 26.687 19.2849 26.3936 19.2062C26.1001 19.1276 25.926 18.826 26.0046 18.5326L26.2893 17.4701Z" fill="#9747FF"/>
</g>
<g id="Vector_2">
<path d="M22.0001 32.45C22.0001 32.7538 22.2463 33 22.5501 33C22.8538 33 23.1001 32.7538 23.1001 32.45L23.1001 31.35C23.1001 31.0462 22.8538 30.8 22.5501 30.8C22.2463 30.8 22.0001 31.0462 22.0001 31.35L22.0001 32.45Z" fill="#9747FF"/>
<path d="M13.8238 29.9644C13.6719 30.2275 13.762 30.5639 14.0251 30.7157C14.2882 30.8676 14.6245 30.7775 14.7764 30.5144L15.3264 29.5618C15.4783 29.2987 15.3882 28.9624 15.1251 28.8105C14.862 28.6586 14.5257 28.7487 14.3738 29.0118L13.8238 29.9644Z" fill="#9747FF"/>
<path d="M17.7483 31.7454C17.6697 32.0388 17.8438 32.3404 18.1372 32.419C18.4306 32.4977 18.7322 32.3235 18.8108 32.0301L19.0955 30.9676C19.1742 30.6742 19 30.3726 18.7066 30.294C18.4132 30.2154 18.1116 30.3895 18.033 30.6829L17.7483 31.7454Z" fill="#9747FF"/>
<path d="M30.3238 30.5144C30.4757 30.7775 30.812 30.8676 31.0751 30.7157C31.3382 30.5639 31.4283 30.2275 31.2764 29.9644L30.7264 29.0118C30.5745 28.7487 30.2382 28.6586 29.9751 28.8105C29.712 28.9624 29.6219 29.2987 29.7738 29.5618L30.3238 30.5144Z" fill="#9747FF"/>
<path d="M26.2893 32.0301C26.368 32.3235 26.6696 32.4977 26.963 32.419C27.2564 32.3404 27.4305 32.0388 27.3519 31.7454L27.0672 30.6829C26.9885 30.3895 26.687 30.2154 26.3936 30.294C26.1001 30.3726 25.926 30.6742 26.0046 30.9676L26.2893 32.0301Z" fill="#9747FF"/>
</g>
</g>
<defs>
<clipPath id="clip0_15783_34379">
<rect width="33" height="33" fill="white"/>
</clipPath>
</defs>
</svg>
