<svg width="49" height="49" viewBox="0 0 49 49" fill="none" xmlns="http://www.w3.org/2000/svg">
<g id="tag">
<path id="Ellipse 585 (Stroke)" fill-rule="evenodd" clip-rule="evenodd" d="M10.0113 22.5503C9.28656 23.2357 8.98331 23.8949 8.98331 24.5C8.98331 25.1052 9.28656 25.7643 10.0113 26.4497C10.7378 27.1368 11.8329 27.7932 13.2539 28.3615C16.0912 29.4965 20.0669 30.2167 24.5 30.2167C28.933 30.2167 32.9087 29.4965 35.7461 28.3615C37.167 27.7932 38.2621 27.1368 38.9886 26.4497C39.7134 25.7643 40.0166 25.1052 40.0166 24.5C40.0166 23.8949 39.7134 23.2357 38.9886 22.5503C38.2621 21.8633 37.167 21.2069 35.7461 20.6385C32.9087 19.5036 28.933 18.7834 24.5 18.7834C20.0669 18.7834 16.0912 19.5036 13.2539 20.6385C11.8329 21.2069 10.7378 21.8633 10.0113 22.5503ZM12.6473 19.122C15.7214 17.8923 19.9124 17.15 24.5 17.15C29.0876 17.15 33.2785 17.8923 36.3527 19.122C37.8875 19.7359 39.1844 20.4874 40.1109 21.3636C41.0391 22.2414 41.65 23.301 41.65 24.5C41.65 25.699 41.0391 26.7586 40.1109 27.6364C39.1844 28.5127 37.8875 29.2641 36.3527 29.878C33.2785 31.1077 29.0876 31.85 24.5 31.85C19.9124 31.85 15.7214 31.1077 12.6473 29.878C11.1124 29.2641 9.81558 28.5127 8.88906 27.6364C7.96081 26.7586 7.34998 25.699 7.34998 24.5C7.34998 23.301 7.96081 22.2414 8.88906 21.3636C9.81558 20.4874 11.1124 19.7359 12.6473 19.122Z" fill="#9747FF"/>
<path id="Star 16" d="M23.7405 13.5954C24.0014 12.8904 24.9986 12.8904 25.2595 13.5954L26.7073 17.5082C27.5275 19.7248 29.2752 21.4724 31.4918 22.2927L35.4045 23.7405C36.1096 24.0014 36.1096 24.9986 35.4045 25.2595L31.4918 26.7073C29.2752 27.5275 27.5275 29.2752 26.7073 31.4918L25.2595 35.4045C24.9986 36.1096 24.0014 36.1096 23.7405 35.4045L22.2927 31.4918C21.4724 29.2752 19.7248 27.5275 17.5082 26.7073L13.5954 25.2595C12.8904 24.9986 12.8904 24.0014 13.5954 23.7405L17.5082 22.2927C19.7248 21.4724 21.4724 19.7248 22.2927 17.5082L23.7405 13.5954Z" fill="white"/>
<path id="Ellipse 590 (Stroke)" fill-rule="evenodd" clip-rule="evenodd" d="M13.2539 28.3615C16.0912 29.4964 20.0669 30.2167 24.5 30.2167C28.933 30.2167 32.9087 29.4964 35.7461 28.3615C37.167 27.7931 38.2621 27.1368 38.9886 26.4497C39.7134 25.7643 40.0166 25.1052 40.0166 24.5H41.65C41.65 25.699 41.0391 26.7586 40.1109 27.6364C39.1844 28.5126 37.8875 29.2641 36.3527 29.878C33.2785 31.1077 29.0876 31.85 24.5 31.85C19.9124 31.85 15.7214 31.1077 12.6473 29.878C11.1124 29.2641 9.81558 28.5126 8.88906 27.6364C7.96081 26.7586 7.34998 25.699 7.34998 24.5H8.98331C8.98331 25.1052 9.28656 25.7643 10.0113 26.4497C10.7378 27.1368 11.8329 27.7931 13.2539 28.3615Z" fill="#9747FF"/>
<path id="Ellipse 587 (Stroke)" fill-rule="evenodd" clip-rule="evenodd" d="M9.23227 35.7229C8.82385 40.6398 10.0015 44.093 12.3913 45.4727C14.7811 46.8524 18.3605 46.1457 22.4144 43.3336C26.4107 40.5615 30.6085 35.9016 34.0185 29.9953C37.4286 24.089 39.3652 18.1236 39.7678 13.2766C40.1762 8.35979 38.9985 4.9066 36.6087 3.52687C34.219 2.14714 30.6396 2.85383 26.5857 5.66596C22.5894 8.43812 18.3915 13.0979 14.9815 19.0043C11.5715 24.9106 9.63489 30.876 9.23227 35.7229ZM7.60455 35.5877C8.03121 30.4512 10.064 24.2549 13.567 18.1876C17.0699 12.1203 21.4197 7.26165 25.6547 4.32391C29.8321 1.42614 34.1676 0.231482 37.4254 2.11236C40.6832 3.99324 41.8163 8.34526 41.3955 13.4119C40.9688 18.5483 38.936 24.7447 35.4331 30.812C31.9301 36.8793 27.5803 41.7379 23.3453 44.6757C19.168 47.5734 14.8324 48.7681 11.5746 46.8872C8.31686 45.0063 7.18369 40.6543 7.60455 35.5877Z" fill="#9747FF"/>
<circle id="Ellipse 588" cx="44.1" cy="44.1" r="3.26667" fill="white"/>
<circle id="Ellipse 591" cx="39.2" cy="34.3" r="3.26667" fill="white"/>
<path id="Subtract" fill-rule="evenodd" clip-rule="evenodd" d="M3.26667 24.5C3.26667 21.7308 5.24574 18.9046 9.14118 16.6786C12.9904 14.479 18.4171 13.0667 24.5 13.0667C30.5829 13.0667 36.0096 14.479 39.8588 16.6786C43.7543 18.9046 45.7333 21.7308 45.7333 24.5C45.7333 26.3508 44.8493 28.227 43.1 29.9325C42.7393 30.2842 42.7397 30.8747 43.0515 31.2704C43.2661 31.5429 43.4524 31.8386 43.606 32.1533C43.8771 32.7088 44.6134 32.9824 45.0674 32.5631C47.4749 30.3396 49 27.5996 49 24.5C49 20.0526 45.8602 16.3456 41.4795 13.8423C37.0527 11.3127 31.046 9.79999 24.5 9.79999C17.954 9.79999 11.9473 11.3127 7.52046 13.8423C3.13981 16.3456 0 20.0526 0 24.5C0 28.9473 3.13981 32.6544 7.52046 35.1576C11.9473 37.6873 17.954 39.2 24.5 39.2C27.9879 39.2 31.3226 38.7705 34.3468 37.9866C34.9319 37.835 35.1346 37.1023 34.8546 36.5666C34.6972 36.2653 34.5701 35.9457 34.4775 35.6116C34.3381 35.1086 33.8344 34.7476 33.3283 34.8753C30.6494 35.5513 27.6634 35.9333 24.5 35.9333C18.4171 35.9333 12.9904 34.521 9.14118 32.3214C5.24574 30.0954 3.26667 27.2692 3.26667 24.5Z" fill="white"/>
<circle id="Ellipse 589" cx="4.89997" cy="4.90003" r="3.26667" fill="white"/>
</g>
</svg>
