<svg width="49" height="49" viewBox="0 0 49 49" fill="none" xmlns="http://www.w3.org/2000/svg">
<g id="tag">
<path id="Subtract" fill-rule="evenodd" clip-rule="evenodd" d="M3.92343 7.32872C9.15445 1.91361 17.6356 1.91361 22.8666 7.32872C28.0977 1.91264 36.5788 1.91264 41.8101 7.32872C44.239 9.8431 45.5401 13.0832 45.7134 16.3752C43.4007 14.4529 39.7493 16.1727 39.9127 19.3169L39.9671 20.3626C37.944 18.9042 34.7517 19.5372 33.7435 22.2617L32.2957 26.1744C31.8063 27.4969 30.7637 28.5396 29.4412 29.0289L25.5285 30.4767C21.9794 31.79 21.9794 36.8097 25.5285 38.123L29.4412 39.5709C29.4824 39.5861 29.5234 39.6019 29.5641 39.6183L24.2159 45.1552C23.4713 45.926 22.262 45.926 21.5174 45.1552L3.92343 26.9404C-1.30781 21.5253 -1.30781 12.7448 3.92343 7.32872Z" fill="white"/>
<path id="Star 18" d="M43.1764 19.1479C43.1624 18.8797 43.4897 18.7389 43.6749 18.9334L44.7026 20.0131C45.2848 20.6247 46.1051 20.9515 46.9484 20.9076L48.4369 20.8303C48.7052 20.8163 48.846 21.1436 48.6514 21.3288L47.5718 22.3564C46.9602 22.9386 46.6334 23.759 46.6772 24.6023L46.7546 26.0908C46.7685 26.359 46.4413 26.4998 46.2561 26.3053L45.2284 25.2257C44.6462 24.614 43.8259 24.2873 42.9826 24.3311L41.4941 24.4085C41.2258 24.4224 41.085 24.0952 41.2796 23.91L42.3592 22.8823C42.9708 22.3001 43.2976 21.4798 43.2538 20.6365L43.1764 19.1479Z" fill="#9747FF"/>
<path id="Star 16" d="M36.8071 23.3954C37.068 22.6904 38.0652 22.6904 38.3261 23.3954L39.774 27.3081C40.5942 29.5248 42.3418 31.2724 44.5585 32.0926L48.4712 33.5405C49.1762 33.8014 49.1762 34.7986 48.4712 35.0595L44.5585 36.5073C42.3418 37.3275 40.5942 39.0752 39.774 41.2918L38.3261 45.2045C38.0652 45.9096 37.068 45.9096 36.8071 45.2045L35.3593 41.2918C34.5391 39.0752 32.7914 37.3275 30.5748 36.5073L26.6621 35.0595C25.957 34.7986 25.957 33.8014 26.6621 33.5405L30.5748 32.0926C32.7914 31.2724 34.5391 29.5248 35.3593 27.3081L36.8071 23.3954Z" fill="#9747FF"/>
</g>
</svg>
