<svg width="49" height="49" viewBox="0 0 49 49" fill="none" xmlns="http://www.w3.org/2000/svg">
<g id="tag">
<path id="Subtract" fill-rule="evenodd" clip-rule="evenodd" d="M29.7686 10.3176C28.7017 10.0318 27.605 10.6649 27.3191 11.7319L19.2941 41.6817C19.0082 42.7486 19.6414 43.8453 20.7083 44.1312L37.1327 48.5321C38.1997 48.818 39.2963 48.1848 39.5822 47.1179L47.6073 17.168C47.8931 16.1011 47.26 15.0044 46.193 14.7185L29.7686 10.3176ZM34.0468 14.3637L38.622 15.5896L37.6492 19.2201C37.4705 19.8869 37.8663 20.5723 38.5331 20.751L39.2268 20.9369C39.2091 21.033 39.1999 21.1321 39.1999 21.2333C39.1999 22.1354 39.9312 22.8667 40.8333 22.8667C41.7353 22.8667 42.4666 22.1354 42.4666 21.2333C42.4666 20.3313 41.7353 19.6 40.8333 19.6C40.2095 19.6 39.6674 19.9496 39.3923 20.4636L38.6625 20.268C38.2624 20.1608 38.025 19.7496 38.1322 19.3495L39.1049 15.719L44.6938 17.2166L37.5589 43.8444L34.25 42.9578C33.8499 42.8506 33.6125 42.4394 33.7197 42.0393L34.048 40.814C34.1301 40.8267 34.2142 40.8333 34.2999 40.8333C35.202 40.8333 35.9333 40.1021 35.9333 39.2C35.9333 38.2979 35.202 37.5667 34.2999 37.5667C33.3979 37.5667 32.6666 38.2979 32.6666 39.2C32.6666 39.8401 33.0348 40.3943 33.5711 40.6621L33.2367 41.9099C33.058 42.5767 33.4538 43.2621 34.1206 43.4408L37.4295 44.3274L37.0831 45.6199L22.2052 41.6334L23.4937 36.8244L24.5456 37.1816C24.5157 37.305 24.4999 37.434 24.4999 37.5667C24.4999 38.4687 25.2312 39.2 26.1333 39.2C27.0353 39.2 27.7666 38.4687 27.7666 37.5667C27.7666 36.6646 27.0353 35.9333 26.1333 35.9333C25.5418 35.9333 25.0237 36.2477 24.7371 36.7185L23.6234 36.3404L29.8158 13.23L33.5544 14.2318C33.5296 14.2886 33.5087 14.348 33.4922 14.4098L32.9693 16.3613C32.8712 16.3429 32.77 16.3333 32.6666 16.3333C31.7645 16.3333 31.0333 17.0646 31.0333 17.9667C31.0333 18.8687 31.7645 19.6 32.6666 19.6C33.5687 19.6 34.2999 18.8687 34.2999 17.9667C34.2999 17.3452 33.9529 16.8049 33.442 16.5288L33.9751 14.5392C33.992 14.4765 34.0162 14.4177 34.0468 14.3637ZM34.1304 40.3207C34.1026 40.2489 34.0421 40.1908 33.9619 40.1693C33.892 40.1506 33.8211 40.1634 33.7643 40.199C33.4085 40.0079 33.1666 39.6322 33.1666 39.2C33.1666 38.5741 33.674 38.0667 34.2999 38.0667C34.9258 38.0667 35.4333 38.5741 35.4333 39.2C35.4333 39.8259 34.9258 40.3333 34.2999 40.3333C34.2423 40.3333 34.1857 40.329 34.1304 40.3207ZM32.6666 16.8333C32.7306 16.8333 32.7935 16.8386 32.8546 16.8489C32.864 16.9501 32.935 17.0394 33.0389 17.0673C33.1249 17.0903 33.2125 17.0656 33.2734 17.0093C33.5899 17.2104 33.7999 17.564 33.7999 17.9667C33.7999 18.5926 33.2925 19.1 32.6666 19.1C32.0407 19.1 31.5333 18.5926 31.5333 17.9667C31.5333 17.3407 32.0407 16.8333 32.6666 16.8333ZM39.7153 21.0464C39.8107 21.0322 39.8933 20.963 39.9199 20.8638C39.942 20.7815 39.9203 20.6978 39.8691 20.6373C40.0689 20.3148 40.426 20.1 40.8333 20.1C41.4592 20.1 41.9666 20.6074 41.9666 21.2333C41.9666 21.8593 41.4592 22.3667 40.8333 22.3667C40.2073 22.3667 39.6999 21.8593 39.6999 21.2333C39.6999 21.1697 39.7052 21.1072 39.7153 21.0464ZM24.9999 37.5667C24.9999 37.4505 25.0174 37.3383 25.0499 37.2328C25.0867 37.2039 25.1158 37.1643 25.132 37.1167C25.1437 37.0822 25.1475 37.0469 25.1442 37.0128C25.3383 36.667 25.7085 36.4333 26.1333 36.4333C26.7592 36.4333 27.2666 36.9407 27.2666 37.5667C27.2666 38.1926 26.7592 38.7 26.1333 38.7C25.5073 38.7 24.9999 38.1926 24.9999 37.5667ZM28.4633 12.8676C28.6634 12.1206 29.4313 11.6773 30.1782 11.8775L45.0562 15.864C45.8032 16.0642 46.2465 16.832 46.0463 17.579L38.4357 45.9824C38.2355 46.7293 37.4677 47.1726 36.7207 46.9725L21.8428 42.9859C21.0958 42.7858 20.6525 42.018 20.8526 41.271L28.4633 12.8676ZM35.382 35.4132C35.4186 35.5058 35.4819 35.5641 35.5719 35.5882L37.2166 36.0289C37.3066 36.053 37.3906 36.0342 37.4686 35.9723C37.5465 35.9105 37.6018 35.8189 37.6343 35.6976L40.515 24.9468C40.5475 24.8255 40.5454 24.7186 40.5088 24.6261C40.4722 24.5335 40.4089 24.4752 40.3189 24.4511L38.6742 24.0104C38.5841 23.9863 38.5002 24.0051 38.4222 24.067C38.3442 24.1288 38.289 24.2204 38.2565 24.3417L35.3758 35.0925C35.3433 35.2138 35.3454 35.3207 35.382 35.4132ZM25.9895 33.0348C25.924 33.0172 25.8715 32.9676 25.832 32.886C25.8037 32.7954 25.8013 32.706 25.825 32.6175C25.8398 32.5623 25.8573 32.5136 25.8773 32.4716L31.614 22.5998C31.6711 22.4848 31.7483 22.3929 31.8457 22.3242C31.9541 22.2466 32.0779 22.2265 32.217 22.2638L34.0336 22.7505C34.1727 22.7878 34.2658 22.866 34.3128 22.9853C34.3709 23.0956 34.3959 23.2149 34.3879 23.343L34.4078 34.7573C34.4123 34.8059 34.4072 34.8579 34.3924 34.9131C34.3687 35.0016 34.3178 35.0768 34.2398 35.1388C34.173 35.192 34.1027 35.2087 34.0291 35.189L32.5193 34.7845C32.3966 34.7516 32.3129 34.6877 32.2681 34.5927C32.2345 34.489 32.2185 34.4017 32.2199 34.331L32.1943 32.5115L28.9171 31.6334L27.9976 33.1997C27.9634 33.2616 27.9059 33.3291 27.8249 33.4022C27.7469 33.4642 27.6383 33.4766 27.4992 33.4393L25.9895 33.0348ZM30.0601 29.3807L32.3431 29.9924L32.3622 25.306L30.0601 29.3807Z" fill="#9747FF"/>
<path id="Subtract_2" fill-rule="evenodd" clip-rule="evenodd" d="M1.93183 5.82347C0.864901 6.10935 0.231736 7.20603 0.517619 8.27296L10.0508 43.8512C10.3367 44.9182 11.4333 45.5513 12.5003 45.2654L17.348 43.9665C17.1427 43.5476 17.0823 43.0554 17.2125 42.5694L17.2868 42.2919L13.301 43.3599C12.4297 43.5934 11.5341 43.0763 11.3006 42.205L2.42314 9.07373C2.18966 8.2024 2.70675 7.30678 3.57808 7.07331L20.9325 2.4232C21.8039 2.18973 22.6995 2.70681 22.933 3.57814L25.2966 12.3992L25.9601 9.92274C26.0108 9.73376 26.0869 9.55839 26.1837 9.39932L24.1828 1.93189C23.8969 0.864962 22.8002 0.231797 21.7333 0.51768L1.93183 5.82347ZM24.4511 15.5546L21.3553 4.00088L4.00082 8.65099L12.8783 41.7822L17.775 40.4702L22.293 23.6089C21.1113 24.6726 20.3635 26.1482 20.2148 27.7492L19.9116 31.0131C19.857 31.6013 19.1002 31.804 18.7588 31.322L16.8643 28.6469C15.791 27.1314 14.1093 26.1605 12.2602 25.9887L8.99623 25.6856C8.40809 25.631 8.20531 24.8741 8.68734 24.5328L11.3624 22.6383C12.8779 21.565 13.8489 19.8832 14.0206 18.0341L14.3238 14.7702C14.3784 14.182 15.1352 13.9793 15.4766 14.4613L17.3711 17.1364C18.4444 18.6519 20.1261 19.6228 21.9752 19.7946L23.2825 19.916L24.4511 15.5546Z" fill="white"/>
<path id="Star 18" d="M44.6467 3.45558C44.7399 3.20369 45.0962 3.20369 45.1894 3.45558L45.7067 4.85349C45.9997 5.64543 46.6241 6.26983 47.4161 6.56287L48.814 7.08015C49.0659 7.17335 49.0659 7.52963 48.814 7.62283L47.4161 8.14011C46.6241 8.43315 45.9997 9.05755 45.7067 9.84949L45.1894 11.2474C45.0962 11.4993 44.7399 11.4993 44.6467 11.2474L44.1295 9.84949C43.8364 9.05755 43.212 8.43315 42.4201 8.14011L41.0222 7.62283C40.7703 7.52963 40.7703 7.17335 41.0222 7.08015L42.4201 6.56287C43.212 6.26983 43.8364 5.64543 44.1295 4.85349L44.6467 3.45558Z" fill="#9747FF"/>
</g>
</svg>
