<svg width="49" height="49" viewBox="0 0 49 49" fill="none" xmlns="http://www.w3.org/2000/svg">
<g id="Group 281955">
<path id="Subtract" fill-rule="evenodd" clip-rule="evenodd" d="M3.81665 0.81665C2.1598 0.81665 0.81665 2.15979 0.81665 3.81665V15.5167H15.5167V0.81665H3.81665ZM7.94482 12.1587C8.0058 12.2197 8.07821 12.2501 8.16206 12.2501H10.403C10.4868 12.2501 10.5592 12.2197 10.6202 12.1587C10.6812 12.0977 10.7117 12.0253 10.7117 11.9414V4.55551C10.7117 4.47167 10.6812 4.39925 10.6202 4.33828C10.5592 4.2773 10.4868 4.24681 10.403 4.24681H8.24209C8.18874 4.24681 8.143 4.25443 8.10489 4.26968C8.06678 4.2773 8.02867 4.29635 7.99056 4.32684L5.23512 6.46488C5.1589 6.51061 5.11317 6.57921 5.09792 6.67068C5.08268 6.75452 5.09411 6.83455 5.13222 6.91078L6.13836 8.21418C6.19933 8.2904 6.26793 8.33994 6.34416 8.36281C6.42038 8.37805 6.4966 8.359 6.57282 8.30564L7.85336 7.32238V11.9414C7.85336 12.0253 7.88385 12.0977 7.94482 12.1587Z" fill="white"/>
<path id="Subtract_2" fill-rule="evenodd" clip-rule="evenodd" d="M15.5167 17.15H0.81665V31.85H15.5167V17.15ZM6.35477 28.4577C6.82735 28.6178 7.40664 28.6978 8.09264 28.6978C8.81675 28.6978 9.45702 28.5911 10.0134 28.3777C10.5775 28.1566 11.0196 27.8517 11.3397 27.463C11.6675 27.0666 11.8313 26.6055 11.8313 26.0796C11.8313 25.5994 11.7399 25.203 11.5569 24.8905C11.374 24.5704 11.1263 24.3188 10.8138 24.1359C10.5013 23.953 10.1545 23.8158 9.77334 23.7243V23.69L11.111 22.7982C11.172 22.7601 11.2254 22.7029 11.2711 22.6267C11.3168 22.5428 11.3397 22.4476 11.3397 22.3409V20.8888C11.3397 20.805 11.3092 20.7326 11.2482 20.6716C11.1873 20.6106 11.1149 20.5801 11.031 20.5801H5.17714C5.0933 20.5801 5.02088 20.6106 4.95991 20.6716C4.89893 20.7326 4.86844 20.805 4.86844 20.8888V22.5009C4.86844 22.5848 4.89893 22.6572 4.95991 22.7182C5.02088 22.7791 5.0933 22.8096 5.17714 22.8096H8.18411L6.59487 23.6786C6.54152 23.709 6.48816 23.7662 6.43481 23.8501C6.38907 23.9263 6.36621 24.0216 6.36621 24.1359V25.062C6.36621 25.1458 6.3967 25.2182 6.45767 25.2792C6.51865 25.3402 6.59106 25.3707 6.67491 25.3707H8.10407C8.35561 25.3707 8.54235 25.4126 8.66431 25.4965C8.79388 25.5727 8.85867 25.6984 8.85867 25.8738C8.85867 26.0414 8.7977 26.1863 8.67574 26.3082C8.56141 26.4226 8.37085 26.4797 8.10407 26.4797C7.94401 26.4797 7.81443 26.4721 7.71534 26.4569C7.61625 26.434 7.53622 26.4035 7.47524 26.3654C7.41426 26.3273 7.36091 26.2892 7.31517 26.2511C7.26182 26.1977 7.20846 26.1558 7.15511 26.1253C7.10937 26.0872 7.03315 26.0681 6.92644 26.0681H4.62834C4.55974 26.0681 4.49876 26.0948 4.44541 26.1482C4.39967 26.1939 4.37681 26.2511 4.37681 26.3197C4.38443 26.5483 4.45303 26.7999 4.58261 27.0743C4.71981 27.341 4.92942 27.6002 5.21144 27.8517C5.50108 28.0956 5.8822 28.2976 6.35477 28.4577Z" fill="#9747FF"/>
<path id="Subtract_3" fill-rule="evenodd" clip-rule="evenodd" d="M15.5167 33.4833H0.81665V45.1833C0.81665 46.8402 2.15979 48.1833 3.81665 48.1833H15.5167V33.4833ZM6.27818 44.6882C6.84985 44.9168 7.49393 45.0312 8.21042 45.0312C8.92691 45.0312 9.55955 44.9016 10.1084 44.6424C10.6648 44.3757 11.0992 44.0136 11.4118 43.5563C11.7243 43.0989 11.8805 42.5844 11.8805 42.0128C11.8805 41.5631 11.7852 41.1705 11.5947 40.8351C11.4041 40.4998 11.1564 40.2177 10.8515 39.9891C10.5543 39.7604 10.2379 39.5813 9.90255 39.4517C9.5748 39.3221 9.27372 39.2459 8.99932 39.223H8.96502H8.91929L10.3599 37.3137C10.3751 37.2984 10.3866 37.2794 10.3942 37.2565C10.4018 37.226 10.4056 37.1955 10.4056 37.165C10.4056 37.0964 10.3789 37.0393 10.3256 36.9935C10.2799 36.9402 10.2227 36.9135 10.1541 36.9135H7.85598C7.73403 36.9135 7.63494 36.944 7.55872 37.005C7.49012 37.0583 7.44057 37.1041 7.41009 37.1422L5.54645 39.5775C5.47023 39.6766 5.37114 39.8176 5.24919 40.0005C5.12723 40.1758 5.00146 40.3778 4.87188 40.6065C4.74993 40.8351 4.64703 41.0752 4.56318 41.3268C4.47934 41.5783 4.43742 41.826 4.43742 42.0699C4.43742 42.695 4.6013 43.2285 4.92905 43.6706C5.26443 44.1127 5.71414 44.4519 6.27818 44.6882ZM8.56485 42.7216C8.45052 42.775 8.32094 42.8017 8.17612 42.8017C8.0313 42.8017 7.89791 42.775 7.77595 42.7216C7.66162 42.6607 7.56634 42.5768 7.49012 42.4701C7.42152 42.3558 7.38722 42.2186 7.38722 42.0585C7.38722 41.8984 7.42152 41.765 7.49012 41.6583C7.55872 41.544 7.654 41.4602 7.77595 41.4068C7.89791 41.3458 8.0313 41.3153 8.17612 41.3153C8.32856 41.3153 8.46195 41.3458 8.57629 41.4068C8.69824 41.4602 8.79352 41.544 8.86212 41.6583C8.93072 41.765 8.96502 41.8984 8.96502 42.0585C8.96502 42.2186 8.92691 42.3558 8.85069 42.4701C8.78208 42.5768 8.68681 42.6607 8.56485 42.7216Z" fill="white"/>
<path id="Subtract_4" fill-rule="evenodd" clip-rule="evenodd" d="M31.8499 0.81665H17.1499V15.5167H31.8499V0.81665ZM24.4108 12.1587C24.4717 12.2197 24.5441 12.2501 24.628 12.2501H26.7546C26.8384 12.2501 26.9108 12.2197 26.9718 12.1587C27.0328 12.0977 27.0633 12.0253 27.0633 11.9414V10.9696H28.0694C28.1533 10.9696 28.2257 10.9391 28.2867 10.8781C28.3476 10.8172 28.3781 10.7448 28.3781 10.6609V8.95734C28.3781 8.8735 28.3476 8.80109 28.2867 8.74011C28.2333 8.67913 28.1571 8.64864 28.058 8.64864H27.0633V4.55551C27.0633 4.47167 27.0328 4.39925 26.9718 4.33828C26.9108 4.2773 26.8384 4.24681 26.7546 4.24681H24.3765C24.2011 4.24681 24.0601 4.3116 23.9534 4.44118L20.7178 8.67151C20.6949 8.702 20.6682 8.74392 20.6378 8.79728C20.6073 8.85063 20.592 8.92686 20.592 9.02594V10.6609C20.592 10.7448 20.6225 10.8172 20.6835 10.8781C20.7445 10.9391 20.8169 10.9696 20.9007 10.9696H24.3193V11.9414C24.3193 12.0253 24.3498 12.0977 24.4108 12.1587ZM24.3993 8.77441H23.1988L24.3993 7.12801V8.77441Z" fill="#9747FF"/>
<path id="Subtract_5" fill-rule="evenodd" clip-rule="evenodd" d="M31.8499 17.15H17.1499V31.85H31.8499V17.15ZM22.275 28.5149C22.3284 28.5606 22.3893 28.5835 22.4579 28.5835H24.6646C24.8094 28.5835 24.9161 28.5492 24.9847 28.4806C25.0609 28.412 25.1105 28.3586 25.1333 28.3205L27.6258 22.9811C27.6639 22.9049 27.6982 22.8211 27.7287 22.7296C27.7592 22.6381 27.7744 22.5276 27.7744 22.398V20.8888C27.7744 20.805 27.7439 20.7326 27.683 20.6716C27.6296 20.6106 27.5572 20.5801 27.4657 20.5801H21.5547C21.4709 20.5801 21.3984 20.6106 21.3375 20.6716C21.2765 20.7326 21.246 20.805 21.246 20.8888V22.6153C21.246 22.6991 21.2765 22.7715 21.3375 22.8325C21.3984 22.8935 21.4709 22.924 21.5547 22.924H24.6989L22.2293 28.229C22.214 28.2595 22.2064 28.2938 22.2064 28.3319C22.2064 28.4005 22.2293 28.4615 22.275 28.5149Z" fill="white"/>
<path id="Subtract_6" fill-rule="evenodd" clip-rule="evenodd" d="M31.8499 33.4833H17.1499V48.1833H31.8499V33.4833ZM22.4617 44.6996C23.0029 44.9359 23.6775 45.054 24.4854 45.054C25.2934 45.054 25.968 44.9206 26.5091 44.6539C27.0503 44.3871 27.4581 44.0365 27.7325 43.602C28.0069 43.1675 28.1441 42.6988 28.1441 42.1957C28.1441 41.8146 28.0641 41.464 27.904 41.1438C27.7516 40.8237 27.5419 40.5455 27.2752 40.3092C27.0084 40.0729 26.7073 39.89 26.3719 39.7604C26.0442 39.6308 25.705 39.566 25.3544 39.566C24.9809 39.566 24.6836 39.5965 24.4626 39.6575C24.2491 39.7109 24.0357 39.8099 23.8223 39.9548L23.9138 39.143H27.2523C27.3361 39.143 27.4086 39.1125 27.4695 39.0515C27.5305 38.9906 27.561 38.9181 27.561 38.8343V37.2222C27.561 37.1384 27.5305 37.0659 27.4695 37.005C27.4086 36.944 27.3361 36.9135 27.2523 36.9135H22.1416C22.0349 36.9135 21.9358 36.9478 21.8443 37.0164C21.7605 37.0774 21.7109 37.1727 21.6957 37.3022L21.2384 41.4411C21.2384 41.5097 21.2612 41.5707 21.307 41.624C21.3603 41.6698 21.4213 41.6926 21.4899 41.6926H23.7651C23.8109 41.6926 23.8528 41.6812 23.8909 41.6583C23.929 41.6278 23.9709 41.5935 24.0167 41.5554C24.07 41.5173 24.131 41.4868 24.1996 41.464C24.2758 41.4335 24.3749 41.4182 24.4969 41.4182C24.6493 41.4182 24.7751 41.4525 24.8742 41.5211C24.9809 41.5897 25.0609 41.6774 25.1143 41.7841C25.1676 41.8832 25.1943 41.9937 25.1943 42.1157C25.1943 42.2681 25.16 42.3977 25.0914 42.5044C25.0304 42.6111 24.9466 42.6911 24.8399 42.7445C24.7332 42.7979 24.6188 42.8245 24.4969 42.8245C24.3749 42.8245 24.272 42.8093 24.1882 42.7788C24.1119 42.7483 24.0433 42.7026 23.9824 42.6416C23.9214 42.5806 23.8566 42.5082 23.788 42.4244C23.7651 42.3939 23.7194 42.3558 23.6508 42.31C23.5898 42.2643 23.4984 42.2414 23.3764 42.2414H21.0669C20.9983 42.2414 20.9373 42.2681 20.8839 42.3215C20.8382 42.3672 20.8153 42.4244 20.8153 42.493C20.8306 42.9503 20.9716 43.3733 21.2384 43.7621C21.5128 44.1508 21.9206 44.4633 22.4617 44.6996Z" fill="#9747FF"/>
<path id="Subtract_7" fill-rule="evenodd" clip-rule="evenodd" d="M45.1834 0.81665H33.4834V15.5167H48.1834V3.81665C48.1834 2.1598 46.8403 0.81665 45.1834 0.81665ZM38.5546 12.1814C38.6079 12.2272 38.6689 12.25 38.7375 12.25H41.0356C41.1652 12.25 41.2643 12.2234 41.3329 12.17C41.4015 12.109 41.451 12.0595 41.4815 12.0214L42.9907 10.0091C43.2346 9.6661 43.4709 9.33834 43.6996 9.02583C43.9283 8.71332 44.1188 8.39319 44.2713 8.06543C44.4237 7.73005 44.4999 7.37562 44.4999 7.00213C44.4999 6.57529 44.4161 6.18655 44.2484 5.83593C44.0883 5.48531 43.8482 5.18423 43.5281 4.9327C43.2156 4.67354 42.8268 4.47536 42.3619 4.33816C41.9046 4.20096 41.3786 4.13236 40.7841 4.13236C40.1896 4.13236 39.6674 4.21621 39.2177 4.3839C38.768 4.54396 38.3907 4.76501 38.0858 5.04703C37.7809 5.32143 37.5523 5.63775 37.3998 5.996C37.2474 6.35424 37.1712 6.72773 37.1712 7.11647C37.1712 7.55855 37.2588 7.94729 37.4341 8.28267C37.6171 8.61042 37.8495 8.88482 38.1316 9.10587C38.4212 9.31929 38.7261 9.48698 39.0462 9.60893C39.3664 9.73089 39.6636 9.80711 39.938 9.8376C39.9609 9.84522 39.9914 9.84903 40.0295 9.84903L38.5317 11.8499C38.5241 11.8651 38.5127 11.8842 38.4974 11.907C38.4898 11.9299 38.486 11.9604 38.486 11.9985C38.486 12.0671 38.5089 12.1281 38.5546 12.1814ZM41.2071 7.76817C41.1004 7.82152 40.9708 7.8482 40.8184 7.8482C40.6736 7.8482 40.544 7.82152 40.4297 7.76817C40.3229 7.70719 40.2391 7.62334 40.1781 7.51663C40.1171 7.4023 40.0867 7.2651 40.0867 7.10503C40.0867 6.94497 40.1171 6.81158 40.1781 6.70487C40.2391 6.59053 40.3229 6.50669 40.4297 6.45333C40.544 6.39235 40.6736 6.36187 40.8184 6.36187C40.9632 6.36187 41.089 6.39235 41.1957 6.45333C41.31 6.50669 41.3977 6.59053 41.4587 6.70487C41.5196 6.81158 41.5501 6.94497 41.5501 7.10503C41.5501 7.2651 41.5196 7.4023 41.4587 7.51663C41.3977 7.62334 41.3138 7.70719 41.2071 7.76817Z" fill="white"/>
<path id="Subtract_8" fill-rule="evenodd" clip-rule="evenodd" d="M48.1834 17.15H33.4834V31.85H48.1834V17.15ZM39.118 28.4804C39.583 28.6253 40.1508 28.6977 40.8216 28.6977C41.7134 28.6977 42.4261 28.5719 42.9596 28.3204C43.5008 28.0688 43.8895 27.7449 44.1258 27.3485C44.3697 26.9522 44.4917 26.5406 44.4917 26.1137C44.4917 25.7326 44.4002 25.382 44.2173 25.0619C44.0343 24.7417 43.7866 24.5055 43.4741 24.353C43.7104 24.1701 43.8819 23.9528 43.9886 23.7013C44.0953 23.4422 44.1487 23.1563 44.1487 22.8438C44.1487 22.4398 44.042 22.0587 43.8286 21.7005C43.6227 21.3346 43.2759 21.0373 42.7881 20.8087C42.3079 20.58 41.6524 20.4657 40.8216 20.4657C39.9908 20.4657 39.3276 20.5838 38.8322 20.8201C38.3444 21.0488 37.9937 21.346 37.7803 21.7119C37.5669 22.0778 37.4602 22.4627 37.4602 22.8667C37.4602 23.1792 37.5173 23.4612 37.6317 23.7127C37.7536 23.9643 37.9328 24.1777 38.169 24.353C37.887 24.5207 37.6507 24.757 37.4602 25.0619C37.2696 25.3668 37.1743 25.7098 37.1743 26.0909C37.1743 26.4186 37.2391 26.7388 37.3687 27.0513C37.4983 27.3562 37.7041 27.6344 37.9861 27.8859C38.2758 28.1298 38.6531 28.328 39.118 28.4804ZM41.2332 26.6968C41.1112 26.7502 40.974 26.7769 40.8216 26.7769C40.6691 26.7769 40.5319 26.7502 40.41 26.6968C40.288 26.6435 40.1927 26.5673 40.1241 26.4682C40.0555 26.3615 40.0212 26.2395 40.0212 26.1023C40.0212 25.9575 40.0555 25.8355 40.1241 25.7364C40.1927 25.6374 40.288 25.5611 40.41 25.5078C40.5319 25.4544 40.6691 25.4277 40.8216 25.4277C40.974 25.4277 41.1112 25.4544 41.2332 25.5078C41.3551 25.5611 41.4504 25.6374 41.519 25.7364C41.5876 25.8355 41.6219 25.9575 41.6219 26.1023C41.6219 26.2395 41.5876 26.3615 41.519 26.4682C41.4504 26.5673 41.3551 26.6435 41.2332 26.6968ZM41.2103 23.5527C41.1036 23.606 40.974 23.6327 40.8216 23.6327C40.6691 23.6327 40.5396 23.606 40.4328 23.5527C40.3261 23.4917 40.2423 23.4155 40.1813 23.324C40.128 23.2325 40.1013 23.1296 40.1013 23.0153C40.1013 22.901 40.128 22.7981 40.1813 22.7066C40.2423 22.6075 40.3261 22.5313 40.4328 22.4779C40.5396 22.4246 40.6691 22.3979 40.8216 22.3979C40.974 22.3979 41.1036 22.4246 41.2103 22.4779C41.3246 22.5313 41.4085 22.6075 41.4618 22.7066C41.5228 22.7981 41.5533 22.901 41.5533 23.0153C41.5533 23.1296 41.5228 23.2325 41.4618 23.324C41.4085 23.4155 41.3246 23.4917 41.2103 23.5527Z" fill="#9747FF"/>
<path id="Subtract_9" fill-rule="evenodd" clip-rule="evenodd" d="M48.1834 33.4833H33.4834V48.1833H45.1834C46.8403 48.1833 48.1834 46.8402 48.1834 45.1833V33.4833ZM37.3009 44.8251C37.3619 44.8861 37.4343 44.9166 37.5181 44.9166H44.1037C44.1876 44.9166 44.26 44.8861 44.321 44.8251C44.382 44.7642 44.4124 44.6917 44.4124 44.6079V42.87C44.4124 42.7862 44.382 42.7138 44.321 42.6528C44.26 42.5918 44.1876 42.5613 44.1037 42.5613H41.6913L41.7713 42.5042C42.2668 42.1612 42.6974 41.8296 43.0633 41.5095C43.4368 41.1817 43.7264 40.8387 43.9322 40.4805C44.138 40.1222 44.2409 39.7335 44.2409 39.3143C44.2409 38.7731 44.0999 38.3119 43.8179 37.9308C43.5359 37.5497 43.1395 37.2601 42.6288 37.0619C42.1182 36.8561 41.516 36.7532 40.8224 36.7532C40.3346 36.7532 39.881 36.8218 39.4618 36.959C39.0426 37.0886 38.6767 37.2791 38.3642 37.5307C38.0517 37.7822 37.804 38.0833 37.621 38.4339C37.4457 38.7769 37.3543 39.1656 37.3466 39.6001C37.3466 39.6687 37.3695 39.7297 37.4152 39.783C37.4686 39.8288 37.5296 39.8516 37.5982 39.8516H39.7476C39.8544 39.8516 39.9458 39.8364 40.022 39.8059C40.1059 39.7678 40.1669 39.6954 40.205 39.5887C40.2278 39.5277 40.2583 39.4515 40.2964 39.36C40.3346 39.2685 40.3955 39.1885 40.4794 39.1199C40.5632 39.0437 40.6814 39.0056 40.8338 39.0056C41.032 39.0056 41.1501 39.0551 41.1882 39.1542C41.2264 39.2533 41.2454 39.3562 41.2454 39.4629C41.2454 39.6839 41.1082 39.9393 40.8338 40.2289C40.567 40.511 40.1631 40.8501 39.6219 41.2465C39.0883 41.6429 38.4214 42.1307 37.621 42.71L37.4953 42.8014C37.3505 42.9005 37.2666 43.0187 37.2437 43.1559C37.2209 43.2854 37.2094 43.3731 37.2094 43.4188V44.6079C37.2094 44.6917 37.2399 44.7642 37.3009 44.8251Z" fill="white"/>
</g>
</svg>
