<svg width="33" height="33" viewBox="0 0 33 33" fill="none" xmlns="http://www.w3.org/2000/svg">
<g id="tag">
<path id="Subtract" fill-rule="evenodd" clip-rule="evenodd" d="M28.5981 14.5438C28.5294 5.97406 26.5117 3.38458 15.4 3.38458C4.08567 3.38458 2.19995 6.06934 2.19995 15.0185C2.19995 19.929 2.7677 22.9534 5.14931 24.6831L3.61362 29.7847L12.1129 26.5579C13.1088 26.6224 14.2015 26.6525 15.4 26.6525C15.777 26.6525 16.1436 26.6495 16.5 26.6434V20.196H12.9848L12.0805 22.66C12.0525 22.748 11.9894 22.8433 11.8913 22.946C11.7931 23.0487 11.6389 23.1 11.4286 23.1H9.24157C9.11539 23.1 9.01025 23.056 8.92613 22.968C8.84201 22.8653 8.79995 22.7553 8.79995 22.638C8.79995 22.5647 8.80696 22.4987 8.82098 22.44L13.826 8.29399C13.868 8.13266 13.9522 7.99332 14.0783 7.87599C14.2045 7.75865 14.3798 7.69999 14.6041 7.69999H17.2958C17.5201 7.69999 17.6954 7.75865 17.8216 7.87599C17.9477 7.99332 18.0319 8.13266 18.0739 8.29399L20.1989 14.3H26.0791C26.9568 14.3 27.8041 14.3726 28.5981 14.5438ZM16.5 17.358V17.05C16.5 16.3495 16.7563 15.6259 17.3338 15.0699L15.95 11.022L13.7629 17.358H16.5ZM18.7 20.196V26.557C20.0971 26.466 21.3034 26.3072 22.3437 26.0688V25.256H24.7025C27.5246 23.8402 28.406 21.2164 28.5698 16.804C27.8715 16.6013 27.0413 16.5 26.0791 16.5H20.9773L22.3437 20.362V19.074H25.6437C26.3618 19.074 26.8965 19.2427 27.2479 19.58C27.6145 19.9027 27.7979 20.3353 27.7979 20.878C27.7979 21.4207 27.6145 21.868 27.2479 22.22C26.8965 22.5573 26.3618 22.726 25.6437 22.726H23.0918C23.0759 22.8107 23.0365 22.8914 22.9738 22.968C22.8897 23.056 22.7845 23.1 22.6583 23.1H20.4713C20.261 23.1 20.1068 23.0487 20.0086 22.946C19.9105 22.8433 19.8474 22.748 19.8194 22.66L18.9151 20.196H18.7Z" fill="white"/>
<path id="B" d="M19.2729 31.9C19.1048 31.9 18.9673 31.8487 18.8604 31.746C18.7534 31.6433 18.7 31.5113 18.7 31.35V17.05C18.7 16.8887 18.7534 16.7567 18.8604 16.654C18.9673 16.5513 19.1048 16.5 19.2729 16.5H26.0791C27.3472 16.5 28.3861 16.676 29.1958 17.028C30.0055 17.38 30.6013 17.8787 30.9833 18.524C31.3805 19.1693 31.5791 19.9247 31.5791 20.79C31.5791 21.3327 31.4722 21.8093 31.2583 22.22C31.0597 22.6307 30.8076 22.968 30.502 23.232C30.2118 23.496 29.9291 23.694 29.6541 23.826C30.25 24.09 30.7694 24.53 31.2125 25.146C31.6708 25.7473 31.9 26.466 31.9 27.302C31.9 28.226 31.6861 29.0327 31.2583 29.722C30.8305 30.4113 30.1965 30.9467 29.3562 31.328C28.5159 31.7093 27.4923 31.9 26.2854 31.9H19.2729ZM22.3437 29.326H25.85C26.5986 29.326 27.1638 29.128 27.5458 28.732C27.9277 28.3213 28.1187 27.8373 28.1187 27.28C28.1187 26.708 27.9201 26.2313 27.5229 25.85C27.1409 25.454 26.5833 25.256 25.85 25.256H22.3437V29.326ZM22.3437 22.726H25.6437C26.3618 22.726 26.8965 22.5573 27.2479 22.22C27.6145 21.868 27.7979 21.4207 27.7979 20.878C27.7979 20.3353 27.6145 19.9027 27.2479 19.58C26.8965 19.2427 26.3618 19.074 25.6437 19.074H22.3437V22.726Z" fill="#9747FF"/>
</g>
</svg>
