<svg width="49" height="49" viewBox="0 0 49 49" fill="none" xmlns="http://www.w3.org/2000/svg">
<g id="tag">
<path id="Subtract" fill-rule="evenodd" clip-rule="evenodd" d="M39.5004 14.7784C36.5703 7.09302 29.1311 1.63336 20.4167 1.63336C9.14085 1.63336 0 10.7742 0 22.05C0 27.586 2.20334 32.6074 5.78093 36.285C6.69252 35.8875 7.83588 35.5597 9.10824 35.2918C12.0566 34.6711 16.0538 34.3 20.4167 34.3C23.9496 34.3 27.2428 34.5434 29.9334 34.9656L32.2514 30.4733L29.7902 30.5611C28.1205 30.6206 26.9846 28.7309 28.0071 27.2828L31.0759 22.9365L29.173 17.9222C28.5467 16.2718 30.1091 14.7009 31.7339 15.204L36.5007 16.6799C33.6576 11.1403 27.8881 7.35003 21.2333 7.35003C11.7617 7.35003 4.08333 15.0283 4.08333 24.5C4.08333 25.9442 4.26185 27.3467 4.59801 28.6867C3.74052 26.6453 3.26667 24.403 3.26667 22.05C3.26667 12.5783 10.945 4.90003 20.4167 4.90003C28.0393 4.90003 34.5004 9.87307 36.7326 16.7517L36.9095 16.8065L39.5004 14.7784ZM37.4419 33.3227L36.9769 32.7112L35.7607 35.519C36.3687 34.8268 36.9307 34.0931 37.4419 33.3227ZM29.1425 36.4984C26.6562 36.1418 23.6521 35.9334 20.4167 35.9334C11.847 35.9334 4.9 37.3959 4.9 39.2C4.9 39.775 5.60552 40.3152 6.84423 40.7845C7.52759 40.5605 8.29133 40.3638 9.10824 40.1918C12.0566 39.5711 16.0538 39.2 20.4167 39.2C22.9701 39.2 25.3983 39.3271 27.5643 39.557L29.1425 36.4984ZM33.5404 40.6447L34.7164 37.9297C35.5 38.3202 35.9333 38.7495 35.9333 39.2C35.9333 39.775 35.2278 40.3152 33.9891 40.7845C33.8431 40.7366 33.6935 40.69 33.5404 40.6447ZM26.8087 41.0213C24.8395 40.8998 22.6772 40.8334 20.4167 40.8334C16.0538 40.8334 12.0566 41.0808 9.10824 41.4946C7.64748 41.6996 6.35677 41.9572 5.39157 42.2775C4.91192 42.4367 4.42838 42.6385 4.04402 42.9022C3.65376 43.1698 3.26667 43.5741 3.26667 44.1V45.7334C3.26667 46.6354 3.99794 47.3667 4.9 47.3667H23.5346L26.8087 41.0213ZM30.6286 47.3667L33.0791 41.7095C33.9839 41.8722 34.7876 42.0605 35.4418 42.2775C35.9214 42.4367 36.4049 42.6385 36.7893 42.9022C37.1796 43.1698 37.5667 43.5741 37.5667 44.1V45.7334C37.5667 46.6354 36.8354 47.3667 35.9333 47.3667H30.6286ZM14.0461 13.18C13.9902 13.0289 13.7765 13.0289 13.7206 13.18L13.4103 14.0184C13.2346 14.4934 12.8601 14.8679 12.3851 15.0437L11.5466 15.3539C11.3956 15.4099 11.3956 15.6235 11.5466 15.6794L12.3851 15.9897C12.8601 16.1655 13.2346 16.54 13.4103 17.0149L13.7206 17.8534C13.7765 18.0045 13.9902 18.0045 14.0461 17.8534L14.3563 17.0149C14.5321 16.54 14.9066 16.1655 15.3816 15.9897L16.22 15.6794C16.3711 15.6235 16.3711 15.4099 16.22 15.3539L15.3816 15.0437C14.9066 14.8679 14.5321 14.4934 14.3563 14.0184L14.0461 13.18ZM25.1539 8.28C25.2098 8.12892 25.4235 8.12893 25.4794 8.28L25.7897 9.11845C25.9654 9.59344 26.3399 9.96793 26.8149 10.1437L27.6534 10.4539C27.8044 10.5099 27.8044 10.7235 27.6534 10.7794L26.8149 11.0897C26.3399 11.2655 25.9654 11.64 25.7897 12.1149L25.4794 12.9534C25.4235 13.1045 25.2098 13.1045 25.1539 12.9534L24.8437 12.1149C24.6679 11.64 24.2934 11.2655 23.8184 11.0897L22.98 10.7794C22.8289 10.7235 22.8289 10.5099 22.98 10.4539L23.8184 10.1437C24.2934 9.96793 24.6679 9.59343 24.8437 9.11845L25.1539 8.28ZM18.9461 19.7133C18.8902 19.5623 18.6765 19.5623 18.6206 19.7133L18.3103 20.5518C18.1346 21.0268 17.7601 21.4013 17.2851 21.577L16.4466 21.8873C16.2956 21.9432 16.2956 22.1569 16.4466 22.2128L17.2851 22.523C17.7601 22.6988 18.1346 23.0733 18.3103 23.5483L18.6206 24.3867C18.6765 24.5378 18.8902 24.5378 18.9461 24.3867L19.2563 23.5483C19.4321 23.0733 19.8066 22.6988 20.2816 22.523L21.12 22.2128C21.2711 22.1569 21.2711 21.9432 21.12 21.8873L20.2816 21.577C19.8066 21.4013 19.4321 21.0268 19.2563 20.5518L18.9461 19.7133ZM12.0873 27.88C12.1432 27.7289 12.3568 27.7289 12.4127 27.88L12.723 28.7184C12.8988 29.1934 13.2733 29.5679 13.7482 29.7437L14.5867 30.0539C14.7378 30.1098 14.7378 30.3235 14.5867 30.3794L13.7482 30.6897C13.2733 30.8655 12.8988 31.24 12.723 31.7149L12.4127 32.5534C12.3568 32.7045 12.1432 32.7045 12.0873 32.5534L11.777 31.7149C11.6012 31.24 11.2267 30.8655 10.7518 30.6897L9.91331 30.3794C9.76223 30.3235 9.76223 30.1098 9.91331 30.0539L10.7518 29.7437C11.2267 29.5679 11.6012 29.1934 11.777 28.7184L12.0873 27.88Z" fill="white"/>
<path id="Subtract_2" fill-rule="evenodd" clip-rule="evenodd" d="M42.8579 15.1422C42.85 14.7727 42.418 14.568 42.1269 14.7958L37.4263 18.4752C37.3107 18.5657 37.157 18.5935 37.0152 18.5496L31.2495 16.7644C30.8925 16.6539 30.567 16.9957 30.6988 17.3428L32.8262 22.9491C32.8785 23.0869 32.8593 23.2407 32.7749 23.3603L29.34 28.225C29.1273 28.5262 29.3581 28.9422 29.7306 28.9289L35.746 28.7144C35.894 28.7091 36.0358 28.7763 36.1254 28.8941L39.7682 33.6859C39.9938 33.9826 40.4619 33.8979 40.5604 33.5425L42.1507 27.8037C42.1898 27.6626 42.2967 27.5503 42.4365 27.5035L48.1228 25.6003C48.4749 25.4824 48.5334 25.0141 48.2217 24.8078L43.1892 21.4755C43.0654 21.3936 42.9896 21.257 42.9865 21.1103L42.8579 15.1422ZM35.5735 29.4963C35.1338 29.288 34.6105 29.4609 34.3905 29.8872L24.9047 48.2709C24.733 48.6037 24.9746 49.0002 25.3491 49.0002H27.8115C28.0108 49.0002 28.1911 48.8818 28.2703 48.6989L36.0734 30.6847C36.2641 30.2446 36.0666 29.73 35.6269 29.5217L35.5735 29.4963Z" fill="#9747FF"/>
<path id="Star 18" d="M41.1443 37.8288C41.1303 37.5606 41.4576 37.4198 41.6428 37.6143L42.6705 38.6939C43.2527 39.3056 44.073 39.6323 44.9163 39.5885L46.4048 39.5111C46.673 39.4972 46.8139 39.8244 46.6193 40.0096L45.5397 41.0373C44.9281 41.6195 44.6013 42.4398 44.6451 43.2831L44.7225 44.7717C44.7364 45.0399 44.4092 45.1807 44.224 44.9862L43.1963 43.9065C42.6141 43.2949 41.7938 42.9681 40.9505 43.012L39.462 43.0893C39.1937 43.1033 39.0529 42.776 39.2475 42.5908L40.3271 41.5632C40.9387 40.981 41.2655 40.1606 41.2217 39.3173L41.1443 37.8288Z" fill="#9747FF"/>
</g>
</svg>
