<svg width="31" height="31" viewBox="0 0 31 31" fill="none" xmlns="http://www.w3.org/2000/svg">
<g id="Group 281914">
<path id="Vector" d="M19.081 14.2075C19.5738 14.0873 20.0468 13.9672 20.5002 13.847C20.8944 13.744 21.2984 13.641 21.7123 13.538C22.1262 13.435 22.4712 13.3406 22.7471 13.2548L22.3332 14.6195C22.2149 14.9971 22.1065 15.2804 22.008 15.4692C21.8109 15.9327 21.5793 16.3618 21.3132 16.7567C21.0471 17.1515 20.7958 17.4948 20.5593 17.7866C20.2833 18.1299 19.9975 18.4475 19.7019 18.7393L16.0653 19.6921L19.0514 20.1555C18.6572 20.4474 18.2335 20.7478 17.7801 21.0568C17.3859 21.3142 16.9375 21.5846 16.4349 21.8678C15.9323 22.1511 15.405 22.4129 14.8531 22.6532C14.3013 22.8935 13.6853 23.018 13.0053 23.0266C12.3253 23.0351 11.6798 22.9965 11.0688 22.9107C10.3592 22.8249 9.64962 22.6789 8.94005 22.473C9.15686 22.1811 9.39339 21.855 9.64962 21.4945C9.86643 21.1855 10.1276 20.8207 10.4331 20.4002C10.7386 19.9796 11.0589 19.5118 11.394 18.9968C12.3401 17.6064 13.2566 16.2417 14.1436 14.9027C15.0305 13.5638 15.8288 12.3536 16.5384 11.2721C17.3465 10.019 18.1251 8.83453 18.874 7.71874C17.9477 8.64571 16.972 9.68425 15.9471 10.8344C15.0601 11.8128 14.0746 12.9758 12.9905 14.3234C11.9065 15.6709 10.8027 17.1429 9.67919 18.7393C9.44266 19.0655 9.17657 19.4431 8.88092 19.8723C8.58526 20.3014 8.27482 20.7563 7.9496 21.237C7.62438 21.7176 7.28931 22.2112 6.94438 22.7176C6.59945 23.224 6.25944 23.7175 5.92437 24.1981C5.13596 25.3139 4.32783 26.4812 3.5 27.7C3.51971 27.3395 3.59855 26.876 3.73652 26.3096C3.85479 25.8289 4.05189 25.2281 4.32783 24.5071C4.60378 23.7862 4.99798 22.9364 5.51045 21.958C5.84553 21.34 6.10176 20.8593 6.27916 20.516C6.45655 20.1727 6.59452 19.9066 6.69307 19.7178C6.79162 19.5118 6.87046 19.3745 6.9296 19.3058C6.83104 19.2028 6.81133 18.9968 6.87046 18.6878C6.90989 18.4132 7.02322 18.0141 7.21047 17.4905C7.39772 16.9669 7.71801 16.2331 8.17135 15.289C8.62468 14.3277 9.22092 13.2934 9.96006 12.1862C10.6992 11.079 11.532 9.98036 12.4583 8.89032C13.3847 7.80028 14.39 6.74457 15.474 5.72319C16.5581 4.70181 17.6668 3.7963 18.8001 3.00666C19.9335 2.21702 21.0668 1.569 22.2002 1.06261C23.3335 0.556208 24.4324 0.268676 25.4967 0.200012C25.5164 0.800824 25.4474 1.59475 25.2898 2.5818C25.1321 3.56885 24.935 4.62456 24.6984 5.74894C24.4619 6.87331 24.1958 8.01485 23.9002 9.17356C23.6045 10.3323 23.3187 11.3837 23.0428 12.3278L19.081 14.2075Z" fill="#9747FF"/>
<path id="Star 18" d="M26.3248 20.132C26.3503 19.9529 26.5848 19.9022 26.682 20.0547L27.2214 20.9013C27.527 21.3809 28.0269 21.7031 28.5899 21.7833L29.5837 21.9249C29.7628 21.9504 29.8135 22.1849 29.6609 22.2821L28.8143 22.8215C28.3347 23.1271 28.0126 23.627 27.9324 24.19L27.7908 25.1838C27.7653 25.3629 27.5308 25.4136 27.4336 25.261L26.8941 24.4145C26.5885 23.9349 26.0887 23.6127 25.5257 23.5325L24.5319 23.3909C24.3528 23.3654 24.3021 23.1309 24.4546 23.0337L25.3012 22.4943C25.7808 22.1887 26.103 21.6888 26.1832 21.1258L26.3248 20.132Z" fill="white"/>
<path id="Star 20" d="M3.63648 5.19597C3.67104 4.95341 3.98869 4.88474 4.12035 5.09137L4.851 6.23805C5.26492 6.88766 5.94199 7.32402 6.70457 7.43265L8.05066 7.62441C8.29321 7.65896 8.36188 7.97662 8.15526 8.10827L7.00858 8.83892C6.35897 9.25285 5.92261 9.92991 5.81397 10.6925L5.62221 12.0386C5.58766 12.2811 5.27001 12.3498 5.13835 12.1432L4.4077 10.9965C3.99378 10.3469 3.31671 9.91053 2.55413 9.8019L1.20804 9.61014C0.965487 9.57559 0.896817 9.25793 1.10344 9.12628L2.25012 8.39563C2.89973 7.9817 3.33609 7.30464 3.44473 6.54206L3.63648 5.19597Z" fill="white"/>
<path id="Vector 56 (Stroke)" fill-rule="evenodd" clip-rule="evenodd" d="M13.3482 30.9132C12.4513 31.0907 11.4178 31.0186 10.1516 30.4838C8.75079 29.892 7.05772 29.6831 5.47481 29.7308C4.15698 29.7705 2.9446 29.9871 2.06899 30.2874C1.80419 30.3782 1.50542 30.2441 1.42224 29.9768C1.35244 29.7525 1.46016 29.5101 1.68034 29.4282C2.65791 29.0648 4.01338 28.8175 5.45501 28.774C7.09715 28.7245 8.89321 28.9382 10.4136 29.5804C11.566 30.0672 12.4653 30.1181 13.2199 29.9688C13.982 29.818 14.6211 29.4593 15.265 29.0727C15.3191 29.0402 15.3735 29.0073 15.4282 28.9743C16.0081 28.6238 16.6185 28.255 17.2904 28.0909C18.0497 27.9054 18.8721 27.981 19.8478 28.5315C21.3651 29.3877 22.9526 29.6492 24.4911 29.6914C25.2605 29.7125 26.0128 29.6788 26.7372 29.639C26.8462 29.6331 26.9547 29.6269 27.0626 29.6208C27.4943 29.5965 27.9167 29.5726 28.3216 29.561C28.5858 29.5533 28.8001 29.7678 28.8001 30.0321C28.8001 30.2964 28.5858 30.5104 28.3216 30.5183C27.9354 30.5297 27.5295 30.5526 27.1036 30.5767C26.9948 30.5828 26.8846 30.589 26.7732 30.5951C26.0463 30.635 25.2713 30.6701 24.473 30.6482C22.8761 30.6044 21.1668 30.3323 19.5119 29.3985C18.6829 28.9307 18.0329 28.886 17.4477 29.0289C16.8844 29.1665 16.3674 29.4781 15.7672 29.8398C15.7182 29.8694 15.6685 29.8993 15.6183 29.9295C14.9686 30.3196 14.2375 30.7373 13.3482 30.9132Z" fill="white"/>
</g>
</svg>
