<svg width="49" height="49" viewBox="0 0 49 49" fill="none" xmlns="http://www.w3.org/2000/svg">
<g id="tag" clip-path="url(#clip0_15111_11672)">
<path id="Star 18" d="M43.1765 19.1479C43.1626 18.8797 43.4898 18.7389 43.675 18.9334L44.7027 20.0131C45.2849 20.6247 46.1052 20.9515 46.9485 20.9076L48.4371 20.8303C48.7053 20.8163 48.8461 21.1436 48.6515 21.3288L47.5719 22.3564C46.9603 22.9386 46.6335 23.759 46.6774 24.6023L46.7547 26.0908C46.7687 26.359 46.4414 26.4998 46.2562 26.3053L45.2285 25.2257C44.6464 24.614 43.826 24.2873 42.9827 24.3311L41.4942 24.4085C41.226 24.4224 41.0852 24.0952 41.2797 23.91L42.3593 22.8823C42.971 22.3001 43.2977 21.4798 43.2539 20.6365L43.1765 19.1479Z" fill="#9747FF"/>
<path id="Star 16" d="M36.8071 23.3954C37.068 22.6904 38.0652 22.6904 38.3261 23.3954L39.774 27.3081C40.5942 29.5248 42.3418 31.2724 44.5585 32.0926L48.4712 33.5405C49.1762 33.8014 49.1762 34.7986 48.4712 35.0595L44.5585 36.5073C42.3418 37.3275 40.5942 39.0752 39.774 41.2918L38.3261 45.2045C38.0652 45.9096 37.068 45.9096 36.8071 45.2045L35.3593 41.2918C34.5391 39.0752 32.7914 37.3275 30.5748 36.5073L26.6621 35.0595C25.957 34.7986 25.957 33.8014 26.6621 33.5405L30.5748 32.0926C32.7914 31.2724 34.5391 29.5248 35.3593 27.3081L36.8071 23.3954Z" fill="#9747FF"/>
<path id="Subtract" fill-rule="evenodd" clip-rule="evenodd" d="M21.0502 0.0254299C21.099 0.0493391 21.1308 0.0914649 21.1774 0.181409C21.2636 0.354466 21.2863 0.578758 21.258 0.951058C21.2148 1.48731 21.1229 1.80154 20.7982 2.51427C20.7312 2.66455 20.6744 2.7989 20.6744 2.80915C20.6744 2.8433 20.7199 2.83875 20.872 2.79548C21.0582 2.74083 21.3011 2.71692 21.3987 2.74083C21.4986 2.76702 21.5656 2.83647 21.5963 2.94577C21.6746 3.24634 21.2432 3.77121 20.5553 4.2141C20.4338 4.29152 20.1988 4.43384 20.0342 4.53061C19.0999 5.07597 18.9239 5.19438 18.8444 5.32872C18.7173 5.54505 18.8467 5.55302 19.2895 5.35263C19.5971 5.21373 19.6913 5.18527 19.8242 5.18527C19.9649 5.18527 20.0217 5.20804 20.0625 5.27977C20.1409 5.41184 20.0762 5.60539 19.8707 5.8627L19.7583 6.00387L19.8366 6.01868C20.0728 6.05966 20.3464 5.89799 20.7596 5.46535C21.1161 5.09305 21.3147 4.82777 21.8574 4.00005C22.173 3.51845 22.4443 3.24748 22.7769 3.08923C22.8916 3.0323 22.9381 3.02205 23.0358 3.02205C23.197 3.02205 23.2708 3.05962 23.323 3.16665C23.357 3.23837 23.3627 3.27253 23.3548 3.40346C23.3457 3.53325 23.3264 3.6084 23.2276 3.87709C23.1277 4.14465 23.1096 4.21751 23.1073 4.32112C23.105 4.42131 23.113 4.45433 23.1413 4.48621C23.2219 4.57501 23.3866 4.51581 23.5807 4.33023C23.81 4.11163 23.8883 3.98753 24.6739 2.63495C25.0451 1.99282 25.4243 1.4782 25.8069 1.08996C26.1554 0.735875 26.4165 0.550294 26.756 0.412532C26.9104 0.352189 26.9535 0.343081 27.092 0.340804C27.2873 0.338527 27.3758 0.376099 27.4576 0.495645C27.5064 0.567372 27.5143 0.596974 27.52 0.73246C27.5257 0.859976 27.5177 0.91121 27.4791 1.03189C27.3906 1.29717 27.1635 1.66606 26.7719 2.18523C26.4018 2.67594 26.1475 3.09606 26.1225 3.25431L26.1111 3.32718L26.1781 3.31579C26.2156 3.3101 26.3643 3.24634 26.5085 3.17234C26.8706 2.9879 27.0114 2.94463 27.2384 2.93894C27.4031 2.93552 27.4258 2.93894 27.4837 2.97993C27.5892 3.05507 27.6267 3.20991 27.5779 3.3602C27.5404 3.47291 27.3508 3.74047 27.2044 3.88506C27.0284 4.06381 26.8195 4.20499 26.3881 4.43953C25.8625 4.72758 25.7615 4.80272 25.3562 5.21145C25.0168 5.55415 24.8476 5.70444 24.2811 6.16896C24.1438 6.28168 24.0359 6.37731 24.0405 6.38187C24.0439 6.38528 24.1006 6.36821 24.1676 6.3443C24.3345 6.28054 24.6535 6.21109 25.0815 6.14278C25.4641 6.08016 25.766 6.02095 26.0498 5.94695C26.1418 5.92304 26.32 5.87977 26.4438 5.85131C26.5675 5.82285 26.7707 5.77048 26.8922 5.73518C27.1192 5.66915 27.1908 5.66801 27.2112 5.72152C27.2407 5.80008 26.798 6.3739 26.5278 6.60388C26.4563 6.6665 26.3961 6.72229 26.3961 6.73026C26.3961 6.75303 27.0841 6.41944 27.4224 6.23158C27.8912 5.97427 28.5292 5.75567 29.0787 5.66573C29.4215 5.6088 29.6747 5.59628 30.3377 5.59628C30.9359 5.594 31.1426 5.60197 31.3957 5.62588C31.4366 5.6293 31.6057 5.63954 31.7704 5.64638C31.935 5.65207 32.086 5.66687 32.1018 5.67598C32.1711 5.71013 32.1416 5.77958 32.019 5.87522C31.8703 5.98794 31.6103 6.20426 31.2686 6.49231C30.7418 6.93861 30.1481 7.35418 29.8109 7.51016C29.7156 7.5557 29.6406 7.59668 29.644 7.60238C29.6497 7.60579 29.711 7.60238 29.7825 7.59099C30.2332 7.52723 30.7974 7.61718 31.5161 7.87335C32.0939 8.07828 32.3437 8.15912 32.6695 8.25134L32.6839 8.2554C33.0896 8.36976 33.0918 8.37038 33.0918 8.4244C33.0918 8.48702 33.0679 8.50296 32.6979 8.71017L32.4974 8.82237L32.4956 8.82338C32.3509 8.90432 32.1973 8.9902 32.0973 9.04718C31.9475 9.13029 31.7272 9.23504 31.6091 9.2783L31.3935 9.35686L31.4877 9.35914C31.8839 9.36255 32.4277 9.68817 33.1349 10.3428C33.4562 10.64 33.6095 10.7721 33.9137 11.0146C34.1294 11.1853 34.1612 11.2172 34.1612 11.2662V11.3208L34.0613 11.3072C34.0091 11.3015 33.9001 11.2833 33.8229 11.2673C33.5822 11.2184 33.1531 11.2104 32.8852 11.248C32.6922 11.2764 32.2233 11.3891 32.1972 11.4131C32.1938 11.4165 32.2347 11.4392 32.2869 11.462C32.4992 11.5508 32.6979 11.7068 33.0725 12.0848C33.2734 12.2863 33.5039 12.5117 33.5845 12.5857C33.7968 12.7793 33.7911 12.7884 33.4142 12.8487C33.2598 12.8715 33.0804 12.9057 33.0146 12.9205C32.9487 12.9353 32.8227 12.9558 32.7353 12.9694C32.5117 12.9979 32.5117 12.999 32.6059 13.0673C32.741 13.163 33.1837 13.6207 33.3767 13.8632C33.5493 14.0795 33.8138 14.3527 33.9568 14.4609C33.9943 14.4894 34.0295 14.5304 34.0352 14.5509C34.0443 14.585 34.0091 14.6408 33.9773 14.6454C33.9715 14.6454 33.903 14.6495 33.8085 14.6553L33.6923 14.6624C33.5425 14.6715 33.2814 14.692 33.1111 14.7091C32.9408 14.7262 32.6445 14.7387 32.4492 14.7387H32.0984L32.1529 14.8173C32.3028 15.037 32.3664 15.218 32.4265 15.5835C32.4787 15.8977 32.573 16.2951 32.6627 16.5774C32.7206 16.7653 32.7296 16.8427 32.6944 16.878C32.6195 16.9532 32.1336 16.8325 31.8669 16.6708C31.784 16.6218 31.7125 16.5843 31.7125 16.5843C31.7102 16.5877 31.6977 16.6947 31.6863 16.8256C31.6727 16.9554 31.6432 17.1866 31.6171 17.3425C31.566 17.6454 31.5569 17.9255 31.591 18.1532C31.6262 18.4093 31.7011 18.7031 31.784 18.9035C31.9191 19.2439 31.9168 19.2724 31.7601 19.3065C31.5308 19.3555 31.2027 19.3213 30.8429 19.2143C30.6476 19.1539 30.5874 19.1426 30.5761 19.1619C30.5466 19.2109 30.5182 19.4511 30.5273 19.5718C30.5386 19.7016 30.6079 19.9042 30.6862 20.0329C30.7123 20.0739 30.7952 20.1832 30.8724 20.2743C30.9473 20.3642 31.0097 20.4473 31.0097 20.4587C31.0097 20.634 30.5954 20.6352 30.0346 20.461L29.8563 20.4041L29.8325 20.568C29.8189 20.6568 29.8064 20.8219 29.8064 20.9369C29.803 21.1794 29.8302 21.2648 30.005 21.5483C30.1742 21.8215 30.2207 21.9957 30.2616 22.5081C30.2786 22.7324 30.2786 22.7938 30.2559 22.8565C30.2219 22.9578 30.1697 22.9658 30.1015 22.8758C30.0323 22.787 29.8938 22.7198 29.6872 22.6766C29.4794 22.6333 29.2966 22.631 29.0946 22.6709C28.9402 22.7005 28.5996 22.7164 28.4872 22.6971L28.4305 22.688L28.4361 23.017C28.4452 23.5419 28.4929 23.6773 28.7574 23.9199C28.9436 24.0906 29.0106 24.1794 28.9924 24.2284C28.9867 24.2455 28.9754 24.258 28.9686 24.2603L28.9485 24.2605C28.9012 24.2612 28.7776 24.2628 28.6382 24.2637C28.301 24.2694 28.2386 24.2785 27.7663 24.4106C27.6574 24.439 27.4553 24.4777 27.3156 24.4948L27.2297 24.5068C27.1314 24.5204 27.0581 24.5306 27.0545 24.5324C27.0523 24.5358 27.0693 24.5665 27.0943 24.5996C27.1204 24.6337 27.1976 24.776 27.2646 24.9161C27.3588 25.1085 27.4235 25.211 27.5313 25.3396C27.6642 25.4956 27.7584 25.6368 27.8855 25.8622C27.9684 26.0068 28.0377 26.0728 28.1955 26.1559C28.351 26.2368 28.393 26.2891 28.3442 26.3404C28.3294 26.354 28.2204 26.4007 28.1024 26.4417C27.9843 26.4827 27.7346 26.5886 27.545 26.6774C27.0648 26.9017 26.8774 26.9666 26.7162 26.9666C26.5414 26.9666 26.3564 26.921 26.2133 26.8448C26.1497 26.8095 26.0975 26.7844 26.0975 26.7901C26.0975 26.7958 26.127 26.8527 26.1668 26.9119C26.2962 27.1248 26.4256 27.2114 26.8025 27.3355C27.067 27.422 27.1215 27.4539 27.0931 27.5108C27.0727 27.5461 26.6595 27.7522 26.4256 27.8398C26.3314 27.874 26.1725 27.9229 26.0691 27.9457C25.9079 27.9833 25.85 27.9867 25.6378 27.9776C25.5049 27.9719 25.3732 27.9605 25.3505 27.9537C25.3051 27.94 25.3051 27.9423 25.3335 27.9947C25.405 28.1302 25.6434 28.2952 25.8603 28.3636C26.0181 28.4102 26.2485 28.4034 26.4347 28.3431C26.6163 28.2827 26.9183 28.2531 26.9898 28.2861C27.0239 28.3032 27.0466 28.3294 27.05 28.3579C27.0591 28.4148 26.8797 28.5913 26.538 28.8645C26.1702 29.1583 25.9772 29.3814 25.8818 29.6194C25.8148 29.7844 25.7978 29.8812 25.7955 30.1146C25.7947 30.1982 25.8004 30.2864 25.8113 30.372L25.5284 30.4767C21.9794 31.79 21.9793 36.8097 25.5284 38.123L29.4411 39.5708C30.4876 39.9581 31.3589 40.6918 31.9195 41.6365C31.8869 41.6267 31.8943 41.6403 31.9611 41.7402C32.0065 41.804 32.0712 41.9269 32.1098 42.0134C32.1528 42.1095 32.1955 42.1974 32.2384 42.278C32.2582 42.3267 32.2773 42.3758 32.2956 42.4253L32.5542 43.124C32.3966 43.0737 32.233 43.0336 32.1416 43.0222C31.9168 42.9937 31.7499 42.9527 31.6353 42.8947C31.4309 42.7933 31.0983 42.5463 30.9394 42.3789C30.7464 42.174 30.4966 41.8017 30.3536 41.5022C30.2843 41.3554 30.2469 41.295 30.2434 41.3201C30.2287 41.3918 30.0845 41.9053 30.0277 42.0818C29.9642 42.2833 29.82 42.6442 29.6531 43.0222C29.5373 43.284 29.3682 43.5937 29.1956 43.859C29.0514 44.081 29.0038 44.1869 29.0378 44.2074C29.0866 44.237 29.2297 44.245 29.7042 44.2416C30.2627 44.2393 30.517 44.2677 30.8133 44.3679C31.1267 44.4738 31.2618 44.5615 31.4025 44.755C31.4865 44.8712 31.5127 44.8928 31.6614 44.9679C31.7533 45.0146 31.8544 45.075 31.8884 45.1034C31.9781 45.1786 32.0439 45.3232 32.0553 45.4723L32.0644 45.5998L32.162 45.6545C32.2142 45.6841 32.2835 45.7376 32.3119 45.7729C32.422 45.9027 32.4901 46.1281 32.4901 46.3638C32.4901 46.5778 32.3096 47.0674 32.2313 47.0674C32.1802 47.0674 32.1597 47.0332 32.145 46.9319C32.128 46.8226 31.9838 46.522 31.8952 46.4127C31.86 46.3695 31.7681 46.2909 31.6932 46.2397L31.5547 46.1452L31.4332 46.2033C31.2232 46.3012 30.8701 46.316 30.5817 46.2374C30.4069 46.1907 30.3082 46.1418 30.0993 45.9915C29.8268 45.7957 29.7837 45.7786 29.4953 45.7501C29.3773 45.7365 29.2535 45.7125 29.1763 45.6841C29.0321 45.6294 28.8278 45.4848 28.7302 45.3664L28.6666 45.2879L28.502 45.3425C28.3317 45.4006 28.1001 45.4199 27.9843 45.3881C27.9332 45.3744 27.9298 45.3789 27.8753 45.4985C27.7516 45.7752 27.5961 45.9562 27.3236 46.1406C27.1749 46.2408 27.0738 46.2909 26.9898 46.3057C26.9524 46.3137 26.9149 46.3285 26.9058 46.341C26.8967 46.3524 26.8831 46.4537 26.8774 46.5687C26.8718 46.6814 26.8536 46.8477 26.8366 46.9353C26.7968 47.1368 26.8082 47.2405 26.8911 47.4431C26.9796 47.6629 26.9944 47.8029 26.9376 47.9304C26.8491 48.1376 26.6061 48.2674 26.3427 48.2481C26.1997 48.2367 26.001 48.1558 25.883 48.0602L25.8103 48.0033L25.7535 48.0556C25.6786 48.1274 25.5492 48.3118 25.489 48.4302C25.4323 48.5452 25.4084 48.6317 25.3823 48.8162C25.3619 48.9608 25.3312 49.0177 25.2824 48.9984C25.2336 48.979 25.0838 48.6784 25.044 48.5247C24.9986 48.3482 24.9952 48.1809 25.0361 48.0465C25.111 47.7892 25.2983 47.4955 25.4981 47.3179L25.5867 47.2427L25.606 46.9797C25.6207 46.7611 25.6355 46.686 25.69 46.5243C25.808 46.1782 25.9829 45.8993 26.2769 45.5964L26.4892 45.3778L26.2701 45.4302C26.1486 45.4598 26.0351 45.4848 26.0192 45.4848C25.9613 45.4848 25.7308 45.6169 25.6457 45.6977C25.5992 45.7433 25.4902 45.8537 25.4016 45.9459C25.1939 46.1623 25.0644 46.2283 24.8578 46.2283C24.7523 46.2283 24.6944 46.2169 24.6228 46.185C24.5218 46.1384 24.3901 46.0211 24.3299 45.922C24.3072 45.8902 24.2845 45.8617 24.2777 45.8617C24.2686 45.8617 24.2062 45.9129 24.1392 45.9767C23.9587 46.1418 23.8338 46.3581 23.7805 46.5972C23.7691 46.6496 23.7294 46.6757 23.6863 46.6598C23.6726 46.6541 23.6465 46.5995 23.6284 46.5391C23.6023 46.4492 23.5966 46.3866 23.6057 46.2158C23.617 45.971 23.6545 45.8469 23.7725 45.6499C23.8645 45.4951 23.9803 45.3926 24.146 45.3129C24.2607 45.2583 24.2732 45.2457 24.3322 45.1319C24.4991 44.8097 24.9135 44.5524 25.4425 44.4431C25.5288 44.4237 25.6877 44.4135 25.8364 44.4112L26.0862 44.4089L25.9057 44.3748C25.6707 44.3315 25.6037 44.2973 25.4629 44.1527C25.2824 43.9706 25.1791 43.9455 24.8987 44.015C24.4537 44.1254 24.255 44.1095 24.1029 43.9478C24.0359 43.8784 23.9417 43.6677 23.9133 43.5231L23.8895 43.407L23.7975 43.3933C23.6397 43.3729 23.3582 43.4252 23.1164 43.5231C22.9835 43.5755 22.9438 43.5698 22.9438 43.5026C22.9438 43.4685 22.9926 43.407 23.1164 43.2806C23.2628 43.1338 23.3173 43.0928 23.4558 43.0245C23.6863 42.9117 23.8554 42.8799 24.1165 42.9004C24.3833 42.9197 24.5967 42.9152 24.7171 42.8867C24.7682 42.8753 24.901 42.8241 25.01 42.774C25.3437 42.6214 25.4266 42.5986 25.6275 42.5986C25.7342 42.5986 25.8546 42.6123 25.9272 42.6328C26.085 42.6738 26.3416 42.7854 26.4676 42.8639C26.6197 42.9596 26.9013 43.2442 27.1295 43.53C27.3338 43.7861 27.4564 43.9045 27.4837 43.8738C27.4984 43.8567 27.6108 43.4389 27.7107 43.0324C27.7402 42.9117 27.7766 42.7182 27.7913 42.6032C27.8152 42.4244 27.8152 42.3721 27.7936 42.2229C27.7482 41.9258 27.7107 41.854 27.4224 41.5159C27.1408 41.1869 27.008 40.9398 26.9172 40.5869C26.8877 40.4605 26.857 40.3535 26.8536 40.35C26.8502 40.3466 26.79 40.3671 26.7208 40.3956C26.2542 40.5834 25.3869 40.8305 25.0735 40.8635C25.0111 40.8692 24.8431 40.8874 24.6989 40.9034C24.5547 40.9204 24.2369 40.9444 23.995 40.9603C23.5546 40.9888 23.2855 41.0093 22.8598 41.0446C22.0981 41.1083 21.216 41.1345 20.8901 41.1026C20.6427 41.0787 20.209 40.999 19.9047 40.9216C18.7684 40.637 17.2676 39.832 16.2651 38.9667C15.4478 38.2608 14.862 37.5538 14.3852 36.6976C13.9651 35.9416 13.6064 34.8896 13.4702 34.0164C13.4191 33.6942 13.376 33.2205 13.376 32.9666C13.376 32.8562 13.3725 32.7651 13.3669 32.7651C13.3635 32.7651 13.2238 32.871 13.0626 33.0008C12.7788 33.2285 12.6278 33.3389 12.5824 33.3549C12.5711 33.3583 12.6085 33.4095 12.6687 33.4676C12.9014 33.701 13.0308 33.9139 13.1523 34.2543C13.2295 34.4707 13.301 34.8247 13.301 34.9864C13.301 35.1572 13.3782 35.6149 13.4361 35.7857C13.4656 35.8779 13.5337 36.0452 13.586 36.1545C13.6813 36.3595 13.6927 36.4198 13.6314 36.4312C13.5905 36.4403 13.5451 36.3993 13.3408 36.1625C12.8867 35.6376 12.6414 35.2403 12.5608 34.8965C12.5098 34.6824 12.4893 34.7041 12.4984 34.9693C12.5063 35.1617 12.5177 35.2289 12.5608 35.353C12.6551 35.6263 12.7096 35.7139 13.0206 36.1056C13.5179 36.7318 13.7143 37.0608 13.779 37.383C13.8164 37.5652 13.8164 37.884 13.7812 38.1527C13.7517 38.377 13.7472 38.3918 13.6984 38.3918C13.6495 38.3918 13.6268 38.3599 13.586 38.2392C13.5428 38.1128 13.3782 37.7781 13.2874 37.6392C13.2011 37.5014 12.9707 37.2362 12.6312 36.8809C12.0443 36.2673 11.8286 35.7845 11.7855 34.9864L11.7741 34.7507L11.7389 34.8919C11.7196 34.9693 11.6992 35.1276 11.6958 35.2414C11.6867 35.4168 11.6924 35.4726 11.7276 35.608C11.7843 35.8153 11.7911 35.8597 11.7764 35.9166C11.7673 35.9542 11.7525 35.9633 11.7071 35.9633C11.6243 35.9633 11.3427 35.6786 11.2621 35.5158C11.1327 35.2528 11.1134 34.9272 11.2099 34.5526C11.2644 34.3306 11.3223 34.0255 11.3098 34.0141C11.2894 33.9936 10.7354 34.1701 10.4901 34.276C10.2835 34.3648 10.153 34.449 9.98724 34.5993C9.90891 34.6722 9.87144 34.72 9.87144 34.7496C9.87144 34.8099 9.98042 35.0149 10.0849 35.1504C10.2007 35.3052 10.4016 35.4669 10.7944 35.7265C11.2916 36.0555 11.5051 36.298 11.6333 36.6771C11.6674 36.7728 11.6742 36.8388 11.6742 37.0153C11.6719 37.136 11.6651 37.2669 11.6538 37.309C11.6447 37.35 11.6345 37.416 11.6345 37.4536C11.6345 37.5424 11.664 37.5629 11.8876 37.6187C12.3996 37.7485 12.7186 38.0422 12.8254 38.4806C12.8969 38.7811 12.8197 39.3219 12.705 39.3219C12.6619 39.3219 12.6562 39.3106 12.6267 39.1626C12.5461 38.747 12.3043 38.451 11.8876 38.2597L11.8317 38.2339C11.6978 38.1719 11.6566 38.1528 11.6333 38.1658C11.6229 38.1716 11.616 38.1837 11.6061 38.2012L11.5993 38.213C11.5266 38.3371 11.3983 38.3827 11.2054 38.3519C11.0612 38.3291 10.967 38.2847 10.8194 38.1641C10.5287 37.9272 10.3255 37.5675 10.1042 36.8866C10.069 36.7773 9.99405 36.5929 9.93502 36.4767C9.84306 36.2889 9.81354 36.2434 9.66823 36.101C9.37761 35.8118 9.20505 35.6775 8.99503 35.5819C8.5432 35.3746 7.86773 35.3109 7.20702 35.4111C6.79946 35.4748 6.55993 35.4942 6.443 35.4771C6.39078 35.468 6.28179 35.4304 6.19891 35.3929C5.931 35.2688 5.68919 35.238 5.49733 35.3063C5.44057 35.3257 5.30775 35.3815 5.19877 35.4304C5.03984 35.5022 4.97171 35.5227 4.84797 35.534C4.67768 35.5488 4.60049 35.5853 4.353 35.764C4.07374 35.9655 3.89891 35.9951 3.66846 35.8824C3.54699 35.8221 3.38692 35.6684 3.32107 35.5454C3.29723 35.4988 3.26658 35.4589 3.25523 35.4589C3.21208 35.4589 3.00775 35.6092 2.90784 35.7151C2.76707 35.8676 2.70009 35.969 2.58884 36.2058L2.54438 36.3002C2.51137 36.3705 2.48509 36.4265 2.47872 36.4369C2.45601 36.4824 2.40719 36.4802 2.38336 36.4335C2.36859 36.4073 2.35724 36.2786 2.35157 36.0988C2.34361 35.8426 2.34816 35.7845 2.38336 35.6468C2.40606 35.5579 2.44579 35.4395 2.47304 35.3838C2.53548 35.254 2.75684 35.0285 2.94984 34.8987L3.09289 34.8031L3.10651 34.6585C3.12126 34.4763 3.16667 34.3796 3.28814 34.2657C3.44594 34.1166 3.7797 33.9913 4.14412 33.9401C4.30192 33.9173 4.60957 33.9378 4.89792 33.9913C5.44171 34.0915 5.4962 34.0972 5.9503 34.0927C6.38396 34.0904 6.55198 34.0756 6.97429 34.0027C7.06398 33.9879 7.17524 33.9743 7.22405 33.9731L7.31032 33.9708L7.16047 33.8991C6.98224 33.8149 6.54857 33.6657 6.32606 33.6145C6.23752 33.594 6.04452 33.5689 5.89694 33.5598C5.419 33.5279 5.34407 33.5029 4.98534 33.2706C4.69245 33.0782 4.63795 33.052 4.52897 33.052C4.40863 33.052 4.2883 33.1147 4.10098 33.2706C3.48228 33.7875 3.06337 33.8706 2.71825 33.5439L2.62062 33.4494L2.52526 33.4835C2.28686 33.5644 2.03938 33.783 1.83731 34.0927C1.734 34.2509 1.6795 34.2919 1.64544 34.2373C1.61365 34.186 1.7726 33.7101 1.88726 33.5143C1.99624 33.3276 2.21874 33.0509 2.33794 32.9553C2.4526 32.8653 2.46169 32.8494 2.48098 32.7526C2.51504 32.583 2.53548 32.5329 2.6297 32.3894C2.73528 32.2277 2.98617 31.983 3.18143 31.8509C3.34264 31.7439 3.58671 31.6494 3.78197 31.6198C3.85918 31.6061 4.01243 31.6027 4.14185 31.6084C4.33938 31.6175 4.43474 31.6323 4.59367 31.6858C4.62773 31.6949 4.64249 31.6835 4.68337 31.6129C4.71175 31.5663 4.78441 31.474 4.84685 31.4057L4.95923 31.285L4.85933 31.2122C4.72197 31.1086 4.61752 31.0596 4.43134 31.0072C4.28148 30.9662 3.89437 30.9127 3.66165 30.9036C3.56628 30.8979 3.55833 30.8945 3.55833 30.8512C3.55833 30.8114 3.57764 30.7966 3.6798 30.7556C3.97043 30.6338 4.26559 30.586 4.50286 30.6235C4.67202 30.6497 5.0001 30.7727 5.14654 30.8604C5.25212 30.9264 5.25325 30.9264 5.47461 30.9264H5.47463C5.84245 30.9264 6.00933 30.9776 6.24887 31.1575C6.44186 31.3044 6.54744 31.4376 6.65188 31.6744C6.86417 32.1503 6.89936 32.2141 7.03219 32.3575C7.10371 32.435 7.25356 32.5602 7.36368 32.6376C7.4738 32.715 7.62479 32.8221 7.69971 32.8767C7.9472 33.0589 8.32069 33.3071 8.41492 33.3526C8.52504 33.4073 8.70895 33.4243 8.85766 33.3925C8.91556 33.3788 9.18802 33.257 9.4934 33.1044C10.0111 32.8482 10.0315 32.8357 10.1598 32.7059C10.3062 32.5568 10.4039 32.386 10.5072 32.1025C10.7138 31.5321 11.0589 30.9093 11.479 30.3435C11.6663 30.093 12.1465 29.6 12.3837 29.4201C12.7947 29.1025 13.2522 28.8383 13.5973 28.7188C13.7812 28.655 14.2069 28.5753 14.367 28.5753H14.4385L14.6247 28.1939C15.0482 27.3229 15.4784 26.6569 16.079 25.9419C16.3514 25.6163 17.103 24.8671 17.431 24.595C18.2076 23.9495 18.9954 23.3745 20.2828 22.516C21.9595 21.3969 22.517 20.9585 23.13 20.2731C23.7078 19.6299 24.2346 18.7532 24.4185 18.1338C24.4537 18.0154 24.5048 17.6579 24.4877 17.6431C24.4798 17.6351 24.381 17.6431 24.2686 17.6579C24.0325 17.6875 23.7044 17.7911 23.4785 17.9038C23.0244 18.1315 22.7372 18.2272 22.5045 18.2272C22.3149 18.2272 21.7484 18.1259 21.51 18.0484C21.4668 18.0336 21.636 18.1987 21.7722 18.3023C21.8449 18.3593 22.1662 18.5482 22.3989 18.6769C22.4136 18.6849 22.4341 18.7054 22.4454 18.7224C22.4749 18.7714 22.4341 18.7976 22.3024 18.8124C22.0288 18.8465 21.6735 18.7771 21.2648 18.6097C20.4746 18.2864 20.0523 18.1486 19.7833 18.1259L19.6516 18.1167L19.8435 18.2169C19.9502 18.2739 20.0682 18.3444 20.1057 18.3752C20.1954 18.4469 20.4792 18.62 20.637 18.6985C20.8413 18.8021 21.1433 18.9001 21.4998 18.9786C21.6871 19.0196 21.8528 19.0651 21.8676 19.0765C21.8971 19.1004 21.9028 19.1608 21.8755 19.1779C21.7949 19.2291 21.1626 19.3543 20.9004 19.376C20.6324 19.3953 20.1579 19.3737 19.8775 19.3304C19.378 19.253 18.9137 19.056 18.371 18.6883C17.9748 18.423 17.7274 18.2932 17.4254 18.1919C17.1779 18.1088 17.028 18.0849 16.6602 18.0701L16.4252 18.061L16.6035 18.2317C16.9111 18.5266 17.095 18.6245 17.5639 18.7429L17.5847 18.7483L17.5847 18.7483C17.812 18.8069 17.866 18.8208 17.8754 18.8494C17.8783 18.8583 17.877 18.8686 17.8752 18.8821L17.8749 18.8841L17.8692 18.9331L17.5877 18.9445L17.5857 18.9445C17.2778 18.9581 17.2737 18.9583 16.9406 19.0424C16.7192 19.0993 16.6875 19.1027 16.3968 19.0993C16.1834 19.097 16.0177 19.0856 15.8621 19.0583C15.7407 19.0378 15.6351 19.023 15.6317 19.0264C15.6203 19.0401 15.8508 19.2257 15.9938 19.3179C16.1641 19.4283 16.4661 19.5365 16.6931 19.5661C16.7737 19.5775 17.053 19.5923 17.3164 19.6014C17.8488 19.6162 17.9635 19.6355 18.404 19.771C18.7695 19.8837 19.042 20.0283 19.042 20.1092C19.042 20.1786 18.9841 20.1866 18.7377 20.1559C18.1599 20.0841 17.6706 20.1581 16.9315 20.4302C16.0949 20.7388 15.7622 20.8162 15.374 20.7991C15.173 20.79 15.0493 20.7673 14.7178 20.6807L14.6803 20.6716L14.7178 20.7012C14.7382 20.7183 14.904 20.8071 15.0834 20.8993C15.265 20.9915 15.5772 21.1669 15.777 21.2864C15.9779 21.4082 16.2345 21.5608 16.3492 21.6234C16.5183 21.7191 16.5569 21.7498 16.5615 21.7874C16.5649 21.8158 16.5558 21.8398 16.5421 21.8454C16.5274 21.8489 16.4445 21.825 16.3582 21.7908C15.8462 21.5824 15.5874 21.5403 14.6883 21.5198C13.5701 21.4914 13.3578 21.4504 13.0183 21.1942C12.9434 21.1361 12.8753 21.0906 12.8719 21.094C12.8549 21.1134 12.9843 21.3194 13.2363 21.6701C13.6643 22.2667 13.8062 22.4773 13.8062 22.5069C13.8062 22.5707 13.7483 22.5559 13.6427 22.4637C13.5167 22.3566 13.2057 22.195 12.8208 22.039C12.6766 21.9809 12.4564 21.8773 12.3349 21.809C12.2112 21.7418 12.1056 21.694 12.0988 21.702C12.092 21.71 12.0613 21.7976 12.033 21.8955C11.966 22.138 11.8468 22.4227 11.6583 22.7984C11.4563 23.2049 11.2326 23.5737 10.7217 24.3445C10.4311 24.7863 10.3244 24.9969 10.2302 25.3248C10.1462 25.6163 10.1201 25.8633 10.1473 26.1286C10.1768 26.4394 10.2131 26.5647 10.3312 26.8117C10.5356 27.233 10.774 27.4869 11.1327 27.6645C11.5039 27.8467 11.7832 27.8637 12.3145 27.7362C12.4689 27.6987 12.6426 27.6463 12.6993 27.6212C12.8605 27.5495 13.0558 27.4197 13.1591 27.3161C13.2545 27.2159 13.2976 27.2011 13.3374 27.2489C13.3896 27.3127 13.2919 27.5609 13.1625 27.685C12.9729 27.8694 12.6142 28.063 12.277 28.1632C12.0784 28.2235 12.0591 28.2258 11.7423 28.2258C11.3541 28.2258 11.2394 28.2019 10.9318 28.0505C10.598 27.8865 10.2824 27.5928 10.0315 27.2114C9.72386 26.7468 9.60806 26.3324 9.6285 25.7814C9.63985 25.4614 9.69548 25.1814 9.82717 24.7931C10.0111 24.2432 10.1518 23.9301 10.497 23.2971C10.9079 22.5468 11.219 21.8386 11.32 21.4344L11.3541 21.3046L11.2814 21.25C11.16 21.1555 10.9136 20.8948 10.8148 20.7513C10.7626 20.6784 10.7149 20.6181 10.7093 20.6158C10.6945 20.6158 10.707 20.8697 10.732 21.0576C10.7433 21.1407 10.7785 21.3058 10.8091 21.4242C10.8807 21.6929 10.8864 21.7897 10.8319 21.7965C10.7808 21.8045 10.5038 21.6064 10.3119 21.4253C9.99291 21.1248 9.8669 20.897 9.80333 20.5054L9.77948 20.3608L9.71364 20.502C9.61033 20.7206 9.56719 20.9221 9.56719 21.1817C9.56719 21.3081 9.58081 21.4618 9.59558 21.5392C9.62509 21.6838 9.61601 21.7259 9.54676 21.7259C9.50362 21.7259 9.34242 21.5335 9.18235 21.2933C8.92692 20.9062 8.85426 20.6853 8.85426 20.3073C8.85426 19.9008 8.93713 19.5456 9.2164 18.7509C9.34355 18.39 9.40825 18.0473 9.38896 17.8424C9.3549 17.511 9.19937 17.1934 8.93486 16.9224C8.74528 16.7266 8.55001 16.59 8.23101 16.4272C7.74285 16.1812 7.33416 16.0617 7.05489 16.0867C6.90504 16.1004 6.58831 16.1767 6.46911 16.2279C6.39078 16.2621 6.37375 16.2826 6.29314 16.4329C6.17734 16.6469 5.99117 16.9293 5.87991 17.0556C5.75844 17.1934 5.5961 17.3129 5.38494 17.4211C5.28505 17.4735 5.15562 17.5532 5.09659 17.5976C4.9842 17.6841 4.93311 17.6989 4.89792 17.6545C4.8843 17.6374 4.86841 17.4814 4.85705 17.2367C4.84797 17.0226 4.83094 16.7903 4.82186 16.7232C4.78099 16.4374 4.80483 16.1847 4.89111 16.0161C4.94334 15.9148 5.08978 15.719 5.20444 15.5949L5.2998 15.4936L5.14996 15.5744C4.78441 15.7725 4.45745 16.0184 4.31554 16.2051C4.25878 16.278 4.22359 16.3088 4.1918 16.3088C4.15093 16.3088 4.14639 16.3008 4.14639 16.2165C4.14639 16.0981 4.22472 15.793 4.30419 15.6108C4.50513 15.144 4.92177 14.6909 5.33386 14.4871L5.48258 14.4142L5.3929 14.4006C5.34408 14.3949 5.16925 14.3892 5.00237 14.3869C4.57438 14.3869 4.47335 14.3641 4.49038 14.2765C4.50173 14.2127 4.97058 13.911 5.21693 13.8119C5.46101 13.714 5.61653 13.6878 5.8924 13.7015C6.0309 13.7072 6.20005 13.7243 6.26703 13.7391C6.33401 13.7562 6.45322 13.7732 6.52928 13.7789L6.67005 13.7926L6.75065 13.6434C6.90618 13.3577 7.14798 13.0753 7.37389 12.9171C7.41704 12.8875 7.41704 12.8852 7.39433 12.7326C7.36028 12.5049 7.31146 12.3671 7.20134 12.1816C7.03446 11.9026 6.75859 11.6749 6.47365 11.585C6.12059 11.4723 5.77774 11.5702 4.76623 12.0632C4.20769 12.3364 3.9727 12.3979 3.39486 12.4241C2.79431 12.4503 2.04051 12.2396 1.63296 11.9288C1.06419 11.4962 0.799687 11.0351 0.75087 10.3884C0.715674 9.93524 0.77357 9.35572 0.900717 8.87526C0.923427 8.7967 0.972242 8.76596 1.0063 8.8115C1.02333 8.83199 1.01765 8.88892 0.983592 9.05287C0.920018 9.35344 0.921157 9.71094 0.985866 9.99558C1.03809 10.2324 1.18113 10.5466 1.33325 10.7675C1.43883 10.9201 1.70107 11.1853 1.84298 11.2833C2.24032 11.5576 2.69441 11.6271 3.32333 11.5132C3.83193 11.421 4.16796 11.2855 4.79462 10.9201C5.28391 10.632 5.46669 10.5603 5.85494 10.4965C6.17735 10.4442 6.44073 10.4555 6.7461 10.5341C7.0969 10.624 7.29216 10.7185 7.5544 10.9212C7.98807 11.2559 8.22647 11.6852 8.36838 12.3854C8.38881 12.4867 8.40584 12.6131 8.40584 12.6643V12.7588L8.53185 12.7417C8.60337 12.7338 8.74414 12.7269 8.84745 12.7269C9.00866 12.7269 9.06087 12.736 9.22776 12.7907L9.41961 12.8533L9.55698 12.7292C9.76133 12.5391 10.2268 12.1349 10.3358 12.0495C10.388 12.0085 10.4311 11.9687 10.4334 11.9607C10.4334 11.9527 10.3902 11.889 10.3358 11.8195C10.2143 11.6578 10.1201 11.4563 10.0735 11.2514C10.0531 11.1626 10.0304 11.0783 10.0224 11.0635C10.0145 11.0487 9.93388 11.0032 9.84419 10.9633C9.39577 10.7652 9.13353 10.4908 8.99276 10.073C8.936 9.90563 8.88945 9.55155 8.90308 9.40126C8.91783 9.23162 8.94394 9.17925 9.00979 9.17925C9.07563 9.17925 9.11991 9.23731 9.23116 9.45363C9.3322 9.65288 9.48205 9.83163 9.62737 9.92726C9.69094 9.97053 9.7511 10.0058 9.76019 10.0058C9.76927 10.0058 9.74542 9.93979 9.70909 9.85895C9.5706 9.55838 9.51384 9.4172 9.45935 9.2282C9.38783 8.99139 9.36398 8.81036 9.35036 8.47222C9.34242 8.24451 9.34695 8.16937 9.39009 7.92686C9.4741 7.43046 9.64553 6.97618 9.74656 6.97618C9.83057 6.97618 9.83625 6.99554 9.91685 7.53065C9.93388 7.63426 9.97134 7.8039 10.0031 7.90637C10.0803 8.15229 10.3255 8.64414 10.5038 8.90144L10.5177 8.9217L10.5178 8.92178L10.5178 8.92179C10.5888 9.02509 10.6252 9.07804 10.6462 9.0725C10.6682 9.06668 10.6732 8.9962 10.6835 8.8516L10.6835 8.85149L10.6854 8.82402C10.7047 8.53028 10.7694 8.10675 10.8182 7.95077C10.9874 7.41224 11.2667 7.01034 11.3847 7.12875C11.4142 7.15835 11.4131 7.29839 11.3768 7.53862C11.362 7.64792 11.345 7.93027 11.337 8.16937C11.328 8.56785 11.3291 8.61681 11.3688 8.80695C11.3915 8.91966 11.4154 9.02896 11.4233 9.04832C11.4324 9.07222 11.4585 8.99367 11.5017 8.81492C11.6515 8.20922 11.8979 7.7743 12.3122 7.37581C12.7061 7.00009 13.1432 6.72684 14.1956 6.20198C15.0663 5.76934 15.1844 5.7033 15.5988 5.42664C16.1391 5.06345 16.4842 4.7697 16.8816 4.33137C17.3039 3.86457 17.4685 3.63686 17.7012 3.18372C17.7796 3.02775 17.909 2.79207 17.9884 2.65658C18.2291 2.24216 18.5039 2.0042 18.6378 2.09073C18.7105 2.13969 18.7218 2.18295 18.7241 2.42546C18.7241 2.69985 18.6696 3.00839 18.5424 3.44559L18.5314 3.48376L18.5313 3.48382C18.4526 3.75442 18.4517 3.75755 18.4789 3.75755C18.5163 3.75755 18.8104 3.45697 18.9137 3.31124C19.1385 2.99473 19.4461 2.39472 19.9138 1.34841C20.2907 0.503614 20.4951 0.187102 20.7358 0.0709713C20.8913 -0.00417203 20.9674 -0.0155574 21.0502 0.0254299ZM27.197 29.8593L26.5764 30.0889C26.7146 29.9469 26.8428 29.8075 26.8922 29.7457C27.0897 29.4918 27.1227 29.4577 27.1624 29.4827C27.1919 29.5021 27.1964 29.534 27.1964 29.7651C27.1964 29.7998 27.1965 29.8309 27.197 29.8593ZM29.4411 29.0289L27.7315 29.6615C27.7241 29.6256 27.7153 29.5903 27.705 29.5556C27.6767 29.4611 27.6335 29.2846 27.6074 29.1605C27.5643 28.9613 27.5586 28.9066 27.5677 28.6903C27.579 28.4398 27.6426 28.1427 27.705 28.0448C27.7516 27.9719 27.8027 27.9981 27.8538 28.1222C27.9105 28.2611 27.9718 28.3419 28.1035 28.4478C28.2556 28.5685 28.8244 28.8543 28.8516 28.8235C28.855 28.8201 28.7858 28.7028 28.6961 28.5662C28.5236 28.2987 28.4078 28.0698 28.3714 27.9241C28.3601 27.8751 28.351 27.7681 28.351 27.6873C28.351 27.5222 28.3771 27.4197 28.5497 26.8835C28.6439 26.5977 28.6825 26.5169 28.7279 26.5169C28.7358 26.5169 28.8051 26.5795 28.88 26.6546C29.0287 26.8038 29.5737 27.1795 29.6009 27.151C29.6236 27.1305 29.5055 26.9381 29.3125 26.6808C28.9969 26.263 28.922 26.0637 28.939 25.6982C28.9538 25.4034 29.0344 25.113 29.2501 24.6018C29.3602 24.3366 29.3931 24.1897 29.4204 23.8174C29.4431 23.5316 29.4613 23.4713 29.5214 23.494C29.5362 23.4997 29.5782 23.5669 29.6134 23.6432C29.7315 23.8994 30.1072 24.3013 30.4648 24.5574C30.6294 24.6758 30.6487 24.6849 30.6544 24.6474C30.6601 24.5984 30.6033 24.3878 30.5386 24.2147C30.3899 23.8288 30.3956 23.4975 30.5625 22.5422C30.5852 22.4204 30.6169 22.2542 30.6374 22.1756C30.6567 22.0971 30.6782 21.9991 30.6839 21.9616C30.6987 21.875 30.7509 21.809 30.7906 21.8238C30.8077 21.8295 30.8485 21.8762 30.8803 21.9274C30.9587 22.0492 31.1675 22.2394 31.3628 22.3692C31.5388 22.4853 31.5649 22.4933 31.541 22.4272C31.5036 22.3293 31.3719 21.7555 31.3492 21.5972C31.3231 21.4037 31.3356 21.0838 31.3776 20.9392C31.3912 20.8868 31.4411 20.7172 31.4877 20.5635C31.5365 20.4075 31.583 20.2173 31.5944 20.1399C31.6296 19.9008 31.6466 19.8576 31.6954 19.8576C31.7329 19.8576 31.7533 19.886 31.8192 20.0124C31.9781 20.3232 32.1813 20.6466 32.2154 20.6488C32.2233 20.6488 32.2267 20.305 32.2245 19.8815L32.2222 19.1152L32.2767 18.9604C32.3062 18.8739 32.3834 18.7008 32.4515 18.5744C32.5173 18.4469 32.6581 18.1646 32.7648 17.946C32.8715 17.7296 32.9726 17.5395 32.9896 17.5258C33.0475 17.4769 33.0997 17.511 33.2076 17.6647C33.3563 17.8811 33.5879 18.1873 33.6106 18.1953C33.6219 18.1987 33.6503 18.1486 33.6764 18.0849C33.7218 17.9699 33.723 17.9528 33.723 17.4871C33.7253 16.9657 33.7366 16.8735 33.8297 16.607C33.9387 16.2928 34.1022 16.007 34.3303 15.7213C34.4802 15.5345 35.1 14.922 35.1727 14.8856C35.2329 14.8571 35.2499 14.8822 35.2817 15.0359C35.3157 15.1953 35.368 15.2989 35.5382 15.5402C35.578 15.597 35.6208 15.6574 35.6558 15.7067L35.6821 15.744L35.7199 15.7976L35.7687 15.867L35.7925 15.6655C35.8209 15.4173 35.9254 14.9619 36.0105 14.7307C36.1286 14.4017 36.2546 14.1888 36.4567 13.9748C36.6553 13.7641 36.7779 13.6776 37.3796 13.311C37.492 13.2415 37.7009 13.1129 37.8394 13.0286C38.1561 12.8305 38.2106 12.8032 38.2424 12.8146C38.2946 12.8351 38.2889 12.8863 38.2197 12.9876C38.0324 13.2734 37.8893 13.7288 37.8553 14.1558C37.8462 14.2935 37.8405 14.4097 37.8462 14.4154C37.8496 14.4211 37.8746 14.3926 37.9007 14.3516C38.1913 13.8928 38.3139 13.7322 38.5421 13.5159C38.8361 13.237 39.2868 13.0423 40.1178 12.8305C40.2098 12.8078 40.396 12.7577 40.5311 12.7201C41.2871 12.506 41.3246 12.4981 41.3303 12.5732C41.3337 12.6313 41.3303 12.6427 41.2088 12.8556C41.0703 13.1004 40.9613 13.3895 40.8694 13.7698L40.8684 13.774C40.8337 13.921 40.8035 14.0489 40.8035 14.059C40.8035 14.0727 40.8694 14.0271 40.9522 13.9611C41.2883 13.6878 41.5074 13.6013 41.9388 13.5717C42.1624 13.5569 42.7323 13.5626 42.9889 13.5831C43.0297 13.5865 43.2329 13.5968 43.4396 13.6036C43.6462 13.6104 43.8335 13.6241 43.8562 13.6321C43.9345 13.6617 43.9073 13.7163 43.7495 13.8484C43.5361 14.0249 43.3964 14.1854 43.1978 14.486L43.1561 14.5477C43.07 14.6753 42.9817 14.8062 42.9446 14.8571L42.8663 14.9641H43.0127C43.1285 14.9619 43.183 14.9721 43.2738 15.0097C43.503 15.1022 43.6643 15.2366 43.9591 15.5986C41.9167 15.3238 39.787 16.8993 39.9127 19.3169L39.967 20.3626C37.9439 18.9042 34.7516 19.5372 33.7435 22.2616L32.2956 26.1744C31.8063 27.4968 30.7636 28.5395 29.4411 29.0289ZM50.9022 23.6942C52.3075 22.3566 52.289 20.4158 51.3657 19.0776C51.2792 18.8575 51.2541 18.7192 51.2501 18.4856C51.2478 18.2659 51.2523 18.2408 51.3136 18.0621C51.3829 17.8549 51.6304 17.3869 51.6792 17.3676C51.7189 17.3528 51.7462 17.3847 51.7859 17.494C51.8234 17.5953 51.9414 17.7388 52.0425 17.8025C52.0822 17.8264 52.223 17.8913 52.3535 17.9437C52.6805 18.0735 52.7883 18.1338 52.9597 18.2818C53.0403 18.3513 53.1119 18.4037 53.1175 18.398C53.1232 18.39 53.1289 18.3604 53.1289 18.3308C53.1289 18.2522 53.2504 17.8959 53.3185 17.7775C53.3968 17.6397 53.5921 17.4017 53.7238 17.2845C53.8611 17.1604 54.1381 16.9953 54.347 16.9122C54.6637 16.7881 55.3392 16.5683 55.3699 16.5797C55.4073 16.5945 55.4096 16.664 55.3721 16.7881C55.3142 16.9816 55.2893 17.2321 55.3063 17.4131C55.3256 17.5828 55.3324 17.6272 55.4005 17.9141C55.4198 17.9972 55.4403 18.1304 55.4471 18.209C55.455 18.2898 55.4641 18.3558 55.4675 18.3558C55.4732 18.3558 55.5186 18.3217 55.5685 18.283C55.6628 18.2078 55.9114 18.0814 56.0658 18.0291C56.1123 18.012 56.2349 17.9858 56.3337 17.9687C56.7038 17.9061 57.8027 17.9744 57.8912 18.0632C57.9401 18.1122 57.9026 18.1794 57.7766 18.2704C57.612 18.3866 57.478 18.5357 57.4065 18.6792C57.3724 18.7452 57.3032 18.924 57.2544 19.0765C57.1533 19.3885 57.134 19.4306 57.0194 19.5957C56.974 19.6617 56.9365 19.7198 56.9365 19.7278C56.9365 19.7357 56.9989 19.7414 57.0739 19.7426C57.2873 19.7448 57.4451 19.8029 57.7005 19.9737C57.822 20.0568 58.0025 20.1877 58.1001 20.2686C58.3453 20.4678 58.5349 20.5885 58.8312 20.7365C59.0878 20.8629 59.1128 20.8811 59.1128 20.938C59.1128 20.9847 59.0719 21.0018 58.7222 21.1031C58.5497 21.1544 58.3828 21.2044 58.3522 21.2158C58.2489 21.2557 57.8924 21.4287 57.8924 21.4401C57.8924 21.4458 57.9866 21.4891 58.1001 21.5346C58.2125 21.5802 58.3556 21.6496 58.4157 21.6895C58.5644 21.7874 58.8449 22.0868 58.9311 22.2337C59.0946 22.5138 59.2274 22.6424 59.5612 22.8451C59.828 23.009 59.8666 23.0557 59.7905 23.1217C59.7326 23.1741 59.6316 23.1935 59.2615 23.2197C58.9277 23.2436 58.8755 23.2538 58.6428 23.3255C58.5043 23.3688 58.3374 23.4087 58.2716 23.4143C58.208 23.42 58.1558 23.4291 58.1558 23.4348C58.1558 23.4667 58.4089 23.625 58.5383 23.6739C58.6439 23.7138 59.1559 23.8606 59.3285 23.8994C59.4488 23.9255 59.5067 23.9665 59.5067 24.0212C59.5067 24.0701 59.4897 24.0838 59.3319 24.1681C59.0753 24.3035 58.9516 24.3901 58.8539 24.5062C58.5815 24.8295 58.4032 24.9696 58.1614 25.0424C58.0865 25.0652 58.0241 25.0891 58.0241 25.0971C58.0241 25.1028 58.0445 25.1347 58.0695 25.1631C58.0956 25.1927 58.1535 25.2986 58.2012 25.3965C58.3045 25.6106 58.4316 25.762 58.5815 25.8406C58.6416 25.8724 58.8051 25.9385 58.9436 25.9874C59.0821 26.0364 59.2535 26.1058 59.3228 26.1423C59.5442 26.2584 59.8144 26.5237 59.803 26.6148C59.7951 26.6694 59.7769 26.6819 59.6384 26.7206C59.4829 26.7639 59.3716 26.847 59.1037 27.1237C58.9709 27.2615 58.8165 27.4038 58.7643 27.4379C58.6326 27.5267 58.4225 27.5928 58.2261 27.6076C58.1365 27.6155 58.0627 27.6246 58.0627 27.6303C58.0627 27.6497 58.3033 27.9332 58.4191 28.0516C58.586 28.2212 58.7302 28.2884 59.1661 28.3943C59.635 28.5104 59.853 28.6163 59.8155 28.7142C59.8041 28.7484 59.7156 28.7871 59.5169 28.8497C59.434 28.8736 59.2955 28.934 59.207 28.9818C58.7881 29.2061 58.5974 29.2732 58.3669 29.2789L58.2489 29.2824L58.3385 29.3552C58.5168 29.5021 58.6757 29.6808 58.7983 29.8664C59.0481 30.2478 59.2899 30.3833 59.9199 30.4949C60.13 30.5325 60.2389 30.5951 60.2389 30.6759C60.2389 30.7272 60.1822 30.7602 60.0437 30.7943C59.9222 30.8239 59.6929 30.9412 59.5464 31.0505C59.2161 31.2953 58.9448 31.4319 58.6587 31.5025C58.5372 31.5321 58.4373 31.5663 58.4373 31.5776C58.4373 31.6095 58.6416 31.7484 58.8222 31.8395C59.0231 31.9408 59.2388 31.9921 59.3943 31.9727C59.4511 31.9647 59.627 31.9317 59.7826 31.8953C60.0879 31.8281 60.1788 31.8179 60.2446 31.852C60.3445 31.9044 60.3366 31.9556 60.2037 32.1321C60.0879 32.2869 60.0516 32.3712 60.0051 32.6023C59.9653 32.8038 59.8495 33.0224 59.6747 33.2274C59.4023 33.5473 59.2456 33.7443 59.2456 33.767C59.2456 33.7966 59.4556 33.7932 59.6304 33.7591C59.8291 33.7215 59.9358 33.6646 60.1561 33.4881C60.3581 33.3241 60.5613 33.208 60.7316 33.1591C60.8633 33.1215 60.9042 33.1215 60.9337 33.1568C60.9746 33.208 60.9576 33.2866 60.8508 33.5348C60.6181 34.0824 60.6158 34.2782 60.8418 34.8384C60.894 34.9659 60.9576 35.1151 60.9848 35.1674C61.0631 35.3291 61.2028 35.5739 61.2141 35.5739C61.2198 35.5739 61.2436 35.4896 61.2663 35.386C61.3265 35.1071 61.3958 34.9819 61.6285 34.7348C61.7375 34.6221 61.8839 34.4456 61.9554 34.3431C62.0871 34.1587 62.1541 34.0927 62.1916 34.1154C62.2029 34.1234 62.2347 34.1792 62.2642 34.2429C62.3278 34.3864 62.4992 34.6642 62.6071 34.8054C62.7138 34.9409 63.035 35.2813 63.035 35.2574C63.035 35.246 63.0214 35.1743 63.0055 35.0991C62.9908 35.024 62.976 34.86 62.976 34.7359C62.9737 34.5344 62.984 34.4684 63.0543 34.1336L63.0586 34.114C63.135 33.7588 63.1372 33.7486 63.1372 33.3617C63.1395 33.1431 63.1463 32.9553 63.1543 32.9416C63.186 32.8949 63.2383 32.9222 63.3404 33.0372C63.5073 33.2251 63.7048 33.3082 64.0772 33.3424C64.1487 33.3503 64.2725 33.3765 64.3497 33.4004C64.4269 33.4243 64.4927 33.4403 64.4961 33.4357C64.5131 33.4209 64.4564 33.3093 64.3292 33.1101C64.05 32.674 63.9875 32.4782 63.9671 31.983C63.958 31.7211 63.9591 31.6949 63.9898 31.6778C64.0125 31.6664 64.042 31.6687 64.0852 31.6869C64.1851 31.7279 64.378 31.7188 64.5052 31.6676C64.7073 31.5833 64.8265 31.4979 65.0422 31.2816L65.2556 31.0653L65.1466 31.0414C64.9854 31.0061 64.747 30.8831 64.6369 30.7841C64.5222 30.6805 64.3917 30.4903 64.3088 30.3082C64.2316 30.1385 64.1442 30.0076 63.9989 29.8471C63.8468 29.682 63.8433 29.6342 63.9796 29.5841C64.0284 29.5647 64.1294 29.5408 64.2044 29.5294C64.3769 29.5055 64.7254 29.4087 64.8162 29.3643C64.9082 29.3154 65.0002 29.2152 65.1353 29.0148L65.2499 28.8474L65.1091 28.8133C64.8424 28.7507 64.7118 28.6584 64.4621 28.3658C64.134 27.9765 63.9909 27.8694 63.6651 27.7635C63.5925 27.7408 63.5221 27.7112 63.5073 27.6964C63.4585 27.6508 63.513 27.5859 63.6935 27.4687C64.3145 27.0713 64.4098 26.9928 64.5222 26.7764C64.5597 26.7036 64.6221 26.5601 64.6596 26.4565C64.7379 26.2425 64.8231 26.0694 64.9298 25.8998C64.9706 25.8337 65.0024 25.7779 64.999 25.7734C64.9956 25.7711 64.9389 25.7768 64.8719 25.7871C64.6267 25.8269 64.369 25.7381 64.1851 25.548C64.1249 25.4899 64.0182 25.3453 63.9467 25.2258C63.7854 24.9662 63.6186 24.7612 63.4256 24.5916C63.3075 24.488 63.2814 24.4538 63.2848 24.4163C63.2905 24.373 63.3041 24.3696 63.4971 24.3354C63.773 24.2899 63.8558 24.2603 64.0114 24.151C64.1601 24.0451 64.2066 23.9779 64.3054 23.7217C64.3633 23.5726 64.4348 23.4451 64.5472 23.2914C64.5767 23.2515 64.5756 23.2504 64.4689 23.2197C64.0579 23.1047 63.7207 22.894 63.5289 22.6367C63.4392 22.516 63.3052 22.2473 63.2564 22.0914C63.2417 22.039 63.1894 21.8728 63.1406 21.7202C63.0918 21.5676 63.0566 21.431 63.0623 21.4139C63.0759 21.3821 63.1406 21.3786 63.261 21.406C63.3064 21.4151 63.4199 21.4253 63.5141 21.4265C63.6572 21.4287 63.7298 21.4174 63.9478 21.3593C64.092 21.3217 64.218 21.2819 64.2259 21.275C64.235 21.2659 64.1851 21.2181 64.1135 21.168C63.7514 20.9107 63.4063 20.4758 63.3007 20.1479C63.2712 20.0557 63.2337 19.8883 63.2178 19.7756L63.2049 19.6825C63.1902 19.576 63.1723 19.4466 63.1577 19.3577C63.1202 19.1004 63.1236 19.0925 63.27 19.1278C63.4801 19.179 63.6469 19.13 63.9058 18.9433C64.0704 18.8226 64.2713 18.7133 64.4008 18.6758C64.4462 18.6621 64.4814 18.6439 64.4814 18.6359C64.4814 18.6279 64.453 18.6006 64.4189 18.5733C64.3326 18.5073 64.1135 18.2454 64.0159 18.0951C63.8524 17.8435 63.765 17.4052 63.8082 17.0568C63.8161 16.9896 63.8274 16.8427 63.832 16.7289C63.8399 16.6162 63.849 16.516 63.8547 16.5091C63.8717 16.4795 63.9353 16.4898 64.0307 16.5387C64.2929 16.6719 64.7039 16.7289 65.0161 16.6719C65.108 16.6549 65.234 16.6423 65.2919 16.6423C65.3498 16.6423 65.4009 16.6366 65.4009 16.631C65.4009 16.6253 65.3578 16.5046 65.3055 16.3634C65.2113 16.1118 65.2079 16.1004 65.2 15.8613C65.1863 15.53 65.2238 15.3763 65.3952 15.0393C65.4667 14.9015 65.5383 14.7444 65.5564 14.6909C65.603 14.5531 65.6507 14.5417 65.7699 14.6442C65.9572 14.8002 66.2103 14.9118 66.6326 15.0222C66.787 15.0632 66.9142 15.0917 66.9176 15.0882C66.9233 15.0848 66.9085 15.0621 66.8881 15.037C66.7235 14.8548 66.4862 14.3949 66.3965 14.0829C66.2875 13.7015 66.2523 13.122 66.3125 12.711C66.3647 12.3501 66.5532 11.8605 66.7666 11.5235C66.8551 11.3823 67.0572 11.1056 67.1719 10.9667L67.208 10.9236L67.2437 10.8809C67.3102 10.8016 67.402 10.692 67.4829 10.5944C67.9223 10.0673 68.1153 9.75876 68.2958 9.29424C68.3673 9.1098 68.3821 9.08703 68.4252 9.08133C68.457 9.07792 68.4774 9.08703 68.4854 9.10752C68.4933 9.12687 68.5024 9.30107 68.5092 9.49917C68.5206 9.90905 68.4944 10.3235 68.4377 10.5603C68.4184 10.6468 68.4025 10.7311 68.4025 10.7481C68.4025 10.7937 68.5694 10.624 68.7215 10.4225C68.9576 10.1106 69.087 9.8339 69.3198 9.14737C69.5445 8.48133 69.6422 8.25703 69.8488 7.94735C69.9805 7.75153 70.2711 7.43957 70.5822 7.16632C70.8069 6.96708 70.8728 6.92381 70.9103 6.95569C70.9534 6.98985 70.9386 7.0536 70.8353 7.27334C70.614 7.74356 70.5299 8.03388 70.5084 8.37203C70.4993 8.54281 70.5084 8.65438 70.5549 9.01188C70.6355 9.6153 70.656 9.89083 70.6446 10.2108C70.6412 10.3656 70.6412 10.4897 70.6446 10.4897C70.6741 10.4897 70.8081 10.2324 70.8853 10.0263C70.9164 9.94508 70.9514 9.85242 70.9798 9.77698L71.0238 9.66085C71.1997 9.19746 71.5619 8.64527 71.949 8.2502C72.6472 7.5352 73.9153 6.91812 75.5307 6.50825C76.0336 6.38187 76.0734 6.37504 76.1086 6.41033C76.1494 6.45132 76.0938 6.49686 75.7986 6.64601C75.0653 7.02059 74.6952 7.28017 74.2252 7.75039C73.762 8.21719 73.6621 8.38797 73.2307 9.49234L73.1149 9.79292C73.1092 9.80772 73.1637 9.76445 73.2364 9.69728C73.6712 9.28741 74.6622 8.69082 75.2026 8.51434C75.2741 8.49043 75.4433 8.42554 75.5773 8.37089C76.2187 8.10903 76.6671 7.85399 76.9543 7.58416C77.1008 7.44526 77.5151 6.95 77.7535 6.62665C77.934 6.38528 77.9658 6.34999 78.0067 6.3534C78.0362 6.35682 78.0555 6.37276 78.0589 6.39667C78.0623 6.41716 78.0124 6.58339 77.9499 6.76328C77.8863 6.9443 77.791 7.23122 77.7342 7.40313C77.5787 7.89043 77.5651 7.928 77.4459 8.1762C77.1984 8.69537 76.9657 9.01871 76.5263 9.45363C76.1608 9.81683 75.7623 10.114 75.239 10.4134C74.3398 10.9269 73.8994 11.3106 73.5997 11.8343C73.4612 12.0768 73.4623 12.0768 73.7007 11.881C74.1003 11.5554 74.5635 11.2696 74.9336 11.1261C75.1549 11.0396 75.4978 10.9451 75.9337 10.8552C76.6603 10.7026 76.9577 10.599 77.6264 10.2677C77.9862 10.0912 78.8627 9.57773 79.1385 9.38304C79.2191 9.32612 79.2997 9.28285 79.3168 9.28741C79.3894 9.30107 79.3565 9.36255 79.1624 9.57546C78.8944 9.8692 78.7571 10.0366 78.429 10.4692C78.093 10.9132 78.0407 10.9736 77.6695 11.3812C77.5083 11.5565 77.2506 11.8491 77.0974 12.0301C76.557 12.6643 76.171 13.0252 75.5965 13.4351C75.3082 13.64 74.7406 13.9372 74.4329 14.0442C74.2513 14.108 74.3126 14.1159 74.5544 14.0636C74.8643 13.9941 75.0664 13.9087 75.785 13.5524C76.5354 13.1812 76.5638 13.1687 76.8147 13.0913C77.3153 12.9364 78.1395 12.9091 78.681 13.0275C78.7786 13.0503 79.0023 13.1083 79.1783 13.1596L79.2476 13.18L79.2477 13.18C79.9142 13.3764 80.032 13.4111 80.0333 13.4497C80.0335 13.458 80.0285 13.4665 80.0223 13.4767L80.0206 13.4795C80.0036 13.5057 79.9752 13.5091 79.8798 13.5057C79.4223 13.4829 78.7923 13.6264 78.1554 13.8973C77.6899 14.0966 77.3357 14.3118 76.6694 14.7945C76.0507 15.2442 75.5738 15.4981 75.1969 15.5789C75.1629 15.5869 75.1311 15.6017 75.1243 15.6108C75.1107 15.6336 75.2503 15.6245 75.7543 15.5698C76.1937 15.5232 76.6796 15.5186 76.91 15.5585C77.0043 15.5755 77.2404 15.6302 77.4357 15.6826C77.8636 15.7953 78.135 15.8442 78.4846 15.8727C78.8116 15.8989 78.8161 15.9012 78.8093 15.9626C78.8036 16.0082 78.7684 16.0298 78.4823 16.1733C78.2496 16.2894 78.0339 16.4192 77.6854 16.6549C76.532 17.4336 76.171 17.609 75.2582 17.8344C74.7576 17.9608 74.5703 17.9847 74.123 17.987C73.8789 17.987 73.6541 17.9778 73.5542 17.963C73.4646 17.9494 73.3851 17.9425 73.3794 17.946C73.3658 17.9608 73.9538 18.349 74.1128 18.4298C74.2672 18.5073 74.7451 18.6951 74.7883 18.6951C74.8257 18.6951 74.8723 18.7498 74.8723 18.7908C74.8723 18.8317 74.8144 18.8625 74.4761 18.9934C74.4164 19.0163 74.3192 19.0549 74.2151 19.0962L74.2134 19.0968C74.1317 19.1292 74.046 19.1632 73.9709 19.1927C73.8006 19.2621 73.586 19.3361 73.4963 19.3543C73.2579 19.4067 72.8674 19.4056 72.5825 19.3521C72.3418 19.3065 71.9672 19.1995 71.823 19.1357C71.7924 19.1217 71.7219 19.0899 71.638 19.0519L71.4484 18.9661C71.1895 18.85 70.6344 18.6484 70.6174 18.6655C70.614 18.6689 70.6491 18.7179 70.6946 18.7748C70.7411 18.8329 70.8103 18.9365 70.849 19.0082C71.0068 19.2974 71.0465 19.3509 71.2372 19.5524C71.3496 19.6686 71.4393 19.7767 71.4393 19.7915C71.4393 19.8485 71.3666 19.886 71.21 19.9042C71.0749 19.9213 71.0181 19.9179 70.8013 19.8803C70.5254 19.8348 70.4017 19.7938 70.1485 19.6674C69.8318 19.5092 69.6433 19.3623 69.4095 19.0936C69.1904 18.8397 69.1132 18.7304 69.0076 18.5278L68.9179 18.3513L68.8941 18.4059C68.8532 18.5016 68.7067 18.9627 68.6466 19.1756C68.4979 19.7175 68.4513 20.0773 68.4513 20.6716C68.4536 21.7475 68.5399 22.5661 68.8044 24.02C68.8475 24.2517 68.8879 24.4807 68.9099 24.605L68.9247 24.6884C68.9451 24.8147 69.0825 25.5571 69.1699 26.0239L69.1733 26.0413C69.2044 26.2032 69.242 26.398 69.2562 26.4793C69.2701 26.5587 69.3133 26.7656 69.3524 26.9532L69.3531 26.9566L69.3533 26.9573L69.3595 26.9871C69.6751 28.466 69.7761 29.1173 69.9033 30.4755L69.926 30.7146L70.0588 30.726C70.1315 30.734 70.245 30.7454 70.3086 30.7499C70.4062 30.759 70.4168 30.6782 70.3404 30.5074C70.2302 30.2569 70.2257 30.2444 70.1826 29.9564C70.1633 29.8209 70.1247 29.6273 70.0963 29.5237C70.0327 29.2789 70.0123 28.8839 70.0565 28.7746C70.0917 28.6937 70.1462 28.6801 70.1894 28.7461C70.2041 28.77 70.2473 28.9101 70.2836 29.0569C70.3404 29.2812 70.3733 29.3655 70.4857 29.5875C70.5606 29.7321 70.6264 29.8471 70.6264 29.8471C70.6287 29.8436 70.6174 29.7571 70.6026 29.6547C70.5617 29.3723 70.5402 29.0524 70.5402 28.6231C70.5402 28.4102 70.5311 28.0812 70.5197 27.8911C70.4902 27.4117 70.522 27.1578 70.6491 26.8436L70.6568 26.8249C70.817 26.4316 70.8384 26.3791 70.8698 26.3722C70.8752 26.371 70.8809 26.3711 70.8876 26.3711C70.9114 26.3711 70.933 26.3825 70.9341 26.3939C70.9341 26.4076 70.9341 26.5783 70.9318 26.7753C70.9284 27.4004 70.9716 27.7635 71.0987 28.1643C71.1873 28.4444 71.202 28.5844 71.1884 29.0376C71.177 29.4213 71.1941 29.7275 71.2293 29.764C71.2645 29.8004 71.3416 29.534 71.3723 29.2744C71.4018 29.0125 71.4211 28.9146 71.4904 28.6379C71.5108 28.5548 71.5415 28.4239 71.5573 28.3465C71.5982 28.162 71.6572 28.0573 71.722 28.0493C71.7935 28.0402 71.8003 28.0846 71.773 28.3601C71.7503 28.5901 71.7537 28.7347 71.7935 29.099C71.8275 29.4315 71.8026 29.8892 71.7367 30.1374C71.697 30.2865 71.5642 30.5928 71.4813 30.7283C71.4359 30.8012 71.3984 30.8831 71.3984 30.9105C71.3984 30.956 71.4064 30.9594 71.5017 30.9708C71.5585 30.9788 71.6448 30.9788 71.6913 30.9708L71.7776 30.9571L71.9047 30.6884C72.0886 30.3025 72.1465 30.1226 72.1692 29.8664C72.2215 29.2527 72.5495 28.6004 72.9798 28.2577C73.0377 28.211 73.057 28.1791 73.0888 28.0618C73.1773 27.7385 73.351 27.5119 73.6155 27.3787C73.745 27.3127 73.7745 27.3059 73.9345 27.2979C74.081 27.2922 74.1275 27.2979 74.2286 27.3332C74.4352 27.406 74.4329 27.4653 74.2172 27.5689C74.0163 27.6668 73.8063 27.8751 73.7143 28.0675C73.6791 28.1427 73.6485 28.2201 73.6485 28.2406C73.6485 28.2611 73.7109 28.3351 73.7972 28.4136C73.9754 28.581 74.0276 28.6823 74.0276 28.8713C74.0276 28.9465 74.014 29.0296 73.9936 29.0786C73.9414 29.2106 73.7064 29.5112 73.5429 29.6547C73.2875 29.8801 73.2205 29.9598 73.1285 30.1476L73.04 30.3241L73.0343 30.6475L73.0264 30.9708L73.1637 31.0607C73.1794 31.0715 73.1976 31.0839 73.2174 31.0974C73.2511 31.1203 73.2894 31.1463 73.3277 31.1723L73.46 31.2623C73.6246 31.3784 73.9164 31.5127 74.1468 31.5799C74.2933 31.6232 74.5169 31.7587 74.6293 31.8714C74.727 31.967 74.8802 32.1913 74.9449 32.3291C75.0164 32.4759 75.1493 32.6 75.2957 32.6547C75.3536 32.6752 75.4399 32.7071 75.4853 32.7241C75.5318 32.7412 75.6056 32.7879 75.6499 32.83C75.7532 32.9245 75.8622 33.1408 75.8622 33.2456C75.8622 33.3378 75.8247 33.487 75.7793 33.5735L75.7475 33.6338L75.8543 33.7955C76.0382 34.0699 76.2346 34.219 76.4639 34.2566C76.6024 34.2794 76.6126 34.2828 76.6126 34.3295C76.6126 34.3705 76.5093 34.4422 76.3719 34.4968C76.2402 34.5492 75.9212 34.564 75.7771 34.5264C75.5148 34.4593 75.3423 34.3306 75.2946 34.1712C75.281 34.1314 75.2628 34.0961 75.2514 34.0927C75.2401 34.087 75.1765 34.0961 75.1084 34.1132C74.8359 34.1769 74.6634 34.1336 74.5124 33.9606C74.3773 33.8057 74.257 33.545 74.19 33.2649C74.1151 32.9484 74.0583 32.8813 73.7132 32.7082C73.6099 32.6558 73.4396 32.5556 73.3329 32.4839L73.1399 32.3541L73.2432 32.5556C73.2999 32.6684 73.3703 32.8243 73.4021 32.9052C73.4316 32.986 73.5088 33.1329 73.5724 33.2308C73.6882 33.4095 73.7359 33.5257 73.779 33.7374C73.8051 33.8672 73.8505 33.9185 74.1162 34.1245C74.3342 34.2942 74.4068 34.4137 74.4068 34.6027C74.4068 34.7359 74.3875 34.7906 74.2831 34.9625L74.2479 35.0228L74.4068 35.1617C74.5987 35.3268 74.7235 35.4065 74.9279 35.4896C75.1345 35.5728 75.1413 35.608 74.971 35.6855C74.9041 35.7151 74.7758 35.7549 74.6861 35.7697C74.4329 35.813 74.2626 35.7731 74.0276 35.6137C73.8846 35.5158 73.7711 35.3895 73.7427 35.2972C73.7367 35.2797 73.7309 35.2614 73.726 35.2455C73.7213 35.2303 73.7175 35.2172 73.715 35.209L73.7132 35.2027C73.7098 35.1879 73.6734 35.1891 73.5872 35.2061C73.1876 35.2893 72.8345 35.0308 72.6495 34.523C72.6143 34.4274 72.6086 34.3534 72.5972 33.9344C72.5836 33.4608 72.5825 33.4528 72.5223 33.2661C72.4882 33.1625 72.4451 33.0065 72.4269 32.9177C72.369 32.6524 72.3123 32.4475 72.2952 32.4475C72.2635 32.4475 72.2498 32.6342 72.2555 33.0611C72.2612 33.5519 72.2521 33.6464 72.1613 34.0004L72.1562 34.0207C72.0636 34.3878 72.0619 34.3945 72.0898 34.4638C72.1045 34.498 72.167 34.5856 72.2271 34.6596C72.3679 34.8247 72.3906 34.8794 72.3906 35.0433C72.3906 35.1492 72.3815 35.1925 72.3384 35.271C72.2839 35.3781 72.1465 35.4908 72.0478 35.5101L71.991 35.5215L72.0024 35.6707C72.0262 36.0202 72.2964 36.3128 72.7562 36.4859C72.8504 36.5212 72.8686 36.5371 72.8686 36.5724C72.8686 36.627 72.8197 36.6396 72.6018 36.6441C72.1023 36.6521 71.7855 36.4881 71.6005 36.1284C71.4688 35.8745 71.4518 35.7652 71.5006 35.4885C71.5097 35.4361 71.504 35.4282 71.3859 35.3678C71.1816 35.2619 70.9636 34.9989 70.799 34.6551L70.7104 34.4729V34.2657C70.7104 34.0095 70.7309 33.9458 70.9171 33.5997C71.0499 33.3537 71.311 32.731 71.3939 32.4611C71.4404 32.3109 71.4461 32.205 71.4075 32.205C71.3939 32.205 71.3496 32.2164 71.3099 32.2312C71.269 32.2448 71.1316 32.2608 71.0022 32.2687C70.7139 32.2858 70.396 32.2482 70.1803 32.1708L70.0316 32.1184L70.0202 32.6638C70.0055 33.3492 69.9657 33.7625 69.8477 34.4627C69.7421 35.0798 69.632 35.5329 69.4708 36.0054C69.4242 36.1443 69.3277 36.4323 69.2573 36.6453C68.952 37.5732 68.751 38.0502 68.4808 38.4931C68.2129 38.9371 67.8337 39.3948 67.2797 39.947C66.6474 40.5755 66.2353 40.933 65.6268 41.369C64.8651 41.9189 63.9046 42.3356 62.5219 42.7216C61.5592 42.9903 60.9803 43.0598 60.0459 43.021C59.123 42.9812 58.2284 42.8047 57.4701 42.5133C56.9036 42.2935 56.4495 42.0613 56.0033 41.7607C55.3676 41.3315 54.7126 40.6962 54.2619 40.0677C54.0598 39.7831 53.8452 39.4426 53.6818 39.1386C53.4149 38.6391 53.2445 38.2072 53.1124 37.6564C54.4099 36.6117 54.0674 34.7036 52.9052 33.0741C52.9264 32.8371 52.9521 32.5984 52.9824 32.3553C52.9972 32.2368 53.0222 32.0274 53.0369 31.8941C53.063 31.6607 53.0744 31.5366 53.1266 30.9059C53.1402 30.7511 53.1493 30.3241 53.1471 29.9177C53.1471 29.2097 53.1448 29.2027 53.0989 29.0603L53.0982 29.0581C53.0403 28.8736 52.9609 28.7518 52.8201 28.622C52.6192 28.4353 52.3546 28.3829 52.1106 28.4831C51.8858 28.5776 51.6962 28.7074 51.4987 28.9032C51.1876 29.2118 50.9731 29.5226 50.7562 29.978C50.6305 30.2414 50.5302 30.4756 50.3971 30.8375C50.1397 30.698 49.8748 30.5766 49.6048 30.4767L48.658 30.1263C49.5133 28.8391 50.0841 27.2413 50.0154 25.9206L49.947 24.6035L50.9022 23.6942ZM1.83276 33.8706C1.82708 33.8854 1.82935 33.8934 1.8407 33.8877C1.85205 33.882 1.86 33.8684 1.86 33.8581C1.86 33.8319 1.84524 33.8365 1.83276 33.8706ZM68.6681 37.8908C68.6715 37.9045 68.6908 37.8817 68.7079 37.8396C68.7487 37.7382 68.7431 37.7098 68.6988 37.7963C68.6784 37.8362 68.6636 37.8794 68.6681 37.8908ZM17.3164 12.7417C17.0432 13.0334 16.1319 12.4111 15.8096 12.1757C15.7132 12.1053 15.5705 11.9076 15.4146 11.6918L15.4146 11.6918C15.1644 11.3453 14.8803 10.9519 14.7 10.9633C14.7 10.9633 15.757 10.5011 16.4252 10.247C17.0934 9.99283 19.0248 8.47222 19.0248 8.47222C18.7818 9.50992 17.9432 12.0724 17.3164 12.7417ZM11.9047 12.3854C11.7436 12.6208 11.4736 12.8117 11.337 12.5201C11.12 12.0566 11.0677 11.2622 11.0157 10.4728C10.9926 10.1223 10.9695 9.77275 10.9322 9.45363C10.9322 9.45363 11.4422 10.6659 11.7763 10.9201C12.1104 11.1742 12.6021 11.2514 12.6021 11.2514C12.5013 11.2386 12.2679 11.6947 12.0915 12.0396L12.0915 12.0396C12.0118 12.1953 11.9438 12.3283 11.9047 12.3854ZM19.3539 25.6555C17.854 26.5643 16.5346 27.3638 15.5167 29.4C13.8835 32.6667 15.5166 38.3834 17.9666 38.3834C14.9493 36.0852 15.5177 32.6667 16.3341 30.2167C16.8117 28.7832 18.3072 27.694 19.9492 26.4981C22.2505 24.8219 24.8394 22.9363 25.3161 19.6C23.208 23.3201 21.1513 24.5664 19.3539 25.6555Z" fill="white"/>
</g>
<defs>
<clipPath id="clip0_15111_11672">
<rect width="49" height="49" fill="white"/>
</clipPath>
</defs>
</svg>
