<svg width="30" height="30" viewBox="0 0 30 30" fill="none" xmlns="http://www.w3.org/2000/svg">
<path d="M17.8965 3.62031C17.8965 4.24064 16.5997 3.62031 15 3.62031C13.4003 3.62031 12.1035 4.24064 12.1035 3.62031C12.1035 2.99998 13.4003 0.999512 15 0.999512C16.5997 0.999512 17.8965 2.99998 17.8965 3.62031Z" fill="#9747FF"/>
<path d="M25.0946 9.00121C24.656 9.43985 24.1777 8.08423 23.0465 6.95308C21.9154 5.82192 20.5597 5.34358 20.9984 4.90494C21.437 4.46631 23.7685 3.96874 24.8997 5.09989C26.0309 6.23105 25.5333 8.56257 25.0946 9.00121Z" fill="#9747FF"/>
<path d="M26.3792 17.8965C25.7589 17.8965 26.3792 16.5997 26.3792 15C26.3792 13.4003 25.7589 12.1035 26.3792 12.1035C26.9995 12.1035 29 13.4003 29 15C29 16.5997 26.9995 17.8965 26.3792 17.8965Z" fill="#9747FF"/>
<path d="M20.9978 25.0951C20.5592 24.6565 21.9148 24.1782 23.0459 23.047C24.1771 21.9158 24.6554 20.5602 25.0941 20.9989C25.5327 21.4375 26.0303 23.769 24.8991 24.9002C23.768 26.0313 21.4364 25.5338 20.9978 25.0951Z" fill="#9747FF"/>
<path d="M12.1035 26.3787C12.1035 25.7584 13.4003 26.3787 15 26.3787C16.5997 26.3787 17.8965 25.7584 17.8965 26.3787C17.8965 26.999 16.5997 28.9995 15 28.9995C13.4003 28.9995 12.1035 26.999 12.1035 26.3787Z" fill="#9747FF"/>
<path d="M4.90535 20.9983C5.34399 20.5597 5.82233 21.9153 6.95349 23.0464C8.08464 24.1776 9.44026 24.6559 9.00162 25.0946C8.56299 25.5332 6.23146 26.0308 5.1003 24.8996C3.96915 23.7685 4.46672 21.4369 4.90535 20.9983Z" fill="#9747FF"/>
<path d="M3.6208 12.1035C4.24112 12.1035 3.6208 13.4003 3.6208 15C3.6208 16.5997 4.24112 17.8965 3.6208 17.8965C3.00047 17.8965 1 16.5997 1 15C1 13.4003 3.00047 12.1035 3.6208 12.1035Z" fill="#9747FF"/>
<path d="M9.00219 4.90438C9.44082 5.34301 8.08521 5.82136 6.95405 6.95251C5.8229 8.08366 5.34456 9.43928 4.90592 9.00065C4.46728 8.56201 3.96972 6.23048 5.10087 5.09933C6.23202 3.96817 8.56355 4.46574 9.00219 4.90438Z" fill="#9747FF"/>
<path fill-rule="evenodd" clip-rule="evenodd" d="M10.0001 23.6599C14.783 26.4213 20.8989 24.7825 23.6604 19.9996C26.4218 15.2167 24.783 9.10078 20.0001 6.33936C15.2172 3.57793 9.10127 5.21668 6.33984 9.99961C3.57842 14.7825 5.21717 20.8984 10.0001 23.6599ZM16.6497 8.19605C17.7229 8.45741 18.0519 9.71349 17.4996 10.67L12.4995 19.3305C11.9472 20.2871 10.6949 20.6302 9.93201 19.8315C9.14757 19.0103 8.55227 17.9861 8.23761 16.8117C7.23702 13.0775 9.45309 9.23912 13.1874 8.23853C14.3617 7.92387 15.5463 7.92731 16.6497 8.19605Z" fill="white"/>
</svg>
