<svg width="49" height="49" viewBox="0 0 49 49" fill="none" xmlns="http://www.w3.org/2000/svg">
<g id="tag">
<path id="Subtract" fill-rule="evenodd" clip-rule="evenodd" d="M39.1645 27.8245C39.1109 24.475 38.2523 21.1402 37.2701 17.9404C36.9582 16.9258 36.3269 15.7142 35.1307 15.8025C33.9825 15.8874 33.3583 17.1168 33.1562 18.1396C32.7674 20.1089 32.9175 22.0747 33.068 24.0448C30.414 26.1333 28.9831 25.3536 28.0948 21.0333C27.3861 17.5959 26.7735 14.1378 26.2547 10.6612C25.7378 7.19531 24.6403 2.68586 24.0276 1.59006C23.4862 0.62178 22.9598 0.310986 22.5658 0.176048C21.8593 -0.0643197 20.9618 0.270358 20.6251 0.915384C20.3432 1.45757 20.3616 2.06588 20.3857 2.64587C20.6067 7.97603 20.8276 13.3062 21.0489 18.6375C21.0701 19.1475 20.2552 19.3302 20.0869 18.8527C20.0059 18.6243 19.9525 18.3825 19.9134 18.1539C19.0448 13.0616 17.9568 9.17836 16.1776 4.27153C16.1387 4.16423 16.0983 4.02549 16.0525 3.86819L16.0525 3.86805C15.7935 2.97822 15.3618 1.49461 14.0425 1.74742C12.5421 2.03517 12.6736 4.03605 12.7751 5.57983L12.7751 5.58003C12.7907 5.81711 12.8056 6.04341 12.8137 6.25107C13.0251 11.7272 14.02 17.1289 15.7642 22.2858C15.0336 21.1404 14.4837 19.1789 13.9727 17.3558C13.8275 16.8378 13.6854 16.331 13.5432 15.8573C12.2551 11.5708 10.8703 7.37228 10.0683 5.71295C9.54339 4.62568 8.54395 4.50169 8.01757 4.57699C7.31561 4.67701 6.96954 5.27303 6.95172 5.90386C6.83843 9.85916 7.95351 15.3785 9.23476 20.0987C9.39744 20.697 9.59772 21.2887 9.79787 21.88C10.2904 23.3352 10.7822 24.788 10.7108 26.3303C10.2668 25.4168 9.79502 24.4766 9.30323 23.4965C8.46458 21.825 7.56772 20.0376 6.65135 18.0691C5.85624 16.3621 4.27053 13.0277 2.78464 12.6566C1.5974 12.3598 0.611045 13.0546 0.853615 14.7108C1.20186 17.0867 2.17309 19.292 3.14409 21.4968C3.47722 22.2532 3.81032 23.0095 4.11823 23.7727C5.18401 26.4137 5.86883 29.0916 6.54113 31.7205C7.84127 36.8045 9.09455 41.7053 12.9657 45.8013C13.5286 46.3971 14.1367 46.9575 14.7632 47.5023C17.7523 49.8172 20.5866 49.0486 23.862 47.5969C19.7081 46.0063 16.4975 43.4639 14.998 42.1465C14.1947 41.4413 13.8927 40.3974 14.092 39.4375L12.1456 37.4879L12.1435 37.4857C11.1966 36.5301 11.1966 34.9877 12.1435 34.0321C13.099 33.0678 14.6543 33.0678 15.6099 34.032L17.4813 35.92C17.6936 35.7681 17.9143 35.614 18.1432 35.4588L16.7871 33.0872L16.786 33.0854C16.1185 31.9207 16.5098 30.4274 17.6783 29.7473C18.8533 29.0616 20.3561 29.4729 21.0248 30.6491L22.3981 33.0506C22.5344 32.9884 22.6717 32.9271 22.8098 32.8667L22.8119 32.8658C22.9112 32.8225 23.0111 32.7798 23.1117 32.7375L22.3963 30.045L22.3955 30.0418C22.0595 28.7562 22.809 27.4091 24.12 27.0528L24.1224 27.0522L24.1247 27.0515C24.7136 26.8934 25.3142 26.9648 25.8251 27.2145C26.4333 27.5107 26.9297 28.0657 27.1211 28.7879L27.7944 31.3272C27.9695 31.2959 28.1456 31.2667 28.3229 31.24L28.3238 31.2399C28.415 31.2262 28.5065 31.2131 28.5984 31.2006V28.5831C28.5984 27.7417 29.0735 26.1333 31.0335 26.1333C32.9936 26.1333 33.4687 27.7417 33.4687 28.5831V31.2006C33.5606 31.2131 33.6521 31.2262 33.7433 31.2399L33.7442 31.24C33.9215 31.2667 34.0976 31.2959 34.2727 31.3272L34.946 28.7879C35.1374 28.0657 35.6338 27.5107 36.242 27.2145C36.7529 26.9648 37.3535 26.8934 37.9424 27.0515L37.9447 27.0522L37.9471 27.0528C38.4425 27.1875 38.8578 27.4636 39.1645 27.8245ZM25.7126 19.2095C22.1079 23.9196 15.569 26.6861 9.70874 28.7693C16.2807 28.3678 24.5279 24.8962 25.7126 19.2095Z" fill="white"/>
<path id="Union" fill-rule="evenodd" clip-rule="evenodd" d="M31.0315 27.7667C30.864 27.7667 30.7092 27.8173 30.5797 27.9046C30.3649 28.0514 30.2227 28.3006 30.2227 28.5833V32.6874C29.6603 32.7157 29.1042 32.7731 28.5576 32.8553C27.8941 32.9554 27.2433 33.0929 26.6082 33.26L25.534 29.2066C25.4708 28.9677 25.3065 28.7823 25.1011 28.6826C24.9337 28.6005 24.7378 28.5766 24.5419 28.6292C24.1122 28.746 23.8563 29.1938 23.97 29.6293L25.0601 33.7342C24.5103 33.9264 23.9764 34.1377 23.4582 34.3634C23.098 34.5209 22.7442 34.6852 22.3998 34.8547L21.7363 35.1944L19.6005 31.4576C19.3793 31.0668 18.8833 30.9328 18.4978 31.1585C18.1092 31.3842 17.9765 31.8835 18.2008 32.2743L20.3272 35.9947C19.1487 36.7089 18.1345 37.4407 17.3193 38.0807L14.4473 35.1817C14.1314 34.8626 13.6196 34.8626 13.3036 35.1817C12.9877 35.5007 12.9877 36.0175 13.3036 36.3365L16.0745 39.1135C15.5279 39.5932 15.5279 40.4401 16.0745 40.9199C18.3082 42.8834 24.1628 47.3667 31.0315 47.3667C37.9002 47.3667 43.7548 42.8834 45.9885 40.9199C46.0991 40.8234 46.1876 40.7121 46.2539 40.5921C46.513 40.1148 46.4245 39.4967 45.9885 39.1135L48.7626 36.3365C48.9458 36.1507 49.0248 35.897 48.9932 35.6546C48.9711 35.4815 48.8953 35.3144 48.7626 35.1817C48.4466 34.8626 47.9348 34.8626 47.6188 35.1817L44.7468 38.0823C44.3645 37.7828 43.9412 37.463 43.4736 37.1344C42.9428 36.7608 42.3614 36.3756 41.7359 35.9955L43.8653 32.2739C44.0897 31.8831 43.957 31.3838 43.5715 31.1581C43.1829 30.9324 42.69 31.0664 42.4657 31.4572L40.3267 35.1952C39.303 34.6537 38.1909 34.1489 37.0061 33.7349L38.093 29.6293C38.2099 29.1938 37.9539 28.746 37.5211 28.6292C37.0914 28.5123 36.6459 28.7711 36.5322 29.2066L35.4548 33.2604C35.1989 33.193 34.9398 33.13 34.6776 33.073L34.131 32.9613C33.3853 32.8218 32.6207 32.7269 31.8403 32.6874V28.5833C31.8403 28.5187 31.8309 28.4561 31.8182 28.3963L31.7993 28.3245C31.7487 28.173 31.6539 28.041 31.5339 27.9437C31.3948 27.8329 31.2211 27.7667 31.0315 27.7667ZM31.0315 34.3C30.8167 34.3 30.605 34.3124 30.3964 34.3359C30.1405 34.365 29.8878 34.4109 29.6445 34.4727C30.9209 34.9101 31.8403 36.1299 31.8403 37.5667C31.8403 39.3707 30.3933 40.8333 28.605 40.8333C27.1832 40.8333 25.9732 39.9058 25.5403 38.617L25.4961 38.8104L25.4518 39.0453C25.3981 39.3611 25.3697 39.6857 25.3697 40.0167C25.3697 43.1741 27.9036 45.7333 31.0315 45.7333C34.1594 45.7333 36.6933 43.1741 36.6933 40.0167C36.6933 36.8593 34.1594 34.3 31.0315 34.3Z" fill="#9747FF"/>
</g>
</svg>
