<svg xmlns="http://www.w3.org/2000/svg" width="30" height="30" viewBox="0 0 30 30" fill="none">
  <path d="M5 3.75H21.25L25.8838 8.38375C26.1182 8.61812 26.2499 8.93601 26.25 9.2675V25C26.25 25.3315 26.1183 25.6495 25.8839 25.8839C25.6495 26.1183 25.3315 26.25 25 26.25H5C4.66848 26.25 4.35054 26.1183 4.11612 25.8839C3.8817 25.6495 3.75 25.3315 3.75 25V5C3.75 4.66848 3.8817 4.35054 4.11612 4.11612C4.35054 3.8817 4.66848 3.75 5 3.75ZM15 22.5C15.9946 22.5 16.9484 22.1049 17.6517 21.4017C18.3549 20.6984 18.75 19.7446 18.75 18.75C18.75 17.7554 18.3549 16.8016 17.6517 16.0983C16.9484 15.3951 15.9946 15 15 15C14.0054 15 13.0516 15.3951 12.3483 16.0983C11.6451 16.8016 11.25 17.7554 11.25 18.75C11.25 19.7446 11.6451 20.6984 12.3483 21.4017C13.0516 22.1049 14.0054 22.5 15 22.5ZM6.25 6.25V11.25H18.75V6.25H6.25Z" fill="#FFDA8B"/>
</svg>