<svg width="121" height="121" viewBox="0 0 121 121" fill="none" xmlns="http://www.w3.org/2000/svg">
<path d="M106.454 44.5204C105.236 44.8348 103.469 45.0928 101.242 45.3105C99.0396 45.5282 96.3772 45.7056 93.4325 46.1248C90.5039 46.5521 87.2687 47.2777 84.0659 48.6806C82.5411 49.3336 81.1292 50.1237 79.8222 50.9864C79.8303 51.0025 79.8303 51.0267 79.8384 51.0428C80.0159 51.2847 80.1853 51.5508 80.3386 51.833C81.6213 51.0187 83.0009 50.2608 84.4934 49.6158C87.5592 48.2936 90.7056 47.5196 93.5777 46.9875C96.4579 46.4554 99.1041 46.149 101.307 45.8104C103.533 45.4637 105.316 45.0686 106.502 44.6897C107.712 44.3027 108.326 43.9721 108.326 43.9802C108.309 43.9721 107.664 44.2301 106.454 44.5204Z" fill="white"/>
<path d="M75.4898 44.9557C76.3692 43.698 77.3696 42.4564 78.5152 41.2874C80.8388 38.8687 83.4204 36.9579 85.8891 35.3696C88.3337 33.7894 90.6653 32.4994 92.5854 31.3304C94.5055 30.1694 95.9819 29.1293 96.9339 28.2989C97.894 27.4846 98.3377 26.9364 98.3457 26.9444C98.3377 26.9364 97.8536 27.4362 96.8371 28.1699C95.8367 28.9197 94.2877 29.8469 92.3191 30.8789C90.3667 31.9189 87.9787 33.096 85.4293 34.6198C82.896 36.1436 80.1611 38.0705 77.7488 40.5618C76.579 41.7631 75.5786 43.045 74.6911 44.343C74.7315 44.3753 74.7718 44.3995 74.8121 44.4317C75.0461 44.5929 75.272 44.7703 75.4898 44.9557Z" fill="white"/>
<path d="M39.0963 65.4422C38.4428 65.4745 37.7893 65.5148 37.1358 65.5309C37.7086 65.0552 38.2734 64.5796 38.8381 64.0958C38.7736 63.6685 38.7171 63.2331 38.6767 62.8058C38.6606 62.822 38.6445 62.83 38.6364 62.8462C36.3371 63.3541 34.1588 63.5476 32.1903 63.5395C29.8022 63.5476 27.7369 63.2654 26.083 62.9429C22.751 62.2737 21.0003 61.4917 20.9842 61.5159C21.0003 61.4997 22.63 62.3947 25.9217 63.2735C27.5594 63.7088 29.6328 64.1039 32.0854 64.2329C33.6667 64.3135 35.4174 64.2651 37.2891 64.0233C36.6759 64.5554 36.0547 65.0633 35.4254 65.5712C33.6667 65.5793 31.916 65.5148 30.1653 65.3213C26.793 64.9504 23.4771 64.12 20.3872 62.6849L20.3791 62.6768L20.363 62.6688C18.6849 62.0722 17.0471 61.2901 15.4094 60.5403C13.7474 59.7905 12.0935 59.0165 10.3348 58.4925C8.59214 57.9604 6.71236 57.6621 4.88099 57.9362C3.05768 58.2022 1.37958 59.081 0 60.2501C1.44413 59.1617 3.14642 58.3957 4.92133 58.2022C6.7043 58.0168 8.48726 58.3796 10.1815 58.9682C11.8757 59.5567 13.4973 60.3226 15.1189 61.1208C16.7486 61.9351 18.3622 62.7575 20.0806 63.4186L20.0403 63.4025C21.6054 64.1764 23.2512 64.7973 24.9212 65.281C26.6074 65.7647 28.3258 66.0792 30.0604 66.2888C31.4077 66.442 32.7631 66.5307 34.1104 66.5548C33.1342 67.2966 32.1499 68.0061 31.1253 68.6672C28.2774 70.4732 25.1875 71.9244 21.8958 72.6339L21.8636 72.6419H21.8555C20.1774 73.1821 18.4106 73.5207 16.6599 73.9158C14.9092 74.3028 13.1262 74.722 11.4643 75.4718C9.79424 76.2055 8.25331 77.2939 7.09155 78.6726C5.91366 80.0512 5.09882 81.696 4.51794 83.3971C5.18756 81.7363 6.09115 80.1561 7.29324 78.858C8.49534 77.5438 10.0121 76.5764 11.6579 75.9394C13.2956 75.2945 15.0383 74.9075 16.8051 74.5769C18.5477 74.2222 20.3307 73.9319 22.0733 73.424C23.7756 73.1015 25.4457 72.5855 27.0431 71.9405C28.6566 71.2713 30.1814 70.4409 31.6497 69.5218C33.0939 68.6269 34.4735 67.6271 35.8046 66.5952C36.9987 66.5952 38.1766 66.5548 39.3625 66.4984C39.2657 66.1598 39.177 65.805 39.0963 65.4422Z" fill="white"/>
<path d="M39.0075 56.9445C38.3298 56.7026 37.6602 56.4688 36.9906 56.2108C37.7974 55.969 38.5961 55.711 39.3948 55.453C39.5561 54.9853 39.7578 54.558 39.9918 54.1711C39.9999 54.1469 40.0079 54.1227 40.0079 54.1066C39.8143 54.1711 39.6207 54.2355 39.4351 54.3081C37.1036 53.8969 34.9979 53.26 33.1907 52.5021C30.9882 51.575 29.181 50.551 27.7692 49.6078C24.9535 47.7131 23.6304 46.3183 23.6143 46.3425C23.6385 46.3183 24.8002 47.7776 27.5029 49.8496C28.8583 50.8735 30.609 52.0265 32.8276 53.0907C34.2556 53.7679 35.9015 54.3968 37.7167 54.8886C36.9503 55.1385 36.1838 55.3804 35.4093 55.6062C33.7877 54.945 32.1903 54.2114 30.6494 53.3809C27.6724 51.7362 24.9213 49.6884 22.6139 47.1971L22.6058 47.189L22.5897 47.181C21.2746 45.9797 20.0645 44.6413 18.8382 43.303C17.5958 41.9807 16.3533 40.6343 14.9415 39.4733C13.5215 38.3204 11.908 37.3288 10.1089 36.8934C8.32592 36.4258 6.42193 36.6032 4.71156 37.1595C6.4542 36.6999 8.31785 36.6515 10.0363 37.1595C11.7547 37.6593 13.2795 38.6832 14.6026 39.8684C15.9338 41.0616 17.144 42.4 18.3299 43.7625C19.5239 45.1251 20.718 46.5037 22.0411 47.7776L22.0169 47.7453C23.1625 49.0595 24.4372 50.2689 25.8087 51.3573C27.1802 52.4538 28.6486 53.4051 30.1814 54.2517C31.3593 54.9128 32.5614 55.5094 33.7958 56.0496C32.6179 56.3559 31.44 56.6381 30.246 56.8558C26.9221 57.4282 23.5094 57.5895 20.2016 56.9929L20.1694 56.9848L20.1613 56.9768C18.4025 56.8397 16.6438 56.4769 14.8769 56.1705C13.1101 55.8561 11.2948 55.5658 9.4796 55.6223C7.66436 55.6545 5.82492 56.0738 4.21137 56.9042C2.58975 57.7346 1.21017 58.9359 0.0242092 60.2823C1.28278 59.0085 2.71884 57.8959 4.32432 57.1541C5.94593 56.4043 7.72083 56.0818 9.4796 56.1221C11.2384 56.1625 13.0052 56.4688 14.7559 56.8316C16.4985 57.1783 18.2492 57.5895 20.0645 57.791C21.7587 58.1458 23.5013 58.307 25.2278 58.3151C26.9785 58.307 28.705 58.1297 30.4154 57.8475C32.0854 57.5653 33.7393 57.1783 35.3609 56.7268C36.5146 57.2025 37.6764 57.6379 38.8381 58.0571C38.8704 57.6701 38.9349 57.3073 39.0075 56.9445Z" fill="white"/>
<path d="M78.8702 42.3516C78.2894 42.9805 77.6843 43.6819 77.1115 44.4801C76.8291 44.859 76.5709 45.2621 76.3208 45.6894C76.5548 45.9152 76.7888 46.1409 77.0146 46.3828C77.2405 45.8991 77.5068 45.4314 77.7811 44.988C78.2894 44.206 78.8218 43.4965 79.3382 42.8354C80.4031 41.5373 81.3793 40.4731 82.2022 39.6104C83.8561 37.8851 84.8323 36.966 84.8242 36.9579C84.8323 36.966 83.7996 37.7399 82.0005 39.3121C81.1211 40.1103 80.0481 41.0939 78.8702 42.3516Z" fill="white"/>
<path d="M99.6931 27.5088C98.4184 28.7343 96.9662 29.7582 95.4736 30.7338C93.9892 31.7174 92.4724 32.6768 91.0445 33.8136L91.0606 33.7894C89.6084 34.7407 88.245 35.8534 87.0267 37.0869C85.8085 38.3204 84.7032 39.6749 83.6947 41.0858C82.7105 42.4645 81.8311 43.8996 81.0001 45.3589C79.8222 45.8507 78.6605 46.3828 77.5068 46.9149C77.7488 47.1971 77.9828 47.4874 78.2006 47.7857C78.8541 47.4712 79.5076 47.1568 80.1772 46.8665C79.7738 47.6002 79.4027 48.3339 79.0316 49.0837C79.2575 49.4868 79.4511 49.9061 79.6044 50.3253C79.6689 50.1963 79.7335 50.0673 79.798 49.9464C81.7182 48.5919 83.6705 47.576 85.5019 46.8262C87.6963 45.9071 89.7052 45.3831 91.3672 45.0283C94.7153 44.3914 96.6354 44.4237 96.6193 44.4075C96.6273 44.4317 94.7717 44.2544 91.4075 44.6817C89.7133 44.9155 87.656 45.3347 85.3486 46.1409C83.8561 46.6811 82.2426 47.3906 80.6129 48.3258C80.9759 47.6083 81.3551 46.8988 81.7343 46.1974C83.3559 45.5121 85.0098 44.8993 86.6959 44.3995C89.9553 43.4481 93.3196 42.9644 96.7242 43.0934H96.7645C98.5475 43.0127 100.363 43.1014 102.186 43.174C103.977 43.2465 105.816 43.3111 107.648 43.1337C109.455 42.9402 111.294 42.5129 112.892 41.5535C114.481 40.6182 115.683 39.1509 116.506 37.5384C115.603 39.1025 114.344 40.4731 112.739 41.3197C111.182 42.1823 109.391 42.5129 107.608 42.6257C105.816 42.7225 104.001 42.6257 102.21 42.5129C100.403 42.3919 98.5959 42.2549 96.7484 42.2871L96.7806 42.271C95.0299 42.1743 93.2792 42.2065 91.5447 42.4C89.802 42.6016 88.0997 42.9724 86.4216 43.4562C85.1147 43.819 83.84 44.2543 82.5814 44.7381C83.1945 43.6819 83.84 42.6499 84.5257 41.6583C86.47 38.9009 88.7694 36.3774 91.5527 34.4666L91.5689 34.4424L91.5769 34.4344C92.9162 33.2976 94.4087 32.3059 95.8851 31.282C97.3534 30.25 98.854 29.1777 100.096 27.8555C101.355 26.5333 102.355 24.9611 102.904 23.2116C103.493 21.4862 103.606 19.6561 103.485 17.8743C103.493 19.6561 103.259 21.4701 102.646 23.1309C102.009 24.816 100.976 26.2914 99.6931 27.5088Z" fill="white"/>
<path d="M15.0141 36.9095C16.6357 37.619 18.1443 38.5784 19.6127 39.5782C21.0971 40.5779 22.5816 41.626 24.179 42.5129L24.1387 42.4887C25.5828 43.4642 27.1237 44.2866 28.7373 44.9558C30.3428 45.6169 32.0128 46.1087 33.7151 46.5037C35.369 46.8827 37.0309 47.1568 38.709 47.3583C39.7013 48.35 40.726 49.3014 41.7506 50.2366C41.9361 49.9141 42.1297 49.5997 42.3314 49.2933C41.686 48.7209 41.0487 48.1404 40.4194 47.5518C41.3472 47.6486 42.283 47.7211 43.2108 47.7856L42.993 48.3419C43.3883 47.8018 43.8078 47.2697 44.2596 46.7698L44.0176 46.7537C43.8078 46.7375 43.5981 46.7214 43.3883 46.7053C41.3956 45.4395 39.7094 44.0367 38.3218 42.6419C36.6356 40.9488 35.369 39.3121 34.425 37.8931C32.5453 35.0632 31.8676 33.2734 31.8353 33.2895C31.8676 33.2734 32.3839 35.0632 34.0862 38.0141C34.9495 39.4814 36.1273 41.2148 37.7651 43.0369C38.83 44.214 40.1047 45.4234 41.5892 46.5763C40.7905 46.5199 39.9837 46.4392 39.185 46.3505C37.9345 45.117 36.7405 43.8351 35.6433 42.4725C33.5215 39.82 31.7708 36.8773 30.5848 33.6926L30.5687 33.6604C29.8103 32.0479 29.2052 30.3468 28.5759 28.6456C27.9466 26.9525 27.3093 25.2271 26.4461 23.6147C25.5747 22.0103 24.4695 20.4784 22.9769 19.3819C21.5086 18.2613 19.6853 17.6969 17.8862 17.5598C19.6772 17.8017 21.4199 18.4628 22.8075 19.5835C24.2032 20.7042 25.2117 22.236 25.9862 23.8324C26.7526 25.4448 27.3658 27.146 27.9386 28.8552C28.5114 30.5644 29.0923 32.2817 29.8184 33.9587C30.3831 35.6034 31.085 37.2078 31.9402 38.7316C32.7873 40.2715 33.7716 41.7147 34.8607 43.0772C35.6998 44.1415 36.6033 45.1412 37.5392 46.1248C36.321 45.9555 35.1108 45.762 33.9168 45.504C30.6251 44.7784 27.4222 43.6174 24.5905 41.7873L24.5501 41.7792C22.9931 40.9729 21.5005 39.9732 19.9838 39.0138C18.459 38.0463 16.91 37.0788 15.2077 36.4338C13.4973 35.7808 11.666 35.4583 9.83458 35.6115C8.03547 35.7485 6.28477 36.3371 4.68735 37.1272C6.33317 36.4338 8.08387 35.942 9.85878 35.8775C11.6417 35.813 13.4005 36.2 15.0141 36.9095Z" fill="white"/>
<path d="M84.082 15.0282C83.372 16.6488 82.4281 18.1484 81.4116 19.6238C80.4193 21.1073 79.3785 22.5666 78.4991 24.1629L78.5072 24.1387C77.531 25.5738 76.7 27.1218 76.0465 28.7262C75.3931 30.3306 74.8929 31.9915 74.5056 33.7007C74.1264 35.3535 73.8521 37.0143 73.6423 38.6994C72.6177 39.7233 71.6335 40.7875 70.6734 41.8517C71.0042 42.021 71.3188 42.2065 71.6416 42.3839C72.2386 41.7147 72.8437 41.0616 73.4487 40.4086C73.36 41.3357 73.2874 42.271 73.2148 43.2062L72.6742 42.9885C73.2228 43.3272 73.7472 43.6738 74.2474 44.0286V44.0044C74.2636 43.8028 74.2716 43.5932 74.2797 43.3836C75.5705 41.3841 76.9743 39.691 78.3539 38.3124C80.032 36.6354 81.694 35.3615 83.1058 34.4182C85.9215 32.5397 87.7367 31.8544 87.7206 31.8222C87.7367 31.8544 85.9457 32.3704 82.9929 34.0635C81.5165 34.9342 79.7738 36.1033 77.9425 37.748C76.7565 38.8122 75.5544 40.0942 74.3927 41.5857C74.4572 40.7875 74.5298 39.9813 74.6186 39.1831C75.861 37.9254 77.1518 36.7241 78.5153 35.6276C81.1696 33.5153 84.1062 31.7657 87.293 30.5805L87.3252 30.5725C88.9388 29.8227 90.6572 29.2019 92.3434 28.5811C94.0537 27.9442 95.7722 27.3072 97.3857 26.4446C98.9912 25.5738 100.54 24.4612 101.621 22.9697C102.751 21.4943 103.299 19.6802 103.445 17.8904C103.186 19.6802 102.533 21.4136 101.395 22.8084C100.282 24.2032 98.7492 25.211 97.1518 25.985C95.5382 26.7509 93.8359 27.3637 92.1255 27.9361C90.3991 28.5246 88.6806 29.089 87.0025 29.8227L87.0187 29.8146C85.3648 30.3709 83.7512 31.0804 82.2264 31.935C80.7016 32.7735 79.2575 33.7652 77.886 34.8536C76.813 35.6921 75.8045 36.6031 74.8283 37.5384C74.9897 36.321 75.1833 35.1197 75.4415 33.9184C76.1756 30.6289 77.3374 27.4201 79.1768 24.5902L79.193 24.558V24.5499C79.9917 22.9858 80.984 21.5023 81.9521 19.9866C82.9203 18.4709 83.8884 16.9148 84.5338 15.2137C85.1873 13.5125 85.51 11.6743 85.3567 9.85221C85.2357 8.03818 84.6387 6.31283 83.8319 4.70036C84.5257 6.34508 85.0017 8.10267 85.0824 9.88445C85.1792 11.6582 84.792 13.4158 84.082 15.0282Z" fill="white"/>
<path d="M70.5201 36.716C70.2378 37.5223 69.9393 38.3849 69.7134 39.3524C69.5762 39.949 69.4471 40.5698 69.3907 41.2309C69.7134 41.3761 70.0361 41.5373 70.3588 41.6986C70.3426 40.9729 70.4153 40.2473 70.5363 39.562C70.7057 38.651 70.9316 37.7802 71.1575 36.9821C71.6496 35.3696 72.1498 34.0151 72.5774 32.9025C73.4487 30.6773 73.9973 29.4599 73.9893 29.4599C73.9973 29.4679 73.3358 30.5725 72.2708 32.709C71.7464 33.7732 71.1252 35.0955 70.5201 36.716Z" fill="white"/>
<path d="M45.0099 11.6824C45.6634 13.311 46.0507 15.0524 46.3976 16.81C46.7284 18.5676 47.0188 20.3575 47.5351 22.107L47.519 22.0748C47.8336 23.792 48.3661 25.4529 49.0196 27.0573C49.6973 28.6698 50.5202 30.2016 51.4319 31.6609C52.3354 33.1041 53.3197 34.4747 54.3685 35.805C54.3766 37.2481 54.425 38.6832 54.4976 40.1183C54.8526 40.0055 55.2076 39.9087 55.5706 39.82C55.5222 38.9332 55.4819 38.0383 55.4577 37.1514C56.0466 37.8689 56.6517 38.5865 57.2648 39.2879L56.5307 39.6023C57.2487 39.4572 57.9748 39.3524 58.7009 39.2799L58.5718 39.1347C58.4347 38.9735 58.2975 38.8203 58.1603 38.6671C57.644 36.3613 57.4423 34.1683 57.4504 32.2011C57.4343 29.8146 57.7166 27.7587 58.0313 26.1059C58.717 22.7681 59.4996 21.0186 59.4673 21.0105C59.4996 21.0267 58.6041 22.6472 57.7166 25.9366C57.281 27.5814 56.8856 29.6453 56.7485 32.0963C56.6759 33.6765 56.7162 35.4341 56.9502 37.2965C56.4258 36.6838 55.9175 36.063 55.4093 35.4341C55.4012 33.6765 55.4657 31.927 55.6513 30.1774C56.0224 26.8074 56.8534 23.4937 58.2733 20.4059L58.2894 20.3897L58.2975 20.3736C58.9026 18.6966 59.6852 17.06 60.4516 15.4152C61.1938 13.7625 61.9603 12.1097 62.5008 10.344C63.0252 8.60255 63.3156 6.73208 63.0413 4.90193C62.7993 3.07177 61.8957 1.39479 60.7098 0.0322492C61.815 1.46735 62.5895 3.16045 62.759 4.9503C62.9607 6.72402 62.5815 8.5058 62.0006 10.1989C61.4117 11.892 60.6291 13.5206 59.8384 15.1331C59.0317 16.7617 58.2088 18.3741 57.5391 20.0914V20.0592C56.7646 21.6233 56.1353 23.268 55.6513 24.945C55.1753 26.63 54.8607 28.3473 54.667 30.0726C54.4976 31.4271 54.4169 32.7655 54.3847 34.1119C53.6505 33.1444 52.9325 32.1608 52.279 31.1369C50.4718 28.2989 49.0196 25.203 48.3177 21.9216L48.3096 21.8893V21.8813C47.7691 20.1962 47.4141 18.4467 47.043 16.681C46.6558 14.9315 46.2282 13.1497 45.4779 11.4889C44.7518 9.81997 43.6626 8.28005 42.275 7.12713C40.9035 5.9339 39.2496 5.12767 37.5473 4.55524C39.2173 5.21635 40.7986 6.11128 42.0975 7.32064C43.4045 8.52193 44.3887 10.0296 45.0099 11.6824Z" fill="white"/>
<path d="M27.5029 21.3088C28.7292 22.5827 29.7458 24.042 30.73 25.5254C31.7062 27.0089 32.6663 28.5327 33.7958 29.9436C34.7558 31.4029 35.8611 32.7493 37.0955 33.9829C38.3299 35.2083 39.6852 36.3048 41.0971 37.3126C42.4767 38.2962 43.9127 39.175 45.373 40.0055C45.9377 41.3519 46.5509 42.6822 47.1721 43.9963C47.4706 43.7625 47.7772 43.5287 48.0838 43.303L48.0596 43.311C47.6562 42.4887 47.2689 41.6582 46.8978 40.8198C47.7288 41.2632 48.5597 41.6905 49.3988 42.1178L48.6001 42.9402C49.3181 42.4564 50.0603 42.013 50.8268 41.6099L50.5363 41.4728C50.3427 41.3761 50.1572 41.2874 49.9635 41.1906C48.6082 39.2557 47.5916 37.3126 46.8413 35.4986C45.9216 33.2976 45.3891 31.29 45.0503 29.6373C44.4049 26.2914 44.4533 24.3806 44.421 24.3806C44.4613 24.3806 44.2516 26.2269 44.7034 29.605C44.9293 31.282 45.3488 33.3459 46.1636 35.6598C46.7042 37.1514 47.4061 38.7558 48.3419 40.3844C47.6239 40.0216 46.9139 39.6507 46.212 39.2637C45.5263 37.6432 44.9212 35.9985 44.421 34.3134C43.4771 31.0562 42.9688 27.6781 43.106 24.2838L43.114 24.2597V24.2435C43.0333 22.4617 43.1221 20.6477 43.2028 18.8417C43.2592 17.0358 43.3319 15.2137 43.1544 13.3755C42.9607 11.5614 42.517 9.72321 41.5731 8.13492C40.6372 6.53857 39.1689 5.33728 37.5554 4.52298C39.1205 5.43403 40.492 6.69982 41.323 8.28811C42.1943 9.84414 42.5251 11.642 42.638 13.4238C42.7429 15.2137 42.638 17.0116 42.5331 18.8095C42.4041 20.6155 42.2669 22.4214 42.3072 24.2677L42.2911 24.2355C42.1782 25.9769 42.2185 27.7345 42.4202 29.4679C42.6219 31.2094 42.993 32.9106 43.469 34.5795C43.8321 35.8856 44.2677 37.1675 44.7518 38.4172C43.703 37.8044 42.6703 37.1756 41.678 36.4741C38.9188 34.5472 36.3936 32.2495 34.4896 29.476L34.4573 29.4438C33.3198 28.1054 32.3275 26.6139 31.2948 25.1384C30.2621 23.6711 29.1972 22.1796 27.866 20.9299C26.551 19.6722 24.9697 18.6724 23.2271 18.1161C21.5086 17.5518 19.6692 17.4308 17.8781 17.5518C19.6692 17.5356 21.4764 17.7533 23.1383 18.3741C24.8083 19.003 26.2847 20.035 27.5029 21.3088Z" fill="white"/>
<path d="M64.8889 9.46521C64.8647 11.2228 64.5581 12.9804 64.2031 14.7299C63.84 16.4795 63.4124 18.2451 63.2269 20.0592V20.0189C62.8638 21.7281 62.7106 23.4695 62.7025 25.203C62.7106 26.9444 62.8881 28.6778 63.1704 30.379C63.4609 32.056 63.8481 33.7007 64.2999 35.3212C63.7594 36.6435 63.2672 37.9737 62.7912 39.296C62.9284 39.3121 63.0655 39.3202 63.2027 39.3363C63.4286 39.3685 63.6545 39.4169 63.8804 39.4572C64.1708 38.6187 64.4774 37.7883 64.784 36.9579C65.0583 37.8528 65.3326 38.7477 65.6391 39.6346L64.8727 39.6507C65.5827 39.82 66.2926 40.0296 67.0026 40.2715L66.8977 39.9974C66.8332 39.8039 66.7686 39.6104 66.7122 39.425C67.1236 37.0788 67.769 34.9665 68.5113 33.1605C69.431 30.9675 70.4717 29.1535 71.4157 27.7426C73.2954 24.9369 74.7154 23.5985 74.6831 23.5824C74.7154 23.5985 73.247 24.7676 71.1736 27.4604C70.1409 28.823 68.9792 30.5725 67.9223 32.7896C67.2446 34.2247 66.6073 35.8614 66.1232 37.6754C65.8731 36.9095 65.6391 36.1355 65.4133 35.3615C66.0748 33.7329 66.809 32.1366 67.648 30.6047C69.2777 27.6378 71.3269 24.8966 73.8118 22.5827L73.836 22.5585C75.0461 21.2443 76.3935 20.0188 77.7085 18.8014C79.0397 17.5598 80.395 16.3182 81.5487 14.9073C82.6944 13.4964 83.7109 11.8678 84.1304 10.078C84.6064 8.28811 84.4289 6.40152 83.8642 4.68423C84.324 6.43377 84.3805 8.28811 83.8642 10.0135C83.3801 11.7227 82.3474 13.2465 81.1615 14.5687C79.9675 15.8909 78.6282 17.1083 77.2728 18.2854C75.9094 19.4867 74.5298 20.6719 73.2551 21.9941L73.2712 21.9861C71.9562 23.1309 70.738 24.4048 69.665 25.7754C68.5758 27.1379 67.6238 28.5972 66.7686 30.1291C66.1152 31.2981 65.5181 32.5075 64.9695 33.7329C64.6629 32.5558 64.3806 31.3787 64.1627 30.1855C63.5738 26.8719 63.4205 23.4534 64.0256 20.1559L64.0337 20.1237L64.0417 20.1156C64.187 18.3499 64.5258 16.6085 64.8566 14.8347C65.1793 13.0691 65.4536 11.2631 65.4052 9.44102C65.3649 7.62699 64.9453 5.78877 64.1143 4.1763C63.2995 2.5477 62.0893 1.16904 60.7178 0C62.0087 1.24967 63.1381 2.68476 63.8723 4.28917C64.5984 5.9339 64.9373 7.70761 64.8889 9.46521Z" fill="white"/>
<path d="M35.8772 51.2121C32.755 49.9947 29.9878 48.3258 27.5836 46.665C25.1714 44.988 23.0899 43.3513 21.2746 42.0291C19.4755 40.6988 17.9265 39.7233 16.8051 39.1589C15.6837 38.5945 15.0141 38.3849 15.0141 38.3769C15.006 38.3849 15.6595 38.651 16.7164 39.296C17.7894 39.941 19.2335 41.0133 20.9439 42.4322C22.6704 43.8512 24.6631 45.5927 27.0511 47.3664C29.4392 49.1401 32.2468 50.9058 35.4819 52.1877C37.0471 52.8004 38.6283 53.2439 40.1774 53.5664C40.2903 53.2519 40.4194 52.9375 40.5485 52.6231C39.0075 52.2925 37.4343 51.841 35.8772 51.2121Z" fill="white"/>
<path d="M45.252 45.7136C43.8966 44.7784 42.5573 43.7303 41.3068 42.5048C38.8865 40.1828 36.9664 37.5868 35.3851 35.1277C33.7958 32.6526 32.5049 30.3468 31.3351 28.4279C30.1814 26.5171 29.1246 25.0175 28.3016 24.0662C27.4868 23.1148 26.9463 22.6633 26.9463 22.6633C26.9382 22.6633 27.4384 23.1632 28.1726 24.1629C28.9229 25.1707 29.8426 26.7187 30.8753 28.6778C31.9241 30.6451 33.1019 33.0235 34.6268 35.5712C36.1516 38.1269 38.0717 40.8278 40.5727 43.2466C41.8393 44.4559 43.1866 45.5121 44.5581 46.4312C44.784 46.1893 45.018 45.9474 45.252 45.7136Z" fill="white"/>
<path d="M36.7082 50.4704C37.515 50.7687 38.3944 51.067 39.3625 51.2928C39.8869 51.4137 40.4517 51.5105 41.0325 51.575C41.1858 51.2605 41.3472 50.9542 41.5166 50.6478C40.855 50.6478 40.2016 50.5672 39.5723 50.4624C38.6606 50.3011 37.7893 50.0754 36.9825 49.8416C35.377 49.3578 34.0055 48.8499 32.9003 48.4226C30.6736 47.5599 29.4553 47.0117 29.4553 47.0197C29.4553 47.0117 30.5767 47.6728 32.7066 48.729C33.7716 49.245 35.1027 49.8738 36.7082 50.4704Z" fill="white"/>
<path d="M38.709 58.8311C38.2492 58.9923 37.7893 59.1213 37.3294 59.2181C36.4259 59.4196 35.5303 59.5486 34.6994 59.6454C33.0374 59.8147 31.5771 59.8711 30.3831 59.9034C27.9951 59.9517 26.6558 59.9114 26.6558 59.9195C26.6558 59.9195 27.9386 60.0969 30.3105 60.2501C31.5126 60.3307 32.9729 60.3871 34.6752 60.3307C35.5384 60.2984 36.4581 60.2339 37.4424 60.0807C37.8216 60.0163 38.2169 59.9356 38.6203 59.8389C38.6445 59.5003 38.6768 59.1697 38.709 58.8311Z" fill="white"/>
<path d="M38.5961 60.9273C37.1842 61.1611 35.7159 61.3143 34.2072 61.3465C30.8591 61.3949 27.6562 60.9192 24.7922 60.3065C21.9281 59.6937 19.3707 58.9681 17.2004 58.436C15.0221 57.8958 13.2311 57.5814 11.9645 57.4847C10.722 57.3879 10.0201 57.4524 10.0201 57.4524C10.0121 57.4524 10.722 57.4605 11.9564 57.654C13.1746 57.8475 14.9253 58.2748 17.0471 58.9278C19.177 59.5728 21.6942 60.4274 24.5905 61.153C27.4626 61.8867 30.7462 62.435 34.2234 62.3785C35.7401 62.3543 37.2004 62.185 38.6122 61.9351C38.5961 61.6045 38.5961 61.2659 38.5961 60.9273Z" fill="white"/>
<path d="M78.1683 79.3095C79.4673 80.3818 80.5322 81.3493 81.3954 82.1716C83.13 83.8244 84.0255 84.808 84.0255 84.8C84.0255 84.808 83.251 83.776 81.6778 81.9781C80.8952 81.0832 79.9029 80.0109 78.6524 78.8338C78.0231 78.2614 77.3374 77.6486 76.5387 77.0762C76.3047 76.8988 76.0465 76.7376 75.7884 76.5683C75.5544 76.794 75.3204 77.0037 75.0784 77.2133C75.4011 77.3826 75.7157 77.568 76.0143 77.7535C76.8049 78.2533 77.5068 78.7935 78.1683 79.3095Z" fill="white"/>
<path d="M75.1833 101.247C75.5221 103.472 75.9255 105.254 76.2966 106.439C76.7 107.633 77.0227 108.261 77.0227 108.253C77.0227 108.253 76.7565 107.608 76.4822 106.399C76.1595 105.182 75.9174 103.416 75.6915 101.191C75.4818 98.9817 75.3043 96.3291 74.8686 93.3864C74.441 90.4517 73.715 87.2348 72.3112 84.026C71.7142 82.6312 71.0042 81.3412 70.2297 80.1319C69.907 80.2528 69.5843 80.3657 69.2535 80.4705C70.028 81.704 70.7541 83.0343 71.3672 84.4452C72.6984 87.5089 73.4729 90.6532 74.0054 93.5234C74.5298 96.4098 74.8525 99.0542 75.1833 101.247Z" fill="white"/>
<path d="M84.0255 71.1262C85.631 71.618 86.9944 72.1179 88.1078 72.5452C90.3425 73.4159 91.5447 73.9722 91.5447 73.9642C91.5447 73.9722 90.4394 73.3111 88.2934 72.2469C87.2284 71.7148 85.8972 71.1101 84.2998 70.4893C83.4931 70.2071 82.6217 69.9088 81.6697 69.675C81.2986 69.5944 80.9275 69.5137 80.5403 69.4492C80.4192 69.7475 80.2821 70.0458 80.1369 70.3442C80.5806 70.3764 81.0162 70.4328 81.4438 70.5054C82.3636 70.6666 83.2268 70.9005 84.0255 71.1262Z" fill="white"/>
<path d="M89.6891 92.5398C90.8508 94.4506 91.8835 95.9341 92.7064 96.9016C93.5374 97.8529 94.0779 98.3044 94.0699 98.3044C94.0779 98.2964 93.5697 97.8207 92.8436 96.8048C92.1175 95.789 91.1736 94.2491 90.1409 92.2818C89.1001 90.3308 87.9303 87.9443 86.4055 85.3885C84.8807 82.8569 82.9444 80.1238 80.4515 77.7132C79.4188 76.6973 78.3216 75.8104 77.1922 75.0123C76.9743 75.2783 76.7646 75.5444 76.5387 75.7943C77.6278 76.5925 78.6927 77.4793 79.7335 78.471C82.1377 80.801 84.0497 83.389 85.6391 85.8481C87.2284 88.299 88.5193 90.6291 89.6891 92.5398Z" fill="white"/>
<path d="M69.6085 84.6307C70.3991 86.09 71.0203 87.4283 71.5044 88.5248C72.4483 90.6936 72.9324 91.9513 72.9324 91.9513C72.9243 91.9513 72.6016 90.6855 71.8432 88.4441C71.4641 87.3235 70.9638 85.9448 70.2377 84.3807C69.8989 83.6067 69.4794 82.7763 68.955 81.9298C68.721 81.5508 68.4709 81.1719 68.1805 80.793C67.8416 80.8897 67.5109 80.9865 67.1881 81.0832C67.5673 81.4863 67.9062 81.9217 68.2208 82.3732C68.7371 83.123 69.197 83.8889 69.6085 84.6307Z" fill="white"/>
<path d="M60.9598 82.3571C61.1938 83.776 61.3471 85.2595 61.3794 86.7833C61.4278 90.1292 60.9518 93.3219 60.3386 96.184C59.7174 99.0542 58.9994 101.602 58.4669 103.771C57.9344 105.956 57.6198 107.762 57.5149 108.987C57.4262 110.253 57.4907 110.946 57.4826 110.946C57.4826 110.954 57.4907 110.253 57.6924 109.027C57.8699 107.778 58.3056 106.052 58.959 103.908C59.6125 101.787 60.4596 99.2719 61.1938 96.3856C61.9199 93.5073 62.4846 90.2501 62.4201 86.7591C62.3959 85.2515 62.2345 83.7922 61.9844 82.3893C61.6456 82.3893 61.3067 82.3813 60.9598 82.3571Z" fill="white"/>
<path d="M80.9033 53.3084C80.9517 53.5019 81.0001 53.6954 81.0485 53.8808C81.4761 53.4696 81.936 53.1068 82.4039 52.7682C83.1623 52.2522 83.9368 51.8088 84.679 51.3976C86.1312 50.5994 87.4866 49.9867 88.5757 49.511C90.754 48.5596 92.0045 48.084 92.0045 48.0759C92.0045 48.084 90.7379 48.4145 88.4789 49.1482C87.3656 49.5433 85.994 50.0431 84.4128 50.7607C83.6463 51.1154 82.8234 51.5266 81.9763 52.0426C81.5729 52.2925 81.1695 52.5667 80.7661 52.873C80.8065 53.0101 80.863 53.1552 80.9033 53.3084Z" fill="white"/>
<path d="M60.1047 83.5422C60.0321 83.1069 59.9433 82.6634 59.8304 82.2119C59.6125 82.2281 59.3786 82.2361 59.1446 82.2361C59.0397 82.2361 58.9348 82.2281 58.83 82.22C58.9994 82.6957 59.1365 83.1794 59.2414 83.6632C59.4431 84.5581 59.5641 85.4369 59.6609 86.2834C59.8304 87.9443 59.8868 89.4036 59.9191 90.5968C59.9595 92.9752 59.9272 94.3135 59.9272 94.3135C59.9272 94.3135 60.1047 93.0236 60.258 90.6694C60.3386 89.4842 60.4032 88.0168 60.3306 86.2915C60.3225 85.4369 60.258 84.5178 60.1047 83.5422Z" fill="white"/>
<path d="M93.4971 99.6508C92.2708 98.377 91.2623 96.9257 90.278 95.4261C89.2857 93.9427 88.3418 92.427 87.18 91.008L87.2042 91.0241C86.2603 89.5729 85.155 88.2023 83.9206 86.9929C82.6782 85.7755 81.347 84.6709 79.919 83.6632C78.5314 82.6795 77.0953 81.7927 75.627 80.9623C75.1913 79.9222 74.7315 78.9064 74.2636 77.8905C73.9731 78.1082 73.6827 78.3259 73.3761 78.5274C73.6262 79.0676 73.8844 79.5997 74.1264 80.1399C73.5213 79.8093 72.9001 79.503 72.287 79.1885C71.8916 79.4062 71.4883 79.6078 71.0768 79.7932C72.408 81.7121 73.4326 83.647 74.1667 85.453C75.0945 87.654 75.6189 89.6535 75.9578 91.3224C76.6193 94.6602 76.5709 96.571 76.5871 96.5629C76.5709 96.571 76.7646 94.7086 76.3208 91.3385C76.0788 89.6535 75.6754 87.5895 74.8606 85.2837C74.312 83.7922 73.5939 82.1797 72.6581 80.543C73.3761 80.9058 74.0941 81.2847 74.796 81.6717C75.4818 83.2923 76.0949 84.9451 76.5951 86.6382C77.5471 89.8954 78.0393 93.2574 77.894 96.6678L77.9021 96.6839V96.7C77.9828 98.4818 77.894 100.296 77.8295 102.11C77.7488 103.9 77.6843 105.738 77.8698 107.56C78.0554 109.382 78.483 111.212 79.4511 112.809C80.395 114.397 81.8392 115.606 83.4608 116.429C81.9037 115.518 80.5403 114.244 79.677 112.663C78.8218 111.091 78.4749 109.318 78.3781 107.528C78.2813 105.738 78.362 103.94 78.483 102.134C78.604 100.336 78.7492 98.5221 78.7008 96.6839V96.7161C78.7976 94.9666 78.7654 93.2251 78.5637 91.4837C78.3781 89.7422 77.9989 88.0249 77.5229 86.3479C77.1518 85.0418 76.7161 83.7599 76.2321 82.5102C77.289 83.1149 78.3216 83.7599 79.3301 84.4533C82.0731 86.4044 84.6064 88.6941 86.5346 91.4756L86.5507 91.4917V91.4998C87.6963 92.8381 88.6725 94.3297 89.7133 95.8051C90.7298 97.2724 91.8109 98.772 93.1582 100.006C94.4652 101.263 96.0384 102.263 97.773 102.827C99.5237 103.4 101.347 103.513 103.122 103.4C101.323 103.416 99.5398 103.174 97.8778 102.561C96.2159 101.949 94.7234 100.925 93.4971 99.6508Z" fill="white"/>
<path d="M116.716 63.8378C115.102 64.5715 113.32 64.9101 111.561 64.8537C109.81 64.8295 108.051 64.5231 106.301 64.1684C104.55 63.7975 102.775 63.3783 100.976 63.1848L100.992 63.1928C99.3058 62.822 97.5632 62.6688 95.8044 62.6768C94.0699 62.6768 92.3353 62.8623 90.633 63.1445C88.9549 63.4266 87.3011 63.8217 85.6794 64.2651C84.4693 63.7733 83.2591 63.3218 82.0328 62.8865C82.0086 63.2573 81.9763 63.6282 81.936 63.991C82.6379 64.2409 83.3317 64.4909 84.0336 64.7489C83.2591 64.9907 82.4765 65.2326 81.7101 65.4906C81.6294 65.9018 81.5407 66.3049 81.4358 66.7161C81.4761 66.7 81.5165 66.6838 81.5649 66.6758C83.9045 67.087 86.0183 67.74 87.8416 68.4737C90.036 69.3767 91.8432 70.4248 93.2631 71.36C96.0626 73.2466 97.4019 74.6656 97.418 74.6333C97.3938 74.6656 96.2159 73.2143 93.5213 71.1423C92.1659 70.1023 90.3991 68.9494 88.1966 67.8771C86.7524 67.2079 85.1228 66.5629 83.3075 66.0791C84.074 65.8292 84.8484 65.5954 85.6149 65.3697C87.2526 66.0308 88.85 66.7564 90.3829 67.6029C93.3518 69.2396 96.1191 71.2713 98.4103 73.7626L98.4265 73.7868C99.7415 74.9881 100.976 76.3425 102.194 77.6567C103.428 78.9951 104.671 80.3415 106.083 81.4944C107.503 82.6393 109.124 83.6471 110.907 84.0744C112.698 84.5581 114.594 84.3727 116.313 83.8083C114.554 84.2759 112.698 84.3243 110.988 83.8002C109.261 83.3246 107.753 82.2765 106.422 81.0993C105.09 79.9142 103.888 78.5678 102.694 77.2213C101.484 75.8669 100.306 74.4801 98.9831 73.2063L98.9993 73.2224C97.8456 71.9163 96.587 70.6989 95.2155 69.6105C93.844 68.5382 92.3757 67.5788 90.8428 66.7241C89.6649 66.063 88.4467 65.4825 87.2123 64.9262C88.3983 64.6199 89.5842 64.3296 90.7863 64.1119C94.1102 63.5234 97.5067 63.3783 100.831 63.9749L100.847 63.991H100.855C102.622 64.1361 104.364 64.4828 106.147 64.8134C107.93 65.1278 109.713 65.418 111.561 65.3535C113.376 65.3132 115.191 64.902 116.821 64.0636C118.451 63.2493 119.822 62.0399 121 60.6774C119.774 61.9754 118.346 63.1041 116.716 63.8378Z" fill="white"/>
<path d="M99.7415 78.9386C101.557 80.2689 103.073 81.2364 104.187 81.8088C105.324 82.3813 105.994 82.5828 105.994 82.5909C105.994 82.5828 105.349 82.3329 104.292 81.6798C103.227 81.0187 101.767 79.9545 100.048 78.5274C98.3458 77.1327 96.345 75.367 93.9569 73.5933C91.5689 71.8357 88.7452 70.0458 85.5181 68.78C84.0901 68.1996 82.646 67.7884 81.226 67.4739C81.1292 67.7964 81.0324 68.1189 80.9195 68.4414C82.3152 68.7639 83.727 69.1993 85.147 69.7475C88.2611 70.9811 91.0203 72.6419 93.4325 74.3028C95.8448 75.9636 97.9182 77.6245 99.7415 78.9386Z" fill="white"/>
<path d="M105.978 84.0502C104.364 83.3407 102.872 82.3893 101.387 81.3815C99.9109 80.3898 98.4506 79.3337 96.8371 78.4791L96.8532 78.4871C95.4252 77.5035 93.8843 76.6731 92.2788 76.02C90.6733 75.3589 89.0114 74.8591 87.301 74.4721C85.6552 74.0931 83.9852 73.819 82.3152 73.6094C81.4761 72.7709 80.6048 71.9647 79.7254 71.1746C79.556 71.4971 79.3785 71.8195 79.1929 72.142C79.6609 72.5693 80.1369 72.9886 80.5967 73.424C79.8948 73.3514 79.1929 73.303 78.4991 73.2466C78.2571 73.6094 77.9989 73.9722 77.7246 74.335C79.6689 75.6008 81.3309 76.9795 82.6943 78.3339C84.3886 80.0028 85.6471 81.6637 86.5991 83.0746C88.4628 85.8964 89.1566 87.7185 89.1808 87.6943C89.1566 87.7185 88.6241 85.9206 86.9218 82.9698C86.0828 81.4863 84.8888 79.7529 83.2591 77.9147C82.1941 76.7376 80.9194 75.5363 79.435 74.3753C80.2337 74.4398 81.0324 74.5124 81.8392 74.6011C83.0897 75.8427 84.2917 77.1246 85.389 78.4952C87.5108 81.1396 89.2776 84.0743 90.4475 87.259L90.4555 87.2912C91.2058 88.9037 91.819 90.621 92.4563 92.306C93.0695 94.0072 93.7068 95.7325 94.5781 97.3369C95.4414 98.9333 96.5628 100.489 98.0472 101.57C99.5236 102.706 101.339 103.255 103.13 103.392C101.331 103.142 99.6043 102.481 98.2167 101.344C96.8129 100.239 95.8125 98.6995 95.038 97.1031C94.2473 95.4987 93.6584 93.7814 93.0695 92.0803C92.4725 90.363 91.9158 88.6457 91.1816 86.9607L91.1897 86.9768C90.6249 85.324 89.923 83.7115 89.084 82.1797C88.2208 80.664 87.2445 79.2208 86.1473 77.8502C85.3083 76.786 84.4047 75.7701 83.4769 74.7946C84.679 74.9558 85.8892 75.1493 87.0832 75.4073C90.3668 76.149 93.5858 77.302 96.4256 79.1321L96.4579 79.1644C98.023 79.9545 99.4994 80.9623 101.024 81.9217C102.533 82.8972 104.098 83.8647 105.816 84.5016C107.495 85.1547 109.342 85.4772 111.149 85.3321C112.989 85.195 114.715 84.5984 116.321 83.8002C114.667 84.5097 112.916 84.9693 111.141 85.0418C109.374 85.1305 107.608 84.7596 105.978 84.0502Z" fill="white"/>
<path d="M42.041 99.6912C40.7179 101.489 39.7336 103.037 39.1528 104.142C38.5961 105.278 38.3863 105.94 38.3783 105.94C38.3863 105.948 38.6445 105.286 39.298 104.238C39.9515 103.174 41.0164 101.715 42.4363 100.006C43.8563 98.2883 45.607 96.2969 47.3738 93.9105C49.1487 91.5159 50.9155 88.7102 52.1902 85.4772C52.7469 84.0905 53.1584 82.6796 53.473 81.2848C53.1503 81.18 52.8276 81.0671 52.5129 80.9542C52.1822 82.3248 51.7626 83.7116 51.2302 85.1144C49.9877 88.2104 48.3177 90.9758 46.6719 93.3864C45.0099 95.8051 43.3561 97.8691 42.041 99.6912Z" fill="white"/>
<path d="M36.5872 70.2232C37.3698 69.8684 38.2008 69.4492 39.0479 68.9332C39.3544 68.7478 39.661 68.5462 39.9676 68.3285C39.8466 68.0222 39.7417 67.7077 39.6368 67.4014C39.306 67.6916 38.9591 67.9577 38.6122 68.1915C37.8458 68.7155 37.0793 69.1751 36.3452 69.5863C34.8768 70.3764 33.5457 70.9891 32.4565 71.4729C30.2702 72.4323 29.0197 72.908 29.0197 72.908C29.0197 72.8999 30.2702 72.5855 32.5211 71.8196C33.6586 71.4245 35.0301 70.9246 36.5872 70.2232Z" fill="white"/>
<path d="M41.6779 78.1324C40.6211 79.4224 39.6207 80.4947 38.7978 81.3573C37.1439 83.0907 36.1677 83.9857 36.1757 83.9857C36.1677 83.9857 37.2084 83.2117 38.9994 81.6395C39.8869 80.8655 40.968 79.8658 42.1378 78.6161C42.7187 77.9792 43.3318 77.2939 43.9208 76.4957C44.1225 76.2135 44.3242 75.9152 44.5178 75.6008C44.2919 75.3589 44.0741 75.1171 43.8562 74.8671C43.6626 75.2541 43.4448 75.625 43.2189 75.9797C42.7348 76.7698 42.1862 77.4632 41.6779 78.1324Z" fill="white"/>
<path d="M28.4388 89.6455C26.5267 90.7984 25.0261 91.8465 24.0661 92.6689C23.1141 93.4993 22.6704 94.0314 22.6623 94.0233C22.6704 94.0314 23.1544 93.5154 24.1629 92.7978C25.1714 92.0803 26.7204 91.137 28.6808 90.0969C30.6494 89.0488 33.0293 87.8798 35.5787 86.356C38.1282 84.8241 40.8389 82.9053 43.2592 80.406C44.2919 79.3498 45.2116 78.213 46.0265 77.0601C45.7683 76.8344 45.5182 76.6086 45.2681 76.3667C44.4452 77.5035 43.5335 78.6081 42.5009 79.6884C40.1693 82.083 37.5715 84.0018 35.1189 85.5901C32.6663 87.1945 30.3508 88.4764 28.4388 89.6455Z" fill="white"/>
<path d="M47.0188 91.4998C47.0107 91.4998 47.6723 90.3872 48.7291 88.2507C49.2535 87.1945 49.8748 85.8561 50.4798 84.2678C50.7784 83.4535 51.0769 82.5747 51.3108 81.6234C51.3915 81.2767 51.4641 80.9139 51.5206 80.5511C51.2221 80.4221 50.9236 80.285 50.6331 80.1399C50.6009 80.5672 50.5444 80.9945 50.4718 81.4057C50.3104 82.3329 50.0765 83.1875 49.8506 83.9937C49.3665 85.5901 48.8582 86.9687 48.4306 88.0733C47.5755 90.3066 47.0107 91.4998 47.0188 91.4998Z" fill="white"/>
<path d="M36.9018 105.939C37.6118 104.327 38.5799 102.835 39.5803 101.352C40.5807 99.8766 41.6457 98.4012 42.5089 96.7887L42.4847 96.821C43.469 95.3859 44.2919 93.854 44.9696 92.2335C45.6311 90.6291 46.1313 88.9601 46.5186 87.259C46.8897 85.6143 47.164 83.9453 47.3738 82.2764C48.2128 81.438 49.0196 80.5753 49.8102 79.7046C49.4875 79.5272 49.1648 79.3417 48.8582 79.1482C48.4306 79.6239 48.0111 80.0996 47.5674 80.5592C47.64 79.8416 47.6965 79.1241 47.7449 78.3984C47.3899 78.1485 47.0511 77.8825 46.7122 77.6083C45.4456 79.5836 44.0499 81.2606 42.6622 82.6473C40.9761 84.3485 39.3302 85.6062 37.9103 86.5576C35.0785 88.428 33.2875 89.1133 33.2956 89.1375C33.2875 89.1133 35.0705 88.5812 38.0233 86.8881C39.4997 86.0416 41.2261 84.8564 43.0575 83.2278C44.2354 82.1555 45.4375 80.8897 46.5912 79.4143C46.5347 80.2125 46.4621 81.0107 46.3734 81.8088C45.139 83.0585 43.8643 84.2517 42.4928 85.3482C39.8304 87.4686 36.9018 89.2343 33.707 90.4033L33.6747 90.4194C32.0612 91.1612 30.3589 91.7739 28.6647 92.4189C26.9624 93.0317 25.2359 93.6686 23.6223 94.5393C22.0088 95.402 20.484 96.5146 19.3949 98.0061C18.2734 99.4735 17.7087 101.304 17.5715 103.085C17.8055 101.296 18.4751 99.5622 19.6046 98.1835C20.718 96.7726 22.2589 95.7729 23.8563 95.0069C25.4618 94.2168 27.1722 93.6283 28.8744 93.0397C30.5848 92.4512 32.3194 91.8868 34.0055 91.1531L33.9733 91.1692C35.6191 90.6049 37.2326 89.9034 38.7655 89.065C40.2984 88.2023 41.7425 87.2187 43.1059 86.1303C44.1709 85.2918 45.1713 84.3969 46.1555 83.4697C45.9942 84.671 45.7925 85.8803 45.5343 87.0736C44.8002 90.3469 43.6465 93.5638 41.8151 96.4017L41.799 96.4178L41.7909 96.434C40.9922 98.0061 39.9757 99.4735 39.0156 100.997C38.0394 102.497 37.0793 104.061 36.4501 105.786C35.7804 107.471 35.4658 109.318 35.6029 111.116C35.7643 112.946 36.3532 114.679 37.1358 116.283C36.4258 114.631 35.9579 112.889 35.8934 111.116C35.8288 109.326 36.208 107.56 36.9018 105.939Z" fill="white"/>
<path d="M19.766 75.6653C21.9765 75.4557 24.6308 75.2864 27.5756 74.843C30.5122 74.4237 33.7554 73.6739 36.9503 72.2953C38.3218 71.7067 39.6046 71.0053 40.7986 70.2393C40.6453 69.933 40.5081 69.6266 40.371 69.3202C39.1689 70.062 37.8942 70.7473 36.5307 71.3439C33.4569 72.6822 30.3186 73.4562 27.4384 73.9883C24.5502 74.5043 21.912 74.8268 19.7014 75.1655C17.4828 75.496 15.7079 75.8991 14.4977 76.2861C13.3118 76.6731 12.6906 77.0037 12.6986 76.9956C12.6986 76.9956 13.3441 76.7376 14.5542 76.4474C15.7724 76.141 17.5473 75.8749 19.766 75.6653Z" fill="white"/>
<path d="M56.1192 111.511C56.1595 109.753 56.458 107.995 56.8292 106.238C57.1841 104.496 57.5875 102.723 57.7973 100.925L57.7811 100.949C58.1442 99.2639 58.3136 97.5224 58.3056 95.7648C58.3056 94.0314 58.12 92.298 57.8376 90.5968C57.5553 88.9198 57.168 87.267 56.7162 85.6465C57.1841 84.5017 57.6198 83.3488 58.0313 82.1878C57.6601 82.1555 57.289 82.1233 56.926 82.0749C56.7001 82.7199 56.4742 83.3568 56.2321 84.0018C56.0143 83.2842 55.7804 82.5667 55.5464 81.8491C55.1269 81.7605 54.7154 81.6637 54.312 81.5508V81.5589C53.9006 83.8809 53.2551 85.9851 52.5048 87.8153C51.5932 90.0244 50.5525 91.8223 49.6166 93.2413C47.7207 96.047 46.3169 97.3611 46.3492 97.3934C46.3169 97.3611 47.7772 96.1921 49.8506 93.4993C50.8913 92.1528 52.0369 90.3952 53.1019 88.1942C53.7796 86.7511 54.4088 85.1225 54.909 83.3084C55.1591 84.0824 55.4012 84.8403 55.6271 85.6223C54.9655 87.2509 54.2394 88.8392 53.3923 90.3711C51.7384 93.3461 49.7053 96.1115 47.2043 98.4012L47.1882 98.4092L47.1801 98.4254C45.978 99.7395 44.6388 100.957 43.3157 102.191C41.9764 103.416 40.6291 104.658 39.4674 106.077C38.3137 107.496 37.3214 109.116 36.8857 110.906C36.4097 112.688 36.5872 114.59 37.1439 116.308C36.6759 114.558 36.6356 112.696 37.1439 110.995C37.636 109.261 38.6767 107.754 39.8546 106.423C41.0406 105.093 42.396 103.892 43.7433 102.698C45.0906 101.505 46.4621 100.328 47.7449 99.0059C49.0519 97.8529 50.262 96.5952 51.3592 95.2327C52.4403 93.8459 53.3923 92.3867 54.2475 90.8548C54.9171 89.6696 55.498 88.4603 56.0466 87.2187C56.3532 88.4038 56.6436 89.589 56.8614 90.7984C57.4423 94.1281 57.5875 97.5143 56.9905 100.836L56.9824 100.852V100.86C56.8453 102.634 56.4822 104.375 56.1676 106.149C55.861 107.931 55.5625 109.721 55.6271 111.559C55.6593 113.373 56.0708 115.187 56.9098 116.816C57.7327 118.436 58.9429 119.815 60.2902 121C59.0074 119.758 57.9022 118.315 57.1599 116.695C56.4016 115.042 56.0869 113.26 56.1192 111.511Z" fill="white"/>
<path d="M21.2988 93.459C22.5735 92.2335 24.0419 91.2257 25.5263 90.2421C27.0108 89.2585 28.5437 88.3232 29.9474 87.1622C31.4077 86.2109 32.7631 85.1144 33.9975 83.8809C35.2238 82.6393 36.321 81.3009 37.3214 79.8819C38.3056 78.5033 39.1931 77.0682 40.0241 75.5928C41.1132 75.1332 42.1943 74.6495 43.2673 74.1415C43.0414 73.8593 42.8236 73.561 42.6138 73.2708C42.0249 73.553 41.4359 73.8352 40.8389 74.1012C41.1858 73.4482 41.5247 72.7951 41.8554 72.1421C41.6295 71.7793 41.4117 71.4084 41.202 71.0295C41.202 71.0295 41.202 71.0295 41.202 71.0375C39.2657 72.3759 37.3294 73.3998 35.5142 74.1335C33.3036 75.0606 31.2948 75.5928 29.6328 75.9233C26.3008 76.5844 24.3807 76.528 24.3807 76.5602C24.3807 76.528 26.2363 76.7376 29.6167 76.2942C31.2948 76.0604 33.3601 75.6492 35.6755 74.8349C37.1681 74.2947 38.7736 73.5772 40.4032 72.6419C40.0402 73.3595 39.661 74.077 39.2738 74.7865C37.6521 75.4638 36.0063 76.0765 34.3202 76.5764C31.0689 77.5197 27.6723 78.0276 24.2758 77.8905H24.2516C22.4687 77.9792 20.6534 77.8825 18.8624 77.818C17.0471 77.7535 15.2158 77.6809 13.3844 77.8663C11.5691 78.0518 9.71355 78.4871 8.14035 79.4466C6.55907 80.3899 5.34085 81.833 4.51794 83.4455C5.42959 81.8895 6.7043 80.535 8.27751 79.6804C9.85072 78.8177 11.6418 78.4791 13.4328 78.3743C15.2158 78.2775 17.0149 78.3581 18.822 78.4871C20.6373 78.6081 22.4364 78.7532 24.2839 78.7048H24.2436C25.9862 78.8177 27.7369 78.7613 29.4795 78.5758C31.2222 78.3823 32.9406 78.0195 34.6106 77.5438C35.9176 77.173 37.2003 76.7376 38.4589 76.2539C37.8458 77.31 37.2003 78.342 36.5065 79.3417C34.5703 82.0749 32.279 84.6145 29.5037 86.5334L29.4715 86.5495C28.1403 87.6944 26.6316 88.6699 25.1633 89.71C23.6869 90.7258 22.2024 91.7981 20.9519 93.1445C19.6934 94.4506 18.6849 96.0228 18.1282 97.7562C17.5796 99.4977 17.4505 101.328 17.5715 103.102C17.5473 101.312 17.7813 99.5299 18.4025 97.8691C18.9995 96.176 20.0322 94.6764 21.2988 93.459Z" fill="white"/>
<path d="M75.9901 109.302C75.3446 107.665 74.9655 105.915 74.6266 104.15C74.2797 102.416 73.9812 100.618 73.4729 98.8769V98.9091C73.1664 97.1999 72.65 95.531 71.9804 93.9104C71.3188 92.3141 70.4798 90.7823 69.5681 89.3149C68.6726 87.8717 67.6722 86.5011 66.6396 85.1708C66.6396 83.8809 66.5911 82.5909 66.5266 81.3009C66.1636 81.4218 65.8086 81.5347 65.4617 81.6476C65.502 82.3813 65.5343 83.1069 65.5585 83.8325C65.0663 83.2278 64.5581 82.6393 64.0579 82.0507C63.6545 82.1555 63.2511 82.2361 62.8396 82.2926C62.8477 82.3006 62.8558 82.3168 62.8719 82.3248C63.3802 84.6307 63.5819 86.7994 63.5738 88.7586C63.5819 91.1451 63.2995 93.201 62.9768 94.8779C62.3072 98.2077 61.5246 99.9733 61.5407 99.9653C61.5165 99.9653 62.4121 98.3125 63.2995 95.023C63.7271 93.3783 64.1305 91.3224 64.2676 88.8795C64.3483 87.2912 64.2999 85.5336 64.0579 83.6712C64.5904 84.2759 65.0986 84.8967 65.6069 85.5256C65.615 87.2832 65.5504 89.0327 65.3648 90.7742C64.9937 94.1523 64.1547 97.4579 62.7186 100.546V100.562L62.7106 100.578C62.1055 102.263 61.331 103.9 60.5887 105.544C59.8223 107.181 59.0639 108.842 58.5395 110.608C58.0071 112.357 57.7005 114.22 57.9829 116.05C58.241 117.88 59.1285 119.557 60.2983 120.936C59.2092 119.492 58.4427 117.799 58.241 116.009C58.0555 114.236 58.4185 112.454 59.0075 110.761C59.5964 109.068 60.3628 107.439 61.1777 105.827C61.9845 104.206 62.8074 102.577 63.4689 100.868L63.4528 100.909C64.2273 99.3284 64.8485 97.6998 65.3326 96.0147C65.8166 94.3378 66.1313 92.6124 66.341 90.879C66.4943 89.5326 66.5831 88.1862 66.6153 86.8559C67.3576 87.8153 68.0675 88.807 68.721 89.8228C70.5363 92.6769 71.9723 95.7487 72.6984 99.0462L72.6904 99.0623L72.6984 99.0865C73.239 100.772 73.5697 102.521 73.9651 104.271C74.3685 106.036 74.7638 107.802 75.5383 109.479C76.2644 111.14 77.3454 112.664 78.7412 113.849C80.1127 115.018 81.7585 115.832 83.4689 116.413C81.8069 115.751 80.2337 114.848 78.9187 113.639C77.6036 112.462 76.6355 110.938 75.9901 109.302Z" fill="white"/>
<path d="M83.6867 61.7335C84.5822 61.5481 85.4697 61.4272 86.3168 61.3385C87.9707 61.145 89.439 61.1127 90.633 61.0805C93.013 61.0321 94.3523 61.0724 94.3523 61.0644C94.3523 61.0724 93.0533 60.895 90.6895 60.7096C89.5035 60.6451 88.0433 60.5887 86.3087 60.6451C85.4697 60.6774 84.5499 60.7499 83.5737 60.9031C83.0816 60.9837 82.5733 61.0805 82.0651 61.2256C82.0651 61.5642 82.0651 61.9028 82.057 62.2415C82.5976 62.0238 83.1542 61.8625 83.6867 61.7335Z" fill="white"/>
<path d="M103.816 62.5398C106.002 63.0719 107.809 63.3863 109.036 63.4911C110.31 63.596 110.996 63.5073 110.996 63.5153C110.996 63.5073 110.302 63.4992 109.076 63.3057C107.825 63.1364 106.099 62.6849 103.953 62.0399C101.831 61.3869 99.3139 60.5403 96.4256 59.8066C93.5455 59.073 90.278 58.5086 86.7928 58.5812C85.1228 58.6053 83.5092 58.7988 81.9683 59.0971C82.0005 59.4277 82.0167 59.7583 82.0328 60.0808C83.5657 59.8147 85.1712 59.6373 86.817 59.6131C90.1651 59.5648 93.3599 60.0404 96.224 60.6532C99.088 61.2659 101.645 61.9996 103.816 62.5398Z" fill="white"/>
<path d="M110.843 61.9835C109.14 61.3949 107.519 60.6129 105.905 59.8228C104.284 59.0165 102.654 58.1942 100.936 57.525H100.976C99.3865 56.7591 97.7649 56.1221 96.0707 55.6384C94.3926 55.1546 92.6661 54.8483 90.9315 54.6548C89.5922 54.4935 88.2449 54.4048 86.9138 54.3645C87.8738 53.6309 88.8581 52.9133 89.8746 52.2522C92.7225 50.4382 95.8044 49.0111 99.1041 48.2855L99.1203 48.2936L99.1445 48.2855C100.839 47.7453 102.573 47.3987 104.34 47.0278C106.107 46.6247 107.866 46.2135 109.544 45.4476C111.206 44.73 112.731 43.6496 113.916 42.2468C115.102 40.8843 115.909 39.2315 116.474 37.5222C115.82 39.1831 114.925 40.7714 113.715 42.0694C112.497 43.3755 110.988 44.3591 109.342 44.9799C107.712 45.6249 105.962 46.02 104.211 46.3667C102.46 46.6892 100.661 46.9875 98.9186 47.5035H98.9428C97.2324 47.8098 95.5704 48.3339 93.9569 49.0111C92.3514 49.6803 90.8186 50.5107 89.3583 51.4218C87.9222 52.3248 86.5507 53.3084 85.2115 54.3484C83.8641 54.3484 82.5249 54.3968 81.1857 54.4613C81.2744 54.8241 81.347 55.1788 81.4196 55.5416C82.2425 55.4933 83.0574 55.453 83.8642 55.4368C83.1381 56.0254 82.4281 56.6301 81.7262 57.2428C81.7908 57.6701 81.8472 58.0974 81.8956 58.5247C82.0489 58.3957 82.1941 58.2667 82.3394 58.1377C84.6548 57.6217 86.8412 57.4202 88.8016 57.4282C91.1897 57.4121 93.255 57.6943 94.917 58.0087C98.2489 58.694 100.016 59.468 100.008 59.4438C100.008 59.468 98.3619 58.5892 95.0702 57.6943C93.4164 57.267 91.3671 56.8639 88.9146 56.7268C87.3333 56.6543 85.5745 56.6946 83.7109 56.9284C84.316 56.4043 84.9372 55.8964 85.5664 55.3965C87.3252 55.3885 89.084 55.453 90.8266 55.6384C94.207 56.0093 97.5148 56.8477 100.597 58.2667L100.613 58.2748L100.629 58.2828C102.315 58.8875 103.953 59.6696 105.607 60.4274C107.228 61.1772 108.898 61.9432 110.665 62.4753C112.416 62.9993 114.28 63.2976 116.111 63.0235C117.95 62.7736 119.62 61.8706 120.992 60.6935C119.556 61.79 117.862 62.564 116.063 62.7413C114.32 62.9429 112.529 62.564 110.843 61.9835Z" fill="white"/>
<path d="M59.6529 34.2006C59.5964 30.8547 60.0804 27.6539 60.6936 24.7999C61.3067 21.9377 62.0328 19.3819 62.5653 17.2132C63.0978 15.0363 63.4124 13.2465 63.5173 11.9807C63.6222 10.731 63.5415 10.0377 63.5496 10.0377C63.5415 10.0377 63.5334 10.7391 63.3479 11.9726C63.1623 13.19 62.7267 14.9396 62.0732 17.068C61.4278 19.1965 60.5726 21.712 59.8384 24.5983C59.1123 27.4685 58.5476 30.7499 58.6121 34.2248C58.6363 35.9582 58.8461 37.6351 59.1688 39.2315C59.4996 39.2073 59.8304 39.1992 60.1611 39.1912C59.8546 37.5868 59.669 35.9259 59.6529 34.2006Z" fill="white"/>
<path d="M69.786 35.8614C71.0123 32.7332 72.6662 29.9839 74.3442 27.5652C75.9981 25.1707 77.652 23.0826 78.9751 21.2766C80.3063 19.4787 81.2664 17.9388 81.8392 16.8181C82.412 15.6974 82.6217 15.0202 82.6298 15.0202C82.6217 15.0121 82.3555 15.6571 81.7182 16.7213C81.0647 17.7936 79.9917 19.2368 78.5637 20.946C77.1679 22.6553 75.4092 24.6628 73.6343 27.0412C71.8674 29.4196 70.0845 32.2495 68.8178 35.4663C68.1643 37.1191 67.7125 38.7719 67.3898 40.4005C67.7045 40.5134 68.0191 40.6343 68.3338 40.7633C68.6645 39.1589 69.1325 37.5061 69.786 35.8614Z" fill="white"/>
<path d="M61.3632 34.6924C61.1696 33.0396 61.1293 31.5722 61.1051 30.379C61.0567 27.9925 61.097 26.6542 61.0889 26.6542C61.097 26.6542 60.9114 27.9361 60.734 30.3145C60.6694 31.5077 60.6129 32.967 60.6613 34.6763C60.7017 35.5309 60.7743 36.45 60.9276 37.4336C61.0163 37.9979 61.1373 38.5865 61.3229 39.1831C61.6779 39.1992 62.0329 39.2154 62.3878 39.2557C62.1216 38.6268 61.9199 37.9657 61.7586 37.3207C61.5649 36.4177 61.4439 35.5228 61.3632 34.6924Z" fill="white"/>
<path d="M50.7622 36.5951C51.1253 37.3691 51.5448 38.1914 52.0611 39.038C52.3677 39.5459 52.7227 40.07 53.1503 40.5698C53.4891 40.4408 53.836 40.3199 54.1749 40.207C53.6586 39.7152 53.1906 39.1589 52.7953 38.6107C52.2709 37.8367 51.811 37.0627 51.4157 36.329C50.6089 34.8697 50.0119 33.5314 49.5279 32.443C48.5678 30.2581 48.0918 29.0084 48.0837 29.0084C48.0918 29.0084 48.4145 30.2581 49.1568 32.5236C49.5521 33.6523 50.0684 35.0229 50.7622 36.5951Z" fill="white"/>
<path d="M42.3557 42.1259C42.993 42.7144 43.6868 43.3191 44.4936 43.8996C44.9857 44.2543 45.5263 44.593 46.1072 44.8993C46.3734 44.6655 46.6396 44.4317 46.9139 44.206C46.2362 43.9399 45.5989 43.5932 45.0019 43.2143C44.2193 42.7144 43.5093 42.1743 42.8478 41.6583C41.5489 40.6021 40.4839 39.6104 39.6126 38.78C37.8942 37.1272 36.9745 36.1517 36.9664 36.1597C36.9745 36.1517 37.749 37.1917 39.3141 38.9815C40.1128 39.8765 41.1052 40.9649 42.3557 42.1259Z" fill="white"/>
<path d="M49.6489 36.5306C48.3096 33.4588 47.5432 30.3145 47.0107 27.4443C46.4783 24.566 46.1717 21.9216 45.8328 19.7205C45.5021 17.5034 45.1067 15.7297 44.7114 14.5203C44.3322 13.3271 44.0015 12.7143 44.0015 12.7143C43.9934 12.7143 44.2516 13.3674 44.5501 14.5848C44.8405 15.7861 45.1229 17.5598 45.3165 19.777C45.5343 21.9861 45.7118 24.6386 46.1394 27.5814C46.567 30.5161 47.3092 33.7652 48.6969 36.9498C49.3988 38.5784 50.2459 40.07 51.1818 41.4486C51.4803 41.3035 51.7707 41.1584 52.0773 41.0213C51.1656 39.6346 50.3346 38.1431 49.6489 36.5306Z" fill="white"/>
<path d="M68.1159 57.3879C68.4709 57.4202 68.842 57.2105 69.0195 56.9848C69.0679 56.9284 69.0921 56.8719 69.1163 56.8155C68.6323 56.7913 68.0917 56.7832 67.5431 56.8236C67.4624 56.8316 67.3818 56.8397 67.3092 56.8477C67.4947 57.1057 67.7771 57.3718 68.1159 57.3879Z" fill="white"/>
<path d="M72.0853 57.0815C72.0933 57.0896 72.1095 57.0896 72.1095 57.0977L72.2708 57.0815C72.2063 57.0815 72.1498 57.0815 72.0853 57.0815Z" fill="white"/>
<path d="M71.2382 56.364C70.9638 56.0334 70.6573 55.6868 70.2862 55.4046C69.8989 55.1224 69.4552 54.9289 68.9873 54.8402C68.5113 54.7435 68.0433 54.7596 67.5835 54.816C67.1317 54.8725 66.6637 55.0257 66.2523 55.2272C65.8408 55.4449 65.4536 55.7029 65.1228 55.9931C64.4209 56.5736 63.8481 57.2751 63.4286 58.049C64.0579 57.4282 64.7033 56.8477 65.4052 56.364C65.7602 56.1221 66.1151 55.8964 66.5024 55.7351C66.6315 55.6787 66.7444 55.6303 66.8654 55.582C66.9138 55.5658 66.9703 55.5497 67.0268 55.5336C67.2285 55.4691 67.4544 55.4126 67.6803 55.3965C68.124 55.324 68.5597 55.324 68.9953 55.3965C69.0357 55.3965 69.076 55.4126 69.1163 55.4126C69.431 55.4852 69.7456 55.59 70.028 55.7674C70.383 55.977 70.7057 56.2592 71.0445 56.5494C71.1252 56.6059 71.2059 56.6784 71.2866 56.7349C71.1655 56.6865 71.0123 56.6462 70.8509 56.6059C70.5685 56.5252 70.2216 56.4527 69.8666 56.3882C69.786 56.3801 69.7053 56.3721 69.6246 56.3479C68.9953 56.2592 68.2773 56.2108 67.5109 56.2673C67.1881 56.2834 66.8735 56.3318 66.5589 56.3882C66.4782 56.4043 66.3975 56.4285 66.3249 56.4446C66.099 56.5011 65.8892 56.5575 65.6714 56.6381C65.1309 56.8316 64.671 57.0977 64.316 57.3637C64.0337 57.5975 63.8239 57.8152 63.6867 57.9926C63.4851 58.2506 63.4124 58.436 63.4366 58.4522C63.477 58.4844 63.6464 58.3151 63.961 58.0652C64.5903 58.3877 65.2519 58.5973 65.9134 58.7666C66.6315 58.944 67.3737 59.0568 68.1321 59.0649C68.8824 59.0568 69.6407 58.944 70.3346 58.6134C70.6654 58.4522 70.98 58.2264 71.2462 57.9604C71.4802 57.7024 71.6819 57.4202 71.8352 57.1138C72.0207 57.1299 72.1256 57.1299 72.1417 57.0977C72.1498 57.0896 72.1256 57.0735 72.1095 57.0493C72.1014 57.0493 72.0933 57.0412 72.0853 57.0332C72.1498 57.0816 71.5205 56.6784 71.2382 56.364ZM67.0268 56.88C67.0268 56.8961 67.0268 56.9122 67.0268 56.9203C67.0671 57.0896 67.1478 57.3073 67.3011 57.5089C67.3253 57.5411 67.3576 57.5734 67.3898 57.6056C67.5593 57.7749 67.7932 57.912 68.0756 57.9281C68.4064 57.9603 68.6968 57.8313 68.8985 57.662C68.9953 57.5895 69.0679 57.5008 69.1244 57.4202C69.2051 57.3073 69.2454 57.2025 69.2858 57.0977C69.31 57.0009 69.318 56.9122 69.2938 56.8397C69.4068 56.8397 69.5197 56.8558 69.6407 56.8558C69.6085 57.0412 69.5601 57.2267 69.4794 57.3799C69.3987 57.533 69.2858 57.6782 69.1728 57.791C68.8985 58.049 68.5274 58.2022 68.1724 58.2103C67.7932 58.2264 67.4382 58.0974 67.1236 57.8636C67.051 57.8072 66.9865 57.7427 66.93 57.6701C66.7686 57.4766 66.6476 57.2267 66.5911 56.9606C66.7122 56.9284 66.8654 56.8961 67.0268 56.88ZM70.2297 58.4441C69.5762 58.7021 68.842 58.8069 68.1321 58.8069C67.406 58.8069 66.6718 58.7021 65.9619 58.5731C65.5988 58.5086 65.2438 58.436 64.8888 58.3473C64.5823 58.2748 64.2757 58.1861 63.9933 58.0813C64.0337 58.049 64.0821 58.0087 64.1547 57.9684C64.2676 57.8878 64.3886 57.8072 64.5339 57.7104C64.9695 57.4363 65.5665 57.1944 66.2442 57.0251C66.2604 57.2589 66.3168 57.5008 66.4136 57.7265C66.5105 57.912 66.6234 58.0893 66.7686 58.2425C66.9542 58.4199 67.1639 58.5812 67.406 58.6779C67.6399 58.7666 67.9142 58.815 68.1643 58.815C68.6968 58.7908 69.197 58.5408 69.5197 58.1538C69.7133 57.92 69.8505 57.6459 69.907 57.3476C69.9473 57.2025 69.9554 57.0493 69.9473 56.9122C70.262 56.9364 70.5363 56.9767 70.7783 57.009C71.1736 57.0654 71.4883 57.1219 71.7222 57.146C71.7626 57.1541 71.7948 57.1622 71.8271 57.1622C71.4156 57.7346 70.8751 58.1942 70.2297 58.4441Z" fill="white"/>
<path d="M72.287 52.8811C71.7706 52.7601 71.0284 52.5989 70.0845 52.478C69.1405 52.3731 68.003 52.2844 66.7202 52.4618C65.4616 52.6311 64.0659 53.1149 62.9284 54.1227C62.3717 54.6306 61.9441 55.2675 61.6779 55.9367C61.4278 56.6059 61.339 57.2912 61.3148 57.9281C61.2826 59.21 61.5085 60.3226 61.6295 61.2498C61.7828 62.177 61.8554 62.9187 61.8231 63.4266C61.7908 63.9426 61.6698 64.2087 61.7102 64.2329C61.7505 64.2409 61.9361 63.9991 62.0248 63.4508C62.0893 63.1364 62.1055 62.7413 62.0974 62.2979C62.1055 62.3302 62.1377 62.3543 62.1539 62.3866C62.3394 62.6204 62.6299 62.9671 62.8477 63.3299C62.9607 63.5234 63.0091 63.7008 62.9768 63.7653C62.9768 63.8378 62.4362 64.1523 62.283 64.2168C62.291 64.12 62.291 64.0474 62.291 64.0636C62.291 64.0474 62.17 64.2651 61.8957 64.4183C61.6295 64.5796 61.2261 64.6521 60.7582 64.6279C60.2902 64.6279 59.8707 64.5312 59.5722 64.4022C59.2737 64.2812 59.1043 64.12 59.1043 64.1281C59.1043 64.12 59.1123 64.1523 59.1365 64.2087C59.1365 64.2168 59.1285 64.2168 59.1285 64.2168C59.1365 64.2168 59.1365 64.2168 59.1446 64.2248C59.1849 64.3054 59.2576 64.4586 59.4189 64.6199C59.6771 64.894 60.1692 65.152 60.742 65.1681C61.3229 65.1923 61.8554 64.9262 62.0893 64.6118C62.1942 64.4586 62.2507 64.3377 62.2668 64.2329C62.3072 64.3054 62.4846 64.3861 62.8235 64.3458C62.9203 64.3458 63.0252 64.3216 63.1381 64.2651C63.2511 64.2087 63.3882 64.1039 63.4528 63.9426C63.5173 63.7733 63.5173 63.5959 63.477 63.4589C63.4447 63.3218 63.3882 63.1928 63.3156 63.0638C63.0413 62.5882 62.6863 62.2979 62.412 62.1044C62.283 61.9996 62.162 61.9432 62.0651 61.9109C62.0571 61.6771 62.0329 61.4352 62.0167 61.1934C61.928 60.2501 61.7505 59.1455 61.8231 57.9362C61.8473 57.3396 61.9441 56.7107 62.1781 56.1141C62.412 55.5175 62.7832 54.9612 63.2834 54.5097C64.316 53.5986 65.6069 53.131 66.7928 52.9456C68.003 52.7521 69.1163 52.7843 70.0441 52.8488C70.9639 52.9133 71.7142 53.0181 72.2466 53.0746C72.771 53.131 73.0534 53.1471 73.0695 53.1149C73.0857 53.0907 72.8033 53.002 72.287 52.8811Z" fill="white"/>
<path d="M65.2922 67.353C65.4052 67.224 65.4132 67.1192 65.3971 67.1031C65.3406 67.0386 65.1067 67.3127 64.6952 67.2482C64.2838 67.1998 63.7513 66.7886 63.0575 66.4097C62.7186 66.2243 62.3475 66.0792 61.9764 66.055C61.6214 66.0147 61.2745 66.1517 61.0567 66.3291C60.8308 66.5145 60.7097 66.708 60.6452 66.837C60.5726 66.9902 60.5565 67.0708 60.5887 67.095C60.6452 67.1515 60.8469 66.8773 61.2342 66.6596C61.4197 66.5629 61.6617 66.4984 61.9361 66.5468C62.2104 66.5951 62.525 66.7241 62.8396 66.9015C63.3882 67.1998 63.9126 67.5465 64.4128 67.6271C64.0175 67.7642 63.4447 67.8448 62.7993 67.8851C62.1297 67.9174 61.4843 67.9496 61.0325 68.0786C60.8227 68.1351 60.6613 68.1915 60.5484 68.2641C60.4274 68.1915 60.2741 68.1351 60.0724 68.0786C59.6125 67.9577 58.9752 67.9174 58.3056 67.8851C57.6521 67.8529 57.0793 67.7642 56.6759 67.6271C57.1842 67.5465 57.7166 67.1918 58.2572 66.9015C58.5799 66.7241 58.8864 66.5951 59.1527 66.5468C59.427 66.4984 59.669 66.5629 59.8626 66.6596C60.2499 66.8773 60.4516 67.1515 60.5161 67.095C60.5484 67.0708 60.5323 66.9902 60.4597 66.837C60.3951 66.708 60.266 66.5145 60.0482 66.3291C59.8304 66.1517 59.4915 66.0147 59.1204 66.055C58.7574 66.0792 58.3862 66.2243 58.0555 66.4097C57.3697 66.7886 56.8211 67.1998 56.4096 67.2482C56.0063 67.3127 55.7723 67.0386 55.7158 67.1031C55.6916 67.1192 55.7158 67.2159 55.8126 67.353C55.853 67.4014 55.9175 67.4578 55.9982 67.5143C56.0224 67.5465 56.0466 67.5868 56.0869 67.6352C56.1273 67.8045 56.2241 68.0867 56.3935 68.4253C56.684 69.0219 57.2406 69.7798 58.0797 70.2958C58.2652 70.4087 58.4427 70.5054 58.6363 70.578C58.1281 70.7553 57.6924 71.0214 57.402 71.3036C56.8211 71.8196 56.6355 72.2953 56.6759 72.3356C56.7324 72.392 57.0309 72.0292 57.5956 71.6261C58.9348 70.6828 62.2588 70.7231 63.5173 71.6261C64.0659 72.0453 64.3806 72.4001 64.4209 72.3356C64.4774 72.3033 64.2838 71.8196 63.711 71.3036C63.4044 71.0295 62.9768 70.7553 62.4766 70.578C62.6541 70.5054 62.8477 70.4087 63.0333 70.2958C63.8723 69.7798 64.4209 69.0139 64.7194 68.4253C64.8888 68.0867 64.9776 67.8126 65.0179 67.6352C65.0583 67.5868 65.0905 67.5465 65.1228 67.5143C65.1954 67.4578 65.2519 67.4014 65.2922 67.353ZM64.429 68.1996C64.0821 68.6914 63.5577 69.3606 62.8074 69.804C62.3475 70.0862 61.9038 70.2393 61.4762 70.3361C61.339 70.3119 59.7658 70.7795 58.3217 69.804C57.5956 69.3202 57.0309 68.6914 56.684 68.1996C56.6275 68.1189 56.5791 68.0464 56.5387 67.9819C56.9583 68.2318 57.6117 68.3931 58.2975 68.4253C58.9913 68.4656 59.5964 68.4495 60.0321 68.4656C60.1854 68.4656 60.3064 68.4737 60.4193 68.4818C60.4516 68.4898 60.5 68.4898 60.5565 68.4898C60.621 68.4898 60.6694 68.4898 60.7017 68.4818C60.8066 68.4737 60.9357 68.4656 61.0809 68.4656C61.5165 68.4495 62.1297 68.4656 62.8235 68.4253C63.5093 68.4011 64.1547 68.2318 64.5742 67.9819C64.5419 68.0464 64.4935 68.1189 64.429 68.1996Z" fill="white"/>
<path d="M63.2269 56.6865C63.4205 56.3076 63.6464 55.9206 63.9207 55.5416C64.1869 55.1627 64.5258 54.8402 64.9373 54.5742C65.7521 54.0582 66.688 53.8324 67.5351 53.7437C68.3822 53.647 69.1486 53.6873 69.8102 53.7679C71.101 53.9211 71.8674 54.2275 71.8674 54.2194C71.8674 54.2194 71.1171 53.8485 69.8182 53.6309C69.1728 53.5099 68.3822 53.4454 67.5028 53.5099C66.6315 53.5825 65.6553 53.784 64.7759 54.3484C64.3402 54.6225 63.9691 54.9853 63.711 55.4046C63.4366 55.7916 63.2027 56.1947 63.0091 56.5898C62.6379 57.3799 62.412 58.1458 62.3233 58.8069C62.2184 59.468 62.2588 60.0082 62.3636 60.3629C62.4524 60.7257 62.5653 60.887 62.5653 60.8951C62.5653 60.8951 62.4605 60.7177 62.404 60.3549C62.3314 60.0001 62.3314 59.468 62.4524 58.8391C62.5815 58.1861 62.8396 57.4444 63.2269 56.6865Z" fill="white"/>
<path d="M65.4536 66.6193C65.0583 66.4178 64.7436 66.1759 64.5339 65.9099C64.1143 65.3858 64.1143 64.9182 64.1143 64.9343C64.1143 64.9343 64.0901 65.031 64.1143 65.2326C64.1385 65.418 64.2031 65.7083 64.3886 66.0227C64.5823 66.3372 64.8646 66.6758 65.2922 66.9338C65.4052 67.0063 65.5181 67.0628 65.6472 67.1273C65.502 67.2885 65.4132 67.482 65.3326 67.6594C65.2115 67.9819 65.1712 68.2721 65.1631 68.5059C65.1389 68.9816 65.26 69.2154 65.26 69.2154C65.26 69.2154 65.2196 68.9735 65.3326 68.5462C65.381 68.3447 65.4697 68.0867 65.6149 67.8368C65.7682 67.6029 66.8574 66.7322 66.8574 66.7322C66.5911 66.8048 65.9699 66.8935 65.4536 66.6193Z" fill="white"/>
<path d="M52.5129 56.9929C52.6823 57.2186 53.0615 57.4202 53.4165 57.396C53.7473 57.3799 54.0377 57.1219 54.2152 56.8639C54.1023 56.8558 53.9813 56.8397 53.8683 56.8316C53.36 56.7994 52.876 56.8074 52.4161 56.8236C52.4323 56.8719 52.4645 56.9364 52.5129 56.9929Z" fill="white"/>
<path d="M57.1035 57.3879C56.7485 57.1219 56.2967 56.8558 55.7481 56.6623C55.5383 56.5817 55.3205 56.5253 55.0946 56.4688C55.0139 56.4527 54.9332 56.4285 54.8445 56.4124C54.5379 56.3479 54.2233 56.3076 53.9006 56.2914C53.1422 56.235 52.4242 56.2834 51.7949 56.3721C51.7061 56.3882 51.6255 56.3963 51.5448 56.4124C51.1737 56.4769 50.8429 56.5494 50.5605 56.6301C50.3992 56.6704 50.2459 56.7107 50.1168 56.7591C50.1975 56.6946 50.2862 56.6301 50.3669 56.5736C50.7058 56.2834 51.0204 56.0012 51.3754 55.7916C51.6739 55.6142 51.9804 55.5013 52.3032 55.4368C52.3435 55.4288 52.3838 55.4207 52.4242 55.4207C52.8598 55.3401 53.2955 55.3482 53.7473 55.4207C53.9732 55.4449 54.1829 55.4933 54.4008 55.5578C54.4492 55.5739 54.4976 55.59 54.5541 55.6062C54.6751 55.6545 54.7961 55.6948 54.9171 55.7593C55.3044 55.9206 55.6593 56.1463 56.0143 56.3882C56.7162 56.8719 57.3697 57.4524 57.999 58.0732C57.5714 57.2992 56.9905 56.6059 56.2967 56.0173C55.9498 55.7271 55.5787 55.4691 55.1672 55.2514C54.7558 55.0498 54.2798 54.8967 53.828 54.8402C53.3681 54.7838 52.9002 54.7757 52.4322 54.8644C51.9643 54.9531 51.5125 55.1466 51.1414 55.4288C50.7622 55.7029 50.4637 56.0576 50.1813 56.3882C49.899 56.7107 49.2778 57.1138 49.3423 57.1058C49.3423 57.1138 49.3342 57.1138 49.3262 57.1219C49.302 57.138 49.2858 57.1622 49.2939 57.1702C49.302 57.2025 49.4149 57.2025 49.6005 57.1864C49.7457 57.4927 49.9474 57.7749 50.1813 58.0329C50.4476 58.299 50.7622 58.5167 51.1011 58.686C51.7788 59.0246 52.5533 59.1294 53.2955 59.1375C54.0539 59.1294 54.7961 59.0085 55.5141 58.8392C56.1837 58.6699 56.8453 58.4522 57.4584 58.1377C57.7812 58.3877 57.9506 58.557 57.999 58.5247C58.0232 58.5005 57.9506 58.3151 57.7489 58.0652C57.6037 57.8394 57.3858 57.6217 57.1035 57.3879ZM52.2467 56.8236C52.2951 57.1864 52.642 57.662 52.642 57.662C52.8356 57.8314 53.1341 57.9604 53.4649 57.9281C53.7312 57.912 53.9651 57.783 54.1345 57.6217C54.1668 57.5814 54.2071 57.5492 54.2394 57.5169C54.4008 57.3154 54.4734 57.0977 54.5137 56.9284C54.5137 56.9203 54.5137 56.9123 54.5218 56.9042C54.6347 56.9203 54.7477 56.9445 54.8606 56.9606C54.8042 57.2267 54.6912 57.4686 54.5218 57.6701C54.4572 57.7427 54.3846 57.8072 54.3201 57.8636C54.0216 58.0974 53.6585 58.2264 53.2874 58.2103C52.9324 58.1942 52.5613 58.049 52.287 57.791C52.166 57.6782 52.0611 57.5411 51.9724 57.3799C51.8917 57.2186 51.8352 57.0412 51.811 56.8558C51.932 56.8477 52.1095 56.7429 52.2467 56.8236ZM56.5307 58.3474C56.1757 58.436 55.8126 58.5086 55.4576 58.5731C54.7477 58.694 54.0135 58.8069 53.2955 58.8069C52.5775 58.8069 51.8594 58.7102 51.1898 58.4441C50.5605 58.1942 50.0039 57.7266 49.6085 57.1541C49.6408 57.1461 49.6731 57.138 49.7134 57.138C49.9474 57.1138 50.262 57.0574 50.6573 57.0009C50.8994 56.9606 51.1737 56.9284 51.4802 56.9042C51.4722 57.0413 51.4883 57.1944 51.5125 57.3396C51.5771 57.6379 51.7061 57.912 51.8998 58.1458C52.2306 58.5409 52.7308 58.7908 53.2632 58.8069C53.5133 58.815 53.7876 58.7666 54.0216 58.6698C54.2556 58.5731 54.4734 58.4119 54.6509 58.2345C54.8042 58.0813 54.9171 57.9039 55.0059 57.7185C55.1027 57.4927 55.1672 57.2589 55.1672 57.0171C55.861 57.1864 56.458 57.4282 56.8937 57.7024C57.0389 57.7991 57.1599 57.8797 57.2729 57.9604C57.3294 58.0007 57.3939 58.041 57.4342 58.0732C57.1277 58.1861 56.8292 58.2748 56.5307 58.3474Z" fill="white"/>
<path d="M58.4266 63.7814C58.4024 63.7169 58.4588 63.5395 58.5637 63.346C58.7816 62.9832 59.0639 62.6365 59.2576 62.4027C59.2818 62.3624 59.2979 62.3382 59.3221 62.314C59.314 62.7575 59.3302 63.1525 59.3947 63.467C59.4915 64.0152 59.669 64.2571 59.7013 64.249C59.7416 64.2248 59.6367 63.9507 59.6045 63.4428C59.5722 62.9348 59.6448 62.185 59.79 61.2659C59.9191 60.3388 60.1289 59.2262 60.1047 57.9442C60.0805 57.3073 59.9837 56.622 59.7336 55.9528C59.4835 55.2837 59.0559 54.6467 58.4911 54.1388C57.3536 53.131 55.9498 52.6473 54.6912 52.478C53.4246 52.3006 52.279 52.3893 51.3431 52.4941C50.3992 52.615 49.6489 52.7682 49.1326 52.8972C48.6162 53.0181 48.3338 53.1068 48.35 53.1391C48.35 53.1713 48.6485 53.1552 49.1729 53.0988C49.6892 53.0423 50.4476 52.9456 51.3834 52.873C52.3112 52.8166 53.4246 52.7763 54.6186 52.9698C55.8126 53.1552 57.1035 53.6228 58.1281 54.5339C58.6363 54.9934 59.0075 55.5416 59.2495 56.1383C59.4835 56.7268 59.5803 57.3557 59.6045 57.9604C59.661 59.1697 59.4996 60.2743 59.4108 61.2176C59.3866 61.4594 59.3705 61.7013 59.3544 61.9351C59.2656 61.9674 59.1446 62.0238 59.0075 62.1286C58.7412 62.3302 58.3863 62.6123 58.1039 63.088C58.0313 63.209 57.9748 63.346 57.9425 63.4831C57.9103 63.6282 57.9022 63.7975 57.9667 63.9668C58.0313 64.1361 58.1684 64.2409 58.2814 64.2893C58.4024 64.3457 58.4992 64.3699 58.596 64.3699C58.9591 64.4103 59.1527 64.3054 59.1527 64.2409C59.0155 64.1845 58.4266 63.854 58.4266 63.7814Z" fill="white"/>
<path d="M58.8461 60.8789C58.838 60.8789 58.959 60.7096 59.0559 60.3468C59.1446 59.9921 59.185 59.4519 59.0881 58.7908C58.9994 58.1297 58.7735 57.3718 58.3943 56.5736C58.2088 56.1786 57.9829 55.7755 57.7005 55.3885C57.4423 54.9773 57.0631 54.6145 56.6275 54.3323C55.7481 53.7679 54.7719 53.5744 53.9006 53.4938C53.0293 53.4293 52.2386 53.4938 51.5932 53.6147C50.2862 53.8324 49.5521 54.2114 49.5521 54.2033C49.5521 54.2033 50.3185 53.905 51.6174 53.7518C52.2548 53.6792 53.0373 53.6389 53.8844 53.7276C54.7316 53.8163 55.6674 54.0421 56.4823 54.558C56.8937 54.8241 57.2326 55.1466 57.4907 55.5255C57.765 55.9045 57.999 56.2914 58.2007 56.6704C58.5879 57.4363 58.83 58.17 58.9671 58.8069C59.0881 59.4438 59.0881 59.9679 59.0155 60.3226C58.9429 60.7016 58.838 60.8789 58.8461 60.8789Z" fill="white"/>
<path d="M55.7804 67.6513C55.7158 67.4739 55.619 67.2805 55.4819 67.1192C55.6029 67.0628 55.7239 66.9983 55.8368 66.9257C56.2644 66.6677 56.5549 66.3291 56.7404 66.0147C56.9179 65.7002 56.9986 65.41 57.0228 65.2245C57.0389 65.031 57.0228 64.9262 57.0228 64.9262C57.0228 64.9101 57.0228 65.3777 56.6033 65.9018C56.3935 66.1678 56.0869 66.442 55.6836 66.6113C55.5061 66.6838 55.3205 66.7564 55.1269 66.7806C55.1027 66.7645 54.546 66.8048 54.2878 66.7241L54.8768 67.224C54.8768 67.224 55.377 67.5949 55.5141 67.8287C55.6674 68.0786 55.7562 68.3366 55.8126 68.5382C55.9256 68.9655 55.8772 69.2074 55.8852 69.2074C55.8852 69.2074 56.0063 68.9735 55.9821 68.4979C55.9498 68.2641 55.9014 67.9738 55.7804 67.6513Z" fill="white"/>
<path d="M64.3322 68.0706C64.3241 68.0625 64.0498 68.4656 63.4851 69.0542C63.2108 69.3444 62.8235 69.6669 62.3314 69.9007C61.8312 70.1426 61.218 70.2716 60.5968 70.2716C59.2979 70.3038 58.233 69.675 57.6521 69.1267C57.0551 68.5462 56.9018 68.0464 56.9018 68.0625C56.9098 68.0464 57.1519 68.4979 57.7892 68.9655C58.4024 69.4331 59.427 69.9088 60.5887 69.8685C61.1777 69.8685 61.7263 69.7637 62.2023 69.5863C62.6702 69.3928 63.0575 69.1348 63.3721 68.8929C63.9691 68.4172 64.3241 68.0544 64.3322 68.0706Z" fill="white"/>
<path d="M70.8267 55.8883C70.8267 55.8883 70.5847 55.8319 69.9392 55.8077C69.2696 55.7755 68.366 55.7916 67.406 55.9367C66.4378 56.0738 65.6069 56.3076 65.0986 56.5494C64.55 56.7832 64.308 57.0009 64.2999 56.9929C64.316 57.0009 64.5016 56.7591 65.0018 56.4849C65.4939 56.1947 66.3249 55.8964 67.3495 55.7593C68.3499 55.6061 69.31 55.6465 69.9554 55.7271C70.6089 55.7916 70.8267 55.8883 70.8267 55.8883Z" fill="white"/>
<path d="M50.738 55.8964C50.738 55.8964 51.1091 55.7755 51.7546 55.711C52.4 55.6465 53.3278 55.5981 54.3282 55.7513C54.5702 55.7916 54.8122 55.84 55.0381 55.9125C55.2398 55.9931 55.4335 56.0657 55.6109 56.1383C55.9821 56.2834 56.2967 56.4366 56.5226 56.5817C56.9663 56.8881 57.1842 57.0977 57.2003 57.0896C57.1922 57.0977 56.9098 56.9122 56.4258 56.6543C56.1838 56.5172 55.861 56.4043 55.4899 56.2673L54.901 56.0657C54.7074 56.0093 54.4895 55.9609 54.2556 55.9286C53.3197 55.7916 52.4161 55.7835 51.7707 55.7996C51.1253 55.8158 50.73 55.8964 50.738 55.8964Z" fill="white"/>
<path d="M64.7598 68.7397C64.7517 68.7397 64.437 69.1832 63.7997 69.8443C63.4851 70.1587 63.0575 70.5135 62.5008 70.7634C61.9522 71.0294 61.2826 71.1665 60.5807 71.1907C59.1446 71.2229 57.9587 70.5296 57.3052 69.933C56.6275 69.3041 56.45 68.7478 56.45 68.7559C56.45 68.7559 56.7162 69.2638 57.4181 69.7878C58.1039 70.32 59.2576 70.8682 60.5726 70.844C61.2342 70.8198 61.8634 70.715 62.3878 70.4973C62.9203 70.2958 63.356 69.9894 63.6867 69.7153C64.3644 69.1348 64.7517 68.7317 64.7598 68.7397Z" fill="white"/>
<path d="M82.7992 61.6207V59.9034H82.8154L82.7992 59.7986V59.6937H82.7911L82.6459 57.9765H82.6621L82.6379 57.8717L82.6217 57.7668L82.3232 56.0657L82.3071 55.9689L82.2748 55.8641L81.8311 54.1952H81.8392L81.7988 54.1065L81.7665 53.9856L81.7504 53.9937L81.1695 52.3731H81.1857L81.1373 52.2844L81.0969 52.1716H81.0889L80.3547 50.6155L80.3144 50.5349L80.266 50.4301H80.2579L79.4027 48.9386L79.3462 48.8579L79.2817 48.7612L79.2736 48.7692L78.2813 47.3583L78.2894 47.3503L78.2248 47.2696L78.1522 47.1809L78.1441 47.189L77.0469 45.8668L76.9743 45.8023L76.9017 45.7136L76.8936 45.7217L75.6754 44.5043L75.6835 44.4962L75.6109 44.4317L75.5302 44.3511L75.5141 44.3591L74.1829 43.2546L74.1909 43.2465L74.1103 43.1901L74.0134 43.1175L74.0054 43.1336L72.6016 42.142L72.5128 42.0936L72.416 42.021L72.408 42.0291L70.9074 41.1664H70.9154L70.8267 41.1261L70.738 41.0616V41.0777L69.1728 40.3441H69.1809L69.0841 40.3038L68.963 40.2635V40.2715L67.3576 39.683V39.6749L67.2607 39.6507L67.1317 39.6104V39.6185L65.4778 39.175V39.167L65.381 39.1508L65.268 39.1267V39.1347L63.5738 38.8364V38.8203H63.477L63.364 38.7961V38.8042L61.6375 38.651V38.6429H61.5407L61.4197 38.6348V38.6429H59.7013V38.6348L59.5964 38.6429H59.4915V38.651L57.7731 38.8042V38.7961L57.6682 38.8122L57.5633 38.8203V38.8364L55.8691 39.1347V39.1267L55.7642 39.1508L55.6593 39.167V39.175L53.9974 39.6185V39.6104L53.7876 39.6749L53.7957 39.683L52.1741 40.2715L52.0692 40.3118L51.9724 40.3521L51.9805 40.3602L50.4234 41.0939V41.0777L50.3266 41.1342L50.2298 41.1826L48.7372 42.0452V42.0372L48.6485 42.1017L48.5597 42.1581H48.5678L47.1559 43.1498L47.1479 43.1336L47.0672 43.2062L46.9784 43.2707L46.9865 43.2788L45.6634 44.3833V44.3753L45.5021 44.5204L45.5101 44.5284L44.2919 45.7459L44.2838 45.7378L44.1386 45.899H44.1467L43.0414 47.2213L43.0333 47.2132L42.9688 47.3019L42.8962 47.3825L42.9123 47.3906L41.92 48.8015V48.7934L41.807 48.9708H41.8151L40.9519 50.4623L40.9034 50.5591L40.847 50.6558H40.8631L40.137 52.2119L40.1289 52.2038L40.0886 52.3086L40.0483 52.4054L39.4593 54.0259L39.4513 54.0178L39.419 54.1226L39.3867 54.2194H39.3948L38.951 55.8883H38.943L38.8946 56.0979H38.9026L38.6041 57.7991H38.588V57.912L38.5719 58.0168L38.4267 59.7341H38.4186V59.8389L38.4105 59.9437H38.4186V61.661H38.4105L38.4186 61.7819V61.8787H38.4267L38.5799 63.604L38.5961 63.7007V63.8217L38.6122 63.8136L38.9107 65.5067H38.9026L38.9268 65.6035L38.943 65.7244L38.951 65.7163L39.3948 67.3691H39.3867L39.419 67.482L39.4513 67.5868H39.4593L40.0483 69.1912L40.1289 69.4008L40.137 69.3928L40.8631 70.9569H40.847L40.9115 71.0456L40.9599 71.1423V71.1342L41.8232 72.6338L41.8151 72.6419L41.8796 72.7306L41.9361 72.8273V72.8193L42.9284 74.2221L42.9123 74.2302L42.9849 74.3108L43.0414 74.3995L43.0495 74.3914L44.1547 75.7217L44.1467 75.7298L44.2193 75.8023L44.2919 75.883L44.3 75.8749L45.5182 77.0923L45.5021 77.1004L45.5827 77.1649L45.6634 77.2536V77.2455L46.9865 78.342L46.9784 78.3501L47.0753 78.4226L47.1559 78.4871L47.164 78.471L48.5759 79.4627L48.5678 79.4707L48.6646 79.5352L48.7534 79.5997V79.5917L50.2459 80.4463V80.4624L50.4395 80.543L51.9966 81.2686L51.9885 81.2767L52.0934 81.317L52.1902 81.3573V81.3412L53.8118 81.9217L53.8038 81.9378L53.9167 81.9701L54.0135 82.0104V82.0023L55.6755 82.4457L55.7884 82.478L55.8852 82.4941V82.4861L57.5795 82.7924L57.6924 82.8085L57.7973 82.8408V82.8247L59.5157 82.9698V82.9779H59.6206L59.7255 82.994V82.9779H61.4439V82.994L61.5649 82.9779H61.6617V82.9698L63.3882 82.8247V82.8408L63.485 82.8085L63.598 82.8005L65.2922 82.4941V82.5022L65.389 82.478L65.502 82.4538L67.1478 82.0104V82.0184L67.2607 81.9781L67.3737 81.9459V81.9298L68.9792 81.3493V81.3654L69.0841 81.317L69.197 81.2767L69.1889 81.2686L70.7541 80.543H70.7622L70.8509 80.5027L70.9477 80.4624L70.9396 80.4463L72.4402 79.5917L72.4483 79.5997L72.5371 79.5352L72.6339 79.4707V79.4627L74.0377 78.471L74.0457 78.4871L74.1264 78.4226L74.2232 78.3501L74.2151 78.342L75.5463 77.2455L75.5544 77.2536L75.6189 77.173L75.7077 77.1085L75.6996 77.1004L76.9178 75.883L76.9259 75.891L76.9824 75.8104L77.0711 75.7379V75.7298L78.1683 74.3995L78.1764 74.4076L78.249 74.3189L78.3136 74.2302L78.2974 74.2221L79.2898 72.8193L79.2978 72.8273L79.3543 72.7387L79.4188 72.65V72.6419L80.2821 71.1423L80.2902 71.1504L80.3386 71.0536L80.3789 70.9649L81.1131 69.4008L81.1211 69.4089L81.1534 69.3041L81.2099 69.1912H81.1937L81.7746 67.5868H81.7908L81.823 67.482L81.8634 67.3691H81.8553L82.299 65.7163V65.7244L82.3313 65.6115L82.3555 65.5067L82.654 63.8136V63.8217L82.6701 63.7088L82.7024 63.604H82.6863L82.8315 61.8787H82.8396V61.7819L82.8557 61.661L82.7992 61.6207ZM82.178 61.7013L77.773 62.2656L82.0086 63.5798L77.5875 63.7572L81.6859 65.4341L77.2567 65.2245L81.1937 67.2482L76.8049 66.6516L80.5483 69.0219L76.2321 68.0383L79.7496 70.715L75.5383 69.3605L78.8138 72.3517L74.7234 70.6344L77.7327 73.8916L73.8198 71.8357L76.5306 75.3428L72.8033 72.9402L75.2075 76.665L71.698 73.9561L73.7634 77.8663L70.504 74.8591L72.2144 78.9386L69.2293 75.6653L70.5847 79.8819L67.9062 76.3587L68.8904 80.672L66.5185 76.9311L67.1075 81.3089L65.0825 77.3745L65.2922 81.8007L63.6222 77.7131L63.4447 82.1313L62.1297 77.8986L61.5649 82.3006L60.6291 77.9711L59.6851 82.3006L59.1204 77.8986L57.8054 82.1313L57.6279 77.7131L55.9498 81.8088L56.1595 77.3826L54.1265 81.317L54.7235 76.9391L52.3596 80.6801L53.3358 76.3667L50.6573 79.89L52.0047 75.6734L49.0277 78.9467L50.738 74.8671L47.4787 77.8744L49.544 73.9641L46.0426 76.6731L48.4387 72.9483L44.7114 75.3509L47.4303 71.8437L43.5093 73.8996L46.5186 70.6424L42.4363 72.3597L45.7118 69.3686L41.4924 70.7231L45.018 68.0464L40.7017 69.03L44.4533 66.6596L40.0644 67.2562L44.0015 65.2326L39.5723 65.4422L43.6787 63.7733L39.2415 63.5959L43.4771 62.2818L39.0801 61.7174L43.4125 60.7822L39.0801 59.8389L43.4771 59.2745L39.2415 57.9603L43.6787 57.783L39.5723 56.106L44.0015 56.3237L40.0644 54.292L44.4533 54.8886L40.7017 52.5182L45.018 53.4938L41.4924 50.8171L45.7118 52.1635L42.4363 49.1885L46.5186 50.8977L43.5093 47.6405L47.4303 49.7045L44.7114 46.2054L48.4387 48.5999L46.0426 44.8751L49.544 47.5921L47.4787 43.6738L50.738 46.6811L49.0277 42.6015L52.0047 45.8749L50.6573 41.6582L53.3358 45.1815L52.3596 40.8681L54.7235 44.6171L54.1265 40.2312L56.1595 44.1737L55.9417 39.7474L57.6198 43.8512L57.7973 39.425L59.1123 43.6577L59.6771 39.2637L60.621 43.5932L61.5569 39.2637L62.1216 43.6577L63.4366 39.425L63.6141 43.8593L65.2842 39.7555L65.0744 44.1898L67.0994 40.2473L66.5105 44.6333L68.8824 40.8842L67.8981 45.1976L70.5847 41.6744L69.2293 45.891L72.2144 42.6177L70.504 46.6972L73.7634 43.69L71.698 47.6163L75.2155 44.8993L72.8033 48.6241L76.5306 46.2296L73.8198 49.7287L77.7327 47.6647L74.7234 50.9219L78.8138 49.2046L75.5383 52.1796L79.7496 50.8332L76.2321 53.518L80.5483 52.5424L76.8049 54.9128L81.1937 54.3081L77.2567 56.3398L81.6859 56.1221L77.5875 57.7991L82.0086 57.9765L77.773 59.2906L82.178 59.855L77.8456 60.766L82.178 61.7013Z" fill="white"/>
</svg>
