<svg width="158" height="28" viewBox="0 0 158 28" fill="none" xmlns="http://www.w3.org/2000/svg">
<g id="logo">
<g id="Vector">
<path d="M12.1406 7.04267C7.32813 3.48206 3.68229 5.04624 2.46094 6.2734C5.12969 1.17425 12.1771 4.14876 15.3672 6.2734C17.6773 7.81195 19.5234 7.35352 20.5078 7.04267C22.0391 6.55914 21.6927 5.08287 21.3281 4.40517C18.1781 0.492893 12.2865 0.357357 9.73438 0.778624C14.5906 -1.06762 19.6969 0.778624 21.3281 2.09737C25.1344 5.17445 23.8255 7.9951 22.6953 9.02079C19.5016 11.7022 15.3672 9.42993 12.1406 7.04267Z" fill="#745D8E"/>
<path d="M14 15.8893C5.08594 9.57025 0.875 13.3983 0 15.8893C1.96875 6.43826 10.026 9.0208 13.4531 11.6033C22.9688 17.9773 26.9063 15.1017 28 12.9221C24.9565 21.0544 15.8261 17.1838 14 15.8893Z" fill="#745D8E"/>
<path d="M7.1094 24.1314C9.77815 27.5162 15.7318 27.6298 18.375 27.2635C16.625 28.2525 12.8516 28.1426 10.0078 27.5382C3.66408 25.5601 3.28126 22.1533 4.32033 20.1752C6.07143 16.8416 11.1172 17.9223 13.0703 19.296C21.2734 25.0656 23.5156 23.6369 25.5938 21.9335C22.3672 27.3734 15.4766 23.2778 13.0703 22.1533C10.6641 21.0289 8.87763 20.9994 8.09377 21.0544C5.55627 21.3181 6.38023 23.2156 7.1094 24.1314Z" fill="#745D8E"/>
</g>
<g id="Frame 1000003880">
<g id="Seekastrology">
<path d="M37.6283 14.3457C37.1468 15.1167 36.906 15.9057 36.906 16.7129C36.906 17.5923 37.225 18.3934 37.863 19.1162C38.2121 19.5258 38.6515 19.8451 39.1812 20.074C39.7229 20.3028 40.3128 20.4173 40.9508 20.4173C41.5888 20.4173 42.1606 20.2968 42.6662 20.0559C43.6774 19.562 44.183 18.7548 44.183 17.6345C44.183 17.2128 44.0385 16.7671 43.7496 16.2973C43.4728 15.8274 43.0514 15.4058 42.4856 15.0323L39.4159 12.9723C38.2242 12.2254 37.6283 11.2617 37.6283 10.0811C37.6283 9.96059 37.6343 9.84012 37.6463 9.71965C37.7186 8.79204 38.0857 8.03911 38.7478 7.46085C39.4219 6.87056 40.3188 6.57541 41.4383 6.57541C42.1245 6.57541 42.9551 6.63564 43.9302 6.75611H45.0497L44.815 9.41245H44.6525C44.6405 8.78601 44.3997 8.28607 43.9302 7.91261C43.4607 7.52711 42.8408 7.33436 42.0703 7.33436C41.1314 7.33436 40.4512 7.61746 40.0299 8.18367C39.8252 8.47279 39.7229 8.78601 39.7229 9.12333C39.7229 9.46064 39.8252 9.74976 40.0299 9.9907C40.2345 10.2196 40.5595 10.4726 41.005 10.7497L44.3816 12.9542C45.0678 13.4 45.6035 13.924 45.9887 14.5264C46.4462 15.2371 46.6749 15.966 46.6749 16.7129C46.6749 17.1947 46.5726 17.7067 46.3679 18.2489C46.1753 18.7789 45.8503 19.2728 45.3928 19.7306C44.9474 20.1884 44.3696 20.5619 43.6593 20.851C42.9491 21.1401 42.1606 21.2847 41.2939 21.2847C40.4392 21.2847 39.6627 21.1341 38.9645 20.8329C37.6764 20.2908 36.8578 19.3451 36.5087 17.9959C36.4365 17.7067 36.4004 17.4056 36.4004 17.0923C36.4004 16.0804 36.7555 15.1227 37.4658 14.2192L37.6283 14.3457Z" fill="#745D8E"/>
<path d="M53.9166 13.1711C53.9166 11.7014 53.405 10.9665 52.3818 10.9665C51.3104 10.9665 50.6603 11.9062 50.4316 13.7855H53.8805C53.9046 13.5445 53.9166 13.3397 53.9166 13.1711ZM52.2193 19.6764C50.9312 19.6764 49.8839 19.2548 49.0773 18.4115C48.2828 17.5682 47.8856 16.4539 47.8856 15.0685C47.8856 13.6831 48.3009 12.5687 49.1315 11.7255C49.9742 10.8822 51.0395 10.4605 52.3276 10.4605C53.6157 10.4605 54.5787 10.7376 55.2167 11.2918C55.8548 11.8339 56.1738 12.5928 56.1738 13.5686C56.1738 13.8457 56.1497 14.1348 56.1015 14.436H50.3774V15.0685C50.3774 16.4177 50.546 17.4417 50.883 18.1404C51.2201 18.8271 51.7257 19.1704 52.3998 19.1704C53.086 19.1704 53.706 19.0319 54.2597 18.7548C54.8255 18.4657 55.2649 18.0621 55.5779 17.5441C55.8427 17.6284 55.9751 17.7549 55.9751 17.9236C55.9751 18.2248 55.6922 18.5741 55.1265 18.9717C54.8496 19.1644 54.4523 19.3331 53.9347 19.4776C53.4291 19.6102 52.8573 19.6764 52.2193 19.6764Z" fill="#745D8E"/>
<path d="M63.5976 13.1711C63.5976 11.7014 63.086 10.9665 62.0628 10.9665C60.9914 10.9665 60.3413 11.9062 60.1126 13.7855H63.5615C63.5856 13.5445 63.5976 13.3397 63.5976 13.1711ZM61.9003 19.6764C60.6122 19.6764 59.5649 19.2548 58.7583 18.4115C57.9638 17.5682 57.5666 16.4539 57.5666 15.0685C57.5666 13.6831 57.9819 12.5687 58.8125 11.7255C59.6552 10.8822 60.7205 10.4605 62.0086 10.4605C63.2967 10.4605 64.2597 10.7376 64.8978 11.2918C65.5358 11.8339 65.8548 12.5928 65.8548 13.5686C65.8548 13.8457 65.8307 14.1348 65.7825 14.436H60.0584V15.0685C60.0584 16.4177 60.227 17.4417 60.564 18.1404C60.9011 18.8271 61.4067 19.1704 62.0808 19.1704C62.767 19.1704 63.387 19.0319 63.9407 18.7548C64.5065 18.4657 64.9459 18.0621 65.2589 17.5441C65.5237 17.6284 65.6561 17.7549 65.6561 17.9236C65.6561 18.2248 65.3733 18.5741 64.8075 18.9717C64.5306 19.1644 64.1333 19.3331 63.6157 19.4776C63.1101 19.6102 62.5383 19.6764 61.9003 19.6764Z" fill="#745D8E"/>
<path d="M66.9587 19.4776V18.7187L67.7351 18.5922C67.9638 18.556 68.0782 18.4235 68.0782 18.1946V9.28596C68.0782 9.05707 67.9638 8.92455 67.7351 8.88841L66.8142 8.76192V8.05718C67.2235 7.93671 67.6749 7.84636 68.1685 7.78612C68.6741 7.71384 69.1376 7.67167 69.5589 7.65963L69.7936 7.87647V18.1946C69.7936 18.4235 69.908 18.556 70.1367 18.5922L70.8951 18.7187V19.4776H66.9587ZM73.1161 19.4776C72.9235 19.4776 72.755 19.3632 72.6105 19.1343C72.4781 18.9054 72.3216 18.6223 72.141 18.285L71.4549 16.9116C71.3225 16.6587 71.1961 16.4237 71.0757 16.2069C70.9553 15.978 70.8229 15.7732 70.6784 15.5925L71.8341 14.4721C72.0387 14.701 72.2133 14.9299 72.3577 15.1588C72.5022 15.3757 72.6587 15.6407 72.8272 15.9539L74.0912 18.1404C74.1514 18.2609 74.2176 18.3512 74.2898 18.4115C74.3741 18.4717 74.4704 18.5139 74.5788 18.538L75.3552 18.7187V19.4776H73.1161ZM69.5408 17.255L69.4325 16.243L72.9356 12.4663L72.9897 12.9362L71.3104 12.629V11.9242H74.9941V12.629L74.2176 12.8277C74.0611 12.8639 73.9407 12.9 73.8565 12.9362C73.7842 12.9603 73.7 13.0145 73.6037 13.0988L69.5408 17.255Z" fill="#745D8E"/>
<path d="M88.8628 19.2969H89.0253V19.4776H83.2651V19.2969H83.4276C83.6924 19.2969 83.885 19.2186 84.0054 19.062C84.1378 18.8934 84.204 18.7368 84.204 18.5922C84.204 18.4476 84.174 18.3031 84.1138 18.1585L83.229 15.9358H79.0036L78.0646 18.1585C78.0044 18.3151 77.9743 18.4657 77.9743 18.6103C77.9743 18.7428 78.0345 18.8934 78.1549 19.062C78.2873 19.2186 78.492 19.2969 78.7689 19.2969H78.9133V19.4776H75.0491V19.2969H75.2116C75.4885 19.2969 75.7654 19.2126 76.0422 19.0439C76.3191 18.8753 76.5478 18.6223 76.7284 18.285L80.8996 8.8342C81.4654 7.64156 81.7663 6.85249 81.8024 6.46699H81.965L87.3279 18.2489C87.5085 18.5982 87.7372 18.8632 88.0141 19.0439C88.291 19.2126 88.5739 19.2969 88.8628 19.2969ZM79.3106 15.1769H82.922L81.1704 10.7316L79.3106 15.1769Z" fill="#745D8E"/>
<path d="M92.5251 19.2247C92.9465 19.2247 93.2956 19.0921 93.5724 18.8271C93.8493 18.55 93.9878 18.1043 93.9878 17.4899C93.9878 16.996 93.7831 16.6225 93.3738 16.3695C93.0608 16.1768 92.6575 15.9901 92.164 15.8094C91.6825 15.6166 91.3093 15.454 91.0444 15.3215C90.7916 15.1889 90.5087 15.0143 90.1958 14.7974C89.5818 14.3637 89.2748 13.7734 89.2748 13.0265C89.2748 12.2796 89.5818 11.6652 90.1958 11.1833C90.8217 10.7015 91.7306 10.4605 92.9224 10.4605C93.6687 10.4605 94.3007 10.6232 94.8184 10.9484C95.336 11.2617 95.5948 11.6592 95.5948 12.1411C95.5948 12.623 95.3902 12.9723 94.9809 13.1892C94.7883 13.2855 94.5957 13.3337 94.4031 13.3337L93.753 13.1349C93.8252 12.7615 93.8614 12.4242 93.8614 12.123C93.8614 11.8098 93.765 11.5327 93.5724 11.2918C93.3798 11.0388 93.0909 10.9123 92.7057 10.9123C91.7667 10.9123 91.2972 11.4785 91.2972 12.6109C91.2972 13.1289 91.4959 13.5144 91.8931 13.7674C92.1941 13.9722 92.5793 14.1589 93.0488 14.3276C93.5183 14.4842 93.8854 14.6227 94.1503 14.7432C94.4271 14.8637 94.7221 15.0323 95.0351 15.2492C95.661 15.6588 95.974 16.2671 95.974 17.0743C95.974 17.8694 95.643 18.5018 94.9809 18.9717C94.3188 19.4415 93.446 19.6764 92.3626 19.6764C91.1588 19.6764 90.268 19.4776 89.6902 19.0801C89.3531 18.8391 89.1846 18.544 89.1846 18.1946C89.1846 17.8453 89.2989 17.5622 89.5276 17.3453C89.7684 17.1285 90.0995 17.014 90.5208 17.002C90.6051 18.4838 91.2732 19.2247 92.5251 19.2247Z" fill="#745D8E"/>
<path d="M100.491 19.6764C99.3353 19.6764 98.601 19.2728 98.288 18.4657C98.1556 18.1163 98.0894 17.6766 98.0894 17.1466C98.0894 15.1468 98.1195 13.141 98.1797 11.1291H96.9518V10.6593H98.1977L98.2158 8.00296H100.527L100.473 10.6593H103.001V11.1291H100.473L100.437 12.5928C100.401 14.5444 100.383 16.3334 100.383 17.9597C100.383 18.4296 100.431 18.7488 100.527 18.9175C100.635 19.0861 100.822 19.1704 101.087 19.1704C101.364 19.1704 101.665 18.9837 101.99 18.6103C102.327 18.2248 102.568 17.767 102.712 17.2369C102.953 17.2369 103.073 17.3212 103.073 17.4899C103.073 17.526 103.067 17.5682 103.055 17.6164C102.862 18.2428 102.531 18.7428 102.062 19.1162C101.605 19.4897 101.081 19.6764 100.491 19.6764Z" fill="#745D8E"/>
<path d="M107.264 12.7916C107.469 12.1411 107.842 11.5869 108.384 11.1291C108.937 10.6714 109.437 10.4425 109.882 10.4425C110.34 10.4425 110.647 10.5569 110.803 10.7858C110.96 11.0026 111.038 11.1833 111.038 11.3279C111.038 11.8218 110.857 12.1772 110.496 12.3941C110.256 12.2013 109.894 12.1049 109.413 12.1049C108.943 12.1049 108.474 12.2555 108.004 12.5567C107.535 12.8458 107.3 13.1651 107.3 13.5144V18.9536L108.925 19.062V19.4776H103.887V19.062L105.079 18.9717V11.2556L103.617 11.1833V10.7677L107.3 10.569L107.192 12.7916H107.264Z" fill="#745D8E"/>
<path d="M119.882 18.3753C119.039 19.2427 117.89 19.6764 116.433 19.6764C114.977 19.6764 113.827 19.2427 112.984 18.3753C112.142 17.508 111.72 16.4057 111.72 15.0685C111.72 13.7313 112.142 12.629 112.984 11.7616C113.827 10.8942 114.977 10.4605 116.433 10.4605C117.89 10.4605 119.039 10.8942 119.882 11.7616C120.725 12.629 121.146 13.7313 121.146 15.0685C121.146 16.4057 120.725 17.508 119.882 18.3753ZM114.23 15.0685C114.23 17.8513 114.965 19.2427 116.433 19.2427C117.902 19.2427 118.636 17.8513 118.636 15.0685C118.636 13.7072 118.474 12.6772 118.149 11.9784C117.824 11.2677 117.252 10.9123 116.433 10.9123C115.615 10.9123 115.043 11.2677 114.718 11.9784C114.393 12.6772 114.23 13.7072 114.23 15.0685Z" fill="#745D8E"/>
<path d="M126.863 19.4776H122.204V19.062L123.378 18.9536V6.50313L121.825 6.44892V6.01523L125.689 5.59961V18.9536L126.863 19.062V19.4776Z" fill="#745D8E"/>
<path d="M136.088 18.3753C135.245 19.2427 134.095 19.6764 132.639 19.6764C131.182 19.6764 130.032 19.2427 129.19 18.3753C128.347 17.508 127.926 16.4057 127.926 15.0685C127.926 13.7313 128.347 12.629 129.19 11.7616C130.032 10.8942 131.182 10.4605 132.639 10.4605C134.095 10.4605 135.245 10.8942 136.088 11.7616C136.93 12.629 137.352 13.7313 137.352 15.0685C137.352 16.4057 136.93 17.508 136.088 18.3753ZM130.436 15.0685C130.436 17.8513 131.17 19.2427 132.639 19.2427C134.107 19.2427 134.842 17.8513 134.842 15.0685C134.842 13.7072 134.679 12.6772 134.354 11.9784C134.029 11.2677 133.457 10.9123 132.639 10.9123C131.82 10.9123 131.248 11.2677 130.923 11.9784C130.598 12.6772 130.436 13.7072 130.436 15.0685Z" fill="#745D8E"/>
<path d="M144.116 10.5509C144.658 10.3461 144.929 9.79193 144.929 8.88841C144.929 8.64747 144.898 8.42461 144.838 8.21981C145.043 8.07525 145.248 8.00296 145.452 8.00296C145.657 8.00296 145.849 8.03911 146.03 8.11139C146.463 8.29209 146.68 8.59929 146.68 9.03297C146.68 9.45462 146.493 9.82205 146.12 10.1353C145.759 10.4485 145.26 10.6473 144.622 10.7316C145.344 10.9725 145.898 11.352 146.283 11.87C146.668 12.376 146.861 13.0085 146.861 13.7674C146.861 14.5143 146.487 15.213 145.741 15.8636C144.995 16.5021 144.098 16.8213 143.051 16.8213C142.003 16.8213 141.48 17.1044 141.48 17.6706C141.48 17.9477 141.672 18.1404 142.057 18.2489C142.455 18.3452 143.231 18.4476 144.387 18.556C145.542 18.6524 146.415 18.8693 147.005 19.2066C147.595 19.5318 147.89 20.0559 147.89 20.7787C147.89 21.7184 147.426 22.5195 146.5 23.1821C145.585 23.8446 144.387 24.1759 142.906 24.1759C141.438 24.1759 140.354 23.947 139.656 23.4893C138.958 23.0435 138.609 22.4472 138.609 21.7003C138.609 21.2184 138.783 20.7546 139.132 20.3089C139.481 19.8631 139.993 19.5499 140.667 19.3692C139.824 19.056 139.403 18.6163 139.403 18.0501C139.403 17.6525 139.608 17.3273 140.017 17.0743C140.426 16.8213 140.884 16.6888 141.389 16.6767C140.583 16.4599 139.957 16.0864 139.511 15.5564C139.078 15.0143 138.861 14.3818 138.861 13.659C138.861 12.7314 139.229 11.9664 139.963 11.364C140.697 10.7617 141.684 10.4605 142.924 10.4605C143.358 10.4605 143.755 10.4906 144.116 10.5509ZM140.541 21.5015C140.541 22.1641 140.739 22.6761 141.137 23.0375C141.534 23.4109 142.13 23.5977 142.924 23.5977C143.731 23.5977 144.429 23.3869 145.019 22.9652C145.621 22.5436 145.922 22.0436 145.922 21.4654C145.934 20.8871 145.771 20.5137 145.434 20.345C145.109 20.1764 144.519 20.0378 143.665 19.9294L143.448 19.9113C142.497 19.7909 141.835 19.7005 141.462 19.6403C141.197 19.7848 140.974 20.0318 140.793 20.3812C140.625 20.7305 140.541 21.104 140.541 21.5015ZM142.798 16.4599C143.364 16.4599 143.785 16.2009 144.062 15.6829C144.339 15.1648 144.477 14.4902 144.477 13.659C144.477 11.7917 143.959 10.8581 142.924 10.8581C142.358 10.8581 141.937 11.1111 141.66 11.617C141.383 12.111 141.245 12.7916 141.245 13.659C141.245 15.5263 141.763 16.4599 142.798 16.4599Z" fill="#745D8E"/>
<path d="M153.351 10.6593H156.8V11.1111L155.536 11.4725L152.611 19.4776C152.106 20.8028 151.57 21.887 151.004 22.7303C150.318 23.7543 149.487 24.2663 148.512 24.2663C148.44 24.2663 148.362 24.2603 148.277 24.2482C147.88 24.2482 147.561 24.1277 147.32 23.8868C147.08 23.6579 146.959 23.3507 146.959 22.9652C146.959 22.5918 147.128 22.2123 147.465 21.8268C147.862 22.2725 148.295 22.4954 148.765 22.4954C149.427 22.4954 149.987 22.2484 150.444 21.7545C150.902 21.2726 151.329 20.5137 151.726 19.4776L148.259 11.2195L147.357 11.0388V10.6593H151.528V11.0388L150.462 11.2014L152.774 17.0923L154.778 11.4725L153.351 11.1111V10.6593Z" fill="#745D8E"/>
</g>
</g>
</g>
</svg>
