<svg width="194" height="195" viewBox="0 0 194 195" fill="none" xmlns="http://www.w3.org/2000/svg">
<path d="M121.957 191.731L115.534 167.488L115.92 167.383C127.874 164.114 138.869 157.721 147.716 148.893L147.997 148.61L165.674 166.323L165.384 166.606C153.423 178.566 138.539 187.216 122.336 191.618L121.957 191.731ZM116.516 168.054L122.521 190.736C138.306 186.374 152.819 177.943 164.531 166.323L147.989 149.751C139.199 158.433 128.332 164.753 116.516 168.054Z" fill="white"/>
<path d="M165.465 166.541L147.844 148.772L148.126 148.489C156.9 139.596 163.259 128.542 166.519 116.526L166.624 116.138L190.74 122.595L190.635 122.992C186.256 139.272 177.652 154.242 165.754 166.258L165.465 166.541ZM148.979 148.764L165.465 165.384C177.024 153.603 185.411 139.021 189.75 123.153L167.187 117.117C163.903 128.996 157.616 139.919 148.979 148.764Z" fill="white"/>
<path d="M96.996 195C88.5843 195 80.2209 193.908 72.1312 191.755L71.7368 191.65L78.2327 167.423L78.6191 167.529C90.5645 170.692 103.411 170.692 115.365 167.529L115.751 167.423L122.247 191.65L121.853 191.755C113.779 193.908 105.408 195 96.996 195ZM72.7269 191.084C88.5279 195.21 105.472 195.21 121.265 191.084L115.188 168.419C103.347 171.485 90.653 171.485 78.8122 168.419L72.7269 191.084Z" fill="white"/>
<path d="M45.9785 46.3708L28.3099 28.6579L28.5997 28.3747C40.5612 16.4151 55.4447 7.76504 71.6563 3.36313L72.0426 3.25794L78.4661 27.5008L78.0797 27.606C66.1182 30.8751 55.1146 37.2595 46.2683 46.0876L45.9785 46.3708ZM29.4449 28.6579L45.9785 45.2217C54.7766 36.5393 65.6514 30.2196 77.468 26.9263L71.4631 4.24514C55.6781 8.60659 41.1649 17.0382 29.4449 28.6579Z" fill="white"/>
<path d="M166.624 78.8591L166.519 78.4707C163.267 66.4464 156.908 55.3931 148.134 46.5002L147.852 46.217L165.473 28.4475L165.754 28.7389C177.652 40.7632 186.256 55.7248 190.635 72.0135L190.74 72.4019L166.624 78.8591ZM148.987 46.217C157.624 55.0613 163.911 65.9933 167.195 77.8719L189.758 71.8355C185.419 55.9676 177.032 41.3782 165.473 29.6047L148.987 46.217Z" fill="white"/>
<path d="M190.659 122.886L166.559 116.356L166.664 115.968C168.242 109.964 169.039 103.749 169.039 97.5025C169.039 91.2557 168.242 85.0412 166.672 79.0372L166.567 78.6488L190.668 72.1187L190.772 72.5152C192.913 80.6474 194 89.0547 194 97.5106C194 105.966 192.913 114.382 190.772 122.506L190.659 122.886ZM167.541 115.782L190.088 121.891C192.141 113.953 193.187 105.748 193.187 97.4944C193.187 89.2409 192.149 81.0358 190.096 73.0978L167.549 79.2071C169.071 85.1545 169.844 91.3043 169.844 97.4944C169.844 103.677 169.071 109.826 167.541 115.782Z" fill="white"/>
<path d="M148.005 46.3708L147.724 46.0876C138.877 37.2676 127.882 30.8751 115.92 27.606L115.534 27.5008L121.957 3.25794L122.352 3.36313C138.555 7.76504 153.439 16.4151 165.4 28.3747L165.69 28.6579L148.005 46.3708ZM116.516 26.9344C128.332 30.2358 139.199 36.5555 148.005 45.2379L164.539 28.666C152.819 17.0463 138.314 8.61468 122.521 4.25322L116.516 26.9344Z" fill="white"/>
<path d="M3.33247 122.886L3.22783 122.49C1.08668 114.358 0 105.95 0 97.4944C0 89.0386 1.08668 80.6231 3.21978 72.499L3.32442 72.1025L27.4245 78.6326L27.3199 79.021C25.7502 85.0251 24.9533 91.2395 24.9533 97.4864C24.9533 103.733 25.7502 109.948 27.3279 115.952L27.4326 116.34L3.33247 122.886ZM3.89593 73.0978C1.84332 81.0358 0.804946 89.2409 0.804946 97.4944C0.804946 105.748 1.84332 113.953 3.90399 121.891L26.4505 115.782C24.9292 109.826 24.1564 103.677 24.1564 97.4944C24.1564 91.3123 24.9292 85.1626 26.4505 79.2071L3.89593 73.0978Z" fill="white"/>
<path d="M28.5273 166.541L28.2455 166.25C16.3484 154.226 7.74358 139.264 3.36468 122.975L3.26004 122.579L27.3762 116.122L27.4808 116.51C30.7328 128.534 37.0919 139.588 45.8658 148.481L46.1475 148.764L28.5273 166.541ZM4.24207 123.161C8.58072 139.029 16.9683 153.619 28.5273 165.4L45.0126 148.78C36.3755 139.936 30.0889 129.004 26.8047 117.125L4.24207 123.161Z" fill="white"/>
<path d="M72.0346 191.731L71.6482 191.626C55.4447 187.224 40.5612 178.574 28.5997 166.614L28.3099 166.331L45.9866 148.618L46.2683 148.901C55.1146 157.729 66.1102 164.114 78.0717 167.383L78.4581 167.488L72.0346 191.731ZM29.453 166.323C41.173 177.943 55.6861 186.374 71.4711 190.736L77.476 168.055C65.6594 164.753 54.7927 158.433 45.9866 149.751L29.453 166.323Z" fill="white"/>
<path d="M27.3682 78.8591L3.25199 72.4019L3.35663 72.0135C7.73553 55.7248 16.3404 40.7551 28.2375 28.7308L28.5192 28.4395L46.1395 46.2008L45.8578 46.4841C37.0839 55.3769 30.7248 66.4302 27.4728 78.4626L27.3682 78.8591ZM4.24207 71.8274L26.8047 77.8639C30.0889 65.9852 36.3675 55.0532 45.0045 46.2089L28.5273 29.5885C16.9602 41.3701 8.57267 55.9595 4.24207 71.8274Z" fill="white"/>
<path d="M115.751 27.5575L115.365 27.4523C103.411 24.2884 90.5645 24.2884 78.6191 27.4523L78.2327 27.5575L71.7368 3.33076L72.1312 3.22557C88.3026 -1.07114 105.681 -1.07924 121.861 3.22557L122.255 3.33076L115.751 27.5575ZM96.996 24.2641C103.146 24.2641 109.263 25.0409 115.188 26.5703L121.265 3.90528C105.464 -0.229606 88.5199 -0.221514 72.7269 3.90528L78.8042 26.5703C84.7286 25.0409 90.8462 24.2641 96.996 24.2641Z" fill="white"/>
<path d="M138.612 17.7098C138.668 18.4057 138.571 19.2311 138.266 20.0969C138.105 20.5581 137.895 21.0274 137.646 21.4967C135.488 20.3396 133.79 19.7246 133.79 19.7246C133.79 19.7246 135.126 20.9465 137.147 22.3302C137.058 22.4678 136.962 22.6053 136.865 22.7429C135.633 24.4988 134.136 25.8258 132.921 26.5541C132.309 26.9182 131.77 27.1367 131.375 27.2419C130.981 27.3471 130.755 27.3633 130.755 27.3633C130.755 27.3633 130.981 27.4199 131.399 27.4037C131.818 27.3956 132.438 27.2985 133.146 27.0315C134.571 26.5055 136.374 25.2756 137.734 23.3497C137.839 23.2041 137.936 23.0504 138.032 22.9047C138.233 23.0342 138.443 23.1636 138.66 23.2931C138.998 23.4954 139.328 23.6896 139.65 23.8676C139.425 24.3693 139.264 24.8791 139.175 25.3727C139.006 26.3356 138.982 27.1933 138.998 27.9216C139.014 28.6418 139.087 29.2324 139.167 29.6209C139.248 30.0173 139.328 30.2277 139.328 30.2277C139.328 30.2277 139.312 30.0093 139.328 29.6128C139.344 29.2163 139.409 28.6499 139.521 27.9621C139.634 27.2743 139.795 26.4489 140.044 25.5831C140.165 25.1785 140.334 24.7658 140.544 24.3531C142.548 25.397 144.077 25.9634 144.077 25.9634C144.077 25.9634 142.87 24.8629 141.01 23.5601C141.115 23.3983 141.228 23.2365 141.348 23.0827C141.96 22.2735 142.677 21.61 143.393 21.0922C144.109 20.5743 144.842 20.2182 145.486 19.9998C146.13 19.7813 146.693 19.7004 147.08 19.6842C147.474 19.6599 147.691 19.6761 147.691 19.6761C147.691 19.6761 147.482 19.5952 147.088 19.5224C146.693 19.4495 146.098 19.3848 145.365 19.49C144.633 19.5871 143.771 19.8541 142.91 20.3396C142.057 20.8251 141.196 21.5291 140.495 22.4435C140.358 22.6215 140.238 22.7995 140.125 22.9856C139.827 22.7914 139.513 22.5972 139.191 22.3949C138.966 22.2574 138.74 22.1279 138.523 21.9984C138.781 21.4563 138.99 20.898 139.111 20.3558C139.352 19.3524 139.328 18.3814 139.119 17.6289C138.918 16.8683 138.563 16.3423 138.298 16.0186C138.032 15.695 137.847 15.5493 137.847 15.5493C137.847 15.5493 137.976 15.7435 138.153 16.1076C138.346 16.4556 138.555 17.0139 138.612 17.7098Z" fill="white"/>
<path d="M177.249 59.6979C177.507 59.2852 177.635 58.7754 177.627 58.2737C177.627 57.772 177.507 57.2865 177.33 56.8415C177.152 56.3884 176.911 55.9595 176.605 55.5549C176.299 55.1503 175.913 54.7862 175.47 54.503C175.027 54.2198 174.528 54.0256 174.037 53.9204C173.546 53.8152 173.055 53.7828 172.588 53.8071C171.647 53.8475 170.785 54.066 169.996 54.325C169.699 54.4302 169.417 54.5354 169.143 54.6486C169.353 54.4625 169.562 54.2683 169.771 54.0579C170.351 53.4672 170.914 52.7875 171.365 51.9622C171.582 51.5495 171.775 51.0964 171.896 50.6109C172.017 50.1173 172.057 49.5913 171.993 49.0653C171.928 48.5394 171.751 48.0296 171.51 47.5926C171.268 47.1476 170.97 46.7511 170.632 46.4112C170.294 46.0714 169.9 45.772 169.441 45.5697C168.99 45.3674 168.475 45.2946 168 45.3674C167.525 45.4402 167.099 45.6344 166.753 45.8772C166.406 46.1199 166.117 46.4112 165.883 46.7187C165.416 47.3337 165.127 47.9972 164.998 48.6284C164.869 49.2595 164.901 49.8988 165.199 50.3762C165.344 50.6109 165.553 50.7727 165.762 50.8617C165.972 50.9507 166.173 50.9831 166.342 50.9912C166.696 50.9993 166.954 50.9426 167.131 50.8941C167.308 50.8455 167.396 50.8131 167.396 50.8131C167.396 50.8131 167.308 50.8293 167.131 50.8455C166.954 50.8617 166.688 50.8779 166.374 50.8212C166.06 50.7646 165.674 50.5947 165.505 50.2063C165.328 49.826 165.352 49.2919 165.521 48.7578C165.69 48.2238 166.004 47.6655 166.447 47.188C166.881 46.7106 167.485 46.306 168.121 46.2575C168.435 46.2332 168.757 46.298 169.063 46.4436C169.369 46.5973 169.658 46.8239 169.924 47.1071C170.455 47.6735 170.866 48.4099 170.954 49.1867C171.059 49.9716 170.842 50.7646 170.487 51.4848C170.125 52.2049 169.642 52.8523 169.135 53.4349C168.145 54.5677 167.083 55.4578 166.157 56.1861C166.141 56.1942 166.125 56.2022 166.117 56.2103C165.07 56.8496 164.265 57.4322 163.718 57.8368C163.171 58.2414 162.873 58.4841 162.873 58.4841C162.873 58.4841 163.219 58.3466 163.839 58.0553C164.45 57.764 165.336 57.327 166.374 56.6878C166.406 56.6716 166.431 56.6473 166.463 56.6311C167.533 56.1294 168.821 55.5711 170.278 55.1665C171.027 54.9642 171.824 54.8105 172.637 54.8024C173.442 54.7943 174.255 54.948 174.931 55.3769C175.607 55.7977 176.106 56.4855 176.42 57.2056C176.573 57.5698 176.678 57.9339 176.694 58.2818C176.71 58.6298 176.645 58.9534 176.5 59.2367C176.203 59.8112 175.591 60.1996 174.979 60.41C174.359 60.6203 173.723 60.6851 173.16 60.6203C172.604 60.5637 172.105 60.3695 171.824 60.0458C171.542 59.7302 171.534 59.3014 171.614 58.9858C171.695 58.6621 171.824 58.4275 171.904 58.2737C171.993 58.12 172.049 58.0391 172.041 58.0391C172.041 58.0391 171.977 58.1038 171.864 58.2495C171.751 58.3951 171.59 58.6055 171.453 58.9373C171.389 59.0991 171.333 59.3014 171.333 59.528C171.333 59.7545 171.397 60.0135 171.55 60.24C171.864 60.7094 172.435 61.0007 173.063 61.1382C173.699 61.2758 174.424 61.2839 175.172 61.0978C175.551 61.0007 175.937 60.855 176.299 60.6284C176.645 60.4342 176.999 60.1187 177.249 59.6979Z" fill="white"/>
<path d="M186.699 105.012C186.755 104.915 186.836 104.753 186.876 104.518C186.916 104.283 186.892 103.984 186.788 103.668C186.683 103.353 186.506 103.021 186.289 102.673C185.854 101.985 185.242 101.265 184.703 100.432C184.155 99.6064 183.697 98.6434 183.817 97.632C183.842 97.3811 183.898 97.1303 183.978 96.8875C184.019 96.7662 184.067 96.6448 184.115 96.5315C184.139 96.4749 184.164 96.4182 184.196 96.3535L184.22 96.3049C184.236 96.2726 184.252 96.2321 184.252 96.2321C184.26 96.2078 184.268 96.1836 184.284 96.1593C184.373 95.9732 184.518 95.7709 184.671 95.5767C184.832 95.3825 185.001 95.1964 185.178 95.0102C185.878 94.2739 186.594 93.5861 186.949 92.785C187.126 92.3885 187.174 91.9435 187.061 91.6036C186.957 91.2638 186.764 91.0372 186.603 90.8754C186.272 90.5679 186.047 90.4627 186.047 90.4627C186.039 90.4627 186.232 90.6326 186.474 90.9887C186.586 91.1667 186.707 91.4013 186.731 91.6764C186.755 91.9516 186.675 92.251 186.482 92.5423C186.289 92.8336 186.007 93.1249 185.677 93.4243C185.347 93.7237 184.968 94.0231 184.566 94.371C184.365 94.5409 184.164 94.727 183.962 94.9374C183.761 95.1478 183.552 95.3825 183.383 95.7061C183.359 95.7466 183.342 95.7871 183.318 95.8275C183.302 95.8599 183.31 95.8518 183.31 95.8518L183.286 95.9003C183.27 95.9327 183.254 95.9732 183.23 96.0055C183.109 95.7709 182.972 95.5443 182.827 95.3339C182.191 94.4357 181.298 93.7884 180.356 93.4485C179.414 93.1087 178.44 93.0682 177.587 93.2382C176.726 93.4081 175.993 93.7884 175.422 94.2415C174.85 94.7028 174.448 95.2287 174.174 95.7223C173.9 96.224 173.748 96.6933 173.667 97.0817C173.587 97.4701 173.57 97.7776 173.57 97.9799C173.57 98.1903 173.579 98.2955 173.579 98.2955C173.587 98.2955 173.587 97.8585 173.836 97.1303C173.965 96.7662 174.158 96.3454 174.464 95.9084C174.77 95.4715 175.196 95.0345 175.744 94.6785C176.291 94.3225 176.959 94.0473 177.708 93.9583C178.448 93.8693 179.269 93.9583 180.034 94.2901C180.799 94.6137 181.499 95.1721 181.998 95.9165C182.497 96.6529 182.779 97.5753 182.755 98.5221C182.731 99.4688 182.409 100.367 181.869 101.087C181.338 101.807 180.606 102.333 179.833 102.616C179.06 102.908 178.231 102.956 177.499 102.835C176.758 102.714 176.098 102.406 175.567 102.018C175.035 101.629 174.633 101.176 174.351 100.723C174.061 100.27 173.892 99.841 173.78 99.4769C173.57 98.7405 173.595 98.2955 173.579 98.2955C173.579 98.2955 173.562 98.4007 173.554 98.6111C173.546 98.8134 173.554 99.1209 173.611 99.5174C173.675 99.9058 173.796 100.383 174.045 100.901C174.295 101.411 174.681 101.961 175.229 102.447C175.776 102.932 176.492 103.345 177.338 103.555C178.183 103.766 179.157 103.774 180.107 103.482C181.056 103.191 181.982 102.592 182.666 101.726C183.004 101.306 183.278 100.82 183.471 100.286C183.632 100.545 183.801 100.78 183.978 100.998C184.663 101.84 185.363 102.455 185.87 103.029C186.128 103.312 186.337 103.579 186.482 103.838C186.627 104.097 186.699 104.34 186.715 104.542C186.731 104.753 186.691 104.915 186.659 105.028C186.627 105.141 186.603 105.198 186.603 105.198C186.594 105.157 186.635 105.109 186.699 105.012Z" fill="white"/>
<path d="M90.4195 10.8561C90.669 10.6295 90.9668 10.403 91.321 10.2654C91.4981 10.2007 91.6832 10.1602 91.8764 10.1521C92.0616 10.144 92.2145 10.1926 92.3594 10.2978C92.5043 10.403 92.6411 10.5729 92.7779 10.7833C92.9148 10.9936 93.0516 11.2445 93.2207 11.5196C93.3897 11.7866 93.607 12.086 93.9371 12.3207C94.1061 12.434 94.2993 12.523 94.5086 12.5715C94.7098 12.6201 94.9191 12.6201 95.1123 12.5958C95.1606 12.5877 95.2089 12.5796 95.2652 12.5715C95.3216 12.5635 95.386 12.5392 95.4343 12.523C95.5389 12.4825 95.6355 12.434 95.7321 12.3854C95.9172 12.2721 96.0782 12.1346 96.207 11.997C96.4727 11.7138 96.6658 11.4387 96.859 11.2121C97.0522 10.9856 97.2293 10.8318 97.4225 10.7428C97.5996 10.6619 97.8652 10.6295 97.9618 10.6781C98.0986 10.7185 98.2838 10.8885 98.4689 11.0988C98.6541 11.3092 98.8472 11.5601 99.0968 11.8028C99.2256 11.9242 99.3705 12.0375 99.5475 12.1184C99.5958 12.1427 99.6361 12.1589 99.6844 12.175C99.7085 12.1831 99.7407 12.1912 99.7649 12.1993L99.8212 12.2155C99.8937 12.2317 99.9742 12.2398 100.047 12.256C100.352 12.2964 100.65 12.2721 100.932 12.1993C101.496 12.0537 101.938 11.7138 102.252 11.3578C102.566 10.9937 102.775 10.6133 102.928 10.2735C103.081 9.93363 103.17 9.62615 103.234 9.3753C103.355 8.86552 103.363 8.58231 103.371 8.58231C103.371 8.58231 103.291 8.85743 103.081 9.31057C102.977 9.53714 102.832 9.80417 102.647 10.0874C102.453 10.3706 102.212 10.67 101.906 10.9289C101.6 11.1798 101.222 11.3821 100.811 11.4225C100.61 11.4468 100.393 11.4306 100.175 11.374C100.119 11.3578 100.071 11.3416 100.014 11.3254L99.9742 11.3092C99.9661 11.3092 99.9661 11.3011 99.9581 11.3011C99.95 11.293 99.9259 11.285 99.9098 11.2769C99.8454 11.2364 99.7649 11.1636 99.6924 11.0827C99.5395 10.9046 99.3785 10.67 99.1773 10.403C99.0807 10.2735 98.968 10.1359 98.8311 9.99837C98.6943 9.86081 98.5172 9.73134 98.3079 9.63424C98.2033 9.59378 98.0825 9.55332 97.9618 9.54523C97.9055 9.53714 97.833 9.53714 97.7928 9.53714C97.7445 9.53714 97.6962 9.53714 97.6479 9.53714C97.4466 9.55332 97.2454 9.59378 97.0442 9.6747C96.6497 9.83653 96.3278 10.1359 96.0863 10.4191C95.8448 10.7023 95.6516 10.9775 95.4745 11.1717C95.2894 11.374 95.1445 11.4711 94.9755 11.5034C94.7581 11.5439 94.6052 11.5196 94.4362 11.4306C94.2671 11.3335 94.0981 11.1555 93.9371 10.9451C93.7761 10.7347 93.607 10.492 93.4219 10.2492C93.2368 10.0146 93.0114 9.7718 92.7136 9.61806C92.4238 9.45622 92.0857 9.43194 91.812 9.48859C91.5544 9.53714 91.313 9.63424 91.1117 9.75561C90.6931 9.99837 90.4114 10.3301 90.1941 10.6133C89.9767 10.9046 89.8158 11.1636 89.6789 11.374C89.4133 11.7947 89.2523 12.0213 89.2523 12.0213C89.2523 12.0213 89.4616 11.8514 89.8077 11.4872C89.9687 11.3011 90.1699 11.0827 90.4195 10.8561Z" fill="white"/>
<path d="M102.639 16.2209C102.445 16.5041 102.204 16.8035 101.898 17.0625C101.592 17.3133 101.214 17.5156 100.803 17.5561C100.602 17.5803 100.385 17.5642 100.167 17.5075C100.111 17.4913 100.063 17.4751 100.006 17.459L99.9662 17.4428C99.9582 17.4428 99.9582 17.4428 99.9501 17.4347C99.9421 17.4266 99.9179 17.4185 99.9018 17.4104C99.8374 17.3699 99.7569 17.2971 99.6845 17.2162C99.5315 17.0382 99.3706 16.7954 99.1693 16.5365C99.0727 16.407 98.96 16.2695 98.8232 16.1319C98.6864 15.9943 98.5093 15.8649 98.3 15.7678C98.1953 15.7273 98.0746 15.695 97.9539 15.6788C97.8975 15.6707 97.8251 15.6707 97.7848 15.6707C97.7365 15.6707 97.6882 15.6707 97.6399 15.6788C97.4387 15.695 97.2374 15.7354 97.0362 15.8163C96.6418 15.9782 96.3198 16.2776 96.0783 16.5608C95.8368 16.844 95.6437 17.1191 95.4666 17.3133C95.2814 17.5156 95.1365 17.6127 94.9675 17.6451C94.7502 17.6855 94.5972 17.6613 94.4282 17.5722C94.2591 17.4751 94.0901 17.2971 93.9291 17.0867C93.7681 16.8763 93.5991 16.6336 93.414 16.3908C93.2288 16.1562 93.0034 15.9134 92.7056 15.7597C92.4158 15.5979 92.0777 15.5736 91.8041 15.6302C91.5465 15.6788 91.305 15.7759 91.1037 15.8973C90.6852 16.14 90.4035 16.4718 90.1861 16.755C89.9688 17.0463 89.8078 17.3052 89.671 17.5156C89.4053 17.9364 89.2443 18.1629 89.2443 18.1629C89.2443 18.1629 89.4536 17.9849 89.7997 17.6289C89.9688 17.4509 90.1781 17.2324 90.4276 17.0058C90.6771 16.7793 90.975 16.5446 91.3291 16.4151C91.5062 16.3504 91.6914 16.3099 91.8846 16.3018C92.0697 16.2937 92.2226 16.3423 92.3675 16.4475C92.5124 16.5527 92.6493 16.7226 92.7861 16.933C92.9229 17.1434 93.0598 17.3942 93.2288 17.6693C93.3979 17.9364 93.6152 18.2358 93.9452 18.4704C94.1143 18.5837 94.3074 18.6727 94.5167 18.7213C94.718 18.7698 94.9272 18.7698 95.1204 18.7455C95.1687 18.7375 95.217 18.7294 95.2734 18.7213C95.3297 18.7132 95.3941 18.6889 95.4424 18.6727C95.5471 18.6323 95.6437 18.5837 95.7402 18.5271C95.9254 18.4138 96.0864 18.2762 96.2152 18.1387C96.4808 17.8635 96.674 17.5803 96.8672 17.3538C97.0604 17.1272 97.2374 16.9735 97.4306 16.8844C97.6077 16.8035 97.8734 16.7712 97.97 16.8197C98.1068 16.8602 98.2919 17.0301 98.4771 17.2405C98.6622 17.4509 98.8554 17.7017 99.1049 17.9445C99.2337 18.0658 99.3786 18.1791 99.5557 18.26C99.604 18.2843 99.6442 18.3005 99.6925 18.3167C99.7167 18.3329 99.7489 18.3329 99.773 18.341L99.8294 18.3491C99.9018 18.3652 99.9823 18.3733 100.055 18.3895C100.361 18.43 100.658 18.4057 100.94 18.3329C101.504 18.1872 101.946 17.8474 102.26 17.4913C102.574 17.1272 102.784 16.7469 102.936 16.407C103.089 16.0672 103.178 15.7597 103.242 15.5008C103.363 14.991 103.371 14.7078 103.379 14.7078C103.379 14.7078 103.299 14.9829 103.089 15.436C102.969 15.6626 102.824 15.9377 102.639 16.2209Z" fill="white"/>
<path d="M135.593 176.081C135.963 176.421 136.43 176.696 136.978 176.802C137.919 176.988 138.877 176.923 139.731 176.688C140.592 176.454 141.357 176.049 142.009 175.572C143.313 174.609 144.142 173.379 144.584 172.27C145.035 171.154 145.067 170.158 144.979 169.511C144.89 168.856 144.721 168.532 144.729 168.532C144.721 168.532 144.826 168.888 144.81 169.519C144.802 170.15 144.625 171.073 144.093 172.044C143.57 173.015 142.701 174.059 141.493 174.827C140.89 175.208 140.205 175.523 139.473 175.693C138.74 175.863 137.944 175.895 137.171 175.742C136.535 175.62 135.955 175.07 135.649 174.447C135.336 173.824 135.303 173.12 135.601 172.61C135.746 172.359 135.963 172.141 136.229 171.979C136.358 171.898 136.495 171.825 136.64 171.769C136.784 171.712 136.937 171.655 137.066 171.623C137.614 171.493 138.145 171.68 138.507 172.044C138.869 172.392 139.079 172.861 139.127 173.274C139.183 173.686 139.062 174.059 138.861 174.277C138.652 174.496 138.41 174.568 138.249 174.609C138.088 174.641 137.992 174.641 138 174.649C138 174.649 138.088 174.665 138.257 174.657C138.427 174.649 138.7 174.617 138.974 174.406C139.256 174.196 139.465 173.767 139.457 173.266C139.457 172.772 139.304 172.197 138.893 171.688C138.692 171.437 138.41 171.21 138.072 171.065C137.734 170.919 137.332 170.862 136.945 170.911C136.736 170.935 136.567 170.984 136.374 171.04C136.189 171.097 136.004 171.17 135.818 171.267C135.456 171.453 135.094 171.736 134.836 172.133C134.579 172.521 134.434 173.007 134.426 173.484C134.418 173.961 134.523 174.439 134.724 174.876C134.941 175.337 135.223 175.742 135.593 176.081Z" fill="white"/>
<path d="M134.321 168.896C134.828 167.917 135.682 166.865 136.881 166.08C137.477 165.684 138.153 165.368 138.893 165.182C139.626 164.996 140.415 164.955 141.196 165.093C141.831 165.206 142.427 165.748 142.733 166.363C143.055 166.986 143.095 167.69 142.805 168.2C142.661 168.459 142.451 168.678 142.186 168.839C142.057 168.92 141.92 168.993 141.775 169.058C141.63 169.114 141.477 169.179 141.357 169.203C140.809 169.341 140.278 169.155 139.908 168.807C139.537 168.459 139.328 167.998 139.272 167.585C139.207 167.172 139.32 166.8 139.521 166.582C139.722 166.355 139.972 166.274 140.133 166.242C140.294 166.21 140.391 166.201 140.383 166.201C140.383 166.201 140.294 166.185 140.125 166.193C139.956 166.201 139.69 166.234 139.409 166.452C139.135 166.671 138.934 167.1 138.934 167.601C138.942 168.095 139.103 168.669 139.521 169.171C139.731 169.422 140.004 169.64 140.35 169.786C140.688 169.932 141.091 169.972 141.477 169.924C141.687 169.891 141.856 169.843 142.041 169.786C142.226 169.721 142.411 169.649 142.588 169.551C142.95 169.357 143.304 169.066 143.562 168.669C143.812 168.273 143.948 167.787 143.948 167.31C143.948 166.833 143.836 166.355 143.635 165.918C143.433 165.481 143.143 165.077 142.765 164.745C142.387 164.413 141.912 164.146 141.373 164.041C140.431 163.871 139.473 163.944 138.62 164.195C137.758 164.446 137.002 164.858 136.358 165.344C135.07 166.323 134.257 167.569 133.83 168.678C133.396 169.802 133.371 170.798 133.468 171.445C133.565 172.1 133.742 172.416 133.734 172.424C133.742 172.424 133.637 172.076 133.637 171.437C133.645 170.798 133.806 169.875 134.321 168.896Z" fill="white"/>
<path d="M91.136 180.394C91.3935 180.839 91.6833 181.139 91.9168 181.357C91.9812 181.479 92.0777 181.551 92.1582 181.6C92.2468 181.649 92.3192 181.689 92.3836 181.713L92.5688 181.794L92.3917 181.697C92.3353 181.665 92.2629 181.624 92.1824 181.568C92.1099 181.511 92.0214 181.43 91.9812 181.325V181.317L91.9731 181.309C91.7638 181.074 91.5062 180.75 91.305 180.305C91.1037 179.868 90.9589 179.302 91.0555 178.687C91.144 178.08 91.474 177.433 92.0294 176.939C92.3031 176.696 92.6331 176.486 93.0034 176.357C93.3656 176.227 93.7681 176.179 94.1465 176.268C94.5248 176.357 94.8548 176.583 95.0963 176.923C95.217 177.093 95.3136 177.287 95.3941 177.498C95.4344 177.603 95.4666 177.708 95.4988 177.821L95.539 177.991L95.5551 178.08L95.5632 178.121L95.5712 178.145C95.5792 178.218 95.5792 178.331 95.5712 178.444C95.5631 178.558 95.5471 178.679 95.5229 178.8C95.4827 179.051 95.4344 179.302 95.378 179.561C95.2653 180.079 95.1285 180.621 94.9997 181.171C94.7502 182.28 94.4845 183.437 94.3879 184.691C94.3477 185.322 94.3396 185.978 94.5006 186.674C94.5892 187.022 94.726 187.386 94.9836 187.709C95.2331 188.041 95.6195 188.292 96.0139 188.405C96.4888 188.543 96.9396 188.527 97.3582 188.462C97.7768 188.397 98.1551 188.284 98.5253 188.146C98.9117 188.009 99.3062 187.798 99.6442 187.483C99.9823 187.167 100.216 186.73 100.304 186.301C100.401 185.864 100.385 185.452 100.336 185.063C100.28 184.675 100.192 184.319 100.087 183.971C99.8777 183.283 99.612 182.652 99.3544 182.045C99.0969 181.438 98.8473 180.856 98.6461 180.289C98.4449 179.723 98.2758 179.164 98.2436 178.647C98.2034 178.121 98.3241 177.659 98.63 177.336C98.7829 177.174 98.9761 177.036 99.1854 176.931C99.3947 176.826 99.6201 176.745 99.8294 176.705C100.256 176.616 100.642 176.729 100.884 177.02C101.133 177.311 101.238 177.708 101.262 178.072C101.302 178.808 101.037 179.48 100.61 179.779C100.401 179.933 100.159 179.974 99.9582 179.966C99.7489 179.949 99.5798 179.901 99.451 179.844C99.1854 179.731 99.0647 179.634 99.0566 179.642C99.0566 179.642 99.1693 179.747 99.4269 179.893C99.5557 179.957 99.7247 180.038 99.9421 180.071C100.159 180.103 100.433 180.087 100.691 179.933C100.948 179.787 101.174 179.529 101.327 179.205C101.48 178.881 101.576 178.501 101.584 178.08C101.584 177.667 101.52 177.19 101.214 176.769C101.061 176.559 100.836 176.381 100.57 176.284C100.304 176.187 100.015 176.162 99.7408 176.203C99.4591 176.235 99.2015 176.316 98.9359 176.429C98.6783 176.543 98.4127 176.688 98.1792 176.907C97.9458 177.125 97.7607 177.408 97.648 177.724C97.5353 178.04 97.5031 178.371 97.5031 178.695C97.5192 179.342 97.6721 179.966 97.8573 180.572C98.0504 181.179 98.2839 181.786 98.5093 182.401C98.7427 183.008 98.9761 183.631 99.1452 184.262C99.3142 184.885 99.4349 185.549 99.2981 186.083C99.2337 186.35 99.1049 186.568 98.9117 186.746C98.7185 186.924 98.4529 187.07 98.1551 187.175C97.8331 187.289 97.5031 187.378 97.1811 187.426C96.8591 187.475 96.5452 187.475 96.2957 187.402C96.0864 187.337 95.9254 187.232 95.7966 187.07C95.6678 186.908 95.5712 186.682 95.5068 186.431C95.378 185.929 95.37 185.347 95.3941 184.78C95.4585 183.631 95.6839 182.49 95.9012 181.398C96.0139 180.848 96.1186 180.305 96.2232 179.763C96.2715 179.496 96.3198 179.221 96.352 178.946C96.3681 178.808 96.3842 178.663 96.3842 178.517C96.3923 178.371 96.3923 178.218 96.3601 178.032L96.344 177.959L96.3279 177.91L96.3037 177.813C96.2876 177.748 96.2635 177.676 96.2393 177.611C96.1991 177.481 96.1427 177.344 96.0864 177.214C95.9737 176.955 95.8288 176.713 95.6517 176.494C95.3056 176.049 94.7824 175.725 94.243 175.644C93.7037 175.555 93.1966 175.661 92.762 175.847C92.3273 176.033 91.957 176.308 91.6592 176.607C91.0555 177.222 90.7335 177.983 90.6932 178.679C90.6691 179.359 90.8864 179.957 91.136 180.394Z" fill="white"/>
<path d="M167.163 134.101C167.034 134.765 166.825 135.582 166.495 136.448C165.907 136.205 165.553 136.076 165.553 136.076C165.553 136.076 165.851 136.319 166.39 136.723C166.245 137.079 166.084 137.443 165.907 137.799C165.698 138.212 165.473 138.584 165.239 138.94C163.67 138.228 162.599 137.848 162.599 137.848C162.599 137.848 163.444 138.552 164.821 139.507C164.805 139.523 164.788 139.547 164.772 139.572C164.362 140.073 163.927 140.462 163.517 140.745C163.106 141.028 162.728 141.206 162.462 141.311C162.188 141.416 162.036 141.465 162.036 141.465C162.036 141.465 162.197 141.481 162.502 141.473C162.8 141.457 163.243 141.408 163.766 141.214C164.281 141.028 164.877 140.696 165.424 140.195C165.481 140.146 165.537 140.089 165.593 140.033C166.35 140.534 167.219 141.085 168.161 141.619C168.419 141.764 168.676 141.91 168.926 142.039L169.111 142.137L169.256 142.209L169.28 142.217H169.288L169.296 142.201L169.409 142.258L169.642 142.379L170.101 142.606C170.399 142.752 170.689 142.889 170.962 143.011C171.51 143.261 172.001 143.48 172.419 143.65C172.476 143.674 172.532 143.698 172.588 143.714C172.403 144.16 172.274 144.605 172.21 145.05C172.089 145.859 172.218 146.619 172.476 147.17C172.733 147.728 173.071 148.076 173.313 148.286C173.554 148.497 173.715 148.578 173.707 148.586C173.707 148.586 173.595 148.448 173.434 148.181C173.273 147.914 173.071 147.518 172.975 147.008C172.87 146.498 172.894 145.883 173.079 145.236C173.184 144.863 173.337 144.483 173.53 144.095C173.667 144.143 173.739 144.176 173.739 144.176C173.739 144.176 173.675 144.127 173.562 144.03C173.699 143.763 173.852 143.496 174.029 143.229C174.351 142.735 174.689 142.282 175.043 141.87C176.694 142.63 177.812 143.043 177.812 143.043C177.812 143.043 176.935 142.323 175.51 141.344C175.961 140.858 176.412 140.445 176.806 140.122C177.652 139.426 178.304 139.143 178.304 139.135C178.312 139.135 177.579 139.159 176.525 139.669C176.001 139.919 175.406 140.284 174.818 140.777C174.794 140.793 174.778 140.81 174.754 140.834C173.933 140.284 172.983 139.693 171.944 139.102C170.214 138.115 168.588 137.354 167.405 136.836C167.477 136.569 167.541 136.302 167.582 136.044C167.702 135.331 167.727 134.676 167.686 134.134C167.614 133.05 167.356 132.427 167.364 132.427C167.364 132.427 167.356 133.09 167.163 134.101ZM171.421 140.025C172.363 140.559 173.281 141.036 174.102 141.433C173.756 141.789 173.426 142.201 173.128 142.654C172.975 142.889 172.838 143.14 172.717 143.391C172.677 143.358 172.637 143.334 172.596 143.302C172.234 143.035 171.8 142.719 171.309 142.379C171.059 142.209 170.793 142.031 170.52 141.845L170.093 141.57L169.868 141.433L169.763 141.368L169.755 141.36C169.747 141.352 169.763 141.352 169.771 141.352L169.425 141.141C169.183 140.996 168.926 140.85 168.668 140.704C167.791 140.203 166.93 139.766 166.157 139.385C166.414 139.054 166.64 138.69 166.841 138.293C166.994 137.986 167.131 137.67 167.236 137.354C168.29 138.091 169.747 139.07 171.421 140.025Z" fill="white"/>
<path d="M62.8743 21.0679C62.657 20.7118 62.3672 20.372 61.9728 20.1373C61.5864 19.8946 61.0954 19.7975 60.6607 19.8622C60.218 19.9188 59.8397 20.105 59.5177 20.3153C59.1957 20.5257 58.922 20.7766 58.6805 21.0355L58.5115 21.2216C58.4471 21.2864 58.3827 21.3754 58.3264 21.4482C58.2137 21.61 58.1171 21.7719 58.0446 21.9418C57.8917 22.2736 57.8031 22.6134 57.7307 22.9371C57.6341 23.3902 57.5858 23.8353 57.5536 24.256L57.5456 24.2479C57.3443 23.989 57.1592 23.7058 56.9821 23.4226C56.6279 22.8562 56.2979 22.2655 55.9679 21.6909C55.6378 21.1164 55.3078 20.55 54.9536 20.0159C54.5995 19.4819 54.2211 18.9721 53.7382 18.5433C53.4967 18.3329 53.2311 18.1387 52.9171 18.0092C52.6032 17.8797 52.249 17.8393 51.927 17.8959C51.597 17.9526 51.3153 18.0982 51.0819 18.2681C50.8484 18.43 50.623 18.6484 50.4701 18.8831C50.1642 19.3605 50.0596 19.8703 50.0032 20.3396C49.9549 20.8089 49.963 21.2459 49.9952 21.6505C50.0113 21.869 50.0435 22.0793 50.0757 22.2735C49.8905 22.0065 49.6893 21.7476 49.4881 21.5129C49.2546 21.2459 49.0131 20.9951 48.7395 20.7928C48.6026 20.6876 48.4577 20.5986 48.2887 20.5257C48.2082 20.4934 48.1036 20.461 47.9989 20.4448C47.8943 20.4367 47.7977 20.4448 47.7091 20.4691C47.524 20.5257 47.3871 20.6552 47.2986 20.7928C47.2181 20.9303 47.1859 21.0436 47.1537 21.1569C47.1054 21.3754 47.0893 21.5615 47.0893 21.7071C47.0813 22.0065 47.1054 22.1603 47.1054 22.1684C47.1054 22.1684 47.1537 22.0146 47.2503 21.7395C47.2986 21.61 47.3711 21.4482 47.4676 21.2864C47.5159 21.2054 47.5803 21.1245 47.6367 21.076C47.693 21.0355 47.7574 21.0031 47.8218 21.0112C47.854 21.0112 47.8862 21.0274 47.9184 21.0355C47.9506 21.0517 47.9667 21.0679 48.007 21.1002C48.0875 21.165 48.176 21.2459 48.2645 21.343C48.4416 21.5453 48.6107 21.788 48.7878 22.0632C49.1339 22.6134 49.4881 23.2446 49.8664 23.9162C50.623 25.2594 51.3555 26.4732 51.919 27.339C52.4825 28.2129 52.8849 28.7227 52.8849 28.7227C52.8769 28.7227 52.7159 28.0996 52.3939 27.1124C52.0639 26.1252 51.5648 24.782 50.784 23.3902C50.6633 23.1798 50.5425 22.9856 50.4218 22.7833C50.3735 22.4354 50.3413 22.047 50.3413 21.6343C50.3413 21.2459 50.3655 20.8251 50.4379 20.4043C50.5184 19.9836 50.6552 19.5385 50.9128 19.1906C51.0416 19.0126 51.2026 18.8831 51.4038 18.7536C51.6051 18.6323 51.8144 18.5433 52.0236 18.519C52.4422 18.4623 52.8769 18.697 53.2471 19.0692C53.6255 19.4414 53.9555 19.935 54.2694 20.4529C54.5834 20.9789 54.8812 21.5372 55.1871 22.1198C55.493 22.7024 55.8069 23.3093 56.1611 23.9243C56.3381 24.2318 56.5313 24.5392 56.7567 24.8467C56.958 25.1218 57.1833 25.397 57.4812 25.6478C57.449 26.5136 57.4248 27.3147 57.3363 28.051C57.2236 29.0221 56.9982 29.8879 56.5635 30.5029C56.3462 30.8103 56.0806 31.045 55.8069 31.2068C55.5252 31.3687 55.2434 31.4658 54.9778 31.5224C54.7122 31.5791 54.4707 31.6033 54.2533 31.6114C54.0521 31.6195 53.875 31.571 53.7462 31.4981C53.6174 31.4253 53.5289 31.3606 53.4645 31.3201C53.4001 31.2878 53.3598 31.2716 53.3598 31.2716C53.3598 31.2716 53.392 31.2877 53.4564 31.3282C53.5208 31.3687 53.6013 31.4496 53.7221 31.5305C53.8509 31.6114 54.0279 31.6842 54.2533 31.7004C54.4707 31.7166 54.7202 31.7166 55.0019 31.6762C55.2837 31.6438 55.5976 31.5629 55.9196 31.4091C56.2416 31.2554 56.5635 31.0207 56.8292 30.6971C57.3765 30.0497 57.6744 29.1192 57.8595 28.1239C57.9802 27.4685 58.0527 26.7726 58.1251 26.0443C58.1412 26.0524 58.1573 26.0524 58.1654 26.0605C58.3425 26.1333 58.5276 26.198 58.7127 26.2547C59.083 26.3761 59.4774 26.4732 59.888 26.5136C60.2985 26.5622 60.7331 26.5541 61.1759 26.457C61.6105 26.3599 62.0533 26.1495 62.4074 25.8339C62.7616 25.5183 63.0272 25.1218 63.1882 24.7092C63.3573 24.2965 63.4378 23.8676 63.4539 23.4469C63.4861 22.6215 63.309 21.7961 62.8743 21.0679ZM62.4074 23.4064C62.3752 24.0456 62.1418 24.6687 61.7071 25.049C61.2805 25.4374 60.6446 25.5507 60.0006 25.486C59.6787 25.4536 59.3486 25.3808 59.0267 25.2837C58.8657 25.2351 58.7047 25.1785 58.5437 25.1218C58.4954 25.1057 58.4793 25.0976 58.4552 25.0814C58.431 25.0652 58.3988 25.0571 58.3747 25.0409C58.3344 25.0167 58.2861 24.9843 58.2459 24.96C58.2459 24.9276 58.2539 24.9034 58.2539 24.871C58.3183 24.2965 58.3908 23.6977 58.5356 23.1313C58.6081 22.8481 58.7047 22.5729 58.8254 22.3221C58.8898 22.2007 58.9623 22.0874 59.0428 21.9822C59.083 21.9337 59.1233 21.8851 59.1716 21.8366L59.3406 21.6667C59.7672 21.2378 60.2904 20.8737 60.7895 20.8251C61.039 20.8008 61.2644 20.8575 61.4737 20.987C61.683 21.1245 61.8762 21.3349 62.0211 21.5938C62.3028 22.1036 62.4396 22.7752 62.4074 23.4064Z" fill="white"/>
<path d="M22.9571 50.3519L22.8524 50.2143C22.788 50.1334 22.7317 50.0525 22.6673 49.9635C22.5466 49.7936 22.4258 49.6075 22.3051 49.4133L21.5726 48.2319L21.3713 49.5751C21.3311 49.8664 21.2667 50.0768 21.1942 50.2872C21.0976 50.538 21.0815 50.5623 21.0413 50.6594C21.001 50.7484 20.9608 50.8374 20.9125 50.9183C20.7354 51.2582 20.5342 51.5818 20.3329 51.8893C19.9224 52.4881 19.4797 52.9979 19.0772 53.3863C18.6748 53.7747 18.2964 54.0256 18.0067 54.155C17.7169 54.2764 17.5237 54.2683 17.5317 54.2764C17.5317 54.2683 17.7088 54.3573 18.0469 54.3169C18.385 54.2845 18.8679 54.1307 19.3912 53.8152C19.9144 53.5077 20.4859 53.0545 21.0252 52.4558C21.2989 52.1564 21.5565 51.8165 21.7899 51.4281C21.8221 51.3796 21.8462 51.3229 21.8784 51.2663C21.975 52.6095 22.2004 55.0856 22.7317 57.8772C21.806 57.9177 20.9608 58.0714 20.349 58.2333C19.6648 58.4032 19.2543 58.5731 19.2543 58.5731C19.2543 58.5731 19.689 58.6702 20.3812 58.7592C21.0494 58.8482 21.9428 58.9372 22.941 58.9291C23.7137 62.619 24.6957 65.4025 24.6957 65.4025C24.6957 65.4025 24.5911 62.5381 23.9874 58.8806C24.6797 58.8078 25.2995 58.6783 25.7744 58.5084C26.4505 58.2818 26.8369 58.0472 26.8369 58.0472C26.8369 58.0472 26.3942 58.0148 25.7019 57.9824C25.1868 57.9581 24.5428 57.9015 23.8103 57.8772C23.8023 57.8206 23.7862 57.7639 23.7781 57.7073C23.2066 54.6891 22.4419 52.124 22.0555 50.9345C22.0636 50.9183 22.0716 50.9102 22.0636 50.9183H22.0716V50.9102C22.0716 50.9102 22.0716 50.9102 22.0797 50.9102H22.0877C22.0797 50.9021 22.1119 50.9345 22.128 50.9507L22.1843 51.0154C22.4741 51.3391 22.78 51.6304 23.102 51.8651C23.7379 52.3506 24.4221 52.65 25.0097 52.7713C25.6053 52.8927 26.0883 52.8442 26.4103 52.7794C26.7323 52.7147 26.8933 52.6338 26.8933 52.6419C26.8933 52.6419 26.7162 52.65 26.4022 52.6176C26.0964 52.5852 25.6536 52.5043 25.1707 52.2777C24.6877 52.0593 24.1725 51.6951 23.6735 51.2015C23.4239 50.9345 23.1825 50.6594 22.9571 50.3519Z" fill="white"/>
<path d="M13.3138 89.1195C13.6116 89.1518 13.9739 89.2166 14.3763 89.346C14.7788 89.4755 15.2135 89.6697 15.632 89.961C16.0426 90.2523 16.437 90.6731 16.5899 91.1829C16.7509 91.6846 16.6302 92.2591 16.268 92.7769C16.1794 92.9064 16.0748 93.0359 15.9701 93.1573C15.8574 93.2786 15.7286 93.4081 15.624 93.4971C15.3906 93.6913 15.1008 93.8289 14.7788 93.926C14.1268 94.1202 13.3541 94.1364 12.5491 94.1121C11.2692 94.0635 9.99743 93.9017 8.77391 93.8936C8.16215 93.8855 7.55844 93.9179 6.97888 94.0312C6.83399 94.0635 6.6891 94.0878 6.55226 94.1283C6.47982 94.1445 6.41542 94.1687 6.34297 94.193L6.23833 94.2254C6.19004 94.2416 6.13369 94.2577 6.08539 94.282C5.87611 94.3629 5.68292 94.4438 5.51388 94.549L5.26435 94.6947L5.14361 94.7675C5.10336 94.7918 5.04702 94.8161 5.03897 94.8403C5.26435 95.075 5.46559 95.2854 5.67487 95.4877L5.82781 95.6333L5.9566 95.7547L6.15784 95.9246C6.43152 96.1512 6.69715 96.3454 6.95473 96.5234C7.4699 96.8714 7.96092 97.1141 8.37949 97.2679C8.46804 97.3002 8.55658 97.3326 8.63707 97.3569C8.1863 97.4702 7.75163 97.6077 7.34916 97.7938C7.12377 97.8909 6.90644 98.0042 6.7052 98.1256L6.55226 98.2146L6.34297 98.3441C6.17394 98.4574 6.01295 98.5706 5.86001 98.6839L5.9888 99.1371C6.02905 99.2746 6.08539 99.4526 6.10954 99.5093C6.17394 99.6792 6.25443 99.8329 6.34297 99.9867C6.51201 100.286 6.71325 100.553 6.93864 100.772C7.19622 101.031 7.47795 101.217 7.75163 101.346C7.30086 101.605 6.86619 101.953 6.60056 102.438C6.56836 102.503 6.53616 102.56 6.51201 102.625C6.49591 102.657 6.47177 102.714 6.46372 102.762L6.43957 102.851C6.41542 102.973 6.39127 103.086 6.38322 103.215C6.35908 103.458 6.36712 103.709 6.43152 103.96C6.49591 104.202 6.61666 104.437 6.7857 104.607C6.95474 104.777 7.14792 104.89 7.33306 104.955C7.70334 105.084 8.03336 105.093 8.31509 105.068C8.59683 105.052 8.83026 104.995 9.01539 104.947C9.38567 104.842 9.56276 104.72 9.56276 104.72C9.56276 104.72 9.36152 104.777 8.99125 104.777C8.80611 104.777 8.58072 104.769 8.33119 104.737C8.08166 104.696 7.79993 104.623 7.5665 104.47C7.32501 104.324 7.17207 104.105 7.15597 103.822C7.14792 103.677 7.16402 103.515 7.20427 103.345C7.22841 103.256 7.25257 103.175 7.28477 103.086L7.30891 103.021C7.31696 103.013 7.30891 103.021 7.31696 103.005C7.34111 102.973 7.35721 102.94 7.38135 102.908C7.56649 102.641 7.88847 102.414 8.27485 102.236C8.66122 102.05 9.10394 101.904 9.57081 101.775C10.5045 101.524 11.4463 101.354 12.3076 101.209L14.6098 100.812C15.2698 100.691 15.8091 100.577 16.1714 100.488C16.5416 100.391 16.7348 100.318 16.7348 100.318C16.7348 100.318 16.5255 100.327 16.1553 100.327L14.5695 100.286C13.9014 100.27 13.0965 100.27 12.203 100.318C11.3095 100.375 10.3275 100.472 9.28908 100.755C8.9349 100.853 8.58877 100.974 8.2507 101.12C7.96897 100.942 7.67919 100.691 7.44575 100.359C7.30086 100.149 7.17207 99.9139 7.06743 99.6468C7.01913 99.5174 6.97083 99.3798 6.93059 99.2342C6.90644 99.1371 6.91449 99.1532 6.91449 99.1371C6.91449 99.1209 6.91449 99.1128 6.92254 99.1047C6.93863 99.0966 6.95474 99.0966 6.97084 99.0966H6.97888L7.04328 99.0642L7.18012 98.9995C7.36526 98.9105 7.55844 98.8296 7.75968 98.7567C8.16215 98.603 8.58878 98.4816 9.03955 98.3764C9.98133 98.158 10.9312 98.0447 11.7925 97.9476C12.6618 97.8505 13.4587 97.7615 14.1268 97.6644C15.4711 97.4783 16.276 97.2193 16.268 97.2193C16.268 97.2193 15.4308 97.2193 14.1027 97.1384C13.4345 97.106 12.6376 97.0575 11.7442 97.0575C10.8909 97.0575 9.94913 97.106 8.95905 97.3164C8.82221 97.2517 8.66927 97.1789 8.50023 97.0898C8.12995 96.8795 7.70333 96.5882 7.26061 96.1917C6.85009 95.8437 6.20614 95.164 6.21419 95.0912C6.19809 95.0831 6.23028 95.0831 6.23833 95.075L6.27053 95.0588C6.29468 95.0507 6.31883 95.0426 6.33493 95.0426C6.37518 95.0265 6.42347 95.0184 6.45567 95.0184L6.48786 95.0103C6.52006 95.0022 6.54421 94.9941 6.57641 94.986C6.63276 94.9698 6.69715 94.9617 6.7535 94.9536C6.87424 94.9293 7.00303 94.9132 7.13182 94.9051C7.63894 94.8565 8.19435 94.8565 8.76586 94.897C9.92498 94.9698 11.1726 95.164 12.533 95.2207C13.3863 95.2449 14.2556 95.2287 15.1088 94.9455C15.5274 94.808 15.9379 94.5895 16.276 94.282C16.4531 94.1202 16.5738 93.9745 16.7026 93.8127C16.8314 93.6509 16.9441 93.489 17.0488 93.311C17.258 92.955 17.4029 92.5666 17.4512 92.1539C17.4995 91.7493 17.4432 91.3285 17.2902 90.9806C17.1454 90.6326 16.92 90.3413 16.6865 90.1148C16.445 89.8882 16.1875 89.7102 15.9379 89.5645C15.4228 89.2894 14.9237 89.1437 14.481 89.0709C14.0383 88.9981 13.6599 88.99 13.346 89.0062C12.7262 89.0386 12.4042 89.1518 12.3962 89.1437C12.372 89.0952 12.7101 89.0547 13.3138 89.1195Z" fill="white"/>
<path d="M12.8952 87.493C12.5652 87.5901 12.1869 87.7439 11.7844 87.9138L11.1646 88.1646L10.8909 88.2779C10.7782 88.3265 10.6575 88.3589 10.5287 88.4074L9.73179 88.6502L10.2309 89.2489C10.408 89.4512 10.5931 89.6535 10.7943 89.8477L10.8829 89.9286L10.9634 90.0015L11.1244 90.139C11.3336 90.3171 11.5429 90.4789 11.7442 90.6164C12.1547 90.8997 12.533 91.1262 12.863 91.3123C13.515 91.6765 13.9417 91.8788 13.9417 91.8788C13.9417 91.8788 13.6921 91.4742 13.2011 90.8997C12.9596 90.6165 12.6618 90.2847 12.3318 89.9367L11.8166 89.3946L11.559 89.1195C11.551 89.1195 11.551 89.1114 11.551 89.1114V89.1033C11.559 89.0952 11.5268 89.1033 11.6073 89.0628C11.8327 88.9334 12.0259 88.7958 12.211 88.6663C12.5733 88.3993 12.8791 88.1485 13.1287 87.9462C13.6358 87.5335 13.99 87.315 13.99 87.315C13.9819 87.2907 13.5553 87.2826 12.8952 87.493Z" fill="white"/>
<path d="M28.149 144.872C27.9236 144.507 27.674 144.054 27.4084 143.528C27.2796 143.261 27.1428 142.978 27.0059 142.679L26.7644 142.137C26.6518 141.87 26.5391 141.57 26.4183 141.271C26.3861 141.279 26.362 141.279 26.3378 141.287C26.3298 141.287 26.3217 141.287 26.3217 141.287L26.2976 141.303L26.2412 141.336L26.0159 141.473C25.9354 141.522 25.9032 141.554 25.8307 141.603L25.7341 141.675L25.6375 141.797C25.5731 141.878 25.5087 141.983 25.4443 142.056L25.396 142.112C25.3799 142.137 25.3719 142.137 25.3638 142.145C25.3477 142.161 25.3236 142.185 25.3075 142.201C25.227 142.282 25.1465 142.347 25.066 142.412C24.7199 142.671 24.3013 142.816 23.8505 142.8C22.941 142.784 21.9428 142.193 21.2586 141.344C20.8803 140.874 20.5986 140.34 20.4778 139.806C20.349 139.264 20.3812 138.73 20.5583 138.253C20.7354 137.775 21.0574 137.354 21.4277 137.015C21.6128 136.845 21.814 136.691 22.0153 136.553L22.1682 136.456L22.297 136.383L22.9651 136.027C22.8122 135.801 22.6592 135.574 22.5304 135.372L22.2567 134.951L21.7979 134.239C21.5082 133.794 21.2345 133.414 21.001 133.114C20.5261 132.516 20.18 132.257 20.18 132.257C20.18 132.257 20.4617 132.58 20.8239 133.236C21.0091 133.559 21.2103 133.972 21.4357 134.449L21.7979 135.218L21.8945 135.429C21.9267 135.493 21.975 135.582 21.975 135.598C21.9992 135.663 22.0233 135.72 22.0475 135.768L21.9026 135.817L21.8704 135.825L21.8543 135.833C21.8462 135.833 21.8462 135.833 21.8301 135.841L21.645 135.938C21.4035 136.068 21.154 136.222 20.9205 136.408C20.4456 136.772 19.9868 137.265 19.697 137.905C19.4072 138.544 19.3268 139.313 19.4716 140.041C19.6165 140.769 19.9627 141.457 20.4376 142.039C20.8722 142.565 21.3955 143.002 21.975 143.318C22.5546 143.625 23.2066 143.812 23.8666 143.787C24.5267 143.771 25.1626 143.496 25.6053 143.091C25.718 142.994 25.8227 142.889 25.9112 142.776C25.9354 142.752 25.9595 142.719 25.9756 142.695C25.9837 142.679 25.9997 142.663 26.0078 142.654L26.0159 142.638C26.032 142.614 26.032 142.606 26.04 142.59C26.0561 142.557 26.0722 142.517 26.0963 142.485L26.1446 142.436C26.1527 142.436 26.1607 142.412 26.1688 142.42L26.1849 142.436L26.2815 142.582L26.3137 142.622L26.5069 142.962C26.6839 143.253 26.861 143.528 27.0301 143.779C27.3762 144.281 27.6982 144.694 27.9799 145.025C28.5434 145.689 28.9459 145.972 28.9459 145.972C28.9217 145.956 28.5836 145.6 28.149 144.872Z" fill="white"/>
<path d="M31.3204 144.41C31.3204 144.41 29.8071 141.052 27.3843 137.257C24.9694 133.47 22.5626 130.687 22.5626 130.687C22.5626 130.687 24.0759 134.045 26.4988 137.832C28.9137 141.627 31.3204 144.41 31.3204 144.41Z" fill="white"/>
<path d="M49.4961 165.109C48.8361 165.562 48.2565 166.153 47.8862 166.857C47.7011 167.205 47.5642 167.569 47.4837 167.941C47.4435 168.127 47.4113 168.313 47.3952 168.491C47.3791 168.669 47.3711 168.847 47.3711 169.025C47.3711 169.729 47.5481 170.442 47.9587 170.976C48.1599 171.243 48.4175 171.461 48.6912 171.607C48.9648 171.752 49.2546 171.825 49.5283 171.85C49.8503 171.874 50.1401 171.825 50.3976 171.744C50.3171 171.979 50.2367 172.214 50.1562 172.44C50.0274 172.845 49.9066 173.233 49.81 173.63L49.7698 173.8C49.7537 173.881 49.7295 173.97 49.7215 174.05C49.6893 174.212 49.6732 174.374 49.6732 174.52C49.6732 174.665 49.6893 174.787 49.6973 174.916C49.7134 175.038 49.7215 175.199 49.7617 175.256L50.5184 174.981L50.8565 174.86L51.0014 174.803L51.0979 174.763C51.3636 174.657 51.6212 174.552 51.8546 174.439C52.3295 174.22 52.7239 173.986 53.0298 173.767C53.0379 173.759 53.054 173.751 53.062 173.743C53.0379 173.824 53.0057 173.905 52.9815 173.994C52.8527 174.398 52.7561 174.811 52.6998 175.216C52.6676 175.418 52.6515 175.62 52.6354 175.823L52.6273 176.009L52.6193 176.276V176.785C52.7803 176.834 52.9413 176.874 53.0942 176.915C53.1747 176.939 53.2552 176.947 53.3276 176.963C53.4001 176.972 53.4967 176.988 53.545 176.996C53.7462 177.012 53.9394 177.004 54.1326 176.98C54.5109 176.931 54.857 176.81 55.1468 176.656C55.3642 176.543 55.5493 176.413 55.7183 176.284C55.7425 176.462 55.7827 176.632 55.8552 176.81C55.8793 176.874 55.9035 176.931 55.9357 176.988L55.984 177.069V177.061L55.992 177.077L56.0081 177.117C56.0564 177.214 56.1128 177.311 56.1772 177.4C56.4186 177.765 56.7889 178.08 57.2155 178.193C57.6422 178.307 58.0527 178.202 58.3264 178.04C58.6161 177.878 58.8093 177.676 58.9623 177.489C59.1072 177.303 59.2118 177.125 59.2842 176.98C59.4211 176.688 59.4613 176.51 59.4694 176.51C59.4694 176.51 59.3647 176.656 59.1555 176.883C59.0508 176.996 58.914 177.125 58.7369 177.247C58.5678 177.368 58.3586 177.489 58.1332 177.546C57.9078 177.611 57.6583 177.603 57.4651 177.498C57.2638 177.392 57.0948 177.198 56.9579 176.923C56.9257 176.858 56.8936 176.785 56.8614 176.705L56.8533 176.68L56.8453 176.664L56.8211 176.624L56.805 176.575C56.797 176.543 56.7809 176.518 56.7728 176.486C56.7406 176.357 56.7245 176.211 56.7245 176.049C56.7326 175.725 56.805 175.361 56.9258 174.981C57.1592 174.228 57.4812 173.492 57.779 172.829L58.6 171.048C58.8335 170.539 59.0186 170.11 59.1313 169.81C59.244 169.511 59.2923 169.341 59.2923 169.341L58.9864 169.729C58.7852 169.98 58.4954 170.328 58.1493 170.773C57.8032 171.218 57.4007 171.76 56.9982 172.408C56.6038 173.055 56.1933 173.792 55.9196 174.674C55.831 174.981 55.7586 175.297 55.7344 175.628C55.493 175.782 55.2193 175.928 54.9053 176.025C54.6558 176.106 54.3821 176.154 54.1004 176.146C53.9636 176.146 53.8187 176.13 53.6818 176.106C53.6496 176.098 53.6577 176.098 53.6496 176.09L53.6335 176.081C53.6255 176.073 53.6174 176.065 53.6174 176.057C53.6174 176.049 53.6255 176.033 53.6335 176.025L53.6416 176.017C53.6416 176.017 53.6416 176.009 53.6496 175.984L53.6577 175.92C53.6818 175.75 53.706 175.572 53.7462 175.394C53.8187 175.038 53.9153 174.682 54.0279 174.317C54.3097 173.411 54.68 172.553 55.018 171.76C55.3561 170.967 55.6539 170.239 55.8713 169.608C56.314 168.346 56.4025 167.52 56.4025 167.52C56.4025 167.52 56.0564 168.265 55.3883 169.382C55.0583 169.94 54.6478 170.603 54.2131 171.356C53.867 171.963 53.5128 172.642 53.215 173.411C53.1264 173.46 53.0379 173.5 52.9332 173.549C52.6032 173.694 52.2007 173.84 51.7178 173.97C51.4763 174.034 51.2187 174.099 50.937 174.164L50.8323 174.188C50.8001 174.196 50.7921 174.196 50.7679 174.196C50.7277 174.204 50.7116 174.204 50.6874 174.204C50.6391 174.204 50.5989 174.212 50.5667 174.212C50.5345 174.228 50.5586 174.172 50.5586 174.148C50.5667 174.115 50.5747 174.091 50.5828 174.067C50.5908 174.042 50.5989 174.018 50.615 174.002L50.6311 173.978C50.6311 173.978 50.6391 173.953 50.6472 173.929L50.6713 173.864C50.7921 173.516 50.937 173.144 51.0899 172.764C51.3877 172.027 51.7177 171.243 52.0397 170.409C52.1444 170.239 52.1846 170.142 52.1846 170.142C52.1846 170.142 52.1524 170.174 52.1041 170.239C52.5468 169.09 52.9171 167.965 53.1506 166.889C53.2713 166.339 53.3518 165.805 53.3759 165.287C53.384 165.101 53.3759 164.915 53.3679 164.737C53.4967 164.713 53.6335 164.688 53.7623 164.672C54.9778 164.494 56.1047 164.518 57.0304 164.656C57.9641 164.793 58.6886 165.052 59.1635 165.295C59.6384 165.538 59.8638 165.748 59.8638 165.74C59.8638 165.748 59.6867 165.489 59.244 165.15C58.8093 164.81 58.0929 164.405 57.135 164.13C56.1772 163.847 54.9858 163.685 53.6577 163.774C53.4886 163.782 53.3196 163.798 53.1506 163.822C53.054 163.604 52.9091 163.402 52.732 163.264C52.5549 163.127 52.3617 163.046 52.1846 163.005C51.8224 162.924 51.5246 162.973 51.2992 163.013C50.8323 163.11 50.6069 163.224 50.5989 163.216C50.5989 163.224 50.8565 163.167 51.3072 163.175C51.5326 163.183 51.8143 163.208 52.08 163.321C52.3215 163.426 52.5146 163.62 52.6193 163.895C52.2812 163.952 51.9431 164.033 51.597 164.13C50.8726 164.348 50.1562 164.656 49.4961 165.109ZM52.6756 164.891C52.6676 165.004 52.6515 165.117 52.6273 165.23C52.5549 165.684 52.4261 166.169 52.2651 166.671C51.9431 167.682 51.5085 168.791 51.0577 169.956C50.8887 170.401 50.7196 170.838 50.5586 171.267C50.2608 171.348 49.9308 171.38 49.6007 171.307C49.1902 171.218 48.7958 170.959 48.5624 170.555C48.3209 170.15 48.2323 169.608 48.2726 169.042C48.3128 168.451 48.4577 167.876 48.7717 167.35C49.0775 166.825 49.5364 166.363 50.0918 165.983C50.6472 165.603 51.267 165.328 51.8868 165.117C52.1444 165.028 52.41 164.955 52.6756 164.891Z" fill="white"/>
</svg>
