<svg width="24" height="24" viewBox="0 0 24 24" fill="none" xmlns="http://www.w3.org/2000/svg">
<g id="Group">
<path id="Vector" d="M13.5762 17.2716L8.4662 14.4846C7.97569 14.9715 7.35201 15.3023 6.67379 15.4352C5.99557 15.5682 5.29316 15.4974 4.65513 15.2317C4.01709 14.966 3.47199 14.5174 3.08855 13.9424C2.70511 13.3674 2.50049 12.6917 2.50049 12.0006C2.50049 11.3095 2.70511 10.6338 3.08855 10.0588C3.47199 9.48378 4.01709 9.03516 4.65513 8.7695C5.29316 8.50383 5.99557 8.43302 6.67379 8.56597C7.35201 8.69893 7.97569 9.0297 8.4662 9.5166L13.5762 6.7296C13.4009 5.90733 13.5275 5.04946 13.9328 4.31285C14.3381 3.57625 14.9949 3.01013 15.7833 2.71803C16.5717 2.42593 17.4388 2.42737 18.2262 2.72209C19.0136 3.0168 19.6686 3.58509 20.0714 4.32304C20.4742 5.06098 20.598 5.91927 20.42 6.74095C20.242 7.56263 19.7742 8.29279 19.1021 8.7979C18.43 9.30301 17.5986 9.54932 16.7598 9.4918C15.9211 9.43427 15.131 9.07674 14.5342 8.4846L9.4242 11.2716C9.52613 11.7523 9.52613 12.2489 9.4242 12.7296L14.5342 15.5166C15.131 14.9245 15.9211 14.5669 16.7598 14.5094C17.5986 14.4519 18.43 14.6982 19.1021 15.2033C19.7742 15.7084 20.242 16.4386 20.42 17.2602C20.598 18.0819 20.4742 18.9402 20.0714 19.6782C19.6686 20.4161 19.0136 20.9844 18.2262 21.2791C17.4388 21.5738 16.5717 21.5753 15.7833 21.2832C14.9949 20.9911 14.3381 20.425 13.9328 19.6883C13.5275 18.9517 13.4009 18.0939 13.5762 17.2716Z" fill="white"/>
</g>
</svg>
