<svg xmlns="http://www.w3.org/2000/svg" width="30" height="30" viewBox="0 0 30 30" fill="none">
  <path d="M16.9696 21.5885L10.5821 18.1048C9.96901 18.7134 9.18941 19.1269 8.34163 19.2931C7.49385 19.4592 6.61584 19.3707 5.8183 19.0386C5.02075 18.7066 4.33938 18.1458 3.86008 17.427C3.38077 16.7083 3.125 15.8637 3.125 14.9998C3.125 14.1359 3.38077 13.2913 3.86008 12.5725C4.33938 11.8537 5.02075 11.293 5.8183 10.9609C6.61584 10.6288 7.49385 10.5403 8.34163 10.7065C9.18941 10.8727 9.96901 11.2862 10.5821 11.8948L16.9696 8.41102C16.7506 7.38319 16.9088 6.31085 17.4154 5.39009C17.922 4.46933 18.7431 3.76169 19.7285 3.39656C20.714 3.03144 21.7979 3.03324 22.7822 3.40163C23.7664 3.77002 24.5851 4.48038 25.0887 5.40282C25.5922 6.32525 25.7468 7.39812 25.5244 8.42521C25.3019 9.45231 24.7171 10.365 23.877 10.9964C23.0369 11.6278 21.9976 11.9357 20.9492 11.8638C19.9007 11.7919 18.9132 11.345 18.1671 10.6048L11.7796 14.0885C11.9071 14.6893 11.9071 15.3102 11.7796 15.911L18.1671 19.3948C18.9132 18.6546 19.9007 18.2077 20.9492 18.1358C21.9976 18.0639 23.0369 18.3718 23.877 19.0031C24.7171 19.6345 25.3019 20.5472 25.5244 21.5743C25.7468 22.6014 25.5922 23.6743 25.0887 24.5967C24.5851 25.5192 23.7664 26.2295 22.7822 26.5979C21.7979 26.9663 20.714 26.9681 19.7285 26.603C18.7431 26.2379 17.922 25.5302 17.4154 24.6095C16.9088 23.6887 16.7506 22.6164 16.9696 21.5885Z" fill="#FFDA8B"/>
</svg>