<svg width="199" height="299" viewBox="0 0 199 299" fill="none" xmlns="http://www.w3.org/2000/svg">
<g filter="url(#filter0_f_16799_71797)">
<rect x="22" y="42" width="155" height="235" fill="black"/>
</g>
<g clip-path="url(#clip0_16799_71797)">
<path d="M23.8047 233.799H188V260C188 265.523 183.523 270 178 270H23.8047V233.799Z" fill="#612AA9"/>
<rect x="23.8047" y="266.983" width="161.183" height="1.50836" fill="#14092D"/>
<path fill-rule="evenodd" clip-rule="evenodd" d="M23.8043 270H21.2434C17.7455 270 15.1424 268.257 13.5629 266.289C11.9305 264.255 11 261.564 11 258.687C11 255.81 11.9305 253.119 13.5629 251.085C15.1424 249.117 17.7455 247.374 21.2434 247.374H23.8043V270Z" fill="#612AA9"/>
<path fill-rule="evenodd" clip-rule="evenodd" d="M22.2979 19.6089H23.8043V0H21.2434C17.7455 0 15.1424 1.51023 13.5629 3.21596C11.9305 4.97872 11 7.31092 11 9.80447V257.933H22.2979V19.6089Z" fill="url(#paint0_linear_16799_71797)"/>
<path d="M20.5399 268.492C16.1028 268.492 12.5059 264.102 12.5059 258.687C12.5059 253.272 16.1028 248.883 20.5399 248.883C21.8789 248.883 24.5569 248.883 24.5569 248.883V268.492C24.5569 268.492 21.8789 268.492 20.5399 268.492Z" fill="#14092D"/>
<path fill-rule="evenodd" clip-rule="evenodd" d="M184.988 245.112H175.196V250.391H19.4721C18.4315 250.391 17.4253 250.807 16.9459 251.731C16.2908 252.993 15.5195 255.216 15.5195 258.687C15.5195 262.159 16.2908 264.382 16.9459 265.644C17.4253 266.567 18.4315 266.983 19.4721 266.983H184.988V250.391V245.112Z" fill="#9184AD"/>
<path d="M22.2988 1.5083H178.001C183.524 1.5083 188.001 5.98545 188.001 11.5083V240.391C188.001 245.914 183.524 250.391 178.001 250.391H22.2988V1.5083Z" fill="#13082C"/>
<path d="M22.2988 0H178.001C183.524 0 188.001 4.47715 188.001 10V238.883C188.001 244.406 183.524 248.883 178.001 248.883H22.2988V0Z" fill="#20133C"/>
<rect x="34.0957" y="8.04199" width="142.106" height="232.799" rx="6.5" stroke="url(#paint1_linear_16799_71797)"/>
<rect x="30.3301" y="11.8127" width="149.638" height="225.257" rx="6.5" stroke="url(#paint2_linear_16799_71797)"/>
<g filter="url(#filter1_f_16799_71797)">
<ellipse cx="105.149" cy="124.441" rx="60.176" ry="99.7077" fill="#9747FF" fill-opacity="0.3"/>
</g>
<path fill-rule="evenodd" clip-rule="evenodd" d="M31.927 6.86584C31.1495 7.09781 30.5826 7.81915 30.5826 8.67307C30.5826 9.71439 31.4256 10.5585 32.4655 10.5585C32.6944 10.5585 32.9138 10.5176 33.1168 10.4427C32.7032 10.9723 32.0592 11.3127 31.3357 11.3127C30.0878 11.3127 29.0762 10.2998 29.0762 9.05017C29.0762 7.80058 30.0878 6.7876 31.3357 6.7876C31.5403 6.7876 31.7385 6.81482 31.927 6.86584Z" fill="url(#paint3_linear_16799_71797)"/>
<path fill-rule="evenodd" clip-rule="evenodd" d="M178.961 11.3127C180.209 11.3127 181.22 10.2998 181.22 9.05017C181.22 7.80058 180.209 6.7876 178.961 6.7876C177.713 6.7876 176.701 7.80058 176.701 9.05017C176.701 10.2998 177.713 11.3127 178.961 11.3127ZM177.454 9.05017C177.454 8.21711 178.129 7.54179 178.961 7.54179V10.5585C178.129 10.5585 177.454 9.88322 177.454 9.05017Z" fill="url(#paint4_linear_16799_71797)"/>
<path fill-rule="evenodd" clip-rule="evenodd" d="M179.552 237.648C178.774 237.88 178.208 238.601 178.208 239.455C178.208 240.497 179.051 241.341 180.091 241.341C180.319 241.341 180.539 241.3 180.742 241.225C180.328 241.755 179.684 242.095 178.961 242.095C177.713 242.095 176.701 241.082 176.701 239.832C176.701 238.583 177.713 237.57 178.961 237.57C179.165 237.57 179.364 237.597 179.552 237.648Z" fill="url(#paint5_linear_16799_71797)"/>
<path fill-rule="evenodd" clip-rule="evenodd" d="M31.3357 242.095C32.5837 242.095 33.5953 241.082 33.5953 239.832C33.5953 238.583 32.5837 237.57 31.3357 237.57C30.0878 237.57 29.0762 238.583 29.0762 239.832C29.0762 241.082 30.0878 242.095 31.3357 242.095ZM29.8294 239.832C29.8294 238.999 30.5038 238.324 31.3357 238.324V241.341C30.5038 241.341 29.8294 240.665 29.8294 239.832Z" fill="url(#paint6_linear_16799_71797)"/>
<g clip-path="url(#clip1_16799_71797)">
<path d="M70.4057 99.2312C70.4057 99.2312 55.196 94.333 51.9368 83.2277C48.9173 72.9259 35.3746 68.9055 35.3746 68.9055C35.3746 68.9055 24.6641 66.7512 21.1015 54.9754C17.5388 43.1995 5.45342 38.6058 5.45342 38.6058C5.45342 38.6058 18.7601 42.1434 23.3342 52.1375C27.9084 62.1316 34.3706 63.6121 34.3706 63.6121C34.3706 63.6121 51.5884 68.4714 54.9412 74.0921C54.9412 74.0921 57.7734 78.1934 59.2344 80.7073C62.8458 86.8949 70.5031 93.7045 77.6285 93.2445M97.7645 86.3086C100.563 83.7785 98.244 75.0089 96.3784 70.4541C95.8727 69.2133 94.4865 66.6411 93.7748 65.4813C92.3849 63.2233 89.7213 58.4385 94.0145 52.076C95.5018 49.8698 95.8764 47.466 95.9363 45.3474C96.0262 42.2179 95.1047 39.1403 93.49 36.3381C92.0702 33.8792 89.8787 28.5761 93.1754 23.1141C97.1651 16.4957 95.7003 3.22314 95.7003 3.22314C95.7003 3.22314 100.997 11.957 98.0455 21.4555C97.1239 24.4229 96.9029 27.5491 97.7832 30.5263C98.3302 32.3599 99.6076 34.0866 100.926 35.9526C105.729 42.7492 102.08 50.7186 102.08 50.7186C102.08 50.7186 97.1314 59.4946 102.466 67.7814C107.568 75.7054 106.456 85.8874 106.456 85.8874M133.788 94.8675C133.788 94.8675 142.787 83.7558 154.456 80.4417C157.734 79.5119 160.802 78.0444 163.286 75.9743C165.099 74.4582 166.789 72.5177 167.564 70.1884C168.651 66.9165 170.206 63.7579 172.775 61.1856C175.368 58.594 178.994 55.8987 183.591 54.7097C193.754 52.0824 204.525 38.6155 204.525 38.6155C204.525 38.6155 201.917 49.5394 188.618 56.7053C175.319 63.8713 172.461 73.3664 172.461 73.3664C172.461 73.3664 170.078 81.8023 157.086 85.0613C144.098 88.3236 140.183 100.404 140.183 100.404M59.9425 118.769C59.9425 118.769 48.4453 123.93 38.3641 117.564C28.283 111.198 17.4377 115.413 17.4377 115.413C17.4377 115.413 4.76037 121.121 -9.28053 115.685C-23.3214 110.249 -35.5154 117.256 -35.5154 117.256C-35.5154 117.256 -21.1673 115.073 -11.1424 120.301C-4.03205 124.008 2.0481 125.138 8.33054 124.293C11.4399 123.871 14.4257 122.987 17.2953 121.86C21.2026 120.321 28.7438 118.432 35.562 122.935C45.3059 129.366 58.9685 126.972 58.9685 126.972M75.8265 155.454C75.8265 155.454 65.2996 159.018 61.9692 168.053C59.8601 173.764 52.5287 178.659 48.8349 180.059C47.0292 180.745 43.4178 181.899 42.4363 182.197C39.0909 183.211 32.1604 186.094 26.1364 196.137C18.9099 208.185 5.45718 210.767 5.45718 210.767C5.45718 210.767 18.4904 202.567 21.5248 193.782C24.563 184.993 32.7073 179.485 41.2225 176.748C41.2225 176.748 55.0536 172.582 57.1478 163.339C59.2419 154.097 71.361 151.593 71.361 151.593M99.1768 163.867C99.1768 163.867 104.811 170.858 98.6299 181.821C92.4486 192.784 96.2211 199.668 96.2211 199.668C96.2211 199.668 100.833 208.366 95.8015 214.162C93.5388 216.773 93.1004 220.625 93.3027 224.078C93.5013 227.489 94.4154 230.833 95.7303 234.056C96.9965 237.166 98.7498 242.926 96.0562 246.169C96.0562 246.169 102.504 242.246 99.78 231.377C97.0565 220.508 101.769 214.8 101.769 214.8C101.769 214.8 106.538 207.158 103.343 200.507C102.05 197.815 101.181 194.951 101.477 192.045C101.788 188.977 103.152 185.394 107.078 182.485C115.806 176.025 109.303 163.942 109.303 163.942M139.651 149.801C139.651 149.801 152.441 157.213 156.037 164.787C159.634 172.361 165.729 174.114 165.729 174.114C165.729 174.114 177.38 178.338 180.122 186.301C180.586 187.649 180.864 189.048 181.613 190.299C182.819 192.308 185.059 194.951 189.079 196.678C192.211 198.025 195.777 199.094 198.295 200.902C200.37 202.399 201.161 203.581 203.045 207.316C203.124 207.469 203.202 207.634 203.262 207.789L204.517 210.76C199.265 204.851 197.141 203.131 193.485 202.243C191.615 201.787 189.693 201.518 186.828 200.724C182.782 199.61 176.896 196.904 175.203 191.326C172.805 183.408 164.856 180.888 164.856 180.888C164.856 180.888 153.276 176.971 149.875 167.933C147.196 160.822 133.283 155.295 133.283 155.295M60.1111 117.859C60.1111 117.859 57.0841 116.783 50.753 118.248C44.965 119.585 37.6524 113.994 37.6524 113.994C37.6524 113.994 27.0168 105.989 17.9546 111.441C8.89248 116.893 -0.461881 111.525 -0.461881 111.525C-0.461881 111.525 9.86275 113.236 15.8867 108.973C15.8867 108.973 25.537 101.988 33.8125 106.928C42.0879 111.869 45.7143 113.573 48.4865 113.489C53.3229 113.336 58.8486 111.499 61.3661 113.45M65.191 105.769C62.6061 103.896 64.0259 103.394 54.8888 99.9439C49.8089 98.0261 47.475 93.4486 46.5422 90.8861C45.5869 88.2782 44.3694 85.7351 42.6761 83.4221C40.5519 80.5291 37.51 77.4969 33.8162 76.9462C26.4286 75.8382 21.6035 68.7695 21.6035 68.7695C21.6035 68.7695 27.5263 72.8805 36.2812 74.1342C43.8336 75.2162 46.8007 80.2765 47.9583 82.7094C48.6101 84.0765 49.2957 85.4209 50.1011 86.7265C52.1915 90.1151 55.8741 95.6385 60.216 97.2162C67.7047 99.9277 68.4389 101.198 68.4389 101.198M64.4267 107C64.4267 107 59.8039 103.76 55.1922 104.457C51.4985 105.014 50.8616 104.457 47.1154 102.072C43.3729 99.6848 37.6074 99.4548 37.6074 99.4548C37.6074 99.4548 42.1628 101.735 44.6616 105.555C47.2165 109.462 51.5022 110.019 53.4577 109.967C53.4577 109.967 59.639 109.792 61.5983 112.031M77.6247 93.2477C77.6247 93.2477 74.5341 86.8301 67.9407 84.0571C66.1088 83.2893 64.6028 82.2396 63.3778 81.122C60.8566 78.8251 59.5079 75.7994 58.9684 72.6635C58.6051 70.561 57.0279 67.4089 51.2849 65.1833C43.8524 62.3065 40.743 52.212 40.743 52.212C40.743 52.212 46.3998 58.5421 48.6401 59.6566C51.9967 61.3282 53.8324 61.4189 55.6867 62.3227C59.0321 63.9522 60.4595 65.6077 62.1865 68.5719C62.8458 69.7057 63.153 70.1787 64.5316 72.8157C64.8875 73.4993 65.3183 74.1569 65.7754 74.7724C67.2926 76.7972 69.2893 78.5239 71.5333 79.959C74.4629 81.8315 80.4906 86.1304 82.4274 90.8569M91.6019 87.504C91.6019 87.504 86.7131 81.5788 87.9868 76.7324C89.268 71.8536 86.5632 70.5707 84.2481 65.6401C81.9329 60.7094 82.9144 58.0141 85.3532 50.981C87.7958 43.9511 80.7753 36.7528 80.7753 36.7528C80.7753 36.7528 90.7328 43.5947 89.5939 49.9249C88.5487 55.7334 87.6197 60.1457 90.0285 64.6326C91.5495 67.4639 95.4343 71.2704 95.3707 81.2645C95.3519 84.0473 97.7682 86.3053 97.7682 86.3053M83.9147 89.5708C83.9147 89.5708 80.7753 85.6121 80.2284 80.3575C79.5765 74.1245 72.7883 71.2348 72.7883 71.2348C72.7883 71.2348 82.3225 73.8362 83.821 78.5206C85.3157 83.2018 89.815 87.6303 89.815 87.6303M108.254 85.6477C111.966 79.0746 107.696 71.332 106.152 67.6778C104.939 64.8075 104.429 62.5074 104.275 59.8607C104.137 57.4472 104.53 54.5218 106.212 51.454C110.423 43.7891 104.482 35.9688 104.482 35.9688C104.482 35.9688 112.367 40.799 110.359 51.2823C110.135 52.442 109.715 53.5694 109.277 54.6806C108.655 56.2615 107.891 59.676 110.389 63.7417C113.855 69.3688 115.99 72.9453 116.634 77.0855C117.32 81.4881 116.863 86.7815 116.863 86.7815M131.934 93.7823C131.934 93.7823 138.617 83.9858 144.435 81.0604C150.819 77.8533 156.955 77.5164 158.397 73.5867C159.84 69.6571 160.668 64.8982 164.242 62.488C167.815 60.0777 170.588 58.6393 170.588 58.6393C170.588 58.6393 169.25 58.7074 167.31 59.1544C162.207 60.3401 158.068 63.4793 155.595 67.5158C153.879 70.3148 151.077 73.049 145.188 74.6169C137.359 76.7032 130.473 84.1219 130.473 84.1219C130.473 84.1219 128.079 86.8398 126.176 90.5589M117.728 87.5169C117.728 87.5169 118.065 80.6685 123.718 78.08C129.372 75.4916 129.926 67.924 129.926 67.924C129.926 67.924 133.522 72.8611 128.787 79.6383C124.052 86.4155 124.827 89.3862 124.827 89.3862M141.041 101.735C141.041 101.735 146.132 91.2295 156.172 88.6702C156.172 88.6702 167.512 86.328 172.749 80.1015C178.477 73.2887 183.003 72.563 183.003 72.563C183.003 72.563 186.76 71.0826 186.078 69.0157C186.078 69.0157 187.618 71.5264 183.516 74.1861C179.414 76.8458 176.338 79.8035 175.143 82.6122C173.944 85.4177 170.576 90.9736 161.525 92.4119C154.464 93.5361 144.982 106.621 144.982 106.621M147.96 113.647C147.96 113.647 168.64 107.719 178.342 112.857C183.194 115.426 187.3 115.484 190.188 114.898C192.222 114.486 194.05 113.547 195.65 112.384C197.684 110.903 202.914 107.729 208.35 109.54C208.35 109.54 199.392 112.238 196.317 116.025C193.751 119.177 189.843 119.893 185.468 119.505C183.737 119.349 182.051 118.999 180.388 118.565C179.369 118.299 178.185 117.962 177.174 117.606C173.169 116.19 170.191 115.507 165.879 115.815C161.619 116.116 155.689 117.065 149.481 119.686M145.331 107.103C145.331 107.103 155.314 97.6082 162.297 99.1438C169.28 100.679 171.108 101.204 172.214 99.6718C172.667 100.511 169.048 104.521 162.41 103.841C156.393 103.226 147.518 112.416 147.518 112.416M60.1635 134.789C60.1635 134.789 54.4542 133.201 49.3968 135.236C44.7103 137.118 36.2101 133.221 33.3067 131.319C28.2231 127.992 23.825 127.254 17.1417 131.05C10.4622 134.85 -2.76956 130.535 -2.76956 130.535C-2.76956 130.535 9.3645 131.789 17.4564 126.981C21.5173 124.571 25.6944 124.432 28.8524 124.895C31.2725 125.252 33.5465 126.116 35.6032 127.279C38.3529 128.834 44.2682 131.838 47.5799 130.995C53.7013 129.44 58.9198 129.333 58.9198 129.333M68.4764 149.066C68.4764 149.066 55.1323 153.731 54.5029 161.149C53.8773 168.571 44.8751 170.939 44.8751 170.939C41.7095 171.992 39.3606 172.74 37.6149 173.278C33.7862 174.451 30.2311 176.197 27.0992 178.432L24.0535 180.606C24.0535 180.606 26.9306 172.941 34.9888 169.958C43.0469 166.974 46.7857 165.425 48.5989 162.017C50.412 158.609 53.3004 146.989 65.4757 144.624M64.1233 142.45C57.2302 140.325 54.9 142.185 49.8988 145.667C44.8938 149.153 37.54 145.489 37.54 145.489C37.54 145.489 45.8079 145.667 49.719 140.892C53.6338 136.114 61.4485 136.723 61.4485 136.723M77.6135 156.973C77.6135 156.973 69.4017 160.349 65.2022 170.972C62.0516 178.938 53.926 182.2 50.0562 183.331C45.0212 184.808 40.9977 188.3 39.8889 192.797C39.7877 193.208 39.7015 193.639 39.6304 194.083C39.6304 194.083 45.2722 186.049 55.4732 185.838C65.6705 185.631 71.6832 171.82 71.6832 171.82C71.6832 171.82 75.066 160.09 84.1844 159.908M86.346 160.793C86.346 160.793 76.5458 162.925 77.1527 172.378C77.7596 181.831 72.5373 183.969 72.5373 183.969C72.5373 183.969 84.2144 180.285 83.2553 173.515C82.2963 166.744 91.0662 162.328 91.0662 162.328C91.0662 162.328 96.5807 174.108 90.3994 179.453C88.545 181.056 87.2676 183.01 86.3947 184.963C84.6302 188.899 84.6789 193.231 85.9301 197.313C86.833 200.257 87.1627 204.676 83.1167 208.317C83.1167 208.317 78.9959 212.594 82.2925 216.63C82.2925 216.63 82.094 212.292 87.6197 208.7C93.1491 205.11 91.6581 197.841 91.0962 195.003C90.5343 192.165 90.3957 185.391 94.3817 181.944C98.3677 178.497 101.32 167.081 97.1876 163.585M111.554 163.66C111.554 163.66 118.916 171.289 111.554 182.255C110.213 184.251 109.43 186.522 109.359 188.825C109.269 191.695 110.221 195.09 114.375 197.199C119.186 199.642 117.762 204.689 115.709 208.505C113.398 212.804 112.832 217.68 114.304 222.251C114.383 222.5 114.465 222.734 114.548 222.954C114.548 222.954 116.443 216.203 117.788 213.737C121.306 207.268 130.02 203.4 121.268 195.761C121.268 195.761 114.885 190.143 115.934 186.36C117.657 180.12 125.955 167.483 117.178 162.601M132.005 156.407C132.005 156.407 142.742 161.752 144.39 168.879C146.039 176.006 149.747 179.213 155.104 182.181C160.465 185.151 163.211 188.478 163.758 191.802C164.309 195.129 167.092 197.951 167.092 197.951C167.092 197.951 163.2 197.552 160.87 193.542C159.806 191.715 158.547 189.959 156.831 188.553C155.198 187.218 152.999 185.835 150.339 185.122C144.255 183.489 140.326 176.761 138.936 173.602C137.816 171.053 136.07 165.046 126.427 159.299M120.148 161.774C120.148 161.774 125.438 166.265 124.067 172.679C122.696 179.093 130.971 182.628 130.971 182.628C130.971 182.628 127.884 177.159 129.068 174.308C130.844 170.032 132.061 164.165 124.633 160.106M141.367 148.317C141.367 148.317 153.741 150.413 160.518 160.984C166.115 169.718 170.131 170.93 172.959 171.315C174.667 171.548 176.338 172.002 177.795 172.815C180.32 174.227 183.52 176.994 185.183 182.313C185.183 182.313 187.052 173.097 176.338 167.421C169.793 163.951 166.976 160.446 165.774 158.247C164.05 155.085 161.893 152.104 159.034 149.633C155.303 146.419 150.103 143.283 144.356 143.801M145.375 142.084C145.375 142.084 156.981 140.076 163.305 147.332C164.092 148.233 165.066 149.03 166.276 149.454C167.838 150.008 170.131 150.235 173.038 148.939C173.038 148.939 166.703 147.122 164.14 141.245C161.578 135.369 148.017 136.243 148.017 136.243C148.017 136.243 162.799 129.434 173.296 134.688C183.793 139.943 190.004 141.278 196.332 140.38C202.659 139.483 209.219 133.176 214.688 136.376C214.688 136.376 203.824 130.351 198.051 134.28C192.608 137.99 185.906 135.369 183.306 133.431C181.512 132.087 179.571 130.901 177.376 130.124C171.228 127.95 160.136 125.413 149.526 130.15C149.526 130.15 161.735 120.369 175.772 126.534C180.732 128.711 185.494 129.427 189.577 129.447C195.167 129.473 200.558 127.83 205.278 125.245C208.788 123.317 215.029 120.875 221.971 122.64C232.659 125.358 245.505 116.945 245.505 116.945C234.566 121.306 222.042 118.238 222.042 118.238C222.042 118.238 207.627 115.484 198.804 121.085C189.989 126.687 178.709 121.643 178.709 121.643C163.728 115.756 149.669 120.82 149.669 120.82M68.1055 81.2386C69.664 81.8865 75.4894 84.922 78.3178 89.7846M61.9954 74.5489C61.9954 74.5489 62.9132 77.5844 65.2209 79.5411M83.9484 84.5073L85.6716 87.0472M90.9164 76.3631C90.9164 76.3631 90.1971 80.9762 92.4973 83.8789M90.819 71.2186C90.819 71.2186 91.306 73.0781 91.0325 74.28M87.1926 64.7265C87.9344 66.3916 89.3579 68.5038 89.3579 68.5038M112.281 72.9323C112.281 72.9323 113.847 76.3469 113.285 83.6359M108.475 65.2027C108.475 65.2027 109.232 67.0104 111 69.8418M121.576 86.3539C121.576 86.3539 121.448 83.5549 124.382 81.0248M130.713 90.1604C130.713 90.1604 133.552 85.314 137.377 82.4146M139.677 80.6652C139.677 80.6652 142.884 78.2485 144.832 77.9505M149.912 75.8771C149.912 75.8771 153.913 74.8081 154.49 73.13M144.69 102.247C144.69 102.247 148.106 96.429 154.082 92.8169M156.839 91.1582C156.839 91.1582 158.139 90.4423 159.424 90.3613M148.668 107.677C148.668 107.677 151.516 105.215 154.014 104.032M157.127 102.636C157.127 102.636 158.607 101.952 159.986 101.952M152.46 115.484C152.46 115.484 159.54 112.88 165.122 113.378M168.362 113.356C168.362 113.356 171.685 113.061 173.637 113.757M178.968 115.815C178.968 115.815 181.321 116.741 182.703 116.835M152.321 131.873C152.321 131.873 158.233 129.145 167.654 130.639M170.539 131.118C170.539 131.118 174.158 131.76 174.817 132.382M183.756 136.995C183.756 136.995 188.206 138.66 188.892 138.262M149.597 139.276C149.597 139.276 156.539 138.463 160.094 141.142M162.391 143.128L163.076 143.72M145.589 146.468C145.589 146.468 152.445 146.72 156.322 150.753M159.821 154.57L160.986 156.679M163.462 160.576L164.309 161.444M131.252 159.196C131.252 159.196 138.726 163.093 140.794 169.339M141.577 171.908C141.577 171.908 143.375 176.566 145.514 178.824M147.859 180.444L149.242 181.64M124.891 163.401C124.891 163.401 126.476 164.752 126.618 167.343M127.079 170.897C127.079 170.897 126.322 172.653 126.461 174.192M116.297 165.403C116.297 165.403 119.909 168.422 116.709 175.918M116.099 178.753C116.099 178.753 114.046 182.174 113.278 184.056M112.469 186.298C112.469 186.298 112.026 188.345 112.727 189.087M95.0522 165.749C95.0522 165.749 97.9406 170.411 95.4568 174.989M93.5949 179.216C93.5949 179.216 89.3018 182.469 89.0657 185.239M88.0805 188.656L87.8932 191.112M80.8315 168.179C80.8315 168.179 81.2211 165.425 85.6342 163.093M80.4307 170.748C80.4307 170.748 81.1799 173.152 80.4794 174.166M69.4767 168.299C69.4767 168.299 72.0428 162.633 77.621 159.565M65.8803 175.044C65.8803 175.044 67.8321 171.872 68.1467 170.79M62.2914 178.957L63.8536 177.606M55.4432 154.265C55.4432 154.265 58.3653 149.62 64.0933 147.861M52.2028 158.927L53.2067 157.19M47.2203 166.734C47.2203 166.734 49.483 165.724 50.2659 164.101M53.2704 140.769C53.2704 140.769 56.7357 138.88 59.2344 139.195M42.1703 132.654C42.1703 132.654 45.4296 133.872 48.1606 132.981M50.3971 132.518C50.3971 132.518 55.6643 131.235 57.9158 131.685M33.4191 128.598L36.3075 129.988M42.3239 114.153C42.3239 114.153 46.5047 116.777 51.7457 115.646M55.2709 114.963C55.2709 114.963 57.1365 114.405 57.9982 114.606M35.7043 110.385L37.9146 111.687M48.5502 105.626C48.5502 105.626 50.4383 107.764 53.203 107M56.672 106.481C56.672 106.481 59.3131 106.653 60.7142 107.891M52.997 95.4312C52.997 95.4312 55.5706 98.3306 59.2419 99.0757M61.8231 100.362C61.8231 100.362 62.9132 100.585 64.1383 101.645M49.0634 89.8397L50.5844 92.1981M134.474 99.1794C150.961 113.437 150.961 136.548 134.474 150.805C117.987 165.063 91.261 165.063 74.7738 150.805C58.2866 136.548 58.2866 113.437 74.7738 99.1794C91.261 84.922 117.987 84.922 134.474 99.1794ZM136.628 97.3166C154.303 112.601 154.303 137.384 136.628 152.668C118.953 167.952 90.2945 167.952 72.6198 152.668C54.945 137.384 54.945 112.601 72.6197 97.3166C90.2945 82.0323 118.953 82.0323 136.628 97.3166ZM127.513 105.224C139.966 115.993 139.966 133.454 127.513 144.222C115.061 154.991 94.8724 154.994 82.4162 144.222C69.9599 133.451 69.9674 115.996 82.4199 105.228C94.8724 94.4593 115.065 94.4593 127.513 105.224Z" stroke="black" stroke-opacity="0.1" stroke-linecap="round" stroke-linejoin="round"/>
<path d="M1.57319 42.9294L1.21992 43.2832L1.22021 43.2835L1.57319 42.9294ZM1.49117 -20.713L1.13705 -21.066L1.13704 -21.066L1.49117 -20.713ZM65.1222 -20.8007L65.4752 -21.1548L65.4752 -21.1548L65.1222 -20.8007ZM5.47641 39.0148L5.12325 39.3688L5.12325 39.3688L5.47641 39.0148ZM61.219 -16.8862L60.8658 -16.5322L60.8662 -16.5318L61.219 -16.8862ZM63.1563 40.7824L62.8023 40.4292L62.8023 40.4292L63.1563 40.7824ZM3.63228 40.8703L3.98545 40.5163L3.98541 40.5163L3.63228 40.8703ZM3.53914 -18.6537L3.89307 -18.3006L3.89309 -18.3006L3.53914 -18.6537ZM63.0688 -18.736L62.7156 -18.382L62.7161 -18.3816L63.0688 -18.736ZM46.0021 -1.62399L46.4699 -1.80044C46.419 -1.9354 46.3123 -2.0418 46.1772 -2.09232L46.0021 -1.62399ZM61.3007 38.9381L61.1255 39.4064C61.3093 39.4751 61.5162 39.43 61.6547 39.2911C61.7932 39.1522 61.8377 38.9452 61.7685 38.7616L61.3007 38.9381ZM20.6933 23.7526L20.2255 23.9291C20.2764 24.064 20.3831 24.1704 20.5182 24.221L20.6933 23.7526ZM5.39475 -16.8094L5.56988 -17.2778C5.38615 -17.3465 5.17921 -17.3014 5.0407 -17.1625C4.90219 -17.0236 4.85769 -16.8165 4.92692 -16.633L5.39475 -16.8094ZM46.0371 23.7198L46.2135 24.1877C46.3485 24.1368 46.4549 24.0301 46.5055 23.895L46.0371 23.7198ZM20.6583 -1.59116L20.4818 -2.05899C20.3469 -2.00808 20.2405 -1.90137 20.1899 -1.76626L20.6583 -1.59116ZM61.2247 -16.8918L61.693 -16.7167C61.7617 -16.9004 61.7166 -17.1074 61.5777 -17.2459C61.4388 -17.3844 61.2317 -17.4289 61.0482 -17.3597L61.2247 -16.8918ZM60.3717 11.0259L60.8272 11.232C60.8867 11.1005 60.8865 10.9499 60.8267 10.8186L60.3717 11.0259ZM33.4352 70.5827L32.9802 70.79C33.0615 70.9685 33.2397 71.083 33.4359 71.0827C33.6321 71.0824 33.8099 70.9675 33.8908 70.7887L33.4352 70.5827ZM6.3294 11.0971L5.87383 10.891C5.81438 11.0224 5.8146 11.1731 5.87441 11.3044L6.3294 11.0971ZM33.2659 -48.4597L33.7209 -48.667C33.6395 -48.8455 33.4613 -48.9599 33.2652 -48.9597C33.069 -48.9594 32.8911 -48.8444 32.8103 -48.6657L33.2659 -48.4597ZM33.3885 38.077L33.1825 38.5326C33.3139 38.592 33.4645 38.5918 33.5958 38.532L33.3885 38.077ZM-26.1706 11.1466L-26.3779 10.6916C-26.5565 10.7729 -26.6709 10.9511 -26.6706 11.1473C-26.6704 11.3434 -26.5554 11.5213 -26.3766 11.6021L-26.1706 11.1466ZM33.3126 -15.954L33.5186 -16.4096C33.3872 -16.469 33.2365 -16.4688 33.1053 -16.409L33.3126 -15.954ZM92.866 10.9821L93.0733 11.4371C93.2518 11.3558 93.3663 11.1776 93.366 10.9814C93.3658 10.7853 93.2508 10.6074 93.0721 10.5265L92.866 10.9821ZM40.3217 56.0293C49.571 54.6054 58.4604 50.3268 65.5697 43.1946L64.8614 42.4887C57.9078 49.4647 49.2153 53.6484 40.1696 55.0409L40.3217 56.0293ZM65.5697 43.1946C72.6788 36.0627 76.9344 27.1619 78.3354 17.9127L77.3467 17.763C75.9765 26.8087 71.8152 35.5125 64.8614 42.4887L65.5697 43.1946ZM-11.5651 18.3493C-10.089 27.4785 -5.82682 36.2479 1.21992 43.2832L1.92645 42.5755C-4.96652 35.6937 -9.13423 27.1181 -10.5779 18.1897L-11.5651 18.3493ZM1.22021 43.2835C8.27265 50.3131 17.0594 54.5582 26.2004 56.0001L26.3562 55.0123C17.417 53.6022 8.82474 49.4514 1.92616 42.5752L1.22021 43.2835ZM26.385 -33.9006C17.1358 -32.4767 8.24632 -28.1981 1.13705 -21.066L1.84529 -20.36C8.79895 -27.3361 17.4914 -31.5197 26.5371 -32.9123L26.385 -33.9006ZM1.13704 -21.066C-5.9034 -14.0027 -10.1419 -5.21064 -11.5886 3.9355L-10.6009 4.09174C-9.18597 -4.85339 -5.04142 -13.4509 1.8453 -20.36L1.13704 -21.066ZM78.2777 3.85402C76.8186 -5.30403 72.5506 -14.1023 65.4752 -21.1548L64.7692 -20.4466C71.6901 -13.5481 75.8633 -4.94476 77.2901 4.01135L78.2777 3.85402ZM65.4752 -21.1548C58.4515 -28.1557 49.7163 -32.3951 40.6211 -33.8599L40.4621 -32.8726C49.3565 -31.4401 57.8985 -27.2949 64.7692 -20.4466L65.4752 -21.1548ZM43.1682 49.8254C49.9454 48.1128 56.3619 44.6067 61.6603 39.2969L60.9524 38.5906C55.7855 43.7686 49.5304 47.1862 42.9232 48.8559L43.1682 49.8254ZM61.6603 39.2969C66.9585 33.9872 70.4534 27.559 72.1376 20.7753L71.1671 20.5343C69.5255 27.1465 66.1193 33.4125 60.9524 38.5906L61.6603 39.2969ZM-5.3382 21.1392C-3.60198 27.8251 -0.11246 34.1445 5.12325 39.3688L5.82958 38.6609C0.723655 33.5661 -2.67773 27.4057 -4.3703 20.8878L-5.3382 21.1392ZM5.12325 39.3688C10.3476 44.5816 16.6557 48.0483 23.3247 49.7674L23.5743 48.7991C17.0734 47.1233 10.9243 43.7444 5.82958 38.6609L5.12325 39.3688ZM23.5386 -27.6968C16.7613 -25.9841 10.3448 -22.478 5.04647 -17.1683L5.75434 -16.4619C10.9212 -21.64 17.1763 -25.0576 23.7836 -26.7273L23.5386 -27.6968ZM5.04647 -17.1683C-0.251812 -11.8585 -3.7467 -5.43034 -5.43089 1.35338L-4.46035 1.59433C-2.81876 -5.01781 0.587449 -11.2839 5.75434 -16.4619L5.04647 -17.1683ZM72.0163 0.903553C70.2744 -5.74211 66.7964 -12.0388 61.5718 -17.2405L60.8662 -16.5318C65.9606 -11.4598 69.3508 -5.32186 71.049 1.1571L72.0163 0.903553ZM61.5722 -17.2401C56.262 -22.5388 49.8335 -26.0343 43.0497 -27.7191L42.8086 -26.7486C49.4209 -25.1064 55.6873 -21.6996 60.8658 -16.5322L61.5722 -17.2401ZM42.1959 52.7313C42.7148 52.6186 43.2452 52.5033 43.7773 52.3646L43.5249 51.3969C43.016 51.5297 42.5056 51.6407 41.9835 51.7541L42.1959 52.7313ZM46.7094 51.5129C52.8525 49.4922 58.6284 46.0288 63.5102 41.1355L62.8023 40.4292C58.0335 45.2092 52.3938 48.5904 46.3969 50.563L46.7094 51.5129ZM63.5102 41.1356C68.7644 35.8699 72.3538 29.567 74.2714 22.886L73.3102 22.6101C71.4382 29.1325 67.9341 35.2862 62.8023 40.4292L63.5102 41.1356ZM74.6715 21.411C74.8037 20.8881 74.924 20.355 75.0325 19.835L74.0536 19.6307C73.9473 20.1402 73.83 20.6594 73.702 21.166L74.6715 21.411ZM-8.2676 20.1183C-8.15299 20.6454 -8.02716 21.1714 -7.89599 21.6903L-6.92648 21.4452C-7.05559 20.9345 -7.17871 20.4196 -7.29043 19.9058L-8.2676 20.1183ZM-7.03095 24.6288C-4.99834 30.6916 -1.56312 36.3934 3.27914 41.2242L3.98541 40.5163C-0.744566 35.7975 -4.09835 30.2301 -6.08281 24.311L-7.03095 24.6288ZM3.2791 41.2242C8.58541 46.5191 14.94 50.1145 21.6662 52.0325L21.9405 51.0708C15.3723 49.198 9.16787 45.6876 3.98545 40.5163L3.2791 41.2242ZM23.1523 52.4171C23.675 52.5421 24.1959 52.6623 24.7298 52.7715L24.93 51.7917C24.4118 51.6858 23.9031 51.5684 23.3849 51.4445L23.1523 52.4171ZM24.9057 -30.684C24.3758 -30.5803 23.8408 -30.4595 23.3178 -30.3274L23.5628 -29.3578C24.0694 -29.4859 24.5866 -29.6026 25.0976 -29.7026L24.9057 -30.684ZM20.3409 -29.4988C14.0663 -27.4952 8.1643 -23.9974 3.18518 -19.0069L3.89309 -18.3006C8.75689 -23.1756 14.5196 -26.5902 20.6451 -28.5461L20.3409 -29.4988ZM3.1852 -19.0069C-2.10339 -13.7069 -5.69841 -7.36394 -7.61585 -0.637641L-6.65416 -0.363496C-4.78193 -6.93121 -1.2722 -13.1241 3.89307 -18.3006L3.1852 -19.0069ZM-8.00592 0.865306C-8.13089 1.388 -8.25111 1.90889 -8.36018 2.44286L-7.38041 2.64299C-7.27455 2.12474 -7.15723 1.61605 -7.03333 1.09784L-8.00592 0.865306ZM75.0083 2.20272C74.8955 1.68386 74.7802 1.15339 74.6414 0.621348L73.6738 0.873807C73.8065 1.38268 73.9176 1.89312 74.0311 2.41518L75.0083 2.20272ZM73.7836 -2.3399C71.7568 -8.46533 68.3044 -14.2304 63.4215 -19.0903L62.7161 -18.3816C67.4846 -13.6354 70.8552 -8.0067 72.8342 -2.02577L73.7836 -2.3399ZM63.422 -19.0899C58.0471 -24.4533 51.5894 -28.0833 44.7537 -29.9728L44.4873 -29.009C51.161 -27.1642 57.466 -23.6205 62.7156 -18.382L63.422 -19.0899ZM43.2546 -30.3619C42.7275 -30.488 42.2003 -30.6027 41.673 -30.7058L41.4809 -29.7245C41.9945 -29.624 42.5082 -29.5123 43.022 -29.3894L43.2546 -30.3619ZM45.5342 -1.44754L60.8328 39.1145L61.7685 38.7616L46.4699 -1.80044L45.5342 -1.44754ZM61.4758 38.4698L20.8685 23.2843L20.5182 24.221L61.1255 39.4064L61.4758 38.4698ZM21.1612 23.5762L5.86258 -16.9859L4.92692 -16.633L20.2255 23.9291L21.1612 23.5762ZM5.21961 -16.3411L45.8269 -1.15567L46.1772 -2.09232L5.56988 -17.2778L5.21961 -16.3411ZM45.8607 23.252L5.3 38.547L5.65283 39.4827L46.2135 24.1877L45.8607 23.252ZM5.94475 39.1899L21.1266 -1.41606L20.1899 -1.76626L5.00808 38.8397L5.94475 39.1899ZM20.8347 -1.12333L61.4011 -16.424L61.0482 -17.3597L20.4818 -2.05899L20.8347 -1.12333ZM60.7563 -17.067L45.5688 23.5447L46.5055 23.895L61.693 -16.7167L60.7563 -17.067ZM59.9161 10.8199L32.9796 70.3766L33.8908 70.7887L60.8272 11.232L59.9161 10.8199ZM33.8902 70.3754L6.78439 10.8897L5.87441 11.3044L32.9802 70.79L33.8902 70.3754ZM6.78497 11.3031L33.7215 -48.2536L32.8103 -48.6657L5.87383 10.891L6.78497 11.3031ZM32.8109 -48.2523L59.9167 11.2333L60.8267 10.8186L33.7209 -48.667L32.8109 -48.2523ZM33.5945 37.6214L-25.9646 10.691L-26.3766 11.6021L33.1825 38.5326L33.5945 37.6214ZM-25.9633 11.6016L33.5199 -15.499L33.1053 -16.409L-26.3779 10.6916L-25.9633 11.6016ZM33.1065 -15.4984L92.66 11.4377L93.0721 10.5265L33.5186 -16.4096L33.1065 -15.4984ZM92.6588 10.5271L33.1812 37.622L33.5958 38.532L93.0733 11.4371L92.6588 10.5271Z" fill="url(#paint7_linear_16799_71797)"/>
<path d="M1.57319 268.57L1.21992 268.924L1.22021 268.924L1.57319 268.57ZM1.49117 204.928L1.13705 204.575L1.13704 204.575L1.49117 204.928ZM65.1222 204.84L65.4752 204.486L65.4752 204.486L65.1222 204.84ZM5.47641 264.655L5.12325 265.009L5.12325 265.009L5.47641 264.655ZM61.219 208.754L60.8658 209.108L60.8662 209.109L61.219 208.754ZM63.1563 266.423L62.8023 266.07L62.8023 266.07L63.1563 266.423ZM3.63228 266.511L3.98545 266.157L3.98541 266.157L3.63228 266.511ZM3.53914 206.987L3.89307 207.34L3.89309 207.34L3.53914 206.987ZM63.0688 206.905L62.7156 207.259L62.7161 207.259L63.0688 206.905ZM46.0021 224.017L46.4699 223.84C46.419 223.705 46.3123 223.599 46.1772 223.548L46.0021 224.017ZM61.3007 264.579L61.1255 265.047C61.3093 265.116 61.5162 265.071 61.6547 264.932C61.7932 264.793 61.8377 264.586 61.7685 264.402L61.3007 264.579ZM20.6933 249.393L20.2255 249.57C20.2764 249.705 20.3831 249.811 20.5182 249.862L20.6933 249.393ZM5.39475 208.831L5.56988 208.363C5.38615 208.294 5.17921 208.339 5.0407 208.478C4.90219 208.617 4.85769 208.824 4.92692 209.008L5.39475 208.831ZM46.0371 249.36L46.2135 249.828C46.3485 249.777 46.4549 249.671 46.5055 249.536L46.0371 249.36ZM20.6583 224.049L20.4818 223.582C20.3469 223.633 20.2405 223.739 20.1899 223.874L20.6583 224.049ZM61.2247 208.749L61.693 208.924C61.7617 208.74 61.7166 208.533 61.5777 208.395C61.4388 208.256 61.2317 208.212 61.0482 208.281L61.2247 208.749ZM60.3717 236.667L60.8272 236.873C60.8867 236.741 60.8865 236.59 60.8267 236.459L60.3717 236.667ZM33.4352 296.223L32.9802 296.431C33.0615 296.609 33.2397 296.724 33.4359 296.723C33.6321 296.723 33.8099 296.608 33.8908 296.429L33.4352 296.223ZM6.3294 236.738L5.87383 236.532C5.81438 236.663 5.8146 236.814 5.87441 236.945L6.3294 236.738ZM33.2659 177.181L33.7209 176.974C33.6395 176.795 33.4613 176.681 33.2652 176.681C33.069 176.681 32.8911 176.796 32.8103 176.975L33.2659 177.181ZM33.3885 263.718L33.1825 264.173C33.3139 264.233 33.4645 264.232 33.5958 264.173L33.3885 263.718ZM-26.1706 236.787L-26.3779 236.332C-26.5565 236.414 -26.6709 236.592 -26.6706 236.788C-26.6704 236.984 -26.5554 237.162 -26.3766 237.243L-26.1706 236.787ZM33.3126 209.687L33.5186 209.231C33.3872 209.172 33.2365 209.172 33.1053 209.232L33.3126 209.687ZM92.866 236.623L93.0733 237.078C93.2518 236.996 93.3663 236.818 93.366 236.622C93.3658 236.426 93.2508 236.248 93.0721 236.167L92.866 236.623ZM40.3217 281.67C49.571 280.246 58.4604 275.967 65.5697 268.835L64.8614 268.129C57.9078 275.105 49.2153 279.289 40.1696 280.682L40.3217 281.67ZM65.5697 268.835C72.6788 261.703 76.9344 252.803 78.3354 243.553L77.3467 243.404C75.9765 252.449 71.8152 261.153 64.8614 268.129L65.5697 268.835ZM-11.5651 243.99C-10.089 253.119 -5.82682 261.889 1.21992 268.924L1.92645 268.216C-4.96652 261.334 -9.13423 252.759 -10.5779 243.83L-11.5651 243.99ZM1.22021 268.924C8.27265 275.954 17.0594 280.199 26.2004 281.641L26.3562 280.653C17.417 279.243 8.82474 275.092 1.92616 268.216L1.22021 268.924ZM26.385 191.74C17.1358 193.164 8.24632 197.442 1.13705 204.575L1.84529 205.281C8.79895 198.305 17.4914 194.121 26.5371 192.728L26.385 191.74ZM1.13704 204.575C-5.9034 211.638 -10.1419 220.43 -11.5886 229.576L-10.6009 229.732C-9.18597 220.787 -5.04142 212.19 1.8453 205.281L1.13704 204.575ZM78.2777 229.495C76.8186 220.337 72.5506 211.538 65.4752 204.486L64.7692 205.194C71.6901 212.093 75.8633 220.696 77.2901 229.652L78.2777 229.495ZM65.4752 204.486C58.4515 197.485 49.7163 193.246 40.6211 191.781L40.4621 192.768C49.3565 194.2 57.8985 198.346 64.7692 205.194L65.4752 204.486ZM43.1682 275.466C49.9454 273.753 56.3619 270.247 61.6603 264.938L60.9524 264.231C55.7855 269.409 49.5304 272.827 42.9232 274.497L43.1682 275.466ZM61.6603 264.938C66.9585 259.628 70.4534 253.2 72.1376 246.416L71.1671 246.175C69.5255 252.787 66.1193 259.053 60.9524 264.231L61.6603 264.938ZM-5.3382 246.78C-3.60198 253.466 -0.11246 259.785 5.12325 265.009L5.82958 264.302C0.723655 259.207 -2.67773 253.046 -4.3703 246.528L-5.3382 246.78ZM5.12325 265.009C10.3476 270.222 16.6557 273.689 23.3247 275.408L23.5743 274.44C17.0734 272.764 10.9243 269.385 5.82958 264.302L5.12325 265.009ZM23.5386 197.944C16.7613 199.656 10.3448 203.163 5.04647 208.472L5.75434 209.179C10.9212 204.001 17.1763 200.583 23.7836 198.913L23.5386 197.944ZM5.04647 208.472C-0.251812 213.782 -3.7467 220.21 -5.43089 226.994L-4.46035 227.235C-2.81876 220.623 0.587449 214.357 5.75434 209.179L5.04647 208.472ZM72.0163 226.544C70.2744 219.899 66.7964 213.602 61.5718 208.4L60.8662 209.109C65.9606 214.181 69.3508 220.319 71.049 226.798L72.0163 226.544ZM61.5722 208.401C56.262 203.102 49.8335 199.606 43.0497 197.922L42.8086 198.892C49.4209 200.534 55.6873 203.941 60.8658 209.108L61.5722 208.401ZM42.1959 278.372C42.7148 278.259 43.2452 278.144 43.7773 278.005L43.5249 277.038C43.016 277.17 42.5056 277.281 41.9835 277.395L42.1959 278.372ZM46.7094 277.154C52.8525 275.133 58.6284 271.669 63.5102 266.776L62.8023 266.07C58.0335 270.85 52.3938 274.231 46.3969 276.204L46.7094 277.154ZM63.5102 266.776C68.7644 261.511 72.3538 255.208 74.2714 248.527L73.3102 248.251C71.4382 254.773 67.9341 260.927 62.8023 266.07L63.5102 266.776ZM74.6715 247.052C74.8037 246.529 74.924 245.996 75.0325 245.476L74.0536 245.271C73.9473 245.781 73.83 246.3 73.702 246.807L74.6715 247.052ZM-8.2676 245.759C-8.15299 246.286 -8.02716 246.812 -7.89599 247.331L-6.92648 247.086C-7.05559 246.575 -7.17871 246.06 -7.29043 245.546L-8.2676 245.759ZM-7.03095 250.269C-4.99834 256.332 -1.56312 262.034 3.27914 266.865L3.98541 266.157C-0.744566 261.438 -4.09835 255.871 -6.08281 249.952L-7.03095 250.269ZM3.2791 266.865C8.58541 272.16 14.94 275.755 21.6662 277.673L21.9405 276.711C15.3723 274.839 9.16787 271.328 3.98545 266.157L3.2791 266.865ZM23.1523 278.058C23.675 278.183 24.1959 278.303 24.7298 278.412L24.93 277.432C24.4118 277.326 23.9031 277.209 23.3849 277.085L23.1523 278.058ZM24.9057 194.957C24.3758 195.06 23.8408 195.181 23.3178 195.313L23.5628 196.283C24.0694 196.155 24.5866 196.038 25.0976 195.938L24.9057 194.957ZM20.3409 196.142C14.0663 198.145 8.1643 201.643 3.18518 206.634L3.89309 207.34C8.75689 202.465 14.5196 199.05 20.6451 197.094L20.3409 196.142ZM3.1852 206.634C-2.10339 211.934 -5.69841 218.277 -7.61585 225.003L-6.65416 225.277C-4.78193 218.709 -1.2722 212.517 3.89307 207.34L3.1852 206.634ZM-8.00592 226.506C-8.13089 227.029 -8.25111 227.55 -8.36018 228.083L-7.38041 228.284C-7.27455 227.765 -7.15723 227.257 -7.03333 226.738L-8.00592 226.506ZM75.0083 227.843C74.8955 227.324 74.7802 226.794 74.6414 226.262L73.6738 226.514C73.8065 227.023 73.9176 227.534 74.0311 228.056L75.0083 227.843ZM73.7836 223.301C71.7568 217.175 68.3044 211.41 63.4215 206.55L62.7161 207.259C67.4846 212.005 70.8552 217.634 72.8342 223.615L73.7836 223.301ZM63.422 206.551C58.0471 201.187 51.5894 197.557 44.7537 195.668L44.4873 196.632C51.161 198.476 57.466 202.02 62.7156 207.259L63.422 206.551ZM43.2546 195.279C42.7275 195.153 42.2003 195.038 41.673 194.935L41.4809 195.916C41.9945 196.017 42.5082 196.128 43.022 196.251L43.2546 195.279ZM45.5342 224.193L60.8328 264.755L61.7685 264.402L46.4699 223.84L45.5342 224.193ZM61.4758 264.11L20.8685 248.925L20.5182 249.862L61.1255 265.047L61.4758 264.11ZM21.1612 249.217L5.86258 208.655L4.92692 209.008L20.2255 249.57L21.1612 249.217ZM5.21961 209.3L45.8269 224.485L46.1772 223.548L5.56988 208.363L5.21961 209.3ZM45.8607 248.893L5.3 264.188L5.65283 265.123L46.2135 249.828L45.8607 248.893ZM5.94475 264.831L21.1266 224.225L20.1899 223.874L5.00808 264.48L5.94475 264.831ZM20.8347 224.517L61.4011 209.217L61.0482 208.281L20.4818 223.582L20.8347 224.517ZM60.7563 208.574L45.5688 249.185L46.5055 249.536L61.693 208.924L60.7563 208.574ZM59.9161 236.461L32.9796 296.017L33.8908 296.429L60.8272 236.873L59.9161 236.461ZM33.8902 296.016L6.78439 236.53L5.87441 236.945L32.9802 296.431L33.8902 296.016ZM6.78497 236.944L33.7215 177.387L32.8103 176.975L5.87383 236.532L6.78497 236.944ZM32.8109 177.388L59.9167 236.874L60.8267 236.459L33.7209 176.974L32.8109 177.388ZM33.5945 263.262L-25.9646 236.332L-26.3766 237.243L33.1825 264.173L33.5945 263.262ZM-25.9633 237.242L33.5199 210.142L33.1053 209.232L-26.3779 236.332L-25.9633 237.242ZM33.1065 210.142L92.66 237.078L93.0721 236.167L33.5186 209.231L33.1065 210.142ZM92.6588 236.168L33.1812 263.263L33.5958 264.173L93.0733 237.078L92.6588 236.168Z" fill="url(#paint8_linear_16799_71797)"/>
<path d="M145.487 -20.7093L145.134 -21.0625L145.133 -21.0623L145.487 -20.7093ZM209.13 -20.7913L209.483 -21.1454L209.483 -21.1454L209.13 -20.7913ZM209.217 42.8398L209.572 43.1927L209.572 43.1927L209.217 42.8398ZM149.402 -16.8061L149.048 -17.1592L149.048 -17.1592L149.402 -16.8061ZM205.303 38.9365L204.949 38.5834L204.949 38.5838L205.303 38.9365ZM147.634 40.8738L147.988 40.5199L147.988 40.5198L147.634 40.8738ZM147.546 -18.6502L147.9 -18.297L147.9 -18.2971L147.546 -18.6502ZM207.07 -18.7433L206.717 -18.3894L206.717 -18.3894L207.07 -18.7433ZM207.153 40.7863L206.799 40.4332L206.798 40.4336L207.153 40.7863ZM190.041 23.7196L190.217 24.1874C190.352 24.1365 190.459 24.0298 190.509 23.8947L190.041 23.7196ZM149.479 39.0182L149.01 38.8431C148.942 39.0268 148.987 39.2337 149.126 39.3722C149.265 39.5108 149.472 39.5553 149.655 39.486L149.479 39.0182ZM164.664 -1.58914L164.488 -2.05697C164.353 -2.00607 164.246 -1.89937 164.196 -1.76427L164.664 -1.58914ZM205.226 -16.8877L205.695 -16.7126C205.763 -16.8963 205.718 -17.1033 205.579 -17.2418C205.44 -17.3803 205.233 -17.4248 205.05 -17.3556L205.226 -16.8877ZM164.697 23.7547L164.229 23.9311C164.28 24.0661 164.387 24.1725 164.522 24.223L164.697 23.7547ZM190.008 -1.62419L190.476 -1.80065C190.425 -1.93561 190.318 -2.04201 190.183 -2.09253L190.008 -1.62419ZM205.309 38.9422L205.133 39.4105C205.317 39.4792 205.524 39.4342 205.663 39.2953C205.801 39.1564 205.846 38.9493 205.776 38.7657L205.309 38.9422ZM177.391 38.0892L177.185 38.5448C177.316 38.6042 177.467 38.604 177.598 38.5442L177.391 38.0892ZM117.834 11.1527L117.627 10.6977C117.448 10.7791 117.334 10.9573 117.334 11.1534C117.334 11.3496 117.449 11.5275 117.628 11.6083L117.834 11.1527ZM177.32 -15.9531L177.526 -16.4086C177.394 -16.4681 177.244 -16.4679 177.112 -16.4081L177.32 -15.9531ZM236.876 10.9834L237.084 11.4384C237.262 11.3571 237.377 11.1789 237.376 10.9827C237.376 10.7866 237.261 10.6087 237.082 10.5278L236.876 10.9834ZM150.34 11.106L149.884 10.9C149.825 11.0314 149.825 11.1821 149.885 11.3133L150.34 11.106ZM177.27 -48.4531L177.725 -48.6604C177.644 -48.8389 177.466 -48.9534 177.269 -48.9531C177.073 -48.9528 176.895 -48.8379 176.815 -48.6591L177.27 -48.4531ZM204.371 11.0301L204.826 11.2362C204.886 11.1047 204.886 10.9541 204.826 10.8228L204.371 11.0301ZM177.435 70.5836L176.98 70.7909C177.061 70.9694 177.239 71.0838 177.435 71.0836C177.631 71.0833 177.809 70.9684 177.89 70.7896L177.435 70.5836ZM132.387 18.0393C133.811 27.2885 138.09 36.1779 145.222 43.2872L145.928 42.579C138.952 35.6253 134.768 26.9329 133.376 17.8871L132.387 18.0393ZM145.222 43.2872C152.354 50.3963 161.255 54.652 170.504 56.053L170.654 55.0643C161.608 53.6941 152.904 49.5328 145.928 42.579L145.222 43.2872ZM170.067 -33.8476C160.938 -32.3714 152.169 -28.1093 145.134 -21.0625L145.841 -20.356C152.723 -27.249 161.299 -31.4167 170.227 -32.8604L170.067 -33.8476ZM145.133 -21.0623C138.104 -14.0098 133.859 -5.22311 132.417 3.91792L133.404 4.07373C134.815 -4.86546 138.965 -13.4577 145.842 -20.3563L145.133 -21.0623ZM222.317 4.10251C220.893 -5.1467 216.615 -14.0361 209.483 -21.1454L208.777 -20.4372C215.753 -13.4835 219.936 -4.79107 221.329 4.25466L222.317 4.10251ZM209.483 -21.1454C202.419 -28.1859 193.627 -32.4244 184.481 -33.8711L184.325 -32.8834C193.27 -31.4684 201.868 -27.3239 208.777 -20.4372L209.483 -21.1454ZM184.563 55.9952C193.721 54.5362 202.519 50.2682 209.572 43.1927L208.863 42.4868C201.965 49.4076 193.362 53.5808 184.405 55.0077L184.563 55.9952ZM209.572 43.1927C216.572 36.169 220.812 27.4339 222.277 18.3386L221.289 18.1796C219.857 27.0741 215.712 35.6161 208.863 42.4868L209.572 43.1927ZM138.591 20.8857C140.304 27.663 143.81 34.0795 149.12 39.3778L149.826 38.6699C144.648 33.5031 141.231 27.248 139.561 20.6407L138.591 20.8857ZM149.12 39.3778C154.43 44.6761 160.858 48.171 167.641 49.8552L167.882 48.8846C161.27 47.243 155.004 43.8368 149.826 38.6699L149.12 39.3778ZM167.278 -27.6207C160.592 -25.8845 154.272 -22.3949 149.048 -17.1592L149.756 -16.4529C154.851 -21.5588 161.011 -24.9602 167.529 -26.6528L167.278 -27.6207ZM149.048 -17.1592C143.835 -11.9349 140.368 -5.62679 138.649 1.04219L139.618 1.29181C141.293 -5.20909 144.672 -11.3582 149.756 -16.4529L149.048 -17.1592ZM216.114 1.25609C214.401 -5.52117 210.895 -11.9377 205.585 -17.236L204.879 -16.5281C210.057 -11.3613 213.474 -5.10619 215.144 1.5011L216.114 1.25609ZM205.585 -17.236C200.275 -22.5343 193.847 -26.0292 187.063 -27.7134L186.822 -26.7428C193.435 -25.1012 199.701 -21.695 204.879 -16.5281L205.585 -17.236ZM187.513 49.7339C194.159 47.992 200.456 44.514 205.657 39.2893L204.949 38.5838C199.877 43.6781 193.739 47.0684 187.26 48.7666L187.513 49.7339ZM205.657 39.2897C210.956 33.9795 214.451 27.5511 216.136 20.7672L215.165 20.5262C213.523 27.1385 210.116 33.4048 204.949 38.5834L205.657 39.2897ZM135.685 19.9135C135.798 20.4323 135.913 20.9628 136.052 21.4948L137.02 21.2424C136.887 20.7336 136.776 20.2231 136.663 19.7011L135.685 19.9135ZM136.904 24.4269C138.925 30.57 142.388 36.346 147.281 41.2278L147.988 40.5198C143.208 35.7511 139.826 30.1113 137.854 24.1144L136.904 24.4269ZM147.281 41.2277C152.547 46.4819 158.85 50.0714 165.531 51.989L165.807 51.0278C159.284 49.1557 153.131 45.6517 147.988 40.5199L147.281 41.2277ZM167.006 52.3891C167.529 52.5212 168.062 52.6415 168.582 52.7501L168.786 51.7712C168.277 51.6648 167.757 51.5476 167.251 51.4195L167.006 52.3891ZM168.298 -30.5501C167.771 -30.4355 167.245 -30.3096 166.726 -30.1785L166.972 -29.209C167.482 -29.3381 167.997 -29.4612 168.511 -29.5729L168.298 -30.5501ZM163.788 -29.3134C157.725 -27.2808 152.023 -23.8456 147.193 -19.0033L147.9 -18.2971C152.619 -23.027 158.187 -26.3808 164.106 -28.3653L163.788 -29.3134ZM147.193 -19.0034C141.898 -13.6971 138.302 -7.34246 136.384 -0.616222L137.346 -0.342006C139.219 -6.91012 142.729 -13.1146 147.9 -18.297L147.193 -19.0034ZM136 0.869788C135.875 1.39249 135.754 1.91338 135.645 2.44736L136.625 2.64756C136.731 2.12931 136.848 1.62062 136.972 1.1024L136 0.869788ZM219.101 2.62321C218.997 2.09332 218.876 1.55836 218.744 1.03535L217.775 1.28035C217.903 1.78692 218.019 2.30417 218.119 2.81518L219.101 2.62321ZM217.915 -1.94154C215.912 -8.21619 212.414 -14.1182 207.424 -19.0973L206.717 -18.3894C211.592 -13.5256 215.007 -7.7629 216.963 -1.63737L217.915 -1.94154ZM207.424 -19.0973C202.124 -24.3859 195.781 -27.9809 189.054 -29.8983L188.78 -28.9366C195.348 -27.0644 201.541 -23.5547 206.717 -18.3894L207.424 -19.0973ZM187.551 -30.2884C187.029 -30.4134 186.508 -30.5336 185.974 -30.6426L185.774 -29.6629C186.292 -29.557 186.801 -29.4397 187.319 -29.3158L187.551 -30.2884ZM186.214 52.7258C186.733 52.613 187.263 52.4977 187.795 52.3589L187.543 51.3913C187.034 51.5241 186.524 51.6351 186.002 51.7486L186.214 52.7258ZM190.757 51.5011C196.882 49.4743 202.647 46.0219 207.507 41.1391L206.798 40.4336C202.052 45.2022 196.423 48.5727 190.443 50.5517L190.757 51.5011ZM207.507 41.1395C212.87 35.7646 216.5 29.3069 218.39 22.4713L217.426 22.2048C215.581 28.8785 212.037 35.1835 206.799 40.4332L207.507 41.1395ZM218.779 20.9722C218.905 20.445 219.019 19.9178 219.123 19.3905L218.141 19.1985C218.041 19.7121 217.929 20.2258 217.806 20.7396L218.779 20.9722ZM189.864 23.2518L149.302 38.5504L149.655 39.486L190.217 24.1874L189.864 23.2518ZM149.947 39.1933L165.132 -1.414L164.196 -1.76427L149.01 38.8431L149.947 39.1933ZM164.841 -1.12131L205.403 -16.4199L205.05 -17.3556L164.488 -2.05697L164.841 -1.12131ZM204.758 -17.0629L189.572 23.5445L190.509 23.8947L205.695 -16.7126L204.758 -17.0629ZM165.165 23.5782L149.87 -16.9825L148.934 -16.6296L164.229 23.9311L165.165 23.5782ZM149.227 -16.3377L189.833 -1.15586L190.183 -2.09253L149.577 -17.2744L149.227 -16.3377ZM189.54 -1.44774L204.841 39.1187L205.776 38.7657L190.476 -1.80065L189.54 -1.44774ZM205.484 38.4739L164.872 23.2863L164.522 24.223L205.133 39.4105L205.484 38.4739ZM177.597 37.6336L118.04 10.6972L117.628 11.6083L177.185 38.5448L177.597 37.6336ZM118.041 11.6077L177.527 -15.4981L177.112 -16.4081L117.627 10.6977L118.041 11.6077ZM177.114 -15.4975L236.67 11.439L237.082 10.5278L177.526 -16.4086L177.114 -15.4975ZM236.669 10.5284L177.183 37.6342L177.598 38.5442L237.084 11.4384L236.669 10.5284ZM150.795 11.312L177.726 -48.2471L176.815 -48.6591L149.884 10.9L150.795 11.312ZM176.815 -48.2458L203.916 11.2374L204.826 10.8228L177.725 -48.6604L176.815 -48.2458ZM203.915 10.824L176.979 70.3775L177.89 70.7896L204.826 11.2362L203.915 10.824ZM177.89 70.3763L150.795 10.8988L149.885 11.3133L176.98 70.7909L177.89 70.3763Z" fill="url(#paint9_linear_16799_71797)"/>
<path d="M145.487 204.929L145.134 204.576L145.133 204.576L145.487 204.929ZM209.13 204.847L209.483 204.493L209.483 204.493L209.13 204.847ZM209.217 268.478L209.572 268.831L209.572 268.831L209.217 268.478ZM149.402 208.833L149.048 208.479L149.048 208.479L149.402 208.833ZM205.303 264.575L204.949 264.222L204.949 264.222L205.303 264.575ZM147.634 266.512L147.988 266.159L147.987 266.159L147.634 266.512ZM147.546 206.988L147.9 207.342L147.9 207.342L147.546 206.988ZM207.07 206.895L206.717 207.249L206.717 207.249L207.07 206.895ZM207.153 266.425L206.799 266.072L206.798 266.072L207.153 266.425ZM190.041 249.358L190.217 249.826C190.352 249.775 190.459 249.669 190.509 249.533L190.041 249.358ZM149.479 264.657L149.01 264.482C148.942 264.665 148.987 264.872 149.126 265.011C149.265 265.149 149.472 265.194 149.655 265.125L149.479 264.657ZM164.664 224.05L164.488 223.582C164.353 223.633 164.246 223.739 164.196 223.874L164.664 224.05ZM205.226 208.751L205.695 208.926C205.763 208.742 205.718 208.535 205.579 208.397C205.44 208.258 205.233 208.214 205.05 208.283L205.226 208.751ZM164.697 249.393L164.229 249.57C164.28 249.705 164.387 249.811 164.522 249.862L164.697 249.393ZM190.008 224.014L190.476 223.838C190.425 223.703 190.318 223.597 190.183 223.546L190.008 224.014ZM205.309 264.581L205.133 265.049C205.317 265.118 205.524 265.073 205.663 264.934C205.801 264.795 205.846 264.588 205.776 264.404L205.309 264.581ZM177.391 263.728L177.185 264.183C177.316 264.243 177.467 264.243 177.598 264.183L177.391 263.728ZM117.834 236.791L117.627 236.336C117.448 236.418 117.334 236.596 117.334 236.792C117.334 236.988 117.449 237.166 117.628 237.247L117.834 236.791ZM177.32 209.686L177.526 209.23C177.394 209.171 177.244 209.171 177.112 209.231L177.32 209.686ZM236.876 236.622L237.084 237.077C237.262 236.996 237.377 236.818 237.376 236.621C237.376 236.425 237.261 236.247 237.082 236.167L236.876 236.622ZM150.34 236.745L149.884 236.539C149.825 236.67 149.825 236.821 149.885 236.952L150.34 236.745ZM177.27 177.186L177.725 176.978C177.644 176.8 177.466 176.685 177.269 176.686C177.073 176.686 176.895 176.801 176.815 176.98L177.27 177.186ZM204.371 236.669L204.826 236.875C204.886 236.743 204.886 236.593 204.826 236.461L204.371 236.669ZM177.435 296.222L176.98 296.43C177.061 296.608 177.239 296.723 177.435 296.722C177.631 296.722 177.809 296.607 177.89 296.428L177.435 296.222ZM132.387 243.678C133.811 252.927 138.09 261.817 145.222 268.926L145.928 268.218C138.952 261.264 134.768 252.572 133.376 243.526L132.387 243.678ZM145.222 268.926C152.354 276.035 161.255 280.291 170.504 281.692L170.654 280.703C161.608 279.333 152.904 275.171 145.928 268.218L145.222 268.926ZM170.067 191.791C160.938 193.267 152.169 197.529 145.134 204.576L145.841 205.283C152.723 198.39 161.299 194.222 170.227 192.778L170.067 191.791ZM145.133 204.576C138.104 211.629 133.859 220.416 132.417 229.557L133.404 229.712C134.815 220.773 138.965 212.181 145.842 205.282L145.133 204.576ZM222.317 229.741C220.893 220.492 216.615 211.603 209.483 204.493L208.777 205.201C215.753 212.155 219.936 220.848 221.329 229.893L222.317 229.741ZM209.483 204.493C202.419 197.453 193.627 193.214 184.481 191.768L184.325 192.755C193.27 194.17 201.868 198.315 208.777 205.201L209.483 204.493ZM184.563 281.634C193.721 280.175 202.519 275.907 209.572 268.831L208.863 268.125C201.965 275.046 193.362 279.219 184.405 280.646L184.563 281.634ZM209.572 268.831C216.572 261.808 220.812 253.073 222.277 243.977L221.289 243.818C219.857 252.713 215.712 261.255 208.863 268.125L209.572 268.831ZM138.591 246.524C140.304 253.302 143.81 259.718 149.12 265.016L149.826 264.309C144.648 259.142 141.231 252.887 139.561 246.279L138.591 246.524ZM149.12 265.016C154.43 270.315 160.858 273.81 167.641 275.494L167.882 274.523C161.27 272.882 155.004 269.475 149.826 264.309L149.12 265.016ZM167.278 198.018C160.592 199.754 154.272 203.244 149.048 208.479L149.756 209.186C154.851 204.08 161.011 200.678 167.529 198.986L167.278 198.018ZM149.048 208.479C143.835 213.704 140.368 220.012 138.649 226.681L139.618 226.93C141.293 220.43 144.672 214.28 149.756 209.186L149.048 208.479ZM216.114 226.895C214.401 220.117 210.895 213.701 205.585 208.403L204.879 209.111C210.057 214.277 213.474 220.532 215.144 227.14L216.114 226.895ZM205.585 208.403C200.275 203.104 193.847 199.61 187.063 197.925L186.822 198.896C193.435 200.537 199.701 203.944 204.879 209.111L205.585 208.403ZM187.513 275.373C194.159 273.631 200.456 270.153 205.657 264.928L204.949 264.222C199.877 269.317 193.739 272.707 187.26 274.405L187.513 275.373ZM205.657 264.928C210.956 259.618 214.451 253.19 216.136 246.406L215.165 246.165C213.523 252.777 210.116 259.043 204.949 264.222L205.657 264.928ZM135.685 245.552C135.798 246.071 135.913 246.601 136.052 247.133L137.02 246.881C136.887 246.372 136.776 245.862 136.663 245.34L135.685 245.552ZM136.904 250.066C138.925 256.209 142.388 261.985 147.281 266.866L147.987 266.159C143.208 261.39 139.826 255.75 137.854 249.753L136.904 250.066ZM147.281 266.866C152.547 272.121 158.85 275.71 165.531 277.628L165.807 276.666C159.284 274.794 153.131 271.29 147.988 266.159L147.281 266.866ZM167.006 278.028C167.529 278.16 168.062 278.28 168.582 278.389L168.786 277.41C168.277 277.303 167.757 277.186 167.251 277.058L167.006 278.028ZM168.298 195.089C167.771 195.203 167.245 195.329 166.726 195.46L166.972 196.43C167.482 196.301 167.997 196.177 168.511 196.066L168.298 195.089ZM163.788 196.325C157.725 198.358 152.023 201.793 147.192 206.635L147.9 207.342C152.619 202.612 158.187 199.258 164.106 197.273L163.788 196.325ZM147.193 206.635C141.898 211.942 138.302 218.296 136.384 225.022L137.346 225.297C139.219 218.729 142.729 212.524 147.9 207.342L147.193 206.635ZM136 226.508C135.875 227.031 135.754 227.552 135.645 228.086L136.625 228.286C136.731 227.768 136.848 227.259 136.972 226.741L136 226.508ZM219.101 228.262C218.997 227.732 218.876 227.197 218.744 226.674L217.775 226.919C217.903 227.426 218.019 227.943 218.119 228.454L219.101 228.262ZM217.916 223.697C215.912 217.422 212.414 211.52 207.424 206.541L206.717 207.249C211.592 212.113 215.007 217.876 216.963 224.001L217.916 223.697ZM207.424 206.541C202.124 201.253 195.781 197.658 189.054 195.74L188.78 196.702C195.348 198.574 201.541 202.084 206.717 207.249L207.424 206.541ZM187.551 195.35C187.029 195.225 186.508 195.105 185.974 194.996L185.774 195.976C186.292 196.082 186.801 196.199 187.319 196.323L187.551 195.35ZM186.214 278.364C186.733 278.252 187.263 278.136 187.795 277.998L187.543 277.03C187.034 277.163 186.524 277.274 186.002 277.387L186.214 278.364ZM190.757 277.14C196.882 275.113 202.647 271.661 207.507 266.778L206.798 266.072C202.052 270.841 196.423 274.211 190.443 276.19L190.757 277.14ZM207.507 266.778C212.87 261.403 216.5 254.946 218.39 248.11L217.426 247.843C215.581 254.517 212.037 260.822 206.799 266.072L207.507 266.778ZM218.779 246.611C218.905 246.084 219.019 245.556 219.123 245.029L218.141 244.837C218.041 245.351 217.929 245.864 217.806 246.378L218.779 246.611ZM189.864 248.89L149.302 264.189L149.655 265.125L190.217 249.826L189.864 248.89ZM149.947 264.832L165.132 224.225L164.196 223.874L149.01 264.482L149.947 264.832ZM164.841 224.517L205.403 209.219L205.05 208.283L164.488 223.582L164.841 224.517ZM204.758 208.576L189.572 249.183L190.509 249.533L205.695 208.926L204.758 208.576ZM165.165 249.217L149.87 208.656L148.934 209.009L164.229 249.57L165.165 249.217ZM149.227 209.301L189.833 224.483L190.183 223.546L149.577 208.364L149.227 209.301ZM189.54 224.191L204.841 264.757L205.776 264.404L190.476 223.838L189.54 224.191ZM205.484 264.113L164.872 248.925L164.522 249.862L205.133 265.049L205.484 264.113ZM177.597 263.272L118.04 236.336L117.628 237.247L177.185 264.183L177.597 263.272ZM118.041 237.246L177.527 210.141L177.112 209.231L117.627 236.336L118.041 237.246ZM177.114 210.141L236.67 237.078L237.082 236.167L177.526 209.23L177.114 210.141ZM236.669 236.167L177.183 263.273L177.598 264.183L237.084 237.077L236.669 236.167ZM150.795 236.951L177.726 177.392L176.815 176.98L149.884 236.539L150.795 236.951ZM176.815 177.393L203.916 236.876L204.826 236.461L177.725 176.978L176.815 177.393ZM203.915 236.463L176.979 296.016L177.89 296.428L204.826 236.875L203.915 236.463ZM177.89 296.015L150.795 236.537L149.885 236.952L176.98 296.43L177.89 296.015Z" fill="url(#paint10_linear_16799_71797)"/>
<path d="M103.412 99.9507C103.412 99.9507 99.8155 92.0864 103.426 86.0202C106.777 80.3944 103.426 73.5407 103.426 73.5407C103.426 73.5407 100.329 68.5669 104.117 62.0943C107.906 55.6216 105.354 49.0671 105.354 49.0671C105.354 49.0671 108.826 55.6216 106.195 61.6991C103.564 67.7766 105.354 70.8562 105.354 70.8562C105.354 70.8562 109.724 79.4601 108.538 83.172C108.538 83.172 107.818 86.0259 107.273 87.6716C105.938 91.7279 105.856 97.5795 108.741 100.064M119.349 104.628C121.506 104.58 124.453 99.8857 125.734 97.1985C126.084 96.4674 126.683 94.8245 126.92 94.0511C127.38 92.5437 128.461 89.4556 132.851 88.301C134.372 87.9002 135.56 86.9941 136.506 86.0936C137.903 84.7641 138.897 83.0761 139.51 81.2469C140.046 79.6407 141.531 76.5046 145.152 75.367C149.539 73.9867 154.77 67.6524 154.77 67.6524C154.77 67.6524 152.96 73.4532 147.71 76.4792C146.07 77.4248 144.624 78.7036 143.659 80.3323C143.066 81.3372 142.795 82.5708 142.479 83.8806C141.327 88.6511 136.481 90.7484 136.481 90.7484C136.481 90.7484 130.793 92.7074 129.192 98.3276C127.662 103.702 122.807 107.719 122.807 107.719M129.192 121.929C129.192 121.929 137.423 120.478 143.264 123.431C144.904 124.261 146.699 124.777 148.537 124.811C149.88 124.834 151.362 124.625 152.669 123.902C154.504 122.886 156.466 122.095 158.555 121.943C160.661 121.791 163.201 121.983 165.451 123.196C170.425 125.881 180.35 124.071 180.35 124.071C180.35 124.071 174.608 127.848 166.476 125.96C158.343 124.071 153.129 127.131 153.129 127.131C153.129 127.131 148.557 129.909 142.242 126.434C135.927 122.962 129.189 126.75 129.189 126.75M90.9576 104.521C90.9576 104.521 84.3777 102.438 83.3531 95.8661C82.3284 89.2947 76.4062 87.0449 76.4062 87.0449C76.4062 87.0449 69.1431 84.7556 66.2216 77.0974C63.3 69.4392 55.6531 67.8979 55.6531 67.8979C55.6531 67.8979 62.01 72.3523 63.5089 78.4072C64.5731 82.7006 66.3712 85.4839 69.1065 87.4824C70.4614 88.4704 71.9716 89.21 73.5439 89.7999C75.6864 90.6016 79.3503 92.6199 79.9572 97.1505C80.8267 103.623 87.017 107.727 87.017 107.727M80.9593 126.488C80.9593 126.488 75.4408 124.074 70.2497 126.756C66.9668 128.45 62.0721 127.82 60.0707 127.038C59.0912 126.657 57.2282 125.799 56.7285 125.559C55.0264 124.74 51.1592 123.385 44.5143 125.491C36.5428 128.018 30.3496 124.074 30.3496 124.074C30.3496 124.074 38.8321 125.412 43.803 122.728C48.7768 120.043 54.2445 120.712 58.6452 122.728C58.6452 122.728 65.6711 126.124 70.4868 122.886C75.3025 119.648 80.9593 123.123 80.9593 123.123M86.0912 138.95C86.0912 138.95 85.1681 144.119 78.0632 146.566C70.9582 149.014 69.3803 153.434 69.3803 153.434C69.3803 153.434 67.3281 158.961 62.9076 159.59C60.9176 159.876 59.0743 161.389 57.6459 162.969C56.2346 164.53 55.1224 166.331 54.2134 168.231C53.3356 170.063 51.4866 173.233 49.059 173.631C49.059 173.631 53.1972 174.351 56.9064 168.59C60.6155 162.828 64.8779 162.117 64.8779 162.117C64.8779 162.117 70.0041 160.584 71.6978 156.483C72.3837 154.823 73.3039 153.248 74.6815 152.093C76.1352 150.874 78.2099 149.826 80.9565 150.038C87.0594 150.512 89.8737 142.798 89.8737 142.798M107.468 148.071C107.468 148.071 109.057 156.118 107.112 160.773C105.168 165.428 106.7 168.488 106.7 168.488C106.7 168.488 109.249 174.718 106.813 179.22C106.401 179.982 105.896 180.696 105.633 181.524C105.213 182.853 104.905 184.849 105.667 187.115C106.26 188.883 107.138 190.692 107.299 192.428C107.429 193.862 107.211 194.675 106.294 197.012C106.257 197.108 106.215 197.21 106.17 197.3L105.348 199.067C105.944 194.514 105.893 192.964 104.902 191.2C104.397 190.297 103.79 189.456 103.056 188.03C102.017 186.02 100.979 182.624 102.771 179.556C105.317 175.203 103.42 171.11 103.42 171.11C103.42 171.11 100.764 165.041 103.42 159.822C105.509 155.715 102.675 148.065 102.675 148.065M91.4178 104.188C91.4178 104.188 90.7459 102.579 87.7227 100.831C84.9592 99.2337 84.6402 94.0426 84.6402 94.0426C84.6402 94.0426 84.1209 86.5481 78.3313 85.5093C72.5418 84.4705 71.3562 78.6076 71.3562 78.6076C71.3562 78.6076 74.5008 83.2426 78.6277 83.6547C78.6277 83.6547 85.3064 84.2475 86.2718 89.5177C87.2372 94.7878 87.861 96.8964 88.9422 97.9042C90.8306 99.6599 93.7127 100.941 93.8115 102.74M98.5989 100.834C98.4408 99.0446 99.1945 99.3607 97.2553 94.4152C96.177 91.6658 97.292 88.7922 98.0569 87.3244C98.8332 85.8283 99.4824 84.2616 99.8522 82.6159C100.312 80.5553 100.487 78.0882 99.3357 76.4566C97.0351 73.1907 98.2969 68.2931 98.2969 68.2931C98.2969 68.2931 98.7372 72.3156 101.489 76.1602C103.863 79.477 102.777 82.7994 102.153 84.2955C101.803 85.1367 101.475 85.9807 101.21 86.8529C100.521 89.1168 99.5022 92.9106 100.451 95.2338C102.091 99.2365 101.814 100.066 101.814 100.066M97.7747 101.083C97.7747 101.083 97.4444 97.9296 95.4035 96.4956C93.7691 95.3467 93.772 94.864 93.3993 92.4138C93.0296 89.9637 90.9576 87.6913 90.9576 87.6913C90.9576 87.6913 91.6803 90.4012 90.9576 93.0066C90.2181 95.6713 91.5899 97.5287 92.3493 98.2429C92.3493 98.2429 94.7543 100.495 94.5172 102.209M108.738 100.064C108.738 100.064 110.37 96.1032 109.094 92.411C108.738 91.3863 108.628 90.3617 108.654 89.4132C108.704 87.4627 109.515 85.6363 110.678 84.0669C111.457 83.014 112.236 81.0465 111.042 77.9132C109.495 73.8597 112.721 68.2903 112.721 68.2903C112.721 68.2903 112.095 73.1794 112.453 74.5089C112.989 76.5018 113.642 77.2329 113.946 78.3253C114.497 80.2956 114.313 81.5546 113.673 83.4967C113.427 84.239 113.337 84.5608 112.707 86.2291C112.543 86.661 112.419 87.1098 112.323 87.5502C112.013 89.0039 112.013 90.5085 112.233 91.9791C112.521 93.8986 112.919 98.0425 111.589 100.831M116.507 102.827C116.507 102.827 117.246 98.4038 119.838 96.7722C122.446 95.1294 121.986 93.5514 123.262 90.531C124.537 87.5107 126.082 86.7062 130.065 84.5608C134.047 82.4184 134.539 76.6373 134.539 76.6373C134.539 76.6373 135.309 83.3696 132.122 85.6984C129.198 87.8353 126.926 89.4076 125.878 92.2699C125.218 94.0765 125.023 97.1985 120.645 101.529C119.425 102.734 119.352 104.628 119.352 104.628M112.71 100.831C112.71 100.831 113.252 97.9239 115.335 95.4286C117.805 92.4675 116.507 88.6511 116.507 88.6511C116.507 88.6511 118.965 93.3764 117.489 95.9818C116.013 98.5844 115.778 102.209 115.778 102.209M123.589 108.292C127.851 106.827 129.616 101.845 130.626 99.6712C131.419 97.9634 132.23 96.7694 133.325 95.5584C134.324 94.4547 135.747 93.3284 137.717 92.6255C142.643 90.8726 143.811 85.227 143.811 85.227C143.811 85.227 144.678 90.3024 139.354 94.1132C138.764 94.5337 138.115 94.8668 137.466 95.1858C136.543 95.6403 134.767 96.84 133.937 99.5527C132.791 103.31 132.038 105.672 130.477 107.719C128.817 109.895 126.338 112.029 126.338 112.029M128.966 120.757C128.966 120.757 135.752 119.007 139.219 119.925C143.021 120.932 145.48 123.098 147.735 121.929C149.991 120.76 152.376 118.999 154.772 119.295C157.169 119.592 158.84 120.009 158.84 120.009C158.84 120.009 158.306 119.535 157.381 118.999C154.942 117.593 152.014 117.401 149.324 118.228C147.459 118.801 145.212 118.937 142.31 117.401C138.451 115.36 132.625 115.998 132.625 115.998C132.625 115.998 130.539 116.28 128.201 117.184M126.344 112.676C126.344 112.676 129.455 109.819 132.712 110.821C135.97 111.823 139.476 108.735 139.476 108.735C139.476 108.735 138.68 112.241 133.943 113.41C129.206 114.578 128.204 116.165 128.204 116.165M128.933 127.653C128.933 127.653 135.428 124.994 140.325 127.662C140.325 127.662 145.618 130.914 150.304 130.174C155.43 129.364 157.451 130.753 157.451 130.753C157.451 130.753 159.512 131.524 160.155 130.366C160.155 130.366 159.642 132.04 156.937 131.653C154.233 131.267 151.786 131.397 150.112 132.17C148.438 132.941 144.749 134.092 140.712 131.309C137.562 129.138 128.289 131.267 128.289 131.267M126.35 135.45C126.35 135.45 136.723 140.658 138.14 146.552C138.849 149.499 140.37 151.071 141.714 151.904C142.66 152.491 143.758 152.771 144.867 152.867C146.279 152.988 149.632 153.575 150.891 156.412C150.891 156.412 146.341 154.213 143.532 154.704C141.192 155.111 139.408 153.951 137.929 152.133C137.344 151.413 136.862 150.625 136.424 149.81C136.156 149.31 135.857 148.717 135.631 148.181C134.739 146.055 133.915 144.635 132.156 143.145C130.42 141.671 127.772 139.851 124.292 138.654M128.21 131.608C128.21 131.608 136.108 131.233 138.07 134.533C140.032 137.832 140.492 138.75 141.576 138.499C141.381 139.035 138.27 139.419 136.066 136.621C134.067 134.087 126.72 134.747 126.72 134.747M84.0616 111.583C84.0616 111.583 82.6022 108.741 79.8105 107.722C77.2248 106.776 75.7202 101.876 75.4549 99.9535C74.9891 96.5887 73.654 94.61 69.4819 93.7462C65.3098 92.8852 62.2047 86.0202 62.2047 86.0202C62.2047 86.0202 66.23 91.1379 71.3731 92.092C73.9532 92.5719 75.5876 94.0849 76.5755 95.4766C77.3321 96.5436 77.8119 97.7771 78.0801 99.0587C78.4386 100.772 79.3588 104.309 80.9734 105.19C83.9571 106.819 85.9698 108.738 85.9698 108.738M80.9734 120.935C80.9734 120.935 73.9137 117.94 70.4445 120.935C66.9753 123.933 62.5519 121.573 62.5519 121.573C60.9006 120.839 59.6896 120.28 58.7976 119.857C56.8443 118.925 54.7441 118.347 52.5903 118.141L50.4958 117.94C50.4958 117.94 54.9191 115.685 59.2549 117.421C63.5907 119.157 65.6739 119.891 67.8418 119.089C70.0097 118.287 76.1606 114.313 81.7779 117.87M82.2155 116.413C80.5444 112.89 78.8564 112.823 75.4549 112.456C72.0506 112.089 70.8763 107.722 70.8763 107.722C70.8763 107.722 73.9137 110.914 77.4675 110.307C81.0243 109.701 83.7031 112.91 83.7031 112.91M80.9706 127.823C80.9706 127.823 76.4062 126.2 70.196 129.246C65.5385 131.529 61.0559 129.889 59.1053 128.924C56.5648 127.67 53.5275 127.676 51.1507 129.217C50.9334 129.358 50.7132 129.514 50.493 129.68C50.493 129.68 56.1188 128.306 60.0538 132.057C63.9859 135.809 72.268 132.057 72.268 132.057C72.268 132.057 78.6531 128.221 82.1675 131.577M82.5965 132.777C82.5965 132.777 77.9756 130.013 74.0858 134.36C70.196 138.708 67.297 137.672 67.297 137.672C67.297 137.672 73.3011 140.466 75.8896 137.155C78.4781 133.844 83.7059 135.224 83.7059 135.224C83.7059 135.224 80.6516 142.434 75.9941 142.434C74.5968 142.434 73.2644 142.803 72.0845 143.326C69.7049 144.376 67.8362 146.281 66.5292 148.531C65.5864 150.154 63.7855 152.203 60.6748 152.265C60.6748 152.265 57.2592 152.576 56.7427 155.576C56.7427 155.576 58.5577 153.612 62.2047 154.128C65.8518 154.648 68.4572 150.919 69.4819 149.471C70.5066 148.023 73.4056 145.019 76.409 145.019C79.4124 145.019 85.4984 141.158 85.4645 138.078M90.8447 143.523C90.8447 143.523 90.2943 149.62 82.7433 151.625C81.3686 151.989 80.0843 152.683 79.054 153.66C77.7696 154.876 76.6489 156.714 77.2954 159.198C78.0434 162.075 75.3081 163.737 72.872 164.626C70.1283 165.628 67.791 167.539 66.3542 170.086C66.2752 170.224 66.2046 170.357 66.1397 170.484C66.1397 170.484 69.7952 168.256 71.376 167.689C75.5198 166.196 80.4879 167.794 80.519 161.168C80.519 161.168 80.5613 156.316 82.605 155.063C85.9726 152.994 94.6047 150.614 93.4248 145.18M101.71 148.068C101.71 148.068 103.426 154.442 100.942 158.168C98.4578 161.894 98.4578 164.688 99.1832 168C99.9087 171.314 99.4937 173.798 98.2517 175.452C97.0097 177.109 96.829 179.387 96.829 179.387C96.829 179.387 95.5362 177.747 96.4056 175.121C96.8008 173.925 97.0915 172.685 97.0577 171.426C97.0238 170.23 96.798 168.798 96.1064 167.486C94.5256 164.482 95.9765 160.07 96.829 158.171C97.5178 156.638 99.4768 153.363 98.3477 147.227M94.9039 145.939C94.9039 145.939 94.9406 149.889 91.6295 152.167C88.3183 154.445 89.8963 159.102 89.8963 159.102C89.8963 159.102 91.1157 155.557 92.8037 154.761C95.3358 153.567 98.3505 151.469 97.3202 146.902M108.761 148.071C108.761 148.071 112.51 153.646 110.457 160.804C108.761 166.718 109.746 168.759 110.644 169.992C111.186 170.738 111.618 171.565 111.812 172.468C112.148 174.035 112.148 176.445 110.457 179.39C110.457 179.39 115.177 176.078 113.613 169.569C112.659 165.592 113.125 163.003 113.63 161.592C114.359 159.565 114.844 157.454 114.844 155.3C114.838 152.494 114.246 149.169 111.855 147.23M112.987 146.865C112.987 146.865 118.234 150.363 117.455 155.907C117.359 156.596 117.379 157.31 117.65 157.95C117.997 158.78 118.762 159.743 120.422 160.274C120.422 160.274 118.827 157.095 120.422 153.569C122.017 150.044 116.526 145.316 116.526 145.316C116.526 145.316 125.063 147.918 126.728 154.162C128.393 160.406 130.152 163.328 132.927 165.321C135.702 167.314 140.921 167.037 141.587 170.492C141.587 170.492 140.119 163.774 136.232 163.311C132.565 162.876 131.182 159.209 131.047 157.386C130.956 156.124 130.742 154.876 130.254 153.711C128.885 150.447 125.811 145.163 119.75 143.23C119.75 143.23 128.611 143.568 131.213 151.543C132.134 154.36 133.616 156.466 135.146 158.013C137.24 160.13 139.987 161.445 142.891 162.097C145.053 162.58 148.469 163.867 150.315 167.252C153.158 172.462 161.663 173.637 161.663 173.637C155.642 171.415 152.26 165.36 152.26 165.36C152.26 165.36 148.029 158.73 142.265 157.846C136.503 156.965 134.451 150.518 134.451 150.518C131.371 142.309 123.868 139.218 123.868 139.218M110.384 91.2452C110.689 92.1146 111.561 95.6318 110.508 98.8159M110.997 86.0287C110.997 86.0287 110.02 87.697 110.037 89.4189M114.929 98.6381L114.471 100.394M121.102 97.715C121.102 97.715 118.821 99.4539 118.423 101.585M123.307 95.437C123.307 95.437 122.68 96.4307 122.053 96.8513M124.769 91.2424C124.323 92.2473 123.939 93.7038 123.939 93.7038M130.646 104.27C130.646 104.27 129.748 106.347 126.361 109.311M132.58 99.468C132.58 99.468 132.077 100.541 131.51 102.44M128.3 113.619C128.3 113.619 129.472 112.351 131.679 112.354M130.084 118.719C130.084 118.719 133.266 117.678 135.97 117.856M137.599 117.96C137.599 117.96 139.86 118.115 140.723 118.719M143.54 119.73C143.54 119.73 145.514 120.772 146.462 120.258M130.084 129.251C130.084 129.251 133.906 128.004 137.731 128.681M139.493 128.997C139.493 128.997 140.294 129.175 140.814 129.624M129.218 133.116C129.218 133.116 131.363 133.116 132.82 133.542M134.601 134.106C134.601 134.106 135.456 134.366 135.975 134.885M127.245 137.945C127.245 137.945 131.047 139.478 132.932 141.798M134.163 143.009C134.163 143.009 135.544 144.133 135.975 145.172M137.088 148.076C137.088 148.076 137.57 149.366 138.05 149.928M120.052 145.033C120.052 145.033 123.468 146.072 126.367 150.272M127.245 151.568C127.245 151.568 128.328 153.211 128.306 153.73M129.664 159.108C129.664 159.108 130.615 161.51 131.047 161.595M115.801 147.232C115.801 147.232 118.771 149.493 118.943 152M118.943 153.73V154.247M111.157 148.855C111.157 148.855 113.63 151.548 113.334 154.766M112.989 157.747L112.51 159.105M111.745 161.736L111.685 162.433M100.211 148.999C100.211 148.999 101.329 153.513 99.3865 157.013M98.5622 158.428C98.5622 158.428 97.2101 161.135 97.0323 162.924M97.2101 164.513V165.555M95.9822 148.435C95.9822 148.435 95.9907 149.62 94.9152 150.803M93.5405 152.525C93.5405 152.525 92.4904 153.005 91.8722 153.728M91.8722 146.069C91.8722 146.069 91.9174 148.745 87.4461 150.806M85.9811 151.811C85.9811 151.811 83.7172 152.528 82.6078 153.059M81.3263 153.73C81.3263 153.73 80.2677 154.456 80.2085 155.043M83.7172 138.216C83.7172 138.216 82.7744 141.336 79.8443 142.394M77.301 143.534C77.301 143.534 74.2665 143.334 72.9708 144.452M71.1106 145.57L69.9702 146.569M77.301 133.917C77.301 133.917 78.6475 132.864 81.3263 133.511M76.0307 134.885C76.0307 134.885 75.2658 136.215 74.5601 136.393M72.9708 129.692C72.9708 129.692 76.4062 128.19 79.8443 128.955M68.6774 131.275C68.6774 131.275 70.7945 130.629 71.3844 130.276M65.6203 131.628H66.7974M73.7979 118.29C73.7979 118.29 76.9227 117.367 79.8472 118.759M70.5461 119.1L71.6808 118.722M65.2675 120.625C65.2675 120.625 66.5603 121.037 67.5624 120.625M78.8592 111.592C78.8592 111.592 80.9876 112.075 81.7921 113.153M78.2128 103.874C78.2128 103.874 78.91 105.633 80.327 106.274M81.3715 106.914C81.3715 106.914 83.9148 108.34 84.5669 109.384M76.6828 98.8103L77.1655 100.504M86.3311 95.8717C86.3311 95.8717 86.763 98.5901 89.2301 100.072M90.856 101.102C90.856 101.102 91.8016 101.562 92.0388 101.975M85.4786 91.7364L85.744 93.1365M92.3916 94.5027C92.3916 94.5027 92.1714 96.1456 93.5461 96.8541M95.0789 97.9352C95.0789 97.9352 95.9991 99.005 95.9878 100.072M98.5086 91.7364C98.5086 91.7364 98.215 93.9692 99.2736 95.677M99.6857 97.2097C99.6857 97.2097 99.999 97.7178 99.999 98.6409M99.4627 87.8183L99.0082 89.4189M127.572 124.066C127.572 136.489 117.503 146.558 105.08 146.558C92.6569 146.558 82.5881 136.489 82.5881 124.066C82.5881 111.643 92.6569 101.574 105.08 101.574C117.503 101.574 127.572 111.643 127.572 124.066ZM129.195 124.066C129.195 137.384 118.398 148.181 105.08 148.181C91.7621 148.181 80.965 137.384 80.965 124.066C80.965 110.748 91.7621 99.9507 105.08 99.9507C118.398 99.9507 129.195 110.748 129.195 124.066ZM122.316 124.077C122.316 133.46 114.709 141.067 105.326 141.067C95.9427 141.067 88.3353 133.463 88.3353 124.077C88.3353 114.691 95.9427 107.089 105.326 107.089C114.709 107.089 122.316 114.697 122.316 124.077Z" stroke="url(#paint11_linear_16799_71797)" stroke-linecap="round" stroke-linejoin="round"/>
</g>
</g>
<defs>
<filter id="filter0_f_16799_71797" x="0" y="20" width="199" height="279" filterUnits="userSpaceOnUse" color-interpolation-filters="sRGB">
<feFlood flood-opacity="0" result="BackgroundImageFix"/>
<feBlend mode="normal" in="SourceGraphic" in2="BackgroundImageFix" result="shape"/>
<feGaussianBlur stdDeviation="11" result="effect1_foregroundBlur_16799_71797"/>
</filter>
<filter id="filter1_f_16799_71797" x="-55.0273" y="-75.2664" width="320.352" height="399.415" filterUnits="userSpaceOnUse" color-interpolation-filters="sRGB">
<feFlood flood-opacity="0" result="BackgroundImageFix"/>
<feBlend mode="normal" in="SourceGraphic" in2="BackgroundImageFix" result="shape"/>
<feGaussianBlur stdDeviation="50" result="effect1_foregroundBlur_16799_71797"/>
</filter>
<linearGradient id="paint0_linear_16799_71797" x1="22.2979" y1="27.1508" x2="16.2723" y2="27.1508" gradientUnits="userSpaceOnUse">
<stop stop-color="#22143E"/>
<stop offset="1" stop-color="#6628B7"/>
</linearGradient>
<linearGradient id="paint1_linear_16799_71797" x1="33.5957" y1="7.54199" x2="233.372" y2="172.857" gradientUnits="userSpaceOnUse">
<stop stop-color="white" stop-opacity="0.15"/>
<stop offset="0.53125" stop-color="#9747FF" stop-opacity="0.65"/>
<stop offset="1" stop-color="#9747FF" stop-opacity="0.65"/>
</linearGradient>
<linearGradient id="paint2_linear_16799_71797" x1="29.8301" y1="11.3127" x2="225.553" y2="187.481" gradientUnits="userSpaceOnUse">
<stop stop-color="white" stop-opacity="0.15"/>
<stop offset="0.53125" stop-color="#9747FF" stop-opacity="0.65"/>
<stop offset="1" stop-color="#9747FF" stop-opacity="0.65"/>
</linearGradient>
<linearGradient id="paint3_linear_16799_71797" x1="29.0762" y1="6.7876" x2="32.9436" y2="11.4562" gradientUnits="userSpaceOnUse">
<stop stop-color="white" stop-opacity="0.15"/>
<stop offset="0.53125" stop-color="#9747FF" stop-opacity="0.65"/>
<stop offset="1" stop-color="#9747FF" stop-opacity="0.65"/>
</linearGradient>
<linearGradient id="paint4_linear_16799_71797" x1="176.701" y1="6.7876" x2="180.466" y2="11.8711" gradientUnits="userSpaceOnUse">
<stop stop-color="white" stop-opacity="0.15"/>
<stop offset="0.53125" stop-color="#9747FF" stop-opacity="0.65"/>
<stop offset="1" stop-color="#9747FF" stop-opacity="0.65"/>
</linearGradient>
<linearGradient id="paint5_linear_16799_71797" x1="176.701" y1="237.57" x2="180.569" y2="242.238" gradientUnits="userSpaceOnUse">
<stop stop-color="white" stop-opacity="0.15"/>
<stop offset="0.53125" stop-color="#9747FF" stop-opacity="0.65"/>
<stop offset="1" stop-color="#9747FF" stop-opacity="0.65"/>
</linearGradient>
<linearGradient id="paint6_linear_16799_71797" x1="29.0762" y1="237.57" x2="32.8414" y2="242.653" gradientUnits="userSpaceOnUse">
<stop stop-color="white" stop-opacity="0.15"/>
<stop offset="0.53125" stop-color="#9747FF" stop-opacity="0.65"/>
<stop offset="1" stop-color="#9747FF" stop-opacity="0.65"/>
</linearGradient>
<linearGradient id="paint7_linear_16799_71797" x1="-30.2891" y1="11.0671" x2="94.2028" y2="29.6951" gradientUnits="userSpaceOnUse">
<stop stop-color="white" stop-opacity="0.15"/>
<stop offset="0.53125" stop-color="#9747FF" stop-opacity="0.65"/>
<stop offset="1" stop-color="#9747FF" stop-opacity="0.65"/>
</linearGradient>
<linearGradient id="paint8_linear_16799_71797" x1="-30.2891" y1="236.708" x2="94.2028" y2="255.336" gradientUnits="userSpaceOnUse">
<stop stop-color="white" stop-opacity="0.15"/>
<stop offset="0.53125" stop-color="#9747FF" stop-opacity="0.65"/>
<stop offset="1" stop-color="#9747FF" stop-opacity="0.65"/>
</linearGradient>
<linearGradient id="paint9_linear_16799_71797" x1="177.35" y1="-52.5715" x2="158.722" y2="71.9204" gradientUnits="userSpaceOnUse">
<stop stop-color="white" stop-opacity="0.15"/>
<stop offset="0.53125" stop-color="#9747FF" stop-opacity="0.65"/>
<stop offset="1" stop-color="#9747FF" stop-opacity="0.65"/>
</linearGradient>
<linearGradient id="paint10_linear_16799_71797" x1="177.35" y1="173.067" x2="158.722" y2="297.559" gradientUnits="userSpaceOnUse">
<stop stop-color="white" stop-opacity="0.15"/>
<stop offset="0.53125" stop-color="#9747FF" stop-opacity="0.65"/>
<stop offset="1" stop-color="#9747FF" stop-opacity="0.65"/>
</linearGradient>
<linearGradient id="paint11_linear_16799_71797" x1="30.3496" y1="49.0671" x2="155.111" y2="217.735" gradientUnits="userSpaceOnUse">
<stop stop-color="white" stop-opacity="0.15"/>
<stop offset="0.53125" stop-color="#9747FF" stop-opacity="0.65"/>
<stop offset="1" stop-color="#9747FF" stop-opacity="0.65"/>
</linearGradient>
<clipPath id="clip0_16799_71797">
<rect width="177" height="270" fill="white" transform="translate(11)"/>
</clipPath>
<clipPath id="clip1_16799_71797">
<rect width="141.6" height="224.749" fill="white" transform="translate(34.3496 12.0671)"/>
</clipPath>
</defs>
</svg>
