<svg width="675" height="415" viewBox="0 0 675 415" fill="none" xmlns="http://www.w3.org/2000/svg">
<g style="mix-blend-mode:soft-light" opacity="0.5">
<path fill-rule="evenodd" clip-rule="evenodd" d="M554.656 112.857C569.475 67.9198 616.585 33.0943 662.879 32.8559H662.891L657.662 0H14.1561L8.93978 32.8559C55.2205 33.0818 102.331 67.9198 117.15 112.857C119.168 121.804 120.852 130.724 122.512 139.511C131.066 184.813 138.955 226.587 188.381 250.365C193.405 252.843 198.694 254.995 203.984 257.148C218.109 262.895 232.241 268.646 241.349 280.612C248.087 289.447 250.732 300.046 253.391 310.694C254.729 316.058 256.071 321.433 257.941 326.602C262.078 338.143 269.103 348.702 278.012 357.373C273.747 355.695 269.588 353.744 265.525 351.586C259.181 343.464 254.557 334.085 249.864 324.565L249.764 324.361C244.023 312.715 238.16 300.872 228.875 291.389C217.264 279.53 202.828 273.94 187.769 270.357C180.759 268.69 173.581 267.45 166.481 266.223L164.919 265.953C157.295 264.634 149.777 263.294 142.574 261.415C120.412 255.638 102.571 241.062 94.0957 218.911C88.5535 204.435 87.3781 189.966 86.1477 174.819C85.7855 170.36 85.4186 165.842 84.9341 161.248C82.2376 135.7 78.7208 107.142 62.985 85.8193C49.6217 67.7137 29.034 55.1972 6.13743 58.834L6.53845 61.349C28.188 57.9103 47.9232 69.7063 60.9306 87.3296C76.1911 108.008 79.688 135.853 82.3965 161.515C82.8665 165.971 83.2254 170.4 83.5825 174.807C84.8156 190.024 86.0269 204.971 91.7121 219.82C100.507 242.806 119.042 257.913 141.929 263.879C149.25 265.788 156.866 267.144 164.483 268.462L166.029 268.73C173.146 269.959 180.249 271.186 187.177 272.835C202.028 276.368 215.924 281.805 227.05 293.168C236.004 302.314 241.705 313.78 247.474 325.485L247.656 325.854C251.474 333.6 255.339 341.441 260.219 348.622C256.905 346.683 253.654 344.621 250.462 342.472C242.671 337.232 235.242 331.432 227.814 325.634C215.981 316.397 204.151 307.162 190.87 300.194C179.633 294.298 167.868 290.447 155.436 289.23C151.625 288.855 147.809 288.669 143.993 288.484C141.304 288.353 138.615 288.223 135.929 288.026C132.661 287.787 129.392 287.436 126.137 286.897C126.011 286.871 125.936 286.859 125.886 286.859H125.823C125.634 286.815 125.446 286.774 125.257 286.733C125.069 286.693 124.88 286.652 124.691 286.608C123.937 286.445 123.196 286.269 122.442 286.081C120.757 285.642 119.085 285.14 117.439 284.538C116.589 284.225 115.755 283.869 114.92 283.512C114.483 283.325 114.045 283.138 113.605 282.957C113.568 282.945 113.555 282.945 113.53 282.932C113.385 282.857 113.238 282.785 113.09 282.713C112.942 282.641 112.795 282.568 112.65 282.493C111.908 282.117 111.179 281.715 110.45 281.301C108.062 279.921 105.774 278.366 103.6 276.672C103.462 276.559 102.632 275.894 102.519 275.807C102.016 275.38 101.526 274.953 101.036 274.527C99.9548 273.561 98.9115 272.57 97.8934 271.554C95.832 269.496 93.8712 267.339 91.9983 265.118C91.1184 264.064 90.2511 262.998 89.3964 261.919C89.098 261.542 88.8058 261.16 88.5153 260.779C88.3898 260.615 88.2647 260.451 88.1395 260.288C88.0075 260.119 87.8786 259.946 87.7497 259.774C87.6209 259.601 87.4921 259.429 87.3602 259.259L87.3225 259.209C87.3225 259.209 87.247 259.096 87.1842 259.009C85.437 256.587 83.7402 254.128 82.0936 251.644C80.3866 249.067 78.713 246.466 77.0399 243.866C75.3003 241.163 73.5614 238.46 71.7866 235.787C64.6346 225.023 56.7661 214.624 46.3712 206.783C36.8687 199.607 24.6386 194.35 12.8987 194.94C12.7479 194.94 12.5845 194.953 12.4336 194.965C11.0887 193.999 9.32896 193.635 7.82063 194.514C6.73965 195.141 5.64611 195.73 4.54 196.307C3.94923 196.546 3.35847 196.822 2.81798 197.173C-2.32293 199.544 0.115548 208.075 5.74667 208.188C7.46868 208.225 9.03986 208 10.7116 207.711C11.2274 207.624 11.7431 207.559 12.2647 207.493C12.4168 207.474 12.5694 207.455 12.7227 207.435C12.9464 207.435 13.17 207.422 13.3963 207.408C13.5515 207.399 13.708 207.39 13.8665 207.385C15.1486 207.36 16.4433 207.385 17.7379 207.498C18.379 207.548 19.0326 207.623 19.6736 207.711C19.9416 207.745 20.2097 207.789 20.4777 207.834C20.6119 207.856 20.7461 207.878 20.8803 207.899H20.9306C23.6959 208.514 26.3983 209.342 29.0379 210.421C29.6664 210.672 30.2823 210.948 30.8982 211.224L30.9987 211.274C31.1246 211.337 31.2473 211.396 31.3701 211.456C31.4924 211.516 31.6148 211.575 31.7403 211.638C33.1104 212.34 34.4553 213.093 35.7751 213.908C38.1759 215.376 40.4635 217.02 42.6506 218.801C42.8769 219.002 43.4928 219.529 43.6562 219.667C44.1715 220.118 44.6743 220.582 45.1645 221.047C46.3586 222.176 47.5275 223.342 48.6588 224.547C50.8082 226.83 52.8444 229.214 54.7801 231.672C55.6726 232.789 56.5399 233.931 57.382 235.072L57.5328 235.273C57.6397 235.424 57.7498 235.574 57.8598 235.725C57.9698 235.875 58.0797 236.026 58.1865 236.176C58.7269 236.929 59.2674 237.682 59.7953 238.447C62.2139 241.909 64.5823 245.482 66.9661 249.077C78.1849 265.999 89.7441 283.435 108.477 292.354C120.234 297.952 132.901 298.144 145.396 298.333C146.033 298.343 146.669 298.353 147.304 298.363C150.597 298.413 153.903 298.501 157.196 298.752C158.742 298.865 160.288 299.015 161.822 299.216C163.192 299.392 164.951 299.68 165.819 299.856C171.538 301.022 177.144 302.804 182.586 305.075C198.342 311.645 212.13 321.914 225.881 332.156C231.482 336.327 237.076 340.494 242.794 344.404C251.249 350.183 260.057 355.521 269.342 359.738C286.765 377.023 312.885 383.598 336.512 381.677C360.665 383.641 387.421 376.726 404.831 358.57C406.266 357.073 407.619 355.52 408.902 353.92C411.891 352.72 414.781 351.27 417.523 349.685C427.039 344.186 435.289 336.971 443.516 329.774C443.96 329.386 444.404 328.997 444.849 328.609C453.157 321.346 461.679 314.245 471.735 309.503C476.423 307.295 481.577 305.79 486.743 305.3C492.603 304.729 498.474 305.458 504.289 306.181C504.859 306.252 505.429 306.322 505.999 306.392L506.247 306.422C512.336 307.152 518.426 307.883 524.577 307.722C530.233 307.571 535.889 306.806 541.407 305.551C552.255 303.067 562.876 298.451 571.926 291.952C581.504 285.065 589.196 276.409 595.758 266.649C599.428 261.189 602.735 255.513 606.041 249.838C608.532 245.563 611.023 241.287 613.669 237.105C615.228 234.633 616.849 232.212 618.546 229.828C618.961 229.251 619.376 228.687 619.803 228.11C619.849 228.047 619.895 227.984 619.942 227.921C620.004 227.838 620.067 227.755 620.13 227.672C620.23 227.542 620.331 227.412 620.431 227.282L620.469 227.244C620.469 227.244 620.487 227.221 620.513 227.192C620.53 227.173 620.55 227.151 620.57 227.131C621.437 226.04 622.329 224.973 623.259 223.92C625.019 221.925 626.879 220.018 628.84 218.224C629.821 217.321 630.826 216.443 631.857 215.602C631.945 215.539 632.825 214.824 632.925 214.736C633.478 214.31 634.044 213.896 634.622 213.482C636.835 211.901 639.135 210.459 641.535 209.191C642.679 208.577 643.848 208.025 645.03 207.485C645.05 207.477 645.085 207.462 645.128 207.443C645.219 207.403 645.342 207.348 645.419 207.322C645.495 207.291 645.567 207.263 645.639 207.235C645.711 207.206 645.784 207.178 645.859 207.147C646.526 206.883 647.204 206.632 647.883 206.406C650.322 205.578 652.835 204.939 655.387 204.562H655.513C655.67 204.55 655.824 204.534 655.978 204.518C656.132 204.503 656.286 204.487 656.443 204.474C657.059 204.424 657.687 204.387 658.303 204.362C659.623 204.311 660.943 204.349 662.263 204.449C662.347 204.458 662.522 204.478 662.717 204.5C663.076 204.54 663.499 204.587 663.532 204.587C663.997 204.663 664.462 204.738 664.915 204.838C666.247 205.102 667.554 205.466 668.849 205.892C671.275 206.682 674.292 204.976 674.857 202.492C675.473 199.808 674.053 197.349 671.451 196.496L671.438 196.446C649.404 189.257 626.716 203.584 613.455 220.369C607.117 228.386 601.995 237.2 596.874 246.01C596.105 247.333 595.336 248.656 594.563 249.976C588.719 259.987 582.949 269.233 574.767 277.161C570.694 281.113 567.25 283.748 562.524 286.796C560.198 288.289 557.798 289.669 555.334 290.924C552.845 292.191 550.633 293.182 548.396 294.047C537.976 298.062 527.581 299.831 516.545 299.392C513.837 299.282 511.136 299.041 508.436 298.8C504.629 298.46 500.823 298.12 496.999 298.15C490.878 298.2 484.757 299.003 478.95 301.01C468.504 304.623 459.366 310.996 450.869 317.921C447.111 320.988 443.493 324.223 439.873 327.459L439.87 327.461C434.992 331.822 430.112 336.185 424.888 340.138C421.23 342.899 417.42 345.485 413.413 347.717C418.009 340.784 421.71 333.276 425.368 325.855L425.55 325.485C431.32 313.78 437.021 302.314 445.974 293.168C457.101 281.805 470.997 276.368 485.847 272.835C492.776 271.186 499.879 269.959 506.996 268.73L508.542 268.462C516.158 267.144 523.775 265.788 531.096 263.879C553.982 257.913 572.517 242.806 581.312 219.82C586.998 204.971 588.209 190.024 589.442 174.807C589.799 170.4 590.158 165.971 590.628 161.515C593.337 135.853 596.833 108.008 612.094 87.3297C625.101 69.7064 644.837 57.9103 666.486 61.349L666.887 58.834C643.991 55.1972 623.403 67.7137 610.04 85.8193C594.304 107.142 590.787 135.7 588.091 161.248C587.606 165.842 587.239 170.36 586.877 174.819C585.646 189.966 584.471 204.435 578.929 218.911C570.453 241.062 552.613 255.638 530.451 261.415C523.247 263.294 515.73 264.634 508.106 265.953L506.544 266.223C499.444 267.45 492.265 268.69 485.255 270.357C470.197 273.94 455.761 279.53 444.15 291.388C434.865 300.872 429.002 312.715 423.261 324.361L423.16 324.565C418.732 333.548 414.365 342.407 408.556 350.201C404.748 352 400.678 353.62 396.562 354.543C404.157 346.443 410.163 336.913 413.865 326.602C415.727 321.442 417.065 316.075 418.4 310.72C421.056 300.063 423.701 289.454 430.444 280.612C439.552 268.646 453.684 262.895 467.809 257.148C473.099 254.995 478.388 252.843 483.412 250.365C532.836 226.539 540.674 185.048 549.211 139.862C550.891 130.968 552.599 121.93 554.656 112.857ZM276.582 362.749C287.528 371.401 301.102 376.523 315.038 378.505C305.824 376.132 297.038 372.005 289.145 366.54C284.833 365.586 280.598 364.26 276.582 362.749ZM393.875 357.283C397.339 357.186 400.78 356.569 404.133 355.582C403.758 355.995 403.376 356.404 402.988 356.809C390.61 369.717 373.216 376.791 355.459 378.829C369.822 375.405 383.204 367.699 393.875 357.283Z" fill="url(#paint0_linear_16799_71865)"/>
</g>
<ellipse cx="338" cy="400.732" rx="222" ry="13.5211" fill="black"/>
<path d="M145.465 382.783L202.467 346.49C202.467 346.49 235.45 343.076 268.804 336.394C301.176 329.915 319.116 328.958 337.438 346.805C337.438 366.434 336.972 384.484 336.972 384.484C336.972 384.484 168.204 391.403 145.453 382.783H145.465Z" fill="white"/>
<path d="M332.627 346.975C332.627 346.975 316.877 331.64 290.417 336.417C263.968 341.183 246.998 344.575 205.291 350.558C185.508 362.885 161.357 379.166 161.357 379.166C161.357 379.166 181.14 379.166 225.791 370.22C262.532 362.862 304.431 347.414 331.777 369.476C332.16 357.69 332.627 346.727 332.627 346.986V346.975Z" fill="#D5C8F1"/>
<path opacity="0.46" d="M297.239 332.237L284.35 386.175C289.831 386.039 295.073 385.893 299.967 385.746L312.545 333.104C307.818 332.192 302.768 331.955 297.239 332.237Z" fill="white"/>
<path d="M139.613 394.445L145.465 382.794C145.465 382.794 178.628 385.769 231.07 373.025C283.5 360.293 314.868 356.203 336.984 379.763V386.603C336.984 386.603 325.926 385.825 315.215 395.347C303.235 395.347 139.613 394.456 139.613 394.456V394.445Z" fill="#9182B0"/>
<path d="M528.501 382.783L472.42 346.49C472.42 346.49 451.609 345.938 406.084 336.394C373.771 329.623 355.772 328.958 337.449 346.806C337.449 366.434 336.982 384.034 336.982 384.034C336.982 384.034 505.75 391.403 528.501 382.783Z" fill="white"/>
<path d="M343.553 346.975C343.553 346.975 359.314 331.64 385.763 336.417C412.211 341.183 429.181 344.575 470.889 350.558C490.671 362.885 514.822 379.166 514.822 379.166C514.822 379.166 495.039 379.166 450.388 370.22C413.647 362.862 371.749 347.414 344.402 369.476C344.019 357.69 343.553 346.727 343.553 346.986V346.975Z" fill="#D5C8F1"/>
<g style="mix-blend-mode:multiply">
<path d="M350.554 337.104C345.91 339.482 341.71 342.659 337.449 346.806C337.449 366.434 336.982 384.034 336.982 384.034C336.982 384.034 355.401 384.834 380.88 385.6C355.293 375.234 343.84 355.042 350.554 337.093V337.104Z" fill="#D2CAC8"/>
</g>
<path d="M535.275 394.445L528.489 382.794C528.489 382.794 495.327 385.769 442.884 373.025C390.454 360.293 359.087 356.203 336.971 379.763V386.603C336.971 386.603 348.95 385.825 359.661 395.347C371.641 395.347 535.263 394.456 535.263 394.456L535.275 394.445Z" fill="#9182B0"/>
<path d="M358.643 399.639C358.643 403.02 349.404 402.479 338.011 402.479C326.618 402.479 317.379 403.02 317.379 399.639C317.379 396.259 326.618 390.22 338.011 390.22C349.404 390.22 358.643 396.248 358.643 399.639Z" fill="#150A2F"/>
<path d="M315.214 401.003L134.059 400.665C132.001 400.665 130.361 399.099 130.361 397.183C130.361 395.268 132.013 393.713 134.047 393.713L313.61 394.051C316.805 391.042 325.997 383.639 338.982 383.639C351.966 383.639 359.769 390.592 362.713 393.713H541.761C543.796 393.713 545.447 395.268 545.447 397.183C545.447 399.099 543.796 400.653 541.761 400.653H360.978C359.781 400.653 358.656 400.101 357.962 399.189C357.699 398.851 351.224 390.58 338.993 390.58C326.763 390.58 318.11 399.673 318.026 399.763C317.32 400.541 316.291 400.992 315.214 400.992V401.003Z" fill="#612BAA"/>
<path d="M217.641 381.961C235.508 378.794 252.921 374.411 270.837 371.414C285.27 369.116 301.163 368.563 314.615 374.963C317.618 376.237 320.706 378.141 323.411 379.865C307.578 370.907 288.92 370.727 271.256 373.803C253.484 376.699 235.712 380.699 217.641 381.961Z" fill="#2D1951"/>
<path d="M261.252 381.803C279.957 377.442 302.253 375.921 320.205 383.471C317.799 382.806 315.489 381.972 313.036 381.555C296.054 377.949 278.318 379.38 261.252 381.803Z" fill="#2D1951"/>
<path d="M235.568 388.496C261.059 387.73 289.542 387.11 315.034 387.437C288.669 388.755 261.957 389.341 235.568 388.496Z" fill="#2D1951"/>
<path d="M314.508 399.346C314.508 399.346 317.847 402.49 338 402.49C358.154 402.49 360.703 399.2 360.703 399.2" stroke="#622BAA" stroke-width="3.23" stroke-miterlimit="10"/>
<path d="M202.621 388.147C217.808 385.769 233.306 384.192 248.685 383.459C233.498 385.837 217.988 387.403 202.621 388.147Z" fill="#2D1951"/>
<g style="mix-blend-mode:multiply">
<path d="M296.436 386.085L289.854 383.042L283.271 386.085V370.006C287.616 369.319 291.948 369.589 296.46 370.231L296.424 386.085H296.436Z" fill="#D2CAC8"/>
</g>
<path d="M295.528 385.127L288.945 382.085L282.363 385.127V370.118C286.696 369.431 291.088 369.397 295.516 370.118V385.127H295.528Z" fill="#9747FF"/>
<path d="M457.809 381.961C439.738 380.699 421.966 376.699 404.194 373.803C386.53 370.727 367.872 370.907 352.039 379.865C354.744 378.152 357.831 376.237 360.835 374.963C374.287 368.552 390.168 369.116 404.613 371.414C422.529 374.411 439.941 378.806 457.809 381.961Z" fill="#2D1951"/>
<path d="M414.199 381.803C397.121 379.38 379.397 377.949 362.415 381.555C359.961 381.983 357.64 382.817 355.246 383.47C373.198 375.921 395.493 377.431 414.199 381.803Z" fill="#2D1951"/>
<path d="M439.881 388.496C413.493 389.341 386.769 388.755 360.416 387.437C385.907 387.121 414.39 387.741 439.881 388.496Z" fill="#2D1951"/>
<path d="M472.815 388.147C457.437 387.414 441.939 385.837 426.752 383.459C442.13 384.192 457.628 385.769 472.815 388.147Z" fill="#2D1951"/>
<defs>
<linearGradient id="paint0_linear_16799_71865" x1="338.096" y1="351.266" x2="338.096" y2="18.8178" gradientUnits="userSpaceOnUse">
<stop stop-color="white"/>
<stop offset="1" stop-color="white" stop-opacity="0"/>
</linearGradient>
</defs>
</svg>
