<svg width="16" height="16" viewBox="0 0 16 16" fill="none" xmlns="http://www.w3.org/2000/svg">
<g id="boy">
<path d="M0 8C0 3.58172 3.58172 0 8 0C12.4183 0 16 3.58172 16 8C16 12.4183 12.4183 16 8 16C3.58172 16 0 12.4183 0 8Z" fill="black" fill-opacity="0.2"/>
<path id="Union" fill-rule="evenodd" clip-rule="evenodd" d="M11.9837 1.87071C11.9122 1.60398 11.6381 1.44569 11.3713 1.51716L7.27327 2.61524C7.00653 2.68671 6.84824 2.96088 6.91971 3.22761C6.99118 3.49434 7.26535 3.65263 7.53208 3.58116L10.4642 2.79551L8.80401 5.67102C6.73111 4.76144 4.26178 5.5384 3.10364 7.54435C1.861 9.69667 2.59843 12.4488 4.75075 13.6915C6.90307 14.9341 9.65522 14.1967 10.8979 12.0444C12.056 10.0384 11.4942 7.51141 9.67003 6.17102L11.3302 3.29551L12.1159 6.22761C12.1873 6.49434 12.4615 6.65263 12.7282 6.58116C12.995 6.50969 13.1533 6.23552 13.0818 5.96879L11.9837 1.87071ZM8.75075 6.76326C7.07673 5.79677 4.93616 6.37033 3.96966 8.04435C3.00316 9.71838 3.57673 11.8589 5.25075 12.8254C6.92478 13.7919 9.06534 13.2184 10.0318 11.5444C10.9983 9.87033 10.4248 7.72976 8.75075 6.76326Z" fill="white"/>
</g>
</svg>
