<svg width="220" height="178" viewBox="0 0 220 178" fill="none" xmlns="http://www.w3.org/2000/svg">
<path id="Vector" d="M2.00702 58.7621C1.58186 29.9528 20.5577 9.63831 43.4413 3.7502C66.2547 -2.11983 93.022 6.35158 108.226 35.5776L110 38.9883L111.774 35.5776C126.978 6.35158 153.745 -2.11983 176.559 3.7502C199.442 9.63831 218.418 29.9528 217.993 58.7621C217.524 90.2274 198.057 108.784 174.448 125.011C168.816 128.882 162.98 132.599 157.128 136.327L156.301 136.854C150.185 140.751 144.062 144.666 138.22 148.748C127.381 156.322 117.381 164.554 110 174.524C102.619 164.554 92.6191 156.322 81.7799 148.748C75.9376 144.666 69.8154 140.751 63.6989 136.854C63.423 136.678 63.147 136.502 62.8711 136.326C57.0199 132.599 51.1844 128.882 45.5524 125.011C21.9432 108.784 2.47571 90.2276 2.00702 58.7621ZM2.00702 58.7621L0.00723777 58.7916L2.00702 58.7621Z" stroke="#9747FF" stroke-width="4"/>
</svg>
