<svg width="16" height="16" viewBox="0 0 16 16" fill="none" xmlns="http://www.w3.org/2000/svg">
<g id="girl">
<path d="M0 8C0 3.58172 3.58172 0 8 0C12.4183 0 16 3.58172 16 8C16 12.4183 12.4183 16 8 16C3.58172 16 0 12.4183 0 8Z" fill="black" fill-opacity="0.2"/>
<path id="Union" fill-rule="evenodd" clip-rule="evenodd" d="M7.11189 10.1241C9.18479 11.0337 11.6541 10.2567 12.8123 8.25075C14.0549 6.09843 13.3175 3.34628 11.1651 2.10364C9.01283 0.860997 6.26067 1.59843 5.01803 3.75075C3.85989 5.75671 4.42169 8.28369 6.24587 9.62408L4.98213 11.8129L3.25008 10.8129C3.01094 10.6749 2.70514 10.7568 2.56707 10.9959C2.429 11.2351 2.51094 11.5409 2.75008 11.679L4.48213 12.679L3.98213 13.545C3.84406 13.7841 3.926 14.0899 4.16515 14.228C4.40429 14.3661 4.71009 14.2841 4.84816 14.045L5.34816 13.179L7.08021 14.179C7.31936 14.317 7.62515 14.2351 7.76322 13.9959C7.90129 13.7568 7.81936 13.451 7.58021 13.3129L5.84816 12.3129L7.11189 10.1241ZM11.9462 7.75075C10.9797 9.42478 8.83917 9.99834 7.16515 9.03184C5.49112 8.06534 4.91756 5.92477 5.88406 4.25075C6.85056 2.57673 8.99112 2.00316 10.6651 2.96966C12.3392 3.93616 12.9127 6.07673 11.9462 7.75075Z" fill="white"/>
</g>
</svg>
