<svg width="30" height="30" viewBox="0 0 30 30" fill="none" xmlns="http://www.w3.org/2000/svg">
<g id="&#230;&#152;&#159;&#229;&#186;&#167;icon">
<g id="Vector">
<path d="M3.84588 9.97287C4.01097 9.57366 4.05953 9.14023 4.23433 8.74101C4.42855 8.30758 4.74901 7.93118 5.04035 7.60041C5.54532 7.00729 6.21539 6.74495 6.91459 6.76776C8.51692 6.81339 9.64341 9.14023 10.2649 10.5774C12.1974 15.0486 13.0034 20.1471 13.8872 24.9947C14.0231 25.7246 14.732 26.1353 15.3147 25.9528C15.9847 25.7361 16.2178 25.0061 16.1207 24.2761C15.742 21.1508 15.0525 18.0256 14.2562 15.0029C13.5667 12.391 12.7607 9.60787 11.4205 7.36088C10.0901 5.1367 8.11876 3.60828 5.74926 4.14437C4.74901 4.37249 3.81675 5.12529 3.13697 5.99215C2.39893 6.95026 1.56378 8.72961 2.26297 9.97287C2.61257 10.5888 3.51571 10.7371 3.83617 9.97287H3.84588Z" fill="white"/>
<path d="M27.7351 9.97304C28.4149 8.764 27.6477 7.14434 26.9874 6.17482C26.3076 5.17109 25.3171 4.4525 24.2586 4.14454C21.8988 3.47158 19.908 5.25093 18.5873 7.36105C17.2083 9.56242 16.4411 12.4253 15.7517 15.0031C14.9359 18.0029 14.2561 21.151 13.8871 24.2762C13.7997 25.0176 14.0328 25.7362 14.7029 25.9529C15.2855 26.1468 15.9944 25.7248 16.1304 24.9948C17.0238 20.113 17.8687 15.0944 19.7526 10.5776C20.3547 9.1518 21.4229 7.00746 22.9379 6.77934C23.6274 6.67669 24.3168 6.92762 24.851 7.4523C25.1617 7.76026 25.453 8.15948 25.6861 8.54728C25.9483 8.98071 25.9774 9.50539 26.1717 9.97304C26.4921 10.7372 27.3953 10.589 27.7449 9.97304H27.7351Z" fill="white"/>
</g>
</g>
</svg>
