<svg width="30" height="30" viewBox="0 0 30 30" fill="none" xmlns="http://www.w3.org/2000/svg">
<g id="&#230;&#152;&#159;&#229;&#186;&#167;icon">
<g id="Vector">
<path d="M14.602 7.85233C14.2683 7.69046 13.8398 7.37325 13.4702 7.27646C13.0722 7.17063 12.6735 7.08542 12.2546 7.02855C11.4265 6.91096 10.5901 7.0202 9.80738 7.22998C8.295 7.63861 6.8645 8.55313 5.99471 9.70177C5.03897 10.976 4.75439 13.603 5.21739 15.0647C5.6983 16.5599 6.81192 17.6307 8.36854 18.3626C10.8658 19.5332 14.3908 18.903 16.3572 17.2063C18.8673 15.0292 18.5539 10.5777 16.0377 8.49018C15.5734 8.10594 15.0628 7.81126 14.4983 7.54813C13.8488 7.25791 13.2962 7.19326 12.5779 7.21491C11.6631 7.24356 11.4631 8.38988 12.1275 8.7961C12.6702 9.12881 13.2496 9.37583 13.7826 9.71241C14.2828 10.0316 14.6246 10.495 14.8939 10.9771C15.4199 11.8956 15.4672 13.8216 15.0882 14.6328C14.8026 15.2442 14.0743 15.7981 13.2923 16.1194C12.384 16.4909 11.5103 16.5743 10.506 16.4354C9.67788 16.3178 8.8955 15.8671 8.31414 15.1535C7.6544 14.3594 7.56011 12.2793 7.92348 11.3728C8.30408 10.3883 9.27518 9.73779 10.338 9.32513C10.7458 9.16289 11.2178 9.07672 11.6726 9.06851C11.9743 9.06024 12.2745 9.09322 12.5694 9.13844C12.9502 9.19013 13.3184 9.19607 13.688 9.29287C14.6683 9.56324 15.6129 8.33407 14.6117 7.84846L14.602 7.85233Z" fill="white"/>
<path d="M16.201 8.72996C15.3995 7.62645 14.2455 6.74448 13.4149 5.65255C13.2276 5.41212 12.9925 5.03828 12.7926 4.61999C12.7479 4.5362 12.5428 3.99805 12.6419 4.29387C12.5771 4.10632 12.5361 3.91943 12.5004 3.7203C12.484 3.64554 12.4773 3.56692 12.4751 3.49668C12.4938 3.37747 12.5178 3.24603 12.5514 3.11071C12.4549 3.52503 12.5709 3.10299 12.6224 3.00119C12.6688 2.91164 12.8048 2.72546 12.5768 3.07013C12.6224 3.00119 12.6822 2.93678 12.7323 2.87622C12.937 2.64238 12.482 3.04689 12.8212 2.80021C12.9145 2.73259 13.3343 2.50463 12.9295 2.71648C13.061 2.65402 13.1969 2.59995 13.3373 2.55425C13.4053 2.52721 13.4777 2.50855 13.5599 2.48602C13.7667 2.45452 13.9303 2.4301 14.0886 2.41791C14.1797 2.41215 14.2566 2.40186 14.3477 2.3961C14.754 2.40721 15.1542 2.45117 15.5582 2.52414C15.6769 2.54803 15.7762 2.57964 15.8807 2.59901C16.0846 2.65 16.2832 2.71322 16.4818 2.77645C16.6849 2.84805 16.8782 2.92352 17.0858 3.0035C17.1896 3.04349 17.2836 3.08735 17.3919 3.13572C17.0529 2.98609 17.4949 3.19633 17.5561 3.22277C19.4285 4.2152 20.5748 5.56758 21.3842 7.36898C22.0689 8.91516 22.3077 10.7505 21.8999 12.4773C21.3858 14.6224 19.9622 16.5196 18.4731 18.2499C16.694 20.319 14.381 22.4685 14.0675 25.1433C13.934 26.3039 14.277 27.3866 14.9725 28.3799C15.8358 29.6213 17.6496 29.8649 19.1662 29.9931C21.1121 30.1536 21.4114 27.4743 19.4669 27.4046C18.6642 27.3785 17.7822 27.4246 17.274 26.8039C16.8941 26.3352 16.9498 25.6019 17.0314 25.0716C17.2891 23.3943 19.0306 21.8278 20.1701 20.5008C22.4894 17.79 24.6721 14.8897 24.9666 11.43C25.3541 6.99865 22.3441 2.20189 17.4925 0.525288C14.9323 -0.366228 11.5278 -0.281792 10.0795 2.03171C9.38293 3.15206 9.7414 4.59437 10.2942 5.69521C11.2043 7.48698 12.9359 9.31772 14.9158 10.247C15.3436 10.4528 15.9546 10.23 16.2243 9.91953C16.5493 9.53623 16.4741 9.10897 16.2055 8.73834L16.201 8.72996Z" fill="white"/>
</g>
</g>
</svg>
