<svg width="30" height="30" viewBox="0 0 30 30" fill="none" xmlns="http://www.w3.org/2000/svg">
<g id="&#230;&#152;&#159;&#229;&#186;&#167;icon">
<path id="Union" fill-rule="evenodd" clip-rule="evenodd" d="M4.184 6.83188C4.10112 6.95105 4.02044 7.06707 3.94112 7.1734L3.93878 7.19563C3.37147 7.97181 1.87709 7.69288 2.00809 6.57854C2.09995 5.87807 2.35043 5.20781 2.78316 4.64216C3.70246 3.42666 5.48369 2.47733 6.97234 3.32198C7.55817 3.64894 7.81658 4.39533 7.96714 5.01349C8.01863 5.22394 8.06403 5.43686 8.10414 5.65175C9.06108 4.85825 10.3126 4.15352 11.5741 4.69706C12.6137 5.13946 13.3477 5.92834 13.87 6.87533C14.1495 6.44989 14.484 6.06424 14.8798 5.74259C16.1 4.74309 17.9298 4.01463 19.4037 4.95661C20.726 5.8017 21.3147 7.42341 21.5072 8.92245C21.6566 10.0639 21.7058 11.2195 21.7278 12.3731C22.515 12.0844 23.4003 12.0319 24.2036 12.2946C25.6884 12.7928 26.3486 14.2468 26.3909 15.721C26.4525 17.9074 25.2715 20.0706 23.9925 21.7561C23.9613 21.797 23.9301 21.8378 23.8989 21.8783C24.5003 22.4712 25.2266 22.9425 26.1092 23.2513C27.7479 23.8241 26.921 26.3797 25.2823 25.8069C24.0779 25.3869 23.0024 24.7175 22.0993 23.859C21.82 24.1112 21.5261 24.3524 21.2132 24.5823C20.8266 24.8685 20.4277 25.1429 20.0282 25.4178C19.4502 25.8155 18.8707 26.2142 18.325 26.651C17.7407 27.1197 16.9203 27.1411 16.3879 26.5636C15.9121 26.0459 15.8879 25.0815 16.4753 24.6266C17.0111 24.214 17.5835 23.8373 18.1574 23.4598C18.9545 22.9353 19.7542 22.4092 20.4617 21.7825C20.4242 21.7181 20.3874 21.6532 20.3513 21.5879C19.6073 20.2464 19.0133 18.6331 19.0332 17.0801C19.0364 16.5124 19.0461 15.9434 19.0558 15.3738C19.0706 14.4968 19.0856 13.6184 19.0771 12.7429C19.0741 12.5493 19.0725 12.3541 19.0708 12.1578C19.0611 10.9939 19.051 9.79298 18.7685 8.67862C18.7587 8.64062 18.7486 8.59953 18.7378 8.55608C18.6362 8.14525 18.4822 7.52297 18.1319 7.29905C17.733 7.03226 17.2556 7.29655 16.8941 7.52811C15.9848 8.11048 15.3528 9.13391 14.9143 10.1069C14.9832 10.5056 15.0363 10.8992 15.0783 11.2782C15.275 12.9934 15.2387 14.702 15.1885 16.4137C15.1851 16.5634 15.1819 16.7131 15.1786 16.8629L15.1786 16.8641C15.1491 18.2358 15.1194 19.6141 14.9633 20.979C14.8852 21.6764 14.3582 22.2411 13.62 22.2082C12.9539 22.174 12.3126 21.5625 12.3907 20.8651C12.6942 18.2003 12.7104 15.4467 12.6505 12.7751C12.619 11.284 12.4434 9.36878 11.5945 7.9129C11.1529 7.15618 10.6815 6.72443 9.8716 7.28626C9.23988 7.72914 8.76451 8.37231 8.4145 9.05551C8.42408 9.34751 8.43177 9.63853 8.43939 9.92743C8.44497 10.1388 8.45052 10.349 8.45677 10.5576C8.56796 14.0212 8.62463 17.533 8.40311 20.9975C8.3223 22.3073 6.84172 22.4587 6.1944 21.6418C6.2052 21.6713 6.21598 21.7006 6.22673 21.7299C6.21527 21.7107 6.20381 21.6915 6.18696 21.6807C5.91586 21.3293 5.80507 20.8933 5.91024 20.4973C5.96969 17.3238 5.93944 14.1376 5.82489 10.9633C5.78319 9.95206 5.73612 8.94929 5.65839 7.93878L5.62687 7.59836C5.65839 7.93878 5.62079 7.57075 5.61705 7.52091C5.60212 7.3216 5.57876 7.1169 5.55541 6.9122C5.50704 6.56104 5.45329 6.21824 5.39954 5.8755C5.38791 5.80396 5.37558 5.73189 5.36191 5.66096C4.89577 5.80838 4.52171 6.34626 4.184 6.83188ZM21.7302 16.3127C21.7361 16.089 21.7407 15.8652 21.744 15.6413C21.8309 15.5349 21.9021 15.4167 21.976 15.2939C22.0387 15.1898 22.1033 15.0823 22.1813 14.9759C22.1903 14.9619 22.3475 14.8449 22.4392 14.7766L22.4846 14.7427C22.3459 14.8516 22.6864 14.6995 22.6676 14.6881C22.7005 14.6821 22.7414 14.6754 22.7817 14.6689C22.8862 14.6518 22.9861 14.6355 22.9281 14.6342C23.0377 14.6335 23.1458 14.642 23.2504 14.6504C23.1751 14.6492 23.3485 14.6879 23.4523 14.7111C23.481 14.7175 23.5044 14.7227 23.5157 14.7256L23.5264 14.7295C23.5428 14.7418 23.5689 14.7596 23.6084 14.7848C23.6228 14.8273 23.6511 14.8844 23.6807 14.9441C23.6933 14.9697 23.7062 14.9957 23.7183 15.0211C23.727 15.0402 23.733 15.0525 23.737 15.0596L23.7504 15.1009C23.772 15.1777 23.7877 15.2557 23.8037 15.3358C23.8119 15.3766 23.8201 15.4179 23.8294 15.4599C23.8365 15.4992 23.842 15.529 23.8464 15.5512C23.8461 15.5615 23.8468 15.5813 23.849 15.6147C23.8571 15.8986 23.8286 16.1906 23.7884 16.4671C23.8018 16.3694 23.7752 16.4922 23.7538 16.5907C23.7426 16.6424 23.7328 16.6874 23.7311 16.69C23.6847 16.8739 23.63 17.0524 23.5698 17.2393C23.4464 17.5994 23.2978 17.9433 23.1269 18.2848C22.8961 18.7303 22.6324 19.162 22.3456 19.5786C22.2912 19.4591 22.2388 19.3379 22.1883 19.2151C22.1326 19.0609 22.0914 18.9397 22.0503 18.8185C21.9885 18.6367 21.9322 18.4465 21.8896 18.2532C21.8223 17.9757 21.7714 17.6998 21.7262 17.4189C21.7237 17.39 21.7203 17.3529 21.7169 17.3162C21.7122 17.2646 21.7075 17.2134 21.7055 17.1866C21.7018 16.9944 21.7103 16.7995 21.7189 16.6047C21.7232 16.5072 21.7274 16.4098 21.7302 16.3127Z" fill="white"/>
</g>
</svg>
