<svg width="30" height="30" viewBox="0 0 30 30" fill="none" xmlns="http://www.w3.org/2000/svg">
<g id="&#230;&#152;&#159;&#229;&#186;&#167;icon" clip-path="url(#clip0_16054_56051)">
<g id="Union">
<path d="M3.99552 21.9785C2.879 22.0123 1.70419 22.0479 0.654854 21.7339L0.654854 21.7442C-0.218285 21.4763 -0.218285 20.2299 0.654854 19.9723C1.30368 19.7735 1.96832 19.7412 2.64183 19.7084C2.73606 19.7039 2.83046 19.6993 2.92501 19.6942C3.79889 19.6451 11.2441 19.4006 16.5977 19.2248C17.9775 19.1794 19.2185 19.1387 20.1721 19.107C21.0033 19.0789 21.8355 19.0442 22.6684 19.0094C24.5835 18.9295 26.5021 18.8495 28.4206 18.8495C30.1875 18.8392 30.1875 21.6 28.4206 21.6C27.8158 21.6 22.8448 21.6802 17.5918 21.765C11.8711 21.8574 5.81596 21.9551 4.7021 21.9605C4.47044 21.9641 4.23432 21.9713 3.99552 21.9785Z" fill="white"/>
<path d="M29.3657 15.1512C29.5453 15.2158 29.4957 15.2018 29.3725 15.1648L29.3657 15.1512Z" fill="white"/>
<path d="M0.737033 16.8289L0.737033 16.8202C-0.105288 16.542 -0.0847422 15.4295 0.737033 15.1307C0.367235 15.2646 0.839755 15.0689 0.973295 15.0483C1.07109 15.0394 1.16118 15.0228 1.25691 15.0051L1.30201 14.9968C1.64441 14.9367 1.98681 14.9124 2.32922 14.8881C2.3977 14.8832 2.46619 14.8783 2.53467 14.8732C3.46944 14.8217 4.40421 14.8011 5.33898 14.7805C5.68413 14.7764 6.02929 14.7689 6.37444 14.7615C6.7797 14.7528 7.18509 14.7441 7.59036 14.7407C7.58154 14.2838 7.63423 13.8279 7.71187 13.4308C7.91731 12.3801 8.37956 11.3293 9.00617 10.464C10.4284 8.51643 12.3189 7.31082 14.7045 7.03554C14.8137 7.0062 14.9283 6.99407 15.0462 7.00276C15.1619 6.99423 15.2745 7.00576 15.3819 7.03394C17.7406 7.29833 19.7226 8.48656 21.0863 10.464C21.6923 11.3396 22.2059 12.3698 22.3806 13.4308C22.4469 13.838 22.5 14.2958 22.4939 14.7522C23.2965 14.7631 24.1064 14.782 24.9075 14.8009C25.832 14.8215 26.7565 14.8421 27.681 14.9039C28.0816 14.9245 28.472 14.9554 28.8726 15.0275C28.9513 15.0381 29.1825 15.1077 29.3368 15.1541L29.3725 15.1648L29.3759 15.1718C30.1977 15.4602 30.2183 16.5728 29.3759 16.8612C29.756 16.7376 29.2629 16.923 29.1397 16.9436C29.0832 16.9539 29.0293 16.9616 28.9753 16.9694C28.9214 16.9771 28.8675 16.9848 28.811 16.9951C28.4309 17.0466 28.0714 17.0672 27.6913 17.0878C27.0867 17.116 24.6056 17.1587 23.0108 17.1861C22.2754 17.1988 21.7285 17.2082 21.641 17.2114C21.5485 17.2217 21.4663 17.2217 21.3739 17.2217C21.3069 17.2259 21.2856 17.2224 21.2942 17.2141C20.9006 17.2439 20.5162 17.1063 20.2549 16.7764C20.1189 16.6522 20.0209 16.4848 19.9871 16.274C19.931 15.9173 19.9516 15.5585 19.9722 15.1994C19.9968 14.7704 20.0215 14.3412 19.9152 13.915C19.7406 13.1939 19.4324 12.5346 19.001 11.9165C18.0662 10.5876 16.6795 9.71203 15.0462 9.57811C13.4438 9.71203 11.9851 10.5773 11.0914 11.9165C10.6497 12.5861 10.2799 13.2969 10.1361 14.1004C10.0673 14.4776 10.0913 14.8519 10.1152 15.225C10.1376 15.5755 10.16 15.9247 10.1053 16.274L10.095 16.274C10.0709 16.4245 10.0141 16.5529 9.93408 16.6592C9.6712 17.0727 9.23924 17.2421 8.79836 17.2023C8.78042 17.204 8.74814 17.2039 8.698 17.2013C8.60555 17.191 5.80123 17.1189 4.93837 17.1189C4.06523 17.1086 3.19209 17.0983 2.31896 17.0571C1.94916 17.0468 1.58963 17.0056 1.2301 16.9541C1.15436 16.9439 0.937164 16.884 0.783441 16.8416L0.737033 16.8289Z" fill="white"/>
<path d="M0.737033 16.8408C0.554163 16.7796 0.608877 16.7936 0.737033 16.8289L0.737033 16.8408Z" fill="white"/>
</g>
</g>
<defs>
<clipPath id="clip0_16054_56051">
<rect width="30" height="30" fill="white"/>
</clipPath>
</defs>
</svg>
