<svg width="30" height="30" viewBox="0 0 30 30" fill="none" xmlns="http://www.w3.org/2000/svg">
<g id="&#230;&#152;&#159;&#229;&#186;&#167;icon">
<path id="Vector" d="M26.7744 4.70856C26.0531 3.88025 24.6089 3.89691 23.6526 4.19499C22.499 4.54656 21.58 5.3847 20.7344 6.20455C19.9069 7.01405 19.1528 7.80527 18.1241 8.37186C17.1405 8.91258 16.092 9.38302 15.0077 9.64703C13.9715 9.39369 13.0312 8.95387 12.0791 8.47304C10.9641 7.91851 10.1485 7.07265 9.27986 6.19751C8.48646 5.41058 7.61056 4.64711 6.53754 4.24766C5.53697 3.89023 3.98532 3.82524 3.23163 4.69986C2.74372 5.26663 3.06741 6.07232 3.8214 6.12929C4.24745 6.15948 4.64154 5.96911 5.07418 6.03135C5.5727 6.10357 5.96967 6.26991 6.38644 6.5324C7.31705 7.12112 8.0183 8.0804 8.77807 8.8508C9.46398 9.55608 10.2653 10.0876 11.1397 10.5175C10.1938 10.8335 9.34148 11.3107 8.54923 11.9327C6.68815 13.3833 5.84522 15.9457 5.8619 18.2297C5.88063 20.3931 6.76529 22.5372 8.36835 23.9942C9.33511 24.8728 10.543 25.4218 11.7953 25.7781C12.7632 26.0587 17.0572 26.0666 17.9945 25.8392C19.2902 25.5255 20.4711 24.9313 21.4935 24.1055C23.236 22.6991 24.0724 20.4152 24.1376 18.2514C24.2062 15.9902 23.2972 13.5972 21.597 12.0764C20.7988 11.364 19.8454 10.86 18.832 10.5219C19.6998 10.0715 20.4901 9.57015 21.2123 8.8689C21.9511 8.13421 22.5939 7.27548 23.4468 6.65449C23.8443 6.36658 24.2564 6.16586 24.74 6.06748C25.2415 5.95875 25.6878 6.16851 26.1755 6.1394C26.9277 6.08987 27.2609 5.27743 26.7654 4.71373L26.7744 4.70856ZM21.5401 18.082C21.5638 19.6333 20.9534 21.1065 19.7915 22.1677C19.1063 22.788 18.1798 23.1167 17.3032 23.3451C16.5323 23.5487 13.6284 23.5552 12.91 23.3941C12.0121 23.1928 11.0594 22.8557 10.3392 22.2776C9.11382 21.2847 8.50565 19.7822 8.46009 18.2554C8.40859 16.5528 9.10727 14.9214 10.3216 13.7226C10.9641 13.091 11.7793 12.6948 12.6299 12.4215C13.3065 12.2004 14.0313 12.083 14.7117 11.8477C14.7349 11.8463 14.7543 11.8591 14.7776 11.8577C14.8524 11.8625 14.9221 11.8583 15.0008 11.849C15.0719 11.8679 15.1558 11.8676 15.2254 11.8634L15.2899 11.8503C15.9039 12.0593 16.564 12.1821 17.1856 12.3629C18.0541 12.6169 18.856 13.0048 19.5439 13.5894C20.8474 14.7167 21.5274 16.4049 21.5453 18.091L21.5401 18.082Z" fill="white"/>
</g>
</svg>
