<svg width="30" height="30" viewBox="0 0 30 30" fill="none" xmlns="http://www.w3.org/2000/svg">
<g id="&#230;&#152;&#159;&#229;&#186;&#167;icon">
<path id="Union" d="M24.2132 23.4275C24.6278 23.7891 25.0823 23.7769 25.5533 23.6867C25.0364 24.239 24.3764 24.6628 23.6129 24.5422C22.4421 24.3513 22.3589 22.5529 22.3162 21.6284L22.3138 21.5785C22.2504 20.0902 22.2782 18.596 22.3061 17.102C22.3413 15.2206 22.3764 13.3395 22.229 11.4708C22.0572 9.23706 21.445 6.5306 19.2295 5.42393C17.8476 4.73213 16.2051 4.82007 14.8984 5.64292C14.5461 5.86689 14.217 6.14274 13.9284 6.45692C13.2753 5.38675 12.1383 4.48799 10.8441 4.56218C9.29143 4.64604 8.25875 6.13556 7.46238 7.29031C7.39624 7.387 7.32439 7.4848 7.24872 7.58376C7.21392 7.1417 7.17087 6.69876 7.11707 6.25397C7.11168 6.21011 7.10635 6.16626 7.10102 6.12244C7.02755 5.51803 6.95467 4.91848 6.72657 4.34529C6.26878 3.21201 5.37477 2.85315 4.12889 3.0518C2.40493 3.321 1.18237 4.98338 1.00705 6.62481C0.883035 7.72682 2.42875 7.97617 2.97231 7.18801L2.96741 7.17935C3.0357 7.0785 3.10064 6.97827 3.16467 6.87945C3.37685 6.55197 3.57905 6.2399 3.86027 5.97139C4.00009 5.83842 4.20032 5.69412 4.31634 5.65066C4.33556 5.75682 4.35288 5.86548 4.36879 5.97492C4.37312 6.0078 4.3795 6.05561 4.38697 6.11163C4.41558 6.32623 4.46024 6.66123 4.46741 6.73834C4.51543 7.18891 4.55468 7.64432 4.58026 8.09591C4.64156 8.93592 4.67607 9.78308 4.71053 10.6289C4.71817 10.8166 4.72581 11.0042 4.73375 11.1916C4.82122 14.0723 4.80896 16.8688 4.79648 19.7145C4.79342 20.4112 4.79035 21.1109 4.78873 21.8155C4.79183 21.882 4.78796 21.8955 4.78796 21.8955C4.76797 23.5875 7.27551 23.6245 7.30428 21.9276C7.31825 21.0478 7.33562 20.1822 7.35285 19.3243C7.4018 16.8861 7.44952 14.5095 7.41421 12.0419L7.41358 12.004C7.40706 11.6121 7.40058 11.2221 7.39244 10.8331C7.78534 10.4411 8.13812 9.98369 8.48322 9.53621C8.64855 9.32183 8.81213 9.10971 8.9775 8.9082C9.10821 8.75282 9.2348 8.59467 9.36138 8.43652C9.61454 8.12022 9.8677 7.80393 10.1539 7.5098C10.1696 7.49322 10.1871 7.47436 10.2061 7.45383C10.4052 7.239 10.7732 6.84196 11.0416 6.96345C12.1302 7.4422 12.2031 8.81047 12.2545 9.81573C12.2735 10.1744 12.3093 10.5323 12.3451 10.8902C12.3809 11.2481 12.4168 11.6061 12.4358 11.9647C12.465 12.5907 12.4355 13.2256 12.4063 13.8563C12.4003 13.9842 12.3944 14.112 12.389 14.2395C12.3412 15.3605 12.3504 16.4813 12.3595 17.601C12.3627 17.9917 12.3658 18.3822 12.3666 18.7725C12.3673 19.309 12.3585 19.8473 12.3498 20.3862C12.336 21.2381 12.3221 22.0915 12.3453 22.9415C12.3613 23.4778 12.6846 23.947 13.2228 24.1045C13.7971 24.2648 14.623 23.9343 14.7189 23.2908C14.9105 22.0728 14.8802 20.8047 14.8504 19.5543C14.8397 19.1066 14.8291 18.6612 14.8287 18.2212C14.8262 17.8307 14.8272 17.4411 14.8281 17.0515C14.829 16.662 14.83 16.2725 14.8275 15.882C14.8287 15.3585 14.8475 14.8335 14.8662 14.3086C14.8968 13.4538 14.9273 12.5992 14.8821 11.7515C14.8616 11.3596 14.823 10.9663 14.7844 10.573C14.7546 10.2691 14.7247 9.96523 14.7032 9.66199C14.7992 9.51749 14.8905 9.37125 14.9811 9.22618C15.4667 8.44872 15.9311 7.70505 16.9664 7.4443C17.4112 7.33532 17.8733 7.50075 18.1832 7.68197C18.539 7.8833 18.7555 8.18418 18.9761 8.57364C19.4075 9.33526 19.6174 10.4576 19.6966 11.2885C19.8072 12.3722 19.7924 13.4689 19.7777 14.5603C19.7726 14.9417 19.7674 15.3225 19.7677 15.7018C19.7655 17.4863 19.7672 19.2573 19.7874 21.0408C19.803 22.5315 19.9487 24.1095 20.7738 25.4036C21.695 26.8266 23.3388 27.249 24.9405 26.8655C25.6981 26.6854 26.3307 26.3122 26.8577 25.8194C27.096 26.678 28.4928 26.7282 28.8087 25.7888C29.0643 25.0004 29.0113 24.155 28.9468 23.35L28.9366 23.2314C28.8744 22.4942 28.8078 21.705 27.9745 21.4101C27.403 21.2141 26.7807 21.3756 26.2317 21.5647C26.0629 21.6212 25.8936 21.6723 25.7251 21.7232C25.2654 21.8618 24.8117 21.9988 24.3916 22.2387C23.9842 22.4747 23.8424 23.0982 24.2181 23.4362L24.2132 23.4275Z" fill="white"/>
</g>
</svg>
