<svg width="140" height="140" viewBox="0 0 140 140" fill="none" xmlns="http://www.w3.org/2000/svg">
<path d="M80.7781 65.2769L83.2657 61.0779L79.9992 64.6627L82.4616 60.4888L79.6474 63.5847L81.7832 59.9874L78.5168 63.5722L80.9792 59.3983L77.4991 63.2213L76.0795 58.2076L76.4312 63.0332L75.1121 58.3705L75.4136 62.5444L74.2704 58.5209L74.6221 63.3466L73.303 58.6839L73.6924 64.0234C73.6924 64.0234 73.5919 64.0861 73.5417 64.1237L68.6043 61.7046L72.4361 64.6752L68.0767 62.5444L71.3808 65.1139L67.6244 63.2714L71.4562 66.242L67.0967 64.1112L71.3682 67.4202L66.7324 70.1527L71.318 68.5859L67.1344 71.0426L71.1044 69.6889L67.4987 71.8072L72.0843 70.2404L67.9008 72.6971L72.8884 70.9925L71.4687 73.1108L73.3909 71.3434L71.9336 73.5119L73.8306 71.7571L73.1522 76.4574L74.6347 72.2584L73.994 76.658L75.2754 73.0356L74.7226 76.8334L76.2051 72.6345L75.5644 77.034L77.2856 72.1331L79.949 75.5048L78.1775 71.6944L80.7907 74.9909L79.2454 71.6693L81.5194 74.5397L79.7228 70.6917L82.3611 74.0258L80.2882 69.5761L80.3133 69.526L85.0748 69.2126L80.9415 68.4104L85.1376 68.1347L81.5696 67.4453L85.2004 67.2071L81.0671 66.4049L85.2632 66.1292L80.753 65.2518L80.7781 65.2769ZM78.7178 70.278C77.2981 71.6192 75.0618 71.5565 73.7176 70.1402C72.3733 68.7238 72.4361 66.4927 73.8558 65.1515C75.2754 63.8104 77.5117 63.873 78.856 65.2894C80.2002 66.7058 80.1374 68.9369 78.7178 70.278ZM94.0324 71.8323C94.4973 72.5593 94.2837 73.5244 93.5676 73.9882C92.8389 74.4519 91.8715 74.2388 91.4067 73.5244C90.9419 72.8099 91.1554 71.8323 91.8715 71.3685C92.6002 70.9047 93.5676 71.1178 94.0324 71.8323ZM56.0536 64.2867C55.6264 63.6098 56.1164 61.103 58.0009 60.1754C59.8351 59.3106 61.594 59.6866 62.7247 61.0152C61.3679 60.4136 59.8728 60.4011 58.4406 61.103C57.2345 61.6545 56.0536 62.8703 56.0536 64.2867ZM55.6264 75.5048C56.2295 75.4421 56.8325 75.2416 57.3602 74.7653C57.1717 75.4547 56.5059 76.0062 55.7772 76.2067C55.0485 76.4323 54.2445 76.3697 53.5284 76.0939C52.8248 75.8056 52.159 75.204 51.9454 74.4143C51.7318 73.6247 52.0082 72.8475 52.4605 72.3211C52.36 73.023 52.36 73.6748 52.6238 74.1636C52.8751 74.6525 53.3399 75.016 53.8801 75.2416C54.4204 75.4672 55.036 75.5549 55.6264 75.5173V75.5048ZM94.9872 64.1363C94.4973 64.5624 93.7686 64.8382 93.0148 64.6502C92.261 64.4621 91.6957 63.848 91.4067 63.1962C91.1303 62.5193 91.0675 61.7798 91.2685 61.0904C91.457 60.4011 91.9595 59.7743 92.6128 59.5863C92.1731 60.0877 91.9846 60.6517 91.9469 61.2158C91.9092 61.7798 91.9972 62.3564 92.2233 62.8578C92.4369 63.3591 92.7887 63.7853 93.2535 64.0234C93.7309 64.2616 94.3339 64.2616 94.9998 64.1488L94.9872 64.1363ZM139.939 112.769C138.645 105.75 129.461 103.143 124.511 100.598C119.046 97.7907 115.541 87.2118 106.734 83.3763C106.734 76.8961 112.89 71.1053 112.714 65.3019C117.928 65.6404 119.888 62.3188 119.033 58.3078C124.247 53.62 125.014 45.4352 115.44 42.1136C105.867 38.792 97.412 42.7905 97.324 51.6647C89.6353 56.0517 90.7911 52.1285 77.7127 51.4892C64.6343 50.85 53.365 57.7563 46.8196 67.7336C37.8494 66.3297 38.3645 48.8069 39.2565 36.9119C40.1485 25.0169 31.0526 8.39652 14.9088 17.7345C-1.22248 27.0725 -1.98884 51.3639 5.82553 56.1018C11.969 59.8245 19.3939 59.4359 24.1428 52.9432C24.884 51.9279 23.5146 50.7246 22.5724 51.5394C12.7102 60.1629 4.41844 53.6075 5.31043 41.9131C6.34062 28.3636 14.7957 20.0408 23.1252 20.9433C31.4547 21.8332 35.4247 31.2966 33.1256 46.2624C30.8139 61.2283 34.0176 66.3423 45.5632 76.8836C49.282 80.2051 54.5334 88.0766 57.6742 94.4691C59.408 97.54 58.315 107.317 54.5334 111.929C52.4605 114.449 51.1288 116.868 50.3373 118.547C49.8473 119.6 50.6137 120.841 51.7821 120.804C53.4027 120.766 55.0485 120.139 56.8451 119.65C59.2824 118.999 62.9257 120.829 64.6846 121.856C65.3127 122.22 66.0917 122.095 66.5816 121.556C67.147 120.929 67.0842 119.964 66.456 119.4C64.9861 118.109 62.2975 116.379 57.1592 116.015C56.7948 115.99 56.531 115.614 56.6692 115.276C60.4256 105.9 73.705 101.889 69.1445 92.2881C78.4665 99.2948 70.7024 110.513 68.2777 113.596C67.6495 114.386 67.6244 115.514 68.2777 116.291L68.3279 116.354C69.0692 117.206 70.3506 117.319 71.3557 116.793C75.1247 114.775 78.6424 115.702 80.3133 116.316C80.8033 116.492 81.3686 116.316 81.6576 115.89L81.6827 115.865C82.2606 115 81.6701 113.847 80.6274 113.797C78.9188 113.697 76.9463 113.258 75.1247 112.945C74.2578 112.794 73.8306 111.816 74.2955 111.077C81.5319 99.4953 81.9842 94.231 76.2177 86.1589C78.9062 86.0336 90.5775 84.3665 93.7184 78.864C93.7184 78.864 91.9218 84.1033 92.6253 89.6058C93.3289 95.1083 99.7362 102.905 101.018 109.999C102.023 115.539 98.9572 119.362 95.9923 121.142C95.741 121.292 95.628 121.593 95.7285 121.869C95.829 122.145 96.1054 122.308 96.3943 122.27C97.8391 122.069 99.5477 121.405 100.704 119.6C100.704 120.152 100.628 121.48 99.3844 123.398C99.2839 123.561 99.309 123.774 99.4472 123.899C99.5854 124.025 99.799 124.037 99.9497 123.912C101.357 122.796 102.236 121.368 102.563 120.039C102.689 120.666 102.714 121.48 102.437 122.483C102.4 122.621 102.462 122.771 102.601 122.847C102.739 122.909 102.89 122.872 102.99 122.759C111.232 112.055 102.111 96.9634 101.809 90.1197C104.56 95.4217 112.639 94.5944 116.873 97.8533C121.106 101.112 126.232 107.768 130.077 108.269C133.067 108.67 133.933 111.741 133.431 114.449C133.381 114.737 133.544 115.025 133.82 115.138C134.097 115.238 134.411 115.138 134.562 114.875C135.428 113.408 135.454 111.729 135.454 111.729C135.454 111.729 136.521 112.656 137.288 113.947C137.401 114.135 137.615 114.211 137.816 114.148C138.017 114.085 138.142 113.885 138.13 113.672C137.941 111.654 136.697 110.149 136.697 110.149C136.697 110.149 137.878 110.801 139.147 113.07C139.26 113.258 139.486 113.346 139.7 113.283C139.914 113.208 140.039 112.995 139.989 112.769H139.939ZM112.023 64.0234C110.34 63.1461 110.227 61.4038 110.227 61.4038C114.071 60.2757 117.111 60.9526 117.852 61.3411C116.056 64.0861 113.707 64.9008 112.023 64.0234ZM120.868 52.4544C121.131 53.5072 120.378 55.613 118.518 55.6882C118.167 55.7007 117.84 55.8887 117.639 56.1896L117.576 56.2898C117.375 56.6032 117.35 57.0043 117.526 57.3427C117.865 58.0195 118.28 59.1727 118.179 60.1629C116.42 59.1852 113.92 58.9471 110.013 60.1253C110.34 58.7841 111.759 57.7563 112.626 57.255C112.802 57.1547 112.915 56.9917 112.965 56.7912C113.016 56.6032 112.978 56.4026 112.877 56.2272C112.714 55.9514 112.387 55.8135 112.073 55.8762C109.121 56.4778 106.458 53.4571 108.053 50.5617C109.749 47.4908 114.209 48.4559 116.131 51.8778C118.091 49.0325 120.591 51.3012 120.868 52.4544ZM113.619 42.8531C114.46 43.1163 115.202 43.5926 115.88 44.1442C116.533 44.7207 117.111 45.385 117.538 46.1496C117.94 46.9017 118.305 47.7791 118.116 48.6439C117.865 47.8418 117.362 47.215 116.873 46.6009C116.357 45.9992 115.817 45.4352 115.214 44.9338C114.624 44.4199 113.983 43.9687 113.292 43.5801C112.601 43.2041 111.872 42.8907 111.068 42.5899C111.91 42.4646 112.789 42.5774 113.619 42.8531ZM107.802 43.4798C108.757 43.4422 109.711 43.6177 110.629 43.9185C111.533 44.2444 112.4 44.6957 113.116 45.36C113.832 45.9992 114.41 46.9142 114.398 47.8794C113.983 47.0396 113.33 46.463 112.626 45.9867C111.91 45.5229 111.119 45.1594 110.302 44.8837C109.485 44.5954 108.631 44.3948 107.764 44.2695C106.897 44.1567 106.018 44.1066 105.088 44.257C105.867 43.718 106.847 43.5049 107.802 43.4798ZM100.188 49.3333C100.854 48.6815 102.136 47.9671 104.41 48.2178C104.975 48.2805 105.377 48.7818 105.314 49.3459C105.251 49.9099 104.736 50.311 104.184 50.2483C103.367 50.1606 102.249 50.1731 101.621 50.7998C101.156 51.2511 100.967 52.0031 101.055 53.0435C101.131 53.9083 101.495 54.0587 101.621 54.1089C102.224 54.3596 103.279 54.0337 103.832 53.5699C104.272 53.2064 104.912 53.2565 105.277 53.6952C105.641 54.1339 105.591 54.7732 105.151 55.1367C104.41 55.7509 103.241 56.2397 102.111 56.2397C101.671 56.2397 101.244 56.1645 100.842 56.0015C100.226 55.7509 99.1834 55.0489 99.0201 53.2315C98.8316 51.1383 99.5477 49.96 100.188 49.3459V49.3333ZM52.4479 71.6819C49.2443 69.8268 52.3097 63.7728 55.6516 65.2894C52.9128 59.8871 61.0286 56.8664 63.9685 61.2032C58.0511 63.9232 53.252 71.6317 58.5788 74.7653C54.3324 80.4308 48.6789 74.1511 52.4479 71.6693V71.6819ZM59.4331 70.278C57.8878 69.7391 58.3527 67.884 59.9482 68.6736C59.1693 67.533 60.5638 66.1793 61.3679 67.721C61.4935 66.5303 63.4911 67.0442 62.7624 68.4982C64.2951 68.0971 64.7223 70.0649 63.1895 70.1527C63.1895 70.1527 64.2072 70.5162 63.6544 71.5315C63.1016 72.5342 62.2473 71.5565 62.1342 71.0552C62.3227 72.083 62.2473 72.8601 61.3302 72.7598C60.413 72.6721 60.501 71.5565 60.6643 71.2181C59.8351 72.8225 57.5989 71.1554 59.4331 70.278ZM66.5942 100.247C65.7776 102.065 64.3705 103.494 62.8378 104.609C64.1192 103.193 65.2374 101.651 65.8655 99.934C66.4937 98.2294 66.6068 96.3868 66.2424 94.5944C65.8906 92.802 65.1871 91.0723 64.3579 89.3802C63.5162 87.7006 62.5865 86.0586 61.6442 84.3916C62.9006 85.8205 64.0815 87.3497 65.0615 89.0042C66.054 90.6587 66.8455 92.4636 67.2475 94.3939C67.6244 96.3242 67.4611 98.4299 66.6068 100.235L66.5942 100.247ZM78.0142 83.1883C75.9538 83.276 73.8809 83.088 71.8582 82.712C69.823 82.3485 67.838 81.7845 65.9158 81.07C65.4761 80.9071 65.0489 80.7441 64.6217 80.5686C65.1243 81.2956 65.6017 82.0226 66.0288 82.7872C67.2223 84.9431 68.24 87.2494 68.5918 89.6685C67.6244 87.4374 66.3052 85.4319 64.8981 83.5142C64.1946 82.5616 63.4534 81.6215 62.6619 80.7566C61.8955 79.8918 61.0538 79.0269 60.1995 78.4378C59.7598 78.137 59.6592 77.5354 59.9608 77.0967C60.2372 76.6956 60.7774 76.5702 61.192 76.7958H61.2171C62.9634 77.7108 64.7851 78.4754 66.6193 79.1899C68.4536 79.8918 70.3381 80.4934 72.2351 80.9823C74.1447 81.4586 76.0795 81.8346 78.0393 82.0351C79.9992 82.2232 81.9842 82.2232 83.9567 81.7594C82.1727 82.7371 80.062 83.1256 78.0017 83.2134L78.0142 83.1883ZM82.7255 70.6666C86.7206 74.665 82.1727 81.1452 77.763 75.5549C78.165 80.4558 69.7727 79.8918 71.5692 73.5119C65.7022 76.2945 62.4986 68.7113 68.6043 67.1946C68.6043 67.1946 64.2574 66.4802 65.7022 62.0305C67.147 57.5809 71.3557 60.8648 72.1597 62.7951C70.6144 58.7967 70.338 55.6506 74.0819 55.3247C77.8258 54.9988 78.3283 59.5362 77.9263 61.0027C80.0369 53.9334 90.2509 58.922 83.5672 63.8229C90.1629 64.788 89.7107 72.6094 82.7255 70.6666ZM92.6002 77.4852C91.1931 77.3473 91.3188 75.6301 91.5826 75.1162C90.3011 77.5855 86.8839 75.016 89.6981 73.6748C87.3362 72.8601 88.0397 70.0023 90.4896 71.2056C89.2961 69.4508 91.4318 67.3701 92.663 69.7516C92.864 67.9091 95.9169 68.7113 94.8114 70.9423C97.1733 70.3282 97.8265 73.3489 95.4646 73.4868C95.4646 73.4868 97.0225 74.0508 96.1808 75.5925C95.339 77.1343 94.0073 75.6301 93.844 74.853C94.1329 76.4449 94.0199 77.6231 92.6128 77.4852H92.6002ZM96.2813 95.0331C95.5023 93.5541 94.937 91.9247 94.6857 90.2451C94.1958 86.8608 94.8867 83.5016 95.9923 80.4057C95.6782 83.6897 95.2134 86.9486 95.7033 90.0947C95.9295 91.674 96.4069 93.2031 97.0099 94.6947C97.6381 96.1863 98.3542 97.6653 99.0703 99.1569C98.0276 97.8659 97.0602 96.5122 96.2938 95.0331H96.2813ZM95.4144 64.8883C93.0022 67.1319 88.6679 62.8327 90.8665 60.3509C86.9467 59.3106 89.9745 52.3541 95.2134 55.9765C91.57 60.1629 97.8517 65.3646 103.668 66.0039C102.4 70.5412 94.6229 70.253 95.4144 64.8883ZM100.942 86.8608C98.5678 80.2051 103.568 77.5855 104.912 74.3266C106.257 71.0677 105.616 67.8715 104.272 66.2671C108.443 69.2126 107.538 73.562 105.164 77.0716C102.789 80.5937 100.616 81.421 100.93 86.8483L100.942 86.8608ZM102.663 66.5052C102.085 67.9592 100.691 68.7739 98.8819 68.5608C97.0099 68.3102 95.8792 66.3047 96.0551 65.6153C96.4571 66.8186 97.814 67.5205 98.9949 67.6458C100.415 67.8339 101.683 67.4077 102.676 66.5052H102.663ZM92.4871 56.177C91.9595 56.3024 91.4695 56.553 91.0675 56.904C90.6655 57.2424 90.3765 57.6811 90.3011 58.17C90.2258 58.6713 90.4016 59.2228 90.6906 59.7869C90.1629 59.4735 89.6855 58.8844 89.6478 58.1449C89.5976 57.4054 89.9996 56.716 90.5147 56.2648C91.0424 55.8135 91.7082 55.5378 92.3992 55.5252C93.0776 55.5002 93.7937 55.7634 94.1581 56.3024C93.5676 56.0517 93.0022 56.0391 92.4746 56.1645L92.4871 56.177ZM52.6238 70.7418C52.1715 70.09 51.9705 69.2753 52.0333 68.4606C52.0961 67.6584 52.4856 66.8186 53.2143 66.3548C53.9304 65.891 54.8098 65.9286 55.4757 66.2044C54.747 66.3172 54.0937 66.5303 53.6791 66.9565C53.2645 67.3701 53.051 67.9341 53.0007 68.5483C52.9379 69.15 53.051 69.7892 53.2897 70.3783C53.5409 70.9549 53.9304 71.4938 54.5711 71.8699C53.8173 71.8949 53.0635 71.4061 52.6238 70.7543V70.7418ZM113.141 52.7552C113.141 53.6326 112.425 54.3345 111.558 54.3345C110.691 54.3345 109.975 53.62 109.975 52.7552C109.975 51.8903 110.691 51.1759 111.558 51.1759C112.425 51.1759 113.141 51.8903 113.141 52.7552ZM116.885 53.3443C116.885 52.5797 117.501 51.9655 118.267 51.9655C119.033 51.9655 119.649 52.5797 119.649 53.3443C119.649 54.1089 119.033 54.723 118.267 54.723C117.501 54.723 116.885 54.1089 116.885 53.3443Z" fill="#FFDA8B"/>
</svg>
