<svg width="140" height="140" viewBox="0 0 140 140" fill="none" xmlns="http://www.w3.org/2000/svg">
<path d="M53.1214 61.2001V61.1623L56.1101 59.9652L53.2972 60.318L55.9217 59.2596L53.4981 59.562L55.771 58.6421L52.9581 58.9949L55.5827 57.9365L52.5186 58.3145L53.2344 55.0887L51.9033 58.0751L52.6065 54.8745L51.4512 57.4576L52.0665 54.6981L50.7354 57.6845L51.4386 54.4839L50.0196 57.6719L48.0606 54.7485L49.2912 57.7853L47.4704 55.0635L48.5378 57.6845L46.968 55.3407L48.1987 58.3775L46.3778 55.6557L47.7466 59.0075C47.7466 59.0075 47.6964 59.0705 47.6713 59.1083L44.0044 58.5791L47.0811 59.688L43.8537 59.2217L46.5034 60.1794L43.7156 59.7762L46.7922 60.885L43.5649 60.4188L46.9932 61.6537L44.5946 64.3755L47.2066 62.4097L45.0467 64.8669L47.2946 63.1658L45.436 65.2827L48.048 63.317L45.8881 65.7741L48.7136 63.632L48.2489 65.2953L49.1029 63.758L48.6257 65.4591L49.4796 63.9344L50.0321 67.0972L50.0949 64.0856L50.6098 67.0468L50.6726 64.4511L51.1121 67.009L51.1749 63.9974L51.6898 66.9586L51.7651 63.443L54.1762 65.0559L52.2423 62.9768L54.6032 64.5519L52.9204 62.7374L54.9799 64.1108L53.0335 62.0065L55.4194 63.5942L53.159 61.1749L53.1214 61.2001ZM52.2549 61.9561C51.627 63.1154 50.1828 63.5438 49.0275 62.9138C47.8722 62.2837 47.4452 60.8346 48.0731 59.6754C48.701 58.5161 50.1452 58.0877 51.3005 58.7177C52.4558 59.3478 52.8828 60.7968 52.2549 61.9561ZM91.9876 65.2449L94.3611 61.2127L91.2467 64.6527L93.6076 60.6456L90.9202 63.6194L92.9546 60.1668L89.8403 63.6068L92.2011 59.5998L88.8859 63.2666L87.5296 58.4531L87.8687 63.0902L86.6004 58.6169L86.8892 62.624L85.7967 58.7555L86.1357 63.3926L84.8674 58.9193L85.2441 64.0478C85.2441 64.0478 85.1437 64.1108 85.106 64.1486L80.3843 61.8175L84.0386 64.6653L79.882 62.6114L83.0465 65.0811L79.455 63.3044L83.1093 66.1522L78.9527 64.0982L83.034 67.2736L78.6011 69.8946L82.9837 68.3951L78.9904 70.764L82.7828 69.4662L79.3294 71.5075L83.7121 70.008L79.7187 72.3769L84.4781 70.7388L83.1219 72.7676L84.9553 71.0665L83.5614 73.1456L85.3823 71.4697L84.7293 75.9808L86.1357 71.9485L85.5204 76.1824L86.7385 72.7046L86.2111 76.3588L87.6175 72.3265L87.0022 76.5604L88.6473 71.8603L91.1965 75.0987L89.5012 71.4319L92.0002 74.5947L90.5184 71.4067L92.6909 74.1663L90.9705 70.4742L93.4946 73.6748L91.5104 69.4032L91.5356 69.3528L96.094 69.0503L92.1509 68.2817L96.1694 68.0171L92.7537 67.3492L96.2196 67.1224L92.2765 66.3538L96.2949 66.0892L91.9876 65.2449ZM90.0161 70.0458C88.6598 71.3311 86.5125 71.2807 85.2316 69.9198C83.9507 68.5589 84.0009 66.4042 85.3571 65.1189C86.7134 63.8336 88.8608 63.884 90.1417 65.2449C91.4225 66.6058 91.3723 68.7605 90.0161 70.0458ZM73.8542 59.247L71.2799 60.4944L73.5403 58.7555L70.5641 60.192L73.1887 58.1759L70.0241 59.7132L70.4134 56.1724L69.3962 59.3226L69.7478 56.0338L68.8688 58.7555L69.1827 55.9077L68.1656 59.0579L68.5172 55.7691L67.3995 59.2596C67.3995 59.2596 67.3242 59.2722 67.274 59.2848L64.775 56.4748L66.4326 59.3352L64.235 56.8654L65.6666 59.3352L63.7703 57.2056L65.428 60.066L63.2304 57.5963L65.0763 60.7842L61.4472 61.3261L64.7373 61.5151L61.4723 62.0065L64.3229 62.1703L61.4974 62.5987L64.7875 62.7878L61.5225 63.2792L65.1015 63.4808L63.6573 64.4637L65.3149 63.8336L63.8457 64.8291L65.4908 64.2117L63.8582 67.0216L65.8675 64.7409L64.3354 67.3744L66.0684 65.4087L64.7498 67.6769L66.7591 65.3961L65.227 68.0297L67.5628 65.3709L68.379 68.1935L68.2409 65.3205L69.0446 68.0801L68.919 65.5725L69.6223 67.9793L69.4716 65.0811L70.2878 67.8659L70.112 64.5141L70.1371 64.4889L73.2263 65.5095L70.8278 63.947L73.5528 64.8417L71.4808 63.4934L73.8291 64.2747L71.4306 62.7122L74.1556 63.6068L71.531 61.8931L74.1807 59.8644L71.2045 61.3009L73.8291 59.2848L73.8542 59.247ZM68.9818 64.4889C67.7386 64.9803 66.3447 64.3629 65.8549 63.1154C65.3652 61.8679 65.9805 60.4692 67.2237 59.9778C68.4669 59.4864 69.8609 60.1038 70.3506 61.3513C70.8404 62.5988 70.225 63.9974 68.9818 64.4889ZM129.937 88.8209C127.727 88.9848 122.177 85.5447 122.264 79.068C122.352 72.5912 128.066 68.5841 127.815 62.5987C127.564 56.6134 123.646 58.0877 119.652 56.2858C115.646 54.4839 110.837 48.9143 94.7503 51.0439C78.6639 53.1734 74.1179 47.9063 68.7307 47.1754C70.2627 45.6381 71.4808 43.181 72.2971 40.56C74.4193 40.3206 78.5885 39.3251 79.568 35.8851C77.1192 38.0147 75.0974 37.5862 72.5859 37.1578C70.9534 18.0298 49.5298 18.5591 40.2245 27.0772C36.3819 19.5797 26.7124 18.9245 25.0422 25.6407C23.372 32.3569 28.2695 38.5061 25.4064 42.5509C21.0363 38.5313 15.7369 38.4935 13.6523 39.8922C11.5677 41.2909 7.28551 39.5268 5 38.0903C7.28551 41.3665 11.2412 42.8408 16.189 42.0595C21.1242 41.2783 22.1037 45.8649 24.3515 46.6084C26.5994 47.3392 26.5994 46.81 27.4156 44.6427C28.2319 46.4068 25.984 47.7551 26.8003 50.1366C27.2649 51.4975 31.0071 53.5388 35.9047 51.6487C39.9106 55.0131 36.1433 62.0569 38.1902 65.4087C40.2371 68.7731 44.8081 68.1935 46.516 73.8512C48.2364 79.509 53.4604 80.5674 53.4604 80.5674C53.4604 80.5674 55.9971 86.0614 55.2562 89.01C54.5153 91.9585 54.1134 93.7604 55.8213 99.4938C56.8761 107.029 50.5972 111.376 48.8768 111.943C47.1564 112.51 47.4829 114.161 47.5708 115.711C47.6587 117.273 52.0665 116.946 54.0255 116.53C55.9845 116.127 54.6785 111.78 56.2357 111.855C57.7928 111.943 58.7724 111.616 59.3375 109.31C59.9151 107.016 61.0579 105.215 61.5476 95.3859C64.574 108.163 60.5681 112.586 58.9356 113.241C57.3031 113.896 57.9561 114.476 57.9561 117.992C66.3698 118.156 65.227 115.862 65.5535 113.644C65.88 111.427 67.1107 112.334 68.2535 112.082C69.3962 111.843 69.233 106.021 67.274 95.1213C72.2594 90.6102 71.9329 84.4737 72.0961 82.4198C72.2594 80.3658 78.2997 79.2192 78.2997 79.2192C78.2997 79.2192 81.4014 80.1138 90.3049 82.4954C99.2084 84.8769 102.147 81.5125 102.147 81.5125C102.147 81.5125 103.867 88.3169 110.724 90.8497C112.356 98.3849 107.296 105.756 103.541 108.05C99.786 110.343 100.113 110.759 100.188 115.182C108.35 115.509 107.044 109.524 107.044 109.524C107.044 109.524 108.84 110.507 111.289 109.272C114.805 105.744 115.044 97.3895 119.376 90.9253C119.539 93.9621 122.804 95.764 122.804 95.764C122.804 95.764 123.872 101.749 123.947 104.37C124.023 106.991 121.662 110.683 120.104 111.666C118.56 112.649 119.125 112.977 119.213 115.925C122.478 116.177 125.831 115.194 126.484 113.304C127.137 111.414 127.463 110.847 129.096 110.028C131.218 105.605 128.845 100.199 128.116 96.6712C127.375 93.143 130 94.1259 130 88.8083L129.937 88.8209ZM114.943 65.4339C114.202 64.3377 115.521 63.0398 116.299 64.5267C116.425 63.38 118.321 63.8714 117.631 65.2701C119.1 64.8795 119.502 66.7696 118.032 66.8578C118.032 66.8578 118.999 67.2106 118.472 68.1809C117.945 69.1511 117.128 68.2061 117.015 67.7273C117.191 68.7227 117.128 69.4536 116.249 69.3654C115.37 69.2772 115.458 68.2061 115.609 67.8785C114.818 69.4158 112.683 67.8155 114.441 66.9838C112.972 66.4672 113.411 64.6905 114.931 65.4465L114.943 65.4339ZM98.1284 55.1139C97.3875 54.0176 98.706 52.7198 99.4846 54.2066C99.6102 53.06 101.506 53.5514 100.816 54.9501C102.285 54.5595 102.687 56.4496 101.218 56.5378C101.218 56.5378 102.185 56.8906 101.657 57.8609C101.13 58.8311 100.313 57.8861 100.2 57.4072C100.376 58.4027 100.313 59.1335 99.4344 59.0453C98.5553 58.9571 98.6433 57.8861 98.794 57.5584C98.0028 59.0957 95.868 57.4954 97.6261 56.6638C96.1568 56.1472 96.5963 54.3705 98.1158 55.1265L98.1284 55.1139ZM46.2774 25.3635C47.8094 24.5444 49.4922 23.9648 51.2377 23.801C52.9958 23.6498 54.7288 23.927 56.3989 24.1916C58.0817 24.4688 59.7393 24.8217 61.3969 25.3635C63.0545 25.8927 64.6368 26.7622 65.9554 27.9593C67.2991 29.1311 68.4418 30.5802 69.2079 32.2183C70.7399 35.5197 70.5892 39.4764 68.9818 42.5131L68.7934 42.4627C68.9693 40.7742 68.9693 39.1361 68.7307 37.561C68.4795 35.9985 68.0274 34.499 67.3116 33.1256C66.6335 31.7395 65.7545 30.4542 64.6745 29.3201C63.582 28.1987 62.3388 27.1906 60.9448 26.3464C59.5509 25.5147 57.9561 24.9603 56.311 24.8217C54.666 24.6705 53.0335 25.0359 51.4888 25.4139C49.9317 25.7793 48.3996 26.1825 46.8801 26.7496C45.3607 27.304 43.8788 27.9845 42.3217 28.6775L42.2087 28.5263C43.3389 27.2284 44.7453 26.1825 46.2774 25.3635ZM58.0314 33.4406C63.9713 35.1669 65.1391 41.001 61.3341 45.8523C59.4379 44.9955 58.5212 42.9668 58.584 42.7778C58.6468 42.5887 60.1788 40.875 62.6276 40.5096C63.0043 38.7959 61.9369 37.3594 61.6481 36.7672C58.7096 37.0066 57.1147 39.5898 55.3441 39.8418C54.0632 38.9849 53.0837 38.4305 53.0837 38.4305C53.0837 38.4305 58.9607 37.2586 58.044 33.4532L58.0314 33.4406ZM54.1888 41.5933C54.3395 41.3665 54.7036 41.5429 54.6032 41.8075C53.9753 43.5842 53.3851 46.4194 57.1398 49.8342C59.5133 51.9889 63.3183 52.0393 66.0559 50.6784C66.2693 50.565 66.4828 50.8674 66.307 51.0313C64.7498 52.5307 61.309 54.8871 57.2277 52.4047C52.3051 49.4184 52.2172 44.5167 54.1888 41.5807V41.5933ZM63.9838 32.9996C62.5271 31.5757 60.6435 30.6558 58.6468 30.2274C56.6501 29.7738 54.5529 29.7738 52.5186 30.1014C51.5014 30.2652 50.4968 30.5424 49.5298 30.9456C48.5629 31.3237 47.6587 31.8655 46.9178 32.6467C47.4829 31.7269 48.3871 31.0464 49.3164 30.5172C50.2707 30.0006 51.3005 29.6352 52.3553 29.3705C54.465 28.8539 56.7003 28.8161 58.8477 29.2823C60.9825 29.7612 63.0671 30.807 64.5238 32.4955C65.2396 33.3272 65.8298 34.2848 66.2065 35.3055C66.5582 36.3388 66.7842 37.3972 66.8344 38.4683C66.3196 36.4018 65.4531 34.436 63.9713 33.0122L63.9838 32.9996ZM39.6594 28.9547C39.8227 35.2677 49.0903 36.6916 49.0903 36.6916C49.0903 36.6916 49.3289 33.3272 53.8623 34.1462C51.4135 34.436 50.1075 37.4224 50.9614 38.3675C45.7751 38.7329 36.7586 34.1084 39.6594 28.9421V28.9547ZM30.3541 23.5238C31.5094 23.2592 32.7275 23.4356 33.8075 23.864C34.8875 24.305 35.8544 25.0233 36.5702 25.9305C37.2986 26.8252 37.7758 27.9214 37.8511 29.0429C37.3865 28.0349 36.7586 27.1654 36.0051 26.4472C35.2517 25.7415 34.3852 25.1619 33.4308 24.7839C32.4889 24.3932 31.4718 24.2168 30.4671 24.2924C29.45 24.368 28.4579 24.7713 27.5663 25.4391C28.1565 24.494 29.1863 23.7758 30.3416 23.5364L30.3541 23.5238ZM32.8782 32.2309C32.6396 30.8826 32.2127 29.7486 31.4467 28.8413C31.0699 28.3877 30.6178 28.0097 30.103 27.7324C29.5881 27.4552 28.9979 27.304 28.3072 27.3292C28.8598 26.9134 29.6634 26.8126 30.3792 27.0142C31.095 27.2032 31.7229 27.6568 32.2001 28.2113C33.142 29.3327 33.4433 30.9708 32.8782 32.2309ZM31.9615 47.629C31.3085 47.9315 30.756 48.2087 30.329 48.4481C29.3997 48.9521 28.2193 48.2969 28.2319 47.2384C28.2319 46.9738 28.2695 46.684 28.3449 46.3564C29.6258 45.6255 30.7936 45.7137 31.9992 46.306C32.5517 46.5832 32.5392 47.377 31.9741 47.6416L31.9615 47.629ZM27.9682 39.0353C28.8849 37.1956 30.2913 38.1155 30.6053 40.938C29.0732 41.4925 28.1565 40.812 27.9682 39.0353ZM30.442 35.9229C30.442 34.0328 29.4625 31.5001 27.177 30.1014C29.6258 30.4668 31.5094 33.2516 31.6727 34.121C33.2675 34.0832 36.4446 33.1382 37.4241 31.7395C37.4241 31.7395 37.6251 32.8862 38.0772 33.3776C35.7037 35.5071 31.2583 35.8347 30.442 35.9229ZM35.9926 41.4295C36.1809 38.9093 38.6297 38.7203 39.7222 40.0182C39.5339 41.4925 37.0223 42.2359 35.9926 41.4295ZM38.5041 50.6406C39.2827 50.3634 40.0362 50.187 40.7645 49.935C41.4929 49.683 42.1961 49.431 42.8114 49.0529C43.4393 48.6875 43.9542 48.2213 44.3058 47.6164C44.6449 46.999 44.7956 46.243 44.8583 45.4239C45.1974 46.1674 45.2853 47.062 45.009 47.9189C44.7202 48.7757 44.0421 49.4562 43.3137 49.8972C41.7943 50.7414 40.099 50.8926 38.5041 50.6406ZM52.7446 65.5473C54.0255 68.6093 48.5378 70.008 48.3494 65.5221C45.1848 68.5337 41.5431 64.3377 45.1221 62.0821C45.1221 62.0821 42.1961 62.5358 42.1835 59.373C42.1835 56.2102 45.5616 57.4324 46.4783 58.5161C44.6574 56.2606 43.8161 54.3075 46.1392 53.312C48.4624 52.3165 49.7433 55.1265 49.7935 56.1598C49.668 51.1699 57.2403 52.2409 54.0004 56.7898C58.4207 56.0338 59.7644 61.1497 54.892 61.3639C58.2826 63.1028 56.738 68.2187 52.7446 65.5473ZM58.6091 82.5584C58.3956 81.2101 58.2324 79.824 58.3956 78.4253C58.5338 77.0392 59.1365 75.6153 60.2416 74.7837C59.4379 75.8926 59.1868 77.1904 59.1616 78.4757C59.1616 79.7736 59.35 81.0841 59.576 82.3819C60.0281 85.0029 60.6435 87.6491 60.7314 90.3834C59.89 87.8003 59.0989 85.2423 58.6091 82.5584ZM61.0202 71.2933C60.4928 72.2635 59.664 71.3185 59.5635 70.8396C59.7393 71.8351 59.6765 72.566 58.7975 72.4777C57.9184 72.3895 58.0063 71.3185 58.157 70.9909C57.3659 72.5282 55.2311 70.9279 56.9892 70.0962C55.5199 69.5796 55.9594 67.8029 57.4789 68.5463C56.738 67.45 58.0566 66.1522 58.8351 67.6391C58.9607 66.4924 60.8569 66.9838 60.1663 68.3825C61.6355 67.9919 62.0374 69.882 60.5681 69.9702C60.5681 69.9702 61.5351 70.323 61.0076 71.2933H61.0202ZM69.2204 84.4863C68.919 85.2675 68.266 85.885 67.5628 86.1496C66.8596 86.4394 66.1438 86.5024 65.4656 86.4646C64.7875 86.4142 64.1094 86.263 63.4815 85.9102C63.1801 85.7338 62.8787 85.4943 62.6401 85.2171C62.4141 84.9525 62.1881 84.6753 62.0248 84.3477C61.6732 83.7176 61.4346 82.9742 61.4597 82.1929C61.4848 81.4117 61.7611 80.6178 62.2509 79.9752C62.7406 79.32 63.4062 78.8411 64.1094 78.5387C64.5238 78.3623 64.6619 78.2867 64.8754 78.1859C64.9759 78.1229 65.0638 78.0599 65.1643 77.9969C65.2522 77.9339 65.3401 77.8457 65.4405 77.7701C66.1438 77.1526 66.6461 76.1824 66.5079 75.2877C66.4326 74.8341 66.1814 74.4057 65.767 74.0402C65.3652 73.6496 64.8001 73.3976 64.2099 73.1204C64.1847 73.1078 64.1471 73.07 64.1471 73.0322C64.1471 72.9818 64.1847 72.9314 64.235 72.9314C64.888 72.8936 65.5912 72.9062 66.2693 73.2212C66.9349 73.4984 67.6005 74.0528 67.927 74.8341C68.2535 75.6027 68.2535 76.4722 68.0274 77.2408C67.8139 78.0095 67.387 78.7151 66.8093 79.2696C66.6586 79.4082 66.5079 79.5342 66.3447 79.6602C66.1689 79.7736 66.0056 79.8744 65.8298 79.9752C65.4782 80.1516 65.0261 80.3154 64.8503 80.3658C64.3731 80.5296 63.9587 80.7817 63.6322 81.1093C62.9918 81.7645 62.7155 82.8482 62.9792 83.9444C63.042 84.2217 63.1425 84.4863 63.2931 84.7383C63.4313 84.9903 63.6071 85.1793 63.8331 85.3557C64.2852 85.696 64.888 85.8598 65.4782 85.8346C66.0684 85.8094 66.6335 85.5825 67.0354 85.2297C67.4372 84.8769 67.6507 84.4359 67.7135 83.9949C67.7763 83.5538 67.7386 83.0246 67.6507 82.6088C67.5879 82.4072 67.5251 82.2433 67.4246 82.1677C67.3493 82.0417 67.2237 82.0165 67.0605 81.9661C66.7089 81.9157 66.194 82.0543 65.8298 82.3694C65.4782 82.6844 65.2396 83.1758 65.3903 83.8184C65.3903 83.8184 65.3903 83.9066 65.3526 83.9318C65.3149 83.957 65.2522 83.957 65.227 83.9066C65.1266 83.768 65.001 83.6294 64.9131 83.4656C64.8629 83.2892 64.7498 83.1128 64.7624 82.9112C64.7122 82.508 64.8378 82.1047 65.0261 81.7519C65.1266 81.5755 65.2522 81.4243 65.3903 81.2731C65.541 81.1345 65.6791 80.9959 65.8675 80.8951C66.2065 80.6556 66.6335 80.5296 67.0856 80.4918C67.5377 80.4918 68.0777 80.6052 68.4669 80.9455C68.8688 81.2605 69.1074 81.6889 69.2455 82.0921C69.4967 82.886 69.4967 83.6798 69.2079 84.4737L69.2204 84.4863ZM74.7835 74.0654C74.7835 74.0654 75.7504 74.4183 75.223 75.3885C74.6956 76.3588 73.8793 75.4137 73.7663 74.9349C73.9421 75.9304 73.8793 76.6612 73.0003 76.573C72.1213 76.4848 72.2092 75.4137 72.3599 75.0987C71.5687 76.636 69.4339 75.0357 71.192 74.2041C69.7227 73.6874 70.1622 71.9107 71.6817 72.6668C70.9408 71.5705 72.2594 70.2726 73.038 71.7595C73.1636 70.6128 75.0598 71.1043 74.3691 72.503C75.8384 72.1123 76.2402 74.0024 74.7709 74.0906L74.7835 74.0654ZM71.418 65.7615C72.9124 69.3276 68.3916 72.2635 67.0354 67.5887C66.0307 70.7892 60.8821 68.2943 63.6573 64.7031C59.2495 64.9677 59.1742 59.3352 63.4062 59.94C63.4062 59.94 60.8444 58.3775 62.8913 55.9203C64.9382 53.4632 66.7591 56.626 66.7716 58.0625C66.8219 55.1265 67.4498 53.06 69.8985 53.816C72.3473 54.5721 71.5059 57.571 70.8655 58.4027C74.0049 54.4587 79.1787 60.2424 73.7035 61.6411C77.609 63.947 75.336 68.7857 71.418 65.7615ZM76.9058 56.0086C75.4365 55.4919 75.876 53.7152 77.3955 54.4713C76.6546 53.375 77.9732 52.0771 78.7518 53.564C78.8773 52.4173 80.7736 52.9088 80.0829 54.3075C81.5521 53.9168 81.954 55.8069 80.4847 55.8951C80.4847 55.8951 81.4517 56.248 80.9242 57.2182C80.3968 58.1885 79.5806 57.2434 79.4675 56.7646C79.6434 57.7601 79.5806 58.4909 78.7015 58.4027C77.8225 58.3145 77.9104 57.2434 78.0611 56.9284C77.2699 58.4657 75.1351 56.8654 76.8932 56.0338L76.9058 56.0086ZM93.8336 70.4112C97.6512 74.2545 93.3062 80.4792 89.0868 75.0987C89.4635 79.7988 81.4517 79.2696 83.1721 73.133C77.5713 75.8044 74.5072 68.5211 80.334 67.0594C80.334 67.0594 76.1774 66.379 77.5588 62.0947C78.9401 57.8105 82.9586 60.9733 83.7372 62.8382C82.2554 58.9949 81.9917 55.9708 85.5706 55.6557C89.1496 55.3407 89.6268 59.7006 89.25 61.1119C91.2718 54.3201 101.029 59.1209 94.6499 63.8336C100.941 64.7661 100.527 72.2761 93.8462 70.4112H93.8336ZM103.189 74.0654C103.189 74.0654 104.156 74.4183 103.629 75.3885C103.101 76.3588 102.285 75.4137 102.172 74.9349C102.348 75.9304 102.285 76.6612 101.406 76.573C100.527 76.4848 100.615 75.4137 100.766 75.0987C99.9744 76.636 97.8396 75.0357 99.5976 74.2041C98.1284 73.6874 98.5679 71.9107 100.087 72.6668C99.3465 71.5705 100.665 70.2726 101.444 71.7595C101.569 70.6128 103.465 71.1043 102.775 72.503C104.244 72.1123 104.646 74.0024 103.177 74.0906L103.189 74.0654ZM104.847 67.3492C102.385 69.693 99.56 66.4294 102.348 64.6779C102.348 64.6779 100.075 65.0307 100.062 62.5736C100.062 60.1164 102.687 61.0741 103.403 61.9057C101.984 60.1542 101.331 58.6295 103.139 57.8609C104.947 57.0922 105.939 59.2722 105.977 60.0786C105.877 56.1976 111.766 57.0292 109.242 60.57C112.67 59.9778 113.725 63.9596 109.933 64.1234C112.57 65.4717 111.364 69.4536 108.263 67.3744C109.255 69.756 104.997 70.8397 104.847 67.3618V67.3492ZM107.986 75.1239C105.726 74.3427 106.404 71.5957 108.74 72.755C107.597 71.0665 109.631 69.0755 110.824 71.3563C111.013 69.5922 113.939 70.3482 112.871 72.503C115.132 71.9107 115.747 74.8215 113.499 74.9475C113.499 74.9475 114.981 75.4893 114.177 76.9762C113.374 78.4631 112.105 77.014 111.942 76.2706C112.218 77.7953 112.105 78.9293 110.762 78.7907C109.418 78.6521 109.543 77.014 109.782 76.51C108.564 78.8789 105.286 76.4218 107.974 75.1239H107.986ZM114.604 88.6697C113.474 88.1783 112.494 87.3971 111.666 86.5024C110.021 84.6879 108.966 82.4198 108.614 80.0634C109.707 82.1677 110.849 84.1713 112.381 85.8346C113.901 87.4979 115.797 88.8083 118.158 89.1486C116.99 89.388 115.722 89.1738 114.604 88.6697ZM120.28 84.1965C119.954 84.8769 119.313 85.3683 118.673 85.5699C118.02 85.7842 117.379 85.7716 116.777 85.696C116.174 85.6077 115.571 85.4187 115.044 85.0533C114.793 84.8769 114.541 84.6375 114.34 84.3729C114.152 84.1209 113.976 83.8436 113.851 83.5538C113.587 82.9616 113.424 82.2811 113.499 81.5881C113.574 80.8951 113.888 80.202 114.378 79.6602C114.855 79.1058 115.496 78.7277 116.149 78.5009C116.538 78.3749 116.664 78.3245 116.865 78.2489C116.952 78.1985 117.053 78.1481 117.141 78.1103C117.229 78.0599 117.304 77.9843 117.405 77.9339C118.083 77.4299 118.598 76.6108 118.547 75.7918C118.51 75.3885 118.321 74.9853 117.97 74.6199C117.643 74.2419 117.153 73.9772 116.639 73.6748C116.613 73.6622 116.588 73.6244 116.588 73.5992C116.588 73.5488 116.626 73.511 116.676 73.511C117.266 73.5236 117.894 73.5866 118.472 73.9142C119.05 74.2041 119.602 74.7585 119.828 75.4767C120.067 76.195 119.991 76.9762 119.74 77.6441C119.489 78.3245 119.05 78.9167 118.497 79.3704C118.359 79.4838 118.208 79.5846 118.058 79.6854C117.894 79.7736 117.731 79.8618 117.568 79.9374C117.241 80.0634 116.814 80.1768 116.651 80.2146C116.212 80.328 115.822 80.517 115.508 80.7943C114.893 81.3361 114.554 82.2811 114.717 83.2892C114.755 83.5412 114.83 83.7932 114.943 84.02C115.044 84.2595 115.182 84.4359 115.383 84.6123C115.759 84.9525 116.287 85.1415 116.814 85.1667C117.342 85.1919 117.869 85.0281 118.258 84.7509C118.648 84.4611 118.874 84.0831 118.962 83.6924C119.05 83.3018 119.062 82.823 119.012 82.445C118.974 82.2685 118.924 82.1173 118.849 82.0291C118.798 81.9157 118.673 81.8779 118.535 81.8149C118.221 81.7393 117.756 81.8275 117.405 82.0921C117.065 82.3441 116.814 82.7726 116.902 83.3522C116.902 83.3522 116.902 83.4278 116.865 83.453C116.827 83.4782 116.777 83.453 116.752 83.4278C116.676 83.3018 116.563 83.1632 116.513 83.012C116.475 82.8608 116.4 82.6844 116.425 82.508C116.412 82.1425 116.551 81.7897 116.752 81.4873C116.852 81.3361 116.978 81.2101 117.116 81.0841C117.254 80.9707 117.405 80.8573 117.568 80.7817C117.882 80.5926 118.271 80.5044 118.685 80.5044C119.1 80.5422 119.564 80.6808 119.891 81.0211C120.23 81.3361 120.406 81.7393 120.506 82.1047C120.67 82.8356 120.619 83.5412 120.305 84.2343L120.28 84.1965ZM106.982 68.5085L107.032 66.1774L107.434 68.4833L107.496 65.7489L109.368 66.9964L107.861 65.3835L109.694 66.6058L108.388 65.1945L109.983 66.2656L108.463 64.6401L110.309 65.875L108.551 63.9848V63.9596L110.875 63.0272L108.689 63.3044L110.736 62.4853L108.853 62.7248L110.623 62.0191L108.438 62.2963L110.485 61.4773L108.099 61.7797L108.652 59.2722L107.609 61.5907L108.162 59.1083L107.27 61.1119L107.748 58.9697L106.705 61.2883L107.258 58.8059L106.153 61.2757L104.633 59.0075L105.588 61.3639L104.169 59.247L104.997 61.2757L103.779 59.4486L104.734 61.8049L103.315 59.688L104.382 62.2963C104.382 62.2963 104.344 62.3467 104.319 62.3719L101.469 61.9687L103.855 62.8256L101.343 62.4727L103.403 63.2162L101.23 62.9012L103.616 63.758L101.105 63.4052L103.767 64.3629L101.908 66.4798L103.93 64.9551L102.247 66.8704L103.993 65.5473L102.549 67.198L104.571 65.6733L102.888 67.5887L105.085 65.9254L104.721 67.2106L105.387 66.0136L105.01 67.3366L105.676 66.1522L106.103 68.6093L106.153 66.2656L106.555 68.5715L106.605 66.5554L106.944 68.5463L106.982 68.5085ZM105.387 65.3205C104.483 64.8291 104.156 63.7076 104.646 62.8004C105.136 61.8931 106.253 61.5655 107.157 62.0569C108.062 62.5484 108.388 63.6698 107.898 64.5771C107.409 65.4843 106.291 65.8119 105.387 65.3205ZM109.644 74.9853C109.204 74.2923 109.405 73.3598 110.096 72.9188C110.787 72.4778 111.716 72.6794 112.155 73.3724C112.595 74.0654 112.394 74.9979 111.703 75.4389C111.013 75.88 110.083 75.6783 109.644 74.9853Z" fill="white"/>
</svg>
