<svg width="140" height="140" viewBox="0 0 140 140" fill="none" xmlns="http://www.w3.org/2000/svg">
<path d="M33.6393 75.4761C34.0061 76.0565 33.8417 76.8136 33.2726 77.1795C32.6908 77.5454 31.932 77.3814 31.5652 76.8009C31.1984 76.2205 31.3628 75.4635 31.932 75.0976C32.5137 74.7316 33.2726 74.8957 33.6393 75.4635V75.4761ZM126.432 93.4437C126.634 97.3678 121.487 98.4529 118.236 96.6234C114.986 94.7938 111.116 97.5697 109.7 102.844C108.27 108.118 99.3288 116.433 91.6014 119.613C97.2294 115.828 97.495 111.702 96.0026 110.894C94.5103 110.086 92.1452 111.638 90.7793 115.222C89.4261 118.805 81.9642 120.357 78.4483 119.285C72.2765 122.666 62.1082 120.433 57.7702 117.051C53.4322 113.67 47.8801 113.203 47.8801 113.203C47.8801 113.203 54.5957 118.957 54.1784 123.285C59.4649 121.19 63.6638 123.083 65.7 125.985C61.8426 124.155 57.4287 124.837 56.0754 126.187C62.4496 130.111 59.1993 134.577 56.8849 135.789C57.6943 133.152 57.3655 129.707 54.444 128.685C55.2534 130.981 53.3563 136.861 48.0065 137C51.0545 134.502 51.6616 129.833 50.5866 128.079C49.4357 132.066 44.6171 133.353 40.355 130.451C46.1221 130.653 49.5748 126.124 48.5504 122.805C47.5386 119.487 41.1644 120.711 38.9891 116.521C36.8264 112.332 34.9167 108.206 29.0231 111.31C31.5273 105.431 39.0523 105.695 43.4536 106.099C47.8548 106.503 51.2442 105.62 52.5975 104.005C49.1448 105.153 44.263 105.292 41.0759 104.749C37.8888 104.207 34.0946 105.153 34.0946 105.153C34.0946 105.153 24.8748 98.1249 20.8783 88.5859C16.8818 79.0469 19.5883 65.4576 21.6245 62.013C21.4222 65.7983 23.5216 67.2872 23.5216 67.2872C23.3825 64.1706 23.9263 58.1646 27.5181 54.3036C26.5696 56.3981 28.4666 59.2371 28.4666 59.2371C28.4666 59.2371 30.7052 53.8241 35.1064 51.1239C34.297 53.3572 36.3205 55.313 36.3205 55.313C36.3205 55.313 38.6223 52.2721 36.662 48.9537C34.7017 45.6352 28.9346 45.4333 25.1404 48.0704C22.358 52.4614 18.4248 53.004 15.5159 52.8021C19.1077 51.9188 21.4854 47.7928 21.283 46.4428C20.1321 48.5373 13.9603 49.4205 12 48.3985C14.6433 47.5153 16.7427 45.2188 19.5883 44.8782C17.2106 43.3893 14.0994 43.1874 12 44.2725C15.5918 40.1465 20.3345 41.7742 20.7392 41.4335C19.5883 37.9889 16.4012 36.0205 14.0994 35.4149C18.2351 34.0648 23.4584 37.1056 24.2678 40.2853C27.7963 42.1149 30.2372 41.3704 30.2372 41.3704C30.2372 41.3704 34.7776 37.4463 42.0244 40.7648C44.0606 37.787 41.0126 33.9386 41.0126 33.9386C41.0126 33.9386 48.8033 39.074 47.5133 46.9853C46.2233 54.8966 47.8548 55.0354 47.8548 55.0354C47.8548 55.0354 52.7366 50.8463 52.4583 48.2092C53.1413 48.613 54.014 50.4426 54.014 50.4426C54.014 50.4426 56.9228 45.7109 54.2795 40.7774C51.6363 35.8439 52.7239 31.516 52.7239 31.516C52.7239 31.516 53.7357 35.0363 55.6328 36.1846C54.8234 30.5697 57.7322 25.9768 57.7322 25.9768C57.7322 25.9768 58.2128 28.677 59.2878 29.4972C60.4387 25.9768 64.0305 25.3712 64.0305 25.3712C64.0305 25.3712 63.7649 27.7433 65.0423 29.4341C67.0785 28.2228 68.6973 25.5857 68.6973 25.5857C68.6973 25.5857 69.5068 28.7653 70.3921 29.7117C71.2774 30.658 80.2189 31.7431 80.358 26.8727C80.4972 22.0023 70.9359 22.1411 70.9359 22.1411C70.9359 22.1411 67.205 24.0968 62.7405 23.3524C58.2761 22.6079 56.164 20.3115 52.4331 22.0023C54.3301 20.0465 57.239 19.1633 60.9699 19.6301C57.7828 16.7911 48.4365 22.0653 41.3162 15.8448C45.3127 17.7375 51.7501 16.1098 52.6986 14.7597C45.2494 13.8765 39.9503 8.2742 38.9385 3C40.6965 6.24275 48.0192 12.1226 54.7348 10.8482C52.9769 8.81676 48.4998 4.28701 44.7689 3.47947C54.0519 2.79812 61.5137 9.49812 64.0811 14.2298C66.6611 18.9614 81.4331 16.7281 83.7348 23.6299C86.0366 30.5318 79.6624 34.0395 73.7056 33.9765C67.7488 33.9134 63.1958 33.7746 63.1958 37.8249C63.1958 41.8751 70.1771 43.6416 69.2918 50.8085C70.4426 47.225 69.0894 43.9823 73.4274 40.6638C77.7654 37.3454 78.9795 36.2729 78.9795 34.7083C80.2695 37.4085 77.7654 40.3232 77.7654 40.3232C77.7654 40.3232 82.7104 43.4397 86.1378 40.8657C89.5652 38.2917 89.2237 37.9889 91.4623 36.4369C93.7008 34.8849 93.802 34.4433 93.4605 33.0932C95.1553 35.049 94.0044 39.0488 91.0196 41.1055C93.1823 42.1906 97.8365 41.0045 99.0126 39.3768C98.5068 43.465 94.1308 44.2094 92.1705 44.0706C96.7741 45.6605 97.2926 50.0893 97.2926 50.0893C97.2926 50.0893 90.754 49.042 89.1605 46.5058C91.6646 50.1524 90.5137 54.4171 90.5137 54.4171C90.5137 54.4171 88.8822 49.5088 84.5443 47.1493C80.2063 44.7772 76.4754 48.3606 76.1718 52.4235C75.8683 56.4864 71.0877 61.7606 63.7396 62.3663C56.594 66.9339 44.225 61.6723 38.4706 68.877C32.7287 76.0817 43.3018 88.2957 54.1784 93.6203C51.9904 89.3051 52.1928 86.5166 52.1928 86.5166C52.1928 86.5166 57.8334 96.0051 64.6502 95.9546C59.6167 91.9422 58.8072 87.6396 58.8072 87.6396C58.8072 87.6396 65.6241 95.1471 72.7824 92.2576C67.85 91.2482 64.9032 88.3588 64.9032 88.3588C64.9032 88.3588 75.5268 92.775 80.8133 86.2768C81.6734 84.5987 81.7239 82.7313 81.7239 82.7313C81.7239 82.7313 80.2948 82.0751 77.7654 83.6397C75.2233 85.2169 69.5826 84.2959 66.9394 81.2045C69.6332 83.0341 77.2089 82.6808 78.1701 77.4066C74.515 78.0627 68.8112 75.9808 67.0911 73.1418C71.9224 75.0723 82.6978 73.8484 81.4204 67.6657C78.1701 65.6343 73.2883 63.0476 68.9629 66.2904C71.8085 60.2087 77.6515 61.0667 79.9913 62.1266C82.331 63.1864 83.9498 66.8456 88.3258 66.3409C84.6707 65.4829 82.2298 62.8458 81.6101 60.0068C81.1928 58.0637 78.5116 55.9439 75.7165 56.9659C85.379 50.7832 84.7593 67.2115 94.017 62.6439C103.275 58.0763 106.727 62.9467 106.727 62.9467C106.727 62.9467 126.963 50.2028 121.537 66.0885C121.537 66.0885 117.945 63.2495 116.39 69.5331C114.695 65.8866 112.254 68.448 111.306 71.6277C110.357 67.6405 105.412 71.5646 105.678 73.9998C105.943 76.435 114.822 75.2111 115.037 70.4164C116.39 73.6591 122.018 72.574 120.665 68.0443C125.066 73.2554 121.613 75.8925 118.565 76.7631C115.517 77.6463 113.342 81.2298 113.215 82.1004C113.418 77.7725 111.318 77.0912 108.814 78.9838C106.31 80.8765 104.274 86.832 98.9873 84.3211C102.238 84.1192 102.984 81.8859 102.377 80.5989C101.77 79.3119 96.6856 80.8008 94.5861 85.1286C92.4867 89.4565 91.4623 91.2104 90.8552 95.2102C90.2481 99.1974 89.0972 103.525 88.4143 104.547C92.1452 98.4655 100.884 97.5823 103.262 95.2859C105.64 92.9895 106.715 88.1821 112.887 87.6396C112.684 82.971 116.01 81.2171 119.122 81.0783C115.871 82.5041 116.478 85.81 117.161 86.2138C119.463 81.3433 125.091 82.7691 126.444 83.7785C122.587 83.5767 120.614 86.3525 120.475 88.5102C123.118 86.075 127.254 88.5102 128 89.9991C125.496 89.2546 120.816 89.9991 120.209 93.1787C119.602 96.3584 125.761 95.2102 126.381 93.4437H126.432ZM115.454 61.155C115.454 61.8111 115.985 62.3411 116.643 62.3411C117.3 62.3411 117.832 61.8111 117.832 61.155C117.832 60.4989 117.3 59.9689 116.643 59.9689C115.985 59.9689 115.454 60.4989 115.454 61.155ZM72.1121 47.7802C72.2006 49.2186 72.833 50.5435 73.7309 51.5151C73.4147 50.2028 73.225 48.9663 73.3768 47.8055C73.5159 46.6446 73.9965 45.5974 74.7427 44.8024C75.4889 44.0202 76.488 43.465 77.6136 43.4145C78.7392 43.3514 79.928 43.7426 81.1042 44.3987C80.4086 43.2631 79.1692 42.3294 77.6642 42.1527C76.1718 41.9382 74.5783 42.5943 73.5665 43.7047C72.5168 44.8024 72.0235 46.3418 72.1247 47.7802H72.1121ZM46.4762 115.058C47.0074 113.998 45.553 113.619 45.4645 114.49C44.8827 113.367 43.8709 114.351 44.4274 115.184C43.2638 114.616 42.9224 115.966 44.048 116.357C42.7074 117.001 44.3389 118.212 44.9459 117.039C44.8321 117.279 44.7689 118.099 45.4265 118.162C46.0968 118.225 46.1474 117.67 46.0083 116.913C46.0842 117.279 46.7165 117.998 47.1212 117.266C47.5259 116.534 46.7798 116.269 46.7798 116.269C47.8927 116.206 47.5892 114.768 46.4636 115.058H46.4762ZM95.4588 68.0821C97.6973 69.1672 102.782 68.4228 105.147 66.1895C103.654 64.9782 98.4309 62.9467 95.4588 68.0821ZM85.6446 75.5392C84.4304 75.0723 81.1422 75.5644 82.5334 78.1132C83.9245 80.662 86.0999 79.009 86.0999 79.009C84.1775 82.4032 88.9708 84.1949 90.2228 80.3718C92.3476 83.9047 96.1797 80.3718 93.7894 78.4539C98.2032 78.8576 97.2167 74.0503 93.7008 74.1386C97.5582 71.817 94.2194 68.284 90.969 70.8328C91.614 65.7352 84.9869 68.1957 87.276 72.1702C86.7828 71.3627 84.519 69.6467 83.0645 71.4763C81.6101 73.3058 83.1531 74.5171 85.6193 75.5392H85.6446ZM78.4104 93.532C77.4871 94.0998 76.8421 95.0209 76.5133 95.9925C76.1592 96.964 76.1086 98.0239 76.2983 99.0333C76.3615 99.2857 76.4121 99.5381 76.5007 99.7904C76.6018 100.03 76.703 100.27 76.8042 100.51C77.0571 100.964 77.4112 101.469 77.563 101.658C77.9424 102.188 78.208 102.756 78.2965 103.349C78.4736 104.522 77.9804 105.86 76.8801 106.831C76.6145 107.071 76.2983 107.273 75.9568 107.437C75.628 107.601 75.2992 107.676 74.9198 107.689C74.1862 107.702 73.4274 107.437 72.8203 106.97C72.2133 106.516 71.7832 105.847 71.6188 105.178C71.4544 104.497 71.5556 103.879 71.8212 103.361C72.0741 102.856 72.5041 102.314 72.9215 101.948C73.1365 101.784 73.3262 101.658 73.4906 101.645C73.655 101.569 73.8194 101.645 74.0344 101.696C74.4518 101.898 74.8818 102.44 75.0336 103.046C75.1727 103.639 75.0589 104.333 74.4265 104.901H74.4139C74.4139 104.901 74.3633 105.002 74.3759 105.039C74.4012 105.102 74.4645 105.14 74.5277 105.115C74.73 105.052 74.9703 105.002 75.1853 104.888C75.3624 104.749 75.6153 104.636 75.7545 104.421C76.1086 104.043 76.273 103.525 76.3362 103.008C76.3489 102.756 76.3362 102.491 76.3109 102.226C76.2477 101.973 76.2098 101.708 76.0959 101.469C75.9189 100.964 75.5648 100.51 75.1095 100.131C74.6289 99.7904 73.9712 99.5128 73.3136 99.5885C72.6559 99.6138 72.0868 99.904 71.6315 100.219C70.7715 100.876 70.1771 101.708 69.8988 102.743C69.6332 103.79 69.8735 104.926 70.4047 105.733C70.9232 106.566 71.6441 107.147 72.3903 107.626C73.1491 108.08 73.9839 108.434 74.8945 108.522C75.3498 108.56 75.843 108.522 76.2856 108.421C76.7283 108.307 77.1709 108.181 77.5883 107.967C78.423 107.563 79.2324 106.957 79.7889 106.124C80.3454 105.292 80.6363 104.232 80.5983 103.197C80.573 102.15 80.2189 101.14 79.713 100.295C79.4095 99.803 79.3083 99.6137 79.1566 99.3488C79.106 99.21 79.0427 99.0712 78.9795 98.9324C78.9289 98.7936 78.9036 98.6422 78.853 98.4908C78.5621 97.3173 78.7518 95.9294 79.5739 95.0714C79.9786 94.655 80.573 94.39 81.2939 94.3017C82.0148 94.1881 82.7989 94.3522 83.6337 94.491H83.6463C83.6463 94.491 83.7348 94.491 83.7601 94.4531C83.7981 94.4026 83.7981 94.3269 83.7348 94.2765C83.0772 93.7465 82.3057 93.2418 81.3698 93.0652C80.4592 92.8507 79.3463 92.9516 78.423 93.532H78.4104ZM36.1055 83.6776C35.8399 83.993 35.6376 84.359 35.5364 84.7753C35.4858 84.9772 35.4732 85.217 35.4985 85.4315C35.5238 85.646 35.5491 85.8605 35.6249 86.0623C35.7641 86.4787 35.9917 86.8825 36.3458 87.1979C36.7 87.5134 37.1679 87.7153 37.6611 87.7657C38.1544 87.8162 38.635 87.7153 39.065 87.5386C39.3179 87.425 39.4065 87.3872 39.5329 87.3367C39.5962 87.3241 39.672 87.2989 39.7353 87.2863C39.7985 87.2736 39.8744 87.2736 39.9503 87.261C40.5194 87.1979 41.1518 87.3746 41.4932 87.8036C41.6577 88.0181 41.7462 88.3083 41.7335 88.649C41.7335 88.9896 41.6197 89.3429 41.5059 89.7215C41.5059 89.7467 41.5059 89.7719 41.5059 89.7846C41.5312 89.8098 41.5691 89.8098 41.5818 89.7846C41.8727 89.507 42.1509 89.1915 42.29 88.7625C42.4418 88.3588 42.4671 87.8288 42.2647 87.362C42.0624 86.8951 41.6703 86.5418 41.2403 86.3273C40.8103 86.1002 40.3297 86.0119 39.8365 86.0371C39.71 86.0371 39.5962 86.0623 39.4697 86.0876C39.3559 86.1128 39.2294 86.1507 39.1156 86.1885C38.8879 86.2768 38.635 86.403 38.5338 86.4661C38.2682 86.6049 37.9773 86.6932 37.6991 86.6932C37.1426 86.6932 36.5482 86.3904 36.1688 85.81C36.0802 85.6712 35.9917 85.5072 35.9411 85.3431C35.8905 85.1791 35.8779 85.0277 35.8905 84.851C35.9285 84.5104 36.1055 84.1697 36.3585 83.93C36.6114 83.6776 36.9529 83.5136 37.2691 83.4883C37.5979 83.4505 37.8761 83.5388 38.1038 83.6902C38.3314 83.8416 38.5464 84.0687 38.6982 84.2959C38.7614 84.4094 38.7994 84.4977 38.7994 84.5734C38.8247 84.6618 38.7741 84.7249 38.7362 84.8258C38.6097 85.0025 38.3441 85.1665 38.0532 85.2043C37.775 85.2296 37.4461 85.1412 37.2311 84.8132C37.2311 84.8132 37.1932 84.7753 37.1679 84.7753C37.1426 84.7753 37.1173 84.8132 37.1173 84.8384C37.13 84.9394 37.1426 85.0529 37.1805 85.1539C37.2311 85.2422 37.2691 85.3684 37.3576 85.4441C37.5094 85.6333 37.7497 85.7469 37.9773 85.7974C38.0911 85.8226 38.2176 85.8352 38.3441 85.8352C38.4706 85.8352 38.5844 85.8226 38.7109 85.7847C38.9512 85.7343 39.1915 85.5955 39.3938 85.4188C39.5835 85.2169 39.7606 84.9267 39.7606 84.6239C39.7859 84.3211 39.6973 84.0309 39.5709 83.8038C39.3179 83.3621 38.9765 83.0341 38.5085 82.8448C38.0406 82.6556 37.4967 82.6934 37.0794 82.8953C36.662 83.0846 36.3458 83.3748 36.0802 83.6902L36.1055 83.6776ZM33.4749 77.8608C33.6014 78.4791 34.6511 79.6652 35.3214 78.4412C35.9917 77.2173 34.7523 76.7631 34.7523 76.7631C36.6241 76.6495 36.1055 74.2522 34.2338 74.7443C35.1191 72.9652 32.6908 72.3469 32.5264 73.7979C31.5399 71.9179 29.8578 73.5582 30.7937 74.9588C28.8461 73.9998 28.2896 76.271 30.1614 76.9145C27.9355 77.987 30.642 80.0058 31.6537 78.0501C31.4514 78.4539 31.3502 79.8166 32.4631 79.9301C33.5761 80.0437 33.6773 79.11 33.437 77.8482L33.4749 77.8608ZM40.7218 63.0476C40.5321 62.4168 40.1779 61.9121 39.7732 61.4704C39.3685 61.0414 38.8879 60.6629 38.3188 60.4484C38.0279 60.3475 37.7117 60.2718 37.3956 60.2591C37.092 60.2591 36.7758 60.2591 36.4723 60.3222C35.8652 60.4358 35.2329 60.6755 34.7143 61.1171C34.2085 61.5588 33.829 62.1896 33.6646 62.871C33.4876 63.5524 33.5382 64.2716 33.7152 64.9025C33.829 65.281 33.8543 65.4072 33.9049 65.609C33.9049 65.71 33.9302 65.8109 33.9429 65.9119C33.9429 66.0128 33.9429 66.1137 33.9429 66.2147C33.9176 67.0222 33.5382 67.8928 32.8679 68.2966C32.5264 68.4985 32.0964 68.549 31.6158 68.4859C31.1352 68.4354 30.6546 68.1831 30.1361 67.9433C30.1361 67.9433 30.0728 67.9307 30.0475 67.9433C30.0096 67.9686 29.9969 68.019 30.0349 68.0569C30.3637 68.5111 30.7684 68.978 31.3502 69.2682C31.9067 69.571 32.6402 69.6972 33.3358 69.4953C34.0314 69.2934 34.6132 68.8139 35.0052 68.2461C35.4099 67.6783 35.6376 67.0096 35.7008 66.3156C35.7008 66.139 35.7135 65.9623 35.7008 65.7983C35.6755 65.6217 35.6629 65.445 35.6376 65.281C35.5617 64.9403 35.4226 64.5492 35.3594 64.4104C35.2076 64.0066 35.1444 63.5902 35.1949 63.1864C35.2835 62.4041 35.8526 61.6218 36.7379 61.1928C36.9529 61.0919 37.1932 61.0036 37.4461 60.9657C37.6864 60.9153 37.9141 60.9279 38.1544 60.991C38.635 61.1045 39.0776 61.42 39.3812 61.8237C39.6973 62.2275 39.8491 62.7322 39.8365 63.1991C39.8238 63.6659 39.6467 64.0444 39.3812 64.3347C39.1282 64.6249 38.7488 64.8898 38.42 65.0539C38.2556 65.1169 38.1038 65.1674 38.0026 65.1548C37.8761 65.18 37.7876 65.1043 37.6611 65.0286C37.4335 64.8267 37.2438 64.3977 37.2564 63.9814C37.2691 63.5776 37.4714 63.136 37.9773 62.8962H37.99C37.99 62.8962 38.0406 62.8458 38.0406 62.8079C38.0406 62.7574 38.0026 62.7322 37.952 62.7322C37.8129 62.7322 37.6485 62.7322 37.4841 62.7574C37.345 62.8205 37.1553 62.8458 37.0288 62.9593C36.7379 63.1486 36.5355 63.4514 36.3964 63.7669C36.3332 63.9309 36.2952 64.0949 36.27 64.2716C36.27 64.4482 36.2447 64.6249 36.27 64.8015C36.2952 65.1548 36.447 65.5081 36.662 65.8362C36.915 66.139 37.2817 66.4418 37.7244 66.5175C38.1544 66.6185 38.5717 66.5301 38.9259 66.404C39.5962 66.139 40.1273 65.71 40.5068 65.0791C40.8735 64.4482 40.9115 63.6785 40.7091 63.0603L40.7218 63.0476ZM57.3275 59.7797C57.1378 58.9469 56.4802 58.4296 55.9237 58.2024C55.3293 57.9627 54.8487 57.887 54.2922 57.8239C53.7484 57.7987 53.0907 57.7861 52.471 58.2151C52.1675 58.4422 51.9525 58.7955 51.9019 59.1362C51.8386 59.4768 51.9019 59.7923 52.0157 60.0573C52.2433 60.5746 52.6607 61.0541 53.2172 61.1171C53.2425 61.1171 53.2804 61.1171 53.2931 61.0793C53.3184 61.0414 53.3057 60.991 53.2678 60.9657C52.901 60.7134 52.7492 60.2591 52.7239 59.8806C52.6986 59.4768 52.8884 59.2119 53.0781 59.174C53.5081 59.0226 54.5831 59.3254 55.1775 59.6787C55.4684 59.868 55.6075 60.0446 55.6328 60.1708C55.6707 60.297 55.6581 60.5493 55.481 60.8395C55.1269 61.4073 54.406 61.8742 53.5839 62.1392C52.7619 62.4294 51.7754 62.2023 50.8901 61.8868C49.9921 61.5588 49.2207 60.9531 48.3354 60.5115C47.8927 60.297 47.3995 60.1077 46.8556 60.032C46.3118 59.9437 45.6921 59.9563 45.123 60.1834C43.9721 60.6503 43.3777 61.6218 43.0741 62.5556C43.0741 62.5808 43.0741 62.606 43.0868 62.6313C43.1121 62.6691 43.1627 62.6817 43.2006 62.6439C43.9974 62.0508 44.7562 61.4831 45.4771 61.3821C45.8312 61.3316 46.198 61.3569 46.5901 61.4452L47.8674 61.7733C48.778 62.0004 49.7898 62.1392 50.7257 62.3789C51.1936 62.4925 51.6616 62.6439 52.1295 62.7827C52.6101 62.9215 53.1286 63.0603 53.6725 63.0855C54.7601 63.1738 55.9237 62.7701 56.7584 61.8111C57.1505 61.3316 57.5046 60.6124 57.3149 59.7797H57.3275ZM61.5264 47.591C61.0205 48.1209 60.7549 48.7518 60.679 49.471C60.6537 49.8369 60.679 50.2659 60.9067 50.6444C61.0964 51.0482 61.4884 51.3258 61.8552 51.4772C62.2346 51.6034 62.614 51.6412 62.9682 51.5782C63.1452 51.5655 63.3096 51.4898 63.474 51.4394C63.6385 51.3637 63.7902 51.2753 63.9293 51.1744C64.2076 50.9599 64.4479 50.6823 64.5364 50.3542C64.6123 50.2028 64.587 50.0136 64.6123 49.8621C64.6123 49.6981 64.5491 49.5467 64.5111 49.4079C64.5111 49.3701 64.4605 49.3322 64.4099 49.3448C64.372 49.3448 64.3594 49.3827 64.3467 49.4079C64.2455 49.9757 63.8788 50.2911 63.4993 50.4173C63.0946 50.5435 62.6393 50.4804 62.3737 50.3164C62.2599 50.2154 62.1714 50.1524 62.1587 50.0262C62.1082 49.9252 62.1208 49.7738 62.1334 49.5972C62.2093 49.2313 62.3611 48.8023 62.5635 48.4742C62.7658 48.1461 63.082 47.8686 63.5373 47.7298C63.9799 47.591 64.5111 47.6036 64.9917 47.7928C65.4723 47.9695 65.8897 48.3228 66.13 48.7392C66.2564 48.9537 66.3197 49.1682 66.345 49.4205C66.3703 49.6729 66.3703 49.9252 66.3197 50.1524C66.1552 51.1239 65.5608 51.881 64.8273 52.1838C64.4605 52.3352 64.0305 52.3857 63.6005 52.3605C63.4361 52.3478 63.0188 52.3226 62.6773 52.3352C62.5002 52.3605 62.3232 52.3857 62.1587 52.4109C61.9943 52.4488 61.8173 52.4992 61.6529 52.5623C61.0078 52.8147 60.4261 53.2058 59.9834 53.7484C59.5408 54.2783 59.2372 54.9723 59.2372 55.6915C59.2372 56.4234 59.5534 57.0921 59.9961 57.5337C60.4261 58.0132 60.9826 58.2655 61.5137 58.4548C61.5517 58.4674 61.6023 58.4548 61.6149 58.4043C61.6149 58.3791 61.6149 58.3412 61.6023 58.316C61.2355 57.887 60.8561 57.4959 60.679 57.0416C60.4767 56.6 60.4134 56.171 60.5146 55.7925C60.717 55.0354 61.4505 54.4298 62.222 54.19C62.3232 54.1648 62.4117 54.1269 62.5129 54.1143C62.614 54.1143 62.7152 54.0891 62.8164 54.0765C63.0187 54.0765 63.1579 54.0638 63.5499 54.0765C64.2076 54.0765 64.9158 53.925 65.5229 53.5717C66.13 53.2311 66.6358 52.6885 66.9141 52.0829C67.205 51.4646 67.2682 50.7959 67.205 50.1776C67.1797 49.8621 67.1038 49.5593 67.0153 49.2817C66.9141 48.9915 66.7623 48.6887 66.5853 48.449C66.2185 47.9569 65.7252 47.6036 65.1941 47.326C64.6629 47.061 64.0811 46.8591 63.4108 46.8465C62.7658 46.8213 62.0196 47.0736 61.5137 47.6036L61.5264 47.591ZM38.9385 43.7678C39.7859 44.4239 40.4562 45.3576 40.6332 46.468C40.8229 47.5783 40.5573 48.7896 40.0135 50.0262C41.0759 49.2186 41.8727 47.8938 41.8979 46.3797C41.9485 44.8782 41.1391 43.364 39.925 42.4682C38.7109 41.5471 37.13 41.219 35.7135 41.4588C34.2843 41.6985 33.0449 42.4556 32.1596 43.465C33.437 43.0107 34.6385 42.6953 35.8147 42.7205C36.9782 42.7331 38.0785 43.1117 38.9512 43.7552L38.9385 43.7678ZM29.314 88.0055C29.1622 87.362 28.7575 86.8194 28.2643 86.4409C27.771 86.0497 27.1766 85.81 26.5569 85.7217C26.4051 85.709 26.2407 85.6964 26.089 85.6838C25.9246 85.6838 25.7728 85.6964 25.6084 85.7217C25.3048 85.7721 24.9381 85.8857 24.799 85.9362C24.4195 86.0497 24.0401 86.0876 23.6734 86.0245C22.9651 85.8983 22.2822 85.3557 21.9407 84.5356C21.8522 84.3337 21.8016 84.1192 21.7763 83.8921C21.751 83.665 21.7763 83.4631 21.8269 83.2486C21.9533 82.8196 22.2695 82.4411 22.6489 82.1887C23.0283 81.9237 23.4963 81.8102 23.9136 81.848C24.331 81.8859 24.6725 82.0625 24.9128 82.3149C25.1531 82.5672 25.3807 82.9079 25.5198 83.2233C25.5704 83.3748 25.6084 83.5136 25.5831 83.6019C25.5831 83.7154 25.5198 83.7912 25.444 83.9047C25.2416 84.1066 24.8495 84.2454 24.4701 84.2202C24.1034 84.1823 23.7239 83.9804 23.5216 83.5136C23.5216 83.5136 23.4836 83.4505 23.4584 83.4505C23.4204 83.4505 23.3825 83.4883 23.3825 83.5262C23.3825 83.6524 23.3572 83.8038 23.3825 83.9426C23.4331 84.0687 23.4457 84.2454 23.5469 84.3589C23.6986 84.6365 23.9642 84.8384 24.2551 84.9646C24.3942 85.0277 24.5587 85.0655 24.7104 85.1034C24.8622 85.116 25.0266 85.1412 25.191 85.1286C25.5198 85.1286 25.8487 85.0151 26.1522 84.8258C26.4431 84.6113 26.734 84.2959 26.8225 83.9047C26.9363 83.5136 26.8857 83.135 26.7846 82.8196C26.5696 82.2013 26.2154 81.6966 25.6716 81.3307C25.1151 80.9648 24.4195 80.8891 23.8504 81.0405C23.2686 81.1793 22.788 81.4695 22.3707 81.8102C21.9533 82.1508 21.5992 82.5672 21.3716 83.0719C21.2577 83.3243 21.1819 83.6145 21.1566 83.8921C21.1313 84.1697 21.1186 84.4473 21.1566 84.7249C21.2198 85.28 21.4222 85.8605 21.7889 86.3399C22.1557 86.8194 22.7122 87.1979 23.3192 87.3746C23.9263 87.5638 24.5713 87.5512 25.1657 87.4251C25.5072 87.3493 25.6337 87.3241 25.8234 87.2863C25.9119 87.2863 26.0004 87.2863 26.089 87.261C26.1775 87.261 26.2787 87.2736 26.3672 87.2736C27.1007 87.3367 27.8596 87.7153 28.1884 88.3588C28.3528 88.6742 28.3781 89.0654 28.2896 89.4944C28.2137 89.9234 27.9734 90.3524 27.7205 90.794C27.7205 90.8192 27.7078 90.8571 27.7205 90.8823C27.7457 90.9202 27.7837 90.9328 27.8216 90.9075C28.2516 90.63 28.6943 90.2893 28.9852 89.7846C29.2887 89.3051 29.4405 88.649 29.2887 88.0055H29.314ZM42.8844 99.374C42.8844 98.6296 42.5809 97.7842 41.9485 97.1912C41.3288 96.5855 40.4941 96.2701 39.672 96.1944C38.85 96.1186 38.0153 96.2701 37.2691 96.6107C37.0794 96.6991 36.9023 96.8 36.7253 96.9136C36.5608 97.0397 36.3838 97.1533 36.2194 97.2921C35.9158 97.5697 35.5996 97.9482 35.4732 98.0996C35.1317 98.4908 34.7396 98.8062 34.297 98.9955C33.4243 99.3614 32.2861 99.2352 31.3249 98.5665C31.0846 98.4025 30.8696 98.2006 30.6799 97.9735C30.4902 97.7463 30.3637 97.5066 30.2878 97.229C30.1361 96.6738 30.1993 96.0303 30.4396 95.4751C30.6799 94.92 31.1099 94.4531 31.6031 94.2008C32.0964 93.9358 32.6023 93.8979 33.0449 94.0115C33.4876 94.1124 33.9808 94.3396 34.3602 94.5919C34.5246 94.7181 34.6638 94.8443 34.7017 94.9704C34.7902 95.084 34.7649 95.2228 34.7649 95.3994C34.6891 95.7527 34.3602 96.1944 33.9176 96.4341C33.4876 96.6486 32.9184 96.6991 32.362 96.3205H32.3493C32.3493 96.3205 32.2734 96.2827 32.2481 96.3205C32.1976 96.3458 32.1849 96.4089 32.2229 96.4593C32.3114 96.5981 32.3999 96.7748 32.5264 96.9136C32.6781 97.0271 32.8046 97.2038 33.007 97.2669C33.3737 97.4687 33.8037 97.494 34.2211 97.4435C34.4235 97.4057 34.6258 97.3552 34.8155 97.2795C34.9926 97.1912 35.1949 97.1028 35.3594 96.964C35.7135 96.7243 35.9917 96.371 36.2067 95.942C36.3838 95.5004 36.4723 94.9452 36.2826 94.4531C36.1308 93.9484 35.802 93.5699 35.4732 93.2797C34.8029 92.7497 34.044 92.4469 33.1714 92.4217C32.3114 92.4217 31.4767 92.8254 30.9455 93.3932C30.4017 93.961 30.0855 94.6298 29.8705 95.2985C29.6555 95.9672 29.5543 96.6864 29.6681 97.4056C29.7314 97.7589 29.8452 98.1375 30.0222 98.4655C30.1867 98.781 30.3764 99.109 30.6293 99.3866C31.0973 99.9544 31.7296 100.459 32.4884 100.724C33.2473 100.989 34.1199 101.014 34.9167 100.787C35.7261 100.56 36.4344 100.093 36.9908 99.538C37.3197 99.21 37.4335 99.0964 37.6106 98.9198C37.7117 98.8567 37.8003 98.781 37.9014 98.7053C38.0026 98.6422 38.1164 98.5917 38.2176 98.5286C39.0776 98.0744 40.1906 97.9608 41 98.4277C41.4047 98.6674 41.7209 99.0712 41.9232 99.6137C42.1509 100.144 42.1762 100.787 42.2268 101.456C42.2268 101.456 42.2521 101.532 42.29 101.544C42.3406 101.569 42.4038 101.544 42.4165 101.494C42.6947 100.876 42.9477 100.194 42.8971 99.4371L42.8844 99.374ZM52.9389 100.497L55.1648 100.863C55.911 100.976 56.6699 100.939 57.4287 100.989C60.4387 101.002 63.4488 100.421 66.2185 99.3362C71.7453 97.0524 76.3995 93.3175 80.5225 89.2294L80.4086 89.1158C75.9315 92.8002 71.1382 96.207 65.7632 98.1501C60.3881 100.055 54.4819 99.8283 49.2839 97.5318C47.956 97.0524 46.7039 96.3584 45.4392 95.7149C44.8194 95.3742 44.2124 94.9831 43.5927 94.6298C42.9856 94.2638 42.3532 93.9105 41.7715 93.4942C40.5826 92.6866 39.3812 91.9043 38.2556 91.0085L36.5355 89.7089C35.9917 89.242 35.4226 88.813 34.9041 88.3335C32.8046 86.4283 30.857 84.3085 29.3393 81.9111C27.8216 79.5264 26.6201 76.9019 26.1269 74.1008C25.621 71.3249 25.836 68.3597 27.0754 65.7983C27.6825 64.5239 28.5299 63.3505 29.5543 62.3663C30.5787 61.3821 31.8181 60.6124 33.1082 60.0194C35.7135 58.8081 38.635 58.4674 41.4932 58.4927C44.4274 58.4927 47.3742 58.3539 50.3083 57.7482C51.7628 57.3949 53.2298 57.0164 54.5831 56.2719C55.2787 55.9565 55.911 55.4644 56.5434 55.0102C56.8343 54.7326 57.1125 54.4424 57.3908 54.1648C57.6563 53.8746 57.8713 53.5087 58.099 53.1806C58.314 52.8399 58.4531 52.4488 58.6302 52.0829C58.7693 51.7043 58.8578 51.3006 58.959 50.9094C59.0728 50.1145 59.1108 49.307 58.9969 48.5373C58.9211 47.755 58.6934 47.0105 58.4911 46.304C58.2887 45.6478 58.1243 44.9539 58.0105 44.2725C57.7702 42.8846 57.6437 41.4714 57.7069 40.0708C57.7702 38.6702 58.0231 37.2697 58.6049 36.0205C59.174 34.7714 60.0973 33.6736 61.324 32.9923C62.5382 32.2731 63.9799 31.9955 65.4091 31.8819V31.7179C63.9546 31.6674 62.4243 31.8314 61.0584 32.5002C59.6799 33.1311 58.529 34.2793 57.8334 35.642C57.1125 36.9921 56.771 38.5062 56.6319 39.9951C56.4928 41.4966 56.5307 42.9981 56.7584 44.4744C56.8722 45.2188 57.0113 45.9507 57.2137 46.6825C57.4034 47.3765 57.5678 48.02 57.6184 48.7013C57.7702 50.0388 57.5552 51.3637 56.8596 52.4488C56.6572 52.7011 56.5054 52.9913 56.2778 53.2185L55.5822 53.9124C55.0384 54.3036 54.5198 54.72 53.8875 55.0102C52.686 55.6663 51.3328 56.0953 49.9669 56.4486C47.2098 57.1426 44.3389 57.4454 41.4553 57.6094C39.9882 57.7104 38.5085 57.8239 37.0667 58.1646C36.3332 58.3034 35.6376 58.5305 34.9167 58.7324C34.2211 58.9974 33.5255 59.2371 32.8679 59.5778C30.1993 60.8269 27.8596 62.9089 26.5443 65.5964C25.229 68.2588 24.799 71.3375 25.229 74.29C25.621 77.2426 26.696 80.0942 28.2263 82.6429C29.7314 85.2043 31.6917 87.4881 33.867 89.5196C34.3982 90.0369 34.9799 90.4912 35.5364 90.9832L37.2691 92.346C38.4073 93.2797 39.6215 94.1124 40.8229 94.9578C41.4174 95.3994 42.0497 95.778 42.6821 96.1565C43.3144 96.535 43.9341 96.9388 44.5918 97.2921C45.9198 97.9608 47.2224 98.6927 48.6263 99.1974C49.9921 99.803 51.4719 100.156 52.9136 100.547L52.9389 100.497ZM61.0078 110.932C61.7287 110.591 62.3611 109.986 62.7658 109.254C63.1832 108.522 63.3476 107.689 63.3476 106.907C63.3476 106.44 63.3476 106.276 63.3476 106.036C63.3729 105.923 63.3855 105.796 63.3982 105.683C63.4235 105.569 63.474 105.456 63.4867 105.33C63.7649 104.408 64.4732 103.538 65.3838 103.286C65.8391 103.172 66.345 103.235 66.8761 103.462C67.42 103.677 67.8879 104.106 68.4064 104.547C68.4064 104.547 68.4697 104.585 68.5076 104.573C68.5582 104.547 68.5835 104.497 68.5709 104.446C68.3306 103.815 68.027 103.159 67.4453 102.655C66.9141 102.137 66.1047 101.746 65.232 101.771C64.372 101.771 63.5499 102.15 62.9176 102.68C62.2726 103.21 61.8046 103.904 61.5137 104.673C61.4505 104.875 61.3873 105.065 61.3367 105.266C61.3114 105.468 61.2734 105.683 61.2481 105.885C61.2355 106.289 61.2734 106.793 61.2987 106.982C61.3493 107.5 61.2987 108.005 61.109 108.446C60.7549 109.317 59.8569 110.036 58.7061 110.25C58.4278 110.301 58.1243 110.314 57.8208 110.288C57.5299 110.263 57.2769 110.187 57.0113 110.036C56.5054 109.746 56.0881 109.254 55.8731 108.686C55.6454 108.131 55.6201 107.487 55.7846 106.97C55.949 106.44 56.2778 106.049 56.6699 105.809C57.0493 105.569 57.5678 105.38 58.0105 105.292C58.2255 105.266 58.4025 105.266 58.5164 105.317C58.6681 105.33 58.744 105.443 58.8705 105.569C59.0728 105.885 59.1487 106.427 58.9969 106.894C58.8452 107.361 58.4911 107.79 57.8208 107.916H57.8081C57.8081 107.916 57.7449 107.954 57.7322 107.992C57.7322 108.042 57.7575 108.093 57.8081 108.105C57.9725 108.143 58.1622 108.206 58.3519 108.219C58.529 108.194 58.7566 108.219 58.9337 108.131C59.3258 108.017 59.6546 107.727 59.9075 107.399C60.0214 107.235 60.1225 107.046 60.2111 106.856C60.2743 106.654 60.3502 106.465 60.3755 106.251C60.464 105.834 60.4008 105.38 60.249 104.938C60.0593 104.509 59.7305 104.043 59.2372 103.828C58.7693 103.576 58.2634 103.538 57.8334 103.576C56.9734 103.677 56.2272 103.992 55.6075 104.598C54.9878 105.203 54.6969 106.087 54.7348 106.856C54.7475 107.639 55.0004 108.333 55.3166 108.963C55.6454 109.582 56.0754 110.162 56.6699 110.591C56.9607 110.806 57.3149 110.982 57.669 111.096C58.0105 111.197 58.3772 111.298 58.744 111.323C59.4775 111.386 60.2743 111.298 61.0078 110.957V110.932ZM86.8713 93.7844C87.5416 91.8791 88.1487 89.9738 89.1225 88.2831C90.0837 86.5923 91.437 85.1412 93.2076 84.0814L93.1444 83.93C91.0955 84.4094 89.2743 85.8478 88.0475 87.6017C87.744 88.0433 87.4784 88.5102 87.2128 88.9644C86.9852 89.4439 86.7322 89.9107 86.5425 90.4028C86.1252 91.3744 85.809 92.3712 85.5687 93.3932C85.0754 95.4121 84.8731 97.4687 84.4051 99.4623C83.9498 101.456 83.2669 103.399 82.331 105.178C81.3825 106.957 80.2063 108.572 78.7898 109.847C77.348 111.121 75.6027 111.966 73.7436 112.496C71.8844 113.052 69.8988 113.291 67.9006 113.342C65.8897 113.43 63.8535 113.304 61.792 113.228L61.7667 113.392C62.2599 113.544 62.7658 113.682 63.259 113.809C63.7649 113.935 64.2582 114.099 64.7767 114.175C65.8011 114.351 66.8255 114.566 67.8753 114.616C69.9621 114.831 72.1247 114.692 74.2242 114.162C76.3236 113.619 78.3092 112.496 79.8522 110.957C81.4204 109.43 82.4828 107.5 83.1657 105.531C83.874 103.563 84.3546 101.557 84.9363 99.5885C85.5054 97.6202 86.2263 95.677 86.884 93.7718L86.8713 93.7844ZM105.614 103.929C105.134 104.131 104.641 104.169 104.135 104.169C103.629 104.169 103.123 104.156 102.617 104.131C101.605 104.08 100.568 104.055 99.5312 104.093C98.4941 104.156 97.4317 104.257 96.42 104.636C96.167 104.724 95.9267 104.85 95.6864 104.976C95.4461 105.102 95.2311 105.292 95.0161 105.443C94.8138 105.62 94.662 105.86 94.485 106.049C94.3458 106.276 94.2573 106.528 94.1561 106.768C94.7252 105.885 95.6611 105.481 96.597 105.241C97.5456 105.014 98.5447 104.938 99.5565 104.901C100.568 104.85 101.593 104.837 102.617 104.762C103.136 104.724 103.654 104.661 104.173 104.56C104.679 104.434 105.222 104.295 105.614 103.929ZM106.955 99.1469C106.892 98.5917 106.702 98.1249 106.449 97.7085C106.209 97.2921 105.893 96.9388 105.589 96.5855C105.905 97.4435 106.285 98.3646 106.171 99.109C106.12 99.475 105.905 99.6768 105.614 99.8409C105.311 100.005 104.919 100.118 104.502 100.182C103.667 100.308 102.756 100.371 101.846 100.409C100.935 100.472 99.9991 100.535 99.0632 100.636C97.2041 100.888 95.2185 101.279 93.5617 102.503C92.7396 103.109 92.082 103.954 91.7405 104.888C91.4117 105.834 91.3484 106.806 91.4749 107.727C91.7152 106.818 91.9808 105.948 92.4614 105.229C92.9167 104.497 93.5491 103.942 94.27 103.538C95.737 102.743 97.495 102.44 99.2656 102.238C101.061 101.998 102.895 101.961 104.818 101.405C105.286 101.254 105.792 101.077 106.247 100.699C106.702 100.358 107.056 99.7021 106.98 99.1343L106.955 99.1469ZM111.723 92.7623C112.292 91.6141 110.711 91.1977 110.61 92.1441C109.965 90.9202 108.865 91.9927 109.485 92.9011C108.22 92.2829 107.853 93.7591 109.08 94.1755C107.625 94.8695 109.396 96.1944 110.054 94.92C109.927 95.1849 109.851 96.0682 110.585 96.1439C111.306 96.2196 111.369 95.6013 111.217 94.7938C111.306 95.1976 111.989 95.9672 112.419 95.1723C112.861 94.3774 112.052 94.0872 112.052 94.0872C113.266 94.0115 112.937 92.4595 111.71 92.775L111.723 92.7623ZM86.846 75.4887C86.846 75.4887 86.846 75.413 86.8587 75.3751L84.2787 73.268L86.9472 74.6559L84.6201 72.7507L86.9219 73.9493L84.911 72.309L87.5796 73.697L85.2525 71.7917L88.1234 73.2932L87.8831 70.1009L88.7178 72.9904L88.4902 69.9874L89.2111 72.4857L89.0214 69.8991L89.8561 72.7885L89.6284 69.7855L90.4631 72.7002L92.7902 71.0473L91.1208 73.0535L93.2455 71.5394L91.8037 73.268L93.6376 71.9557L91.9682 73.962L94.0929 72.4478L92.1958 74.7316V74.7695L95.1047 75.7411L92.474 75.5013L94.9782 76.3341L92.7017 76.1322L94.8644 76.8514L92.259 76.6243L94.7379 77.4571L92.0693 77.2173L93.5491 80.0815L91.829 77.9113L93.0938 80.3718L91.614 78.5043L92.7017 80.6241L90.9817 78.4539L92.2464 80.9143L90.4126 78.6053L90.3873 80.2077L90.0331 78.6305L90.0078 80.2456L89.6537 78.7062L88.2878 81.6714L88.9581 78.7441L87.7061 81.4821L88.2878 78.9459L87.2002 81.3055L87.8705 78.3782L86.6184 81.1162L87.3646 77.8608L84.051 78.3655L86.8713 77.3183L83.8866 77.7725L86.3275 76.864L83.7601 77.2552L86.5805 76.2079L83.6084 76.6621L86.8208 75.4761L86.846 75.4887ZM87.4278 75.7789C87.4278 76.9902 88.4143 77.9744 89.6284 77.9744C90.8426 77.9744 91.829 76.9902 91.829 75.7789C91.829 74.5676 90.8426 73.5834 89.6284 73.5834C88.4143 73.5834 87.4278 74.5676 87.4278 75.7789Z" fill="#FFDA8B"/>
</svg>
