<svg width="140" height="140" viewBox="0 0 140 140" fill="none" xmlns="http://www.w3.org/2000/svg">
<path d="M85.1448 52.3838C85.9718 51.1404 86.5231 49.897 86.4706 48.7191C86.4181 47.5543 85.8667 46.4549 85.0266 45.5649C84.2127 44.6487 83.11 43.955 81.9286 43.51C80.734 43.0912 79.395 42.9472 77.9773 43.3922C78.9619 42.2405 80.7078 41.7824 82.283 42.0311C83.8714 42.2536 85.3548 43.065 86.4706 44.243C87.5601 45.4209 88.3084 47.1354 87.9934 48.8369C87.7177 50.5383 86.4706 51.7686 85.1579 52.3707L85.1448 52.3838ZM121.074 42.0311C121.848 42.2405 122.531 42.6724 122.951 43.3137C123.384 43.955 123.489 44.845 123.45 45.8135C123.988 45.0283 124.264 43.9158 123.844 42.8687C123.45 41.8086 122.439 41.1018 121.428 40.8008C120.404 40.5129 119.289 40.5521 118.33 40.9709C117.372 41.3636 116.532 42.2012 116.374 43.1828C117.031 42.4499 117.818 42.0834 118.632 41.9133C119.446 41.7562 120.299 41.7824 121.074 42.018V42.0311ZM80.1564 39.6752C79.9858 38.301 79.2113 36.822 77.741 36.0629C76.2839 35.2907 74.4986 35.4739 73.094 36.1153C71.6894 36.7958 70.5211 37.8952 69.8647 39.2826C69.1821 40.6307 69.0902 42.3583 69.8647 43.5886C69.8647 42.162 70.3898 40.9971 71.1118 40.0286C71.86 39.0732 72.8183 38.2879 73.8816 37.8036C74.9449 37.2932 76.1001 37.11 77.1766 37.411C78.2661 37.6989 79.2375 38.5627 80.1433 39.6752H80.1564ZM92.0496 34.6363C91.2358 35.2645 91.0914 36.4294 91.7215 37.2408C92.3516 38.0523 93.5199 38.1963 94.3338 37.568C95.1477 36.9398 95.2921 35.775 94.662 34.9635C94.0318 34.1521 92.8635 34.0081 92.0496 34.6363ZM75.2994 51.0226C75.3781 50.2635 75.1418 49.3735 74.4461 48.7845C73.7635 48.1956 72.779 48.0647 71.9519 48.2479C71.1118 48.4442 70.3504 48.8892 69.8253 49.5567C69.2871 50.198 69.0246 51.1142 69.2871 51.8602C69.4709 51.1011 69.891 50.5253 70.4029 50.1064C70.928 49.6876 71.5319 49.3866 72.1751 49.2557C72.8052 49.1117 73.4484 49.1641 73.9998 49.452C74.5511 49.74 74.9712 50.3289 75.3125 51.0357L75.2994 51.0226ZM77.0715 60.59C77.9642 61.8857 77.6491 63.7311 76.9009 64.9876C76.0345 66.5189 74.6561 67.4481 73.0415 67.7492C74.9056 68.2596 76.7434 67.5005 77.8854 65.5504C79.0275 63.5217 77.8854 60.9303 77.0715 60.5769V60.59ZM58.7854 49.3997C57.7352 50.0672 57.4333 51.4545 58.1028 52.5016C58.7723 53.5486 60.1637 53.8496 61.2139 53.1821C62.2641 52.5146 62.566 51.1273 61.8965 50.0803C61.227 49.0332 59.8355 48.7322 58.7854 49.3997ZM77.1897 54.792C77.531 55.3678 77.6885 56.0353 77.5704 56.6636C77.4522 57.3049 77.0059 57.9069 76.4021 58.4697C77.1897 58.3127 78.0036 57.8022 78.3711 56.9122C78.7518 56.0353 78.5549 55.0276 78.1217 54.2554C77.6623 53.4832 76.9796 52.868 76.1395 52.5539C75.3256 52.2267 74.328 52.2529 73.6585 52.7502C74.4855 52.6848 75.1812 52.9204 75.7719 53.2999C76.3495 53.6795 76.8615 54.1899 77.1766 54.7789L77.1897 54.792ZM87.1926 55.8783C89.2929 57.8022 89.503 61.2051 88.676 63.718C87.7571 66.7937 85.7223 68.9795 82.9919 70.1705C86.4969 70.3014 89.4373 68.2203 90.6582 64.3332C91.8527 60.289 88.781 56.1662 87.1926 55.8783ZM127.06 49.6222C126.246 48.9678 125.104 48.6537 124.172 48.9939C125.13 49.2034 125.839 49.7138 126.377 50.342C126.902 50.9833 127.296 51.7294 127.467 52.5146C127.651 53.2999 127.611 54.0983 127.257 54.7789C126.902 55.4725 126.18 55.9961 125.301 56.428C126.246 56.5196 127.362 56.2186 128.071 55.3417C128.806 54.4779 128.937 53.2607 128.714 52.2267C128.464 51.1927 127.887 50.2504 127.06 49.6091V49.6222ZM123.41 62.972C123.279 63.7835 122.964 64.5819 122.478 65.2232C122.006 65.8776 121.376 66.3618 120.628 66.5451C119.879 66.7283 119 66.5451 118.094 66.1655C118.658 66.9377 119.604 67.5659 120.746 67.5398C121.875 67.5267 122.899 66.8199 123.515 65.9823C124.132 65.1185 124.474 64.0583 124.408 63.0113C124.369 61.9773 123.857 60.9041 122.977 60.4329C123.45 61.2967 123.529 62.1606 123.41 62.9851V62.972ZM111.189 68.6523C110.401 68.914 109.548 69.0056 108.761 68.8747C107.96 68.77 107.238 68.4298 106.726 67.8539C106.214 67.278 105.991 66.4142 105.886 65.4457C105.466 66.2964 105.334 67.4351 105.886 68.4167C106.424 69.4114 107.513 69.9872 108.564 70.1443C109.627 70.2883 110.716 70.0919 111.609 69.5553C112.515 69.0449 113.224 68.0895 113.25 67.0948C112.699 67.9062 111.964 68.3774 111.176 68.6523H111.189ZM126.128 54.6218L119.459 55.4595L122.557 57.3834L119.052 56.2186L122.19 58.1556L118.763 57.0169L122.951 63.1422L118.028 58.3912L121.888 64.0322L117.635 59.9356L120.969 64.8044L116.046 60.0665L119.906 65.7074L114.431 60.446L111.517 67.4874L112.791 60.7732L110.178 67.0817L111.281 61.2837L109.023 66.7414L110.296 60.0272L107.684 66.3357L109.128 58.7184C109.062 58.666 108.997 58.6137 108.931 58.5482L101.79 61.0873L107.645 57.5405L101.186 59.8309L106.24 56.7683L100.674 58.7446L106.529 55.1977L100.07 57.4881L106.371 53.6795L99.8603 50.4075L106.476 52.1874L100.359 49.1117L106.069 50.643L100.792 47.9862L107.408 49.7661L101.291 46.6904L107.96 48.4835L107.461 42.0311L109.417 47.6328L108.957 41.717L110.651 46.5465L110.257 41.4421L112.213 47.0438L111.754 41.128L113.972 47.4757C113.972 47.4757 114.025 47.4757 114.051 47.4888L119.341 42.9996L115.797 47.8291L120.365 43.9419L117.306 48.117L121.258 44.7665L117.753 49.5567L122.282 45.7219L118.685 50.6169L126.01 51.1142L119.761 51.8995L126.036 52.3314L120.641 53.012L126.062 53.3785L119.814 54.1637L126.088 54.5956L126.128 54.6218ZM115.77 49.1248C113.224 47.5935 109.916 48.405 108.38 50.9441C106.844 53.4832 107.658 56.7814 110.205 58.3127C112.751 59.844 116.059 59.0325 117.595 56.4934C119.131 53.9543 118.317 50.6561 115.77 49.1248ZM105.702 106.974C73.2121 111.267 46.0126 96.9094 34.8151 93.5981C23.6177 90.2869 7.9832 91.0198 7.9832 100.469C7.9832 109.919 16.3452 112 16.3452 112C16.3452 112 4.78017 111.503 4.78017 101.32C4.78017 91.1376 11.9214 86.4782 24.2215 86.4782C36.5217 86.4782 49.7014 98.7418 78.3711 98.7418C107.041 98.7418 133.374 92.8521 125.878 72.8535C125.878 72.8535 124.92 77.2511 120.89 81.1514C119.866 82.1461 118.54 82.7743 117.123 82.9444C113.696 83.3633 110.375 83.4287 107.579 83.3371C107.041 83.324 106.595 82.9052 106.529 82.3686C106.463 81.832 106.818 81.3346 107.343 81.1906C110.257 80.4315 113.263 79.2798 114.812 77.6307C106.686 80.0782 95.6202 77.0155 95.6202 77.0155L96.2241 79.0442C96.5129 79.9996 96.0141 81.0074 95.082 81.3739C92.6666 82.3031 87.8096 84.0046 81.9811 85.0909C81.456 85.1956 80.9309 84.8815 80.7471 84.371C80.5765 83.8606 80.7997 83.2978 81.2722 83.0492C86.1818 80.4839 88.3084 77.225 87.9802 75.4188C84.4096 74.6859 79.7364 72.9713 79.7364 72.9713C79.7364 72.9713 77.7804 82.9052 63.8919 84.9208C63.4193 84.9862 62.9729 84.6983 62.8548 84.2271C62.7367 83.769 62.9861 83.2847 63.4193 83.1146C69.4972 80.798 72.477 78.0888 72.0963 73.3247L69.3921 72.5918C69.3921 72.5918 64.4694 79.463 57.5777 82.0414C52.4712 83.9522 48.4543 85.85 45.3563 87.6692C45.1069 87.8132 44.7787 87.7478 44.5949 87.5253C44.4111 87.2897 44.4374 86.9625 44.6474 86.7531C46.459 84.9993 48.5856 83.5203 48.5856 83.5203C48.5856 83.5203 44.7918 83.2978 39.7903 85.0516C39.5016 85.1563 39.1865 85.0124 39.0684 84.7375C38.9502 84.4627 39.0684 84.1355 39.3178 83.9915C41.4575 82.8397 43.4134 82.1722 43.4134 82.1722C43.4134 82.1722 40.8405 82.1199 37.7425 82.9444C37.4537 83.023 37.1518 82.8659 37.0468 82.5911C36.9418 82.3162 37.0599 82.0021 37.3224 81.8712C40.3679 80.3268 43.2559 80.052 46.4852 80.2221C51.2898 80.4708 56.9476 78.9918 57.8008 73.3509C45.737 78.8741 25.5605 72.1206 25.5605 72.1206C25.5605 72.1206 19.1807 70.6547 15.5313 65.0007C15.4001 64.8044 15.4394 64.5295 15.6101 64.3724C15.7807 64.2023 16.0564 64.1892 16.2533 64.3332C20.1521 67.1471 22.7644 66.833 22.9744 65.8776C23.2107 64.7913 23.6964 60.2628 13.536 59.0587C13.3916 59.0456 13.2472 59.0849 13.1291 59.1765C13.0109 59.2681 12.9453 59.399 12.9321 59.556C12.9059 59.9225 12.919 60.4198 13.0503 60.9303C13.0765 61.0481 13.0503 61.179 12.9453 61.2706C12.8534 61.3622 12.7221 61.3884 12.604 61.336C6.39481 59.1372 3.67748 56.0222 2.15473 53.7318C2.01033 53.5093 1.95782 53.2345 2.03659 52.9727C2.10222 52.711 2.286 52.5016 2.52229 52.3838C12.9978 47.2009 24.6285 49.0856 29.3017 50.0279C33.975 43.8896 37.6637 45.4863 38.8977 45.735C41.1162 41.5599 48.1261 43.4053 47.8767 47.0831C52.7863 41.0757 72.9759 26.116 103.497 28.197C134.017 30.278 138.809 52.4885 134.634 63.9013C144.729 82.5518 138.205 102.668 105.715 106.961L105.702 106.974ZM40.4336 46.5988C41.7988 46.6512 43.1115 47.6851 43.5972 49.2557C43.7416 49.7269 43.7941 50.198 43.781 50.643C45.1987 50.3813 46.2621 49.2819 46.2621 47.9731C46.2621 46.4679 44.8574 45.2377 43.1247 45.2377C41.9695 45.2377 40.9849 45.7874 40.4336 46.5857V46.5988ZM31.3758 55.3678C31.3758 54.2161 30.8245 53.1952 29.9843 52.5408C28.6585 53.6533 26.4925 54.648 24.169 54.8836C24.1428 55.0406 24.1165 55.2108 24.1165 55.3809C24.1165 57.3834 25.7443 59.0063 27.7527 59.0063C29.7612 59.0063 31.389 57.3834 31.389 55.3809L31.3758 55.3678ZM35.524 60.9565C41.5231 61.5847 48.3755 60.0926 51.3948 56.1662L35.524 60.9565ZM36.1935 62.9458C42.0351 64.4117 49.045 63.9013 52.5894 60.446L36.1935 62.9458ZM52.7863 65.197H36.2066C41.7594 67.5267 48.7562 68.0764 52.7863 65.197ZM63.9444 62.7626C64.9814 60.6685 62.1197 59.9225 61.9359 61.6501C60.7807 59.4251 58.7723 61.3753 59.9012 63.0113C57.6039 61.8857 56.9344 64.5557 59.1529 65.3279C56.5144 66.5843 59.7305 68.9795 60.9251 66.676C60.6888 67.1602 60.5707 68.757 61.8834 68.8878C63.1961 69.0187 63.3143 67.9193 63.0386 66.4273C63.1961 67.1471 64.4301 68.5606 65.2308 67.1209C66.0185 65.6813 64.5613 65.1446 64.5613 65.1446C66.7667 65.0138 66.1628 62.1867 63.9444 62.7626ZM62.9729 48.7714C64.5745 45.5518 60.1637 44.4131 59.8881 47.0569C58.1028 43.6409 55.031 46.625 56.7507 49.151C53.2195 47.4103 52.1955 51.5199 55.6086 52.711C51.5523 54.648 56.4881 58.3258 58.3259 54.7789C57.9584 55.5249 57.7746 57.9855 59.7962 58.1818C61.8178 58.3781 61.9884 56.6897 61.5815 54.3993C61.8178 55.5118 63.7212 57.6844 64.942 55.4595C66.1629 53.2345 63.9181 52.423 63.9181 52.423C67.318 52.2267 66.3729 47.8815 62.9729 48.7584V48.7714ZM71.1512 58.7969C71.1512 57.6583 70.2191 56.729 69.0771 56.729C67.935 56.729 67.003 57.6583 67.003 58.7969C67.003 59.9356 67.935 60.8648 69.0771 60.8648C70.2191 60.8648 71.1512 59.9356 71.1512 58.7969ZM76.8221 59.4252C80.8259 58.7184 79.802 51.2844 75.7194 51.5985C77.5966 46.9784 68.4864 44.7927 68.1844 52.6193C75.0106 52.1482 75.4963 62.1606 71.8207 68.3512C77.2422 70.4584 82.7293 62.6186 76.8352 59.4252H76.8221ZM86.2737 53.9151C93.0604 51.0357 88.2165 38.301 81.1278 40.526C82.1911 33.9426 72.3195 32.516 69.4315 37.568C68.3945 39.3742 67.7906 42.7378 69.9566 45.4078C70.0485 44.6094 70.4686 42.9472 71.5581 42.2536L73.2647 44.3477L73.4484 41.9787L74.9974 45.0675C74.9974 45.0675 74.853 41.5992 74.8662 41.3112C74.8662 41.0233 76.4546 45.735 76.4546 45.735L76.7827 43.2352L77.7016 46.8213L78.3449 45.2508L79.0012 47.9731L79.907 44.688L80.3271 49.7007L81.4954 46.5334L81.351 52.0566C81.351 52.0566 82.5062 49.2164 82.6637 48.5097C82.8212 47.8029 82.1124 54.2815 82.1124 54.2815C82.1124 54.2815 83.832 50.9441 83.9239 50.8001C84.0158 50.643 82.6243 56.8599 82.585 57.03C82.5456 57.1871 84.0158 54.2554 84.3046 53.9805C84.5934 53.7057 82.9919 59.0718 82.9919 59.0718L84.8822 56.5196L83.0575 61.035L85.1448 58.9278L83.4776 63.3123L85.2104 61.9773L82.7819 66.9246L86.5494 64.2154C86.5494 64.2154 84.5015 67.9324 81.0622 70.7202C92.6798 74.7513 98.0094 57.1871 86.2868 53.9151H86.2737ZM95.5021 38.3795C98.2851 39.4527 98.902 35.7488 96.6835 35.7095C99.3877 33.9819 96.6835 31.6784 94.7145 33.2882C95.8828 30.2518 92.4041 29.7152 91.6821 32.6077C89.7786 29.4142 87.1007 33.7463 90.1725 35.0028C89.5292 34.7541 87.4814 34.7803 87.4551 36.4686C87.442 38.157 88.8597 38.1701 90.7107 37.6466C89.8049 37.9214 88.1509 39.649 90.0806 40.4867C92.0103 41.3243 92.5222 39.4135 92.5222 39.4135C92.9423 42.1881 96.4735 41.1018 95.4758 38.3664L95.5021 38.3795ZM123.542 48.2087C129.974 39.492 118.619 35.487 114.366 42.9342C114.366 31.9271 102.722 34.4531 103.969 44.4655C94.0581 36.6911 90.8682 53.6402 102.105 53.8627C99.7816 53.8627 93.323 56.4411 95.3183 61.781C97.3136 67.1209 101.816 65.4457 107.067 61.5585C104.547 63.5217 101.436 71.0081 108.551 71.3091C115.665 71.6233 114.957 64.9745 114.957 64.9745C119.656 73.2593 129.488 65.5242 123.03 58.0771C133.138 58.1163 130.552 45.6303 123.529 48.1956L123.542 48.2087ZM106.358 40.4605C106.936 39.793 107.645 39.2564 108.445 38.9423C109.233 38.6151 110.073 38.5104 110.848 38.7591C111.635 39.0077 112.305 39.6621 112.922 40.4867C112.843 39.4789 112.331 38.3795 111.294 37.7905C110.257 37.1885 108.957 37.2539 107.934 37.6858C106.896 38.1308 106.017 38.8899 105.492 39.8715C104.954 40.827 104.836 42.0703 105.347 42.9865C105.4 41.9526 105.807 41.128 106.371 40.4474L106.358 40.4605ZM99.3746 44.4916C100.07 44.1383 100.963 44.1252 101.921 44.2691C101.199 43.654 100.123 43.2483 99.0333 43.5493C97.9306 43.8242 97.1167 44.7403 96.7098 45.7088C96.316 46.7035 96.2241 47.7898 96.5391 48.7976C96.8148 49.7923 97.5631 50.7085 98.5213 50.9833C97.865 50.2504 97.5893 49.4259 97.5106 48.6013C97.4449 47.7768 97.5762 46.9391 97.8912 46.1931C98.1932 45.4471 98.692 44.8188 99.3746 44.4786V44.4916ZM97.7468 60.891C97.3662 60.1843 97.2218 59.399 97.3924 58.653C97.5631 57.8938 98.1275 57.2133 98.8758 56.5719C97.9306 56.7159 96.933 57.2918 96.4604 58.3127C95.9615 59.3335 96.1322 60.5507 96.6179 61.48C97.1167 62.4223 97.9044 63.1945 98.8758 63.6133C99.8209 64.0452 101.002 64.0714 101.829 63.5086C100.845 63.5348 100.031 63.2207 99.3484 62.7364C98.6789 62.2522 98.1144 61.6109 97.7468 60.891Z" fill="#FFDA8B"/>
</svg>
