<svg width="140" height="140" viewBox="0 0 140 140" fill="none" xmlns="http://www.w3.org/2000/svg">
<path d="M94.3337 35.7361C93.7294 35.5815 93.0866 35.5558 92.4824 35.6975C91.891 35.8263 91.3511 36.1225 91.004 36.5733C90.644 37.0371 90.5283 37.7068 90.5026 38.4539C90.1298 37.8357 89.9755 36.9727 90.3483 36.1998C90.6954 35.4141 91.4925 34.9246 92.2767 34.7443C93.0738 34.5768 93.8966 34.667 94.6165 35.0277C95.3236 35.3754 95.9149 36.0452 95.9792 36.8052C95.5293 36.2256 94.9379 35.9036 94.3337 35.7361ZM88.0728 41.7514C88.5099 41.3006 89.0756 40.9528 89.8083 40.8369C89.1141 40.5406 88.2399 40.7209 87.5971 41.1718C86.9415 41.6226 86.4529 42.3053 86.2215 43.0781C85.9901 43.8509 86.0416 44.7783 86.5558 45.461C87.0572 46.1566 87.88 46.4399 88.5999 46.4271C87.9571 46.0535 87.4429 45.6156 87.2114 45.0746C86.98 44.5465 86.98 43.9282 87.16 43.3486C87.3271 42.7561 87.6614 42.2022 88.0857 41.7514H88.0728ZM104.323 37.2045C104.76 36.5347 104.721 35.5815 104.361 34.8345C104.014 34.0616 103.384 33.4433 102.626 33.0569C101.867 32.6834 100.89 32.5675 100.08 32.9796C99.2703 33.3789 98.8204 34.1904 98.7175 34.9375C99.2189 34.3321 99.7589 33.8684 100.363 33.7267C100.954 33.5722 101.597 33.6881 102.163 33.9843C102.741 34.2548 103.256 34.7057 103.654 35.2338C104.04 35.7747 104.31 36.4188 104.297 37.2045H104.323ZM66.6162 77.3793L64.2507 73.3734L67.349 76.7868L65.0092 72.8196L67.6832 75.7692L65.6648 72.343L68.7631 75.7564L66.4233 71.7891L69.7145 75.4215L71.0643 70.6556L70.7301 75.254L71.99 70.8231L71.7071 74.7903L72.787 70.9648L72.4528 75.5632L73.7127 71.1322L73.3398 76.2201C73.3398 76.2201 73.4298 76.2845 73.4813 76.3231L78.1737 74.0175L74.5355 76.8512L78.6622 74.8161L75.5254 77.2634L79.0865 75.5116L75.4482 78.3454L79.575 76.3102L75.5254 79.466L79.9221 82.0679L75.5639 80.5737L79.5236 82.918L75.7568 81.63L79.1765 83.6522L74.8183 82.1581L78.7779 84.5023L74.0469 82.8794L75.3968 84.9016L73.5713 83.2143L74.9468 85.2752L73.147 83.6136L73.7898 88.0961L72.3885 84.103L72.9927 88.3021L71.7843 84.8501L72.3114 88.4696L70.9101 84.4766L71.5143 88.6757L69.8816 84.0129L67.349 87.2202L69.0331 83.5878L66.5519 86.7307L68.0175 83.5621L65.8577 86.3056L67.5547 82.6346L65.0477 85.8033L67.0147 81.5655L66.989 81.514L62.4637 81.2178L66.3848 80.4578L62.3994 80.1873L65.7805 79.5304L62.3351 79.2985L66.2562 78.5386L62.2709 78.2681L66.5519 77.4309L66.6162 77.3793ZM68.5703 82.1452C69.9202 83.4204 72.0414 83.3688 73.3141 82.0164C74.5869 80.6639 74.5355 78.5386 73.1856 77.2634C71.8357 75.9882 69.7145 76.0397 68.4417 77.3922C67.169 78.7447 67.2204 80.87 68.5703 82.1452ZM90.1555 49.57C89.4741 49.892 89.037 50.6777 88.9599 51.4634C88.857 52.262 89.0627 53.0735 89.487 53.7562C89.9112 54.426 90.644 55.0056 91.5053 55.0829C92.3538 55.1602 93.1123 54.7351 93.5751 54.1684C92.8681 54.4002 92.2124 54.5161 91.6468 54.3358C91.0939 54.1555 90.6311 53.7562 90.3226 53.2409C89.9883 52.7257 89.7955 52.1203 89.7312 51.4892C89.6798 50.858 89.7826 50.2011 90.1812 49.57H90.1555ZM93.8194 65.1684C94.3851 64.2926 94.128 63.1075 93.2538 62.5408C92.3795 61.974 91.1968 62.2317 90.6311 63.1075C90.0655 63.9834 90.3226 65.1684 91.1968 65.7352C92.071 66.3019 93.2538 66.0443 93.8194 65.1684ZM105.981 52.9318C106.573 53.3955 107.472 53.4342 108.205 53.1508C108.951 52.8803 109.594 52.3393 110.018 51.6437C110.429 50.9611 110.609 50.0465 110.288 49.2479C109.979 48.4493 109.247 47.9727 108.552 47.8053C109.079 48.3334 109.478 48.8744 109.568 49.454C109.658 50.0337 109.504 50.6133 109.195 51.1414C108.887 51.6695 108.437 52.1203 107.897 52.4552C107.357 52.7772 106.727 52.9833 105.994 52.9189L105.981 52.9318ZM102.407 42.2666L107.485 41.2362L103.371 42.9879L107.755 42.0992L102.986 44.1343L108.064 43.1039L102.986 45.2678L107.55 48.4751L102.793 46.4142L107.035 49.3896L102.921 47.6121L106.585 50.1882L101.829 48.1273L106.071 51.1028L100.813 48.8229C100.813 48.8229 100.71 48.9002 100.659 48.9388L101.379 54.7866L99.7203 49.8662L100.35 55.0185L98.9104 50.7679L99.4632 55.2117L97.8048 50.2913L98.4347 55.4435L96.5835 49.9564L92.1996 53.6789L95.3878 49.5957L91.4411 52.9576L94.1922 49.4283L90.7854 52.3264L93.9737 48.2432L90.0269 51.6051L93.498 47.1613L90.8625 47.8568L93.318 46.543L90.6183 47.2514L93.0481 45.9505L88.0599 44.9715H92.8167L88.1371 44.057H92.251L88.2142 43.2584H92.9709L88.2913 42.331H93.8451L91.3768 38.441L94.6165 41.5711L92.1996 37.7713L95.015 40.502L92.9066 37.1916L96.1721 40.3603L93.7294 36.5218L97.4962 40.1799C97.4962 40.1799 97.5348 40.1799 97.5605 40.1799L99.5532 35.4785L98.9104 39.9352L100.659 35.7876L100.106 39.639L101.623 36.0581L100.98 40.5148L102.729 36.3673L102.034 41.2362L107.151 40.2057L102.382 42.2408L102.407 42.2666ZM101.636 43.1039C100.607 41.1073 98.139 40.3216 96.1463 41.365C94.1537 42.3954 93.3695 44.8685 94.4108 46.865C95.4521 48.8615 97.9076 49.6472 99.9003 48.6039C101.893 47.5734 102.677 45.1004 101.636 43.1039ZM97.162 55.1086C97.1363 55.8686 97.6248 56.6157 98.2804 57.0536C98.9361 57.5044 99.746 57.7105 100.556 57.6461C101.353 57.5817 102.202 57.1953 102.651 56.474C103.114 55.7527 103.089 54.8897 102.806 54.2199C102.69 54.9541 102.471 55.5981 102.06 56.0103C101.649 56.4225 101.083 56.6414 100.479 56.6801C99.8746 56.7445 99.2318 56.6286 98.6533 56.3967C98.0747 56.152 97.5348 55.7527 97.1748 55.1086H97.162ZM110.686 42.0605C110.969 41.3134 110.956 40.4762 110.699 39.7034C110.442 38.9434 109.864 38.2092 109.041 37.9516C108.231 37.6682 107.395 37.9258 106.817 38.3509C107.55 38.2865 108.231 38.338 108.732 38.6343C109.234 38.9305 109.581 39.4329 109.774 40.0125C109.979 40.5921 110.031 41.2362 109.941 41.8544C109.838 42.4727 109.594 43.091 109.067 43.6062C109.799 43.4516 110.416 42.7947 110.674 42.0476L110.686 42.0605ZM115.61 61.3944C116.96 63.1848 117.719 65.9671 116.574 68.0924C117.757 67.4354 119.081 63.2879 117.012 60.3768C114.98 57.5946 112.062 56.7316 109.298 57.8007C111.805 57.9939 114.029 59.2047 115.597 61.4073L115.61 61.3944ZM116.446 80.5222C117.654 79.9039 118.606 78.8606 119.184 77.6112C119.724 76.3618 119.853 74.7903 119.146 73.5151C118.451 72.2271 117.127 71.583 115.906 71.4542C116.896 72.2271 117.68 73.0643 117.963 74.0304C118.246 74.9835 118.104 76.0011 117.68 76.9543C117.282 77.9074 116.6 78.7704 115.777 79.4531C114.942 80.1229 113.913 80.5995 112.653 80.6253C113.746 81.2822 115.276 81.1662 116.459 80.5351L116.446 80.5222ZM102.446 63.8675C103.68 63.6743 104.901 63.9963 105.917 64.8851C106.778 65.5935 107.472 66.8558 107.151 68.0151C107.652 67.5643 107.807 65.4003 106.47 64.2282C105.171 63.1204 103.654 63.0303 102.446 63.8675ZM106.135 82.6733C105.853 83.8712 106.405 85.2237 107.318 86.1124C108.231 87.0398 109.465 87.6066 110.764 87.7612C112.049 87.9028 113.528 87.5551 114.479 86.5375C115.443 85.5328 115.662 84.1417 115.417 82.9824C115.006 84.1159 114.466 85.0691 113.669 85.6101C112.885 86.1382 111.908 86.3056 110.931 86.1897C109.941 86.0995 108.964 85.726 108.115 85.1721C107.267 84.5925 106.534 83.8068 106.135 82.6604V82.6733ZM28.3825 37.4492C30.5552 33.7138 37.5488 24.0662 46.3937 29.5147C49.402 28.2138 52.8089 28.2138 56.4342 30.7126C67.5161 29.3602 70.1001 41.3006 70.1001 41.3006C70.1001 41.3006 75.1783 38.3895 79.3179 42.3439C79.1122 32.078 85.0131 31.4468 88.6385 28.0335C92.2638 24.6072 101.276 23.5767 105.518 27.6213C109.761 31.6658 111.625 32.2841 116.909 35.1951C122.193 38.1061 127.991 48.6812 128.916 58.9471C129.842 69.213 122.81 69.1099 121.974 86.0223C121.64 92.8619 115.353 95.1547 115.353 95.1547C115.353 95.1547 115.147 98.5809 111.316 100.449C111.625 107.816 108.411 109.993 101.79 111.552C95.1693 113.11 93.2023 108.435 96.3006 105.743C99.3989 103.051 96.6092 101.595 87.1857 100.346C77.7623 99.0962 79.5236 106.464 77.0424 109.684C74.5612 112.904 63.3765 107.198 59.2369 114.244C56.6785 118.61 45.3138 114.038 47.9493 109.207C44.0668 110.766 35.9932 107.185 38.6287 103.295C24.3457 103.141 34.1291 97.0739 28.3825 90.3759C22.6359 83.6909 27.6112 79.0152 24.1915 73.7212C20.7718 68.4273 26.0556 57.8522 26.0556 57.8522C26.0556 57.8522 17.8278 70.7715 12.8525 60.9693C7.87723 51.1672 26.2099 41.2104 28.3825 37.475V37.4492ZM46.7666 41.8029C45.5709 41.8029 44.5939 42.7818 44.5939 43.9797C44.5939 45.1776 45.5709 46.1566 46.7666 46.1566C47.9622 46.1566 48.9392 45.1776 48.9392 43.9797C48.9392 42.7818 47.9622 41.8029 46.7666 41.8029ZM48.0907 55.7913C47.2936 55.8557 46.4709 55.7527 45.7252 55.3791C44.9539 55.0185 44.3111 54.3358 43.7711 53.4728C43.7454 54.4904 44.1568 55.5723 44.9539 56.3967C45.7638 57.2082 46.8951 57.6977 48.0393 57.8136C49.7363 57.9939 51.4461 57.4529 52.8089 56.4611C53.6188 57.6848 54.8272 58.6122 56.19 58.9986C57.1542 59.3077 58.2084 59.3077 59.1469 59.0373C60.0853 58.7539 60.8953 58.2 61.4352 57.4787C60.5867 57.7878 59.7768 57.9553 58.9926 57.9037C58.2212 57.8651 57.5141 57.6204 56.8842 57.2855C55.6372 56.577 54.7115 55.392 54.3901 54.104C54.2359 53.447 53.5674 53.0477 52.9117 53.2023C52.6674 53.2667 52.4489 53.3955 52.2946 53.5758L52.2561 53.6145C51.189 54.8124 49.7106 55.6754 48.1036 55.8042L48.0907 55.7913ZM51.6518 47.5219C50.829 47.7409 50.4691 48.7971 51.0219 49.454C52.526 51.2444 54.6087 51.1028 55.92 50.214C56.5628 49.776 56.6657 48.7842 56.0614 48.2948C54.9815 47.4189 53.0274 47.1613 51.639 47.5219H51.6518ZM57.2185 38.0933C56.9999 35.4141 55.8429 32.7993 53.7602 31.1119C53.8888 32.4644 54.1844 33.6366 54.3259 34.8216C54.5058 35.9937 54.6601 37.1272 54.7373 38.2736C54.8144 39.42 54.853 40.5664 54.853 41.7514C54.8787 42.9493 54.7758 44.1729 54.8915 45.5254C56.6271 43.516 57.4113 40.7724 57.2056 38.0933H57.2185ZM60.291 45.1132C59.0954 45.1132 58.1184 46.0922 58.1184 47.2901C58.1184 48.488 59.0954 49.4669 60.291 49.4669C61.4866 49.4669 62.4637 48.488 62.4637 47.2901C62.4637 46.0922 61.4866 45.1132 60.291 45.1132ZM77.0681 50.9868C76.9909 50.2784 76.8367 49.6859 76.6181 49.0805C76.181 47.8826 75.6025 46.762 74.7926 45.7959C74.0084 44.817 73.0056 43.954 71.7457 43.516C71.1286 43.2971 70.4087 43.2455 69.7787 43.4516C69.1231 43.6062 68.6731 44.0957 68.3132 44.5465C69.3674 43.954 70.4473 44.0184 71.2315 44.6238C72.0543 45.1648 72.6842 46.0149 73.2113 46.9165C73.7127 47.8311 74.1369 48.7842 74.3812 49.7889C74.6383 50.8065 74.7411 51.721 74.5355 52.5325C74.3426 53.3569 73.8412 54.1168 73.1856 54.6063C72.8642 54.8639 72.4914 55.0442 72.1571 55.0958C71.8228 55.1344 71.6171 55.1086 71.4372 54.9798C70.8972 54.4775 70.5244 53.4857 70.7815 52.6484C70.9615 51.7597 71.9385 51.1543 73.1342 51.1028C72.5942 50.8967 71.9643 50.7679 71.3215 50.9224C70.6658 51.0641 70.0616 51.5278 69.6759 52.1332C68.9431 53.3826 69.0588 55.0185 69.9716 56.255C70.5244 57.015 71.54 57.3499 72.3371 57.2855C73.1599 57.2468 73.8669 56.9635 74.4969 56.5899C75.7439 55.83 76.6181 54.5419 76.9652 53.1379C77.1195 52.4423 77.1838 51.7081 77.0809 51.0255L77.0681 50.9868ZM84.576 68.994C84.3703 68.672 84.1903 68.3757 83.9975 68.0666C83.9075 67.7188 83.7275 67.4097 83.6761 67.0361C83.3547 65.5935 83.6889 63.8546 83.9846 62.0384C84.2546 60.2094 84.5245 58.2515 84.2674 56.2808C84.0489 54.3229 83.3804 52.4037 82.3133 50.8065C81.8505 49.9693 81.1563 49.2866 80.5778 48.5524C79.935 47.8697 79.2022 47.2772 78.5079 46.6718C80.6806 49.6601 82.3519 52.9704 82.339 56.4096C82.339 58.1227 82.0691 59.823 81.6705 61.6134C81.3234 63.3909 80.8477 65.3488 81.2463 67.5514C82.4933 72.2271 86.8129 73.7599 89.7055 75.4343C91.1968 76.2845 92.3281 77.4824 93.0995 79.0667C93.8966 80.6253 94.3208 82.4286 94.7579 84.2318C94.8608 82.377 94.7708 80.4836 94.2308 78.6159C93.6909 76.7611 92.4181 74.9449 90.7854 73.8371C89.2041 72.6521 87.5843 71.8793 86.3244 70.7715C85.6816 70.2434 85.1031 69.638 84.576 69.0069V68.994ZM94.9507 62.3089C96.4035 60.1707 93.8194 57.6461 92.3153 60.5314C92.071 58.2902 88.3685 59.2562 89.7184 61.974C86.8515 61.227 86.0673 64.898 88.9213 65.0654C88.9213 65.0654 87.0315 65.761 88.0599 67.6287C89.0884 69.5092 90.6954 67.6673 90.8883 66.727C90.5411 68.6591 90.6826 70.1017 92.3795 69.9214C94.0894 69.754 93.9223 67.6673 93.6137 67.0361C95.1564 70.0373 99.3089 66.9202 95.9021 65.2844C98.769 64.2926 97.9076 60.8148 94.9379 62.2832L94.9507 62.3089ZM105.287 38.3638C106.714 30.8286 98.049 28.3426 97.5219 36.6893C94.6679 30.8286 85.9001 33.3145 90.3354 40.2443C85.1545 37.9516 82.5961 47.303 90.2326 47.7667C85.0002 53.0993 92.0324 59.4494 95.9921 53.3955C95.9921 53.3955 95.1307 58.3932 100.517 58.5091C105.904 58.6251 103.924 52.7901 102.124 51.18C105.904 54.3744 109.221 55.8686 110.982 51.9142C112.756 47.9599 108 45.6929 106.251 45.5769C114.749 45.9634 113.168 32.941 105.3 38.3638H105.287ZM102.78 75.9753C104.991 81.5527 110.969 77.6627 108.45 74.8032C111.458 73.9917 110.314 68.3757 107.254 68.8781C110.674 65.0783 104.747 60.8148 101.392 63.7001C105.608 67.2294 107.807 74.5842 102.78 75.9753ZM118.863 47.6378C119.801 46.2467 118.117 44.598 117.153 46.4786C116.999 45.0231 114.582 45.6542 115.456 47.4189C113.592 46.9294 113.078 49.3252 114.942 49.4283C114.942 49.4283 113.72 49.8791 114.376 51.1028C115.045 52.3264 116.086 51.1285 116.215 50.5231C115.983 51.7854 116.073 52.7128 117.192 52.5969C118.297 52.481 118.194 51.1285 118.001 50.7163C119.004 52.6742 121.704 50.639 119.493 49.5828C121.357 48.9388 120.791 46.6718 118.863 47.625V47.6378ZM107.434 87.5937C111.124 90.8525 118.606 87.0012 115.945 82.0164C122.205 81.8489 122.578 70.3207 116.382 69.8828C124.828 64.0478 115.765 51.4377 107.614 57.8522C111.124 59.1403 113.772 61.5619 113.772 61.5619L110.031 60.4284L113.335 63.7258L111.586 63.1333L114.119 66.186L111.882 65.0654L114.569 68.1825L112.358 66.6497C112.358 66.6497 115.109 70.5139 114.8 70.3722C114.492 70.2306 112.525 68.2727 112.589 68.4015C112.666 68.5174 115.482 73.1158 115.366 73.0257C115.25 72.9355 112.962 70.7329 112.962 70.7329C112.962 70.7329 115.302 75.7306 114.98 75.2025C114.659 74.6744 112.962 72.7294 112.962 72.7294L114.595 77.1088L112.795 74.8934L113.836 79.0281L112.203 76.6451L112.435 79.0023L111.496 77.9203L111.741 81.0374L110.789 79.1182C110.789 79.1182 110.815 83.3173 110.738 83.0984C110.661 82.8665 109.812 80.0585 109.812 80.0585L109.427 82.9567L108.63 81.1147L107.845 83.2658C106.791 83.0082 105.994 81.7974 105.711 81.1791C104.721 83.9098 106.135 86.4473 107.447 87.6066L107.434 87.5937ZM85.6302 91.8572C87.43 90.7108 89.4741 90.0282 91.5825 89.6546C93.7037 89.294 95.8892 89.2167 98.0876 89.4485C100.273 89.6933 102.459 90.1698 104.593 91.1745C103.063 89.3326 100.774 88.1733 98.4476 87.5422C96.0949 86.911 93.6009 86.7693 91.1582 87.1944C88.7284 87.6066 86.3244 88.637 84.4474 90.3115C82.5576 91.9603 81.3234 94.3045 81.092 96.6746C82.3133 94.6265 83.8175 93.0036 85.6302 91.8572ZM64.7906 82.493C60.9981 86.3056 65.3177 92.4755 69.4959 87.1429C69.1231 91.8057 77.0809 91.2776 75.3711 85.185C80.9377 87.8384 83.9717 80.6124 78.1866 79.1697C78.1866 79.1697 82.3133 78.4871 80.9377 74.2493C79.5621 70.0116 75.5768 73.1416 74.8054 74.9835C76.271 71.1708 76.541 68.1696 72.9799 67.8605C69.4188 67.5514 68.9431 71.8664 69.3288 73.2704C67.3233 66.5338 57.6298 71.2868 63.9678 75.9625C57.7198 76.8899 58.1312 84.3349 64.7778 82.4801L64.7906 82.493ZM35.2347 63.6872C35.2347 63.6872 29.5395 67.5256 30.1566 75.2025C33.1649 71.261 36.8932 70.5397 36.8932 70.5397C36.8932 70.5397 31.6094 79.2599 32.2393 87.1429C34.7205 83.4075 37.7288 83.0984 37.7288 83.0984C37.7288 83.0984 29.4496 93.4673 39.5929 100.526C35.9675 91.2905 44.4653 87.7354 48.605 91.3935C47.885 87.452 47.4608 80.0843 54.0945 82.7892C50.2634 74.7001 54.7115 73.2446 56.7814 73.7599C56.2671 69.6123 58.4398 68.2598 61.2295 70.0245C61.7438 64.8335 64.135 63.597 66.8219 66.083C67.9661 63.2879 72.3114 63.3909 72.3114 63.3909C72.3114 63.3909 69.663 62.3991 68.0303 60.8405C67.1176 59.9647 65.7548 59.7457 64.6621 60.3768C56.7942 64.9881 45.0439 65.2844 38.5644 58.8054C36.3018 56.5513 32.4964 57.1309 30.9666 59.9389C29.7195 62.2059 28.9353 64.9495 28.9353 66.8172C32.0465 62.7726 35.2476 63.7001 35.2476 63.7001L35.2347 63.6872ZM18.9591 52.6871C19.1262 53.2667 19.3705 53.7948 19.679 54.2585C19.9876 54.7222 20.3347 55.1988 20.8746 55.4951C21.4017 55.8171 22.1731 55.8042 22.623 55.4178C23.073 55.0571 23.343 54.5419 23.4072 54.0267C23.0473 55.0185 21.8645 55.5723 21.2603 54.9154C20.6432 54.3358 20.2447 53.2925 20.1547 52.4552C20.0647 51.5793 20.4761 51.0255 21.196 50.755C21.9417 50.4974 22.8802 50.4587 23.8186 50.5875C24.2815 50.6519 24.7571 50.7421 25.2199 50.858C25.4256 50.9095 25.747 50.9611 26.0427 51.0126C26.3384 51.077 26.647 51.1028 26.9684 51.0899C28.2282 51.1414 29.6938 50.536 30.5552 49.5184C31.4165 48.5137 31.8408 47.3674 32.1493 46.2854C32.445 45.1905 32.5993 44.1085 32.715 43.0394C32.7664 42.5242 32.7793 41.9188 32.8307 41.5066C32.8692 41.0687 32.9464 40.6308 33.0749 40.1928C33.3063 39.3298 33.7049 38.5055 34.1934 37.7713C35.1705 36.2771 36.7389 35.3754 38.3845 35.5944C39.1687 35.7232 39.6701 36.0452 39.8629 36.7794C40.0686 37.5008 39.8758 38.4926 39.4515 39.2396C39.2458 39.6132 38.9373 39.9481 38.7059 40.0125C38.3459 40.0898 37.8317 40.0125 37.4845 39.8322C37.1117 39.6518 36.9446 39.2912 37.1631 38.8661C37.3817 38.4539 37.7802 38.1061 38.2045 37.8099C37.7288 38.0031 37.2403 38.2221 36.8546 38.66C36.6746 38.8919 36.5332 39.201 36.5846 39.5617C36.636 39.9094 36.8546 40.2057 37.086 40.3989C37.5874 40.7853 38.1402 40.9785 38.7959 40.9785C39.6058 40.8884 40.0686 40.386 40.4414 39.9352C41.1485 38.982 41.5856 37.8228 41.4442 36.5089C41.3928 35.852 41.0585 35.1436 40.5314 34.6541C40.0172 34.1131 39.3487 33.8942 38.7316 33.7138C37.536 33.4176 36.1861 33.5722 35.0548 34.1131C33.9234 34.6412 32.985 35.4656 32.2779 36.4059C31.5579 37.3462 31.0566 38.4282 30.7223 39.5359C30.5552 40.0898 30.4266 40.6694 30.3752 41.2619L30.2209 42.8205C30.0538 44.7655 29.6938 46.7877 28.7553 48.0114C28.2925 48.591 27.6883 48.8873 26.8912 48.9388C26.6984 48.9646 26.4927 48.9646 26.2741 48.9259C26.0556 48.9002 25.8756 48.8873 25.5671 48.8486C25.0271 48.7714 24.4743 48.7198 23.9086 48.6941C22.7902 48.6683 21.6074 48.7456 20.4504 49.3381C19.8847 49.6472 19.3448 50.1367 19.0491 50.7807C18.7662 51.4248 18.7534 52.1332 18.9077 52.7257L18.9591 52.6871ZM108.501 74.0175C109.015 73.5795 109.362 72.9613 109.491 72.2915C109.607 71.6217 109.491 70.8488 109.002 70.3078C108.514 69.7669 107.807 69.5994 107.202 69.6896C107.768 69.9472 108.244 70.2692 108.501 70.6943C108.745 71.1193 108.797 71.6345 108.694 72.1369C108.604 72.6521 108.385 73.1416 108.064 73.5667C107.73 73.9917 107.292 74.3395 106.688 74.4941C107.292 74.6873 108.012 74.4554 108.514 74.0046L108.501 74.0175ZM105.004 77.2376C104.528 77.0573 104.078 76.7611 103.757 76.2458C103.757 76.8512 104.181 77.4437 104.721 77.7786C105.274 78.1264 105.93 78.2552 106.585 78.1779C107.228 78.1007 107.897 77.7529 108.244 77.1475C108.591 76.555 108.54 75.8465 108.282 75.3184C108.218 75.9109 108.064 76.439 107.742 76.7868C107.421 77.1346 106.971 77.3278 106.483 77.3922C105.994 77.4566 105.48 77.3922 105.004 77.2248V77.2376Z" fill="white"/>
</svg>
