<svg width="140" height="140" viewBox="0 0 140 140" fill="none" xmlns="http://www.w3.org/2000/svg">
<path d="M66.5621 55.3699C66.0426 54.9395 65.627 54.2299 65.6962 53.4272C65.7539 52.6245 66.2965 51.9266 66.92 51.5194C67.5665 51.1123 68.3169 50.9261 69.0673 51.0076C69.8061 51.0774 70.5334 51.4961 70.8451 52.136C70.2564 51.7637 69.6445 51.6706 69.0557 51.7172C68.4669 51.7753 67.9012 51.9615 67.4164 52.2872C66.9315 52.5896 66.5621 53.0201 66.4004 53.5436C66.2388 54.0787 66.3427 54.6952 66.5621 55.3583V55.3699ZM67.7281 58.9296C67.5665 58.348 67.5549 57.7198 67.6819 57.1032C67.8204 56.4983 68.1091 55.905 68.6632 55.4397C67.9359 55.5444 67.2894 56.1493 66.9892 56.859C66.666 57.5802 66.6198 58.3945 66.8161 59.1739C67.0239 59.9301 67.5318 60.6978 68.3169 61.0119C69.0903 61.3377 69.9216 61.1515 70.5103 60.7676C69.783 60.7793 69.125 60.6862 68.6632 60.3605C68.2014 60.0348 67.8897 59.5229 67.7396 58.9413L67.7281 58.9296ZM43.7614 92.8398L45.7471 93.5145L43.6114 93.3167L44.8005 95.6433L43.4267 93.8867L44.4426 95.876L43.2535 94.3637L44.1309 96.0854L42.7571 94.3288L43.773 96.318L42.3068 94.4451L42.2837 95.748L41.9951 94.4684L41.972 95.7829L41.695 94.5382L40.6098 96.9346L41.1524 94.5614L40.148 96.7717L40.6098 94.7243L39.7439 96.6321L40.2865 94.259L39.2821 96.4693L39.8825 93.8402L37.2272 94.2474L39.4899 93.3981L37.1002 93.7704L39.0512 93.0375L36.9848 93.3516L39.2475 92.5024L36.8578 92.8747L39.4322 91.9091C39.4322 91.9091 39.4322 91.851 39.4438 91.8161L37.3773 90.1176L39.513 91.246L37.6428 89.7105L39.4899 90.6877L37.8737 89.3615L40.0094 90.4899L38.1392 88.9543L40.4366 90.1642L40.2403 87.5816L40.9099 89.9199L40.7252 87.4886L41.3024 89.5127L41.1408 87.4188L41.8104 89.757L41.6257 87.3257L42.2953 89.6872L44.154 88.3494L42.8148 89.9781L44.5234 88.7449L43.3689 90.1525L44.8466 89.0939L43.5075 90.7226L45.2161 89.4895L43.7037 91.3391V91.3624L46.0357 92.1418L43.9231 91.9557L45.9318 92.6304L44.1078 92.4675L45.8395 93.0492L43.7499 92.863L43.7614 92.8398ZM43.5421 92.1534C43.5421 91.0948 42.6878 90.2456 41.6488 90.2456C40.6098 90.2456 39.7555 91.1064 39.7555 92.1534C39.7555 93.2004 40.6098 94.0612 41.6488 94.0612C42.6878 94.0612 43.5421 93.2004 43.5421 92.1534ZM60.0394 68.5152C60.5473 68.5966 61.0437 68.806 61.4478 69.1085C61.8519 69.3993 62.1636 69.8065 62.279 70.2834C62.3945 70.7604 62.2675 71.3071 62.0366 71.8771C62.5215 71.5281 62.9255 70.9232 62.9024 70.2136C62.9024 69.504 62.4637 68.8526 61.9327 68.457C61.3901 68.0615 60.732 67.8521 60.074 67.887C59.4275 67.9103 58.7464 68.2244 58.4462 68.7828C58.9888 68.4919 59.5314 68.4454 60.0509 68.5152H60.0394ZM117.993 68.4105C117.855 70.772 113.583 71.7724 109.6 71.4932C105.618 71.2024 101.358 70.5626 97.5825 72.4239C93.8189 74.2852 81.3046 77.5075 76.8945 78.0891C72.4845 78.6592 57.488 86.8255 56.703 97.0044C56.2181 92.5024 53.1472 89.2801 50.3072 87.8725C50.2264 87.8259 50.1225 87.8608 50.0648 87.9423C50.0186 88.0237 50.0302 88.1284 50.0994 88.1866C54.7057 91.9673 56.7838 98.4818 55.2022 103.461C53.6321 108.416 48.3678 110.08 42.1567 109.417C41.187 109.312 40.4251 110.208 40.679 111.162C41.4987 114.221 44.5811 118.211 42.5954 124.307C41.9143 126.401 38.982 126.436 38.2662 124.354C36.6615 119.654 36.142 115.152 36.142 115.152C36.142 115.152 33.6484 122.888 35.5763 126.11C37.4927 129.332 39.5592 128.693 39.4899 131.415C39.4207 134.137 32.9441 134.707 31.7435 133.136C30.7737 131.868 29.8386 121.701 29.5962 117.095C29.5269 115.838 30.0003 114.617 30.8661 113.709C33.2443 111.185 35.2415 107.486 35.2415 107.486C35.2415 107.486 34.1794 102.751 35.103 101.902C36.0266 101.041 41.7873 103.333 43.9923 100.401C40.6559 101.623 35.888 99.6102 35.103 97.3883C32.2745 101.122 36.0265 108.405 27.6913 110.429C25.8557 110.871 24.3896 108.986 25.2554 107.3C25.6364 106.567 26.2829 105.683 27.345 104.624C32.2515 99.7497 31.0393 89.5825 30.97 86.209C30.9007 82.847 33.6714 71.7375 52.1544 62.7801C70.2102 52.6827 61.6094 42.1432 64.4609 36.1988C64.4609 36.1988 58.6309 38.7115 54.1516 35.1285C49.6723 31.5456 42.9071 23.2629 38.22 22.6929C50.0994 21.4714 50.8037 19.4706 58.6309 22.7627C66.4582 26.0548 68.4438 30.929 68.4438 30.929C68.4438 30.929 71.2146 28.9282 73.2118 28.998C71.7918 21.832 71.8611 16.7484 79.2612 12.8049C86.6613 8.86128 87.2269 8.50065 87.8619 7C89.709 16.1668 86.6497 25.7058 79.1111 30.5684C84.7333 32.9299 86.719 42.0269 82.3782 41.5267C80.4272 42.8063 78.3607 43.0971 76.9291 42.5388C76.8368 42.5039 76.7444 42.5388 76.6982 42.6318C76.6521 42.7132 76.6752 42.8179 76.756 42.8761C78.453 44.051 81.0737 43.5625 82.0896 42.5388C83.0824 43.26 84.2946 42.3992 84.2946 42.3992C84.2946 42.3992 83.6597 44.9119 79.5267 45.6215C82.967 48.6112 84.0291 54.3811 85.0681 57.0102C85.3567 57.7547 85.0219 58.6039 84.2831 58.8831C81.5008 59.9184 78.8917 58.7086 75.8439 55.7654C75.7747 55.6957 75.6592 55.6957 75.59 55.7654C75.5207 55.8352 75.5092 55.9399 75.5669 56.0214C78.0836 59.2902 80.8889 61.2446 84.006 60.0929C87.7003 58.7319 90.7596 54.1485 95.1004 52.7874C99.4412 51.4264 104.775 51.1355 105.837 53.6482C106.899 56.161 102.212 58.8017 96.5896 60.0929C90.9674 61.3842 84.3639 66.8284 81.7317 71.1326C88.3468 65.0369 100.215 66.2584 103.99 66.4794C107.753 66.6888 112.81 66.4794 114.438 66.049C116.077 65.6186 118.132 66.049 117.993 68.4105ZM80.4733 39.7585C81.1891 40.0028 81.928 39.9679 82.078 39.9679C82.2512 39.9679 82.6553 39.9213 83.2671 39.1303C83.5673 38.7464 83.3941 38.1648 82.9208 38.0484C82.2858 37.8856 81.3738 37.9554 80.3233 38.7464C79.9654 39.014 80.0462 39.6189 80.4733 39.7585ZM77.2524 26.6365C78.0374 22.7627 86.6382 19.9708 85.4953 12.3744C85.4953 14.7359 74.8973 17.9583 77.2524 26.6365ZM63.5258 30.7196C56.5529 22.1927 51.7272 25.7756 46.2435 24.275C52.6393 27.3577 55.2022 33.3022 63.5258 30.7196ZM69.2173 36.4198C69.2173 37.1876 69.8407 37.8158 70.6027 37.8158C71.3646 37.8158 71.988 37.1876 71.988 36.4198C71.988 35.652 71.3646 35.0238 70.6027 35.0238C69.8407 35.0238 69.2173 35.652 69.2173 36.4198ZM65.5577 44.1557C65.8001 44.9817 66.4697 45.668 67.197 46.0635C67.9359 46.4707 68.7556 46.6103 69.5406 46.5987C69.9331 46.5987 70.3256 46.5289 70.7066 46.4591L71.2723 46.2962C71.4339 46.2497 71.5724 46.2031 71.711 46.1566C72.2882 45.9589 72.9116 45.8658 73.5466 45.7727C74.8165 45.6215 76.1441 45.6331 77.541 45.7029C76.3519 44.9352 74.9666 44.528 73.5235 44.4233C72.7962 44.3651 72.0573 44.4349 71.33 44.5745L70.3718 44.7956C70.0832 44.8421 69.8061 44.8886 69.5175 44.877C68.3861 44.9002 67.2894 44.5396 66.793 43.6439C66.539 43.2018 66.412 42.5969 66.4582 41.9687C66.4582 41.3289 66.6198 40.6658 66.7352 39.9679C66.2735 40.503 65.8809 41.0963 65.6385 41.8059C65.3845 42.5039 65.2922 43.3414 65.5692 44.1557H65.5577ZM66.6544 55.9981C63.9068 58.348 67.8897 63.6991 70.8336 61.6401C69.1481 67.3519 77.4602 68.8642 79.5267 64.1412C73.3734 62.5358 67.4279 55.905 71.9996 51.9266C66.9315 47.1687 62.5907 54.2532 66.6429 55.9981H66.6544ZM38.5895 77.3795C37.0656 78.1124 38.9242 79.52 39.6169 78.1706C39.4784 78.4498 39.4091 79.392 40.1711 79.4618C40.933 79.5433 41.0023 78.8918 40.8407 78.031C40.933 78.4498 41.6488 79.2757 42.099 78.4381C42.5608 77.5889 41.718 77.2865 41.718 77.2865C42.9995 77.2167 42.6416 75.5532 41.3602 75.8905C41.9605 74.669 40.3096 74.2386 40.1942 75.2391C39.5246 73.9362 38.3701 75.0762 39.0166 76.0417C37.689 75.3787 37.308 76.9491 38.5895 77.3912V77.3795ZM37.7236 83.0448C39.0397 82.5562 40.4481 82.3119 41.845 82.3701C43.2419 82.4166 44.6157 82.754 45.8395 83.4287C47.0632 84.1034 48.1022 85.1271 48.8873 86.3835C48.4024 84.9875 47.4673 83.7079 46.1858 82.8587C44.9159 81.9978 43.392 81.5674 41.8797 81.5092C40.3558 81.4627 38.8319 81.7652 37.4696 82.4282C36.1189 83.0681 34.8836 84.1383 34.3179 85.5226C35.1838 84.3128 36.4306 83.5566 37.7352 83.0448H37.7236ZM45.2392 94.3404C49.0489 94.6894 48.1946 90.5015 45.1583 90.583C48.4947 88.5588 45.6086 85.4761 42.8032 87.7096C43.3574 83.2658 37.6428 85.4063 39.6169 88.8729C39.1898 88.1633 37.2387 86.6743 35.9804 88.268C34.722 89.8617 36.0612 90.9203 38.1854 91.8044C37.1348 91.3973 34.3064 91.8277 35.507 94.0496C36.7077 96.2715 38.5895 94.829 38.5895 94.829C36.9386 97.7838 41.0715 99.3542 42.1452 96.0156C43.9692 99.0983 47.2826 96.0156 45.2276 94.352L45.2392 94.3404ZM48.6679 105.671C48.0099 106.148 47.2595 106.532 46.4629 106.881C47.3287 106.881 48.2177 106.66 49.0142 106.253C49.8224 105.845 50.515 105.217 51.0461 104.461C51.5656 103.705 51.9004 102.821 52.0159 101.925C52.1428 101.029 52.062 100.122 51.7965 99.2844C51.658 101.018 51.277 102.646 50.3419 103.961C49.8916 104.624 49.3144 105.194 48.6679 105.671ZM61.2285 73.3661C66.8276 69.9693 61.9904 64.7926 57.2687 68.5268C58.1922 61.0585 48.5871 64.6647 51.9235 70.4812C51.2077 69.2946 47.9175 66.7935 45.8164 69.4575C43.7153 72.1331 45.9434 73.9129 49.5222 75.4019C47.7559 74.7272 42.9995 75.4485 45.0198 79.1826C47.0401 82.9168 50.2033 80.4972 50.2033 80.4972C47.4211 85.4645 54.371 88.0935 56.1835 82.4864C59.2543 87.6631 64.8188 82.4864 61.367 79.6829C67.7743 80.2761 66.3312 73.2266 61.24 73.3545L61.2285 73.3661ZM80.0231 72.2727C79.0995 72.8427 78.1529 73.308 77.1716 73.4476C76.2018 73.6104 75.2321 73.4476 74.3662 73.0637C72.6345 72.2727 71.2723 70.7022 70.3718 68.9456C70.2448 68.7362 70.1409 68.5036 70.037 68.2825L69.7022 67.5613C69.4598 67.0262 69.1596 66.5143 68.8248 66.0374C68.1206 65.0951 67.2317 64.2924 66.2273 63.734C65.2344 63.164 64.1377 62.815 63.0294 62.6522C61.9327 62.5126 60.7782 62.5475 59.7738 62.9663C60.8475 62.9314 61.875 63.1291 62.8447 63.4781C63.8145 63.8038 64.7149 64.2808 65.5115 64.8624C66.2965 65.4674 67.0008 66.1537 67.5087 66.968C67.7627 67.3752 68.0051 67.794 68.1899 68.236L68.5131 68.9689C68.6286 69.2364 68.7325 69.4924 68.8825 69.7483C69.9562 71.7492 71.6417 73.5872 73.9391 74.3201C75.0705 74.6807 76.3288 74.6574 77.4025 74.2619C78.4877 73.8431 79.3651 73.1219 80.0462 72.2727H80.0231ZM73.9968 66.1653C75.9132 66.6772 77.5295 66.0141 78.3838 64.5251C77.1947 65.351 75.7516 65.6186 74.2508 65.1882C73.004 64.8741 71.6533 63.8969 71.3993 62.5242C71.1107 63.2571 72.0111 65.607 73.9853 66.177L73.9968 66.1653ZM59.162 75.623L62.533 76.763L59.4737 76.4838L62.3829 77.461L58.8734 77.1469L62.2098 78.2753L58.6194 77.9495L60.605 81.8466L58.2961 78.9035L60.0047 82.2421L58.0075 79.6945L59.4737 82.5795L57.1648 79.6363L58.8734 82.975L56.4028 79.8225L56.3682 81.9978L55.8833 79.8457L55.8487 82.0444L55.3753 79.9388L53.5397 83.9754L54.4518 79.9853L52.7663 83.7079L53.5513 80.2645L52.0967 83.4752L53.0087 79.4851L51.3232 83.2077L52.3276 78.7871L47.8598 79.4735L51.6695 78.0542L47.6635 78.6708L50.9537 77.4377L47.4904 77.9728L51.3001 76.5536L47.2941 77.1701L51.6118 75.5532C51.6118 75.5532 51.6233 75.4485 51.6349 75.4019L48.1599 72.5402L51.7503 74.4364L48.6102 71.8422L51.7157 73.4825L49.0027 71.2489L52.5931 73.1451L49.4529 70.551L53.3204 72.5867L52.9971 68.2476L54.117 72.1796L53.8168 68.108L54.7866 71.5049L54.521 67.9801L55.6409 71.912L55.3407 67.8405L56.4721 71.8073L59.6007 69.5505L57.3495 72.2843L60.2125 70.2252L58.273 72.5867L60.7436 70.8069L58.4924 73.5406L61.3554 71.4816L58.8041 74.576V74.6225L62.7177 75.937L59.1735 75.6113L59.162 75.623ZM58.5039 75.9952C58.5039 74.2154 57.0724 72.7845 55.3176 72.7845C53.5628 72.7845 52.1313 74.227 52.1313 75.9952C52.1313 77.7634 53.5628 79.2059 55.3176 79.2059C57.0724 79.2059 58.5039 77.7634 58.5039 75.9952ZM53.7937 84.1848C53.3319 84.3709 52.8355 84.4524 52.3622 84.4059C51.8889 84.3709 51.4386 84.1965 51.1269 83.8707C50.8037 83.545 50.6305 83.0332 50.5497 82.4631C50.3303 82.9866 50.2957 83.673 50.6651 84.243C51.023 84.813 51.6811 85.1155 52.3045 85.1736C52.9394 85.2202 53.5744 85.0689 54.0823 84.7083C54.6018 84.371 54.9828 83.7777 54.9597 83.1844C54.6711 83.6846 54.244 83.9987 53.7937 84.1965V84.1848ZM61.1246 81.8001C60.9629 82.2654 60.6974 82.7074 60.3511 83.0332C60.0163 83.3705 59.5891 83.5915 59.1389 83.6264C58.6771 83.6613 58.1922 83.4519 57.6958 83.1378C57.9382 83.6497 58.4347 84.1267 59.0927 84.2197C59.7507 84.3244 60.4203 84.022 60.8706 83.5799C61.3208 83.1262 61.621 82.5446 61.7018 81.9164C61.7826 81.2998 61.5979 80.6251 61.1361 80.2412C61.3208 80.7996 61.2746 81.3231 61.1246 81.7884V81.8001ZM46.3128 78.5196C46.1281 78.0775 46.0704 77.6006 46.2089 77.1701C46.3474 76.7281 46.7169 76.3442 47.1787 75.9952C46.613 76.0417 46.0011 76.3326 45.6663 76.9142C45.3315 77.4959 45.3661 78.2287 45.6086 78.8104C45.8626 79.392 46.2897 79.8923 46.8439 80.1831C47.3865 80.4855 48.0791 80.5553 48.5986 80.2645C48.0214 80.2412 47.5481 80.0086 47.1671 79.6945C46.7977 79.3688 46.486 78.9616 46.3128 78.5196ZM63.4335 74.7854C62.9371 74.4131 62.2559 74.2503 61.7133 74.4713C62.279 74.576 62.7177 74.8668 63.0525 75.2391C63.3758 75.6113 63.6297 76.0534 63.7452 76.5187C63.8722 76.984 63.8606 77.461 63.6644 77.8797C63.4681 78.2985 63.0525 78.6243 62.5445 78.9151C63.1102 78.95 63.7567 78.7406 64.1608 78.2055C64.5764 77.6704 64.6341 76.9375 64.4725 76.3326C64.2993 75.716 63.9414 75.1693 63.4335 74.797V74.7854ZM49.5568 69.6552C49.1874 69.2248 48.5986 68.8875 47.9291 68.9572C47.2595 69.0154 46.6938 69.4807 46.359 70.0159C46.0357 70.5626 45.8857 71.2024 45.9665 71.8306C46.0357 72.4471 46.3936 73.0637 46.9247 73.308C46.613 72.8194 46.5206 72.2959 46.5552 71.8073C46.6014 71.3187 46.7515 70.8302 47.0055 70.423C47.2479 70.0159 47.6058 69.6901 48.033 69.5505C48.4717 69.4109 48.9912 69.4807 49.5453 69.6669L49.5568 69.6552ZM53.1819 66.5027C53.5859 66.2119 54.0477 66.0141 54.521 65.9559C54.9944 65.8745 55.4677 65.9559 55.8487 66.1886C56.2412 66.4329 56.5183 66.8866 56.7376 67.4217C56.83 66.8633 56.703 66.1886 56.2181 65.7233C55.7448 65.2463 55.029 65.1067 54.4056 65.1998C53.7822 65.3045 53.1934 65.5953 52.7778 66.0723C52.3506 66.526 52.1198 67.189 52.2698 67.7591C52.443 67.2007 52.7778 66.8052 53.1703 66.5027H53.1819Z" fill="white"/>
</svg>
