<svg width="140" height="140" viewBox="0 0 140 140" fill="none" xmlns="http://www.w3.org/2000/svg">
<path d="M96.374 73.0332L100.152 69.8218L101.741 74.5445L101.199 70.1051L102.635 74.3438L102.164 70.5066L103.4 74.1667L102.859 69.7273L104.295 73.9659L103.671 68.9245C103.671 68.9245 103.765 68.8536 103.812 68.83L108.343 70.7899L104.683 68.2161L108.779 69.9871L105.625 67.7674L109.167 69.3023L105.507 66.7402L109.603 68.5112L105.672 65.7485L110.05 63.883L105.672 64.7685L109.779 63.0093L106.001 63.7768L109.544 62.2655L105.166 63.151L109.273 61.3918L104.86 62.2891L105.46 58.0859L103.953 61.6634L104.507 57.8144L103.2 60.9077L103.671 57.59L102.164 61.1675L102.718 57.3185L100.999 61.38C100.999 61.38 100.964 61.38 100.952 61.38L97.7039 58.2276L99.8106 61.5335L96.9978 58.8061L98.8102 61.6634L96.3858 59.302L98.4689 62.5843L95.6796 59.8805L97.8099 63.2337H93.0198L97.0449 64.0247H92.9492L96.4211 64.7095H92.8786L96.9036 65.5005H92.808L97.1037 66.3388L95.0088 67.4604L97.3273 66.8465L95.2089 67.9799L97.4803 67.3778L94.491 71.2032L97.8922 68.3105L95.1383 71.8407L98.0805 69.3377L95.7032 72.3838L99.1045 69.4912L96.3505 73.0214L96.374 73.0332ZM98.2688 67.0944C97.3744 65.3707 98.0452 63.2455 99.7635 62.3481C101.482 61.4508 103.6 62.1238 104.495 63.8476C105.389 65.5714 104.718 67.6966 103 68.5939C101.282 69.4912 99.1633 68.8182 98.2688 67.0944ZM101.917 75.3119C102.423 75.5126 102.965 75.6071 103.483 75.5598C104 75.5244 104.495 75.3355 104.848 74.9813C105.213 74.6271 105.389 74.0722 105.495 73.4346C105.742 74.0132 105.766 74.757 105.366 75.3827C104.977 76.0085 104.236 76.3391 103.553 76.3981C102.859 76.4453 102.164 76.2801 101.6 75.8786C101.035 75.5008 100.611 74.8514 100.634 74.2021C100.952 74.757 101.411 75.0994 101.917 75.3119ZM93.5612 71.0615C93.6318 70.3885 94.0084 69.7037 94.5969 69.4322C94.2556 69.9753 94.1732 70.542 94.2085 71.0851C94.2556 71.6282 94.4321 72.1595 94.7146 72.5964C94.9853 73.045 95.3854 73.3874 95.8562 73.5409C96.3387 73.6944 96.9154 73.5999 97.5156 73.3992C97.1155 73.8833 96.4682 74.2611 95.7385 74.1785C94.997 74.1194 94.3733 73.6235 94.0084 73.0332C93.6436 72.4429 93.467 71.7345 93.5494 71.0497L93.5612 71.0615ZM76.7666 51.4151C79.9796 50.5887 83.1102 51.9346 85.005 55.3114C86.9234 58.8298 84.8991 63.2809 83.4986 63.8594C85.0521 61.6516 84.5578 58.4519 83.2985 56.2677C81.8391 53.5994 79.5206 51.9701 76.7548 51.4151H76.7666ZM91.7605 77.6024C92.3725 77.992 92.549 78.8067 92.1489 79.4206C91.7487 80.0346 90.9484 80.2117 90.3364 79.8103C89.7244 79.4206 89.5479 78.606 89.9481 77.992C90.3364 77.3781 91.1485 77.201 91.7605 77.6024ZM77.4845 77.2836C78.8851 77.4135 80.0973 77.0121 81.1094 76.3863C82.1216 75.7369 82.9807 74.8632 83.5574 73.8597C84.1576 72.8679 84.4401 71.7345 84.2636 70.6483C84.0752 69.5384 83.322 68.4994 82.3099 67.5077C83.6516 67.8028 85.0403 68.7002 85.6406 70.2232C86.2643 71.7345 85.923 73.4819 85.1462 74.7924C84.3459 76.1148 83.1455 77.1656 81.7214 77.6851C80.3209 78.2282 78.6144 78.1573 77.4728 77.2836H77.4845ZM92.0077 64.0601C91.8547 64.5678 91.8547 65.0873 92.0547 65.5478C92.2548 66.0082 92.702 66.386 93.2552 66.7166C92.6314 66.7284 91.9253 66.4923 91.5016 65.8902C91.0661 65.2998 91.0191 64.497 91.2191 63.824C91.431 63.1628 91.8429 62.5607 92.4078 62.1829C92.961 61.7932 93.7142 61.6279 94.3144 61.8995C93.6789 61.9939 93.1963 62.3009 92.8197 62.6905C92.4431 63.0802 92.1607 63.5642 92.0194 64.0719L92.0077 64.0601ZM98.1982 57.4956C97.6686 57.3657 97.1155 57.3421 96.6094 57.4602C96.0916 57.5664 95.6326 57.8262 95.3383 58.2158C95.0323 58.6172 94.9264 59.1958 94.9029 59.8333C94.5851 59.302 94.4556 58.5582 94.7734 57.8852C95.0794 57.2122 95.762 56.7872 96.4329 56.6337C97.1155 56.492 97.8334 56.5629 98.4454 56.8816C99.0574 57.1768 99.5635 57.7671 99.6223 58.4165C99.2339 57.9088 98.7278 57.6373 98.21 57.4956H98.1982ZM109.873 71.9234C110.332 71.6282 110.721 71.2386 110.991 70.7899C111.262 70.3413 111.403 69.8336 111.321 69.3377C111.238 68.8418 110.897 68.3696 110.45 67.9091C111.05 68.0508 111.686 68.464 111.945 69.1488C112.227 69.8336 112.062 70.6246 111.709 71.215C111.344 71.8053 110.803 72.2776 110.156 72.5137C109.52 72.7498 108.755 72.7144 108.237 72.3248C108.873 72.3838 109.414 72.2067 109.885 71.9234H109.873ZM106.248 57.0587C105.907 56.5983 105.46 56.2205 104.954 55.9725C104.459 55.7246 103.918 55.6301 103.4 55.7482C102.882 55.8781 102.412 56.2795 101.976 56.799C102.07 56.1496 102.447 55.453 103.153 55.1106C103.847 54.7564 104.695 54.8627 105.342 55.1815C106.001 55.5121 106.543 56.0552 106.837 56.7164C107.143 57.3657 107.178 58.1804 106.801 58.7589C106.801 58.0859 106.578 57.5192 106.248 57.0587ZM110.615 59.9868C110.179 59.7271 109.603 59.6798 108.967 59.7389C109.461 59.3611 110.179 59.1485 110.874 59.3847C111.58 59.609 112.074 60.2466 112.298 60.8959C112.51 61.5571 112.521 62.2773 112.286 62.9267C112.062 63.5642 111.533 64.1428 110.897 64.2726C111.356 63.824 111.568 63.2927 111.65 62.7614C111.721 62.2183 111.686 61.6634 111.509 61.1675C111.344 60.6716 111.038 60.2347 110.615 59.9868ZM71.8353 81.782C72.718 82.514 73.7537 83.0571 74.8482 83.2932C75.931 83.553 77.0373 83.4821 77.9671 82.9981C78.9204 82.5022 79.6383 81.5104 80.2503 80.3061C80.368 81.6167 79.9561 83.1516 78.7438 84.1433C77.5551 85.1587 75.8604 85.3476 74.4481 85.017C73.0123 84.6746 71.7176 83.8718 70.8232 82.7265C69.9287 81.6049 69.4933 80.0228 69.964 78.7358C70.2583 80.0582 70.9644 81.0382 71.8353 81.7938V81.782ZM40.141 70.4712C41.1767 71.0615 42.2242 71.1914 43.2363 71.0733C44.2367 70.9316 45.2017 70.5774 46.002 70.0107C46.8141 69.4676 47.4261 68.7001 47.6733 67.8028C47.9204 66.8937 47.7086 65.8311 47.2849 64.7095C48.2029 65.4179 48.9561 66.5986 48.8737 67.9681C48.8149 69.3495 47.944 70.5538 46.8847 71.2858C45.8137 72.006 44.5191 72.3838 43.2481 72.2776C41.9888 72.1949 40.7059 71.5338 40.141 70.4712ZM34.2329 71.9116C34.6448 72.7853 35.2568 73.5645 35.9983 74.1312C36.728 74.7098 37.5989 75.0522 38.4933 75.0167C39.3996 74.9813 40.294 74.4736 41.1885 73.7652C40.8119 74.816 39.9527 75.8314 38.6816 76.162C37.4106 76.5162 36.0571 76.0557 35.092 75.3119C34.127 74.5327 33.4091 73.4701 33.1384 72.2776C32.8441 71.0969 33.0677 69.7391 33.8798 68.9127C33.6327 70.0225 33.8327 71.0261 34.2329 71.9116ZM53.9462 77.7441C54.5818 78.4761 55.3703 79.0664 56.253 79.397C57.1121 79.763 58.0419 79.8457 58.8893 79.5741C59.7484 79.2908 60.4781 78.5587 61.149 77.6378C61.0783 78.7477 60.5252 79.9637 59.3836 80.6249C58.2537 81.3097 56.8297 81.2389 55.6881 80.7784C54.5465 80.2943 53.5696 79.4679 52.9812 78.3816C52.3809 77.3309 52.2279 75.9613 52.7929 74.9459C52.8635 76.0793 53.3225 77.0003 53.9462 77.7323V77.7441ZM5.42201 45.1812C6.89316 50.5533 8.63499 59.1367 21.6046 66.1145C28.8309 70.1406 29.9018 71.888 29.9018 71.888C29.9018 71.888 31.7731 79.9401 37.1281 81.1444C37.7989 85.5719 42.6125 91.8767 45.4254 94.9701C48.0617 97.8627 49.6034 103.92 45.496 106.647C45.1429 106.883 45.2371 107.426 45.649 107.521C47.0613 107.863 48.5442 107.58 48.5442 107.58C48.5442 107.58 47.6144 108.477 46.6964 109.103C46.2963 109.374 46.4964 110 46.9789 110C48.6148 110 50.8509 109.622 52.8282 109.185L52.9105 109.162C54.5818 108.796 55.5821 107.048 55.0172 105.431C54.7818 104.77 54.6053 103.99 54.5229 103.105C54.1698 99.1732 57.9124 93.7067 58.2655 91.1093C58.548 89.0785 57.3004 86.7172 56.7355 85.7963C57.5711 86.9061 60.8312 89.905 71.6353 90.1293C84.9226 90.4009 93.3964 87.3547 97.5039 87.8978C95.8091 92.2781 99.9989 95.95 97.7745 100.425C96.2446 103.506 94.4086 104.628 93.0198 104.888C92.4784 104.982 92.3725 105.702 92.8786 105.927C93.879 106.364 95.0206 106.588 95.0206 106.588C95.0206 106.588 94.1261 107.166 93.008 107.414C92.549 107.509 92.4667 108.146 92.8903 108.335C95.3736 109.445 98.0452 108.394 100.164 107.91C101.435 107.615 102.353 106.541 102.47 105.23C102.718 102.467 103.377 98.1933 105.189 96.564C107.955 94.0609 109.65 92.8094 108.755 89.3146C107.861 85.8199 111.521 82.9626 111.521 82.9626C111.521 82.9626 120.265 75.4418 120.524 66.3152C120.618 63.2691 119.865 60.4355 118.818 58.0151C118.076 56.3031 117.123 54.721 116.017 53.2452C117.676 52.0291 119.547 51.3089 121.383 51.3443C121.136 51.6985 120.901 52.0763 120.713 52.4541C120.336 53.1861 120.006 53.9536 119.83 54.8509C119.653 55.7246 119.642 56.7636 120.03 57.7553C120.395 58.7589 121.16 59.5854 121.984 60.1049C122.808 60.648 123.702 60.9313 124.573 61.0848C126.327 61.3682 128.08 61.2501 129.869 60.2938C130.316 60.0458 130.763 59.7034 131.175 59.2076C131.564 58.7353 131.917 58.0151 131.952 57.3303C132.035 56.0316 131.681 55.1579 131.317 54.3196C130.54 52.7021 129.398 51.4388 128.08 50.3762C127.821 50.1754 127.55 49.9865 127.268 49.7976C127.762 49.6914 128.268 49.6087 128.786 49.6205C130.093 49.6441 131.423 49.9983 132.623 50.6595C133.823 51.3325 134.871 52.3125 135.707 53.4813C135.754 53.5522 135.86 53.5758 135.93 53.5285C136.001 53.4813 136.013 53.3987 135.989 53.3278C134.789 50.6005 132.117 48.4044 128.916 47.9676C127.55 47.7787 126.103 47.9676 124.773 48.5343C124.349 48.3926 123.914 48.2746 123.467 48.1919C121.76 47.8377 119.959 47.9794 118.347 48.4871C116.735 49.0066 115.299 49.8685 114.063 50.872L114.04 50.8957C111.78 48.5697 109.085 46.657 106.095 45.2639C94.9735 40.0807 82.8748 41.0016 74.0479 43.5165C63.2086 46.598 49.5681 44.1894 44.2131 41.6392C42.6361 40.8836 40.6706 40.5412 38.5993 40.4585C35.5628 34.3781 38.8935 31.084 35.9983 28.4393C33.2443 25.9245 26.9596 34.7205 28.7014 41.7573C27.4068 42.1351 26.277 42.5601 25.4766 42.9734C21.8635 44.8506 12.4953 44.0478 10.3533 38.6757C10.3533 38.6757 14.2371 35.9956 8.2113 36.5269C2.20904 37.129 3.95087 39.8092 5.42201 45.1812ZM122.996 53.5758C123.243 52.9854 123.561 52.4305 123.949 51.9346C124.655 52.2298 125.338 52.6312 125.962 53.1153C126.903 53.8709 127.727 54.8627 128.233 55.8663C128.48 56.3385 128.621 56.8935 128.61 57.0706C128.61 57.1178 128.621 57.0942 128.574 57.1886C128.516 57.2595 128.398 57.3893 128.21 57.4956C127.456 57.9679 126.15 58.1804 125.044 58.0387C123.914 57.9088 122.972 57.4129 122.678 56.7045C122.301 56.008 122.466 54.7328 122.996 53.5758ZM109.308 50.7304L109.179 50.8957C104.318 48.2982 99.0809 46.6925 93.7966 46.3265C91.1485 46.1257 88.524 46.232 85.8524 46.6452C83.1102 47.1175 80.3327 47.3418 77.5551 47.4717C74.7776 47.6134 72.0236 47.7196 69.2697 47.9676C66.5157 48.1683 63.7617 48.6406 60.9724 48.7114C59.5837 48.7586 58.1831 48.7114 56.7944 48.6051L54.7112 48.4044L52.6281 48.062C51.2511 47.7905 49.8741 47.4599 48.5442 46.9404C47.2143 46.4681 45.9314 45.7597 44.8487 44.8624L44.9664 44.6853C47.4967 45.7715 50.1683 46.1257 52.8635 46.4209C55.5586 46.7161 58.2773 46.7515 61.0077 46.9404C63.7382 47.1293 66.4921 47.3654 69.2461 47.2946C72.0001 47.2002 74.7306 46.8341 77.4375 46.3265L85.4993 44.6853C86.8645 44.4492 88.2886 44.1186 89.7127 44.0478L90.7837 43.9651C91.1367 43.9533 91.5016 43.9651 91.8547 43.9651C92.5726 43.9769 93.2905 43.9651 93.9966 44.0596C96.8448 44.3429 99.6458 45.0749 102.235 46.2084C104.836 47.3418 107.272 48.8177 109.32 50.7422L109.308 50.7304ZM90.1834 52.0999C88.5828 52.0055 89.0183 49.9393 90.6307 50.3643C89.8774 48.8413 91.9488 48.2982 92.09 49.5497C92.9257 47.9322 94.385 49.349 93.573 50.5414C95.2324 49.715 95.7149 51.6631 94.1143 52.2298C96.0209 53.1507 93.7024 54.8981 92.8315 53.2098C93.008 53.564 93.0904 54.7328 92.1371 54.8273C91.1838 54.9217 91.1014 54.1189 91.3015 53.0327C91.1956 53.564 90.2894 54.5911 89.7127 53.5404C89.136 52.4896 90.1952 52.0999 90.1952 52.0999H90.1834ZM100.093 88.0513C100.376 87.2131 100.776 86.4456 101.294 85.749C101.823 85.0642 102.423 84.4385 103.224 83.9662C103.188 84.8989 103 85.7018 102.8 86.4928C102.6 87.2721 102.365 88.0041 102.129 88.7243L101.399 90.8731C101.141 91.6051 100.917 92.3608 100.552 93.2227C99.5164 91.676 99.5517 89.6925 100.105 88.0395L100.093 88.0513ZM94.6675 67.9209C88.0885 67.5195 90.3011 59.4673 94.7616 61.439C90.9484 55.4648 98.4925 53.316 100.952 58.3811C101.411 51.179 108.873 53.316 107.649 59.8215C114.416 55.1461 115.781 66.3742 108.461 66.0436C109.979 66.1499 114.063 68.098 112.533 71.5101C111.003 74.9223 108.155 73.6354 104.895 70.8726C106.448 72.2658 108.155 77.2836 103.518 77.1892C98.8808 77.0947 99.6223 72.7735 99.6223 72.7735C96.221 78.0038 90.1481 72.5137 94.6675 67.9209ZM89.3361 77.26C88.4063 75.3827 90.972 74.7098 91.1367 76.2564C92.1724 74.2611 93.9613 76.0085 92.961 77.4843C95.0088 76.469 95.609 78.8775 93.62 79.5623C95.9739 80.6958 93.114 82.8446 92.043 80.7784C92.2548 81.2153 92.3607 82.6557 91.1838 82.7737C90.0069 82.8918 89.9127 81.9 90.1481 80.5659C90.0069 81.2153 88.9006 82.4786 88.1945 81.1798C87.4883 79.8811 88.7947 79.4088 88.7947 79.4088C86.8175 79.2908 87.3706 76.7523 89.3478 77.2718L89.3361 77.26ZM69.6934 77.0593C69.9405 77.7795 70.6584 79.2435 71.8 79.6686L72.9534 77.3781L73.6007 79.5387L74.4128 76.3509C74.4128 76.3509 74.9777 79.5977 75.0365 79.8693C75.0954 80.129 75.625 75.4418 75.625 75.4418L76.4371 77.6969L76.5665 74.1785L77.4728 75.5126L77.5316 72.8561L79.0263 75.7251L78.4143 70.9788L80.1326 73.6944L78.8851 68.5939C78.8851 68.5939 80.521 70.9907 80.8034 71.6282C81.0977 72.254 79.144 66.3742 79.144 66.3742C79.144 66.3742 81.4037 69.1252 81.5213 69.2551C81.639 69.3731 79.0969 63.883 79.0381 63.7413C78.9792 63.5997 80.9093 66.0318 81.2389 66.2326C81.5684 66.4333 79.0028 61.7696 79.0028 61.7696L81.2624 63.765L78.6732 59.9278L81.0153 61.4745L78.5908 57.7435L80.4621 58.629L77.2256 54.5085L81.2507 56.2677C81.2507 56.2677 78.6144 53.2216 74.8835 51.3207C84.8049 45.252 93.2434 60.4945 83.0749 65.8902C89.9245 67.2007 87.9944 80.011 81.0035 79.3616C83.2985 85.265 74.4716 88.5708 70.7879 84.4621C69.4697 82.9981 68.2457 79.9874 69.6934 77.0711V77.0593ZM52.7929 73.5291C52.8988 74.1667 53.2989 75.4772 54.1934 75.9849L55.4644 74.2375L55.7116 76.1148L56.8061 73.5763C56.8061 73.5763 56.8414 76.3509 56.865 76.587C56.8767 76.8114 57.936 72.986 57.936 72.986L58.3126 74.9695L58.8893 72.0651L59.466 73.293L59.8661 71.0851L60.737 73.6708L60.8547 69.6447L61.9257 72.1359L61.5726 67.732C61.5726 67.732 62.6083 69.9517 62.7731 70.5066C62.9261 71.0615 62.0905 65.9138 62.0905 65.9138C62.0905 65.9138 63.6087 68.5112 63.6793 68.6293C63.7617 68.7474 62.3847 63.8358 62.3494 63.7059C62.3141 63.576 63.5969 65.8665 63.8441 66.0673C64.0912 66.2798 62.5848 62.053 62.5848 62.053L64.1972 64.0129L62.5612 60.4827L64.3031 62.0766L62.7849 58.6527L64.2207 59.6444L62.0787 55.7836L65.1858 57.7908C65.1858 57.7908 63.3969 54.8981 60.5487 52.8201C69.611 49.101 74.6011 62.9149 65.4211 66.0318C70.9409 68.039 67.6338 78.4289 61.9022 76.9648C63.032 82.1834 55.2526 83.7537 52.734 79.8339C51.8395 78.4407 51.2158 75.7724 52.8046 73.5409L52.7929 73.5291ZM42.4831 78.5942C42.9774 80.2943 43.5305 81.8292 44.272 83.2696C45.0134 84.71 45.9197 86.0442 46.8847 87.402C47.838 88.7597 48.8502 90.1647 49.6623 91.7586C50.4743 93.3289 51.0157 95.218 50.6391 96.9772C50.1095 95.2888 49.2268 93.9547 48.2382 92.6441C47.2496 91.3454 46.1197 90.0703 45.1311 88.6417C44.1308 87.2249 43.2363 85.6192 42.7302 83.8836C42.2124 82.1598 42.0947 80.3061 42.4948 78.5824L42.4831 78.5942ZM34.2682 67.5313C34.1976 68.1688 34.2329 69.5502 34.9626 70.2704L36.6573 68.9245L36.3867 70.8017L38.1285 68.6529C38.1285 68.6529 37.4106 71.333 37.3753 71.5574C37.3282 71.7817 39.3878 68.3814 39.3878 68.3814L39.2112 70.4003L40.5529 67.7556L40.7765 69.1016L41.7534 67.0826L41.8828 69.81L43.0833 65.961L43.4364 68.6411L44.2838 64.2963C44.2838 64.2963 44.6839 66.7166 44.6839 67.2952C44.6839 67.8737 45.2606 62.6905 45.2606 62.6905C45.2606 62.6905 46.0138 65.595 46.0609 65.7367C46.108 65.8665 46.108 60.7661 46.108 60.6362C46.108 60.5063 46.7317 63.0566 46.9083 63.3163C47.0848 63.5879 46.7788 59.1131 46.7788 59.1131L47.8027 61.439L47.179 57.59L48.4265 59.609L47.8969 55.8899L49.015 57.2358L47.991 52.9382L50.439 55.7128C50.439 55.7128 49.4975 52.4423 47.3202 49.6678C57.0415 48.5461 58.1243 63.1982 48.4383 63.7059C53.2048 67.1417 47.2143 76.2446 42.1065 73.2693C41.7769 78.606 33.8681 77.992 32.5028 73.5409C32.0203 71.9588 32.138 69.2078 34.28 67.4959L34.2682 67.5313ZM25.9356 49.4316C25.9356 48.2509 26.8889 47.2828 28.0776 47.2828C29.2663 47.2828 30.2196 48.2391 30.2196 49.4316C30.2196 50.6241 29.2663 51.5804 28.0776 51.5804C26.8889 51.5804 25.9356 50.6241 25.9356 49.4316ZM52.0161 56.492C51.8395 53.93 50.6391 51.8638 48.7207 50.4588C51.4747 50.9665 53.3931 53.1153 53.652 56.3622C53.8756 59.7271 50.7686 62.419 49.4857 62.36C51.4512 61.2265 52.2044 58.6054 52.0043 56.492H52.0161ZM62.0905 53.1625C64.8798 52.9028 67.3042 54.4495 68.4341 57.4956C69.5639 60.6834 67.2924 64.1073 66.0449 64.4025C67.6338 62.7732 67.6455 60.0458 66.8923 58.0623C66.0331 55.6419 64.3148 53.9772 62.1022 53.1507L62.0905 53.1625ZM62.3847 74.5209C63.3145 74.1194 64.1501 73.5055 64.7621 72.7499C65.3976 72.006 65.786 71.1087 65.7742 70.1642C65.7742 69.2196 65.2682 68.2515 64.562 67.2952C65.633 67.7202 66.6804 68.6529 66.9747 69.9989C67.2924 71.3449 66.7746 72.7499 65.9625 73.7416C65.1269 74.7334 63.9853 75.4418 62.726 75.6897C61.4903 75.9495 60.078 75.6661 59.2541 74.7924C60.4075 75.0876 61.4549 74.9223 62.3965 74.5327L62.3847 74.5209Z" fill="#FFDA8B"/>
</svg>
