<svg width="140" height="140" viewBox="0 0 140 140" fill="none" xmlns="http://www.w3.org/2000/svg">
<path d="M66.5447 73.6016C67.0185 73.8206 67.3271 74.3682 67.3822 74.9157C67.4483 75.4633 67.305 76.0328 67.0185 76.5037C66.721 76.9746 66.2031 77.3688 65.608 77.4236C65.0129 77.4783 64.484 77.1827 64.1644 76.7884C64.6603 76.9527 65.1231 77.0293 65.5088 76.8979C65.8945 76.7775 66.2141 76.4927 66.4345 76.1423C66.6659 75.7918 66.8091 75.3647 66.8532 74.9267C66.8863 74.4886 66.8202 74.0396 66.5447 73.6016ZM68.0103 70.4367L64.5171 71.1157L66.2251 72.0246L64.3407 71.5318L66.0598 72.4517L64.2195 71.9699L66.6438 75.0472L63.8779 72.7146L66.1149 75.5509L63.7236 73.5359L65.6521 75.989L62.8862 73.6564L65.1121 76.4927L62.0487 73.9082L60.7594 77.7083L61.2001 74.1382L60.0431 77.544L60.4288 74.4558L59.426 77.4017L59.8668 73.8316L58.7097 77.2374L59.2166 73.1855C59.2166 73.1855 59.1395 73.1307 59.1064 73.1088L55.4259 74.6858L58.3902 72.616L55.0622 74.0396L57.6298 72.2546L54.7537 73.4811L57.718 71.4114L54.39 72.835L57.5857 70.6119L54.0374 69.1116L57.5857 69.8234L54.2578 68.4107L57.3212 69.024L54.4451 67.8084L57.9934 68.5202L54.6655 67.1075L58.2469 67.8303L57.762 64.4573L58.9852 67.3375L58.5444 64.2492L59.6023 66.7352L59.2166 64.0631L60.4398 66.9432L59.999 63.855L61.3875 67.1185H61.4316L64.0653 64.5887L62.3572 67.2499L64.6383 65.0487L63.1616 67.3484L65.1342 65.4539L63.4482 68.0931L65.7072 65.9138L63.9771 68.6188H67.867L64.5942 69.254H67.9221L65.1011 69.8015H67.9772L64.7044 70.4367H68.0323H68.0103ZM62.3572 67.907C60.9577 67.1842 59.2387 67.7317 58.5224 69.1116C57.7951 70.5024 58.3461 72.2108 59.7345 72.9226C61.134 73.6454 62.8531 73.0978 63.5694 71.718C64.2967 70.3272 63.7457 68.6188 62.3572 67.907ZM79.9445 65.1801C80.5616 64.7859 80.7379 63.9755 80.3412 63.3622C79.9445 62.7489 79.1291 62.5737 78.512 62.9679C77.8949 63.3622 77.7185 64.1726 78.1152 64.7859C78.512 65.3991 79.3274 65.5743 79.9445 65.1801ZM68.3409 67.7865C67.8891 67.4689 67.272 67.3484 66.7981 67.5565C67.305 67.6332 67.7017 67.8851 68.0103 68.1917C68.3078 68.5093 68.5392 68.8926 68.6604 69.2978C68.7816 69.703 68.7927 70.1301 68.6274 70.4914C68.4621 70.8638 68.0984 71.1704 67.6576 71.4223C68.1646 71.4333 68.7376 71.2361 69.0902 70.7543C69.4428 70.2724 69.4759 69.6263 69.3216 69.1006C69.1563 68.564 68.8147 68.0931 68.3519 67.7755L68.3409 67.7865ZM54.1586 75.6166C53.784 75.3867 53.4644 75.0691 53.255 74.7077C53.0346 74.3463 52.9244 73.9411 52.9905 73.5359C53.0567 73.1307 53.3321 72.7584 53.6958 72.386C53.1999 72.4955 52.693 72.8241 52.4836 73.3826C52.2522 73.9301 52.3845 74.5653 52.671 75.0472C52.9685 75.529 53.4093 75.9014 53.9382 76.0875C54.4561 76.2847 55.0843 76.2518 55.492 75.9342C54.9741 75.978 54.5333 75.8466 54.1586 75.6166ZM57.1009 63.6688C57.3763 63.2965 57.74 62.9898 58.1477 62.8037C58.5444 62.6066 58.9962 62.5189 59.404 62.6285C59.8227 62.727 60.2084 63.0556 60.561 63.4717C60.4839 62.946 60.1753 62.3875 59.6133 62.1138C59.0513 61.829 58.3681 61.9166 57.8392 62.1685C57.3102 62.4423 56.8694 62.8694 56.627 63.406C56.3736 63.9317 56.3515 64.5887 56.6601 65.0487C56.6601 64.5011 56.8364 64.0521 57.1119 63.6798L57.1009 63.6688ZM63.6355 64.0193C64.0653 63.9098 64.5171 63.8988 64.9248 63.9974C65.3435 64.085 65.7182 64.293 65.9606 64.6106C66.2141 64.9392 66.3022 65.3991 66.3132 65.9138C66.5667 65.4867 66.6769 64.8844 66.4234 64.3478C66.181 63.8002 65.619 63.4608 65.0791 63.3403C64.5281 63.2308 63.944 63.2855 63.4482 63.5374C62.9523 63.7783 62.5445 64.2492 62.4894 64.764C62.809 64.3588 63.2167 64.1397 63.6355 64.0193ZM60.6271 78.3325C60.2194 78.4968 59.7786 78.5735 59.3489 78.5297C58.9191 78.4968 58.5224 78.3435 58.2359 78.0588C57.9494 77.774 57.7951 77.325 57.718 76.8213C57.5196 77.2812 57.4976 77.8835 57.8282 78.3873C58.1477 78.891 58.7428 79.1539 59.2938 79.1977C59.8558 79.2415 60.4288 79.0991 60.8806 78.7815C61.3434 78.4749 61.685 77.9602 61.663 77.4345C61.3985 77.8835 61.0349 78.1573 60.6271 78.3216V78.3325ZM88.077 75.299L85.9282 75.1129L87.9668 75.7918L86.1155 75.6276L87.8786 76.2189L85.7518 76.0328L87.7795 76.7118L85.6086 76.5146L86.8097 78.8472L85.4102 77.0841L86.4461 79.0772L85.2339 77.555L86.1265 79.2743L84.727 77.5112L85.7629 79.5043L84.2642 77.6207L84.2422 78.9239L83.9557 77.6426L83.9336 78.9568L83.6471 77.6974L82.5341 80.1066L83.0851 77.7302L82.0603 79.9533L82.5341 77.8945L81.6525 79.811L82.2035 77.4345L81.1787 79.6576L81.7848 77.0184L79.074 77.4345L81.3771 76.5803L78.9417 76.9527L80.9363 76.2189L78.8426 76.5365L81.1456 75.6823L78.7103 76.0547L81.322 75.091C81.322 75.091 81.322 75.0253 81.333 75.0034L79.2282 73.295L81.4101 74.4229L79.5037 72.8788L81.3881 73.8535L79.7462 72.5174L81.928 73.6454L80.0217 72.1013L82.3688 73.3169L82.1705 70.7214L82.8427 73.065L82.6553 70.6338L83.2394 72.6598L83.0741 70.5572L83.7463 72.9007L83.5589 70.4695L84.2422 72.835L86.1375 71.488L84.7711 73.1197L86.5122 71.8823L85.3331 73.295L86.8318 72.2327L85.4653 73.8644L87.2064 72.6269L85.6637 74.4777V74.4996L88.0329 75.2881L88.077 75.299ZM85.5315 75.3319C85.5315 74.2696 84.6719 73.4154 83.603 73.4154C82.5341 73.4154 81.6746 74.2696 81.6746 75.3319C81.6746 76.3942 82.5341 77.2484 83.603 77.2484C84.6719 77.2484 85.5315 76.3942 85.5315 75.3319ZM53.5525 66.0233C53.9052 65.8153 54.379 65.7824 54.8859 65.8262C54.4782 65.5196 53.9052 65.3553 53.3321 65.5415C52.7591 65.7277 52.3624 66.2314 52.1751 66.7571C51.9988 67.2937 51.9878 67.8741 52.1861 68.3888C52.3734 68.9035 52.7922 69.3635 53.3101 69.473C52.9354 69.1116 52.7591 68.6845 52.693 68.2574C52.6379 67.8303 52.671 67.3813 52.8142 66.9761C52.9465 66.5709 53.1889 66.2314 53.5415 66.0233H53.5525ZM104.794 68.1588C103.956 68.6407 103.097 68.7393 102.281 68.6407C101.466 68.5312 100.683 68.2464 100.033 67.7865C99.3721 67.3484 98.8762 66.7352 98.6779 66.0124C98.4795 65.2787 98.6448 64.4245 98.9864 63.5265C98.2371 64.0959 97.631 65.0377 97.6971 66.1438C97.7412 67.2499 98.4575 68.2245 99.306 68.8159C100.177 69.3963 101.223 69.703 102.259 69.6153C103.284 69.5496 104.32 69.024 104.772 68.1588H104.794ZM109.874 66.8994C110.072 67.7974 109.918 68.5969 109.587 69.3087C109.257 70.0096 108.761 70.6448 108.155 71.0938C107.56 71.5647 106.854 71.8385 106.138 71.8056C105.411 71.7727 104.673 71.3675 103.945 70.7981C104.243 71.6413 104.948 72.4627 105.973 72.7255C106.998 73.0102 108.1 72.6379 108.893 72.0356C109.686 71.4114 110.259 70.5572 110.48 69.5934C110.722 68.6516 110.535 67.5565 109.874 66.8885V66.8994ZM95.1626 56.901C95.3059 54.8421 96.2756 53.1775 97.8293 52.0496C95.5924 52.4548 94.0386 54.1851 93.8292 56.7914C93.6529 59.4964 96.1764 61.6647 97.2122 61.6209C95.6144 60.701 95.0083 58.5984 95.1626 56.901ZM132.31 57.7004C129.202 58.6751 125.411 58.6422 125.224 54.9954C124.938 49.5965 118.127 53.1994 114.877 45.3584C108.651 63.9864 118.932 67.447 113.433 73.9192C113.433 73.9192 120.563 76.887 125.874 75.4305C126.789 75.1786 127.759 75.5838 128.232 76.3942C128.949 77.6098 129.367 78.7049 129.61 79.5919C129.941 80.8075 129.511 82.0888 128.563 82.9211C127.307 84.0162 125.632 86.3488 125.588 90.9593C125.511 98.3733 120.662 101.319 119.648 102.184C121.874 104.451 124.42 107.003 127.219 106.773C128.001 106.707 128.75 107.112 129.103 107.813C130.822 111.197 130.943 112.687 130.943 112.687C130.943 112.687 126.095 114.559 122.469 114.198C122.469 114.198 117.477 111.613 116.023 107.726C114.579 103.838 105.819 85.637 96.8376 83.1182C83.8124 87.3673 74.4678 84.9909 71.4264 83.403C73.3989 86.9293 71.6467 91.6821 70.3244 94.3652C69.6302 95.7669 69.7293 97.4096 70.5778 98.7237C72.6716 101.922 76.8039 107.43 81.0355 108.437C83.008 108.908 84.4956 110.54 84.9805 112.489C85.3221 113.858 85.3992 114.91 85.3992 114.91C85.3992 114.91 77.7957 117.713 71.79 114.329C70.5448 108.908 66.0157 101.735 62.8751 98.5266C62.1478 97.7819 61.8723 96.6978 62.1589 95.7122C63.6465 90.6855 59.2938 83.2715 56.2303 81.4536C55.2055 86.9293 47.1061 92.1749 40.8359 94.2118C39.183 94.7484 37.9377 96.0954 37.5631 97.7819C36.4832 102.579 37.6402 106.685 39.1499 107.649C40.9571 108.799 41.6073 112.829 40.9571 114.559C37.1223 115.643 32.4169 114.132 31.8329 113.628C31.1607 111.953 29.8493 110.54 29.1772 109.314C28.7364 108.525 28.9347 107.572 29.5959 106.959C32.7475 104.035 35.6787 95.9531 35.7999 90.587C35.822 89.5576 36.3289 88.5938 37.1333 87.9368C42.7313 83.4577 42.9847 81.9026 42.9847 81.9026C42.9847 81.9026 40.307 73.054 45.8829 66.0014C37.4859 74.4887 19.535 69.3854 19.7554 86.9402C18.0143 81.1142 19.3256 75.9342 24.8905 71.9042C18.2347 73.7768 13.0885 80.6761 12.2951 87.0059C10.8515 82.1874 14.8296 73.3388 19.6782 70.2396C11.7111 74.193 8.31702 79.7343 6.86243 85.2756C5.77149 80.9608 9.5402 74.0506 12.5816 72.1122C5.19847 74.193 1.87055 79.1648 1 81.0375C5.19847 68.3779 17.2099 64.1288 22.1356 64.0631C27.0614 63.9864 29.5959 66.2205 35.822 61.4019C42.0481 56.5834 49.2108 58.5217 50.1585 59.1022C55.7344 54.8531 62.3241 53.2761 71.5806 56.3643C80.8481 59.4526 88.5178 53.5608 88.5178 53.5608C88.5178 53.5608 80.9142 52.2686 87.7244 47.5924C94.5235 42.9162 84.9364 43.9675 91.0523 40.1784C99.306 35.0751 89.3883 34.5714 94.821 32.3373C100.254 30.1033 107.13 30.6837 104.959 28.1649C102.788 25.6461 112.122 24.2772 121.169 27.2998C122.833 27.7269 125.654 26.4346 126.304 25C126.734 26.3689 125.367 28.3073 125.367 28.3073C125.367 28.3073 126.811 27.3764 128.982 27.0807C127.384 28.7344 125.654 31.4722 125.654 31.4722C125.654 31.4722 129.268 35.2832 130.139 41.1093C130.723 45.0627 133.114 49.2789 134.613 52.3671C135.638 54.4698 134.547 56.9886 132.299 57.6894L132.31 57.7004ZM49.1667 65.202C48.1199 66.7571 47.2603 68.4545 46.7424 70.2615C46.2355 72.0465 45.971 74.0177 46.6102 75.7918C46.478 74.8719 46.4779 73.9739 46.6653 73.0759C46.7204 72.6269 46.8636 72.1889 46.9518 71.7508C47.073 71.3128 47.2383 70.8966 47.3705 70.4695C48.0097 68.7831 48.8582 67.1732 49.883 65.6839C50.8968 64.1945 52.0979 62.8256 53.4534 61.6428C54.1256 61.0296 54.8749 60.5149 55.6463 60.044C56.043 59.8249 56.4287 59.5731 56.8474 59.3759C57.2661 59.2007 57.6959 59.0145 58.1147 58.8174C57.6629 58.9269 57.2111 59.0364 56.7592 59.1569C56.3185 59.2993 55.8887 59.4964 55.4479 59.6607C54.6104 60.0768 53.784 60.5477 53.0346 61.1172C51.5139 62.2342 50.2356 63.6579 49.1667 65.191V65.202ZM36.3068 69.2978C34.5327 69.5168 32.7916 69.6482 31.0395 70.0753C30.1689 70.3053 29.2984 70.5791 28.4939 71.0062C27.6895 71.4223 26.9292 71.9918 26.4222 72.7474C27.9209 71.7727 29.5628 71.3347 31.2488 70.9185C32.0863 70.6995 32.9459 70.5133 33.8054 70.2724C34.6539 70.0315 35.5245 69.7577 36.3068 69.2978ZM44.263 63.7236L44.2079 63.6579C42.1803 64.8406 40.0976 65.7167 37.9157 66.4723C36.8358 66.8666 35.7448 67.2718 34.6098 67.5456C33.4748 67.8193 32.3288 67.9727 31.1607 68.1041C28.8466 68.356 26.5104 68.7173 24.2514 69.462C22.0144 70.2396 19.8546 71.4771 18.3559 73.3059L18.411 73.3716C20.2733 71.9589 22.356 71.0062 24.5379 70.3381C26.7088 69.6153 28.9788 69.1444 31.2378 68.564C32.3728 68.2793 33.5079 68.0165 34.6539 67.8084C35.2269 67.6879 35.811 67.6222 36.384 67.5127C36.957 67.3923 37.541 67.2937 38.1141 67.1513C40.3841 66.5161 42.577 65.3882 44.241 63.7236H44.263ZM47.8554 61.2486L47.8774 61.161C46.1914 60.5039 44.3401 60.1425 42.4778 60.3616C40.6155 60.5696 38.8634 61.38 37.3647 62.4204C35.855 63.4608 34.5657 64.7201 33.023 65.6291C32.6263 65.8262 32.2516 66.0781 31.8219 66.2095L31.1937 66.4395C30.9844 66.4942 30.764 66.5271 30.5436 66.5709C29.6841 66.768 28.7915 66.6476 27.8989 66.5709C26.1137 66.3628 24.3065 66.1329 22.4772 66.1329C20.648 66.1219 18.7857 66.3081 17.0115 66.8228C13.4522 67.8741 10.3557 70.0096 7.76604 72.5065L7.82114 72.5722C10.7634 70.5024 13.8599 68.6297 17.2649 67.7098C18.962 67.2389 20.7141 66.9871 22.4882 66.9432C24.2624 66.8994 26.0586 66.998 27.8768 67.0418C28.7694 67.0637 29.7171 67.0856 30.6207 66.8775C30.8411 66.8228 31.0725 66.779 31.2929 66.7133L31.9321 66.4614C32.3728 66.319 32.7585 66.0781 33.1663 65.881C34.7641 65.0158 36.2407 63.9317 37.7614 63.0337C39.2711 62.1028 40.8469 61.3253 42.577 61.0296C44.2961 60.712 46.0812 60.8982 47.8554 61.2486ZM52.098 80.0409C51.9437 81.0703 51.4258 81.9245 50.8417 82.724C50.2467 83.5125 49.5524 84.2353 48.8031 84.8923C48.0648 85.5713 47.2603 86.1736 46.4559 86.7869C45.6294 87.3783 44.7809 87.9368 43.9214 88.5391C45.938 87.9806 47.8113 86.9402 49.3871 85.5385C50.1695 84.8266 50.8858 84.0272 51.4147 83.0963C51.9437 82.1874 52.3183 81.0922 52.098 80.0519V80.0409ZM69.3547 87.5973C69.1673 86.4584 68.8367 85.3304 68.2637 84.3119C67.7127 83.2934 66.9524 82.3954 66.0708 81.6836C66.71 82.6254 67.2389 83.5891 67.6576 84.5966C68.0764 85.6042 68.3409 86.6555 68.5062 87.7287C68.6825 88.8019 68.7265 89.8861 68.7045 90.9812C68.6604 92.0763 68.5833 93.1824 68.3188 94.2775C68.9029 93.2919 69.2224 92.1749 69.3767 91.036C69.542 89.897 69.531 88.7362 69.3547 87.5973ZM66.4234 67.1623C69.52 62.3656 63.3931 60.6353 61.3985 64.6982C61.0238 58.916 54.9631 60.6244 55.9658 65.8591C50.467 62.1028 49.3651 71.1266 55.3047 70.8638C54.0705 70.9514 50.7536 72.5174 51.9988 75.2662C53.233 78.004 55.5581 76.9746 58.1918 74.7515C56.9356 75.8685 55.5471 79.9095 59.3158 79.8329C63.0845 79.7562 62.4784 76.2847 62.4784 76.2847C65.2443 80.4899 70.1701 76.0766 66.5006 72.386C71.8341 72.0575 70.0489 65.5853 66.4234 67.1732V67.1623ZM107.472 28.2963C109.29 28.3292 111.053 28.2306 112.805 28.2525C114.568 28.2525 116.287 28.3292 118.039 28.8001C117.323 28.2306 116.43 27.9021 115.538 27.694C114.645 27.475 113.72 27.4093 112.816 27.3874C111.901 27.3874 110.998 27.4531 110.105 27.6064C109.213 27.7488 108.32 27.9568 107.483 28.2963H107.472ZM97.6641 33.093C99.0195 32.8739 100.364 32.6878 101.697 32.5016C103.042 32.3264 104.375 32.1621 105.719 32.0526C107.064 31.9321 108.397 31.8883 109.742 31.8774C111.086 31.8993 112.43 31.965 113.786 32.1293C112.507 31.6474 111.141 31.3408 109.775 31.2094C108.397 31.0889 107.02 31.0889 105.642 31.1984C102.909 31.4503 100.188 32.0197 97.6641 33.093ZM109.51 52.6738C109.565 51.1954 109.753 49.7279 110.149 48.3152C110.557 46.9025 111.141 45.5226 111.879 44.1975C110.866 45.3365 110.039 46.6616 109.51 48.1181C108.948 49.5636 108.717 51.1187 108.64 52.6519C108.584 54.196 108.717 55.7292 108.97 57.2295C109.191 58.7408 109.642 60.1754 109.775 61.6866C109.973 60.1644 109.742 58.6422 109.642 57.1528C109.521 55.6525 109.433 54.1741 109.499 52.6957L109.51 52.6738ZM95.8128 37.2216C96.9368 36.8602 98.0608 36.5317 99.1737 36.1922C100.298 35.8746 101.411 35.5679 102.535 35.3161C103.659 35.0532 104.794 34.8671 105.94 34.7028C107.086 34.5714 108.243 34.5057 109.433 34.5057C108.298 34.1771 107.097 34.0129 105.896 34.0348C104.695 34.0567 103.504 34.2209 102.347 34.4728C100.033 35.0204 97.7742 35.8855 95.8128 37.2106V37.2216ZM107.042 64.1835C107.714 63.417 107.978 62.3328 107.989 61.3143C108.011 60.2849 107.824 59.2883 107.626 58.3137C107.196 56.3643 106.689 54.5355 106.535 52.5314C106.259 53.5061 106.226 54.5355 106.314 55.5321C106.392 56.5396 106.59 57.5252 106.788 58.4889C106.998 59.4526 107.207 60.3944 107.317 61.3472C107.416 62.289 107.394 63.2417 107.053 64.1945L107.042 64.1835ZM91.2286 41.6897C93.6639 40.8136 96.0552 39.9265 98.4795 39.16C99.6917 38.7767 100.915 38.4372 102.149 38.1196C103.383 37.8349 104.639 37.583 105.918 37.3859C104.628 37.2435 103.317 37.2763 102.017 37.4625C100.728 37.6487 99.4603 37.9553 98.215 38.3386C95.7466 39.138 93.3554 40.2003 91.2286 41.6897ZM91.1845 45.8402C92.2204 45.2598 93.2452 44.7122 94.27 44.1647C95.3059 43.6281 96.3307 43.1133 97.3886 42.6424C98.4354 42.1606 99.5153 41.7554 100.606 41.3721C101.708 41.0217 102.821 40.715 103.989 40.4851C102.81 40.3865 101.598 40.4741 100.43 40.726C99.2619 40.9888 98.1269 41.3831 97.0359 41.8649C94.8761 42.8615 92.8485 44.1647 91.1845 45.8512V45.8402ZM94.1929 47.2201C95.3059 46.5958 96.4409 46.0264 97.5759 45.4788C98.733 44.9532 99.901 44.4494 101.124 44.0114C99.8349 44.1318 98.5456 44.4275 97.3224 44.8655C96.0993 45.3036 94.9091 45.8621 93.7741 46.4754C91.5151 47.7567 89.3883 49.2679 87.6031 51.1516C89.8181 49.8155 91.9779 48.4685 94.2039 47.231L94.1929 47.2201ZM87.8235 62.1576C85.7519 62.9351 87.0522 66.8118 89.212 66.2314C88.672 68.8926 93.2342 69.2321 94.0276 65.7715C90.9311 65.1144 88.5839 59.8578 90.5344 57.339C87.4158 56.7586 84.3413 61.0296 87.8235 62.1576ZM75.184 69.3525C74.9526 68.4326 74.7873 67.4908 74.3465 66.6476C74.027 65.7605 73.465 64.9939 72.9471 64.2273C72.3961 63.4827 71.7129 62.8475 71.0627 62.2342C71.4153 63.0884 71.9002 63.8331 72.2198 64.6544C72.5283 65.4758 72.892 66.2533 73.0793 67.0966C73.3438 67.907 73.4319 68.7502 73.5642 69.5715C73.5862 70.4038 73.6633 71.2361 73.5642 72.0684C73.4319 73.733 73.0352 75.3867 72.4181 76.9965C71.79 78.6063 71.0076 80.1723 70.0709 81.7384C71.5586 80.6542 72.7377 79.1867 73.6523 77.5769C74.5559 75.9561 75.162 74.1163 75.3053 72.2217C75.4155 71.269 75.3053 70.3162 75.2061 69.3744L75.184 69.3525ZM78.2365 66.0891C78.0271 66.5271 77.9059 67.9727 79.107 68.0931C80.2971 68.2136 80.3963 67.217 80.1539 65.881C80.2861 66.5271 81.4101 67.8084 82.1264 66.5052C82.8427 65.202 81.5203 64.7201 81.5203 64.7201C83.5149 64.6106 82.9639 62.059 80.9693 62.5737C81.906 60.6901 79.3164 60.0221 79.1511 61.5662C78.1042 59.5621 76.297 61.3143 77.3108 62.7927C75.2391 61.7743 74.6331 64.1835 76.6386 64.8735C74.2584 66.0124 77.1565 68.1698 78.2365 66.0891ZM87.1624 73.7221C90.5564 71.6961 87.6252 68.5969 84.7601 70.8309C85.3221 66.3738 79.5037 68.5202 81.5203 72.0027C81.0906 71.2909 79.096 69.8015 77.8177 71.3895C76.5395 72.9883 77.8949 74.0506 80.0657 74.9377C78.9968 74.5325 76.1097 74.9596 77.3329 77.1936C78.556 79.4277 80.4734 77.9821 80.4734 77.9821C78.7874 80.9499 82.9969 82.5159 84.0989 79.1758C85.9612 82.264 89.3332 79.1758 87.2395 77.5002C91.1184 77.8507 90.2478 73.6454 87.1624 73.7221ZM94.3802 77.2155C94.9973 75.989 93.3113 75.5509 93.2011 76.5584C92.5179 75.2552 91.3388 76.3942 92 77.3579C90.6556 76.7008 90.2589 78.2668 91.5592 78.7158C90.0054 79.4496 91.9008 80.8623 92.595 79.5043C92.4518 79.789 92.3857 80.7309 93.157 80.8075C93.9284 80.8842 93.9945 80.2381 93.8402 79.362C93.9284 79.7891 94.6557 80.6104 95.1295 79.7671C95.5924 78.9239 94.7328 78.6063 94.7328 78.6063C96.0331 78.5297 95.6695 76.876 94.3692 77.2155H94.3802ZM102.05 73.2402C99.9451 74.401 95.967 72.5393 95.8238 70.1191C93.7411 71.3237 94.1157 75.299 96.6723 74.2258C95.8679 75.7042 98.5566 77.2812 99.5043 75.8795C100.529 77.6755 103.306 75.6166 102.039 73.2402H102.05ZM110.998 70.601C111.394 69.3306 111.295 67.1185 109.554 65.7496C109.609 66.2643 109.576 67.3703 108.992 67.9508L107.615 66.8666L107.835 68.3779L106.425 66.6476C106.425 66.6476 107.009 68.805 107.042 68.9911C107.075 69.1663 105.411 66.4395 105.411 66.4395L105.554 68.0603L104.463 65.9357L104.287 67.0199L103.493 65.3991L103.383 67.5894L102.402 64.5011L102.116 66.6585L101.433 63.1651C101.433 63.1651 101.102 65.1034 101.102 65.5743C101.102 66.0452 100.628 61.8728 100.628 61.8728C100.628 61.8728 100.011 64.2054 99.9782 64.3149C99.9451 64.4245 99.9451 60.3177 99.9451 60.2192C99.9451 60.1206 99.4382 62.1576 99.295 62.3766C99.1517 62.5956 99.4051 58.9926 99.4051 58.9926L98.5677 60.8653L99.0746 57.7771L98.0608 59.3978L98.4905 56.4082L97.5869 57.4923L98.4244 54.0427L96.4299 56.2767C96.4299 56.2767 97.1902 53.6484 98.9644 51.4253C91.0743 50.5273 90.2038 62.2999 98.0497 62.7161C94.1819 65.4758 99.0415 72.7912 103.196 70.4038C103.46 74.6858 109.885 74.2039 110.987 70.6229L110.998 70.601ZM107.626 78.9239C108.673 78.7158 109.587 78.1902 110.392 77.544C110.788 77.2046 111.163 76.8432 111.461 76.4051C111.758 75.978 112.034 75.5071 112.111 74.9705C111.328 75.6604 110.59 76.2518 109.83 76.887C109.466 77.2046 109.08 77.5112 108.706 77.8507C108.331 78.1792 107.956 78.5187 107.615 78.9349L107.626 78.9239ZM109.433 82.3078C109.433 82.3078 111.24 90.2913 115.516 95.4055C116.386 94.398 122.315 86.7759 122.756 81.8041C120.155 83.0306 114.502 83.5344 109.433 82.3078ZM118.987 35.0094C117.907 34.6699 116.684 34.6699 115.527 35.1518C114.381 35.6337 113.433 36.6521 112.981 37.802C112.507 38.9519 112.441 40.2003 112.684 41.3612C112.937 42.5001 113.488 43.6281 114.425 44.2961C114.094 43.2119 114.006 42.2153 114.039 41.2297C114.072 40.2441 114.249 39.3023 114.59 38.4591C114.932 37.6158 115.45 36.893 116.199 36.3345C116.948 35.7651 117.907 35.4037 118.987 35.0204V35.0094ZM122.679 36.8492C122.249 38.7876 122.756 40.0908 124.629 40.8026C125.279 39.9375 125.279 36.9149 122.679 36.8492ZM133.026 53.4294C133.026 52.7723 132.486 52.2467 131.836 52.2467C131.186 52.2467 130.646 52.7833 130.646 53.4294C130.646 54.0755 131.186 54.6121 131.836 54.6121C132.486 54.6121 133.026 54.0755 133.026 53.4294Z" fill="white"/>
</svg>
