<svg width="140" height="140" viewBox="0 0 140 140" fill="none" xmlns="http://www.w3.org/2000/svg">
<path d="M39.941 84.7861C39.3238 85.2724 38.398 85.3098 37.645 85.023C36.8674 84.7487 36.2131 84.1751 35.7811 83.4519C35.3614 82.7412 35.1639 81.7811 35.4972 80.9581C35.8181 80.1227 36.5711 79.624 37.2994 79.4619C36.7563 80.0105 36.3489 80.5716 36.2502 81.1826C36.1514 81.7811 36.3119 82.3921 36.6452 82.9407C36.9661 83.4893 37.4352 83.9632 37.9783 84.3123C38.5338 84.6489 39.188 84.8609 39.9534 84.7861H39.941ZM37.0772 69.8982C37.5957 69.5865 38.2869 69.5241 39.0522 69.5989C38.4597 69.1501 37.5957 68.8882 36.7563 69.175C35.9169 69.4493 35.3244 70.2099 35.0528 70.9955C34.7936 71.7935 34.7812 72.6663 35.0775 73.4519C35.3491 74.2249 35.9786 74.9107 36.7316 75.0728C36.1884 74.5366 35.9292 73.8883 35.8181 73.2399C35.7317 72.5915 35.7811 71.9182 35.9909 71.3197C36.1884 70.7212 36.5464 70.1975 37.0649 69.8857L37.0772 69.8982ZM47.5078 88.3772C46.903 88.6265 46.2488 88.7388 45.6192 88.6764C44.9897 88.6265 44.4095 88.4021 43.9775 87.9781C43.5454 87.5417 43.3232 86.8809 43.1998 86.1203C42.9159 86.8185 42.8665 87.7163 43.3603 88.4644C43.8293 89.225 44.7058 89.6116 45.5328 89.6864C46.3599 89.7487 47.1992 89.5368 47.8782 89.063C48.5571 88.6141 49.0632 87.8285 49.0261 87.043C48.6435 87.7163 48.088 88.1278 47.4955 88.3772H47.5078ZM42.311 66.3695C42.7184 65.8209 43.2615 65.347 43.854 65.0603C44.4465 64.761 45.1008 64.6363 45.718 64.7984C46.3352 64.948 46.903 65.4343 47.4214 66.0578C47.3103 65.2722 46.8536 64.4243 46.0142 64.0129C45.1748 63.5889 44.175 63.7136 43.385 64.1002C42.595 64.4992 41.9531 65.1475 41.5951 65.958C41.2248 66.7436 41.1877 67.7286 41.6445 68.4269C41.6445 67.6039 41.916 66.9306 42.311 66.3695ZM42.8912 47.5165C42.6443 44.3992 40.8051 42.3294 38.1882 41.8431C40.0151 43.1898 41.1631 45.1848 41.3235 47.6412C41.5087 49.6736 40.7927 52.1923 38.9165 53.2771C40.1385 53.327 43.1011 50.7459 42.8912 47.504V47.5165ZM31.1274 51.6063C31.7693 51.5689 32.3248 51.1574 32.6581 50.6586C32.9914 50.1474 33.1518 49.5489 33.1025 48.9504C33.0531 48.3644 32.7445 47.7659 32.2507 47.504C32.5346 47.9778 32.5964 48.4766 32.547 48.9504C32.4853 49.4242 32.3248 49.8731 32.0656 50.2472C31.8187 50.6337 31.4731 50.9205 31.0534 51.0452C30.6337 51.1699 30.1399 51.0701 29.6215 50.8831C29.9548 51.307 30.4979 51.6562 31.1398 51.6063H31.1274ZM26.0541 64.6114C25.3381 64.0752 24.758 63.3146 24.363 62.4792C23.9803 61.6313 23.7951 60.6712 24.0297 59.5989C23.252 60.3844 23.0422 61.6936 23.3137 62.8283C23.5729 63.9755 24.2519 65.0104 25.1777 65.7461C26.1034 66.4692 27.3996 66.9057 28.6093 66.569C29.819 66.2573 30.646 65.2722 31.004 64.2622C30.1523 64.948 29.2882 65.4219 28.4241 65.4593C27.5724 65.4967 26.7453 65.1725 26.0417 64.6114H26.0541ZM51.9517 66.8932C52.5812 66.7311 53.2478 66.7062 53.8526 66.8558C54.4698 66.9805 55.013 67.2922 55.3833 67.7785C55.7536 68.2648 55.877 68.9506 55.9017 69.7236C56.2844 69.0753 56.4449 68.19 56.0622 67.3795C55.6919 66.569 54.8772 66.0578 54.0748 65.8707C53.2601 65.6962 52.396 65.7835 51.6677 66.17C50.9395 66.5316 50.3346 67.2299 50.2605 68.0154C50.7296 67.4044 51.3345 67.0678 51.964 66.9057L51.9517 66.8932ZM36.818 55.5589C37.213 56.6313 37.4228 57.6537 37.1883 58.5265C36.9538 59.3869 36.3736 60.1226 35.5959 60.6463C34.8306 61.1949 33.9048 61.5316 32.9543 61.6687C31.9915 61.7809 30.9916 61.6687 30.0041 61.0951C30.5349 62.1301 31.757 62.7535 32.9667 62.8408C34.1887 62.9405 35.4108 62.5789 36.4353 61.8807C37.4352 61.1824 38.2746 60.0103 38.3363 58.6886C38.4104 57.3669 37.6944 56.2323 36.818 55.5589ZM32.8803 44.7234C33.2876 44.9105 33.6579 45.1973 33.9172 45.5464C34.1887 45.883 34.3492 46.2945 34.3369 46.706C34.3369 47.1299 34.09 47.5539 33.769 47.9778C34.2505 47.8033 34.7195 47.3918 34.8676 46.7933C35.0281 46.1948 34.8059 45.5589 34.4603 45.11C34.1023 44.6611 33.5962 44.3244 33.0407 44.2122C32.4976 44.0751 31.8681 44.1997 31.4854 44.5738C32.0039 44.4491 32.4606 44.5364 32.8803 44.7234ZM58.4446 76.5317L53.2848 77.5417L55.803 78.9008L53.0132 78.1651L55.5561 79.5367L52.8281 78.8135L56.4078 83.4395L52.322 79.9482L55.6178 84.2001L52.0998 81.1826L54.9512 84.8609L50.8654 81.3696L54.1612 85.6215L49.631 81.7437L47.7177 87.4545L48.3719 82.0928L46.6561 87.2175L47.2239 82.5916L45.7427 87.018L46.3969 81.6564L44.6811 86.7811L45.4217 80.6963C45.4217 80.6963 45.3106 80.6215 45.2612 80.5716L39.8299 82.9407L44.212 79.8359L39.2991 81.9806L43.0887 79.2998L38.8424 81.1452L43.2245 78.0404L38.3116 80.1851L43.027 76.8559L37.7808 74.599L43.027 75.6713L38.1018 73.5516L42.632 74.4743L38.3857 72.6414L43.6318 73.7137L38.7066 71.594L43.9898 72.6663L43.2739 67.6039L45.0884 71.9182L44.4342 67.2797L46.0019 71.0079L45.4341 66.9929L47.2486 71.3072L46.5944 66.6688L48.6435 71.569C48.6435 71.569 48.6805 71.569 48.7052 71.569L52.5935 67.7536L50.0754 71.7436L53.4453 68.4518L51.2727 71.9057L54.1859 69.0628L51.6924 73.0279L55.0376 69.761L52.4824 73.8134H58.2224L53.3959 74.7736H58.3088L54.1365 75.5965H58.3829L53.5564 76.5566H58.4693L58.4446 76.5317ZM50.0877 72.7286C48.0263 71.6439 45.4834 72.4668 44.4219 74.5491C43.3479 76.6314 44.1626 79.2 46.2241 80.2724C48.2855 81.3572 50.8284 80.5342 51.8899 78.4519C52.9639 76.3696 52.1492 73.801 50.0877 72.7286ZM117.029 82.2424C120.485 72.0429 121.349 42.7658 104.623 37.9528C113.424 42.7658 118.041 60.3844 113.424 69.7112C114.572 56.4567 104.191 41.5937 93.6618 41.8805C104.907 45.085 122.682 77.3796 87.1689 103.652C87.1689 103.652 111.98 77.8659 92.9335 58.2024C99.7104 69.1251 97.1181 86.7562 87.0208 94.6241C92.7854 86.6066 92.7854 74.3745 87.1689 69.5615C89.9093 75.0977 89.7611 93.0156 77.3678 100.011C85.0087 87.7786 79.3922 82.816 79.3922 82.816C79.3922 82.816 80.5402 93.1652 69.8751 99.4246C73.9115 93.1652 72.7635 87.9158 72.7635 87.9158C72.7635 87.9158 69.3072 100.584 58.9136 98.265C54.8772 101.756 54.1489 109.113 54.0131 111.445C54.1736 112.729 55.445 114.088 56.7905 115.198C57.1731 115.51 56.8275 116.133 56.3584 115.946L54.1983 115.061C53.3589 114.712 52.396 114.861 51.6924 115.447C50.8037 116.183 49.5446 117.28 48.3719 118.44C47.9028 118.901 47.1375 118.44 47.3227 117.791C47.4832 117.268 47.6436 116.769 47.7918 116.357C47.9522 115.896 47.5078 115.447 47.0511 115.622C46.4092 115.859 45.5452 116.17 44.5947 116.482C44.3601 116.557 44.1009 116.445 44.0022 116.22C43.9034 115.996 43.9775 115.722 44.1873 115.597C48.3472 113.003 52.7417 108.702 52.1368 100.148C49.3224 102.118 47.0141 107.579 47.0141 107.579C47.0141 107.579 40.0891 117.629 40.0891 118.939C40.0891 119.549 42.1629 119.35 44.6194 118.839C44.9156 118.776 45.2119 118.963 45.2859 119.263C45.36 119.562 45.1995 119.874 44.9033 119.961C40.8545 121.283 36.1391 123.041 33.6826 126.781C33.5468 126.981 33.3 127.056 33.0778 126.956C32.8556 126.856 32.7445 126.619 32.7939 126.395C33.1272 125.011 33.5715 123.814 33.9295 122.953C34.2134 122.28 33.695 121.545 32.979 121.582C31.4607 121.657 29.0783 121.781 26.7083 122.018C26.4491 122.043 26.2269 121.869 26.1775 121.619C26.1281 121.37 26.2886 121.121 26.5355 121.058C30.4732 120.061 34.4603 119.412 35.1639 118.801C36.2502 117.854 39.2004 114.874 40.0644 113.265C40.9285 111.657 45.9772 104.599 42.0148 95.9333C17.87 81.6689 14.2039 56.6063 21.9806 43.7883C19.339 45.297 16.1172 41.0202 20.7832 38.0152C24.9555 35.3219 23.5853 30.9453 17.6725 32.1423C17.0677 32.267 16.7344 31.4565 17.2652 31.1323C19.1415 29.9976 21.5609 29.3742 21.5609 29.3742C21.5609 29.3742 18.9687 24.5612 22.7829 19.5362C22.6348 20.9951 24.437 23.2519 24.437 23.2519C24.437 23.2519 23.5729 18.5886 28.0414 14.9476C27.9674 16.9177 28.6216 20.5587 29.2635 21.0699C29.5474 17.3541 33.8061 14.586 36.1144 14C36.1144 14 33.9542 17.0549 34.09 18.9502C36.3983 16.4688 40.3607 16.1821 41.8049 16.2569C39.1386 17.5661 37.9783 20.4838 37.9783 20.4838C37.9783 20.4838 42.9529 20.9203 45.2612 17.6409C49.0879 25.7208 42.0889 27.6161 38.9165 26.7432C35.7441 25.8704 31.8434 27.9029 31.8434 27.9029C31.8434 27.9029 49.0755 39.3369 49.4335 57.1176C56.0622 60.1101 60.3209 62.6538 60.3209 62.6538C60.3209 62.6538 55.9881 25.434 92.4768 24.5612C128.966 23.6884 128.682 69.1376 116.992 82.2549L117.029 82.2424ZM25.7702 42.2421C25.6591 42.3045 25.6097 42.4541 25.6467 42.5788C25.6961 42.7035 25.8319 42.7783 25.9553 42.7409C29.7819 41.8556 31.1151 37.3792 28.5722 34.7483C28.4858 34.661 28.35 34.6361 28.239 34.7109C28.1279 34.7732 28.0908 34.9104 28.1279 35.0351C29.2635 38.2396 27.918 41.0202 25.7702 42.2421ZM24.5851 29.0126C24.5851 29.8355 25.2394 30.4964 26.0541 30.4964C26.8688 30.4964 27.523 29.8355 27.523 29.0126C27.523 28.1896 26.8688 27.5288 26.0541 27.5288C25.2394 27.5288 24.5851 28.1896 24.5851 29.0126ZM22.2892 51.0577C22.6225 54.9854 28.9672 55.9704 29.1647 51.4317C30.7818 53.6512 34.9541 50.7958 33.5592 48.4142C36.9044 48.1649 35.5219 41.9803 30.7077 44.1499C33.0161 48.1524 27.1157 51.4567 22.2892 51.0701V51.0577ZM37.9043 54.6113C47.1375 54.1125 46.113 40.0476 36.8303 41.1199C38.9165 43.7883 39.8052 46.9304 39.8052 46.9304L37.4599 44.2621L38.435 48.3893L37.3735 47.105L37.8796 50.6711L36.6822 48.7384L37.2747 52.4417L36.2995 50.2098C36.2995 50.2098 36.5958 54.5115 36.423 54.2497C36.2502 53.9879 35.6577 51.5439 35.6577 51.6686C35.6577 51.7933 35.6577 56.6936 35.6206 56.5689C35.5836 56.4442 34.8553 53.6512 34.8553 53.6512C34.8553 53.6512 34.2998 58.6388 34.2998 58.0777C34.2998 57.5166 33.9172 55.1973 33.9172 55.1973L33.1025 59.362L32.7568 56.7809L31.6088 60.4842L31.4854 57.8657L30.5473 59.7984L30.3374 58.5141L29.066 61.0453L29.2388 59.1126C29.2388 59.1126 27.2761 62.3794 27.3255 62.1675C27.3625 61.9555 28.0538 59.3744 28.0538 59.3744L26.3997 61.4443L26.6589 59.6363L25.0419 60.9206C24.3506 60.2223 24.3136 58.9006 24.3876 58.2896C22.3385 59.9355 22.2275 62.5665 22.6965 64.0877C24.005 68.3645 31.5471 68.9506 31.8681 63.8258C36.7563 66.6812 42.4715 57.928 37.9166 54.6362L37.9043 54.6113ZM56.0869 71.6064C60.6665 64.3994 51.606 61.8059 48.6682 67.9156C48.125 59.2248 39.1757 61.8059 40.6446 69.6488C32.5346 64.0129 30.8929 77.5541 39.6694 77.1551C37.8549 77.2798 32.9543 79.6364 34.7812 83.7512C36.6081 87.8659 40.0398 86.3073 43.9281 82.9781C42.0642 84.6614 40.0151 90.7213 45.5822 90.6091C51.1493 90.4844 50.2482 85.2849 50.2482 85.2849C54.334 91.5941 61.6046 84.9731 56.198 79.4245C64.0734 78.9382 61.4318 69.2124 56.0869 71.594V71.6064ZM68.7271 79.8983C71.7884 77.5042 67.2088 72.8783 63.1476 75.8958C65.8633 79.5117 63.8512 85.5218 59.5926 89.7113C62.3946 93.265 69.1097 90.1103 66.4188 85.634C69.369 86.7188 71.5785 81.2948 68.7271 79.8983ZM78.2319 82.4045C78.1085 81.1452 77.7011 79.8858 76.9852 78.8135C76.2692 77.7536 75.2323 76.8933 74.035 76.5691C74.6398 77.6663 75.0719 78.6265 75.3558 79.6364C75.652 80.6215 75.8248 81.619 75.9236 82.6539C76.0223 83.6764 76.0594 84.7362 76.047 85.821C76.047 86.9183 75.9977 88.0031 75.8989 89.25C76.8617 88.452 77.4542 87.3048 77.8369 86.1327C78.2072 84.9482 78.343 83.6888 78.2196 82.417L78.2319 82.4045ZM84.8606 74.5616C83.9348 72.9531 82.4659 71.594 80.713 70.9207C78.9725 70.2224 76.9235 70.3346 75.4792 71.3197C78.9602 71.2449 81.392 73.2025 82.8732 75.7461C83.6139 77.0304 84.12 78.4519 84.3792 79.9856C84.6384 81.5192 84.6631 83.1153 84.5644 84.8734C86.5641 82.0429 86.7492 77.816 84.8606 74.5741V74.5616ZM91.1684 63.3146C89.613 61.7061 87.5022 60.7211 85.3173 60.4218C83.1448 60.1101 80.8365 60.4966 78.9232 61.6313C76.9975 62.741 75.615 64.7236 75.3311 66.7934C76.5284 65.0977 78.0221 63.9007 79.7132 63.2647C81.392 62.6163 83.2312 62.4917 85.0087 62.7286C86.7863 62.9904 88.5144 63.6014 89.971 64.6737C91.4276 65.7461 92.5632 67.2922 93.2175 69.2623C93.5507 67.2049 92.736 64.8857 91.1684 63.3021V63.3146ZM90.5141 45.6461C88.7613 45.1599 86.8727 45.2471 85.1692 45.6835C83.4411 46.0826 81.8857 46.9554 80.6019 48.0526C79.3058 49.1499 78.1702 50.2721 76.9481 51.332C75.7508 52.3918 74.3065 53.3644 73.2573 54.7235C72.2204 56.0826 71.6649 57.7535 71.381 59.4243C71.1341 61.1076 71.2082 62.8533 71.8377 64.4493H72.1834C72.8623 62.9031 73.3807 61.5066 73.9733 60.16C74.5287 58.8009 75.2076 57.554 75.7384 56.1949C76.2569 54.8357 76.7259 53.2896 77.7258 52.13C78.701 50.9579 80.0712 50.1474 81.5031 49.7235C82.9473 49.312 84.3545 49.0751 85.7 48.9255C87.0578 48.8132 88.3663 49.0128 89.6377 49.2621C92.2176 49.711 94.6617 51.0577 97.3897 52.8906L97.6736 52.6786C96.7478 49.4741 94.0445 46.6187 90.5018 45.6212L90.5141 45.6461ZM105.129 34.0002C101.241 30.8331 95.9948 29.2744 90.8227 29.6111C88.2305 29.7857 85.7 30.5463 83.367 31.6061C81.0093 32.641 78.8861 34.1747 77.1086 35.9952C75.3187 37.8032 73.7387 39.686 72.171 41.6187C70.6157 43.5389 68.9122 45.484 67.7642 47.8033C66.6286 50.1225 66.1472 52.716 66.0361 55.2597C65.9744 57.8158 66.2953 60.3844 67.2458 62.741L67.5914 62.7036C67.9618 60.2099 68.2333 57.8657 68.7271 55.5839C69.1715 53.2896 69.838 51.1075 70.4676 48.8756C71.0848 46.6561 71.739 44.287 73.0721 42.3045C74.3929 40.3219 76.2322 38.7009 78.2689 37.5289C80.318 36.3693 82.4288 35.4466 84.5767 34.6984C86.7369 33.9877 88.9464 33.6012 91.1684 33.3393C95.6369 32.7657 100.192 33.2396 104.994 34.3244L105.142 34.0126L105.129 34.0002ZM60.3332 74.5366C60.0863 73.7262 59.5926 73.0154 58.9136 72.5541C58.2471 72.0803 57.346 71.8932 56.63 72.205C57.383 72.3296 57.9632 72.6912 58.4199 73.1651C58.8643 73.6389 59.2099 74.2125 59.3827 74.8234C59.5679 75.4344 59.5679 76.0703 59.3333 76.619C59.0865 77.1801 58.5557 77.6289 57.9014 78.0279C58.6421 78.0529 59.4938 77.7536 60.0123 77.0304C60.543 76.3072 60.5801 75.3471 60.3579 74.5491L60.3332 74.5366ZM25.7702 53.913C27.3255 54.0003 28.5599 52.529 28.5229 51.9305C28.0044 52.8657 26.7947 53.2272 25.8195 53.14C24.6345 53.0776 23.6717 52.5165 23.0175 51.6312C23.2643 52.9155 24.2642 53.8008 25.7702 53.913ZM56.7411 83.2898C56.6794 83.9382 56.4695 84.5866 56.1363 85.1103C55.803 85.6465 55.3339 86.0704 54.7661 86.245C54.1859 86.432 53.4947 86.3198 52.7787 86.0704C53.2478 86.6564 54.0254 87.1053 54.9142 87.018C55.7906 86.9432 56.556 86.3447 56.988 85.6465C57.42 84.9233 57.6299 84.0878 57.5311 83.2524C57.4447 82.4419 56.988 81.619 56.2844 81.2823C56.6917 81.9307 56.8028 82.6165 56.7535 83.2774L56.7411 83.2898Z" fill="white"/>
</svg>
