<svg width="140" height="140" viewBox="0 0 140 140" fill="none" xmlns="http://www.w3.org/2000/svg">
<path d="M68.1786 68.6737C67.3925 68.6737 66.7458 68.0391 66.7458 67.2396C66.7458 66.4401 67.3798 65.8055 68.1786 65.8055C68.9775 65.8055 69.6115 66.4401 69.6115 67.2396C69.6115 68.0391 68.9775 68.6737 68.1786 68.6737ZM53.9771 63.7368C54.7632 63.7368 55.4099 63.1023 55.4099 62.3027C55.4099 61.5032 54.7759 60.8686 53.9771 60.8686C53.1782 60.8686 52.5442 61.5032 52.5442 62.3027C52.5442 63.1023 53.1782 63.7368 53.9771 63.7368ZM107.106 46.5149C106.32 46.5149 105.673 47.1495 105.673 47.9491C105.673 48.7486 106.307 49.3831 107.106 49.3831C107.905 49.3831 108.539 48.7486 108.539 47.9491C108.539 47.1495 107.905 46.5149 107.106 46.5149ZM102.085 67.0492C101.299 67.0492 100.652 67.6838 100.652 68.4833C100.652 69.2829 101.286 69.9174 102.085 69.9174C102.884 69.9174 103.518 69.2829 103.518 68.4833C103.518 67.6838 102.884 67.0492 102.085 67.0492ZM47.1933 78.4967C48.2711 78.4967 49.146 77.621 49.146 76.5422C49.146 75.4635 48.2711 74.5878 47.1933 74.5878C46.1155 74.5878 45.2406 75.4635 45.2406 76.5422C45.2406 77.621 46.1155 78.4967 47.1933 78.4967ZM61.0271 67.5823C61.0271 66.7954 60.3931 66.1482 59.5943 66.1482C58.7955 66.1482 58.1615 66.7827 58.1615 67.5823C58.1615 68.3818 58.7955 69.0164 59.5943 69.0164C60.3931 69.0164 61.0271 68.3818 61.0271 67.5823ZM82.9001 75.4127C82.9001 76.1996 83.5341 76.8468 84.3329 76.8468C85.1318 76.8468 85.7658 76.2122 85.7658 75.4127C85.7658 74.6132 85.1318 73.9786 84.3329 73.9786C83.5341 73.9786 82.9001 74.6132 82.9001 75.4127ZM36.3012 83.7508C37.0873 83.7508 37.734 83.1162 37.734 82.3167C37.734 81.5171 37.1 80.8826 36.3012 80.8826C35.5023 80.8826 34.8683 81.5171 34.8683 82.3167C34.8683 83.1162 35.5023 83.7508 36.3012 83.7508ZM29.8978 93.891C30.8868 93.891 31.673 93.0915 31.673 92.1143C31.673 91.137 30.8741 90.3375 29.8978 90.3375C28.9214 90.3375 28.1226 91.137 28.1226 92.1143C28.1226 93.0915 28.9214 93.891 29.8978 93.891ZM119 113.943C117.263 117.065 113.548 116.938 112.165 114.857C111.684 116.418 111.519 118.144 114.156 119.844C114.156 119.844 110.061 119.692 110.783 114.121C111.164 111.202 108.995 108.473 106.13 107.407C106.066 107.445 106.003 107.496 105.94 107.534C102.503 109.412 97.1017 104.59 95.2884 101.468C93.4752 98.3456 90.0896 95.9216 88.3652 101.988C86.628 108.054 77.1053 112.306 71.2218 112.991C75.2921 113.169 80.922 112.128 84.5612 109.095C76.5094 124.604 63.1701 128.512 48.2838 126.52C33.3721 124.527 21.25 108.067 22.0362 95.2363C22.8097 82.4055 34.8557 70.1966 49.2221 68.7118C45.7604 61.6047 51.0353 38.5576 60.4819 31.6155C69.9158 24.6862 74.9371 32.047 74.9371 32.047C71.4374 26.6787 67.925 26.2853 64.3746 26.7548C57.5401 27.6686 51.2762 35.5879 49.742 43.9133C48.2711 51.8452 44.8982 61.8459 36.4026 58.9015C27.907 55.9572 31.1151 41.2227 37.8735 32.9862C42.7933 26.9833 42.3368 19.5463 39.8769 14.381C39.4078 13.4037 40.6884 12.5154 41.4492 13.3022C48.2964 20.4727 44.036 30.9048 41.6902 34.7122C38.9133 39.2175 33.5496 48.6598 38.2285 50.9188C42.9074 53.1778 44.5432 44.3321 44.987 40.8674C45.4181 37.4027 47.7639 19.9778 64.3873 18.8609C81.0108 17.7314 84.7387 31.2475 84.7387 31.2475C84.7387 31.2475 83.0015 24.2293 79.971 22.0591C89.2401 18.6833 100.665 23.2774 106.383 28.0366C112.102 32.8085 120.636 45.0682 114.778 66.77C109.148 87.6597 83.1791 86.8728 75.3809 86.2636C67.5827 85.6545 40.3968 81.4918 40.3968 101.607C40.3968 121.723 62.2191 116.862 67.4052 112.522C60.6467 111.392 57.1851 105.237 58.2249 99.3482C59.2646 93.4595 62.9291 87.7739 73.7198 88.7765C83.5848 89.6902 82.9001 97.7491 78.4875 101.252C83.1664 98.739 81.6955 96.5689 86.8816 91.1117C92.0804 85.6545 100.297 90.4136 104.291 93.8022C107.702 96.6958 109.693 102.889 107.436 106.125C113.142 107.775 111.05 119.184 119 113.905V113.943ZM71.1584 22.7571C71.1584 21.8053 70.385 21.0184 69.4213 21.0184C68.4576 21.0184 67.6841 21.7926 67.6841 22.7571C67.6841 23.7216 68.4576 24.4958 69.4213 24.4958C70.385 24.4958 71.1584 23.7216 71.1584 22.7571ZM69.5481 92.6092C69.5481 93.6626 70.3976 94.5129 71.4501 94.5129C72.5025 94.5129 73.3521 93.6626 73.3521 92.6092C73.3521 91.5558 72.5025 90.7055 71.4501 90.7055C70.3976 90.7055 69.5481 91.5558 69.5481 92.6092ZM75.6345 102.254C75.8881 97.6603 72.3504 95.1474 69.0536 98.1806C65.7694 101.214 72.8576 105.021 75.6345 102.254ZM67.8109 103.295C67.2403 103.295 66.7712 103.765 66.7712 104.336C66.7712 104.907 67.2403 105.377 67.8109 105.377C68.3815 105.377 68.8507 104.907 68.8507 104.336C68.8507 103.765 68.3815 103.295 67.8109 103.295ZM64.1211 95.0332C64.1211 96.15 65.0213 97.0511 66.1372 97.0511C67.253 97.0511 68.1533 96.15 68.1533 95.0332C68.1533 93.9164 67.253 93.0153 66.1372 93.0153C65.0213 93.0153 64.1211 93.9164 64.1211 95.0332ZM63.6646 100.693C63.6646 101.493 64.3112 102.14 65.1101 102.14C65.9089 102.14 66.5556 101.493 66.5556 100.693C66.5556 99.8939 65.9089 99.2467 65.1101 99.2467C64.3112 99.2467 63.6646 99.8939 63.6646 100.693ZM90.4447 29.8388C89.836 29.6484 88.2637 29.9657 88.9992 31.1713C89.7346 32.377 90.749 31.5267 90.749 31.5267C89.8995 33.2273 92.2706 33.9761 92.7778 32.0851C93.8936 33.7477 95.6688 31.9455 94.4642 31.0698C96.6198 31.1587 96.0239 28.8489 94.3121 28.9758C96.1253 27.7574 94.4262 26.1203 92.9046 27.4401C93.0948 24.94 89.9375 26.2979 91.1548 28.1762C90.9012 27.7955 89.76 27.0213 89.1006 27.9351C88.4412 28.8616 89.2147 29.4073 90.4447 29.8515V29.8388ZM86.9704 35.5244C88.8724 43.1518 90.3432 60.2214 80.8206 68.458C71.6656 76.3645 66.3654 76.1742 60.3044 75.9965C60.3044 75.9965 72.5152 79.1185 81.518 69.5875C100.043 71.4023 103.163 54.1677 100.918 47.3145C98.6613 40.474 91.3957 35.8798 86.9831 35.5244H86.9704ZM99.8025 36.9966C99.1939 36.8062 97.6216 37.1235 98.357 38.3292C99.0924 39.5348 100.107 38.6845 100.107 38.6845C99.2573 40.3851 101.628 41.1339 102.136 39.2429C103.251 40.9055 105.027 39.1033 103.822 38.2276C105.978 38.3165 105.382 36.0067 103.67 36.1336C105.483 34.9152 103.784 33.2781 102.262 34.598C102.453 32.0978 99.2953 33.4558 100.513 35.334C100.259 34.9533 99.1178 34.1791 98.4584 35.0929C97.7991 36.0194 98.5726 36.5651 99.8025 37.0093V36.9966ZM108.907 58.9396C110.758 58.1654 109.312 56.0714 108.235 57.0867C108.729 54.9926 106.345 55.1322 106.155 56.8329C105.306 54.815 103.366 56.1729 104.38 57.9243C101.971 57.2644 102.706 60.6148 104.773 59.7899C104.355 59.9676 103.366 60.9448 104.152 61.7697C104.925 62.5946 105.623 61.9347 106.282 60.8179C105.978 61.3763 105.99 62.9881 107.309 62.4931C108.628 61.9982 107.981 60.8306 107.981 60.8306C109.477 61.9855 110.682 59.8026 108.919 58.9396H108.907ZM102.212 65.2852C100.551 65.2852 99.2066 66.6304 99.2066 68.293C99.2066 69.9555 100.551 71.3008 102.212 71.3008C103.873 71.3008 105.217 69.9555 105.217 68.293C105.217 66.6304 103.873 65.2852 102.212 65.2852ZM110.175 47.8983C110.175 46.0835 108.704 44.6113 106.891 44.6113C105.077 44.6113 103.607 46.0835 103.607 47.8983C103.607 49.7131 105.077 51.1853 106.891 51.1853C108.704 51.1853 110.175 49.7131 110.175 47.8983ZM96.5564 73.8517C98.4077 73.0775 96.9622 70.9835 95.8844 71.9988C96.3789 69.9047 93.9951 70.0443 93.8049 71.745C92.9553 69.7271 91.0153 71.085 92.0297 72.8364C89.6205 72.1765 90.3559 75.5269 92.4228 74.702C92.0043 74.8797 91.0153 75.8569 91.8014 76.6818C92.5876 77.5067 93.2723 76.8468 93.9317 75.73C93.6274 76.2884 93.64 77.9002 94.9588 77.4052C96.2775 76.9103 95.6308 75.7427 95.6308 75.7427C97.127 76.8976 98.3316 74.7147 96.5691 73.8517H96.5564ZM84.2061 72.3414C82.5451 72.3414 81.201 73.6867 81.201 75.3492C81.201 77.0118 82.5451 78.357 84.2061 78.357C85.8672 78.357 87.2113 77.0118 87.2113 75.3492C87.2113 73.6867 85.8672 72.3414 84.2061 72.3414ZM81.0869 45.525C79.9964 45.525 79.1088 46.4134 79.1088 47.5049C79.1088 48.5963 79.9964 49.4847 81.0869 49.4847C82.1773 49.4847 83.0649 48.5963 83.0649 47.5049C83.0649 46.4134 82.1773 45.525 81.0869 45.525ZM78.4875 33.1131C78.4875 34.0649 79.2609 34.8518 80.2246 34.8518C81.1883 34.8518 81.9618 34.0776 81.9618 33.1131C81.9618 32.1486 81.1883 31.3744 80.2246 31.3744C79.2609 31.3744 78.4875 32.1486 78.4875 33.1131ZM75.7232 67.7599C74.0368 69.1813 72.1221 70.3236 70.1187 71.2627C66.0738 73.0775 61.5343 73.9151 56.9315 73.7629C61.4329 74.7274 66.302 74.4609 70.74 72.7729C75.1653 71.0977 79.1595 68.1153 81.8857 64.1303C84.5612 60.1199 85.9179 55.3861 86.1589 50.703C86.2983 48.3552 86.1842 46.02 85.9053 43.7102C85.5502 41.4131 85.1191 39.1414 84.4597 36.9331C84.9416 41.5146 85.0937 46.0961 84.5485 50.5507C83.9906 54.9926 82.6338 59.333 80.1612 62.95C78.9693 64.7902 77.4223 66.3639 75.7232 67.7599ZM59.5055 70.4251C61.1413 70.4251 62.4727 69.0925 62.4727 67.4554C62.4727 65.8182 61.1413 64.4856 59.5055 64.4856C57.8698 64.4856 56.5384 65.8182 56.5384 67.4554C56.5384 69.0925 57.8698 70.4251 59.5055 70.4251ZM68.0518 70.1966C69.6876 70.1966 71.019 68.8641 71.019 67.2269C71.019 65.5898 69.6876 64.2572 68.0518 64.2572C66.4161 64.2572 65.0847 65.5898 65.0847 67.2269C65.0847 68.8641 66.4161 70.1966 68.0518 70.1966ZM75.0892 64.9425C76.3699 64.9425 77.397 63.9018 77.397 62.6327C77.397 61.3636 76.3572 60.3229 75.0892 60.3229C73.8212 60.3229 72.7815 61.3636 72.7815 62.6327C72.7815 63.9018 73.8212 64.9425 75.0892 64.9425ZM61.9528 49.142C59.7845 53.5585 57.705 66.567 68.1026 62.0489C78.4875 57.5436 78.665 44.5478 76.5855 36.7428C66.7965 38.3038 64.1211 44.7128 61.9528 49.1293V49.142ZM60.8877 35.131C60.8877 36.0828 61.6611 36.8697 62.6248 36.8697C63.5885 36.8697 64.362 36.0955 64.362 35.131C64.362 34.1665 63.5885 33.3923 62.6248 33.3923C61.6611 33.3923 60.8877 34.1665 60.8877 35.131ZM58.3136 59.9676C58.2249 57.2136 58.4531 54.5485 59.0364 51.9848C59.645 49.4339 60.5707 46.9718 61.9021 44.7509C63.1954 42.5045 64.8818 40.4993 66.8726 38.8241C68.876 37.1489 71.2092 35.8544 73.8086 34.9279C71.057 35.0041 68.2801 35.9432 65.9216 37.5169C63.5378 39.0779 61.5724 41.2481 60.1142 43.6975C58.694 46.1596 57.7557 48.9136 57.4387 51.7183C57.109 54.5104 57.3753 57.3786 58.3009 59.9676H58.3136ZM53.0261 46.5657C53.0261 47.6572 53.9137 48.5455 55.0041 48.5455C56.0946 48.5455 56.9822 47.6572 56.9822 46.5657C56.9822 45.4743 56.0946 44.5859 55.0041 44.5859C53.9137 44.5859 53.0261 45.4743 53.0261 46.5657ZM50.9592 61.9474C50.9592 63.4703 52.1892 64.7014 53.7108 64.7014C55.2324 64.7014 56.4623 63.4703 56.4623 61.9474C56.4623 60.4245 55.2324 59.1934 53.7108 59.1934C52.1892 59.1934 50.9592 60.4245 50.9592 61.9474ZM43.6936 76.5549C43.6936 78.4967 45.2659 80.083 47.2186 80.083C49.1714 80.083 50.7437 78.5093 50.7437 76.5549C50.7437 74.6005 49.1714 73.0268 47.2186 73.0268C45.2659 73.0268 43.6936 74.6005 43.6936 76.5549ZM36.9732 95.7693C35.4897 102.356 38.1017 109.362 42.9201 113.702C40.7011 111.329 39.002 108.499 38.1017 105.415C37.1888 102.343 37.1381 99.0563 37.9623 96.0104C38.7738 92.9773 40.4348 90.1471 42.8694 88.2181C45.2659 86.3017 48.4232 85.3753 51.4918 84.6392C57.7177 83.3066 64.1971 83.0528 70.6512 83.0655C73.8846 83.0655 77.118 83.167 80.3514 83.2939L85.2079 83.5097C86.8816 83.5731 88.5554 83.535 90.2164 83.3701C93.5513 82.9893 96.8354 82.0629 99.8532 80.5653C102.871 79.0678 105.597 77.0118 107.867 74.5243C110.137 72.0495 111.95 69.1433 113.116 65.9705C113.674 64.3841 114.093 62.6962 114.22 61.0082C114.346 59.3838 114.448 57.7339 114.473 56.0968C114.587 49.5481 113.611 42.7838 110.454 36.9204C107.296 31.0698 101.933 26.666 95.9224 24.2547C98.8135 25.7142 101.565 27.4782 103.898 29.6992C106.244 31.8947 108.159 34.5218 109.553 37.39C112.419 43.1264 113.18 49.675 112.876 56.046C112.799 57.6451 112.66 59.2442 112.482 60.8433C112.343 62.3916 111.963 63.8891 111.43 65.3486C110.327 68.2549 108.615 70.9581 106.485 73.2425C104.355 75.5269 101.793 77.4179 98.9783 78.7759C96.1634 80.1338 93.1075 80.9714 89.9882 81.3014C88.4286 81.4664 86.8563 81.5298 85.2839 81.4791L80.4148 81.3141C77.1687 81.2126 73.91 81.1491 70.6512 81.1745C64.1464 81.2633 57.5528 81.4537 51.1241 83.0909C49.5137 83.4843 47.9414 84.03 46.3944 84.6392C44.8855 85.2991 43.3132 86.0606 42.0325 87.2028C39.4205 89.411 37.7213 92.5077 36.9732 95.7566V95.7693ZM41.5 114.971C40.7392 114.971 40.1178 115.593 40.1178 116.354C40.1178 117.116 40.7392 117.738 41.5 117.738C42.2608 117.738 42.8821 117.116 42.8821 116.354C42.8821 115.593 42.2608 114.971 41.5 114.971ZM33.9427 83.2178C33.4101 83.4462 32.1929 84.6519 33.1692 85.6798C34.1456 86.7078 35.0078 85.8829 35.8193 84.4996C35.4389 85.1976 35.4516 87.2028 37.1 86.5809C38.7484 85.9591 37.9496 84.5123 37.9496 84.5123C39.8262 85.9591 41.3098 83.2305 39.1161 82.1517C41.4239 81.1872 39.6233 78.5855 38.2666 79.8419C38.8879 77.2275 35.9081 77.4052 35.6672 79.5246C34.6021 77.0118 32.1929 78.7124 33.4482 80.8826C30.443 80.0577 31.356 84.2457 33.93 83.2051L33.9427 83.2178ZM28.7566 95.0205C28.465 95.617 28.3128 97.5968 29.9358 97.7618C31.5589 97.9268 31.6983 96.5562 31.356 94.7286C31.5462 95.617 33.0678 97.3684 34.0441 95.5789C35.0205 93.7895 33.2199 93.1422 33.2199 93.1422C35.9335 92.9899 35.1853 89.4872 32.4718 90.1979C33.7525 87.6089 30.2275 86.6951 29.9992 88.8273C28.5791 86.086 26.1192 88.4846 27.4886 90.5152C24.6736 89.1191 23.8494 92.4188 26.5756 93.3707C23.3296 94.919 27.2857 97.8887 28.7566 95.0332V95.0205ZM34.1202 104.92C34.1202 102.876 32.4718 101.227 30.4303 101.227C28.3889 101.227 26.7405 102.876 26.7405 104.92C26.7405 106.963 28.3889 108.613 30.4303 108.613C32.4718 108.613 34.1202 106.963 34.1202 104.92ZM36.2505 114.273C37.4297 114.273 38.3807 113.321 38.3807 112.141C38.3807 110.961 37.4297 110.009 36.2505 110.009C35.0712 110.009 34.1202 110.961 34.1202 112.141C34.1202 113.321 35.0712 114.273 36.2505 114.273ZM68.1913 120.047C64.5902 121.494 60.8116 122.484 56.9695 122.776C53.1402 123.119 49.2601 122.763 45.5449 121.723C41.817 120.682 38.2919 118.918 34.9444 116.722C37.734 119.591 41.1957 121.875 45.0377 123.271C48.8797 124.692 53.0514 125.175 57.1344 124.845C61.2173 124.477 65.2115 123.334 68.8507 121.507C72.4772 119.692 75.7993 117.243 78.4114 114.21C75.216 116.608 71.7924 118.575 68.1913 120.035V120.047ZM87.0718 99.9193C86.4885 101.531 85.4234 102.838 84.1935 103.917C82.9635 105.008 81.556 105.871 80.1105 106.62C77.1941 108.042 73.948 109.057 70.8541 108.93C69.4086 108.841 67.7095 108.397 66.3147 107.801C64.8819 107.204 63.6265 106.303 62.815 105.047C61.9908 103.803 61.6358 102.204 61.5851 100.579C61.5217 98.9421 61.7626 97.2669 62.0289 95.5789C61.2934 97.1273 60.7609 98.7771 60.5326 100.528C60.3297 102.267 60.4692 104.184 61.3695 105.884C62.2444 107.597 63.8421 108.841 65.4905 109.615C66.3274 110.009 67.1769 110.288 68.0392 110.529C68.8634 110.758 69.8017 110.973 70.7527 110.999C74.4679 111.075 77.8788 109.818 80.8713 108.004C82.3675 107.077 83.737 105.948 84.8782 104.615C85.994 103.27 86.907 101.658 87.0464 99.932L87.0718 99.9193ZM100.639 100.922C99.8025 99.932 98.5852 99.602 97.9132 100.173C97.2411 100.744 97.368 102.001 98.2048 102.991C99.0417 103.98 100.259 104.31 100.931 103.739C101.603 103.168 101.476 101.912 100.639 100.922ZM30.4177 102.94C29.3399 102.94 28.465 103.815 28.465 104.894C28.465 105.973 29.3399 106.849 30.4177 106.849C31.4955 106.849 32.3704 105.973 32.3704 104.894C32.3704 103.815 31.4955 102.94 30.4177 102.94Z" fill="white"/>
</svg>
