<svg width="140" height="140" viewBox="0 0 140 140" fill="none" xmlns="http://www.w3.org/2000/svg">
<g clip-path="url(#clip0_17368_228331)">
<path d="M27.5408 62.4298C27.5207 63.0798 27.2098 63.8098 26.5479 64.2198C25.896 64.6398 25.0435 64.6298 24.3614 64.3798C23.6794 64.1198 23.0777 63.6398 22.7166 63.0198C22.3455 62.4098 22.2252 61.5998 22.5461 60.9998C22.6063 61.6698 22.8971 62.1998 23.2783 62.6198C23.6694 63.0398 24.1508 63.3698 24.6724 63.5498C25.1939 63.7498 25.7455 63.7798 26.237 63.5998C26.7384 63.4198 27.1597 62.9698 27.5408 62.4198V62.4298ZM46.7975 52.0598C44.7515 50.5398 42.4948 50.5598 40.7597 51.9198C42.5751 51.5098 44.4205 51.8798 46.0152 53.0898C47.3592 54.0598 48.5126 55.8598 48.1615 57.6098C48.8536 56.8898 48.8837 53.6698 46.7875 52.0598H46.7975ZM71.1191 57.3298C71.7309 56.8698 72.1321 54.4398 70.738 52.9798C69.374 51.5898 67.669 51.3398 66.2047 52.1698C67.6188 52.0798 68.9728 52.5698 70.0359 53.6698C70.9386 54.5598 71.5905 56.0498 71.1191 57.3298ZM50.7993 66.4198C51.5214 65.7198 51.9728 64.7698 52.1031 63.7598C52.2235 62.7598 51.9627 61.6198 51.1804 60.8798C50.4081 60.1198 49.325 59.9498 48.4323 60.1298C49.3049 60.4598 50.0471 60.8798 50.4583 61.4998C50.8595 62.1098 50.9899 62.8598 50.8896 63.6198C50.8093 64.3798 50.5185 65.1398 50.0772 65.7998C49.6258 66.4498 49.004 67.0098 48.1214 67.3098C49.0441 67.5298 50.0972 67.1198 50.7993 66.4198ZM45.5438 72.3698C46.3863 72.8298 47.3893 72.9598 48.3521 72.7898C49.2949 72.6098 50.2677 72.0398 50.7191 71.1098C51.1904 70.1898 51.03 69.1598 50.6087 68.3998C50.5586 69.2898 50.3881 70.0798 49.9468 70.6298C49.5055 71.1698 48.8536 71.5098 48.1314 71.6398C47.4093 71.7898 46.637 71.7398 45.9049 71.5398C45.1828 71.3198 44.4907 70.9198 43.9592 70.1998C44.0193 71.0998 44.7013 71.9398 45.5538 72.3698H45.5438ZM60.6884 71.2098C60.197 71.6498 59.535 71.8698 58.843 71.8898C58.1509 71.9298 57.4288 71.7698 56.7769 71.4698C56.125 71.1598 55.5433 70.6798 55.1521 69.9298C55.0819 70.7898 55.5934 71.6698 56.3256 72.1998C57.0477 72.7498 57.9704 73.0198 58.8931 72.9998C59.8058 72.9698 60.7987 72.5798 61.3604 71.7798C61.9321 70.9898 61.9421 69.9998 61.6513 69.2298C61.4807 70.0598 61.1999 70.7698 60.6984 71.2198L60.6884 71.2098ZM62.5038 62.7398C62.7946 63.3698 62.8046 64.0898 62.6041 64.7898C62.4235 65.4898 62.0324 66.1598 61.5309 66.7098C61.0094 67.2598 60.3474 67.6898 59.4748 67.8398C60.3073 68.1798 61.3504 67.9498 62.1126 67.3898C62.8949 66.8398 63.4566 66.0198 63.7274 65.0898C63.9781 64.1698 63.9079 63.0598 63.2861 62.2498C62.6743 61.4298 61.6914 61.1098 60.8288 61.1498C61.6011 61.5798 62.233 62.0898 62.5238 62.7298L62.5038 62.7398ZM70.9085 67.3498C70.5173 67.7098 69.9858 67.8798 69.4241 67.8998C68.8625 67.9298 68.2808 67.7998 67.7592 67.5598C67.2377 67.3098 66.7663 66.9198 66.4454 66.3198C66.3852 67.0098 66.8064 67.7198 67.3881 68.1498C67.9699 68.5898 68.712 68.8098 69.4542 68.7898C70.1864 68.7598 70.9887 68.4498 71.4401 67.7998C71.9014 67.1598 71.9014 66.3598 71.6707 65.7398C71.5303 66.4098 71.3097 66.9798 70.9085 67.3498ZM60.9392 58.7698C61.7014 58.1898 62.1928 55.1798 60.4678 53.3698C58.7728 51.6498 56.6565 51.3398 54.8412 52.3598C56.6064 52.2498 58.2813 52.8498 59.5952 54.2298C60.7085 55.3398 61.5309 57.1798 60.9392 58.7698ZM28.4334 61.2398C29.1756 61.0698 29.8376 60.6298 30.319 60.0298C30.7803 59.4298 31.0712 58.5898 30.8506 57.8098C30.65 57.0198 30.0181 56.4898 29.3762 56.2598C29.8075 56.8098 30.1284 57.3698 30.1485 57.9298C30.1685 58.4798 29.9579 59.0198 29.5969 59.4698C29.2458 59.9298 28.7644 60.3098 28.2228 60.5598C27.6812 60.8098 27.0594 60.9198 26.3674 60.7698C26.8789 61.2698 27.7213 61.4198 28.4435 61.2398H28.4334ZM30.1886 54.5398C30.9208 54.3398 32.2045 52.2798 31.4724 50.4198C30.7503 48.6398 29.2759 47.7798 27.6311 47.9798C28.965 48.4298 30.0081 49.3798 30.5697 50.7898C31.0612 51.9398 31.1013 53.5498 30.1886 54.5398ZM24.3013 54.0898C24.7024 53.7798 24.7727 53.2098 24.4617 52.8098C24.1508 52.4098 23.5791 52.3398 23.178 52.6498C22.7768 52.9598 22.7066 53.5298 23.0175 53.9298C23.3284 54.3298 23.9001 54.3998 24.3013 54.0898ZM86.6549 68.1698C86.1634 68.6098 85.5015 68.8298 84.8094 68.8498C84.1174 68.8898 83.3953 68.7298 82.7434 68.4298C82.0914 68.1198 81.5097 67.6398 81.1186 66.8898C81.0484 67.7498 81.5599 68.6298 82.292 69.1598C83.0142 69.7098 83.9369 69.9798 84.8596 69.9598C85.7723 69.9298 86.7652 69.5398 87.3268 68.7398C87.8985 67.9498 87.9086 66.9598 87.6177 66.1898C87.4472 67.0198 87.1664 67.7298 86.6649 68.1798L86.6549 68.1698ZM94.1369 49.4398C92.6626 48.5798 91.1682 48.7698 90.1251 49.7998C91.2985 49.3998 92.5522 49.4998 93.6956 50.1798C94.6584 50.7198 95.5611 51.8298 95.4608 53.0098C95.872 52.4798 95.6413 50.3398 94.1369 49.4298V49.4398ZM86.9156 55.7298C87.6779 55.1498 88.1693 52.1398 86.4443 50.3298C84.7493 48.6098 82.633 48.2998 80.8177 49.3198C82.5829 49.2098 84.2578 49.8098 85.5717 51.1898C86.685 52.2998 87.5074 54.1398 86.9156 55.7298ZM72.9746 60.1498C72.4831 59.4898 71.6908 59.2298 70.9887 59.2598C71.6106 59.6098 72.112 60.0198 72.3528 60.5298C72.5834 61.0398 72.5935 61.6198 72.433 62.1798C72.2826 62.7498 71.9716 63.2798 71.5705 63.7298C71.1492 64.1698 70.6176 64.5198 69.9156 64.6398C70.5876 64.9198 71.43 64.7298 72.0418 64.2798C72.6737 63.8398 73.125 63.1698 73.3357 62.4298C73.5362 61.6898 73.4861 60.7998 72.9746 60.1498ZM97.8579 58.6598C98.2891 58.1398 98.5098 57.4798 98.5198 56.7998C98.5198 56.1298 98.2691 55.3898 97.6874 54.9598C97.1157 54.5198 96.3935 54.4798 95.8118 54.6698C96.4136 54.8198 96.9351 55.0498 97.2561 55.4298C97.567 55.7998 97.7074 56.2898 97.7074 56.7998C97.7074 57.3098 97.577 57.8298 97.3363 58.2998C97.0856 58.7698 96.7145 59.1798 96.1528 59.4498C96.7847 59.5298 97.4466 59.1798 97.8579 58.6598ZM89.2325 59.2298C88.6207 58.4098 87.6378 58.0898 86.7752 58.1298C87.5475 58.5698 88.1794 59.0698 88.4702 59.7098C88.7611 60.3398 88.7711 61.0598 88.5705 61.7598C88.39 62.4598 87.9988 63.1298 87.4973 63.6798C86.9758 64.2298 86.3139 64.6598 85.4413 64.8098C86.2738 65.1498 87.3168 64.9198 88.0791 64.3598C88.8614 63.8098 89.423 62.9898 89.6938 62.0598C89.9446 61.1398 89.8743 60.0298 89.2525 59.2198L89.2325 59.2298ZM125.399 75.3498C112.561 79.0698 107.777 69.8398 107.777 69.8398C107.777 69.8398 111.297 85.9398 118.569 88.8198C119.802 89.3098 120.715 90.3698 120.946 91.6698C122.3 99.3398 122.029 104.98 121.618 108.2C121.387 109.99 119.913 111.37 118.097 111.45C115.931 111.55 112.962 111.63 110.535 111.5C108.75 111.41 108.058 109.04 109.572 108.07C110.385 107.55 111.428 107.34 112.3 107.26C113.384 107.17 114.216 106.28 114.326 105.2C114.748 100.88 113.765 97.8498 111.157 95.6098C108.439 93.2798 97.0254 86.5698 93.4549 78.9698C92.813 77.6098 92.9634 76.0298 93.7458 74.7398C96.2431 70.6498 97.2059 66.0498 97.2059 64.8498C95.8419 70.3598 92.0508 75.6598 88.3097 79.4898C85.0903 82.7898 86.3239 92.7998 88.5103 96.7698C89.1021 97.8498 88.9817 99.1798 88.1994 100.13C85.6619 103.21 82.0012 105.95 79.7144 108.28C78.7516 109.25 77.4879 109.87 76.1239 109.97C74.128 110.11 72.1421 110.07 70.4873 109.97C67.9899 109.82 67.2277 106.34 69.5345 105.36C69.7551 105.27 69.9758 105.21 70.2064 105.19C72.5233 104.98 76.3144 105.03 76.3144 105.03C76.3144 105.03 77.5079 101.73 78.5209 99.4898C78.9321 98.5698 78.9422 97.5298 78.531 96.6098C76.3646 91.6998 74.0277 85.2398 74.7899 79.6398C66.1645 85.2498 53.3267 81.5298 51.6919 81.2698C50.0571 81.0098 47.6901 80.3298 45.6943 82.2698C45.6943 82.2698 46.5668 95.0598 41.8028 104.44C41.1609 105.71 39.8972 106.57 38.483 106.73C35.3839 107.08 32.4051 106.51 30.6199 106.04C29.306 105.69 28.5839 104.18 29.2659 103.01C29.4865 102.64 29.8275 102.35 30.339 102.26C32.1845 101.95 36.0759 102.78 35.7048 99.0598C35.3338 95.3398 35.1231 86.9898 36.3367 84.8998C31.9839 89.7598 26.9591 88.8898 24.6824 92.0498C23.3384 93.9098 24.0405 96.1398 26.1768 96.9798C29.988 98.4798 27.4405 103.29 24.4417 101.8C24.4016 101.78 24.3715 101.76 24.3314 101.74C20.9614 99.9598 21.0718 100.11 19.7579 100.17C18.444 100.22 16.9697 98.4898 15.9166 94.6598C14.8635 90.8298 14.2818 88.2598 17.5514 85.3198C20.811 82.3798 25.3945 80.2798 24.3915 76.0398C23.3886 71.7998 19.4971 67.0198 20.0287 63.4498C16.398 62.3998 13.1885 62.2398 11.1927 64.7098C9.37732 66.9498 5.7366 67.1498 3.9012 65.0898C3.62037 64.7698 3.64043 64.2598 3.95135 63.9698C4.63335 63.3198 4.48291 62.8298 3.62037 63.0898C2.56727 63.3998 0.100005 62.5698 -0.0103202 60.6198C-0.110616 58.6798 1.56432 56.7898 1.67464 55.5798C1.77494 54.3698 -0.170793 51.7498 1.2534 49.2298C2.67759 46.7098 3.62037 45.9798 3.62037 45.9798C3.62037 45.9798 0.571393 45.3498 0.571393 42.0998C0.571393 38.8498 5.98734 39.7398 6.30829 43.4598C6.67938 43.9298 7.56198 43.6198 7.9431 43.4598C11.0924 42.1498 13.9408 42.8798 14.4121 43.5098C13.9909 39.5198 18.5443 39.6698 19.5673 41.3598C20.5101 42.9298 20.2493 44.4498 19.6175 45.4998C23.0375 46.3398 27.4606 43.6598 34.5113 44.2398C41.5621 44.8198 46.8276 52.1098 65.3923 46.7098C83.967 41.3098 97.6974 45.7698 105.33 53.7398C112.962 61.7098 110.385 70.6298 121.056 70.6298C131.728 70.6298 138.467 54.2298 130.033 49.2398C119.512 43.0198 102.481 46.1298 102.481 35.9498C102.481 25.7698 108.489 27.7998 110.014 29.0598C111.538 30.3198 109.913 32.5398 109.542 34.8298C109.251 36.5898 109.522 38.2598 115.59 38.9198C121.859 39.6098 133.342 42.2498 138.106 49.6198C142.971 57.1498 138.267 71.5998 125.429 75.3198L125.399 75.3498ZM53.6677 52.5898C56.2353 53.1298 58.3315 54.5398 58.3315 54.5398L55.6034 54.1298L58.2312 56.0898L56.9574 55.8598L59.0335 57.7198L57.3586 57.1698L59.545 59.0598L57.8501 58.2198C57.8501 58.2198 60.1568 60.6198 59.9262 60.5498C59.6955 60.4798 58.1309 59.3298 58.1911 59.3998C58.2512 59.4798 60.6784 62.3798 60.5881 62.3198C60.4979 62.2598 58.6825 60.9698 58.6825 60.9698C58.6825 60.9698 60.8188 64.1998 60.538 63.8698C60.2571 63.5398 58.8831 62.3598 58.8831 62.3598L60.4577 65.2298L58.9734 63.8698L60.1167 66.6298L58.7427 65.1398L59.1338 66.7498L58.3716 66.0898L58.863 68.2298L58.0105 66.9998C58.0105 66.9998 58.4518 69.9098 58.3716 69.7598C58.2914 69.6098 57.4188 67.7398 57.4188 67.7398L57.4489 69.7898L56.7067 68.5898L56.3757 70.1598C55.6135 70.0898 54.9415 69.3198 54.6807 68.9298C54.2695 70.9198 55.5031 72.5398 56.5362 73.2098C59.4347 75.0898 64.2489 71.6698 61.902 68.4898C66.2448 67.7398 65.3421 59.7198 60.9793 60.0298C66.2749 55.1298 58.6925 47.3098 53.6577 52.5798L53.6677 52.5898ZM32.8264 46.5898C33.6388 47.7198 34.391 48.8298 34.9326 49.9898C35.4641 51.1498 35.7751 52.3498 35.765 53.5498C35.7951 54.7498 35.5043 55.9798 35.073 57.1898C34.6116 58.3898 34.0399 59.6098 33.4382 60.8298C32.8264 62.0498 32.0942 63.2098 31.2618 64.2898C30.4293 65.3798 29.4163 66.3398 28.5839 67.4598C27.7615 68.5798 27.1095 69.8498 26.6482 71.1898C26.1868 72.5298 25.916 73.9598 26.0765 75.3698L26.247 75.3898C26.7184 74.0798 27.2399 72.8698 27.8517 71.6998C28.4535 70.5198 29.1455 69.3998 29.7774 68.2098C30.3992 67.0198 30.9609 65.7498 31.7131 64.6098C32.4553 63.4598 33.3278 62.4098 34.2205 61.3398C35.1131 60.2798 35.9456 59.1298 36.5473 57.8198C37.1692 56.5298 37.6405 55.0598 37.5703 53.5198C37.5001 51.9898 36.9485 50.4998 36.086 49.3298C35.2335 48.1398 34.1402 47.2098 32.9467 46.4698L32.8364 46.5898H32.8264ZM15.6257 43.7698C16.5384 43.3498 17.9425 43.8398 18.5744 45.6598C19.2765 42.5098 16.3278 41.9498 15.6257 43.7698ZM9.83868 44.6898C9.11656 44.9998 8.48469 45.4998 7.98322 46.1098C7.49177 46.7198 7.13071 47.4398 6.96021 48.1998C6.7897 48.9498 6.79973 49.7698 7.11065 50.4698C7.15077 49.7198 7.3313 49.0398 7.59207 48.3898C7.86286 47.7498 8.20387 47.1598 8.64517 46.6298C9.50771 45.5598 10.6711 44.8098 12.1154 44.3798C11.3732 44.2598 10.5708 44.3798 9.85874 44.6898H9.83868ZM8.95608 52.5898C10.8517 52.5898 12.0452 51.9598 12.6068 50.1398C11.5537 49.5798 9.0965 49.9998 8.95608 52.5898ZM4.88409 44.7598C4.46285 43.4298 2.9183 42.6598 1.93541 42.7998C2.63748 44.2698 4.11182 44.8298 4.88409 44.7598ZM1.72479 50.0098C1.8652 51.2698 2.63748 53.0898 3.9012 51.8998C3.83099 49.7298 2.63748 48.8198 1.72479 50.0098ZM4.04161 58.7998C3.34957 58.7898 2.53718 58.7498 1.81505 58.6898C1.44396 58.6598 1.18319 59.0298 1.33364 59.3798C1.47405 59.6998 1.65458 59.9898 1.82508 60.2198C2.07582 60.5598 2.53718 60.6298 2.88822 60.3998C3.21919 60.1798 3.68055 59.8698 4.23217 59.5398C4.56315 59.3398 4.43276 58.8198 4.04161 58.8198V58.7998ZM6.16787 46.8798C6.77967 45.8398 7.68233 45.0098 8.8257 44.2998C7.46168 44.3698 6.16787 45.2498 5.44575 46.4598C5.09471 47.0698 4.86403 47.7698 4.854 48.4798C4.83394 49.1798 5.02451 49.8898 5.40563 50.4398C5.28527 49.0998 5.54604 47.9198 6.16787 46.8898V46.8798ZM11.4735 57.4498C12.2057 57.0298 12.9077 56.5298 13.4794 55.8998C14.0511 55.2798 14.5225 54.5098 14.6729 53.6898C14.1915 54.3698 13.6298 54.9298 13.0281 55.4198C12.4163 55.9098 11.7543 56.3398 11.0623 56.7098C9.67821 57.4798 8.19384 58.0498 6.63926 58.6398C8.31419 58.7098 9.98912 58.2498 11.4735 57.4498ZM7.30121 59.6398C8.94605 59.9398 10.6711 59.7198 12.2558 59.1398C13.0481 58.8298 13.8104 58.4298 14.4623 57.8898C15.1242 57.3498 15.6859 56.6598 15.9567 55.8698C15.385 56.4798 14.7532 56.9498 14.0812 57.3498C13.3992 57.7498 12.6871 58.0798 11.9549 58.3498C10.4806 58.9198 8.92599 59.2698 7.30121 59.6298V59.6398ZM16.7691 58.4598C16.1071 58.9698 15.4151 59.3498 14.6829 59.6398C13.9508 59.9298 13.1986 60.1498 12.4263 60.3098C10.8818 60.6498 9.29709 60.7598 7.63218 60.8698C9.21685 61.4198 10.952 61.4598 12.6068 61.1298C13.4293 60.9498 14.2517 60.6698 14.9838 60.2298C15.716 59.7998 16.3779 59.1998 16.7691 58.4598ZM20.6104 48.6998C20.8411 48.4698 20.9915 48.0998 20.9614 47.7698C20.8912 47.1198 20.4198 46.7398 19.9585 46.6398C19.9284 46.6398 19.9083 46.6398 19.8782 46.6598C19.8381 46.6898 19.8381 46.7498 19.8682 46.7798C20.129 47.0998 20.2092 47.5098 20.0989 47.7098C19.9785 47.8698 19.8181 47.8898 19.5072 47.9198C19.1862 47.9398 18.8953 47.8798 18.434 47.8398C17.9425 47.7798 17.421 47.8398 16.9095 47.9798C16.398 48.1398 15.8765 48.3998 15.4753 48.8798C15.0641 49.3298 14.8133 50.0498 14.9237 50.6998C15.1242 52.0098 16.1974 52.5798 16.8493 52.9498C17.5514 53.3698 18.1933 53.9298 18.5543 54.6498C18.9254 55.3798 18.8352 56.1998 18.6045 56.7898C18.2334 58.0198 17.1402 59.1598 16.0369 60.5398C16.0169 60.5598 16.0169 60.5898 16.0169 60.6098C16.0269 60.6598 16.077 60.6898 16.1272 60.6798C16.9998 60.4898 17.8222 60.1098 18.5343 59.5198C19.2263 58.9398 19.9083 58.0998 19.9886 57.0398C20.0688 55.9698 19.5071 55.0798 19.0257 54.3698C18.5343 53.6398 18.0127 52.9598 17.4712 52.2598C17.1803 51.9098 16.9296 51.5998 16.7691 51.3098C16.5986 51.0198 16.4983 50.7398 16.5183 50.5398C16.5284 50.1798 16.8894 49.8998 17.4812 49.6698C17.772 49.5698 18.093 49.4798 18.434 49.4498C18.5744 49.4198 18.8853 49.4098 19.106 49.3798C19.3567 49.3398 19.6074 49.2698 19.8582 49.1798C20.119 49.0798 20.3797 48.9298 20.6104 48.6798V48.6998ZM22.2151 55.5198C23.1579 55.9298 23.4086 54.9998 23.4086 54.9998C23.6092 56.3598 25.3343 55.8198 24.8529 54.4898C26.2169 55.0198 26.5178 53.1998 25.4346 53.1798C26.7585 52.3398 25.4346 51.2098 24.4718 51.9998C25.0435 50.5198 23.3485 50.2598 22.9874 51.6698C22.0547 50.1098 20.7508 52.2298 22.2452 52.8398C21.9343 52.7198 20.9313 52.7298 20.9213 53.5598C20.9213 54.3798 21.6033 54.3898 22.516 54.1398C22.0747 54.2698 21.2623 55.1198 22.2151 55.5298V55.5198ZM27.932 62.0098C31.352 62.7698 33.1273 56.5898 29.8175 55.4998C35.2034 53.4898 31.9839 45.4498 26.6883 47.7998C28.4134 48.9698 29.5267 50.6398 29.5267 50.6398L27.6411 49.5198L28.9851 51.7498L28.1125 51.1898L29.0753 53.1798L28.0122 52.2698L29.0452 54.3198L28.0523 53.1898C28.0523 53.1898 29.0252 55.6498 28.8747 55.5298C28.7243 55.4098 27.9219 54.0898 27.942 54.1598C27.962 54.2398 28.8747 57.0998 28.8246 57.0398C28.7744 56.9698 27.8317 55.4698 27.8317 55.4698C27.8317 55.4698 28.4234 58.4898 28.3231 58.1598C28.2228 57.8298 27.5609 56.5498 27.5609 56.5498L27.8517 59.1398L27.1697 57.6898V60.0698L26.6081 58.5598L26.4075 59.8698L26.0464 59.1598L25.7555 60.8798L25.4948 59.7198C25.4948 59.7198 24.9432 61.9998 24.9231 61.8598C24.9131 61.7298 24.8328 60.0898 24.8328 60.0898L24.2311 61.6098L24.0505 60.5098L23.3284 61.5698C22.7868 61.2898 22.526 60.5198 22.4458 60.1498C21.5431 61.4898 21.9644 63.0598 22.516 63.8598C24.0806 66.1198 28.6641 65.0498 27.9019 61.9998L27.932 62.0098ZM36.6175 76.9498C36.6476 76.5398 36.5874 76.1298 36.5273 75.7398C36.4571 75.3398 36.3066 74.9298 36.1161 74.5798C35.7249 73.8698 35.1532 73.3198 34.5113 72.8698C33.8694 72.4298 33.1373 72.0598 32.2848 71.9298C31.4423 71.7898 30.4393 71.9798 29.6771 72.5698C28.9249 73.1598 28.4736 73.9398 28.2429 74.8598C28.1426 75.3298 28.1125 75.8898 28.3231 76.4298C28.4936 76.9898 28.955 77.4198 29.3963 77.6898C29.8677 77.9198 30.3591 78.0498 30.8205 78.0198C31.0511 78.0298 31.2818 77.9698 31.5125 77.9298C31.7332 77.8598 31.9538 77.7798 32.1544 77.6698C32.5556 77.4398 32.9166 77.1198 33.0972 76.7098C33.2276 76.5298 33.2276 76.2798 33.2777 76.0898C33.2978 75.8798 33.2476 75.6698 33.2376 75.4798C33.2376 75.4198 33.1774 75.3798 33.1172 75.3798C33.0771 75.3798 33.037 75.4098 33.027 75.4498V75.4698C32.7863 76.1798 32.2547 76.5098 31.7332 76.6098C31.1916 76.6998 30.6098 76.5398 30.2889 76.2798C30.1685 76.1298 30.0582 76.0298 30.0582 75.8598C30.0181 75.7198 30.0582 75.5198 30.1084 75.2998C30.2688 74.8298 30.5497 74.2998 30.8706 73.9098C31.1916 73.5198 31.6629 73.2198 32.2647 73.1098C32.8665 73.0098 33.5585 73.1198 34.1402 73.4498C34.722 73.7698 35.2134 74.2898 35.4541 74.8898C35.5745 75.1898 35.6246 75.4898 35.6146 75.8098C35.6146 76.1398 35.5444 76.4598 35.4541 76.7698C35.063 77.9998 34.1503 78.8698 33.1373 79.1398C32.6258 79.2698 32.0641 79.2598 31.5025 79.1398C31.3019 79.0898 30.7603 78.9798 30.309 78.9298C30.0783 78.9298 29.8476 78.9298 29.6169 78.9298C29.3862 78.9498 29.1656 78.9898 28.9349 79.0298C28.0423 79.2298 27.2098 79.6498 26.5479 80.2798C25.8759 80.8898 25.3544 81.7298 25.224 82.6698C25.0836 83.6198 25.3845 84.5498 25.8859 85.2098C26.3573 85.9098 27.0393 86.3398 27.7013 86.6898C27.7514 86.7198 27.8216 86.6898 27.8517 86.6398C27.8718 86.5998 27.8718 86.5598 27.8517 86.5298C27.4505 85.8998 27.0393 85.3198 26.8789 84.6998C26.6983 84.0898 26.6983 83.5198 26.8889 83.0398C27.2901 82.0798 28.3532 81.4398 29.4063 81.2598C29.5367 81.2598 29.6671 81.2198 29.8075 81.2098C29.9379 81.2098 30.0682 81.2098 30.1986 81.2098C30.4694 81.2398 30.65 81.2598 31.1615 81.3298C32.024 81.4398 32.9668 81.3798 33.8293 81.0298C34.6919 80.6898 35.4441 80.0898 35.9155 79.3498C36.3969 78.5998 36.6075 77.7498 36.6376 76.9298L36.6175 76.9498ZM40.2783 77.3398C40.2482 76.2798 39.7468 75.3398 39.3355 74.5298C38.9143 73.6898 38.5131 72.8598 38.2925 71.9998C38.0618 71.1298 37.9515 70.3098 37.9314 69.5098C37.9314 68.7098 38.1019 67.9198 38.3025 67.1098C38.6836 65.4798 39.3456 63.8398 39.8771 62.0198L39.7367 61.9298C38.2925 63.1698 37.1892 64.7598 36.5674 66.6398C35.9756 68.5198 36.2866 70.8498 37.46 72.3798C38.0016 73.1598 38.5432 73.8998 38.8441 74.7398C39.155 75.5798 39.0547 76.4798 38.8942 77.2398C38.7237 78.0098 38.5332 78.7998 38.2323 79.6098C37.9515 80.4298 37.5804 81.2398 37.3196 82.1698L37.46 82.2698C38.2423 81.7098 38.8942 80.9998 39.4057 80.1798C39.8972 79.3598 40.3084 78.3898 40.2883 77.3398H40.2783ZM43.3875 65.7098C43.8388 65.7498 43.8789 65.3798 43.7786 64.8698C43.8288 65.1198 44.25 65.5998 44.5208 65.1098C44.7916 64.6198 44.2901 64.4398 44.2901 64.4398C45.0423 64.3998 44.8317 63.4298 44.0795 63.6298C44.4305 62.9198 43.4577 62.6598 43.3975 63.2498C43.0063 62.4898 42.3143 63.1498 42.7055 63.7198C41.9232 63.3298 41.6925 64.2498 42.4547 64.5098C41.5521 64.9398 42.6553 65.7598 43.0565 64.9698C42.9763 65.1398 42.9361 65.6798 43.3875 65.7298V65.7098ZM43.2872 69.2598C43.1869 71.3998 44.7415 72.8898 45.9249 73.4198C49.2547 74.9098 53.7179 70.5698 50.7491 67.6198C55.1521 66.1398 52.9055 57.9098 48.4022 58.9498C53.1261 52.9898 43.9391 46.0598 39.5462 52.3698C42.3143 52.5098 44.7214 53.6498 44.7214 53.6498H41.8128L44.8718 55.2698L43.4978 55.2298L45.9651 56.8298L44.1297 56.5298L46.7173 58.1498L44.8117 57.5498C44.8117 57.5498 47.6099 59.6698 47.3592 59.6398C47.1084 59.6098 45.2831 58.6598 45.3633 58.7298C45.4435 58.7998 48.4424 61.4298 48.3421 61.3898C48.2418 61.3498 46.1356 60.2898 46.1356 60.2898C46.1356 60.2898 48.8937 63.3098 48.5527 63.0098C48.2117 62.7098 46.5769 61.6998 46.5769 61.6998L48.6931 64.4398L46.9279 63.2698L48.5727 65.9598L46.8978 64.6298L47.5698 66.2498L46.6671 65.6898L47.5297 67.8398L46.4364 66.6998C46.4364 66.6998 47.3692 69.6598 47.2689 69.5198C47.1586 69.3798 45.955 67.5698 45.955 67.5698L46.3161 69.6998L45.3533 68.5698L45.263 70.2598C44.4606 70.3098 43.6282 69.6198 43.2872 69.2498V69.2598ZM68.03 73.5298C66.0943 74.3598 64.1486 74.9598 62.1728 75.4098C60.197 75.8398 58.1911 76.1398 56.1651 76.2598C54.1492 76.4198 52.1132 76.4098 50.0772 76.3098C48.0412 76.1998 45.9951 75.9698 43.909 75.6998C45.7946 76.6398 47.8406 77.2398 49.9267 77.5998C52.0129 77.9698 54.1592 78.0598 56.2854 77.9298C58.4117 77.7698 60.5279 77.3798 62.5338 76.6598C64.5398 75.9498 66.4654 74.9398 68.03 73.5198V73.5298ZM71.8713 65.1898C75.3717 64.5898 74.6395 58.1198 71.1292 58.3798C75.3917 54.4398 69.2837 48.1398 65.2318 52.3798C67.2979 52.8098 68.9828 53.9498 68.9828 53.9498L66.7864 53.6198L68.9026 55.1898L67.8696 54.9998L69.5345 56.4998L68.1905 56.0598L69.9557 57.5798L68.5917 56.9098C68.5917 56.9098 70.4471 58.8398 70.2666 58.7898C70.0861 58.7398 68.8123 57.8098 68.8725 57.8698C68.9227 57.9298 70.8784 60.2698 70.8082 60.2198C70.738 60.1798 69.2737 59.1298 69.2737 59.1298C69.2737 59.1298 70.9988 61.7298 70.7681 61.4598C70.5474 61.1898 69.4342 60.2398 69.4342 60.2398L70.7079 62.5498L69.5144 61.4598L70.4371 63.6798L69.3339 62.4798L69.6548 63.7798L69.033 63.2498L69.4241 64.9698L68.7321 63.9798C68.7321 63.9798 69.0932 66.3198 69.023 66.1998C68.9628 66.0798 68.2607 64.5798 68.2607 64.5798L68.2808 66.2298L67.689 65.2698L67.4182 66.5298C66.8064 66.4698 66.2648 65.8598 66.0542 65.5398C65.7232 67.1398 66.7162 68.4498 67.5486 68.9898C69.8855 70.5098 73.7669 67.7498 71.8713 65.1898ZM76.1038 65.7098C76.505 64.5798 77.0566 63.5098 77.5781 62.3898C78.7315 60.2098 78.8519 57.2298 77.7186 54.8798C76.5551 52.5598 74.7498 50.7698 72.6938 49.4298L72.5734 49.5498C73.8572 51.6398 75.2212 53.5598 76.0737 55.6098C76.505 56.6298 76.836 57.6598 76.9162 58.7398C76.9964 59.8198 76.9162 60.9498 76.6955 62.1098C76.4849 63.2698 76.0938 64.4098 75.5923 65.5098C75.1009 66.5998 74.4088 67.6498 73.9876 68.8298C73.1952 71.1998 73.2955 73.8998 74.3286 76.1498L74.489 76.1198C74.5893 74.8898 74.6295 73.7298 74.7699 72.5798C74.8902 71.4298 75.141 70.3298 75.3315 69.1898C75.5221 68.0498 75.6826 66.8398 76.0837 65.7198L76.1038 65.7098ZM86.2336 77.9298C86.2437 77.0398 85.9628 76.2098 85.5516 75.4998C85.351 75.1398 85.0903 74.8198 84.8295 74.5298C84.5587 74.2298 84.2077 73.9598 83.8667 73.7598C83.1546 73.3698 82.3723 73.2098 81.6 73.1698C80.8177 73.1398 80.0053 73.2098 79.213 73.5598C78.4206 73.8898 77.6784 74.5898 77.3475 75.4798C77.0366 76.3798 77.0566 77.2798 77.3475 78.1798C77.518 78.6298 77.7888 79.1198 78.2501 79.4698C78.6914 79.8498 79.3133 79.9698 79.8348 79.9598C80.3563 79.9098 80.8377 79.7498 81.2189 79.4798C81.4195 79.3698 81.59 79.1898 81.7504 79.0398C81.9009 78.8698 82.0413 78.6798 82.1516 78.4798C82.3622 78.0798 82.5026 77.6098 82.4324 77.1598C82.4324 76.9398 82.3121 76.7298 82.2519 76.5398C82.1516 76.3498 82.0012 76.1998 81.8908 76.0498C81.8507 75.9998 81.7905 75.9898 81.7404 76.0298C81.7003 76.0598 81.6903 76.0998 81.7003 76.1398V76.1598C81.8808 76.8798 81.62 77.4498 81.2189 77.8098C80.8077 78.1798 80.2259 78.3498 79.8248 78.2898C79.6442 78.2198 79.4938 78.1998 79.4035 78.0598C79.2932 77.9598 79.223 77.7798 79.1428 77.5598C79.0324 77.0798 78.9823 76.4798 79.0425 75.9798C79.1026 75.4698 79.3433 74.9698 79.7947 74.5598C80.246 74.1598 80.8979 73.8798 81.5699 73.8498C82.2419 73.8098 82.9339 73.9898 83.4554 74.3698C83.7162 74.5598 83.9168 74.7798 84.0773 75.0698C84.2478 75.3498 84.3681 75.6598 84.4484 75.9698C84.7793 77.2198 84.4684 78.4398 83.7463 79.2098C83.3852 79.5998 82.9038 79.8798 82.3622 80.0798C82.1616 80.1398 81.6501 80.3398 81.2389 80.5398C81.0383 80.6598 80.8478 80.7898 80.6572 80.9098C80.4767 81.0498 80.3062 81.1998 80.1357 81.3598C79.4938 81.9998 79.0124 82.7998 78.7817 83.6798C78.541 84.5498 78.551 85.5398 78.9422 86.4098C79.3233 87.2898 80.0855 87.9198 80.8578 88.2098C81.6301 88.5498 82.4324 88.5598 83.1847 88.4998C83.2448 88.4998 83.295 88.4398 83.2849 88.3798C83.2849 88.3398 83.2549 88.3098 83.2248 88.2898H83.2147C82.5428 87.9798 81.8908 87.6998 81.4195 87.2598C80.938 86.8398 80.6371 86.3598 80.5469 85.8498C80.3764 84.8298 80.928 83.7198 81.7203 83.0098C81.8307 82.9298 81.9209 82.8298 82.0313 82.7498C82.1416 82.6798 82.2619 82.6198 82.3622 82.5398C82.6029 82.4198 82.7634 82.3398 83.2348 82.1298C84.0271 81.7698 84.7894 81.2098 85.331 80.4598C85.8826 79.7198 86.1935 78.8098 86.2035 77.9198L86.2336 77.9298ZM87.8785 65.4798C92.2213 64.7298 91.3186 56.7098 86.9558 57.0198C92.2513 52.1198 84.669 44.2998 79.6342 49.5698C82.2018 50.1098 84.2979 51.5198 84.2979 51.5198L81.5699 51.1098L84.1976 53.0698L82.9239 52.8398L85 54.6998L83.3251 54.1498L85.5115 56.0398L83.8165 55.1998C83.8165 55.1998 86.1233 57.5998 85.8926 57.5298C85.6619 57.4598 84.0973 56.3098 84.1575 56.3798C84.2177 56.4598 86.6448 59.3598 86.5546 59.2998C86.4643 59.2398 84.649 57.9498 84.649 57.9498C84.649 57.9498 86.7853 61.1798 86.5044 60.8498C86.2236 60.5198 84.8496 59.3398 84.8496 59.3398L86.4242 62.2098L84.9398 60.8498L86.0832 63.6098L84.7091 62.1198L85.1003 63.7298L84.338 63.0698L84.8295 65.2098L83.977 63.9798C83.977 63.9798 84.4183 66.8898 84.338 66.7398C84.2578 66.5898 83.3852 64.7198 83.3852 64.7198L83.4153 66.7698L82.6731 65.5698L82.3422 67.1398C81.5799 67.0698 80.908 66.2998 80.6472 65.9098C80.236 67.8998 81.4696 69.5198 82.5026 70.1898C85.4012 72.0698 90.2154 68.6498 87.8684 65.4698L87.8785 65.4798ZM92.7829 66.8298C93.134 66.1198 92.1611 65.8598 92.1009 66.4498C91.7098 65.6898 91.0177 66.3498 91.4089 66.9198C90.6266 66.5298 90.3959 67.4498 91.1581 67.7098C90.2555 68.1398 91.3587 68.9598 91.7599 68.1698C91.6797 68.3398 91.6395 68.8798 92.0909 68.9298C92.5422 68.9798 92.5823 68.5998 92.482 68.0898C92.5322 68.3398 92.9534 68.8198 93.2242 68.3298C93.495 67.8398 92.9935 67.6598 92.9935 67.6598C93.7458 67.6198 93.5351 66.6498 92.7829 66.8498V66.8298ZM97.9381 59.4498C100.746 58.1398 98.6402 52.8498 95.7316 53.8798C98.4095 49.5698 91.8 45.6698 89.3729 50.1798C91.2183 50.0698 92.9033 50.6398 92.9033 50.6398L90.9776 50.8698L93.1239 51.7098L92.2112 51.7898L93.9664 52.6698L92.7328 52.6098L94.5682 53.4898L93.2643 53.2398C93.2643 53.2398 95.2803 54.4398 95.1098 54.4398C94.9393 54.4398 93.6555 53.9398 93.7157 53.9798C93.7758 54.0198 95.9623 55.5398 95.8921 55.5198C95.8219 55.4998 94.3475 54.9598 94.3475 54.9598C94.3475 54.9598 96.4036 56.7598 96.1528 56.5798C95.9021 56.4098 94.7487 55.8598 94.7487 55.8598L96.3534 57.5198L95.0897 56.8698L96.3835 58.5298L95.1699 57.7698L95.7416 58.7898L95.0997 58.4898L95.8319 59.8498L95.0195 59.1698C95.0195 59.1698 95.862 61.0598 95.7817 60.9798C95.7015 60.8898 94.7587 59.7898 94.7587 59.7898L95.1599 61.1798L94.4378 60.5098L94.508 61.6398C93.9764 61.7298 93.3747 61.3398 93.1239 61.1198C93.2142 62.5498 94.3576 63.4198 95.18 63.6798C97.4968 64.4198 100.135 61.1998 97.9381 59.4798V59.4498ZM106.182 86.3598C105.4 85.4398 105.3 84.0098 105.671 82.8298C105.731 82.6898 105.771 82.5298 105.821 82.3898C105.892 82.2498 105.972 82.1198 106.032 81.9798C106.202 81.7198 106.313 81.5398 106.664 81.0498C107.235 80.2198 107.667 79.2198 107.767 78.1498C107.877 77.0898 107.647 75.9898 107.125 75.0998C106.604 74.2098 105.831 73.5398 104.999 73.0698C104.588 72.8298 104.136 72.6698 103.695 72.5198C103.244 72.3798 102.742 72.3198 102.271 72.3298C101.328 72.3598 100.456 72.6598 99.6531 73.0798C98.8608 73.5098 98.0885 74.0698 97.4968 74.8798C96.9051 75.6698 96.5741 76.8098 96.7847 77.8998C97.0053 78.9798 97.567 79.8698 98.3894 80.5898C98.8307 80.9498 99.3823 81.2698 100.064 81.3398C100.736 81.4598 101.418 81.2198 101.94 80.8998C102.431 80.5398 102.822 80.0998 103.033 79.5998C103.174 79.3598 103.234 79.0998 103.304 78.8398C103.354 78.5798 103.374 78.3098 103.374 78.0498C103.344 77.5198 103.204 76.9798 102.873 76.5598C102.752 76.3298 102.502 76.1998 102.321 76.0398C102.11 75.9098 101.87 75.8498 101.669 75.7598C101.609 75.7298 101.529 75.7598 101.509 75.8298C101.489 75.8798 101.509 75.9298 101.539 75.9598L101.559 75.9798C102.171 76.5998 102.231 77.3198 102.06 77.9098C101.87 78.5198 101.388 79.0398 100.957 79.2198C100.736 79.2598 100.566 79.3298 100.405 79.2398C100.235 79.2098 100.054 79.0698 99.8437 78.8898C99.4425 78.4798 99.0413 77.9098 98.8107 77.3698C98.57 76.8298 98.5098 76.1898 98.7204 75.5098C98.931 74.8398 99.4225 74.1798 100.074 73.7498C100.716 73.3198 101.519 73.0898 102.261 73.1598C102.642 73.1998 102.973 73.2998 103.294 73.4898C103.635 73.6698 103.936 73.8998 104.197 74.1698C105.27 75.2298 105.681 76.6298 105.42 77.8098C105.29 78.4098 104.979 78.9798 104.558 79.4898C104.397 79.6698 103.996 80.1698 103.715 80.6098C103.585 80.8398 103.474 81.0898 103.354 81.3298C103.254 81.5798 103.174 81.8298 103.103 82.0898C102.843 83.1098 102.843 84.1898 103.133 85.2098C103.414 86.2198 104.006 87.1998 104.919 87.8398C105.821 88.4898 106.955 88.6698 107.907 88.5098C108.88 88.3898 109.693 87.9198 110.405 87.4298C110.465 87.3898 110.475 87.3098 110.435 87.2498C110.405 87.2098 110.365 87.1898 110.315 87.1998H110.305C109.452 87.2898 108.63 87.3998 107.907 87.2398C107.185 87.1098 106.594 86.7998 106.202 86.3498L106.182 86.3598ZM133.673 49.9998C132.911 48.4998 131.647 47.3098 130.253 46.3598C128.839 45.4398 127.285 44.7298 125.71 44.1498C122.541 42.9898 119.241 42.3398 115.991 41.5998C114.366 41.2498 112.732 40.9198 111.157 40.4498C109.582 39.9898 108.058 39.3698 106.925 38.2498C105.791 37.1498 105.24 35.4998 105.48 33.9098C105.591 33.1198 105.861 32.3298 106.323 31.6598C106.774 31.0098 107.466 30.4198 108.319 30.3898C107.466 30.3198 106.664 30.8698 106.142 31.5298C105.601 32.1998 105.25 32.9998 105.069 33.8498C104.728 35.5398 105.25 37.4098 106.453 38.7098C107.647 40.0398 109.342 40.6998 110.926 41.1998C112.541 41.6998 114.176 42.0698 115.811 42.4398C119.08 43.1098 122.34 43.7698 125.499 44.7798C127.074 45.2798 128.608 45.8998 130.033 46.7298C130.745 47.1498 131.427 47.5998 132.049 48.1498C132.66 48.6998 133.212 49.3198 133.673 50.0198V49.9998ZM135.358 64.0598C134.185 66.3598 132.4 68.2698 130.283 69.6598C128.167 71.0398 125.77 71.9798 123.283 72.3998C120.805 72.8398 118.218 72.7798 115.791 72.0998C113.374 71.4198 111.127 70.0098 109.572 67.9398C110.204 69.0698 111.097 70.0598 112.12 70.8698C113.163 71.6698 114.356 72.2798 115.6 72.7098C118.107 73.5698 120.836 73.6698 123.423 73.2198C126.021 72.7598 128.528 71.7498 130.644 70.1798C131.697 69.3998 132.66 68.4798 133.473 67.4598C134.265 66.4198 134.927 65.2798 135.338 64.0598H135.358ZM137.424 55.4598C137.505 53.0398 136.732 50.5798 135.278 48.6698C134.957 48.1598 134.526 47.7398 134.105 47.3098L133.483 46.6698L132.781 46.1198C131.868 45.3598 130.815 44.7998 129.792 44.2298C130.715 44.9598 131.708 45.5798 132.52 46.4298L133.162 47.0098L133.723 47.6698C134.095 48.1098 134.486 48.5298 134.757 49.0398C136.01 50.9398 136.682 53.1898 136.592 55.4398C136.542 57.6998 135.79 59.9198 134.686 61.9298C134.405 62.4298 134.085 62.9098 133.784 63.3998C133.453 63.8698 133.082 64.3198 132.741 64.7798L131.587 66.0898C131.166 66.4898 130.745 66.8998 130.323 67.3098C132.279 65.9998 133.964 64.2598 135.248 62.2498C136.532 60.2398 137.364 57.8898 137.444 55.4598H137.424ZM97.8879 59.9798C97.9281 60.5698 97.8679 61.1098 97.6172 61.5098C97.3664 61.8998 96.9552 62.1698 96.4938 62.3198C96.0325 62.4698 95.511 62.4998 95.0095 62.4198C94.508 62.3298 94.0266 62.1098 93.6154 61.6798C93.7257 62.2698 94.2372 62.7798 94.8289 62.9998C95.4207 63.2398 96.0927 63.2498 96.7245 63.0598C97.3363 62.8698 97.9381 62.4198 98.1688 61.7698C98.4095 61.1298 98.229 60.4498 97.8879 59.9798Z" fill="#FFDA8B"/>
</g>
<defs>
<clipPath id="clip0_17368_228331">
<rect width="140" height="140" fill="white"/>
</clipPath>
</defs>
</svg>
