<svg width="140" height="140" viewBox="0 0 140 140" fill="none" xmlns="http://www.w3.org/2000/svg">
<path d="M49.7453 71.8015C49.2787 70.9964 49.9527 68.0876 52.1952 67.1006C54.3729 66.1786 56.3951 66.6851 57.6395 68.2953C56.097 67.5292 54.36 67.4513 52.6619 68.2044C51.236 68.7888 49.8101 70.1523 49.7453 71.8015ZM47.6713 80.567C46.9454 80.0995 46.5047 79.4632 46.2454 78.775C45.9991 78.0867 45.8954 77.3335 45.9991 76.6323C46.0769 75.9311 46.3621 75.2688 46.8547 74.8143C47.3602 74.3468 48.112 74.126 48.9676 74.0221C48.2028 73.6585 47.1917 73.5806 46.3362 74.1001C45.4677 74.5935 44.9881 75.5805 44.8714 76.5025C44.7677 77.4374 44.9621 78.3984 45.4547 79.1905C45.9343 79.9827 46.7899 80.58 47.6583 80.58L47.6713 80.567ZM57.6136 74.6714C56.421 75.3467 55.747 76.6843 55.5785 77.9569C55.4359 79.2425 55.6822 80.567 56.3692 81.6449C57.0173 82.7227 58.1839 83.5668 59.3894 83.5668C58.3913 82.9175 57.7951 82.0345 57.4451 81.0865C57.108 80.1385 56.9784 79.1126 57.121 78.1387C57.2377 77.1647 57.6265 76.2687 58.3136 75.6454C59.0006 75.0091 60.0505 74.7104 61.2301 74.5675C60.1802 74.0741 58.7932 73.9442 57.6136 74.6455V74.6714ZM44.5084 83.4239C44.7158 84.3589 45.4547 85.0861 46.2713 85.4497C47.101 85.8134 48.0213 85.9172 48.8768 85.6835C49.7324 85.4757 50.5231 84.8654 50.7823 84.0732C50.1472 84.6057 49.4342 84.8134 48.7342 84.8524C48.0343 84.8784 47.3213 84.7485 46.7121 84.4628C46.0899 84.1901 45.5843 83.7356 45.2992 83.1512C45.014 82.5539 45.0399 81.8007 45.1955 80.9956C44.651 81.5929 44.2881 82.489 44.4955 83.411L44.5084 83.4239ZM39.829 85.6315C40.3345 85.242 40.4252 84.5148 40.0364 84.0083C39.6475 83.5019 38.9216 83.411 38.416 83.8005C37.9105 84.1901 37.8198 84.9173 38.2086 85.4238C38.5975 85.9302 39.3234 86.0211 39.829 85.6315ZM94.0254 70.0484C94.7513 70.1653 95.4513 70.451 96.0087 70.8795C96.579 71.2951 97.0197 71.8535 97.1753 72.5158C97.3308 73.1781 97.1623 73.9442 96.8253 74.7493C97.5123 74.2559 98.0827 73.4248 98.0438 72.4249C98.0438 71.425 97.4216 70.5289 96.6697 69.9705C95.905 69.4251 94.9717 69.1135 94.0513 69.1654C93.131 69.1914 92.1847 69.6459 91.7569 70.4121C92.5217 69.9965 93.2865 69.9316 94.0124 70.0484H94.0254ZM99.2363 56.1275C97.616 55.2055 96.6438 53.7771 96.3327 52.0759C95.8013 54.0368 96.592 55.9717 98.6401 57.1664C100.766 58.3741 103.501 57.1664 103.864 56.3223C102.503 57.2573 100.559 56.9327 99.2363 56.1405V56.1275ZM114.908 49.3099C115.349 49.8553 115.673 50.5046 115.802 51.1669C115.958 51.8292 115.906 52.5045 115.595 53.0759C115.284 53.6602 114.675 54.0888 113.936 54.4524C114.74 54.5433 115.673 54.2965 116.282 53.5693C116.904 52.8421 117.034 51.8162 116.852 50.9462C116.658 50.0631 116.178 49.258 115.478 48.7126C114.804 48.1542 113.845 47.8685 113.054 48.1542C113.858 48.349 114.454 48.7905 114.908 49.3229V49.3099ZM56.1359 87.1249C55.7599 86.3068 55.7859 85.2679 56.0062 84.1512C55.2544 84.9563 54.7359 86.1899 55.034 87.4755C55.3062 88.7612 56.3303 89.7611 57.4321 90.2805C58.5598 90.787 59.8302 90.9298 61.0227 90.6311C62.2023 90.3584 63.3041 89.5273 63.6541 88.4235C62.7856 89.1507 61.8005 89.4364 60.8413 89.4884C59.882 89.5143 58.9098 89.3455 58.0673 88.93C57.2117 88.5404 56.5118 87.9301 56.1359 87.1249ZM107.999 56.8418C107.325 56.7249 106.703 56.2444 106.106 55.6211C106.275 56.4522 106.819 57.3093 107.74 57.6859C108.66 58.0884 109.723 57.8806 110.54 57.4261C111.356 56.9457 112.004 56.2184 112.329 55.3484C112.678 54.4913 112.64 53.4524 112.121 52.7382C112.186 53.5953 111.94 54.3355 111.538 54.9588C111.136 55.5691 110.592 56.1016 109.969 56.4392C109.36 56.8028 108.673 56.9586 107.999 56.8418ZM66.3374 66.6202C68.6836 65.6073 71.0687 65.7241 73.1816 66.789C71.4705 64.5814 68.6966 63.8542 65.7022 65.1008C62.6171 66.4513 61.6709 70.438 62.306 71.5548C62.4097 69.2823 64.38 67.4123 66.3374 66.6202ZM84.3683 67.2435C84.9386 66.8409 85.5868 66.5682 86.2479 66.4773C86.9089 66.3734 87.57 66.4643 88.1145 66.802C88.6718 67.1396 89.0607 67.7759 89.3718 68.5291C89.5015 67.7499 89.32 66.802 88.6459 66.1527C87.9719 65.4904 86.9608 65.2956 86.0923 65.4255C85.2109 65.5683 84.3942 65.9839 83.7979 66.6331C83.2017 67.2695 82.8646 68.2044 83.085 68.9966C83.3183 68.2174 83.7979 67.659 84.3553 67.2435H84.3683ZM85.2368 92.0076C84.5886 92.2673 83.8887 92.3842 83.2276 92.3193C82.5535 92.2674 81.9313 92.0206 81.4776 91.5661C81.0239 91.1116 80.7906 90.3974 80.661 89.5923C80.3499 90.3195 80.311 91.2804 80.8165 92.0726C81.3221 92.8777 82.2554 93.2932 83.1239 93.3712C84.0183 93.4361 84.9127 93.2283 85.6386 92.7219C86.3645 92.2414 86.9089 91.4103 86.8701 90.5792C86.4553 91.2804 85.8719 91.7219 85.2238 91.9946L85.2368 92.0076ZM95.555 88.6702C95.3216 89.3195 94.9587 89.9299 94.4661 90.3974C93.9865 90.8649 93.3902 91.1765 92.7551 91.2285C92.1069 91.2674 91.4199 90.9817 90.7329 90.5532C91.0829 91.2674 91.7699 91.9297 92.7032 92.0726C93.6365 92.2284 94.5698 91.7999 95.205 91.1895C95.8401 90.5662 96.2679 89.7481 96.3716 88.865C96.4883 88.008 96.2161 87.047 95.5809 86.5276C95.8401 87.3067 95.7753 88.0339 95.5679 88.6962L95.555 88.6702ZM97.5382 81.6319L93.2347 81.2423L97.3308 82.6188L92.3921 82.1773L97.0975 83.7616L92.0421 83.3071L94.842 88.7611L91.5884 84.6316L93.9865 89.3066L91.1736 85.7484L93.2476 89.787L89.994 85.6575L92.3921 90.3325L88.9181 85.9302L88.8793 88.9819L88.2052 85.9822L88.1663 89.0598L87.5052 86.125L84.9257 91.7739L86.196 86.1899L83.8239 91.3973L84.9257 86.5795L82.8776 91.0726L84.1479 85.4887L81.7758 90.6961L83.1887 84.5018L76.8889 85.4627L82.2424 83.4759L76.5908 84.3459L81.2184 82.6188L76.3445 83.372L81.698 81.3852L76.0463 82.2552L82.1258 79.9957C82.1258 79.9177 82.1517 79.8528 82.1517 79.7879L77.2648 75.7752L82.3332 78.4244L77.9129 74.8013L82.2813 77.0868L78.4574 73.9572L83.5257 76.6063L79.1055 72.9833L84.5498 75.8402L84.0961 69.7628L85.6645 75.2688L85.2368 69.555L86.5978 74.3078L86.2219 69.3732L87.7904 74.8792L87.3626 69.1654L88.9441 74.7104L93.3513 71.5548L90.1885 75.3727L94.2198 72.4898L91.4847 75.7882L94.9717 73.2949L91.8088 77.1128L95.8401 74.2299L92.2495 78.5672C92.2495 78.5672 92.2625 78.6062 92.2754 78.6321L97.7716 80.4761L92.781 80.0216L97.5253 81.6189L97.5382 81.6319ZM91.8606 80.5541C91.8606 78.0737 89.8514 76.0609 87.3756 76.0609C84.8997 76.0609 82.8906 78.0737 82.8906 80.5541C82.8906 83.0344 84.8997 85.0472 87.3756 85.0472C89.8514 85.0472 91.8606 83.0344 91.8606 80.5541ZM116.58 94.3191C113.573 99.4875 107.701 115.811 116.178 119.901C116.178 119.901 117.786 126.992 116.178 130.68C114.623 131.952 106.132 131.861 103.151 130.68C103.021 125.524 101.544 121.447 101.544 121.447C101.544 121.447 108.297 116.213 100.079 104.5C92.6643 110.136 84.5757 108.448 82.035 106.98C79.624 114.668 77.3555 119.304 85.1071 122.576C86.3127 130.277 85.2497 131.745 85.2497 131.745C82.9813 132.77 75.9686 133.796 71.8854 132.082C71.4705 128.057 69.928 124.953 68.8132 123.174C68.2169 122.226 68.3595 121.018 69.1503 120.239C71.4576 117.941 75.1519 112.305 71.4187 101.812C60.6598 99.1369 60.0505 114.473 65.5337 118.888C66.0652 120.161 65.6633 123.447 65.6633 123.447C64.743 124.369 58.508 124.057 56.6414 123.239C57.2247 119.966 56.1229 117.343 54.5803 115.941C54.1526 115.551 54.023 114.941 54.3081 114.434C60.2839 103.617 52.4415 97.4098 52.4415 97.4098C52.4415 97.4098 42.6807 93.9555 32.3885 102.163C22.2258 110.266 29.3034 118.707 29.3034 118.707C29.3034 118.707 29.7052 121.239 29.0312 123.187C24.2221 124.317 18.9463 123.395 17.0019 122.46C16.9371 117.109 18.5445 114.291 18.5445 114.291C18.5445 114.291 21.0851 110.409 21.0851 107.928C21.0851 106.396 21.2925 102.708 21.4481 100.098C21.5518 98.4616 22.4462 96.9942 23.8202 96.1112C25.4276 95.0853 27.372 93.4361 27.5664 91.3973C27.9034 87.8392 24.1572 85.1641 26.9701 78.4633C29.6922 71.9833 35.2273 67.2435 35.5643 66.9578C34.8643 67.1136 20.3203 70.2952 19.1407 58.9195C17.9482 47.2711 34.6439 44.661 39.7253 45.8037C44.5214 46.8816 62.656 46.8166 56.084 35.7137C55.6562 34.9865 56.434 34.1034 57.1729 34.506C61.282 36.7266 60.5561 42.0768 59.6487 42.9988C61.0227 41.7521 61.9301 40.2717 62.5005 38.9212C62.7856 38.2589 63.7967 38.4797 63.7578 39.1939C63.5245 44.4272 60.1413 49.1022 54.2952 50.6215C55.034 51.1669 56.5766 51.7643 57.9636 52.1668C58.6376 52.3616 58.5987 53.3226 57.8988 53.4654C53.9581 54.2706 49.7972 52.8421 46.5436 50.6994C47.6972 52.2707 47.1917 54.1797 46.6343 55.4003C46.4528 55.7899 45.8825 55.725 45.7917 55.3094C45.3251 53.1538 43.3937 49.1671 35.4476 49.1671C24.5461 49.1671 22.3554 57.2054 23.2239 59.6727C24.0924 62.153 30.5089 67.0357 39.3234 62.153C48.138 57.2703 57.4969 67.3214 68.3206 57.8027C72.3131 54.2965 75.7612 52.2448 78.7296 51.063C77.0963 49.206 75.0612 47.2582 74.1927 46.5569C75.3204 44.8817 75.6056 44.0766 73.7908 41.0769C71.989 38.0511 77.6666 35.5838 79.8055 34.2463C77.3296 33.7138 73.389 31.9737 71.3928 26.9482C69.6039 22.481 72.1576 15.6115 78.9759 12.7935C79.4555 12.5987 79.8314 13.248 79.4296 13.5727C73.9334 18.1437 74.9056 22.7018 78.0037 25.3899C81.4906 28.4026 85.0294 26.5196 85.0294 26.5196C89.5144 21.9616 94.855 23.442 97.0586 23.3771C98.0567 23.3381 99.4697 22.8576 100.714 22.3252C102.464 21.585 104.46 21.6889 106.132 22.6109C106.534 22.8316 106.845 23.0005 106.949 23.0264C111.603 21.3253 119.769 17.4425 115.271 5.69023C115.064 5.13184 115.802 4.72928 116.152 5.22274C126.354 19.8968 114.701 26.7794 114.701 26.7794C114.701 26.7794 115.297 26.7664 116.191 26.8313C117.734 26.9482 118.46 28.8571 117.371 29.9609C114.338 33.0516 109.982 35.5838 108.829 35.9474C119.458 40.1678 123.126 57.8417 122.997 69.4251C122.854 81.0086 119.588 89.1637 116.58 94.3191ZM117.177 58.4001C115.569 62.2439 109.866 63.3997 104.577 61.9063C103.06 65.7891 108.673 69.7238 110.98 65.5034C111.486 68.3733 116.827 67.6461 116.593 64.7112C119.912 66.0618 121.454 60.2701 117.177 58.3871V58.4001ZM95.6976 50.8033C93.468 56.4911 101.712 62.2699 105.082 56.0886C105.821 60.296 113.651 59.2182 113.314 54.9328C118.175 56.9197 120.482 47.3361 112.238 47.0114C112.73 54.1926 102.192 54.6861 95.6846 50.8033H95.6976ZM118.823 15.9621C118.797 17.7152 118.201 19.3384 117.319 20.7409C116.425 22.1434 115.271 23.39 113.988 24.4809C112.717 25.5847 111.304 26.5456 109.853 27.4287C108.388 28.2987 106.871 29.1038 105.277 29.7921C107.001 29.5064 108.673 28.935 110.255 28.1689C111.836 27.4027 113.327 26.4417 114.688 25.299C116.023 24.1432 117.228 22.7667 118.045 21.1565C118.875 19.5592 119.225 17.6762 118.823 15.9621ZM103.008 26.8962C106.806 26.2469 110.553 24.8055 113.638 22.3122C115.154 21.0526 116.489 19.4813 117.254 17.6113C118.045 15.7673 118.136 13.6766 117.669 11.8066C117.721 13.7415 117.345 15.6245 116.489 17.2607C115.647 18.8969 114.39 20.2994 112.951 21.4811C111.525 22.6758 109.905 23.6498 108.232 24.5328C106.547 25.4029 104.797 26.169 103.008 26.8962ZM99.8585 47.1802C98.3808 47.3101 96.8642 47.414 95.3216 47.7386C96.7864 48.297 98.2771 48.6477 99.8196 48.8424C101.349 49.0242 102.944 49.0762 104.577 48.7126C105.381 48.5438 106.197 48.2321 106.949 47.7646C107.325 47.5309 107.662 47.2062 107.999 46.9205C108.271 46.5569 108.595 46.2193 108.777 45.8167C109.606 44.1935 109.438 42.4404 108.893 40.9989C108.569 42.5313 108.168 43.9597 107.377 44.9077C106.612 45.8817 105.407 46.3232 104.097 46.6348C102.775 46.9335 101.336 47.0634 99.8585 47.1932V47.1802ZM94.3754 35.1163C97.6679 34.7657 99.9882 32.5321 99.6382 30.2986C97.2271 30.3895 95.3605 31.3634 94.3754 35.1163ZM85.2497 49.9722C84.8609 49.9073 84.472 49.9333 84.0961 49.9462L82.9554 50.0112C82.2035 50.141 81.4776 50.3098 80.7517 50.4657C81.5036 50.5176 82.2424 50.5696 82.9683 50.5955C83.6813 50.7514 84.4201 50.7514 85.0812 50.9981C86.4682 51.2968 87.57 52.0759 88.3089 53.1018C89.7866 55.1926 89.994 58.491 92.2625 61.1012C92.8069 61.7504 93.5198 62.2439 94.2069 62.7114C94.9587 63.075 95.7364 63.4646 96.3327 63.6983C97.629 64.2178 98.8215 64.919 99.8845 65.7891C101.997 67.5292 103.54 70.0874 103.916 73.0612C104.46 70.0874 103.242 66.802 101.012 64.5684C99.9234 63.3997 98.5623 62.5556 97.1623 61.8543C96.3975 61.5037 95.8661 61.218 95.2828 60.9193C94.7643 60.5428 94.2457 60.1921 93.8569 59.6857C92.9884 58.7507 92.418 57.517 91.8606 56.1665C91.2644 54.8419 90.7329 53.3226 89.6052 52.0629C88.5033 50.7773 86.8182 50.0371 85.2627 49.9722H85.2497ZM81.2832 42.3495C83.1498 43.1546 85.4701 41.5444 85.2886 39.4926C83.9535 38.7784 81.3739 39.2199 81.2832 42.3495ZM74.8019 25.7795C75.9037 27.1949 77.4463 28.2208 79.1185 28.7273C80.7906 29.2597 82.5665 29.2597 84.2127 28.9091C82.5146 28.8441 80.8814 28.5584 79.3907 27.9351C77.9129 27.3118 76.5778 26.3638 75.6315 25.1172C74.6723 23.8835 74.089 22.3512 74.0501 20.7669C74.0242 19.1826 74.5038 17.5724 75.3334 16.092C74.1797 17.3126 73.3372 18.9618 73.2205 20.7409C73.0779 22.52 73.7001 24.351 74.789 25.7665L74.8019 25.7795ZM82.6183 31.4153C81.2443 31.2076 79.974 30.779 78.7685 30.2336C77.5759 29.6622 76.4611 28.948 75.5019 28.065C74.5297 27.2079 73.7131 26.169 73.1816 25.0003C72.6501 23.8316 72.4168 22.494 72.5983 21.1175C72.015 22.3771 71.9372 23.9225 72.4038 25.299C72.8446 26.6885 73.739 27.8962 74.789 28.8701C76.9148 30.766 79.8444 31.8569 82.6183 31.4283V31.4153ZM61.5801 73.1651C56.3562 70.49 51.0545 79.9827 56.0192 83.1772C51.4564 85.9043 55.6173 92.6699 60.1802 91.8388C61.8005 91.5401 64.1726 90.1896 64.7041 87.5015C64.1726 87.8521 62.9412 88.4495 61.969 88.1378L62.3838 86.0211L60.8413 87.1249L61.9431 84.5927C61.9431 84.5927 59.895 86.4626 59.7135 86.5925C59.532 86.7354 61.606 83.359 61.606 83.359L59.908 84.4368L61.632 82.0344L60.3487 82.45L61.6838 80.6579L59.208 81.7877L62.0597 78.9568L59.5191 79.8658L62.9671 77.1258C62.9671 77.1258 60.6468 77.879 60.1283 78.1387C59.6098 78.4114 63.9393 75.5155 63.9393 75.5155C63.9393 75.5155 61.0227 76.1778 60.8801 76.1908C60.7376 76.2168 65.2485 73.8793 65.3652 73.8144C65.4818 73.7494 62.9412 74.3598 62.6171 74.3338C62.2931 74.3078 66.4022 72.5288 66.4022 72.5288L63.8745 72.6846L67.5688 71.4769L65.2096 71.2951L68.7355 70.0744L67.0374 69.6978L71.302 68.646L67.7244 67.737C67.7244 67.737 71.0428 67.0747 74.5038 67.737C71.0298 58.5819 57.5877 64.3346 61.5672 73.1651H61.5801ZM45.2214 80.3073C40.7363 83.0214 47.0102 90.6052 52.1952 84.1771C46.1547 80.2814 52.0656 71.5159 59.0524 68.607C55.8247 63.4126 46.2843 66.5812 49.2138 72.9963C45.4029 71.0743 41.5789 77.9958 45.2084 80.3073H45.2214ZM33.2958 81.7747C33.8662 78.8529 35.2273 76.1388 37.0031 73.7105C37.8716 72.4768 38.8568 71.3211 39.8808 70.1913C40.866 69.0355 41.9419 67.9447 42.9789 66.815C40.6067 68.7499 38.3123 70.8016 36.368 73.217C35.3828 74.4117 34.5143 75.7233 33.8014 77.1128C33.1014 78.5153 32.5959 80.0216 32.2588 81.554C31.9348 83.0863 31.7922 84.6576 31.7922 86.2029L31.7663 88.4625C31.6885 89.2027 31.6366 89.9429 31.4681 90.6571C30.8978 93.54 29.1478 96.293 26.3998 97.6825C27.8645 97.215 29.1349 96.2151 30.1589 95.0333C31.1441 93.8127 31.844 92.3583 32.2588 90.8389C32.4922 90.0857 32.5959 89.2936 32.6866 88.5144L32.7903 86.1899C32.8162 84.6836 32.9588 83.1902 33.2829 81.7358L33.2958 81.7747ZM41.1641 77.4504C42.1233 77.3985 41.8641 76.1648 40.8919 76.4115C41.3456 75.5025 40.1012 75.1779 40.0234 75.9311C39.5179 74.9571 38.6494 75.8142 39.1419 76.5284C38.1438 76.035 37.8587 77.2037 38.8179 77.5413C37.6772 78.0867 39.0642 79.1386 39.5827 78.1257C39.479 78.3335 39.4271 79.0347 39.9975 79.0866C40.5678 79.1386 40.6197 78.6581 40.503 78.0088C40.5678 78.3205 41.1123 78.9438 41.4493 78.3075C41.7993 77.6842 41.1641 77.4504 41.1641 77.4504ZM37.5994 85.7225C37.042 85.8913 36.018 86.9691 37.2105 87.5015C38.4031 88.021 38.7271 86.8392 38.7271 86.8392C38.9864 88.5794 41.1771 87.8911 40.5678 86.1899C42.2918 86.8652 42.6807 84.5407 41.3067 84.5277C42.9789 83.4499 41.3067 82.0215 40.0882 83.0214C40.8141 81.1254 38.6623 80.8008 38.2086 82.6058C37.0291 80.619 35.3569 83.3201 37.2753 84.0992C36.8735 83.9434 35.6032 83.9694 35.5902 85.0082C35.5902 86.0601 36.4587 86.0601 37.6124 85.7484L37.5994 85.7225ZM67.5688 97.8773C66.1948 98.163 64.8467 98.163 63.5764 97.8383C62.306 97.5526 61.1135 96.9553 59.9468 96.319C57.6136 95.0074 55.3192 93.4231 52.7008 92.2284C51.3786 91.657 49.9916 91.1635 48.5528 90.9038C47.101 90.6571 45.6103 90.5792 44.1585 90.8129C41.2419 91.2415 38.6234 92.592 36.4846 94.3841C39.0771 93.3452 41.6956 92.553 44.301 92.4751C46.9065 92.3972 49.4342 93.0725 51.8323 94.1763C54.2692 95.2281 56.5895 96.7345 59.2339 97.8123C60.5561 98.3577 61.969 98.7993 63.4467 98.8642C64.9115 98.9161 66.3892 98.5915 67.5818 97.8643L67.5688 97.8773ZM75.9815 105.929C75.6575 103.072 74.6723 100.345 73.4797 97.7864C72.2613 95.2281 70.8354 92.7998 69.4873 90.3584C68.8132 89.1377 68.191 87.8911 67.7373 86.5925C67.2448 85.3069 66.9985 83.9174 67.2059 82.5149C66.7651 83.8655 66.8948 85.3588 67.2448 86.7354C67.6077 88.1248 68.1651 89.4364 68.7614 90.722C69.9539 93.2932 71.3539 95.7086 72.5205 98.2279C73.7131 100.734 74.6723 103.331 75.1649 106.032C75.6704 108.746 75.5149 111.551 74.8667 114.278C75.4112 112.98 75.7612 111.59 75.9686 110.188C76.15 108.772 76.1371 107.331 75.9686 105.916L75.9815 105.929ZM93.5976 98.3188C93.455 97.5526 93.2087 96.7735 92.7032 96.0592C92.2106 95.358 91.3681 94.7736 90.4218 94.6568C89.4755 94.5399 88.5941 94.7606 87.7774 95.2411C87.3626 95.5008 86.9478 95.8774 86.7015 96.4099C86.4164 96.9293 86.4293 97.5526 86.559 98.0591C86.7275 98.5525 86.9738 98.9941 87.3237 99.3057C87.4793 99.4875 87.6867 99.6044 87.8682 99.7343C88.0756 99.8511 88.283 99.942 88.5033 100.007C88.9441 100.124 89.4237 100.163 89.8514 100.007C90.0718 99.968 90.2403 99.7992 90.4218 99.6953C90.5773 99.5654 90.707 99.3836 90.8236 99.2408C90.8625 99.2018 90.8625 99.1239 90.8236 99.085C90.7847 99.059 90.7459 99.046 90.707 99.072H90.694C90.02 99.4096 89.4107 99.2668 88.97 98.9681C88.5293 98.6434 88.2311 98.111 88.1922 97.7085C88.2182 97.5137 88.2052 97.3578 88.3219 97.2539C88.3867 97.1241 88.5552 97.0072 88.7626 96.8903C89.2033 96.6696 89.7866 96.5008 90.2922 96.4618C90.7977 96.4099 91.3421 96.5397 91.8477 96.9033C92.3403 97.2539 92.7421 97.8383 92.9236 98.4876C93.105 99.1369 93.0791 99.8511 92.8199 100.448C92.6902 100.747 92.5088 100.994 92.2754 101.215C92.0421 101.435 91.7569 101.63 91.4718 101.773C90.3181 102.357 89.0478 102.318 88.1534 101.786C87.6997 101.513 87.3108 101.111 87.0126 100.617C86.9089 100.435 86.6108 99.968 86.3256 99.6174C86.1701 99.4486 86.0016 99.2927 85.8331 99.1239C85.6516 98.9811 85.4701 98.8382 85.2886 98.7084C84.5238 98.2149 83.6424 97.9162 82.722 97.8773C81.8147 97.8383 80.8554 98.0461 80.0777 98.6175C79.2999 99.1759 78.8462 100.059 78.7166 100.877C78.5481 101.708 78.7166 102.5 78.924 103.214C78.937 103.266 79.0018 103.305 79.0536 103.292C79.0925 103.292 79.1184 103.253 79.1314 103.214C79.287 102.474 79.4166 101.773 79.7536 101.228C80.0647 100.669 80.4666 100.267 80.9462 100.072C81.9054 99.6823 83.1109 99.981 83.9794 100.617C84.0831 100.708 84.1998 100.773 84.2905 100.864C84.3812 100.955 84.472 101.059 84.5757 101.15C84.7442 101.357 84.8609 101.5 85.159 101.916C85.6905 102.617 86.3904 103.24 87.246 103.604C88.0885 103.981 89.0478 104.085 89.9163 103.903C90.7847 103.721 91.5495 103.266 92.1588 102.708C92.4699 102.435 92.7291 102.111 92.9625 101.786C93.1958 101.448 93.3902 101.059 93.5069 100.669C93.7402 99.8901 93.7272 99.0979 93.5976 98.3188ZM95.7235 76.892C103.605 72.1392 96.7864 64.893 90.1496 70.1134C91.4588 59.6597 77.9389 64.7112 82.6183 72.8404C81.6073 71.1782 76.9796 67.672 74.0242 71.412C71.0557 75.1519 74.2056 77.6452 79.2481 79.723C76.7593 78.775 70.0576 79.7879 72.9094 85.0082C75.7611 90.2416 80.2073 86.8522 80.2073 86.8522C76.2926 93.7997 86.0793 97.4877 88.633 89.6442C92.9625 96.8903 100.792 89.6442 95.9309 85.7225C104.94 86.5535 102.931 76.6972 95.7494 76.8661L95.7235 76.892ZM111.875 80.3723C111.538 77.6972 110.514 75.1259 108.919 73.0482C109.736 75.5415 110.203 78.0218 110.229 80.4891C110.229 82.9565 109.866 85.4108 109.179 87.7872C108.518 90.1766 107.532 92.4751 106.418 94.7347C105.277 96.9812 103.955 99.1629 102.516 101.345C104.603 99.7732 106.379 97.7734 107.856 95.5788C109.334 93.3841 110.488 90.9428 111.24 88.3716C111.953 85.7874 112.264 83.0474 111.901 80.3723H111.875ZM115.375 72.3729C115.673 74.1001 118.888 73.6585 118.758 71.8924C120.754 72.7106 121.687 69.2173 119.108 68.0876C118.149 70.3991 114.714 71.1003 111.525 70.2043C110.617 72.5417 113.988 74.9182 115.375 72.3729ZM116.852 79.6191C117.423 79.671 117.475 79.1905 117.358 78.5412C117.423 78.8529 117.967 79.4762 118.304 78.8399C118.654 78.2166 118.019 77.9828 118.019 77.9828C118.978 77.9309 118.719 76.6972 117.747 76.944C118.201 76.035 116.956 75.7103 116.878 76.4635C116.373 75.4895 115.504 76.3466 115.997 77.0608C114.999 76.5674 114.714 77.7361 115.673 78.0737C114.532 78.6192 115.919 79.671 116.438 78.6581C116.334 78.8659 116.282 79.5671 116.852 79.6191ZM98.8215 78.8919C98.1216 78.3724 97.1623 78.1387 96.3975 78.4503C97.2012 78.6062 97.8104 79.0087 98.2771 79.5152C98.7438 80.0346 99.0808 80.6579 99.2493 81.3072C99.4308 81.9565 99.4178 82.6318 99.1326 83.2032C98.8604 83.7876 98.2771 84.255 97.5512 84.6446C98.3419 84.6836 99.2623 84.4109 99.8326 83.6577C100.416 82.9175 100.494 81.8916 100.273 81.0345C100.04 80.1775 99.5345 79.3983 98.8086 78.8919H98.8215ZM74.7241 84.1252C74.4649 83.5019 74.3871 82.8396 74.5816 82.2292C74.776 81.6059 75.2945 81.0735 75.9556 80.593C75.1649 80.6579 74.2964 81.0605 73.8297 81.8786C73.3501 82.6967 73.4149 83.7226 73.752 84.5407C74.1019 85.3588 74.7112 86.0601 75.4889 86.4756C76.2537 86.9042 77.2259 86.9951 77.9518 86.5795C77.1352 86.5406 76.4741 86.2159 75.9426 85.7744C75.4112 85.3199 74.9834 84.7615 74.7371 84.1252H74.7241ZM79.274 71.7106C78.7555 71.1003 77.9259 70.6328 76.9926 70.7367C76.0463 70.8276 75.2556 71.4639 74.789 72.2171C74.3353 72.9833 74.1149 73.8793 74.2316 74.7493C74.3353 75.6194 74.8278 76.4765 75.5797 76.8141C75.1389 76.1259 75.0093 75.3986 75.0612 74.7104C75.113 74.0221 75.3334 73.3339 75.6963 72.7755C76.0463 72.2041 76.5389 71.7496 77.1481 71.5548C77.7574 71.347 78.4962 71.4639 79.274 71.7106Z" fill="#FFDA8B"/>
</svg>
