<svg width="163" height="100" viewBox="0 0 163 100" fill="none" xmlns="http://www.w3.org/2000/svg">
<g id="Layer_1">
<path id="Vector" d="M98.957 29.111C99.9376 27.6367 100.591 26.1625 100.529 24.7658C100.467 23.3846 99.8131 22.081 98.8169 21.0258C97.8519 19.9395 96.5444 19.117 95.1436 18.5893C93.7271 18.0927 92.1395 17.922 90.4585 18.4497C91.6259 17.084 93.696 16.5409 95.5638 16.8357C97.4472 17.0995 99.2061 18.0617 100.529 19.4584C101.821 20.8551 102.708 22.888 102.335 24.9055C102.008 26.9229 100.529 28.3816 98.9726 29.0955L98.957 29.111ZM141.559 16.8357C142.477 17.084 143.286 17.5961 143.784 18.3565C144.298 19.117 144.423 20.1722 144.376 21.3206C145.014 20.3895 145.341 19.0704 144.843 17.8289C144.376 16.5719 143.177 15.7339 141.979 15.3769C140.765 15.0355 139.442 15.0821 138.306 15.5787C137.169 16.0443 136.173 17.0375 135.986 18.2014C136.765 17.3323 137.699 16.8978 138.664 16.696C139.629 16.5098 140.64 16.5409 141.559 16.8202V16.8357ZM93.0423 14.0423C92.8399 12.4129 91.9216 10.6593 90.1783 9.75916C88.4506 8.84356 86.3337 9.06082 84.6683 9.82124C83.0028 10.6282 81.6175 11.9318 80.8393 13.5768C80.0299 15.1752 79.9209 17.2237 80.8393 18.6824C80.8393 16.9909 81.4619 15.6097 82.3179 14.4613C83.2052 13.3285 84.3414 12.3974 85.6022 11.8232C86.8629 11.2179 88.2327 11.0007 89.509 11.3576C90.8009 11.699 91.9527 12.7232 93.0267 14.0423H93.0423ZM107.144 8.06762C106.179 8.81252 106.008 10.1937 106.755 11.1559C107.502 12.118 108.888 12.2887 109.853 11.5438C110.818 10.7989 110.989 9.41775 110.242 8.45559C109.495 7.49343 108.109 7.32272 107.144 8.06762ZM87.2832 27.4971C87.3766 26.597 87.0964 25.5417 86.2715 24.8434C85.4621 24.145 84.2947 23.9898 83.3141 24.2071C82.3179 24.4399 81.4152 24.9675 80.7926 25.759C80.1544 26.5194 79.8431 27.6057 80.1544 28.4903C80.3723 27.5902 80.8704 26.9074 81.4774 26.4108C82.1 25.9142 82.816 25.5572 83.5787 25.4021C84.3258 25.2313 85.0885 25.2934 85.7423 25.6348C86.396 25.9762 86.8941 26.6746 87.2988 27.5126L87.2832 27.4971ZM89.3845 38.8413C90.4429 40.3776 90.0694 42.5658 89.1821 44.0556C88.1549 45.8713 86.5205 46.9731 84.606 47.33C86.8163 47.9353 88.9954 47.0352 90.3495 44.7229C91.7037 42.3175 90.3495 39.2448 89.3845 38.8258V38.8413ZM67.7023 25.5728C66.4571 26.3642 66.0991 28.0092 66.8929 29.2507C67.6868 30.4922 69.3367 30.8491 70.5819 30.0577C71.8271 29.2662 72.1851 27.6212 71.3913 26.3797C70.5974 25.1382 68.9475 24.7813 67.7023 25.5728ZM89.5246 31.9665C89.9293 32.6493 90.1161 33.4408 89.976 34.1857C89.8359 34.9461 89.3067 35.6599 88.5907 36.3272C89.5246 36.141 90.4896 35.5358 90.9254 34.4805C91.3768 33.4408 91.1433 32.2458 90.6297 31.3302C90.0849 30.4146 89.2755 29.6852 88.2794 29.3128C87.3143 28.9248 86.1314 28.9558 85.3376 29.5456C86.3182 29.468 87.1431 29.7473 87.8436 30.1973C88.5284 30.6474 89.1355 31.2526 89.509 31.951L89.5246 31.9665ZM101.385 33.2545C103.876 35.5358 104.125 39.5707 103.144 42.5503C102.054 46.1972 99.6419 48.7888 96.4043 50.201C100.56 50.3562 104.047 47.8887 105.494 43.2796C106.911 38.4843 103.269 33.5959 101.385 33.2545ZM148.656 25.8366C147.691 25.0606 146.337 24.6882 145.232 25.0917C146.368 25.34 147.209 25.9452 147.847 26.6901C148.47 27.4505 148.937 28.3351 149.139 29.2662C149.357 30.1973 149.31 31.144 148.89 31.951C148.47 32.7734 147.613 33.3942 146.571 33.9063C147.691 34.0149 149.014 33.658 149.855 32.6183C150.726 31.594 150.882 30.1508 150.618 28.9248C150.322 27.6988 149.637 26.5815 148.656 25.8211V25.8366ZM144.329 41.6657C144.174 42.6278 143.8 43.5745 143.224 44.3349C142.664 45.1108 141.917 45.685 141.029 45.9023C140.142 46.1196 139.099 45.9023 138.025 45.4523C138.695 46.3679 139.815 47.1128 141.17 47.0817C142.508 47.0662 143.722 46.2282 144.454 45.235C145.185 44.2108 145.59 42.9537 145.512 41.7122C145.465 40.4863 144.858 39.2137 143.816 38.655C144.376 39.6793 144.469 40.7035 144.329 41.6812V41.6657ZM129.838 48.4008C128.904 48.7112 127.893 48.8198 126.959 48.6646C126.009 48.5405 125.153 48.137 124.546 47.4542C123.939 46.7713 123.674 45.7471 123.55 44.5987C123.052 45.6074 122.896 46.9576 123.55 48.1215C124.188 49.3009 125.48 49.9837 126.725 50.17C127.986 50.3407 129.278 50.1079 130.336 49.4716C131.41 48.8664 132.251 47.7335 132.282 46.5541C131.628 47.5162 130.756 48.0749 129.823 48.4008H129.838ZM147.551 31.7647L139.644 32.7579L143.318 35.0392L139.162 33.658L142.882 35.9548L138.819 34.6047L143.784 41.8674L137.948 36.2341L142.524 42.9227L137.481 38.0653L141.434 43.8383L135.597 38.2205L140.173 44.9091L133.683 38.6706L130.227 47.0196L131.737 39.0585L128.64 46.5386L129.947 39.6638L127.27 46.1351L128.78 38.174L125.682 45.654L127.394 36.6221C127.317 36.56 127.239 36.4979 127.161 36.4204L118.694 39.431L125.636 35.2254L117.978 37.9412L123.97 34.3098L117.371 36.6531L124.313 32.4476L116.655 35.1633L124.126 30.6474L116.405 26.7677L124.25 28.8782L116.997 25.2313L123.768 27.047L117.511 23.8967L125.355 26.0073L118.102 22.3604L126.009 24.4864L125.418 16.8357L127.737 23.4777L127.192 16.4633L129.2 22.1897L128.733 16.1374L131.052 22.7794L130.507 15.7649L133.138 23.2915C133.138 23.2915 133.2 23.2915 133.231 23.307L139.504 17.9841L135.301 23.7105L140.718 19.1014L137.091 24.0519L141.777 20.0791L137.621 25.759L142.991 21.212L138.726 27.016L147.411 27.6057L140.002 28.5368L147.442 29.049L141.045 29.8559L147.473 30.2905L140.064 31.2216L147.505 31.7337L147.551 31.7647ZM135.27 25.2469C132.251 23.4312 128.328 24.3933 126.507 27.404C124.686 30.4146 125.651 34.3253 128.671 36.141C131.69 37.9567 135.613 36.9945 137.434 33.9839C139.255 30.9733 138.29 27.0626 135.27 25.2469ZM123.332 93.8397C84.8084 98.9298 52.5575 81.9058 39.2805 77.9795C26.0035 74.0533 7.46546 74.9223 7.46546 86.1269C7.46546 97.3314 17.3804 99.7989 17.3804 99.7989C17.3804 99.7989 3.66758 99.2092 3.66758 87.1356C3.66758 75.062 12.135 69.5373 26.7195 69.5373C41.3039 69.5373 56.9313 84.0784 90.9254 84.0784C124.92 84.0784 156.143 77.095 147.255 53.3823C147.255 53.3823 146.119 58.5966 141.341 63.2212C140.127 64.4006 138.555 65.1455 136.874 65.3473C132.811 65.8439 128.873 65.9215 125.558 65.8128C124.92 65.7973 124.39 65.3007 124.313 64.6645C124.235 64.0282 124.655 63.4385 125.278 63.2678C128.733 62.3677 132.297 61.002 134.134 59.0467C124.499 61.9487 111.378 58.3173 111.378 58.3173L112.094 60.7227C112.436 61.8556 111.845 63.0505 110.74 63.485C107.876 64.5869 102.117 66.6043 95.2058 67.8923C94.5832 68.0165 93.9606 67.6441 93.7427 67.0388C93.5404 66.4336 93.805 65.7663 94.3653 65.4714C100.187 62.4298 102.708 58.5656 102.319 56.424C98.0854 55.555 92.5442 53.522 92.5442 53.522C92.5442 53.522 90.225 65.3007 73.7571 67.6906C73.1968 67.7682 72.6676 67.4268 72.5275 66.8681C72.3874 66.325 72.6832 65.7508 73.1968 65.549C80.4034 62.8022 83.9367 59.5898 83.4853 53.941L80.2789 53.072C80.2789 53.072 74.442 61.2193 66.2703 64.2765C60.2155 66.5422 55.4526 68.7924 51.7792 70.9495C51.4835 71.1202 51.0944 71.0426 50.8765 70.7788C50.6586 70.4995 50.6897 70.1115 50.9387 69.8632C53.0867 67.7837 55.6083 66.0301 55.6083 66.0301C55.6083 66.0301 51.11 65.7663 45.1797 67.8458C44.8372 67.9699 44.4637 67.7992 44.3236 67.4733C44.1835 67.1474 44.3236 66.7595 44.6193 66.5888C47.1564 65.2231 49.4756 64.4317 49.4756 64.4317C49.4756 64.4317 46.4249 64.3696 42.7515 65.3473C42.4091 65.4404 42.0511 65.2542 41.9266 64.9283C41.802 64.6024 41.9421 64.2299 42.2534 64.0747C45.8645 62.2435 49.2888 61.9176 53.1178 62.1194C58.8147 62.4142 65.5232 60.6606 66.5349 53.972C52.2306 60.521 28.3071 52.5133 28.3071 52.5133C28.3071 52.5133 20.7425 50.7752 16.4154 44.0711C16.2597 43.8383 16.3064 43.5124 16.5088 43.3262C16.7111 43.1244 17.038 43.1089 17.2715 43.2796C21.8943 46.6162 24.9917 46.2437 25.2408 45.1108C25.521 43.8228 26.0969 38.4533 14.0495 37.0256C13.8783 37.0101 13.7071 37.0566 13.567 37.1652C13.4269 37.2739 13.3491 37.4291 13.3335 37.6153C13.3024 38.0498 13.3179 38.6395 13.4736 39.2448C13.5047 39.3844 13.4736 39.5396 13.3491 39.6482C13.2401 39.7569 13.0845 39.7879 12.9444 39.7258C5.58208 37.1187 2.36011 33.4252 0.55456 30.7095C0.383344 30.4456 0.321083 30.1197 0.414474 29.8094C0.492299 29.499 0.710211 29.2507 0.990382 29.111C13.4113 22.9656 27.202 25.2003 32.7431 26.3177C38.2843 19.0394 42.6581 20.9327 44.1212 21.2275C46.7517 16.277 55.0635 18.4652 54.7677 22.8259C60.5891 15.7028 84.5282 -2.03507 120.717 0.432406C156.906 2.89988 162.587 29.2352 157.637 42.7675C169.607 64.8817 161.871 88.734 123.348 93.8242L123.332 93.8397ZM45.9423 22.2517C47.5611 22.3138 49.1176 23.5398 49.6935 25.4021C49.8647 25.9607 49.927 26.5194 49.9114 27.047C51.5925 26.7367 52.8532 25.4331 52.8532 23.8812C52.8532 22.0966 51.1878 20.6378 49.1332 20.6378C47.7635 20.6378 46.5961 21.2896 45.9423 22.2362V22.2517ZM35.2024 32.6493C35.2024 31.2836 34.5487 30.0732 33.5525 29.2973C31.9805 30.6163 29.4122 31.7958 26.6572 32.0751C26.6261 32.2613 26.5949 32.4631 26.5949 32.6648C26.5949 35.0392 28.525 36.9635 30.9065 36.9635C33.2879 36.9635 35.218 35.0392 35.218 32.6648L35.2024 32.6493ZM40.121 39.2758C47.2342 40.0207 55.3592 38.2516 58.9392 33.5959L40.121 39.2758ZM40.9148 41.6346C47.8413 43.3727 56.153 42.7675 60.3556 38.6706L40.9148 41.6346ZM60.5891 44.3039H40.9304C47.5144 47.0662 55.8106 47.718 60.5891 44.3039ZM73.8194 41.4174C75.049 38.9344 71.6559 38.0498 71.438 40.0983C70.0682 37.4601 67.6868 39.7724 69.0254 41.7122C66.3015 40.3776 65.5077 43.5434 68.1382 44.4591C65.0096 45.9489 68.823 48.7888 70.2394 46.0575C69.9593 46.6317 69.8192 48.525 71.3757 48.6802C72.9322 48.8353 73.0723 47.5318 72.7454 45.7626C72.9322 46.6162 74.3953 48.2922 75.3448 46.5851C76.2787 44.8781 74.551 44.2418 74.551 44.2418C77.1659 44.0866 76.4499 40.7346 73.8194 41.4174ZM72.6676 24.8279C74.5665 21.0102 69.3367 19.6601 69.0098 22.7949C66.8929 18.7445 63.2507 22.2828 65.2897 25.2779C61.1027 23.2139 59.8887 28.0868 63.9356 29.499C59.126 31.7958 64.9784 36.1565 67.1576 31.951C66.7217 32.8355 66.5038 35.753 68.9008 35.9858C71.2979 36.2186 71.5002 34.2167 71.0177 31.5009C71.2979 32.82 73.5548 35.3961 75.0024 32.7579C76.4499 30.1197 73.7883 29.1576 73.7883 29.1576C77.8196 28.9248 76.699 23.7726 72.6676 24.8123V24.8279ZM82.3646 36.7152C82.3646 35.3651 81.2595 34.2632 79.9053 34.2632C78.5512 34.2632 77.4461 35.3651 77.4461 36.7152C77.4461 38.0653 78.5512 39.1672 79.9053 39.1672C81.2595 39.1672 82.3646 38.0653 82.3646 36.7152ZM89.0888 37.4601C93.8361 36.6221 92.622 27.8075 87.7813 28.1799C90.0071 22.7018 79.2049 20.1102 78.8469 29.3904C86.9408 28.8317 87.5167 40.7035 83.1585 48.0439C89.5868 50.5424 96.093 41.2467 89.1043 37.4601H89.0888ZM100.296 30.9267C108.343 27.5126 102.599 12.4129 94.1941 15.0511C95.4549 7.24513 83.7499 5.55359 80.3256 11.5438C79.096 13.6854 78.38 17.6737 80.9482 20.8395C81.0572 19.8929 81.5553 17.922 82.8472 17.0995L84.8706 19.5825L85.0885 16.7736L86.9252 20.4361C86.9252 20.4361 86.754 16.3236 86.7696 15.9822C86.7696 15.6408 88.6529 21.2275 88.6529 21.2275L89.0421 18.2634L90.1316 22.5156L90.8943 20.6533L91.6726 23.8812L92.7465 19.986L93.2446 25.9297L94.6299 22.1742L94.4587 28.7231C94.4587 28.7231 95.8284 25.3555 96.0152 24.5175C96.202 23.6795 95.3615 31.3612 95.3615 31.3612C95.3615 31.3612 97.4005 27.404 97.5095 27.2333C97.6184 27.047 95.9685 34.4184 95.9218 34.6202C95.8751 34.8064 97.6184 31.3302 97.9609 31.0043C98.3033 30.6784 96.4043 37.0411 96.4043 37.0411L98.6457 34.0149L96.4822 39.3689L98.957 36.8704L96.9802 42.0692L99.0348 40.4863L96.1553 46.3523L100.622 43.14C100.622 43.14 98.1943 47.5473 94.1163 50.8528C107.891 55.6325 114.211 34.8064 100.311 30.9267H100.296ZM111.238 12.506C114.538 13.7785 115.269 9.38672 112.639 9.34016C115.845 7.29169 112.639 4.56039 110.304 6.46919C111.689 2.86885 107.565 2.23258 106.708 5.66222C104.451 1.87565 101.276 7.01235 104.918 8.50215C104.156 8.20729 101.728 8.23833 101.696 10.2402C101.681 12.2422 103.362 12.2577 105.557 11.6369C104.483 11.9628 102.521 14.0113 104.809 15.0045C107.098 15.9977 107.705 13.732 107.705 13.732C108.203 17.0219 112.39 15.7339 111.207 12.4905L111.238 12.506ZM144.485 24.1606C152.112 13.8251 138.648 9.07634 133.605 17.9065C133.605 4.85525 119.799 7.85036 121.277 19.7222C109.526 10.5041 105.743 30.6008 119.067 30.8646C116.312 30.8646 108.654 33.9218 111.02 40.2535C113.386 46.5851 118.725 44.5987 124.951 39.9897C121.962 42.3175 118.273 51.1942 126.71 51.5511C135.146 51.9236 134.305 44.0401 134.305 44.0401C139.878 53.8634 151.536 44.6918 143.878 35.8617C155.863 35.9082 152.797 21.1034 144.469 24.145L144.485 24.1606ZM124.11 14.9735C124.795 14.182 125.636 13.5457 126.585 13.1733C127.519 12.7853 128.515 12.6612 129.433 12.956C130.367 13.2509 131.161 14.0268 131.893 15.0045C131.799 13.8096 131.192 12.506 129.963 11.8076C128.733 11.0938 127.192 11.1714 125.978 11.6835C124.748 12.2111 123.705 13.1112 123.083 14.2751C122.445 15.408 122.305 16.8823 122.912 17.9686C122.974 16.7426 123.456 15.7649 124.126 14.9579L124.11 14.9735ZM115.83 19.7532C116.655 19.3342 117.713 19.3187 118.849 19.4894C117.993 18.76 116.717 18.279 115.425 18.6359C114.117 18.9618 113.152 20.0481 112.67 21.1965C112.203 22.3759 112.094 23.664 112.468 24.8589C112.794 26.0383 113.682 27.1246 114.818 27.4505C114.04 26.5815 113.713 25.6038 113.619 24.6261C113.542 23.6484 113.697 22.6552 114.071 21.7707C114.429 20.8861 115.02 20.1412 115.83 19.7377V19.7532ZM113.899 39.1982C113.448 38.3602 113.277 37.4291 113.479 36.5445C113.682 35.6444 114.351 34.8374 115.238 34.077C114.117 34.2477 112.934 34.9306 112.374 36.141C111.783 37.3515 111.985 38.7947 112.561 39.8965C113.152 41.0139 114.086 41.9295 115.238 42.4261C116.359 42.9382 117.76 42.9693 118.74 42.3019C117.573 42.333 116.608 41.9605 115.798 41.3863C115.005 40.8122 114.335 40.0517 113.899 39.1982Z" fill="#FFDA8B"/>
</g>
</svg>
