<svg width="30" height="30" viewBox="0 0 30 30" fill="none" xmlns="http://www.w3.org/2000/svg">
<path fill-rule="evenodd" clip-rule="evenodd" d="M18.9745 6.51756C17.9076 6.23167 16.8109 6.86484 16.5251 7.93177L12.0132 24.7702C11.7273 25.8372 12.3605 26.9338 13.4274 27.2197L21.985 29.5127C23.0519 29.7986 24.1486 29.1654 24.4345 28.0985L28.9464 11.26C29.2322 10.1931 28.5991 9.09644 27.5321 8.81056L18.9745 6.51756ZM20.9813 8.83043L23.5529 9.51951L23.0578 11.3676C22.8791 12.0344 23.2748 12.7198 23.9416 12.8985L24.0033 12.915C24.0009 12.943 23.9997 12.9713 23.9997 12.9999C23.9997 13.5522 24.4474 13.9999 24.9997 13.9999C25.552 13.9999 25.9997 13.5522 25.9997 12.9999C25.9997 12.4476 25.552 11.9999 24.9997 11.9999C24.654 11.9999 24.3493 12.1753 24.1697 12.442L24.071 12.4155C23.6709 12.3083 23.4335 11.8971 23.5407 11.497L24.0359 9.64892L27.364 10.5407L23.0208 26.75L21.3688 26.3074C20.9687 26.2001 20.7313 25.7889 20.8385 25.3888L20.9431 24.9983C20.9618 24.9994 20.9807 24.9999 20.9997 24.9999C21.552 24.9999 21.9997 24.5522 21.9997 23.9999C21.9997 23.4476 21.552 22.9999 20.9997 22.9999C20.4474 22.9999 19.9997 23.4476 19.9997 23.9999C19.9997 24.3561 20.1859 24.6688 20.4663 24.8459L20.3555 25.2594C20.1768 25.9262 20.5726 26.6116 21.2394 26.7903L22.8914 27.233L22.7045 27.9305L13.5955 25.4898L14.3592 22.6395L15.0094 22.8603C15.003 22.9059 14.9997 22.9525 14.9997 22.9999C14.9997 23.5522 15.4474 23.9999 15.9997 23.9999C16.552 23.9999 16.9997 23.5522 16.9997 22.9999C16.9997 22.4476 16.552 21.9999 15.9997 21.9999C15.6737 21.9999 15.384 22.156 15.2015 22.3975L14.4889 22.1555L18.2551 8.09996L20.4676 8.69281C20.4314 8.75938 20.4024 8.83125 20.3819 8.90769L20.0882 10.0038C20.0591 10.0012 20.0295 9.99992 19.9997 9.99992C19.4474 9.99992 18.9997 10.4476 18.9997 10.9999C18.9997 11.5522 19.4474 11.9999 19.9997 11.9999C20.552 11.9999 20.9997 11.5522 20.9997 10.9999C20.9997 10.6556 20.8257 10.3519 20.5608 10.172L20.8649 9.0371C20.8865 8.95664 20.9274 8.88653 20.9813 8.83043ZM19.9997 10.4999C20.0532 10.4999 20.1048 10.5083 20.1531 10.5239C20.1686 10.5318 20.1851 10.5382 20.2026 10.5429L20.2033 10.5431C20.378 10.6211 20.4997 10.7963 20.4997 10.9999C20.4997 11.2761 20.2759 11.4999 19.9997 11.4999C19.7236 11.4999 19.4997 11.2761 19.4997 10.9999C19.4997 10.7238 19.7236 10.4999 19.9997 10.4999ZM17.427 7.87807C17.5495 7.42073 18.0196 7.14933 18.477 7.27187L27.5859 9.71261C28.0433 9.83515 28.3147 10.3052 28.1921 10.7626L23.5325 28.1524C23.41 28.6097 22.9399 28.8811 22.4826 28.7586L13.3736 26.3179C12.9163 26.1953 12.6449 25.7252 12.7674 25.2679L17.427 7.87807ZM21.663 21.6815C21.6854 21.7382 21.7242 21.7739 21.7793 21.7886L22.7862 22.0584C22.8414 22.0732 22.8928 22.0617 22.9405 22.0238C22.9882 21.9859 23.022 21.9299 23.0419 21.8556L24.8056 15.2735C24.8255 15.1992 24.8243 15.1338 24.8019 15.0771C24.7795 15.0205 24.7407 14.9848 24.6856 14.97L23.6786 14.7002C23.6235 14.6854 23.5721 14.697 23.5243 14.7348C23.4766 14.7727 23.4428 14.8287 23.4229 14.903L21.6592 21.4851C21.6393 21.5594 21.6406 21.6248 21.663 21.6815ZM15.9109 20.2254C15.8708 20.2146 15.8387 20.1842 15.8145 20.1342C15.7972 20.0788 15.7957 20.024 15.8102 19.9699C15.8193 19.9361 15.83 19.9063 15.8422 19.8805L19.3545 13.8366C19.3894 13.7661 19.4367 13.7099 19.4963 13.6679C19.5627 13.6204 19.6385 13.608 19.7237 13.6309L20.8359 13.9289C20.9211 13.9517 20.978 13.9996 21.0068 14.0726C21.0424 14.1401 21.0577 14.2132 21.0528 14.2916L21.065 21.28C21.0678 21.3097 21.0646 21.3415 21.0556 21.3754C21.041 21.4295 21.0099 21.4756 20.9621 21.5135C20.9212 21.5461 20.8782 21.5563 20.8331 21.5442L19.9088 21.2966C19.8336 21.2764 19.7824 21.2373 19.755 21.1792C19.7344 21.1157 19.7246 21.0623 19.7254 21.019L19.7098 19.905L17.7034 19.3674L17.1403 20.3263C17.1194 20.3642 17.0842 20.4055 17.0346 20.4503C16.9869 20.4883 16.9204 20.4958 16.8352 20.473L15.9109 20.2254ZM18.4031 17.9881L19.8009 18.3627L19.8126 15.4934L18.4031 17.9881ZM15.9997 23.4999C16.2759 23.4999 16.4997 23.2761 16.4997 22.9999C16.4997 22.7238 16.2759 22.4999 15.9997 22.4999C15.7236 22.4999 15.4997 22.7238 15.4997 22.9999C15.4997 23.2761 15.7236 23.4999 15.9997 23.4999ZM25.4997 12.9999C25.4997 13.2761 25.2759 13.4999 24.9997 13.4999C24.7236 13.4999 24.4997 13.2761 24.4997 12.9999C24.4997 12.7238 24.7236 12.4999 24.9997 12.4999C25.2759 12.4999 25.4997 12.7238 25.4997 12.9999ZM21.4997 23.9999C21.4997 24.2761 21.2759 24.4999 20.9997 24.4999C20.7236 24.4999 20.4997 24.2761 20.4997 23.9999C20.4997 23.7238 20.7236 23.4999 20.9997 23.4999C21.2759 23.4999 21.4997 23.7238 21.4997 23.9999Z" fill="#FFDA8B"/>
<path fill-rule="evenodd" clip-rule="evenodd" d="M1.93208 3.36463C0.865145 3.65051 0.23198 4.74719 0.517863 5.81412L5.95306 26.0986C6.23895 27.1655 7.33562 27.7987 8.40255 27.5128L10.9399 26.8329C10.7726 26.5437 10.6773 26.2129 10.6709 25.8697L8.14373 26.5468C7.61027 26.6898 7.06193 26.3732 6.91899 25.8397L1.48379 5.5553C1.34085 5.02183 1.65743 4.4735 2.1909 4.33055L12.8161 1.48355C13.3495 1.3406 13.8979 1.65719 14.0408 2.19065L15.4879 7.59132L15.6935 6.82419C15.7737 6.52471 15.9179 6.25941 16.1073 6.03902L15.0068 1.93183C14.7209 0.864901 13.6242 0.231736 12.5573 0.517619L1.93208 3.36463ZM14.9703 9.52318L13.0749 2.44947L2.44972 5.29648L5.16253 15.4208C5.13138 15.279 5.17648 15.1203 5.31804 15.02L6.95585 13.8601C7.8837 13.203 8.47818 12.1734 8.58332 11.0413L8.76892 9.04292C8.80236 8.68284 9.26571 8.55868 9.47472 8.8538L10.6346 10.4916C11.2917 11.4195 12.3214 12.0139 13.4535 12.1191L14.2548 12.1935L14.9703 9.52318ZM13.6493 14.4532C12.9251 15.1046 12.4667 16.0085 12.3757 16.9892L12.1901 18.9876C12.1566 19.3477 11.6933 19.4718 11.4843 19.1767L10.3244 17.5389C9.66725 16.611 8.63759 16.0166 7.5055 15.9114L5.50716 15.7258C5.33443 15.7098 5.21599 15.5948 5.17208 15.4565L7.88492 25.5809L10.8829 24.7776L13.6493 14.4532Z" fill="white"/>
<path d="M27.3348 2.11566C27.3919 1.96144 27.61 1.96145 27.667 2.11566L27.9837 2.97153C28.1632 3.45639 28.5454 3.83867 29.0303 4.01809L29.8862 4.33479C30.0404 4.39185 30.0404 4.60998 29.8862 4.66704L29.0303 4.98374C28.5454 5.16316 28.1632 5.54544 27.9837 6.0303L27.667 6.88617C27.61 7.04039 27.3919 7.04038 27.3348 6.88617L27.0181 6.0303C26.8387 5.54544 26.4564 5.16316 25.9715 4.98374L25.1157 4.66704C24.9614 4.60998 24.9614 4.39185 25.1157 4.33479L25.9715 4.01809C26.4564 3.83867 26.8387 3.45639 27.0181 2.97153L27.3348 2.11566Z" fill="#FFDA8B"/>
</svg>
