<svg width="30" height="30" viewBox="0 0 30 30" fill="none" xmlns="http://www.w3.org/2000/svg">
<path fill-rule="evenodd" clip-rule="evenodd" d="M13.8483 8.55249C13.9222 8.99156 14.0465 9.41108 14.2867 9.7892C14.4145 9.99098 14.564 10.1735 14.7545 10.3189C14.771 10.3515 14.7965 10.3733 14.8307 10.3847C14.9918 10.5295 15.1758 10.6335 15.3799 10.7019C15.6078 10.8884 15.869 11.0051 16.1527 11.0719C16.564 11.1687 16.966 11.1394 17.3515 10.9624C17.5242 10.8831 17.6901 10.788 17.8122 10.6331H17.8118C17.8212 10.6191 17.8328 10.6074 17.8467 10.5979C17.8561 10.5839 17.8677 10.5722 17.8816 10.5627V10.5634C17.9361 10.5249 17.9852 10.4812 18.0159 10.4203C18.0555 10.4031 18.0786 10.3697 18.1015 10.3365C18.1115 10.3219 18.1216 10.3073 18.1331 10.2941C18.5092 9.86287 18.822 9.38859 19.0819 8.8778C19.3202 8.40906 19.508 7.92109 19.6301 7.40835C19.7043 7.09705 19.7621 6.78282 19.7957 6.4637C19.8299 6.13904 19.8603 5.8147 19.8528 5.48808C19.8512 5.41437 19.8449 5.34086 19.8386 5.26733L19.8386 5.26727C19.8335 5.2075 19.8283 5.14771 19.8257 5.08779C19.8193 4.93589 19.797 4.78628 19.7689 4.63796C19.7655 4.61993 19.7642 4.6012 19.7629 4.58238C19.7598 4.53723 19.7566 4.49162 19.724 4.45412C19.7169 4.30906 19.6843 4.1702 19.622 4.03884C19.623 4.02743 19.6207 4.01667 19.6156 4.00657C19.6162 3.96745 19.6168 3.92866 19.5823 3.90095C19.4948 3.56097 19.3353 3.25587 19.1274 2.97782C19.1147 2.96084 19.1023 2.94348 19.0899 2.92607C19.0324 2.84586 18.9741 2.76432 18.8863 2.71183C18.8406 2.63914 18.7732 2.59213 18.7057 2.54508L18.7057 2.54504L18.7056 2.54503C18.6845 2.53027 18.6633 2.51551 18.6428 2.49995C18.6289 2.47289 18.6054 2.46246 18.577 2.46083C18.5708 2.44323 18.5586 2.43313 18.5411 2.42856C18.217 2.17529 17.8409 2.05338 17.4409 2.01296C17.0341 1.97221 16.6351 2.02665 16.2564 2.1893C16.0765 2.26656 15.9035 2.35913 15.7595 2.49734L15.7532 2.5004C15.7172 2.51789 15.6811 2.53539 15.6598 2.57297C15.612 2.5935 15.5771 2.62838 15.551 2.67304C15.5383 2.68392 15.5255 2.69459 15.5126 2.70526L15.5126 2.70531L15.5126 2.70532C15.4859 2.72755 15.4592 2.74977 15.4341 2.77376C15.1742 3.02215 14.9786 3.31975 14.7923 3.62453C14.7805 3.64396 14.773 3.66608 14.7654 3.68826C14.7618 3.69882 14.7582 3.70941 14.7542 3.71972C14.7481 3.73263 14.7393 3.74361 14.7306 3.75453L14.7306 3.75459L14.7264 3.75981C14.7209 3.76894 14.7187 3.77839 14.7193 3.78882C14.7125 3.80479 14.7016 3.81816 14.6896 3.83054C14.6844 3.83869 14.6825 3.84749 14.6838 3.85695C14.6741 3.87162 14.6644 3.88596 14.6544 3.90063C14.6496 3.9091 14.647 3.91823 14.6463 3.92833C14.6414 3.93611 14.6361 3.94375 14.6309 3.95139C14.6199 3.96743 14.6089 3.98348 14.6002 4.0007C14.3503 4.49291 14.1576 5.00696 14.0226 5.54317C14.0161 5.56904 14.0085 5.59467 14.001 5.6203L14.001 5.62035L14.001 5.62039L14.0009 5.62043L14.0009 5.62047L14.0009 5.62052L14.0009 5.62056L14.0009 5.6206L14.0009 5.62065C13.9806 5.68918 13.9604 5.75769 13.9606 5.83067L13.9586 5.84396L13.9555 5.86436L13.9503 5.89815C13.9205 5.92604 13.9225 5.96172 13.9244 5.99759L13.9248 6.00441C13.8856 6.07503 13.8861 6.15218 13.8866 6.22923L13.8867 6.24563C13.8605 6.27236 13.857 6.30658 13.8551 6.34146C13.8485 6.45435 13.8334 6.56658 13.8184 6.67833L13.8086 6.7525C13.7806 6.96475 13.782 7.17644 13.7834 7.38861L13.7835 7.41334L13.7837 7.44225C13.7708 7.8145 13.7873 8.18415 13.8492 8.55249H13.8483ZM18.802 2.92631C18.7997 2.93511 18.7968 2.94392 18.7933 2.95239C18.7939 2.94326 18.7971 2.93446 18.802 2.92631ZM18.5408 2.42922L18.5584 2.44535L18.576 2.46149C18.5618 2.45366 18.5502 2.44258 18.5405 2.42922H18.5408ZM5.39629 8.39928C5.35819 8.20566 5.33204 8.00943 5.30686 7.81287L5.30718 7.81254C5.26641 7.49267 5.27193 7.17299 5.27744 6.85305V6.85304C5.27896 6.76511 5.28048 6.67717 5.28103 6.58919L5.28097 6.57163C5.2806 6.53134 5.28023 6.49001 5.31009 6.45587C5.31214 6.43242 5.3118 6.40865 5.31145 6.38488V6.38487C5.3106 6.32639 5.30974 6.26796 5.34463 6.21466C5.33661 6.13632 5.35585 6.06134 5.37481 5.98749L5.37483 5.98739L5.37489 5.98716C5.37878 5.97201 5.38266 5.9569 5.38628 5.94182C5.45085 5.67323 5.52317 5.40626 5.66038 5.16342C5.72075 4.9649 5.83923 4.79899 5.96062 4.63666C6.12882 4.41206 6.3335 4.22463 6.56014 4.06002C6.86523 3.83836 7.2026 3.69624 7.56999 3.62127C7.78738 3.57689 8.00609 3.58178 8.22503 3.58668C8.27141 3.58772 8.3178 3.58876 8.36419 3.58933C8.39389 3.58965 8.42133 3.59813 8.44361 3.61899C8.547 3.60785 8.64639 3.63524 8.74358 3.66203L8.75063 3.66397C9.04248 3.74416 9.31722 3.86346 9.56646 4.04046C9.7479 4.16955 9.89899 4.33025 10.0423 4.49845C10.1181 4.58754 10.1863 4.68349 10.2544 4.77925L10.2728 4.80518C10.4052 4.99098 10.5101 5.19178 10.5941 5.40431C10.6518 5.55076 10.7125 5.69622 10.7731 5.84156L10.7997 5.90532L10.8013 5.9091L10.8035 5.91446C10.8204 5.95466 10.8371 5.99444 10.8365 6.03929C10.8688 6.06471 10.8704 6.10122 10.8714 6.13773C10.9467 6.274 10.9878 6.42286 11.0287 6.57116L11.0288 6.57126L11.0288 6.57134L11.0288 6.57141L11.0288 6.57147L11.0288 6.57152L11.0288 6.57156L11.0288 6.57159L11.0289 6.57164L11.0289 6.57168C11.0402 6.61263 11.0515 6.65356 11.0635 6.69415C11.1097 6.85049 11.1437 7.01042 11.1776 7.17019L11.1776 7.17021L11.1776 7.17036C11.1871 7.21474 11.1965 7.25911 11.2062 7.30338C11.2128 7.3339 11.2132 7.36593 11.2137 7.39793V7.39793C11.2139 7.41277 11.2141 7.42759 11.2149 7.44225C11.2517 7.51193 11.2519 7.58687 11.252 7.66184C11.2521 7.68015 11.2521 7.69847 11.2527 7.71671C11.2555 7.72321 11.2588 7.72966 11.2621 7.73611C11.2695 7.75033 11.2768 7.76459 11.2788 7.77962C11.325 8.12156 11.344 8.46676 11.3143 8.80935C11.2607 9.42771 11.1364 10.0317 10.8494 10.5891C10.7319 10.817 10.5992 11.0354 10.4136 11.2169C10.0956 11.5279 9.72336 11.7114 9.27977 11.7616C8.88687 11.806 8.52561 11.7235 8.17436 11.5553C8.12812 11.5332 8.08646 11.5033 8.04498 11.4735C7.98742 11.4322 7.9302 11.3911 7.86152 11.3714C7.74465 11.3379 7.6294 11.3017 7.51673 11.2557C7.25748 11.1501 7.02439 11.0002 6.80615 10.8254C6.37257 10.4786 6.05295 10.0408 5.79726 9.54994C5.60743 9.18584 5.47539 8.8012 5.39629 8.39928ZM19.6795 25.7199C19.3517 25.0169 18.7587 24.4674 18.0252 24.196L15.6297 23.3095C13.4568 22.5055 13.4568 19.4322 15.6297 18.6282L18.0252 17.7417C18.2637 17.6535 18.4873 17.5359 18.6918 17.3931C18.6758 17.3674 18.6598 17.3417 18.6438 17.3161C18.3016 16.7685 17.9394 16.2345 17.5481 15.7215C17.523 15.6885 17.4983 15.6551 17.4737 15.6217L17.4736 15.6217L17.4736 15.6217C17.3881 15.5057 17.3024 15.3896 17.1959 15.2912C17.1934 15.2862 17.1911 15.281 17.1889 15.2758L17.1869 15.2712C17.1806 15.2562 17.1742 15.2413 17.1642 15.2296C16.9831 15.0183 16.801 14.8078 16.618 14.5982C16.6002 14.578 16.5792 14.5607 16.5582 14.5434L16.5582 14.5434L16.5581 14.5433C16.5479 14.5349 16.5377 14.5264 16.5279 14.5177C16.4853 14.4476 16.4281 14.3912 16.3619 14.3439C16.3256 14.3062 16.2895 14.2682 16.2533 14.2303L16.2529 14.2298L16.2528 14.2297L16.2528 14.2297C16.1659 14.1384 16.0791 14.0472 15.9894 13.959C15.9746 13.9444 15.9603 13.9293 15.946 13.9142C15.9009 13.8666 15.8557 13.8188 15.7966 13.7872L15.7964 13.7868C15.7916 13.769 15.7804 13.7577 15.7622 13.7537L15.7621 13.7536L15.7605 13.7526C15.7405 13.7102 15.7088 13.6832 15.6617 13.677V13.6796C15.6575 13.66 15.6456 13.6483 15.6265 13.6434C15.621 13.6248 15.6084 13.6138 15.59 13.6085L15.5904 13.609L15.5907 13.6095L15.5916 13.6102L15.591 13.6095L15.6022 13.6205L15.6036 13.6218L15.6121 13.63L15.6252 13.6431V13.6437C15.611 13.6356 15.5997 13.6239 15.5907 13.6098C15.5787 13.6027 15.5698 13.5924 15.5609 13.582L15.5594 13.5802L15.557 13.5775L15.5545 13.5746C15.5484 13.5675 15.5425 13.5599 15.5367 13.5522L15.5367 13.5522C15.5249 13.5367 15.5131 13.5213 15.4983 13.5094L15.4907 13.5034L15.4907 13.5034L15.4907 13.5033C15.276 13.3323 15.0611 13.1611 14.8339 13.0071C14.3526 12.6805 13.846 12.4051 13.2875 12.2385C13.2534 12.2284 13.2195 12.2169 13.1855 12.2055C13.0775 12.169 12.969 12.1324 12.8513 12.1371L12.8474 12.1341L12.8423 12.1298C12.8362 12.1244 12.83 12.119 12.8233 12.1179C12.7816 12.1122 12.7401 12.1047 12.6987 12.0971L12.6986 12.0971L12.6986 12.0971L12.6986 12.0971L12.6986 12.0971L12.6986 12.0971L12.6985 12.0971L12.6985 12.0971L12.6984 12.0971L12.6983 12.0971C12.616 12.0821 12.5337 12.0672 12.4494 12.0667C12.3864 12.0664 12.3225 12.0644 12.2612 12.0517C12.1811 12.0348 12.0994 12.0299 12.0213 12.042C11.9401 12.0546 11.8582 12.0598 11.7763 12.0649H11.7763H11.7763L11.7762 12.0649H11.7762C11.6637 12.072 11.5514 12.0791 11.4412 12.1055C11.4001 12.1154 11.3586 12.1238 11.317 12.1322L11.3169 12.1322C11.1962 12.1566 11.0754 12.181 10.965 12.2411C10.955 12.2398 10.9456 12.2411 10.9366 12.2454C10.9062 12.2434 10.8797 12.2512 10.8604 12.2763C10.8507 12.2747 10.8413 12.2763 10.8329 12.2815C10.7519 12.2933 10.6786 12.3265 10.605 12.3601C10.2673 12.5133 9.94382 12.6926 9.64777 12.9178C9.62371 12.9361 9.59912 12.9539 9.5745 12.9717L9.57424 12.9719L9.5742 12.9719L9.57416 12.9719L9.57407 12.972C9.48649 13.0353 9.39847 13.0989 9.33203 13.1871C9.32434 13.1913 9.31632 13.1952 9.30829 13.199L9.30825 13.199C9.29032 13.2077 9.27236 13.2163 9.2581 13.2291C9.22664 13.2577 9.19502 13.2861 9.16339 13.3145C9.05319 13.4136 8.94289 13.5127 8.83905 13.6183C8.66084 13.7996 8.48941 13.988 8.31894 14.1767C8.27106 14.2298 8.22779 14.2869 8.18446 14.344L8.18443 14.3441L8.18437 14.3442L8.18419 14.3444C8.1648 14.37 8.1454 14.3956 8.12556 14.4209C8.11394 14.429 8.10458 14.4391 8.09715 14.4508C8.09102 14.4593 8.08682 14.4684 8.08488 14.4789C8.07335 14.4908 8.06143 14.5024 8.04951 14.5141L8.04948 14.5141L8.04948 14.5141C8.02403 14.5389 7.99859 14.5637 7.97705 14.5917C7.6526 15.0086 7.34719 15.4385 7.06179 15.8841C6.73249 16.3982 6.42805 16.9262 6.13556 17.4618C5.8818 17.926 5.64838 18.4012 5.41594 18.8768C5.40563 18.8978 5.39845 18.9202 5.39127 18.9426L5.39127 18.9426C5.38787 18.9532 5.38448 18.9638 5.38075 18.9743C5.29355 19.1009 5.23905 19.243 5.18446 19.3853L5.17589 19.4076L5.16993 19.4231C5.16269 19.4358 5.15517 19.4483 5.14765 19.4608L5.14764 19.4608C5.13134 19.4878 5.11506 19.5149 5.10181 19.5434C5.0599 19.6328 5.01894 19.7227 4.97799 19.8125L4.97798 19.8125L4.97797 19.8125L4.97797 19.8125L4.97796 19.8126L4.97795 19.8126L4.97794 19.8126L4.97794 19.8126C4.9514 19.8708 4.92487 19.929 4.8981 19.987C4.76638 20.2726 4.65984 20.5682 4.56073 20.8659C4.45968 21.1687 4.378 21.4783 4.31988 21.7932C4.26274 22.1019 4.20818 22.4109 4.20205 22.7262L4.20204 22.7262C4.20011 22.8194 4.19817 22.9126 4.19946 23.0058C4.20007 23.0479 4.20005 23.0901 4.20003 23.1322C4.19998 23.2478 4.19993 23.3633 4.2127 23.4775C4.23089 23.6422 4.26209 23.8056 4.29326 23.9687L4.29347 23.9699L4.31084 24.0613L4.31128 24.0636C4.32276 24.1248 4.33457 24.1878 4.37283 24.2403C4.37218 24.3276 4.40415 24.4042 4.44741 24.4772C4.44889 24.4841 4.45016 24.4911 4.45143 24.4981C4.45432 24.5139 4.45721 24.5298 4.46258 24.5447C4.57751 24.8586 4.73861 25.1477 4.94394 25.4088C4.9625 25.4324 4.98041 25.4568 4.99838 25.4813C5.05915 25.5641 5.12058 25.6477 5.21029 25.7038C5.21703 25.711 5.22388 25.718 5.23071 25.7249L5.23084 25.7251L5.23827 25.7326L5.24451 25.739C5.30585 25.8326 5.38785 25.9024 5.48406 25.9568C5.53022 26.0161 5.5793 26.0719 5.65484 26.0934C5.73823 26.1816 5.84079 26.2433 5.94272 26.3045L5.94302 26.3047C5.96293 26.3167 5.98282 26.3286 6.00254 26.3408C6.15783 26.4363 6.31732 26.5266 6.49165 26.5853C6.67503 26.6912 6.87164 26.7583 7.07955 26.7929C7.11277 26.8278 7.15464 26.8279 7.19661 26.8279L7.21055 26.8279L7.2187 26.8281C7.24 26.8503 7.26777 26.8565 7.29682 26.861C7.35436 26.8701 7.41167 26.8804 7.46898 26.8906C7.576 26.9097 7.68305 26.9289 7.79174 26.9406L7.83168 26.9448L7.83173 26.9448C8.09955 26.9735 8.36691 27.0021 8.63662 26.9999C9.06375 26.9963 9.49087 26.9921 9.91831 26.9771C10.4033 26.9601 10.889 26.961 11.3748 26.962H11.375H11.3761C11.5608 26.9623 11.7456 26.9627 11.9303 26.9621C12.0174 26.9621 12.1033 26.9588 12.1873 26.9327H12.2567C12.3493 26.9327 12.442 26.9327 12.5346 26.9324L12.57 26.9319L12.5923 26.9317L12.6391 26.9311L12.7435 26.9298L12.7779 26.9304L12.83 26.9314L12.8301 26.9314C12.8879 26.9326 12.9457 26.9337 13.0034 26.9337C13.7253 26.9337 14.4472 26.9246 15.169 26.9008C15.2946 26.8966 15.4201 26.8952 15.5457 26.8939C15.6051 26.8932 15.6646 26.8926 15.724 26.8917L15.7374 26.8915C15.7734 26.8914 15.8093 26.8912 15.8389 26.864L15.9056 26.8618L15.9723 26.8597C16.0866 26.8701 16.1991 26.8558 16.3118 26.8415H16.3119C16.3472 26.837 16.3825 26.8325 16.4178 26.8288C16.4686 26.8234 16.5195 26.819 16.5705 26.8146L16.5708 26.8145L16.5709 26.8145L16.5709 26.8145L16.571 26.8145L16.571 26.8145L16.5711 26.8145L16.5711 26.8145L16.5712 26.8145C16.6686 26.8061 16.7661 26.7976 16.8627 26.7825C17.1116 26.743 17.3602 26.6987 17.6068 26.6469C17.627 26.6426 17.6474 26.6386 17.6678 26.6346L17.6683 26.6345L17.669 26.6344C17.7655 26.6155 17.8629 26.5965 17.9516 26.5487L17.956 26.548L17.9609 26.5471L17.9772 26.5441L17.9862 26.5426C18.0162 26.5458 18.0423 26.5383 18.0624 26.5139H18.0766L18.0898 26.51C18.1289 26.5113 18.1673 26.5113 18.1947 26.4757C18.3071 26.466 18.4075 26.42 18.5066 26.3695C18.6196 26.3437 18.7277 26.3056 18.821 26.2335C18.8511 26.2326 18.8782 26.2254 18.8966 26.1987C18.9063 26.2 18.915 26.1974 18.9227 26.1915C19.0632 26.1361 19.192 26.0585 19.3198 25.9786C19.4459 25.8998 19.5661 25.8137 19.6795 25.7199ZM24.8528 10.3856C24.8162 10.2711 24.7618 10.1641 24.6874 10.0656C24.6571 9.98576 24.6148 9.91405 24.5483 9.85929C24.5144 9.78986 24.4747 9.72499 24.4082 9.68163C24.2141 9.44987 23.9717 9.28428 23.6992 9.16367C23.459 9.05741 23.2023 9.01503 22.9428 8.99091L22.9422 8.99086C22.9023 8.98729 22.8596 8.98346 22.822 8.99385C22.7388 9.01619 22.654 9.0226 22.569 9.02902C22.5102 9.03345 22.4513 9.0379 22.393 9.04763C22.1615 9.0861 21.9423 9.15553 21.7395 9.26798C21.3221 9.49942 20.946 9.79116 20.6064 10.1263C20.3248 10.404 20.0911 10.7247 19.8783 11.0588C19.8679 11.0752 19.8572 11.0915 19.8464 11.1078C19.7935 11.1881 19.7398 11.2694 19.7192 11.3672C19.7141 11.3747 19.7086 11.382 19.7032 11.3893C19.6913 11.4051 19.6795 11.4209 19.6717 11.4386L19.6626 11.46L19.6625 11.4602C19.6061 11.5919 19.5498 11.7236 19.498 11.8571C19.4009 12.1065 19.3182 12.3614 19.275 12.6261C19.2504 12.7764 19.2162 12.9211 19.1603 13.0629C19.0625 13.3113 19.0341 13.5717 19.0687 13.8344C19.0715 13.856 19.0732 13.8782 19.0749 13.9005C19.0801 13.9701 19.0855 14.0414 19.1261 14.1034C19.1529 14.3071 19.2197 14.4952 19.3398 14.6627C19.3543 14.707 19.3801 14.7443 19.4063 14.7821L19.4173 14.798C19.5306 14.9642 19.6833 15.0878 19.8441 15.2019L19.8775 15.2257C19.9246 15.2594 19.9718 15.2932 20.0213 15.3228L20.6593 13.5985C21.2765 11.9305 23.231 11.5429 24.4697 12.4358L24.4364 11.7955C24.4077 11.243 24.5713 10.7623 24.8528 10.3856ZM17.847 10.5983L17.8477 10.5976V10.5979L17.8464 10.5992C17.8464 10.5989 17.847 10.5983 17.847 10.5983ZM4.85485 16.8382C4.72604 16.9164 4.58851 16.9794 4.43967 17.0064L4.43935 17.0054C4.35121 17.0217 4.27502 17.0589 4.20109 17.1045C3.97123 17.2463 3.72167 17.3268 3.45532 17.3656C3.31779 17.3858 3.18026 17.4047 3.04241 17.393L2.9766 17.3875C2.77543 17.3711 2.57371 17.3547 2.388 17.26C2.23064 17.2367 2.09411 17.1612 1.95768 17.0858L1.94377 17.0781C1.9315 17.0657 1.91794 17.0547 1.90116 17.0485C1.89147 17.0498 1.88243 17.0475 1.87436 17.0419C1.86435 17.0331 1.85402 17.025 1.84337 17.0168L1.87436 17.0423C1.85693 17.04 1.84498 17.0305 1.83885 17.0139C1.81044 17.0123 1.78622 17.0028 1.77105 16.9764C1.75329 16.9725 1.74006 16.9631 1.73425 16.9451C1.70551 16.9442 1.6813 16.9344 1.66645 16.9076C1.46209 16.7919 1.28872 16.6391 1.14344 16.4536H1.14441C1.12536 16.4484 1.11406 16.4356 1.10922 16.4167L1.10923 16.4168L1.10925 16.4168L1.10926 16.4168C1.12119 16.4288 1.13313 16.4409 1.14506 16.4533C1.13666 16.4383 1.12504 16.4265 1.11051 16.4174C1.1018 16.4024 1.08985 16.391 1.07629 16.3812C1.06872 16.3701 1.05923 16.3608 1.04974 16.3514L1.04973 16.3514L1.0497 16.3513L1.04304 16.3447C1.03174 16.3336 1.02109 16.3219 1.0114 16.3092L1.00946 16.3066C0.982344 16.2939 0.972013 16.2707 0.969753 16.2424C0.916807 16.2094 0.877743 16.1657 0.865798 16.1019C0.848364 16.0953 0.838033 16.083 0.833836 16.0647C0.823505 16.0543 0.81382 16.0429 0.80478 16.0311C0.798969 16.0233 0.796386 16.0145 0.796709 16.0044C0.78541 15.9901 0.774433 15.9757 0.763456 15.9614C0.72181 15.9385 0.698888 15.903 0.692431 15.8561C0.675643 15.8496 0.665635 15.8372 0.662084 15.8189L0.661438 15.8176C0.63561 15.8029 0.626248 15.7788 0.623988 15.7505C0.554908 15.6782 0.51181 15.5893 0.468889 15.5008L0.468885 15.5008L0.468851 15.5007L0.468833 15.5007L0.447715 15.4574C0.333106 15.2253 0.23593 14.9864 0.178464 14.7325C0.173944 14.722 0.17233 14.7113 0.173944 14.6999C0.139738 14.6667 0.139462 14.6249 0.139185 14.583C0.13913 14.5747 0.139075 14.5663 0.138754 14.5581C0.102725 14.5219 0.0988291 14.4753 0.0950136 14.4297C0.0935299 14.4119 0.0920582 14.3943 0.0887136 14.3775C0.0160738 14.0105 -0.0139506 13.6398 0.00606565 13.2656C0.00767987 13.236 0.0131682 13.2079 0.0335073 13.1851L0.0347993 13.1527L0.0360901 13.1202C0.0370696 13.0988 0.0364773 13.0771 0.0358847 13.0553C0.0343287 12.9983 0.0327706 12.9412 0.0596577 12.8878C0.0619176 12.882 0.0648232 12.8761 0.0690201 12.8702C0.0664374 12.8601 0.0670831 12.85 0.0706343 12.8402C0.0638546 12.6443 0.120675 12.4592 0.18363 12.2789C0.307279 11.9253 0.478386 11.5944 0.716321 11.3043C1.1118 10.8225 1.60543 10.4917 2.21657 10.3645C2.60399 10.284 2.9956 10.2827 3.38172 10.3893C3.39612 10.3935 3.40964 10.4013 3.42307 10.409C3.42951 10.4127 3.43593 10.4163 3.44241 10.4196C3.60351 10.4473 3.75202 10.5076 3.89019 10.5953C3.91893 10.5969 3.94379 10.6057 3.95928 10.6325C4.00812 10.6363 4.04597 10.6627 4.08359 10.6891C4.09795 10.6991 4.11227 10.7091 4.12716 10.7179C4.31699 10.8294 4.49101 10.9637 4.65501 11.1103C5.02983 11.4448 5.28359 11.865 5.48343 12.3216C5.5081 12.378 5.53098 12.4352 5.55382 12.4924L5.55384 12.4924C5.57194 12.5377 5.59004 12.5829 5.60901 12.6277C5.70942 12.8647 5.75752 13.1154 5.79949 13.3677L5.80677 13.4099C5.82618 13.5217 5.84565 13.6338 5.83533 13.7487C5.86083 13.7758 5.86277 13.81 5.86438 13.8445C5.86682 13.8945 5.86806 13.9445 5.8693 13.9946L5.8693 13.9946L5.8693 13.9946L5.8693 13.9947L5.8693 13.9947L5.8693 13.9947L5.86931 13.9949C5.87232 14.1167 5.87534 14.2386 5.8957 14.3599C5.90441 14.4134 5.91313 14.4753 5.87052 14.5248L5.86971 14.5589L5.86939 14.5737L5.8689 14.593L5.86826 14.6458V14.6458L5.86761 14.6986C5.88031 14.814 5.86331 14.9273 5.84632 15.0405C5.83826 15.0942 5.8302 15.1479 5.82532 15.2019C5.81627 15.3007 5.79543 15.3985 5.77457 15.4964C5.76268 15.5522 5.75078 15.608 5.74106 15.6641C5.69166 15.9487 5.55542 16.1889 5.3714 16.4034C5.22289 16.5765 5.04888 16.7202 4.85485 16.8382ZM0.67315 15.8312C0.669678 15.8275 0.666201 15.8238 0.662903 15.8199L0.67758 15.8373L0.693076 15.8558C0.687558 15.8465 0.680366 15.8389 0.67315 15.8312ZM0.834159 16.065L0.850463 16.0834L0.866766 16.1019H0.867089C0.859855 16.0892 0.849505 16.0795 0.839137 16.0697L0.836168 16.0669L0.834159 16.065ZM1.75313 16.9603L1.77137 16.9764V16.9761L1.76701 16.9714C1.75725 16.9608 1.74754 16.9503 1.73489 16.9435V16.9442L1.75313 16.9603ZM5.24354 25.7387L5.20932 25.7042C5.21416 25.7224 5.22546 25.7342 5.24354 25.7387Z" fill="white"/>
<path d="M26.4345 11.7232C26.426 11.559 26.6264 11.4728 26.7397 11.5919L27.3689 12.2529C27.7254 12.6274 28.2276 12.8274 28.7439 12.8006L29.6553 12.7532C29.8195 12.7447 29.9057 12.945 29.7866 13.0584L29.1256 13.6876C28.7511 14.0441 28.5511 14.5463 28.5779 15.0626L28.6253 15.9739C28.6338 16.1382 28.4334 16.2244 28.3201 16.1053L27.6909 15.4443C27.3344 15.0698 26.8322 14.8697 26.3159 14.8966L25.4045 14.944C25.2403 14.9525 25.1541 14.7521 25.2732 14.6388L25.9342 14.0096C26.3087 13.6531 26.5087 13.1509 26.4819 12.6346L26.4345 11.7232Z" fill="#FFDA8B"/>
<path d="M22.535 14.3237C22.6947 13.8921 23.3053 13.8921 23.465 14.3237L24.3514 16.7193C24.8536 18.0764 25.9236 19.1464 27.2807 19.6486L29.6763 20.535C30.1079 20.6947 30.1079 21.3053 29.6763 21.465L27.2807 22.3514C25.9236 22.8536 24.8536 23.9236 24.3514 25.2807L23.465 27.6763C23.3053 28.1079 22.6947 28.1079 22.535 27.6763L21.6486 25.2807C21.1464 23.9236 20.0764 22.8536 18.7193 22.3514L16.3237 21.465C15.8921 21.3053 15.8921 20.6947 16.3237 20.535L18.7193 19.6486C20.0764 19.1464 21.1464 18.0764 21.6486 16.7193L22.535 14.3237Z" fill="#FFDA8B"/>
</svg>
