<svg width="30" height="30" viewBox="0 0 30 30" fill="none" xmlns="http://www.w3.org/2000/svg">
<path fill-rule="evenodd" clip-rule="evenodd" d="M9.06543 13.5173L9.94116 13.7981L9.96646 10.7175C10.2016 10.029 10.5419 9.46774 10.949 9.03045C10.999 8.97677 11.0501 8.92474 11.1025 8.87437C11.5401 8.89411 12.1419 9.03935 12.966 9.42199C14.7535 10.2517 16.2902 9.68363 17.0784 9.24558C17.3946 9.63657 17.6617 10.1114 17.8585 10.672L18.2336 13.7986L18.6804 13.4559C18.8463 13.5204 19.032 13.5196 19.1998 13.4501C19.2226 13.4406 19.2378 13.4378 19.2455 13.437C19.2513 13.4364 19.2543 13.4367 19.2556 13.437C19.2574 13.4374 19.2601 13.4383 19.2646 13.441C19.27 13.4443 19.2805 13.4517 19.2949 13.467C19.3247 13.4989 19.367 13.5609 19.4037 13.6655C19.4783 13.8779 19.5055 14.1993 19.4221 14.5673C19.3388 14.9349 19.1757 15.2135 19.0158 15.3735C18.9371 15.4522 18.8713 15.4904 18.8293 15.5066C18.8091 15.5143 18.7959 15.5165 18.7891 15.5171L18.7852 15.5173L18.7827 15.5173L18.7804 15.5163L18.7734 15.513C18.5871 15.4227 18.3714 15.4197 18.1827 15.5046C17.994 15.5895 17.8509 15.754 17.7909 15.9551C17.5443 16.7808 17.2059 17.5442 16.8043 18.1932L17.8256 17.8153C17.9773 17.5073 18.1158 17.1849 18.2395 16.8518C18.3229 16.6275 18.3995 16.3983 18.4691 16.1654C18.5177 16.1889 18.5682 16.209 18.6217 16.2213C18.6439 16.2264 18.6661 16.2304 18.6884 16.2334C19.2753 16.3114 19.9025 15.6576 20.1128 14.7298C20.3182 13.8232 20.0524 12.9783 19.5162 12.765C19.4824 12.7515 19.4476 12.7406 19.4118 12.7323C19.3321 12.7141 19.2513 12.71 19.1707 12.7187C19.3664 11.4795 19.9079 7.81332 19.6326 6.82162C19.2998 5.62191 18.2336 5.72215 18.2336 5.72215C18.2336 5.72215 19.0112 1.83615 14.5756 2.78732C12.576 3.21592 10.7206 2.77495 9.14691 2.40093C7.22983 1.9453 5.73081 1.58902 4.89833 3.02523C3.38297 5.63992 5.18648 8.3253 8.13668 8.88427L8.90904 12.7396L8.90787 12.7809C8.74986 12.7161 8.58747 12.696 8.42898 12.7323C8.39314 12.7406 8.35832 12.7515 8.32457 12.765C7.78841 12.9783 7.523 13.8232 7.72791 14.7298C7.93818 15.6579 8.56525 16.3116 9.15202 16.2335C9.17442 16.2305 9.19676 16.2264 9.21902 16.2213C9.2725 16.209 9.32258 16.1889 9.37168 16.1654C9.44122 16.3983 9.51787 16.6274 9.6012 16.8517C10.0216 17.9835 10.6121 18.9921 11.3166 19.7338L11.2167 22.0798L11.074 22.0832C4.22805 22.247 0.650454 24.9198 1.02696 28.1868C1.05952 28.4688 1.12122 28.7477 1.19174 29H20.9741L20.9816 28.9518C20.8524 28.7715 20.743 28.5673 20.6585 28.3392L19.7721 25.9436C19.4725 25.134 18.8341 24.4956 18.0245 24.196L15.6289 23.3095C14.2872 22.8131 13.774 21.4514 14.0892 20.293C14.0328 20.2976 13.9765 20.2999 13.9204 20.2999C13.1787 20.2999 12.4174 19.8978 11.7144 19.1103C11.0139 18.3256 10.4253 17.2125 10.0499 15.9551C9.98994 15.7544 9.8474 15.5902 9.65928 15.5051C9.47116 15.42 9.25603 15.4225 9.06981 15.5118L9.05756 15.5174C9.05593 15.5175 9.05388 15.5174 9.05126 15.5172C9.04452 15.5166 9.03132 15.5145 9.01123 15.5067C8.96937 15.4907 8.90364 15.4526 8.82493 15.3738C8.66513 15.214 8.50208 14.9354 8.4187 14.5676L8.41868 14.5675C8.33549 14.1994 8.3627 13.8778 8.43726 13.6654C8.47396 13.5608 8.51618 13.4987 8.54603 13.4669C8.56034 13.4516 8.57083 13.4443 8.57622 13.441C8.58059 13.4384 8.58323 13.4375 8.585 13.437C8.58608 13.4368 8.58886 13.4365 8.5945 13.4371C8.60253 13.438 8.61865 13.441 8.64333 13.4511C8.777 13.5059 8.92175 13.5171 9.05873 13.4867L9.06494 13.5177L9.06543 13.5173ZM24.9814 29H26.6282C27.2695 28.8034 27.8133 28.5345 27.9017 28.263C28.2357 27.239 27.7012 26.3043 26.558 25.3017C26.4229 25.4995 26.3111 25.7147 26.2264 25.9436L25.3399 28.3392C25.2479 28.5879 25.1261 28.8082 24.9814 29Z" fill="white"/>
<path d="M26.4345 11.7232C26.426 11.559 26.6264 11.4728 26.7397 11.5919L27.3689 12.2529C27.7254 12.6274 28.2276 12.8274 28.7439 12.8006L29.6553 12.7532C29.8195 12.7447 29.9057 12.945 29.7866 13.0584L29.1256 13.6876C28.7511 14.0441 28.5511 14.5463 28.5779 15.0626L28.6253 15.9739C28.6338 16.1382 28.4334 16.2244 28.3201 16.1053L27.6909 15.4443C27.3344 15.0698 26.8322 14.8697 26.3159 14.8966L25.4045 14.944C25.2403 14.9525 25.1541 14.7521 25.2732 14.6388L25.9342 14.0096C26.3087 13.6531 26.5087 13.1509 26.4819 12.6346L26.4345 11.7232Z" fill="#FFDA8B"/>
<path d="M22.535 14.3237C22.6947 13.8921 23.3053 13.8921 23.465 14.3237L24.3514 16.7193C24.8536 18.0764 25.9236 19.1464 27.2807 19.6486L29.6763 20.535C30.1079 20.6947 30.1079 21.3053 29.6763 21.465L27.2807 22.3514C25.9236 22.8536 24.8536 23.9236 24.3514 25.2807L23.465 27.6763C23.3053 28.1079 22.6947 28.1079 22.535 27.6763L21.6486 25.2807C21.1464 23.9236 20.0764 22.8536 18.7193 22.3514L16.3237 21.465C15.8921 21.3053 15.8921 20.6947 16.3237 20.535L18.7193 19.6486C20.0764 19.1464 21.1464 18.0764 21.6486 16.7193L22.535 14.3237Z" fill="#FFDA8B"/>
</svg>
