<svg width="30" height="30" viewBox="0 0 30 30" fill="none" xmlns="http://www.w3.org/2000/svg">
<path fill-rule="evenodd" clip-rule="evenodd" d="M1.93208 3.36463C0.865145 3.65051 0.23198 4.74719 0.517863 5.81412L5.95306 26.0986C6.23895 27.1655 7.33562 27.7987 8.40255 27.5128L12.7172 26.3567C12.5182 26.1548 12.335 25.9168 12.1805 25.6365C12.1529 25.5865 12.1269 25.5364 12.1025 25.4861L8.14373 26.5468C7.61027 26.6898 7.06193 26.3732 6.91899 25.8397L1.48379 5.5553C1.34085 5.02183 1.65743 4.4735 2.1909 4.33055L12.8161 1.48355C13.3495 1.3406 13.8979 1.65719 14.0408 2.19065L16.1866 10.1988C16.4995 10.02 16.8178 9.91011 17.1284 9.84979L15.0068 1.93183C14.7209 0.864901 13.6242 0.231736 12.5573 0.517619L1.93208 3.36463ZM15.3404 10.9043L13.0749 2.44947L2.44972 5.29648L5.16253 15.4208C5.13138 15.279 5.17648 15.1203 5.31804 15.02L6.95585 13.8601C7.8837 13.203 8.47818 12.1734 8.58332 11.0413L8.76892 9.04292C8.80236 8.68284 9.26571 8.55868 9.47472 8.8538L10.6346 10.4916C11.2917 11.4195 12.3214 12.0139 13.4535 12.1191L14.611 12.2266C14.7551 11.8005 14.9828 11.3249 15.3404 10.9043ZM14.3465 13.9272L14.0031 14.1704C13.8752 14.261 13.7537 14.3586 13.6389 14.4626C13.7985 14.4035 13.9567 14.3551 14.1102 14.3177C14.1774 14.3014 14.264 14.2818 14.3653 14.2647C14.3548 14.1576 14.3504 14.0647 14.3481 13.9923C14.3474 13.9707 14.3469 13.949 14.3465 13.9272ZM11.0566 18.5728L10.3244 17.5389C9.66725 16.611 8.63759 16.0166 7.5055 15.9114L5.50716 15.7258C5.33443 15.7098 5.21599 15.5948 5.17208 15.4565L7.88492 25.5809L11.8017 24.5314C11.6748 23.7529 11.8146 23.025 11.9637 22.5379C12.0851 22.1414 12.251 21.7707 12.4377 21.4568C12.4744 21.3952 12.5227 21.3167 12.5832 21.2291C12.5039 21.1615 12.4385 21.0994 12.3882 21.0501C12.1303 20.7975 11.8784 20.4845 11.6632 20.1344C11.4355 19.764 11.1703 19.2192 11.0566 18.5728Z" fill="white"/>
<path d="M27.3348 2.11566C27.3919 1.96144 27.61 1.96145 27.667 2.11566L27.9837 2.97153C28.1632 3.45639 28.5454 3.83867 29.0303 4.01809L29.8862 4.33479C30.0404 4.39185 30.0404 4.60998 29.8862 4.66704L29.0303 4.98374C28.5454 5.16316 28.1632 5.54544 27.9837 6.0303L27.667 6.88617C27.61 7.04039 27.3919 7.04038 27.3348 6.88617L27.0181 6.0303C26.8387 5.54544 26.4564 5.16316 25.9715 4.98374L25.1157 4.66704C24.9614 4.60998 24.9614 4.39185 25.1157 4.33479L25.9715 4.01809C26.4564 3.83867 26.8387 3.45639 27.0181 2.97153L27.3348 2.11566Z" fill="#FFDA8B"/>
<path fill-rule="evenodd" clip-rule="evenodd" d="M24.8813 13.4294C24.819 13.6619 24.5381 13.5345 24.1066 13.3387C23.8246 13.2107 23.4782 13.0535 23.0863 12.9485C22.6945 12.8435 22.3159 12.8064 22.0076 12.7762C21.536 12.7301 21.2291 12.7 21.2914 12.4676C21.3944 12.0831 22.5302 11.0588 23.5215 11.3244C24.5128 11.59 24.9843 13.045 24.8813 13.4294ZM28.4467 17.9592C28.2383 18.0796 28.1298 17.7909 27.9631 17.3473C27.8542 17.0574 27.7204 16.7013 27.5176 16.3499C27.3147 15.9986 27.0732 15.7047 26.8766 15.4654C26.5758 15.0993 26.38 14.861 26.5885 14.7407C26.9331 14.5417 28.4605 14.6205 28.9737 15.5093C29.4868 16.398 28.7913 17.7602 28.4467 17.9592ZM27.8585 22.91C27.6627 23.3415 27.5353 23.6223 27.7677 23.6846C28.1522 23.7876 29.6071 23.3162 29.8728 22.3249C30.1384 21.3336 29.114 20.1978 28.7296 20.0948C28.4972 20.0325 28.4671 20.3394 28.4209 20.811C28.3908 21.1193 28.3537 21.4979 28.2487 21.8897C28.1437 22.2815 27.9865 22.628 27.8585 22.91ZM23.238 27.2519C23.1176 27.0435 23.4063 26.935 23.8499 26.7683C24.1398 26.6594 24.4959 26.5256 24.8473 26.3228C25.1986 26.1199 25.4925 25.8784 25.7318 25.6818C26.0979 25.381 26.3362 25.1852 26.4565 25.3936C26.6555 25.7383 26.5767 27.2657 25.6879 27.7789C24.7992 28.292 23.437 27.5965 23.238 27.2519ZM18.2872 26.6614C17.8557 26.4656 17.5749 26.3382 17.5126 26.5707C17.4096 26.9551 17.881 28.4101 18.8723 28.6757C19.8636 28.9413 20.9994 27.917 21.1024 27.5326C21.1647 27.3001 20.8578 27.27 20.3862 27.2239C20.0779 27.1937 19.6993 27.1566 19.3075 27.0516C18.9156 26.9466 18.5692 26.7894 18.2872 26.6614ZM13.9453 22.0413C14.1537 21.921 14.2622 22.2097 14.4289 22.6533C14.5378 22.9432 14.6716 23.2993 14.8744 23.6506C15.0773 24.0019 15.3188 24.2959 15.5154 24.5352C15.8162 24.9013 16.012 25.1396 15.8035 25.2599C15.4589 25.4589 13.9315 25.3801 13.4183 24.4913C12.9052 23.6025 13.6007 22.2403 13.9453 22.0413ZM14.5353 17.0903C14.7311 16.6588 14.8585 16.378 14.6261 16.3157C14.2417 16.2127 12.7867 16.6842 12.5211 17.6755C12.2554 18.6668 13.2798 19.8026 13.6642 19.9056C13.8966 19.9678 13.9267 19.6609 13.9729 19.1893C14.0031 18.8811 14.0401 18.5025 14.1451 18.1106C14.2501 17.7188 14.4073 17.3724 14.5353 17.0903ZM19.1559 12.7485C19.2762 12.9569 18.9875 13.0653 18.5439 13.232C18.254 13.3409 17.8979 13.4747 17.5466 13.6776C17.1953 13.8804 16.9013 14.1219 16.662 14.3185C16.2959 14.6193 16.0576 14.8151 15.9373 14.6067C15.7383 14.262 15.8171 12.7346 16.7059 12.2215C17.5947 11.7083 18.9569 12.4038 19.1559 12.7485ZM25.7351 24.5369C23.2297 27.0422 19.1677 27.0422 16.6623 24.5369C14.1569 22.0315 14.1569 17.9694 16.6623 15.464C19.1677 12.9586 23.2297 12.9586 25.7351 15.464C28.2405 17.9694 28.2405 22.0315 25.7351 24.5369ZM22.9582 18.2397C23.7391 17.4588 23.7368 16.1352 22.6959 15.7664C22.2267 15.6001 21.7216 15.5095 21.1954 15.5095C18.7152 15.5095 16.7046 17.5202 16.7046 20.0004C16.7046 20.5266 16.7951 21.0317 16.9614 21.5009C17.3303 22.5418 18.6538 22.5441 19.4347 21.7632L22.9582 18.2397Z" fill="#FFDA8B"/>
</svg>
