<svg width="30" height="30" viewBox="0 0 30 30" fill="none" xmlns="http://www.w3.org/2000/svg">
<path fill-rule="evenodd" clip-rule="evenodd" d="M16.5253 7.93185C16.8112 6.86492 17.9079 6.23175 18.9748 6.51764L27.5324 8.81064C28.5993 9.09652 29.2325 10.1932 28.9466 11.2601L24.4348 28.0986C24.1489 29.1655 23.0522 29.7987 21.9853 29.5128L13.4277 27.2198C12.3608 26.9339 11.7276 25.8372 12.0135 24.7703L16.5253 7.93185ZM27.3643 10.5408L18.2554 8.10004L15.9303 16.7772C15.9685 16.6596 16.0697 16.5623 16.2168 16.5486L17.93 16.3895C18.9006 16.2994 19.7833 15.7897 20.3466 14.9943L21.341 13.5902C21.5202 13.3372 21.9174 13.4436 21.9461 13.7523L22.1052 15.4655C22.1953 16.436 22.705 17.3188 23.5004 17.8821L24.9045 18.8765C25.1575 19.0556 25.0511 19.4529 24.7424 19.4815L23.0292 19.6407C22.0587 19.7308 21.1759 20.2404 20.6126 21.0359L19.6182 22.44C19.4391 22.693 19.0418 22.5866 19.0131 22.2779L18.854 20.5647C18.7639 19.5941 18.2543 18.7114 17.4588 18.1481L16.0547 17.1537C15.9341 17.0683 15.8952 16.9334 15.9209 16.8124L13.5958 25.4899L22.7047 27.9306L27.3643 10.5408ZM18.4773 7.27195C18.0199 7.14941 17.5498 7.42081 17.4273 7.87815L12.7677 25.268C12.6451 25.7253 12.9166 26.1954 13.3739 26.3179L22.4828 28.7587C22.9402 28.8812 23.4103 28.6098 23.5328 28.1525L28.1924 10.7627C28.3149 10.3053 28.0435 9.83523 27.5862 9.71269L18.4773 7.27195Z" fill="#FFDA8B"/>
<path fill-rule="evenodd" clip-rule="evenodd" d="M1.93208 3.36463C0.865145 3.65051 0.23198 4.74719 0.517863 5.81412L5.95306 26.0986C6.23895 27.1655 7.33562 27.7987 8.40255 27.5128L10.9399 26.8329C10.7726 26.5437 10.6773 26.2129 10.6709 25.8697L8.14373 26.5468C7.61027 26.6898 7.06193 26.3732 6.91899 25.8397L1.48379 5.5553C1.34085 5.02183 1.65743 4.4735 2.1909 4.33055L12.8161 1.48355C13.3495 1.3406 13.8979 1.65719 14.0408 2.19065L15.4879 7.59132L15.6935 6.82419C15.7737 6.52471 15.9179 6.25941 16.1073 6.03902L15.0068 1.93183C14.7209 0.864901 13.6242 0.231736 12.5573 0.517619L1.93208 3.36463ZM14.9703 9.52318L13.0749 2.44947L2.44972 5.29648L5.16253 15.4208C5.13138 15.279 5.17648 15.1203 5.31804 15.02L6.95585 13.8601C7.8837 13.203 8.47818 12.1734 8.58332 11.0413L8.76892 9.04292C8.80236 8.68284 9.26571 8.55868 9.47472 8.8538L10.6346 10.4916C11.2917 11.4195 12.3214 12.0139 13.4535 12.1191L14.2548 12.1935L14.9703 9.52318ZM13.6493 14.4532C12.9251 15.1046 12.4667 16.0085 12.3757 16.9892L12.1901 18.9876C12.1566 19.3477 11.6933 19.4718 11.4843 19.1767L10.3244 17.5389C9.66725 16.611 8.63759 16.0166 7.5055 15.9114L5.50716 15.7258C5.33443 15.7098 5.21599 15.5948 5.17208 15.4565L7.88492 25.5809L10.8829 24.7776L13.6493 14.4532Z" fill="white"/>
<path d="M27.3348 2.11566C27.3919 1.96144 27.61 1.96145 27.667 2.11566L27.9837 2.97153C28.1632 3.45639 28.5454 3.83867 29.0303 4.01809L29.8862 4.33479C30.0404 4.39185 30.0404 4.60998 29.8862 4.66704L29.0303 4.98374C28.5454 5.16316 28.1632 5.54544 27.9837 6.0303L27.667 6.88617C27.61 7.04038 27.3919 7.04038 27.3348 6.88617L27.0181 6.0303C26.8387 5.54544 26.4564 5.16316 25.9715 4.98374L25.1157 4.66704C24.9614 4.60998 24.9614 4.39185 25.1157 4.33479L25.9715 4.01809C26.4564 3.83867 26.8387 3.45639 27.0181 2.97153L27.3348 2.11566Z" fill="#FFDA8B"/>
</svg>
