<svg width="48" height="48" viewBox="0 0 48 48" fill="none" xmlns="http://www.w3.org/2000/svg">
<path id="Vector" d="M24 0C37.248 0 48 10.752 48 24C48 37.248 37.248 48 24 48C10.752 48 0 37.248 0 24C0 10.752 10.752 0 24 0ZM9.6552 32.1984C13.1784 37.4544 18.468 40.8 24.384 40.8C30.2976 40.8 35.5896 37.4568 39.1104 32.1984C35.1162 28.4654 29.8511 26.3923 24.384 26.4C18.9161 26.3917 13.65 28.4649 9.6552 32.1984ZM24 21.6C25.9096 21.6 27.7409 20.8414 29.0912 19.4912C30.4414 18.1409 31.2 16.3096 31.2 14.4C31.2 12.4904 30.4414 10.6591 29.0912 9.30883C27.7409 7.95857 25.9096 7.2 24 7.2C22.0904 7.2 20.2591 7.95857 18.9088 9.30883C17.5586 10.6591 16.8 12.4904 16.8 14.4C16.8 16.3096 17.5586 18.1409 18.9088 19.4912C20.2591 20.8414 22.0904 21.6 24 21.6Z" fill="white" fill-opacity="0.3"/>
</svg>
