<svg width="44" height="44" viewBox="0 0 44 44" fill="none" xmlns="http://www.w3.org/2000/svg">
<g id="User image">
<circle id="Ellipse 602" cx="22" cy="22" r="22" fill="#9747FF"/>
<g id="Vector">
<path d="M19.6895 13.3554C13.7099 8.93123 9.17983 10.8748 7.66227 12.3995C10.9783 6.06372 19.7348 9.75962 23.6986 12.3995C26.5689 14.3112 28.8629 13.7416 30.086 13.3554C31.9886 12.7546 31.5582 10.9203 31.1052 10.0782C27.1913 5.21712 19.8707 5.04871 16.6997 5.57215C22.7337 3.27814 29.0784 5.57215 31.1052 7.21072C35.8346 11.0341 34.2083 14.5388 32.804 15.8132C28.8357 19.145 23.6986 16.3216 19.6895 13.3554Z" fill="black" fill-opacity="0.09"/>
<path d="M21.9998 24.3475C10.9239 16.496 5.6917 21.2524 4.60449 24.3475C7.05071 12.6044 17.0621 15.8133 21.3203 19.0221C33.1437 26.9419 38.0362 23.3689 39.3952 20.6607C35.6136 30.7653 24.2688 25.9559 21.9998 24.3475Z" fill="black" fill-opacity="0.09"/>
<path d="M13.4381 34.5886C16.7541 38.7943 24.1516 38.9354 27.4359 38.4802C25.2615 39.7092 20.5729 39.5726 17.0395 38.8216C9.15721 36.3637 8.68154 32.1307 9.97261 29.6729C12.1484 25.5308 18.4179 26.8736 20.8447 28.5805C31.0373 35.7493 33.8233 33.9741 36.4054 31.8577C32.3963 38.6168 23.8345 33.5279 20.8447 32.1307C17.8549 30.7336 15.6352 30.697 14.6612 30.7653C11.5083 31.093 12.5321 33.4507 13.4381 34.5886Z" fill="black" fill-opacity="0.09"/>
</g>
<path id="Text AaBbCcDd 123456789 Rubik 56/78 Medium" d="M16.1696 22.66C15.4465 23.817 15.0849 25.001 15.0849 26.2122C15.0849 27.5319 15.564 28.734 16.5221 29.8187C17.0464 30.4333 17.7062 30.9124 18.5016 31.2559C19.3151 31.5993 20.2009 31.7711 21.159 31.7711C22.1171 31.7711 22.9758 31.5903 23.735 31.2287C25.2535 30.4876 26.0128 29.2764 26.0128 27.5952C26.0128 26.9625 25.7959 26.2936 25.362 25.5886C24.9462 24.8835 24.3135 24.2508 23.4639 23.6904L18.8541 20.5992C17.0644 19.4784 16.1696 18.0322 16.1696 16.2606C16.1696 16.0798 16.1786 15.899 16.1967 15.7182C16.3052 14.3263 16.8565 13.1964 17.8508 12.3287C18.8631 11.4429 20.2099 11 21.8911 11C22.9215 11 24.1689 11.0904 25.6332 11.2712H27.3144L26.9619 15.2573H26.7178C26.6997 14.3172 26.3382 13.567 25.6332 13.0066C24.9281 12.4281 23.9972 12.1389 22.8402 12.1389C21.4301 12.1389 20.4088 12.5637 19.7761 13.4134C19.4687 13.8472 19.3151 14.3172 19.3151 14.8234C19.3151 15.3296 19.4687 15.7634 19.7761 16.125C20.0834 16.4684 20.5715 16.8481 21.2403 17.2639L26.3111 20.572C27.3415 21.2409 28.1459 22.0273 28.7244 22.9312C29.4114 23.9977 29.7548 25.0914 29.7548 26.2122C29.7548 26.9353 29.6012 27.7036 29.2939 28.5171C29.0046 29.3125 28.5165 30.0537 27.8296 30.7407C27.1607 31.4276 26.293 31.988 25.2264 32.4219C24.1599 32.8557 22.9758 33.0727 21.6742 33.0727C20.3907 33.0727 19.2247 32.8467 18.1762 32.3947C16.2419 31.5813 15.0126 30.1622 14.4884 28.1375C14.3799 27.7036 14.3257 27.2517 14.3257 26.7817C14.3257 25.2632 14.859 23.826 15.9255 22.4702L16.1696 22.66Z" fill="white"/>
</g>
</svg>
